%TF.GenerationSoftware,KiCad,Pcbnew,9.0.4*%
%TF.CreationDate,2026-02-02T09:46:52-05:00*%
%TF.ProjectId,destinationWeatherStation_v4-5,64657374-696e-4617-9469-6f6e57656174,03*%
%TF.SameCoordinates,PX6bcb370PY43d3480*%
%TF.FileFunction,AssemblyDrawing,Top*%
%FSLAX46Y46*%
G04 Gerber Fmt 4.6, Leading zero omitted, Abs format (unit mm)*
G04 Created by KiCad (PCBNEW 9.0.4) date 2026-02-02 09:46:52*
%MOMM*%
%LPD*%
G01*
G04 APERTURE LIST*
%ADD10C,0.150000*%
%ADD11C,0.050000*%
%ADD12C,0.100000*%
%ADD13C,0.120000*%
%ADD14C,0.250000*%
G04 APERTURE END LIST*
D10*
X16235180Y-35226666D02*
X15520895Y-35226666D01*
X15520895Y-35226666D02*
X15378038Y-35179047D01*
X15378038Y-35179047D02*
X15282800Y-35083809D01*
X15282800Y-35083809D02*
X15235180Y-34940952D01*
X15235180Y-34940952D02*
X15235180Y-34845714D01*
X16139942Y-35655238D02*
X16187561Y-35702857D01*
X16187561Y-35702857D02*
X16235180Y-35798095D01*
X16235180Y-35798095D02*
X16235180Y-36036190D01*
X16235180Y-36036190D02*
X16187561Y-36131428D01*
X16187561Y-36131428D02*
X16139942Y-36179047D01*
X16139942Y-36179047D02*
X16044704Y-36226666D01*
X16044704Y-36226666D02*
X15949466Y-36226666D01*
X15949466Y-36226666D02*
X15806609Y-36179047D01*
X15806609Y-36179047D02*
X15235180Y-35607619D01*
X15235180Y-35607619D02*
X15235180Y-36226666D01*
D11*
X41588571Y-17761709D02*
X41421905Y-17523614D01*
X41302857Y-17761709D02*
X41302857Y-17261709D01*
X41302857Y-17261709D02*
X41493333Y-17261709D01*
X41493333Y-17261709D02*
X41540952Y-17285519D01*
X41540952Y-17285519D02*
X41564762Y-17309328D01*
X41564762Y-17309328D02*
X41588571Y-17356947D01*
X41588571Y-17356947D02*
X41588571Y-17428376D01*
X41588571Y-17428376D02*
X41564762Y-17475995D01*
X41564762Y-17475995D02*
X41540952Y-17499804D01*
X41540952Y-17499804D02*
X41493333Y-17523614D01*
X41493333Y-17523614D02*
X41302857Y-17523614D01*
X42064762Y-17761709D02*
X41779048Y-17761709D01*
X41921905Y-17761709D02*
X41921905Y-17261709D01*
X41921905Y-17261709D02*
X41874286Y-17333138D01*
X41874286Y-17333138D02*
X41826667Y-17380757D01*
X41826667Y-17380757D02*
X41779048Y-17404566D01*
X42255238Y-17309328D02*
X42279047Y-17285519D01*
X42279047Y-17285519D02*
X42326666Y-17261709D01*
X42326666Y-17261709D02*
X42445714Y-17261709D01*
X42445714Y-17261709D02*
X42493333Y-17285519D01*
X42493333Y-17285519D02*
X42517142Y-17309328D01*
X42517142Y-17309328D02*
X42540952Y-17356947D01*
X42540952Y-17356947D02*
X42540952Y-17404566D01*
X42540952Y-17404566D02*
X42517142Y-17475995D01*
X42517142Y-17475995D02*
X42231428Y-17761709D01*
X42231428Y-17761709D02*
X42540952Y-17761709D01*
X39048571Y-17761709D02*
X38881905Y-17523614D01*
X38762857Y-17761709D02*
X38762857Y-17261709D01*
X38762857Y-17261709D02*
X38953333Y-17261709D01*
X38953333Y-17261709D02*
X39000952Y-17285519D01*
X39000952Y-17285519D02*
X39024762Y-17309328D01*
X39024762Y-17309328D02*
X39048571Y-17356947D01*
X39048571Y-17356947D02*
X39048571Y-17428376D01*
X39048571Y-17428376D02*
X39024762Y-17475995D01*
X39024762Y-17475995D02*
X39000952Y-17499804D01*
X39000952Y-17499804D02*
X38953333Y-17523614D01*
X38953333Y-17523614D02*
X38762857Y-17523614D01*
X39524762Y-17761709D02*
X39239048Y-17761709D01*
X39381905Y-17761709D02*
X39381905Y-17261709D01*
X39381905Y-17261709D02*
X39334286Y-17333138D01*
X39334286Y-17333138D02*
X39286667Y-17380757D01*
X39286667Y-17380757D02*
X39239048Y-17404566D01*
X40000952Y-17761709D02*
X39715238Y-17761709D01*
X39858095Y-17761709D02*
X39858095Y-17261709D01*
X39858095Y-17261709D02*
X39810476Y-17333138D01*
X39810476Y-17333138D02*
X39762857Y-17380757D01*
X39762857Y-17380757D02*
X39715238Y-17404566D01*
X43456328Y-10207619D02*
X43432519Y-10255238D01*
X43432519Y-10255238D02*
X43384900Y-10302857D01*
X43384900Y-10302857D02*
X43313471Y-10374285D01*
X43313471Y-10374285D02*
X43289661Y-10421904D01*
X43289661Y-10421904D02*
X43289661Y-10469523D01*
X43408709Y-10445714D02*
X43384900Y-10493333D01*
X43384900Y-10493333D02*
X43337280Y-10540952D01*
X43337280Y-10540952D02*
X43242042Y-10564761D01*
X43242042Y-10564761D02*
X43075376Y-10564761D01*
X43075376Y-10564761D02*
X42980138Y-10540952D01*
X42980138Y-10540952D02*
X42932519Y-10493333D01*
X42932519Y-10493333D02*
X42908709Y-10445714D01*
X42908709Y-10445714D02*
X42908709Y-10350476D01*
X42908709Y-10350476D02*
X42932519Y-10302857D01*
X42932519Y-10302857D02*
X42980138Y-10255238D01*
X42980138Y-10255238D02*
X43075376Y-10231428D01*
X43075376Y-10231428D02*
X43242042Y-10231428D01*
X43242042Y-10231428D02*
X43337280Y-10255238D01*
X43337280Y-10255238D02*
X43384900Y-10302857D01*
X43384900Y-10302857D02*
X43408709Y-10350476D01*
X43408709Y-10350476D02*
X43408709Y-10445714D01*
X43408709Y-9755237D02*
X43408709Y-10040951D01*
X43408709Y-9898094D02*
X42908709Y-9898094D01*
X42908709Y-9898094D02*
X42980138Y-9945713D01*
X42980138Y-9945713D02*
X43027757Y-9993332D01*
X43027757Y-9993332D02*
X43051566Y-10040951D01*
X47393328Y-6397619D02*
X47369519Y-6445238D01*
X47369519Y-6445238D02*
X47321900Y-6492857D01*
X47321900Y-6492857D02*
X47250471Y-6564285D01*
X47250471Y-6564285D02*
X47226661Y-6611904D01*
X47226661Y-6611904D02*
X47226661Y-6659523D01*
X47345709Y-6635714D02*
X47321900Y-6683333D01*
X47321900Y-6683333D02*
X47274280Y-6730952D01*
X47274280Y-6730952D02*
X47179042Y-6754761D01*
X47179042Y-6754761D02*
X47012376Y-6754761D01*
X47012376Y-6754761D02*
X46917138Y-6730952D01*
X46917138Y-6730952D02*
X46869519Y-6683333D01*
X46869519Y-6683333D02*
X46845709Y-6635714D01*
X46845709Y-6635714D02*
X46845709Y-6540476D01*
X46845709Y-6540476D02*
X46869519Y-6492857D01*
X46869519Y-6492857D02*
X46917138Y-6445238D01*
X46917138Y-6445238D02*
X47012376Y-6421428D01*
X47012376Y-6421428D02*
X47179042Y-6421428D01*
X47179042Y-6421428D02*
X47274280Y-6445238D01*
X47274280Y-6445238D02*
X47321900Y-6492857D01*
X47321900Y-6492857D02*
X47345709Y-6540476D01*
X47345709Y-6540476D02*
X47345709Y-6635714D01*
X46893328Y-6230951D02*
X46869519Y-6207142D01*
X46869519Y-6207142D02*
X46845709Y-6159523D01*
X46845709Y-6159523D02*
X46845709Y-6040475D01*
X46845709Y-6040475D02*
X46869519Y-5992856D01*
X46869519Y-5992856D02*
X46893328Y-5969047D01*
X46893328Y-5969047D02*
X46940947Y-5945237D01*
X46940947Y-5945237D02*
X46988566Y-5945237D01*
X46988566Y-5945237D02*
X47059995Y-5969047D01*
X47059995Y-5969047D02*
X47345709Y-6254761D01*
X47345709Y-6254761D02*
X47345709Y-5945237D01*
X34123333Y-6967709D02*
X34123333Y-7324852D01*
X34123333Y-7324852D02*
X34099524Y-7396280D01*
X34099524Y-7396280D02*
X34051905Y-7443900D01*
X34051905Y-7443900D02*
X33980476Y-7467709D01*
X33980476Y-7467709D02*
X33932857Y-7467709D01*
X34623333Y-7467709D02*
X34337619Y-7467709D01*
X34480476Y-7467709D02*
X34480476Y-6967709D01*
X34480476Y-6967709D02*
X34432857Y-7039138D01*
X34432857Y-7039138D02*
X34385238Y-7086757D01*
X34385238Y-7086757D02*
X34337619Y-7110566D01*
X58388334Y-31827900D02*
X58459762Y-31851709D01*
X58459762Y-31851709D02*
X58578810Y-31851709D01*
X58578810Y-31851709D02*
X58626429Y-31827900D01*
X58626429Y-31827900D02*
X58650238Y-31804090D01*
X58650238Y-31804090D02*
X58674048Y-31756471D01*
X58674048Y-31756471D02*
X58674048Y-31708852D01*
X58674048Y-31708852D02*
X58650238Y-31661233D01*
X58650238Y-31661233D02*
X58626429Y-31637423D01*
X58626429Y-31637423D02*
X58578810Y-31613614D01*
X58578810Y-31613614D02*
X58483572Y-31589804D01*
X58483572Y-31589804D02*
X58435953Y-31565995D01*
X58435953Y-31565995D02*
X58412143Y-31542185D01*
X58412143Y-31542185D02*
X58388334Y-31494566D01*
X58388334Y-31494566D02*
X58388334Y-31446947D01*
X58388334Y-31446947D02*
X58412143Y-31399328D01*
X58412143Y-31399328D02*
X58435953Y-31375519D01*
X58435953Y-31375519D02*
X58483572Y-31351709D01*
X58483572Y-31351709D02*
X58602619Y-31351709D01*
X58602619Y-31351709D02*
X58674048Y-31375519D01*
X58840714Y-31351709D02*
X58959762Y-31851709D01*
X58959762Y-31851709D02*
X59055000Y-31494566D01*
X59055000Y-31494566D02*
X59150238Y-31851709D01*
X59150238Y-31851709D02*
X59269286Y-31351709D01*
X59697857Y-31351709D02*
X59459762Y-31351709D01*
X59459762Y-31351709D02*
X59435953Y-31589804D01*
X59435953Y-31589804D02*
X59459762Y-31565995D01*
X59459762Y-31565995D02*
X59507381Y-31542185D01*
X59507381Y-31542185D02*
X59626429Y-31542185D01*
X59626429Y-31542185D02*
X59674048Y-31565995D01*
X59674048Y-31565995D02*
X59697857Y-31589804D01*
X59697857Y-31589804D02*
X59721667Y-31637423D01*
X59721667Y-31637423D02*
X59721667Y-31756471D01*
X59721667Y-31756471D02*
X59697857Y-31804090D01*
X59697857Y-31804090D02*
X59674048Y-31827900D01*
X59674048Y-31827900D02*
X59626429Y-31851709D01*
X59626429Y-31851709D02*
X59507381Y-31851709D01*
X59507381Y-31851709D02*
X59459762Y-31827900D01*
X59459762Y-31827900D02*
X59435953Y-31804090D01*
X58388334Y-16587900D02*
X58459762Y-16611709D01*
X58459762Y-16611709D02*
X58578810Y-16611709D01*
X58578810Y-16611709D02*
X58626429Y-16587900D01*
X58626429Y-16587900D02*
X58650238Y-16564090D01*
X58650238Y-16564090D02*
X58674048Y-16516471D01*
X58674048Y-16516471D02*
X58674048Y-16468852D01*
X58674048Y-16468852D02*
X58650238Y-16421233D01*
X58650238Y-16421233D02*
X58626429Y-16397423D01*
X58626429Y-16397423D02*
X58578810Y-16373614D01*
X58578810Y-16373614D02*
X58483572Y-16349804D01*
X58483572Y-16349804D02*
X58435953Y-16325995D01*
X58435953Y-16325995D02*
X58412143Y-16302185D01*
X58412143Y-16302185D02*
X58388334Y-16254566D01*
X58388334Y-16254566D02*
X58388334Y-16206947D01*
X58388334Y-16206947D02*
X58412143Y-16159328D01*
X58412143Y-16159328D02*
X58435953Y-16135519D01*
X58435953Y-16135519D02*
X58483572Y-16111709D01*
X58483572Y-16111709D02*
X58602619Y-16111709D01*
X58602619Y-16111709D02*
X58674048Y-16135519D01*
X58840714Y-16111709D02*
X58959762Y-16611709D01*
X58959762Y-16611709D02*
X59055000Y-16254566D01*
X59055000Y-16254566D02*
X59150238Y-16611709D01*
X59150238Y-16611709D02*
X59269286Y-16111709D01*
X59412143Y-16111709D02*
X59721667Y-16111709D01*
X59721667Y-16111709D02*
X59555000Y-16302185D01*
X59555000Y-16302185D02*
X59626429Y-16302185D01*
X59626429Y-16302185D02*
X59674048Y-16325995D01*
X59674048Y-16325995D02*
X59697857Y-16349804D01*
X59697857Y-16349804D02*
X59721667Y-16397423D01*
X59721667Y-16397423D02*
X59721667Y-16516471D01*
X59721667Y-16516471D02*
X59697857Y-16564090D01*
X59697857Y-16564090D02*
X59674048Y-16587900D01*
X59674048Y-16587900D02*
X59626429Y-16611709D01*
X59626429Y-16611709D02*
X59483572Y-16611709D01*
X59483572Y-16611709D02*
X59435953Y-16587900D01*
X59435953Y-16587900D02*
X59412143Y-16564090D01*
X58388334Y-8967900D02*
X58459762Y-8991709D01*
X58459762Y-8991709D02*
X58578810Y-8991709D01*
X58578810Y-8991709D02*
X58626429Y-8967900D01*
X58626429Y-8967900D02*
X58650238Y-8944090D01*
X58650238Y-8944090D02*
X58674048Y-8896471D01*
X58674048Y-8896471D02*
X58674048Y-8848852D01*
X58674048Y-8848852D02*
X58650238Y-8801233D01*
X58650238Y-8801233D02*
X58626429Y-8777423D01*
X58626429Y-8777423D02*
X58578810Y-8753614D01*
X58578810Y-8753614D02*
X58483572Y-8729804D01*
X58483572Y-8729804D02*
X58435953Y-8705995D01*
X58435953Y-8705995D02*
X58412143Y-8682185D01*
X58412143Y-8682185D02*
X58388334Y-8634566D01*
X58388334Y-8634566D02*
X58388334Y-8586947D01*
X58388334Y-8586947D02*
X58412143Y-8539328D01*
X58412143Y-8539328D02*
X58435953Y-8515519D01*
X58435953Y-8515519D02*
X58483572Y-8491709D01*
X58483572Y-8491709D02*
X58602619Y-8491709D01*
X58602619Y-8491709D02*
X58674048Y-8515519D01*
X58840714Y-8491709D02*
X58959762Y-8991709D01*
X58959762Y-8991709D02*
X59055000Y-8634566D01*
X59055000Y-8634566D02*
X59150238Y-8991709D01*
X59150238Y-8991709D02*
X59269286Y-8491709D01*
X59435953Y-8539328D02*
X59459762Y-8515519D01*
X59459762Y-8515519D02*
X59507381Y-8491709D01*
X59507381Y-8491709D02*
X59626429Y-8491709D01*
X59626429Y-8491709D02*
X59674048Y-8515519D01*
X59674048Y-8515519D02*
X59697857Y-8539328D01*
X59697857Y-8539328D02*
X59721667Y-8586947D01*
X59721667Y-8586947D02*
X59721667Y-8634566D01*
X59721667Y-8634566D02*
X59697857Y-8705995D01*
X59697857Y-8705995D02*
X59412143Y-8991709D01*
X59412143Y-8991709D02*
X59721667Y-8991709D01*
X16691090Y-47315333D02*
X16714900Y-47339142D01*
X16714900Y-47339142D02*
X16738709Y-47410571D01*
X16738709Y-47410571D02*
X16738709Y-47458190D01*
X16738709Y-47458190D02*
X16714900Y-47529618D01*
X16714900Y-47529618D02*
X16667280Y-47577237D01*
X16667280Y-47577237D02*
X16619661Y-47601047D01*
X16619661Y-47601047D02*
X16524423Y-47624856D01*
X16524423Y-47624856D02*
X16452995Y-47624856D01*
X16452995Y-47624856D02*
X16357757Y-47601047D01*
X16357757Y-47601047D02*
X16310138Y-47577237D01*
X16310138Y-47577237D02*
X16262519Y-47529618D01*
X16262519Y-47529618D02*
X16238709Y-47458190D01*
X16238709Y-47458190D02*
X16238709Y-47410571D01*
X16238709Y-47410571D02*
X16262519Y-47339142D01*
X16262519Y-47339142D02*
X16286328Y-47315333D01*
X16286328Y-47124856D02*
X16262519Y-47101047D01*
X16262519Y-47101047D02*
X16238709Y-47053428D01*
X16238709Y-47053428D02*
X16238709Y-46934380D01*
X16238709Y-46934380D02*
X16262519Y-46886761D01*
X16262519Y-46886761D02*
X16286328Y-46862952D01*
X16286328Y-46862952D02*
X16333947Y-46839142D01*
X16333947Y-46839142D02*
X16381566Y-46839142D01*
X16381566Y-46839142D02*
X16452995Y-46862952D01*
X16452995Y-46862952D02*
X16738709Y-47148666D01*
X16738709Y-47148666D02*
X16738709Y-46839142D01*
X41227380Y-4594328D02*
X41179761Y-4570519D01*
X41179761Y-4570519D02*
X41132142Y-4522900D01*
X41132142Y-4522900D02*
X41060714Y-4451471D01*
X41060714Y-4451471D02*
X41013095Y-4427661D01*
X41013095Y-4427661D02*
X40965476Y-4427661D01*
X40989285Y-4546709D02*
X40941666Y-4522900D01*
X40941666Y-4522900D02*
X40894047Y-4475280D01*
X40894047Y-4475280D02*
X40870238Y-4380042D01*
X40870238Y-4380042D02*
X40870238Y-4213376D01*
X40870238Y-4213376D02*
X40894047Y-4118138D01*
X40894047Y-4118138D02*
X40941666Y-4070519D01*
X40941666Y-4070519D02*
X40989285Y-4046709D01*
X40989285Y-4046709D02*
X41084523Y-4046709D01*
X41084523Y-4046709D02*
X41132142Y-4070519D01*
X41132142Y-4070519D02*
X41179761Y-4118138D01*
X41179761Y-4118138D02*
X41203571Y-4213376D01*
X41203571Y-4213376D02*
X41203571Y-4380042D01*
X41203571Y-4380042D02*
X41179761Y-4475280D01*
X41179761Y-4475280D02*
X41132142Y-4522900D01*
X41132142Y-4522900D02*
X41084523Y-4546709D01*
X41084523Y-4546709D02*
X40989285Y-4546709D01*
X41632143Y-4213376D02*
X41632143Y-4546709D01*
X41513095Y-4022900D02*
X41394048Y-4380042D01*
X41394048Y-4380042D02*
X41703571Y-4380042D01*
X58388334Y-24207900D02*
X58459762Y-24231709D01*
X58459762Y-24231709D02*
X58578810Y-24231709D01*
X58578810Y-24231709D02*
X58626429Y-24207900D01*
X58626429Y-24207900D02*
X58650238Y-24184090D01*
X58650238Y-24184090D02*
X58674048Y-24136471D01*
X58674048Y-24136471D02*
X58674048Y-24088852D01*
X58674048Y-24088852D02*
X58650238Y-24041233D01*
X58650238Y-24041233D02*
X58626429Y-24017423D01*
X58626429Y-24017423D02*
X58578810Y-23993614D01*
X58578810Y-23993614D02*
X58483572Y-23969804D01*
X58483572Y-23969804D02*
X58435953Y-23945995D01*
X58435953Y-23945995D02*
X58412143Y-23922185D01*
X58412143Y-23922185D02*
X58388334Y-23874566D01*
X58388334Y-23874566D02*
X58388334Y-23826947D01*
X58388334Y-23826947D02*
X58412143Y-23779328D01*
X58412143Y-23779328D02*
X58435953Y-23755519D01*
X58435953Y-23755519D02*
X58483572Y-23731709D01*
X58483572Y-23731709D02*
X58602619Y-23731709D01*
X58602619Y-23731709D02*
X58674048Y-23755519D01*
X58840714Y-23731709D02*
X58959762Y-24231709D01*
X58959762Y-24231709D02*
X59055000Y-23874566D01*
X59055000Y-23874566D02*
X59150238Y-24231709D01*
X59150238Y-24231709D02*
X59269286Y-23731709D01*
X59674048Y-23898376D02*
X59674048Y-24231709D01*
X59555000Y-23707900D02*
X59435953Y-24065042D01*
X59435953Y-24065042D02*
X59745476Y-24065042D01*
X25964655Y-47472709D02*
X25797989Y-47234614D01*
X25678941Y-47472709D02*
X25678941Y-46972709D01*
X25678941Y-46972709D02*
X25869417Y-46972709D01*
X25869417Y-46972709D02*
X25917036Y-46996519D01*
X25917036Y-46996519D02*
X25940846Y-47020328D01*
X25940846Y-47020328D02*
X25964655Y-47067947D01*
X25964655Y-47067947D02*
X25964655Y-47139376D01*
X25964655Y-47139376D02*
X25940846Y-47186995D01*
X25940846Y-47186995D02*
X25917036Y-47210804D01*
X25917036Y-47210804D02*
X25869417Y-47234614D01*
X25869417Y-47234614D02*
X25678941Y-47234614D01*
X26440846Y-47472709D02*
X26155132Y-47472709D01*
X26297989Y-47472709D02*
X26297989Y-46972709D01*
X26297989Y-46972709D02*
X26250370Y-47044138D01*
X26250370Y-47044138D02*
X26202751Y-47091757D01*
X26202751Y-47091757D02*
X26155132Y-47115566D01*
X26750369Y-46972709D02*
X26797988Y-46972709D01*
X26797988Y-46972709D02*
X26845607Y-46996519D01*
X26845607Y-46996519D02*
X26869417Y-47020328D01*
X26869417Y-47020328D02*
X26893226Y-47067947D01*
X26893226Y-47067947D02*
X26917036Y-47163185D01*
X26917036Y-47163185D02*
X26917036Y-47282233D01*
X26917036Y-47282233D02*
X26893226Y-47377471D01*
X26893226Y-47377471D02*
X26869417Y-47425090D01*
X26869417Y-47425090D02*
X26845607Y-47448900D01*
X26845607Y-47448900D02*
X26797988Y-47472709D01*
X26797988Y-47472709D02*
X26750369Y-47472709D01*
X26750369Y-47472709D02*
X26702750Y-47448900D01*
X26702750Y-47448900D02*
X26678941Y-47425090D01*
X26678941Y-47425090D02*
X26655131Y-47377471D01*
X26655131Y-47377471D02*
X26631322Y-47282233D01*
X26631322Y-47282233D02*
X26631322Y-47163185D01*
X26631322Y-47163185D02*
X26655131Y-47067947D01*
X26655131Y-47067947D02*
X26678941Y-47020328D01*
X26678941Y-47020328D02*
X26702750Y-46996519D01*
X26702750Y-46996519D02*
X26750369Y-46972709D01*
X14775666Y-28295709D02*
X14609000Y-28057614D01*
X14489952Y-28295709D02*
X14489952Y-27795709D01*
X14489952Y-27795709D02*
X14680428Y-27795709D01*
X14680428Y-27795709D02*
X14728047Y-27819519D01*
X14728047Y-27819519D02*
X14751857Y-27843328D01*
X14751857Y-27843328D02*
X14775666Y-27890947D01*
X14775666Y-27890947D02*
X14775666Y-27962376D01*
X14775666Y-27962376D02*
X14751857Y-28009995D01*
X14751857Y-28009995D02*
X14728047Y-28033804D01*
X14728047Y-28033804D02*
X14680428Y-28057614D01*
X14680428Y-28057614D02*
X14489952Y-28057614D01*
X15228047Y-27795709D02*
X14989952Y-27795709D01*
X14989952Y-27795709D02*
X14966143Y-28033804D01*
X14966143Y-28033804D02*
X14989952Y-28009995D01*
X14989952Y-28009995D02*
X15037571Y-27986185D01*
X15037571Y-27986185D02*
X15156619Y-27986185D01*
X15156619Y-27986185D02*
X15204238Y-28009995D01*
X15204238Y-28009995D02*
X15228047Y-28033804D01*
X15228047Y-28033804D02*
X15251857Y-28081423D01*
X15251857Y-28081423D02*
X15251857Y-28200471D01*
X15251857Y-28200471D02*
X15228047Y-28248090D01*
X15228047Y-28248090D02*
X15204238Y-28271900D01*
X15204238Y-28271900D02*
X15156619Y-28295709D01*
X15156619Y-28295709D02*
X15037571Y-28295709D01*
X15037571Y-28295709D02*
X14989952Y-28271900D01*
X14989952Y-28271900D02*
X14966143Y-28248090D01*
X4488666Y-28248090D02*
X4464857Y-28271900D01*
X4464857Y-28271900D02*
X4393428Y-28295709D01*
X4393428Y-28295709D02*
X4345809Y-28295709D01*
X4345809Y-28295709D02*
X4274381Y-28271900D01*
X4274381Y-28271900D02*
X4226762Y-28224280D01*
X4226762Y-28224280D02*
X4202952Y-28176661D01*
X4202952Y-28176661D02*
X4179143Y-28081423D01*
X4179143Y-28081423D02*
X4179143Y-28009995D01*
X4179143Y-28009995D02*
X4202952Y-27914757D01*
X4202952Y-27914757D02*
X4226762Y-27867138D01*
X4226762Y-27867138D02*
X4274381Y-27819519D01*
X4274381Y-27819519D02*
X4345809Y-27795709D01*
X4345809Y-27795709D02*
X4393428Y-27795709D01*
X4393428Y-27795709D02*
X4464857Y-27819519D01*
X4464857Y-27819519D02*
X4488666Y-27843328D01*
X4917238Y-27962376D02*
X4917238Y-28295709D01*
X4798190Y-27771900D02*
X4679143Y-28129042D01*
X4679143Y-28129042D02*
X4988666Y-28129042D01*
X8229666Y-28295709D02*
X8063000Y-28057614D01*
X7943952Y-28295709D02*
X7943952Y-27795709D01*
X7943952Y-27795709D02*
X8134428Y-27795709D01*
X8134428Y-27795709D02*
X8182047Y-27819519D01*
X8182047Y-27819519D02*
X8205857Y-27843328D01*
X8205857Y-27843328D02*
X8229666Y-27890947D01*
X8229666Y-27890947D02*
X8229666Y-27962376D01*
X8229666Y-27962376D02*
X8205857Y-28009995D01*
X8205857Y-28009995D02*
X8182047Y-28033804D01*
X8182047Y-28033804D02*
X8134428Y-28057614D01*
X8134428Y-28057614D02*
X7943952Y-28057614D01*
X8396333Y-27795709D02*
X8705857Y-27795709D01*
X8705857Y-27795709D02*
X8539190Y-27986185D01*
X8539190Y-27986185D02*
X8610619Y-27986185D01*
X8610619Y-27986185D02*
X8658238Y-28009995D01*
X8658238Y-28009995D02*
X8682047Y-28033804D01*
X8682047Y-28033804D02*
X8705857Y-28081423D01*
X8705857Y-28081423D02*
X8705857Y-28200471D01*
X8705857Y-28200471D02*
X8682047Y-28248090D01*
X8682047Y-28248090D02*
X8658238Y-28271900D01*
X8658238Y-28271900D02*
X8610619Y-28295709D01*
X8610619Y-28295709D02*
X8467762Y-28295709D01*
X8467762Y-28295709D02*
X8420143Y-28271900D01*
X8420143Y-28271900D02*
X8396333Y-28248090D01*
D10*
X17018095Y-12154819D02*
X17018095Y-12964342D01*
X17018095Y-12964342D02*
X17065714Y-13059580D01*
X17065714Y-13059580D02*
X17113333Y-13107200D01*
X17113333Y-13107200D02*
X17208571Y-13154819D01*
X17208571Y-13154819D02*
X17399047Y-13154819D01*
X17399047Y-13154819D02*
X17494285Y-13107200D01*
X17494285Y-13107200D02*
X17541904Y-13059580D01*
X17541904Y-13059580D02*
X17589523Y-12964342D01*
X17589523Y-12964342D02*
X17589523Y-12154819D01*
X18589523Y-13154819D02*
X18018095Y-13154819D01*
X18303809Y-13154819D02*
X18303809Y-12154819D01*
X18303809Y-12154819D02*
X18208571Y-12297676D01*
X18208571Y-12297676D02*
X18113333Y-12392914D01*
X18113333Y-12392914D02*
X18018095Y-12440533D01*
X16793095Y-12655532D02*
X18808814Y-12655532D01*
D11*
X5351290Y-16343333D02*
X4994147Y-16343333D01*
X4994147Y-16343333D02*
X4922719Y-16319524D01*
X4922719Y-16319524D02*
X4875100Y-16271905D01*
X4875100Y-16271905D02*
X4851290Y-16200476D01*
X4851290Y-16200476D02*
X4851290Y-16152857D01*
X5351290Y-16533809D02*
X5351290Y-16843333D01*
X5351290Y-16843333D02*
X5160814Y-16676666D01*
X5160814Y-16676666D02*
X5160814Y-16748095D01*
X5160814Y-16748095D02*
X5137004Y-16795714D01*
X5137004Y-16795714D02*
X5113195Y-16819523D01*
X5113195Y-16819523D02*
X5065576Y-16843333D01*
X5065576Y-16843333D02*
X4946528Y-16843333D01*
X4946528Y-16843333D02*
X4898909Y-16819523D01*
X4898909Y-16819523D02*
X4875100Y-16795714D01*
X4875100Y-16795714D02*
X4851290Y-16748095D01*
X4851290Y-16748095D02*
X4851290Y-16605238D01*
X4851290Y-16605238D02*
X4875100Y-16557619D01*
X4875100Y-16557619D02*
X4898909Y-16533809D01*
X18077666Y-28295709D02*
X17911000Y-28057614D01*
X17791952Y-28295709D02*
X17791952Y-27795709D01*
X17791952Y-27795709D02*
X17982428Y-27795709D01*
X17982428Y-27795709D02*
X18030047Y-27819519D01*
X18030047Y-27819519D02*
X18053857Y-27843328D01*
X18053857Y-27843328D02*
X18077666Y-27890947D01*
X18077666Y-27890947D02*
X18077666Y-27962376D01*
X18077666Y-27962376D02*
X18053857Y-28009995D01*
X18053857Y-28009995D02*
X18030047Y-28033804D01*
X18030047Y-28033804D02*
X17982428Y-28057614D01*
X17982428Y-28057614D02*
X17791952Y-28057614D01*
X18553857Y-28295709D02*
X18268143Y-28295709D01*
X18411000Y-28295709D02*
X18411000Y-27795709D01*
X18411000Y-27795709D02*
X18363381Y-27867138D01*
X18363381Y-27867138D02*
X18315762Y-27914757D01*
X18315762Y-27914757D02*
X18268143Y-27938566D01*
X19939047Y-47226709D02*
X19939047Y-47631471D01*
X19939047Y-47631471D02*
X19962857Y-47679090D01*
X19962857Y-47679090D02*
X19986666Y-47702900D01*
X19986666Y-47702900D02*
X20034285Y-47726709D01*
X20034285Y-47726709D02*
X20129523Y-47726709D01*
X20129523Y-47726709D02*
X20177142Y-47702900D01*
X20177142Y-47702900D02*
X20200952Y-47679090D01*
X20200952Y-47679090D02*
X20224761Y-47631471D01*
X20224761Y-47631471D02*
X20224761Y-47226709D01*
X20439048Y-47274328D02*
X20462857Y-47250519D01*
X20462857Y-47250519D02*
X20510476Y-47226709D01*
X20510476Y-47226709D02*
X20629524Y-47226709D01*
X20629524Y-47226709D02*
X20677143Y-47250519D01*
X20677143Y-47250519D02*
X20700952Y-47274328D01*
X20700952Y-47274328D02*
X20724762Y-47321947D01*
X20724762Y-47321947D02*
X20724762Y-47369566D01*
X20724762Y-47369566D02*
X20700952Y-47440995D01*
X20700952Y-47440995D02*
X20415238Y-47726709D01*
X20415238Y-47726709D02*
X20724762Y-47726709D01*
X6578666Y-28295709D02*
X6412000Y-28057614D01*
X6292952Y-28295709D02*
X6292952Y-27795709D01*
X6292952Y-27795709D02*
X6483428Y-27795709D01*
X6483428Y-27795709D02*
X6531047Y-27819519D01*
X6531047Y-27819519D02*
X6554857Y-27843328D01*
X6554857Y-27843328D02*
X6578666Y-27890947D01*
X6578666Y-27890947D02*
X6578666Y-27962376D01*
X6578666Y-27962376D02*
X6554857Y-28009995D01*
X6554857Y-28009995D02*
X6531047Y-28033804D01*
X6531047Y-28033804D02*
X6483428Y-28057614D01*
X6483428Y-28057614D02*
X6292952Y-28057614D01*
X6769143Y-27843328D02*
X6792952Y-27819519D01*
X6792952Y-27819519D02*
X6840571Y-27795709D01*
X6840571Y-27795709D02*
X6959619Y-27795709D01*
X6959619Y-27795709D02*
X7007238Y-27819519D01*
X7007238Y-27819519D02*
X7031047Y-27843328D01*
X7031047Y-27843328D02*
X7054857Y-27890947D01*
X7054857Y-27890947D02*
X7054857Y-27938566D01*
X7054857Y-27938566D02*
X7031047Y-28009995D01*
X7031047Y-28009995D02*
X6745333Y-28295709D01*
X6745333Y-28295709D02*
X7054857Y-28295709D01*
D10*
X41148095Y-21044819D02*
X41148095Y-21854342D01*
X41148095Y-21854342D02*
X41195714Y-21949580D01*
X41195714Y-21949580D02*
X41243333Y-21997200D01*
X41243333Y-21997200D02*
X41338571Y-22044819D01*
X41338571Y-22044819D02*
X41529047Y-22044819D01*
X41529047Y-22044819D02*
X41624285Y-21997200D01*
X41624285Y-21997200D02*
X41671904Y-21949580D01*
X41671904Y-21949580D02*
X41719523Y-21854342D01*
X41719523Y-21854342D02*
X41719523Y-21044819D01*
X42100476Y-21044819D02*
X42719523Y-21044819D01*
X42719523Y-21044819D02*
X42386190Y-21425771D01*
X42386190Y-21425771D02*
X42529047Y-21425771D01*
X42529047Y-21425771D02*
X42624285Y-21473390D01*
X42624285Y-21473390D02*
X42671904Y-21521009D01*
X42671904Y-21521009D02*
X42719523Y-21616247D01*
X42719523Y-21616247D02*
X42719523Y-21854342D01*
X42719523Y-21854342D02*
X42671904Y-21949580D01*
X42671904Y-21949580D02*
X42624285Y-21997200D01*
X42624285Y-21997200D02*
X42529047Y-22044819D01*
X42529047Y-22044819D02*
X42243333Y-22044819D01*
X42243333Y-22044819D02*
X42148095Y-21997200D01*
X42148095Y-21997200D02*
X42100476Y-21949580D01*
X40923095Y-21544819D02*
X42944523Y-21544819D01*
D11*
X25964655Y-45948709D02*
X25797989Y-45710614D01*
X25678941Y-45948709D02*
X25678941Y-45448709D01*
X25678941Y-45448709D02*
X25869417Y-45448709D01*
X25869417Y-45448709D02*
X25917036Y-45472519D01*
X25917036Y-45472519D02*
X25940846Y-45496328D01*
X25940846Y-45496328D02*
X25964655Y-45543947D01*
X25964655Y-45543947D02*
X25964655Y-45615376D01*
X25964655Y-45615376D02*
X25940846Y-45662995D01*
X25940846Y-45662995D02*
X25917036Y-45686804D01*
X25917036Y-45686804D02*
X25869417Y-45710614D01*
X25869417Y-45710614D02*
X25678941Y-45710614D01*
X26202751Y-45948709D02*
X26297989Y-45948709D01*
X26297989Y-45948709D02*
X26345608Y-45924900D01*
X26345608Y-45924900D02*
X26369417Y-45901090D01*
X26369417Y-45901090D02*
X26417036Y-45829661D01*
X26417036Y-45829661D02*
X26440846Y-45734423D01*
X26440846Y-45734423D02*
X26440846Y-45543947D01*
X26440846Y-45543947D02*
X26417036Y-45496328D01*
X26417036Y-45496328D02*
X26393227Y-45472519D01*
X26393227Y-45472519D02*
X26345608Y-45448709D01*
X26345608Y-45448709D02*
X26250370Y-45448709D01*
X26250370Y-45448709D02*
X26202751Y-45472519D01*
X26202751Y-45472519D02*
X26178941Y-45496328D01*
X26178941Y-45496328D02*
X26155132Y-45543947D01*
X26155132Y-45543947D02*
X26155132Y-45662995D01*
X26155132Y-45662995D02*
X26178941Y-45710614D01*
X26178941Y-45710614D02*
X26202751Y-45734423D01*
X26202751Y-45734423D02*
X26250370Y-45758233D01*
X26250370Y-45758233D02*
X26345608Y-45758233D01*
X26345608Y-45758233D02*
X26393227Y-45734423D01*
X26393227Y-45734423D02*
X26417036Y-45710614D01*
X26417036Y-45710614D02*
X26440846Y-45662995D01*
X13124666Y-28295709D02*
X12958000Y-28057614D01*
X12838952Y-28295709D02*
X12838952Y-27795709D01*
X12838952Y-27795709D02*
X13029428Y-27795709D01*
X13029428Y-27795709D02*
X13077047Y-27819519D01*
X13077047Y-27819519D02*
X13100857Y-27843328D01*
X13100857Y-27843328D02*
X13124666Y-27890947D01*
X13124666Y-27890947D02*
X13124666Y-27962376D01*
X13124666Y-27962376D02*
X13100857Y-28009995D01*
X13100857Y-28009995D02*
X13077047Y-28033804D01*
X13077047Y-28033804D02*
X13029428Y-28057614D01*
X13029428Y-28057614D02*
X12838952Y-28057614D01*
X13553238Y-27795709D02*
X13458000Y-27795709D01*
X13458000Y-27795709D02*
X13410381Y-27819519D01*
X13410381Y-27819519D02*
X13386571Y-27843328D01*
X13386571Y-27843328D02*
X13338952Y-27914757D01*
X13338952Y-27914757D02*
X13315143Y-28009995D01*
X13315143Y-28009995D02*
X13315143Y-28200471D01*
X13315143Y-28200471D02*
X13338952Y-28248090D01*
X13338952Y-28248090D02*
X13362762Y-28271900D01*
X13362762Y-28271900D02*
X13410381Y-28295709D01*
X13410381Y-28295709D02*
X13505619Y-28295709D01*
X13505619Y-28295709D02*
X13553238Y-28271900D01*
X13553238Y-28271900D02*
X13577047Y-28248090D01*
X13577047Y-28248090D02*
X13600857Y-28200471D01*
X13600857Y-28200471D02*
X13600857Y-28081423D01*
X13600857Y-28081423D02*
X13577047Y-28033804D01*
X13577047Y-28033804D02*
X13553238Y-28009995D01*
X13553238Y-28009995D02*
X13505619Y-27986185D01*
X13505619Y-27986185D02*
X13410381Y-27986185D01*
X13410381Y-27986185D02*
X13362762Y-28009995D01*
X13362762Y-28009995D02*
X13338952Y-28033804D01*
X13338952Y-28033804D02*
X13315143Y-28081423D01*
X51028900Y-10318665D02*
X51052709Y-10247237D01*
X51052709Y-10247237D02*
X51052709Y-10128189D01*
X51052709Y-10128189D02*
X51028900Y-10080570D01*
X51028900Y-10080570D02*
X51005090Y-10056761D01*
X51005090Y-10056761D02*
X50957471Y-10032951D01*
X50957471Y-10032951D02*
X50909852Y-10032951D01*
X50909852Y-10032951D02*
X50862233Y-10056761D01*
X50862233Y-10056761D02*
X50838423Y-10080570D01*
X50838423Y-10080570D02*
X50814614Y-10128189D01*
X50814614Y-10128189D02*
X50790804Y-10223427D01*
X50790804Y-10223427D02*
X50766995Y-10271046D01*
X50766995Y-10271046D02*
X50743185Y-10294856D01*
X50743185Y-10294856D02*
X50695566Y-10318665D01*
X50695566Y-10318665D02*
X50647947Y-10318665D01*
X50647947Y-10318665D02*
X50600328Y-10294856D01*
X50600328Y-10294856D02*
X50576519Y-10271046D01*
X50576519Y-10271046D02*
X50552709Y-10223427D01*
X50552709Y-10223427D02*
X50552709Y-10104380D01*
X50552709Y-10104380D02*
X50576519Y-10032951D01*
X50552709Y-9866285D02*
X51052709Y-9747237D01*
X51052709Y-9747237D02*
X50695566Y-9651999D01*
X50695566Y-9651999D02*
X51052709Y-9556761D01*
X51052709Y-9556761D02*
X50552709Y-9437714D01*
X51052709Y-8985332D02*
X51052709Y-9271046D01*
X51052709Y-9128189D02*
X50552709Y-9128189D01*
X50552709Y-9128189D02*
X50624138Y-9175808D01*
X50624138Y-9175808D02*
X50671757Y-9223427D01*
X50671757Y-9223427D02*
X50695566Y-9271046D01*
X50802709Y-10393665D02*
X50802709Y-8912235D01*
X16426666Y-28295709D02*
X16260000Y-28057614D01*
X16140952Y-28295709D02*
X16140952Y-27795709D01*
X16140952Y-27795709D02*
X16331428Y-27795709D01*
X16331428Y-27795709D02*
X16379047Y-27819519D01*
X16379047Y-27819519D02*
X16402857Y-27843328D01*
X16402857Y-27843328D02*
X16426666Y-27890947D01*
X16426666Y-27890947D02*
X16426666Y-27962376D01*
X16426666Y-27962376D02*
X16402857Y-28009995D01*
X16402857Y-28009995D02*
X16379047Y-28033804D01*
X16379047Y-28033804D02*
X16331428Y-28057614D01*
X16331428Y-28057614D02*
X16140952Y-28057614D01*
X16593333Y-27795709D02*
X16926666Y-27795709D01*
X16926666Y-27795709D02*
X16712381Y-28295709D01*
X25964655Y-44424709D02*
X25797989Y-44186614D01*
X25678941Y-44424709D02*
X25678941Y-43924709D01*
X25678941Y-43924709D02*
X25869417Y-43924709D01*
X25869417Y-43924709D02*
X25917036Y-43948519D01*
X25917036Y-43948519D02*
X25940846Y-43972328D01*
X25940846Y-43972328D02*
X25964655Y-44019947D01*
X25964655Y-44019947D02*
X25964655Y-44091376D01*
X25964655Y-44091376D02*
X25940846Y-44138995D01*
X25940846Y-44138995D02*
X25917036Y-44162804D01*
X25917036Y-44162804D02*
X25869417Y-44186614D01*
X25869417Y-44186614D02*
X25678941Y-44186614D01*
X26250370Y-44138995D02*
X26202751Y-44115185D01*
X26202751Y-44115185D02*
X26178941Y-44091376D01*
X26178941Y-44091376D02*
X26155132Y-44043757D01*
X26155132Y-44043757D02*
X26155132Y-44019947D01*
X26155132Y-44019947D02*
X26178941Y-43972328D01*
X26178941Y-43972328D02*
X26202751Y-43948519D01*
X26202751Y-43948519D02*
X26250370Y-43924709D01*
X26250370Y-43924709D02*
X26345608Y-43924709D01*
X26345608Y-43924709D02*
X26393227Y-43948519D01*
X26393227Y-43948519D02*
X26417036Y-43972328D01*
X26417036Y-43972328D02*
X26440846Y-44019947D01*
X26440846Y-44019947D02*
X26440846Y-44043757D01*
X26440846Y-44043757D02*
X26417036Y-44091376D01*
X26417036Y-44091376D02*
X26393227Y-44115185D01*
X26393227Y-44115185D02*
X26345608Y-44138995D01*
X26345608Y-44138995D02*
X26250370Y-44138995D01*
X26250370Y-44138995D02*
X26202751Y-44162804D01*
X26202751Y-44162804D02*
X26178941Y-44186614D01*
X26178941Y-44186614D02*
X26155132Y-44234233D01*
X26155132Y-44234233D02*
X26155132Y-44329471D01*
X26155132Y-44329471D02*
X26178941Y-44377090D01*
X26178941Y-44377090D02*
X26202751Y-44400900D01*
X26202751Y-44400900D02*
X26250370Y-44424709D01*
X26250370Y-44424709D02*
X26345608Y-44424709D01*
X26345608Y-44424709D02*
X26393227Y-44400900D01*
X26393227Y-44400900D02*
X26417036Y-44377090D01*
X26417036Y-44377090D02*
X26440846Y-44329471D01*
X26440846Y-44329471D02*
X26440846Y-44234233D01*
X26440846Y-44234233D02*
X26417036Y-44186614D01*
X26417036Y-44186614D02*
X26393227Y-44162804D01*
X26393227Y-44162804D02*
X26345608Y-44138995D01*
X16691090Y-44279333D02*
X16714900Y-44303142D01*
X16714900Y-44303142D02*
X16738709Y-44374571D01*
X16738709Y-44374571D02*
X16738709Y-44422190D01*
X16738709Y-44422190D02*
X16714900Y-44493618D01*
X16714900Y-44493618D02*
X16667280Y-44541237D01*
X16667280Y-44541237D02*
X16619661Y-44565047D01*
X16619661Y-44565047D02*
X16524423Y-44588856D01*
X16524423Y-44588856D02*
X16452995Y-44588856D01*
X16452995Y-44588856D02*
X16357757Y-44565047D01*
X16357757Y-44565047D02*
X16310138Y-44541237D01*
X16310138Y-44541237D02*
X16262519Y-44493618D01*
X16262519Y-44493618D02*
X16238709Y-44422190D01*
X16238709Y-44422190D02*
X16238709Y-44374571D01*
X16238709Y-44374571D02*
X16262519Y-44303142D01*
X16262519Y-44303142D02*
X16286328Y-44279333D01*
X16738709Y-43803142D02*
X16738709Y-44088856D01*
X16738709Y-43945999D02*
X16238709Y-43945999D01*
X16238709Y-43945999D02*
X16310138Y-43993618D01*
X16310138Y-43993618D02*
X16357757Y-44041237D01*
X16357757Y-44041237D02*
X16381566Y-44088856D01*
X9949666Y-28295709D02*
X9783000Y-28057614D01*
X9663952Y-28295709D02*
X9663952Y-27795709D01*
X9663952Y-27795709D02*
X9854428Y-27795709D01*
X9854428Y-27795709D02*
X9902047Y-27819519D01*
X9902047Y-27819519D02*
X9925857Y-27843328D01*
X9925857Y-27843328D02*
X9949666Y-27890947D01*
X9949666Y-27890947D02*
X9949666Y-27962376D01*
X9949666Y-27962376D02*
X9925857Y-28009995D01*
X9925857Y-28009995D02*
X9902047Y-28033804D01*
X9902047Y-28033804D02*
X9854428Y-28057614D01*
X9854428Y-28057614D02*
X9663952Y-28057614D01*
X10378238Y-27962376D02*
X10378238Y-28295709D01*
X10259190Y-27771900D02*
X10140143Y-28129042D01*
X10140143Y-28129042D02*
X10449666Y-28129042D01*
X2837666Y-28248090D02*
X2813857Y-28271900D01*
X2813857Y-28271900D02*
X2742428Y-28295709D01*
X2742428Y-28295709D02*
X2694809Y-28295709D01*
X2694809Y-28295709D02*
X2623381Y-28271900D01*
X2623381Y-28271900D02*
X2575762Y-28224280D01*
X2575762Y-28224280D02*
X2551952Y-28176661D01*
X2551952Y-28176661D02*
X2528143Y-28081423D01*
X2528143Y-28081423D02*
X2528143Y-28009995D01*
X2528143Y-28009995D02*
X2551952Y-27914757D01*
X2551952Y-27914757D02*
X2575762Y-27867138D01*
X2575762Y-27867138D02*
X2623381Y-27819519D01*
X2623381Y-27819519D02*
X2694809Y-27795709D01*
X2694809Y-27795709D02*
X2742428Y-27795709D01*
X2742428Y-27795709D02*
X2813857Y-27819519D01*
X2813857Y-27819519D02*
X2837666Y-27843328D01*
X3004333Y-27795709D02*
X3313857Y-27795709D01*
X3313857Y-27795709D02*
X3147190Y-27986185D01*
X3147190Y-27986185D02*
X3218619Y-27986185D01*
X3218619Y-27986185D02*
X3266238Y-28009995D01*
X3266238Y-28009995D02*
X3290047Y-28033804D01*
X3290047Y-28033804D02*
X3313857Y-28081423D01*
X3313857Y-28081423D02*
X3313857Y-28200471D01*
X3313857Y-28200471D02*
X3290047Y-28248090D01*
X3290047Y-28248090D02*
X3266238Y-28271900D01*
X3266238Y-28271900D02*
X3218619Y-28295709D01*
X3218619Y-28295709D02*
X3075762Y-28295709D01*
X3075762Y-28295709D02*
X3028143Y-28271900D01*
X3028143Y-28271900D02*
X3004333Y-28248090D01*
X41227380Y-12341328D02*
X41179761Y-12317519D01*
X41179761Y-12317519D02*
X41132142Y-12269900D01*
X41132142Y-12269900D02*
X41060714Y-12198471D01*
X41060714Y-12198471D02*
X41013095Y-12174661D01*
X41013095Y-12174661D02*
X40965476Y-12174661D01*
X40989285Y-12293709D02*
X40941666Y-12269900D01*
X40941666Y-12269900D02*
X40894047Y-12222280D01*
X40894047Y-12222280D02*
X40870238Y-12127042D01*
X40870238Y-12127042D02*
X40870238Y-11960376D01*
X40870238Y-11960376D02*
X40894047Y-11865138D01*
X40894047Y-11865138D02*
X40941666Y-11817519D01*
X40941666Y-11817519D02*
X40989285Y-11793709D01*
X40989285Y-11793709D02*
X41084523Y-11793709D01*
X41084523Y-11793709D02*
X41132142Y-11817519D01*
X41132142Y-11817519D02*
X41179761Y-11865138D01*
X41179761Y-11865138D02*
X41203571Y-11960376D01*
X41203571Y-11960376D02*
X41203571Y-12127042D01*
X41203571Y-12127042D02*
X41179761Y-12222280D01*
X41179761Y-12222280D02*
X41132142Y-12269900D01*
X41132142Y-12269900D02*
X41084523Y-12293709D01*
X41084523Y-12293709D02*
X40989285Y-12293709D01*
X41370238Y-11793709D02*
X41679762Y-11793709D01*
X41679762Y-11793709D02*
X41513095Y-11984185D01*
X41513095Y-11984185D02*
X41584524Y-11984185D01*
X41584524Y-11984185D02*
X41632143Y-12007995D01*
X41632143Y-12007995D02*
X41655952Y-12031804D01*
X41655952Y-12031804D02*
X41679762Y-12079423D01*
X41679762Y-12079423D02*
X41679762Y-12198471D01*
X41679762Y-12198471D02*
X41655952Y-12246090D01*
X41655952Y-12246090D02*
X41632143Y-12269900D01*
X41632143Y-12269900D02*
X41584524Y-12293709D01*
X41584524Y-12293709D02*
X41441667Y-12293709D01*
X41441667Y-12293709D02*
X41394048Y-12269900D01*
X41394048Y-12269900D02*
X41370238Y-12246090D01*
%TO.C,J2*%
D12*
X17893000Y-28560000D02*
X3443000Y-28560000D01*
X3443000Y-42560000D01*
X17893000Y-42560000D01*
X17893000Y-28560000D01*
D10*
%TO.C,R12*%
X42359000Y-14270000D02*
X42359000Y-15970000D01*
X41459000Y-14270000D02*
X42359000Y-14270000D01*
D11*
X42259000Y-15120000D02*
X41559000Y-15120000D01*
X41909000Y-15470000D02*
X41909000Y-14770000D01*
D10*
X42359000Y-15780000D02*
X42359000Y-17480000D01*
X41459000Y-15780000D02*
X42359000Y-15780000D01*
X42359000Y-15970000D02*
X41459000Y-15970000D01*
X41459000Y-15970000D02*
X41459000Y-14270000D01*
D11*
X42259000Y-16630000D02*
X41559000Y-16630000D01*
X41909000Y-16980000D02*
X41909000Y-16280000D01*
D10*
X42359000Y-17480000D02*
X41459000Y-17480000D01*
X41459000Y-17480000D02*
X41459000Y-15780000D01*
D11*
X42159000Y-15120000D02*
G75*
G02*
X41659000Y-15120000I-250000J0D01*
G01*
X41659000Y-15120000D02*
G75*
G02*
X42159000Y-15120000I250000J0D01*
G01*
X42159000Y-16630000D02*
G75*
G02*
X41659000Y-16630000I-250000J0D01*
G01*
X41659000Y-16630000D02*
G75*
G02*
X42159000Y-16630000I250000J0D01*
G01*
%TO.C,R11*%
X39620000Y-16630000D02*
G75*
G02*
X39120000Y-16630000I-250000J0D01*
G01*
X39120000Y-16630000D02*
G75*
G02*
X39620000Y-16630000I250000J0D01*
G01*
X39620000Y-15120000D02*
G75*
G02*
X39120000Y-15120000I-250000J0D01*
G01*
X39120000Y-15120000D02*
G75*
G02*
X39620000Y-15120000I250000J0D01*
G01*
D10*
X38920000Y-17480000D02*
X38920000Y-15780000D01*
X39820000Y-17480000D02*
X38920000Y-17480000D01*
D11*
X39370000Y-16980000D02*
X39370000Y-16280000D01*
X39720000Y-16630000D02*
X39020000Y-16630000D01*
D10*
X38920000Y-15970000D02*
X38920000Y-14270000D01*
X39820000Y-15970000D02*
X38920000Y-15970000D01*
X38920000Y-15780000D02*
X39820000Y-15780000D01*
X39820000Y-15780000D02*
X39820000Y-17480000D01*
D11*
X39370000Y-15470000D02*
X39370000Y-14770000D01*
X39720000Y-15120000D02*
X39020000Y-15120000D01*
D10*
X38920000Y-14270000D02*
X39820000Y-14270000D01*
X39820000Y-14270000D02*
X39820000Y-15970000D01*
D13*
%TO.C,Q1*%
X44385000Y-8640000D02*
X45785000Y-8640000D01*
X44385000Y-11680000D02*
X44385000Y-8640000D01*
D11*
X44735000Y-10160000D02*
X45435000Y-10160000D01*
X45085000Y-10510000D02*
X45085000Y-9810000D01*
D13*
X45318000Y-11680000D02*
X44385000Y-11680000D01*
X45785000Y-8640000D02*
X45785000Y-11213000D01*
X45785000Y-11213000D02*
X45318000Y-11680000D01*
D11*
X45335000Y-10160000D02*
G75*
G02*
X44835000Y-10160000I-250000J0D01*
G01*
X44835000Y-10160000D02*
G75*
G02*
X45335000Y-10160000I250000J0D01*
G01*
D14*
X46486000Y-11785000D02*
G75*
G02*
X46236000Y-11785000I-125000J0D01*
G01*
X46236000Y-11785000D02*
G75*
G02*
X46486000Y-11785000I125000J0D01*
G01*
D13*
%TO.C,Q2*%
X44385000Y-4830000D02*
X45785000Y-4830000D01*
X44385000Y-7870000D02*
X44385000Y-4830000D01*
D11*
X44735000Y-6350000D02*
X45435000Y-6350000D01*
X45085000Y-6700000D02*
X45085000Y-6000000D01*
D13*
X45318000Y-7870000D02*
X44385000Y-7870000D01*
X45785000Y-4830000D02*
X45785000Y-7403000D01*
X45785000Y-7403000D02*
X45318000Y-7870000D01*
D11*
X45335000Y-6350000D02*
G75*
G02*
X44835000Y-6350000I-250000J0D01*
G01*
X44835000Y-6350000D02*
G75*
G02*
X45335000Y-6350000I250000J0D01*
G01*
D14*
X46486000Y-7975000D02*
G75*
G02*
X46236000Y-7975000I-125000J0D01*
G01*
X46236000Y-7975000D02*
G75*
G02*
X46486000Y-7975000I125000J0D01*
G01*
D12*
%TO.C,J1*%
X38240000Y-10539000D02*
X38240000Y-2939000D01*
X38240000Y-10539000D02*
X37440000Y-10539000D01*
X38240000Y-2939000D02*
X30340000Y-2939000D01*
X37440000Y-10539000D02*
X37440000Y-8939000D01*
X37440000Y-8939000D02*
X31140000Y-8939000D01*
X35790000Y-8939000D02*
X35290000Y-8231893D01*
X35290000Y-8231893D02*
X34790000Y-8939000D01*
X31140000Y-10539000D02*
X30340000Y-10539000D01*
X31140000Y-8939000D02*
X31140000Y-10539000D01*
X30340000Y-10539000D02*
X30340000Y-2939000D01*
X35540000Y-11539000D02*
X35040000Y-11539000D01*
X35040000Y-8939000D01*
X35540000Y-8939000D01*
X35540000Y-11539000D01*
X33540000Y-11539000D02*
X33040000Y-11539000D01*
X33040000Y-8939000D01*
X33540000Y-8939000D01*
X33540000Y-11539000D01*
D11*
%TO.C,SW5*%
X59055000Y-33940000D02*
X59055000Y-34640000D01*
X59405000Y-34290000D02*
X58705000Y-34290000D01*
D10*
X57805000Y-31040000D02*
X57105000Y-31040000D01*
X57105000Y-32040000D01*
X57805000Y-32040000D01*
X57805000Y-31040000D01*
X57805000Y-36540000D02*
X57105000Y-36540000D01*
X57105000Y-37540000D01*
X57805000Y-37540000D01*
X57805000Y-36540000D01*
X61005000Y-31040000D02*
X60305000Y-31040000D01*
X60305000Y-32040000D01*
X61005000Y-32040000D01*
X61005000Y-31040000D01*
X61005000Y-36540000D02*
X60305000Y-36540000D01*
X60305000Y-37540000D01*
X61005000Y-37540000D01*
X61005000Y-36540000D01*
X61305000Y-32040000D02*
X56805000Y-32040000D01*
X56805000Y-36540000D01*
X61305000Y-36540000D01*
X61305000Y-32040000D01*
D11*
X59305000Y-34290000D02*
G75*
G02*
X58805000Y-34290000I-250000J0D01*
G01*
X58805000Y-34290000D02*
G75*
G02*
X59305000Y-34290000I250000J0D01*
G01*
%TO.C,SW3*%
X59055000Y-18700000D02*
X59055000Y-19400000D01*
X59405000Y-19050000D02*
X58705000Y-19050000D01*
D10*
X57805000Y-15800000D02*
X57105000Y-15800000D01*
X57105000Y-16800000D01*
X57805000Y-16800000D01*
X57805000Y-15800000D01*
X57805000Y-21300000D02*
X57105000Y-21300000D01*
X57105000Y-22300000D01*
X57805000Y-22300000D01*
X57805000Y-21300000D01*
X61005000Y-15800000D02*
X60305000Y-15800000D01*
X60305000Y-16800000D01*
X61005000Y-16800000D01*
X61005000Y-15800000D01*
X61005000Y-21300000D02*
X60305000Y-21300000D01*
X60305000Y-22300000D01*
X61005000Y-22300000D01*
X61005000Y-21300000D01*
X61305000Y-16800000D02*
X56805000Y-16800000D01*
X56805000Y-21300000D01*
X61305000Y-21300000D01*
X61305000Y-16800000D01*
D11*
X59305000Y-19050000D02*
G75*
G02*
X58805000Y-19050000I-250000J0D01*
G01*
X58805000Y-19050000D02*
G75*
G02*
X59305000Y-19050000I250000J0D01*
G01*
%TO.C,SW2*%
X59055000Y-11080000D02*
X59055000Y-11780000D01*
X59405000Y-11430000D02*
X58705000Y-11430000D01*
D10*
X57805000Y-8180000D02*
X57105000Y-8180000D01*
X57105000Y-9180000D01*
X57805000Y-9180000D01*
X57805000Y-8180000D01*
X57805000Y-13680000D02*
X57105000Y-13680000D01*
X57105000Y-14680000D01*
X57805000Y-14680000D01*
X57805000Y-13680000D01*
X61005000Y-8180000D02*
X60305000Y-8180000D01*
X60305000Y-9180000D01*
X61005000Y-9180000D01*
X61005000Y-8180000D01*
X61005000Y-13680000D02*
X60305000Y-13680000D01*
X60305000Y-14680000D01*
X61005000Y-14680000D01*
X61005000Y-13680000D01*
X61305000Y-9180000D02*
X56805000Y-9180000D01*
X56805000Y-13680000D01*
X61305000Y-13680000D01*
X61305000Y-9180000D01*
D11*
X59305000Y-11430000D02*
G75*
G02*
X58805000Y-11430000I-250000J0D01*
G01*
X58805000Y-11430000D02*
G75*
G02*
X59305000Y-11430000I250000J0D01*
G01*
D12*
%TO.C,H1*%
X5080000Y-3810000D02*
G75*
G02*
X2540000Y-3810000I-1270000J0D01*
G01*
X2540000Y-3810000D02*
G75*
G02*
X5080000Y-3810000I1270000J0D01*
G01*
X5080000Y-3810000D02*
G75*
G02*
X2540000Y-3810000I-1270000J0D01*
G01*
X2540000Y-3810000D02*
G75*
G02*
X5080000Y-3810000I1270000J0D01*
G01*
D10*
%TO.C,C2*%
X17051000Y-46357000D02*
X18001000Y-46357000D01*
X17051000Y-48107000D02*
X17051000Y-46357000D01*
D11*
X17526000Y-47582000D02*
X17526000Y-46882000D01*
X17876000Y-47232000D02*
X17176000Y-47232000D01*
D10*
X18001000Y-46357000D02*
X18001000Y-48107000D01*
X18001000Y-48107000D02*
X17051000Y-48107000D01*
D11*
X17776000Y-47232000D02*
G75*
G02*
X17276000Y-47232000I-250000J0D01*
G01*
X17276000Y-47232000D02*
G75*
G02*
X17776000Y-47232000I250000J0D01*
G01*
D13*
%TO.C,Q4*%
X40425000Y-4850000D02*
X42125000Y-4850000D01*
X40425000Y-7850000D02*
X40425000Y-4850000D01*
D11*
X40925000Y-6350000D02*
X41625000Y-6350000D01*
X41275000Y-6700000D02*
X41275000Y-6000000D01*
D13*
X41492000Y-7850000D02*
X40425000Y-7850000D01*
X42125000Y-4850000D02*
X42125000Y-7217000D01*
X42125000Y-7217000D02*
X41492000Y-7850000D01*
D11*
X41525000Y-6350000D02*
G75*
G02*
X41025000Y-6350000I-250000J0D01*
G01*
X41025000Y-6350000D02*
G75*
G02*
X41525000Y-6350000I250000J0D01*
G01*
%TO.C,SW4*%
X59055000Y-26320000D02*
X59055000Y-27020000D01*
X59405000Y-26670000D02*
X58705000Y-26670000D01*
D10*
X57805000Y-23420000D02*
X57105000Y-23420000D01*
X57105000Y-24420000D01*
X57805000Y-24420000D01*
X57805000Y-23420000D01*
X57805000Y-28920000D02*
X57105000Y-28920000D01*
X57105000Y-29920000D01*
X57805000Y-29920000D01*
X57805000Y-28920000D01*
X61005000Y-23420000D02*
X60305000Y-23420000D01*
X60305000Y-24420000D01*
X61005000Y-24420000D01*
X61005000Y-23420000D01*
X61005000Y-28920000D02*
X60305000Y-28920000D01*
X60305000Y-29920000D01*
X61005000Y-29920000D01*
X61005000Y-28920000D01*
X61305000Y-24420000D02*
X56805000Y-24420000D01*
X56805000Y-28920000D01*
X61305000Y-28920000D01*
X61305000Y-24420000D01*
D11*
X59305000Y-26670000D02*
G75*
G02*
X58805000Y-26670000I-250000J0D01*
G01*
X58805000Y-26670000D02*
G75*
G02*
X59305000Y-26670000I250000J0D01*
G01*
D10*
%TO.C,R10*%
X23275000Y-46794000D02*
X24975000Y-46794000D01*
X23275000Y-47694000D02*
X23275000Y-46794000D01*
D11*
X23775000Y-47244000D02*
X24475000Y-47244000D01*
X24125000Y-47594000D02*
X24125000Y-46894000D01*
D10*
X24975000Y-46794000D02*
X24975000Y-47694000D01*
X24975000Y-47694000D02*
X23275000Y-47694000D01*
D11*
X24375000Y-47244000D02*
G75*
G02*
X23875000Y-47244000I-250000J0D01*
G01*
X23875000Y-47244000D02*
G75*
G02*
X24375000Y-47244000I250000J0D01*
G01*
D10*
%TO.C,R5*%
X14409000Y-25566000D02*
X15309000Y-25566000D01*
X14409000Y-27266000D02*
X14409000Y-25566000D01*
D11*
X14859000Y-26766000D02*
X14859000Y-26066000D01*
X15209000Y-26416000D02*
X14509000Y-26416000D01*
D10*
X15309000Y-25566000D02*
X15309000Y-27266000D01*
X15309000Y-27266000D02*
X14409000Y-27266000D01*
D11*
X15109000Y-26416000D02*
G75*
G02*
X14609000Y-26416000I-250000J0D01*
G01*
X14609000Y-26416000D02*
G75*
G02*
X15109000Y-26416000I250000J0D01*
G01*
D10*
%TO.C,C4*%
X4097000Y-25541000D02*
X5047000Y-25541000D01*
X4097000Y-27291000D02*
X4097000Y-25541000D01*
D11*
X4222000Y-26416000D02*
X4922000Y-26416000D01*
X4572000Y-26066000D02*
X4572000Y-26766000D01*
D10*
X5047000Y-25541000D02*
X5047000Y-27291000D01*
X5047000Y-27291000D02*
X4097000Y-27291000D01*
D11*
X4822000Y-26416000D02*
G75*
G02*
X4322000Y-26416000I-250000J0D01*
G01*
X4322000Y-26416000D02*
G75*
G02*
X4822000Y-26416000I250000J0D01*
G01*
D12*
%TO.C,H4*%
X60960000Y-46990000D02*
G75*
G02*
X58420000Y-46990000I-1270000J0D01*
G01*
X58420000Y-46990000D02*
G75*
G02*
X60960000Y-46990000I1270000J0D01*
G01*
X60960000Y-46990000D02*
G75*
G02*
X58420000Y-46990000I-1270000J0D01*
G01*
X58420000Y-46990000D02*
G75*
G02*
X60960000Y-46990000I1270000J0D01*
G01*
D10*
%TO.C,R3*%
X7863000Y-25566000D02*
X8763000Y-25566000D01*
X7863000Y-27266000D02*
X7863000Y-25566000D01*
D11*
X8313000Y-26766000D02*
X8313000Y-26066000D01*
X8663000Y-26416000D02*
X7963000Y-26416000D01*
D10*
X8763000Y-25566000D02*
X8763000Y-27266000D01*
X8763000Y-27266000D02*
X7863000Y-27266000D01*
D11*
X8563000Y-26416000D02*
G75*
G02*
X8063000Y-26416000I-250000J0D01*
G01*
X8063000Y-26416000D02*
G75*
G02*
X8563000Y-26416000I250000J0D01*
G01*
D12*
%TO.C,J3*%
X2505000Y-13510000D02*
X2505000Y-19510000D01*
X6047893Y-15010000D02*
X6755000Y-15510000D01*
X6755000Y-13510000D02*
X2505000Y-13510000D01*
X6755000Y-13510000D02*
X6755000Y-19510000D01*
X6755000Y-14510000D02*
X6047893Y-15010000D01*
X6755000Y-19510000D02*
X2505000Y-19510000D01*
D10*
%TO.C,R1*%
X17711000Y-25566000D02*
X18611000Y-25566000D01*
X17711000Y-27266000D02*
X17711000Y-25566000D01*
D11*
X18161000Y-26766000D02*
X18161000Y-26066000D01*
X18511000Y-26416000D02*
X17811000Y-26416000D01*
D10*
X18611000Y-25566000D02*
X18611000Y-27266000D01*
X18611000Y-27266000D02*
X17711000Y-27266000D01*
D11*
X18411000Y-26416000D02*
G75*
G02*
X17911000Y-26416000I-250000J0D01*
G01*
X17911000Y-26416000D02*
G75*
G02*
X18411000Y-26416000I250000J0D01*
G01*
%TO.C,U2*%
X20320000Y-45370000D02*
X20320000Y-46070000D01*
X20670000Y-45720000D02*
X19970000Y-45720000D01*
D12*
X19070000Y-44470000D02*
X21570000Y-44470000D01*
X21570000Y-46970000D01*
X19070000Y-46970000D01*
X19070000Y-44470000D01*
D11*
X20570000Y-45720000D02*
G75*
G02*
X20070000Y-45720000I-250000J0D01*
G01*
X20070000Y-45720000D02*
G75*
G02*
X20570000Y-45720000I250000J0D01*
G01*
D10*
X21995000Y-44120000D02*
G75*
G02*
X21845000Y-44120000I-75000J0D01*
G01*
X21845000Y-44120000D02*
G75*
G02*
X21995000Y-44120000I75000J0D01*
G01*
%TO.C,R2*%
X6212000Y-25566000D02*
X7112000Y-25566000D01*
X6212000Y-27266000D02*
X6212000Y-25566000D01*
D11*
X6662000Y-26766000D02*
X6662000Y-26066000D01*
X7012000Y-26416000D02*
X6312000Y-26416000D01*
D10*
X7112000Y-25566000D02*
X7112000Y-27266000D01*
X7112000Y-27266000D02*
X6212000Y-27266000D01*
D11*
X6912000Y-26416000D02*
G75*
G02*
X6412000Y-26416000I-250000J0D01*
G01*
X6412000Y-26416000D02*
G75*
G02*
X6912000Y-26416000I250000J0D01*
G01*
D10*
%TO.C,R9*%
X23285000Y-45270000D02*
X24985000Y-45270000D01*
X23285000Y-46170000D02*
X23285000Y-45270000D01*
D11*
X23785000Y-45720000D02*
X24485000Y-45720000D01*
X24135000Y-46070000D02*
X24135000Y-45370000D01*
D10*
X24985000Y-45270000D02*
X24985000Y-46170000D01*
X24985000Y-46170000D02*
X23285000Y-46170000D01*
D11*
X24385000Y-45720000D02*
G75*
G02*
X23885000Y-45720000I-250000J0D01*
G01*
X23885000Y-45720000D02*
G75*
G02*
X24385000Y-45720000I250000J0D01*
G01*
D10*
%TO.C,R6*%
X12758000Y-25566000D02*
X13658000Y-25566000D01*
X12758000Y-27266000D02*
X12758000Y-25566000D01*
D11*
X13208000Y-26766000D02*
X13208000Y-26066000D01*
X13558000Y-26416000D02*
X12858000Y-26416000D01*
D10*
X13658000Y-25566000D02*
X13658000Y-27266000D01*
X13658000Y-27266000D02*
X12758000Y-27266000D01*
D11*
X13458000Y-26416000D02*
G75*
G02*
X12958000Y-26416000I-250000J0D01*
G01*
X12958000Y-26416000D02*
G75*
G02*
X13458000Y-26416000I250000J0D01*
G01*
D12*
X50174000Y-14012000D02*
X54474000Y-14012000D01*
X54474000Y-13892000D02*
G75*
G02*
X54474000Y-14012000I0J-60000D01*
G01*
X54474000Y-13892000D02*
X50174000Y-13892000D01*
X50174000Y-13892000D02*
G75*
G03*
X50174000Y-14012000I0J-60000D01*
G01*
X54534000Y-13952000D02*
X54534000Y-5352000D01*
X54414000Y-5352000D02*
G75*
G02*
X54534000Y-5352000I60000J0D01*
G01*
X54414000Y-5352000D02*
X54414000Y-13952000D01*
X54414000Y-13952000D02*
G75*
G03*
X54534000Y-13952000I60000J0D01*
G01*
X54474000Y-5292000D02*
X50174000Y-5292000D01*
X50174000Y-5412000D02*
G75*
G02*
X50174000Y-5292000I0J60000D01*
G01*
X50174000Y-5412000D02*
X54474000Y-5412000D01*
X54474000Y-5412000D02*
G75*
G03*
X54474000Y-5292000I0J60000D01*
G01*
X50114000Y-5352000D02*
X50114000Y-13952000D01*
X50234000Y-13952000D02*
G75*
G02*
X50114000Y-13952000I-60000J0D01*
G01*
X50234000Y-13952000D02*
X50234000Y-5352000D01*
X50234000Y-5352000D02*
G75*
G03*
X50114000Y-5352000I-60000J0D01*
G01*
%TO.C,H3*%
X5080000Y-46990000D02*
G75*
G02*
X2540000Y-46990000I-1270000J0D01*
G01*
X2540000Y-46990000D02*
G75*
G02*
X5080000Y-46990000I1270000J0D01*
G01*
X5080000Y-46990000D02*
G75*
G02*
X2540000Y-46990000I-1270000J0D01*
G01*
X2540000Y-46990000D02*
G75*
G02*
X5080000Y-46990000I1270000J0D01*
G01*
D10*
%TO.C,R7*%
X16060000Y-25566000D02*
X16960000Y-25566000D01*
X16060000Y-27266000D02*
X16060000Y-25566000D01*
D11*
X16510000Y-26766000D02*
X16510000Y-26066000D01*
X16860000Y-26416000D02*
X16160000Y-26416000D01*
D10*
X16960000Y-25566000D02*
X16960000Y-27266000D01*
X16960000Y-27266000D02*
X16060000Y-27266000D01*
D11*
X16760000Y-26416000D02*
G75*
G02*
X16260000Y-26416000I-250000J0D01*
G01*
X16260000Y-26416000D02*
G75*
G02*
X16760000Y-26416000I250000J0D01*
G01*
D10*
%TO.C,R8*%
X23285000Y-43746000D02*
X24985000Y-43746000D01*
X23285000Y-44646000D02*
X23285000Y-43746000D01*
D11*
X23785000Y-44196000D02*
X24485000Y-44196000D01*
X24135000Y-44546000D02*
X24135000Y-43846000D01*
D10*
X24985000Y-43746000D02*
X24985000Y-44646000D01*
X24985000Y-44646000D02*
X23285000Y-44646000D01*
D11*
X24385000Y-44196000D02*
G75*
G02*
X23885000Y-44196000I-250000J0D01*
G01*
X23885000Y-44196000D02*
G75*
G02*
X24385000Y-44196000I250000J0D01*
G01*
D10*
%TO.C,C1*%
X17051000Y-43321000D02*
X18001000Y-43321000D01*
X17051000Y-45071000D02*
X17051000Y-43321000D01*
D11*
X17526000Y-44546000D02*
X17526000Y-43846000D01*
X17876000Y-44196000D02*
X17176000Y-44196000D01*
D10*
X18001000Y-43321000D02*
X18001000Y-45071000D01*
X18001000Y-45071000D02*
X17051000Y-45071000D01*
D11*
X17776000Y-44196000D02*
G75*
G02*
X17276000Y-44196000I-250000J0D01*
G01*
X17276000Y-44196000D02*
G75*
G02*
X17776000Y-44196000I250000J0D01*
G01*
D10*
%TO.C,R4*%
X9583000Y-25566000D02*
X10483000Y-25566000D01*
X9583000Y-27266000D02*
X9583000Y-25566000D01*
D11*
X10033000Y-26766000D02*
X10033000Y-26066000D01*
X10383000Y-26416000D02*
X9683000Y-26416000D01*
D10*
X10483000Y-25566000D02*
X10483000Y-27266000D01*
X10483000Y-27266000D02*
X9583000Y-27266000D01*
D11*
X10283000Y-26416000D02*
G75*
G02*
X9783000Y-26416000I-250000J0D01*
G01*
X9783000Y-26416000D02*
G75*
G02*
X10283000Y-26416000I250000J0D01*
G01*
D10*
%TO.C,C3*%
X2446000Y-25541000D02*
X3396000Y-25541000D01*
X2446000Y-27291000D02*
X2446000Y-25541000D01*
D11*
X2571000Y-26416000D02*
X3271000Y-26416000D01*
X2921000Y-26066000D02*
X2921000Y-26766000D01*
D10*
X3396000Y-25541000D02*
X3396000Y-27291000D01*
X3396000Y-27291000D02*
X2446000Y-27291000D01*
D11*
X3171000Y-26416000D02*
G75*
G02*
X2671000Y-26416000I-250000J0D01*
G01*
X2671000Y-26416000D02*
G75*
G02*
X3171000Y-26416000I250000J0D01*
G01*
D13*
%TO.C,Q3*%
X40425000Y-8660000D02*
X42125000Y-8660000D01*
X40425000Y-11660000D02*
X40425000Y-8660000D01*
D11*
X40925000Y-10160000D02*
X41625000Y-10160000D01*
X41275000Y-10510000D02*
X41275000Y-9810000D01*
D13*
X41492000Y-11660000D02*
X40425000Y-11660000D01*
X42125000Y-8660000D02*
X42125000Y-11027000D01*
X42125000Y-11027000D02*
X41492000Y-11660000D01*
D11*
X41525000Y-10160000D02*
G75*
G02*
X41025000Y-10160000I-250000J0D01*
G01*
X41025000Y-10160000D02*
G75*
G02*
X41525000Y-10160000I250000J0D01*
G01*
D12*
%TO.C,H2*%
X60960000Y-3810000D02*
G75*
G02*
X58420000Y-3810000I-1270000J0D01*
G01*
X58420000Y-3810000D02*
G75*
G02*
X60960000Y-3810000I1270000J0D01*
G01*
X60960000Y-3810000D02*
G75*
G02*
X58420000Y-3810000I-1270000J0D01*
G01*
X58420000Y-3810000D02*
G75*
G02*
X60960000Y-3810000I1270000J0D01*
G01*
%TD*%
X1412493Y-1413748D02*
X6204999Y-6206251D01*
X1412493Y-6206251D02*
X6204999Y-1413748D01*
X57292493Y-44593748D02*
X62084999Y-49386251D01*
X57292493Y-49386251D02*
X62084999Y-44593748D01*
X8829999Y-1210000D02*
X26730001Y-23110501D01*
X8829999Y-23110501D02*
X26730001Y-1210000D01*
X27840000Y-18950000D02*
X55980000Y-47090000D01*
X27840000Y-47090000D02*
X55980000Y-18950000D01*
X50114000Y-4902000D02*
X54534000Y-14402000D01*
X50114000Y-14402000D02*
X54534000Y-4902000D01*
X1412493Y-44593748D02*
X6204999Y-49386251D01*
X1412493Y-49386251D02*
X6204999Y-44593748D01*
X57292493Y-1413748D02*
X62084999Y-6206251D01*
X57292493Y-6206251D02*
X62084999Y-1413748D01*
M02*
