%TF.GenerationSoftware,KiCad,Pcbnew,9.0.4*%
%TF.CreationDate,2026-02-02T09:46:51-05:00*%
%TF.ProjectId,destinationWeatherStation_v4-5,64657374-696e-4617-9469-6f6e57656174,03*%
%TF.SameCoordinates,PX6bcb370PY43d3480*%
%TF.FileFunction,Legend,Bot*%
%TF.FilePolarity,Positive*%
%FSLAX46Y46*%
G04 Gerber Fmt 4.6, Leading zero omitted, Abs format (unit mm)*
G04 Created by KiCad (PCBNEW 9.0.4) date 2026-02-02 09:46:51*
%MOMM*%
%LPD*%
G01*
G04 APERTURE LIST*
%ADD10C,0.150000*%
%ADD11C,0.000000*%
G04 APERTURE END LIST*
D10*
X7620000Y-40005000D02*
X57150000Y-40005000D01*
X57150000Y-50165000D01*
X7620000Y-50165000D01*
X7620000Y-40005000D01*
G36*
X7620000Y-40005000D02*
G01*
X57150000Y-40005000D01*
X57150000Y-50165000D01*
X7620000Y-50165000D01*
X7620000Y-40005000D01*
G37*
X1905000Y-7620000D02*
X8255000Y-7620000D01*
X8255000Y-13970000D01*
X1905000Y-13970000D01*
X1905000Y-7620000D01*
G36*
X1905000Y-7620000D02*
G01*
X8255000Y-7620000D01*
X8255000Y-13970000D01*
X1905000Y-13970000D01*
X1905000Y-7620000D01*
G37*
G36*
X18297447Y-39110093D02*
G01*
X18770546Y-39110093D01*
X18770546Y-39266408D01*
X18320040Y-39266408D01*
X18249704Y-39271595D01*
X18204455Y-39284568D01*
X18176791Y-39302678D01*
X18157953Y-39329709D01*
X18144751Y-39372489D01*
X18139544Y-39437439D01*
X18139544Y-39536175D01*
X18144755Y-39601468D01*
X18157961Y-39644458D01*
X18176791Y-39671607D01*
X18204466Y-39689785D01*
X18249718Y-39702798D01*
X18320040Y-39708000D01*
X18766394Y-39708000D01*
X18836716Y-39702798D01*
X18881967Y-39689785D01*
X18909642Y-39671607D01*
X18928472Y-39644458D01*
X18941679Y-39601468D01*
X18946889Y-39536175D01*
X18946889Y-39516208D01*
X18798573Y-39485250D01*
X18798573Y-39571224D01*
X18287922Y-39571224D01*
X18287922Y-39407092D01*
X18738367Y-39407092D01*
X18808212Y-39401886D01*
X18853152Y-39388857D01*
X18880638Y-39370639D01*
X18899266Y-39343525D01*
X18912352Y-39300540D01*
X18917519Y-39235206D01*
X18917519Y-39154545D01*
X18912361Y-39090153D01*
X18899287Y-39047767D01*
X18880638Y-39021005D01*
X18853199Y-39003053D01*
X18808266Y-38990187D01*
X18738367Y-38985041D01*
X18328222Y-38985041D01*
X18260638Y-38989916D01*
X18216008Y-39002238D01*
X18187782Y-39019601D01*
X18167862Y-39045541D01*
X18154350Y-39084722D01*
X18149131Y-39142211D01*
X18149131Y-39157293D01*
X18297447Y-39192159D01*
X18297447Y-39110093D01*
G37*
G36*
X17491263Y-39223422D02*
G01*
X17491263Y-39708000D01*
X17635488Y-39708000D01*
X17635488Y-39223422D01*
X17921191Y-39223422D01*
X17921191Y-39117909D01*
X17204827Y-39117909D01*
X17204827Y-39223422D01*
X17491263Y-39223422D01*
G37*
G36*
X16874855Y-39117909D02*
G01*
X16874855Y-39598579D01*
X16462695Y-39598579D01*
X16462695Y-39117909D01*
X16317065Y-39117909D01*
X16317065Y-39569209D01*
X16321554Y-39621626D01*
X16333005Y-39656383D01*
X16349550Y-39678568D01*
X16373401Y-39693216D01*
X16412387Y-39703773D01*
X16472892Y-39708000D01*
X16864597Y-39708000D01*
X16924670Y-39703806D01*
X16963212Y-39693351D01*
X16986657Y-39678874D01*
X17002755Y-39656961D01*
X17013983Y-39622178D01*
X17018409Y-39569209D01*
X17018409Y-39117909D01*
X16874855Y-39117909D01*
G37*
G36*
X16054138Y-39708000D02*
G01*
X15691865Y-39708000D01*
X15591010Y-39702372D01*
X15510692Y-39687022D01*
X15447258Y-39663778D01*
X15397613Y-39633750D01*
X15355877Y-39593093D01*
X15325792Y-39543743D01*
X15306899Y-39483908D01*
X15300160Y-39410939D01*
X15300741Y-39404528D01*
X15448477Y-39404528D01*
X15452929Y-39456987D01*
X15465105Y-39497904D01*
X15483934Y-39529725D01*
X15509354Y-39554188D01*
X15552795Y-39576366D01*
X15620787Y-39592281D01*
X15722639Y-39598579D01*
X15908569Y-39598579D01*
X15908569Y-39223422D01*
X15654251Y-39223422D01*
X15585801Y-39229250D01*
X15535537Y-39244776D01*
X15499096Y-39268179D01*
X15472041Y-39301347D01*
X15454805Y-39345615D01*
X15448477Y-39404528D01*
X15300741Y-39404528D01*
X15306442Y-39341654D01*
X15324183Y-39283759D01*
X15352599Y-39235029D01*
X15392118Y-39193929D01*
X15439522Y-39162496D01*
X15497687Y-39138773D01*
X15568816Y-39123442D01*
X15655595Y-39117909D01*
X16054138Y-39117909D01*
X16054138Y-39708000D01*
G37*
G36*
X15083028Y-39708000D02*
G01*
X15083028Y-39117909D01*
X14447997Y-39117909D01*
X14447997Y-39223422D01*
X14937460Y-39223422D01*
X14937460Y-39352382D01*
X14652367Y-39352382D01*
X14652367Y-39453987D01*
X14937460Y-39453987D01*
X14937460Y-39598579D01*
X14440486Y-39598579D01*
X14440486Y-39708000D01*
X15083028Y-39708000D01*
G37*
G36*
X14232086Y-39708000D02*
G01*
X14232086Y-39117909D01*
X14132985Y-39117909D01*
X13630516Y-39509735D01*
X13630516Y-39117909D01*
X13499968Y-39117909D01*
X13499968Y-39708000D01*
X13599803Y-39708000D01*
X14100867Y-39310067D01*
X14100867Y-39708000D01*
X14232086Y-39708000D01*
G37*
G36*
X12882889Y-39223422D02*
G01*
X12882889Y-39708000D01*
X13027114Y-39708000D01*
X13027114Y-39223422D01*
X13312817Y-39223422D01*
X13312817Y-39117909D01*
X12596453Y-39117909D01*
X12596453Y-39223422D01*
X12882889Y-39223422D01*
G37*
G36*
X11817563Y-39708000D02*
G01*
X11817563Y-38985041D01*
X11702707Y-38985041D01*
X11194133Y-39411183D01*
X11148337Y-39451178D01*
X11112067Y-39489830D01*
X11117563Y-39403673D01*
X11118906Y-39364655D01*
X11118906Y-38985041D01*
X10967842Y-38985041D01*
X10967842Y-39708000D01*
X11082697Y-39708000D01*
X11613131Y-39261340D01*
X11646654Y-39230566D01*
X11673276Y-39202539D01*
X11668147Y-39265859D01*
X11666437Y-39317455D01*
X11666437Y-39708000D01*
X11817563Y-39708000D01*
G37*
G36*
X10742711Y-39708000D02*
G01*
X10598485Y-39708000D01*
X10523991Y-39579039D01*
X10132287Y-39579039D01*
X10057732Y-39708000D01*
X9895738Y-39708000D01*
X10039892Y-39469618D01*
X10191027Y-39469618D01*
X10462442Y-39469618D01*
X10329147Y-39224521D01*
X10191027Y-39469618D01*
X10039892Y-39469618D01*
X10252576Y-39117909D01*
X10391367Y-39117909D01*
X10742711Y-39708000D01*
G37*
G36*
X9748765Y-39708000D02*
G01*
X9748765Y-39117909D01*
X9633238Y-39117909D01*
X9343382Y-39468153D01*
X9054932Y-39117909D01*
X8938733Y-39117909D01*
X8938733Y-39708000D01*
X9072700Y-39708000D01*
X9072700Y-39301885D01*
X9337276Y-39637108D01*
X9365303Y-39637108D01*
X9633238Y-39311410D01*
X9633238Y-39708000D01*
X9748765Y-39708000D01*
G37*
G36*
X8675073Y-39708000D02*
G01*
X8675073Y-39117909D01*
X8040042Y-39117909D01*
X8040042Y-39223422D01*
X8529504Y-39223422D01*
X8529504Y-39352382D01*
X8244412Y-39352382D01*
X8244412Y-39453987D01*
X8529504Y-39453987D01*
X8529504Y-39598579D01*
X8032531Y-39598579D01*
X8032531Y-39708000D01*
X8675073Y-39708000D01*
G37*
G36*
X7674410Y-39114001D02*
G01*
X7649131Y-39114001D01*
X7632799Y-39116888D01*
X7623180Y-39124503D01*
X7617992Y-39137644D01*
X7615670Y-39164864D01*
X7615670Y-39277399D01*
X7618289Y-39306776D01*
X7623913Y-39319470D01*
X7636735Y-39325731D01*
X7674471Y-39328935D01*
X7799523Y-39328935D01*
X7815876Y-39325976D01*
X7825535Y-39318127D01*
X7830737Y-39304673D01*
X7833046Y-39277399D01*
X7833046Y-39164864D01*
X7830454Y-39136085D01*
X7824864Y-39123526D01*
X7811982Y-39117221D01*
X7774244Y-39114001D01*
X7674410Y-39114001D01*
G37*
G36*
X7674410Y-39493066D02*
G01*
X7649131Y-39493066D01*
X7632799Y-39495953D01*
X7623180Y-39503568D01*
X7617992Y-39516709D01*
X7615670Y-39543929D01*
X7615670Y-39656464D01*
X7618289Y-39685841D01*
X7623913Y-39698535D01*
X7636735Y-39704796D01*
X7674471Y-39708000D01*
X7799523Y-39708000D01*
X7815876Y-39705040D01*
X7825535Y-39697192D01*
X7830737Y-39683738D01*
X7833046Y-39656464D01*
X7833046Y-39543929D01*
X7830454Y-39515150D01*
X7824864Y-39502591D01*
X7811982Y-39496286D01*
X7774244Y-39493066D01*
X7674410Y-39493066D01*
G37*
G36*
X5976029Y-6097209D02*
G01*
X6020965Y-6110137D01*
X6048422Y-6128189D01*
X6067061Y-6155069D01*
X6080140Y-6197684D01*
X6085303Y-6262461D01*
X6085303Y-6643114D01*
X6080114Y-6708963D01*
X6067011Y-6752002D01*
X6048422Y-6778913D01*
X6020971Y-6796931D01*
X5976036Y-6809839D01*
X5906151Y-6815000D01*
X5609518Y-6815000D01*
X5528124Y-7002578D01*
X5361367Y-7002578D01*
X5452287Y-6815000D01*
X5374312Y-6815000D01*
X5304469Y-6809838D01*
X5259576Y-6796930D01*
X5232163Y-6778913D01*
X5213540Y-6751996D01*
X5200417Y-6708956D01*
X5197992Y-6678224D01*
X5362711Y-6678224D01*
X5517194Y-6678224D01*
X5614952Y-6471106D01*
X5736646Y-6520626D01*
X5669663Y-6678224D01*
X5917142Y-6678224D01*
X5917142Y-6221001D01*
X5362711Y-6221001D01*
X5362711Y-6678224D01*
X5197992Y-6678224D01*
X5195221Y-6643114D01*
X5195221Y-6262461D01*
X5200391Y-6197691D01*
X5213491Y-6155075D01*
X5232163Y-6128189D01*
X5259582Y-6110138D01*
X5304476Y-6097210D01*
X5374312Y-6092041D01*
X5906151Y-6092041D01*
X5976029Y-6097209D01*
G37*
G36*
X4234858Y-6221001D02*
G01*
X4688112Y-6221001D01*
X4688112Y-6678224D01*
X4234858Y-6678224D01*
X4234858Y-6521908D01*
X4066697Y-6557018D01*
X4066697Y-6643114D01*
X4071930Y-6708923D01*
X4085153Y-6751967D01*
X4103944Y-6778913D01*
X4131562Y-6796966D01*
X4176421Y-6809858D01*
X4245788Y-6815000D01*
X4677121Y-6815000D01*
X4747006Y-6809839D01*
X4791941Y-6796931D01*
X4819392Y-6778913D01*
X4837981Y-6752002D01*
X4851084Y-6708963D01*
X4856273Y-6643114D01*
X4856273Y-6262705D01*
X4851110Y-6197843D01*
X4838029Y-6155169D01*
X4819392Y-6128250D01*
X4791929Y-6110165D01*
X4746993Y-6097217D01*
X4677121Y-6092041D01*
X4245788Y-6092041D01*
X4176435Y-6097197D01*
X4131574Y-6110130D01*
X4103944Y-6128250D01*
X4085105Y-6155204D01*
X4071904Y-6197883D01*
X4066697Y-6262705D01*
X4066697Y-6331093D01*
X4234858Y-6357777D01*
X4234858Y-6221001D01*
G37*
G36*
X47706353Y-36039999D02*
G01*
X47284546Y-36039999D01*
X47271022Y-36039947D01*
X47257809Y-36039792D01*
X47244904Y-36039535D01*
X47232308Y-36039174D01*
X47220022Y-36038711D01*
X47208044Y-36038144D01*
X47196376Y-36037474D01*
X47185017Y-36036701D01*
X47173966Y-36035825D01*
X47163226Y-36034847D01*
X47152794Y-36033765D01*
X47142671Y-36032580D01*
X47132857Y-36031292D01*
X47118717Y-36029166D01*
X47105271Y-36026809D01*
X47096599Y-36025069D01*
X47083926Y-36022230D01*
X47071657Y-36019116D01*
X47059792Y-36015727D01*
X47048330Y-36012063D01*
X47037272Y-36008125D01*
X47026617Y-36003912D01*
X47016366Y-35999424D01*
X47006519Y-35994661D01*
X46997075Y-35989623D01*
X46988035Y-35984311D01*
X46978674Y-35978377D01*
X46969583Y-35972175D01*
X46960761Y-35965707D01*
X46952207Y-35958971D01*
X46943923Y-35951968D01*
X46935908Y-35944698D01*
X46928162Y-35937161D01*
X46920685Y-35929356D01*
X46913477Y-35921285D01*
X46906538Y-35912946D01*
X46899868Y-35904341D01*
X46893467Y-35895468D01*
X46887335Y-35886328D01*
X46881472Y-35876921D01*
X46875879Y-35867246D01*
X46870554Y-35857305D01*
X46865496Y-35847152D01*
X46860765Y-35836842D01*
X46856360Y-35826376D01*
X46852281Y-35815753D01*
X46848529Y-35804974D01*
X46845103Y-35794038D01*
X46842003Y-35782946D01*
X46839230Y-35771698D01*
X46836783Y-35760293D01*
X46834662Y-35748731D01*
X46832867Y-35737013D01*
X46831399Y-35725139D01*
X46830257Y-35713108D01*
X46829441Y-35700921D01*
X46828952Y-35688577D01*
X46828788Y-35676077D01*
X46828859Y-35668994D01*
X47002445Y-35668994D01*
X47002728Y-35684139D01*
X47003578Y-35698738D01*
X47004995Y-35712791D01*
X47006979Y-35726299D01*
X47009529Y-35739261D01*
X47012646Y-35751677D01*
X47016330Y-35763548D01*
X47020580Y-35774873D01*
X47025397Y-35785652D01*
X47030781Y-35795885D01*
X47036732Y-35805573D01*
X47043249Y-35814715D01*
X47050333Y-35823311D01*
X47057984Y-35831362D01*
X47066201Y-35838866D01*
X47074985Y-35845825D01*
X47084418Y-35852303D01*
X47094643Y-35858362D01*
X47105660Y-35864003D01*
X47117468Y-35869227D01*
X47130069Y-35874033D01*
X47143461Y-35878420D01*
X47157645Y-35882390D01*
X47172621Y-35885942D01*
X47188389Y-35889076D01*
X47204949Y-35891793D01*
X47222301Y-35894091D01*
X47240444Y-35895972D01*
X47259380Y-35897434D01*
X47269145Y-35898009D01*
X47279107Y-35898479D01*
X47289268Y-35898845D01*
X47299627Y-35899106D01*
X47310183Y-35899262D01*
X47320938Y-35899315D01*
X47538314Y-35899315D01*
X47538314Y-35446000D01*
X47240338Y-35446000D01*
X47225877Y-35446221D01*
X47211864Y-35446885D01*
X47198300Y-35447992D01*
X47185184Y-35449541D01*
X47172517Y-35451534D01*
X47160298Y-35453968D01*
X47148528Y-35456846D01*
X47137206Y-35460166D01*
X47126332Y-35463929D01*
X47115907Y-35468134D01*
X47105931Y-35472783D01*
X47096402Y-35477874D01*
X47087322Y-35483407D01*
X47078691Y-35489384D01*
X47070508Y-35495803D01*
X47062773Y-35502664D01*
X47055468Y-35509926D01*
X47048634Y-35517605D01*
X47042271Y-35525702D01*
X47036380Y-35534217D01*
X47030959Y-35543150D01*
X47026011Y-35552501D01*
X47021533Y-35562270D01*
X47017527Y-35572457D01*
X47013992Y-35583061D01*
X47010929Y-35594084D01*
X47008336Y-35605524D01*
X47006216Y-35617382D01*
X47004566Y-35629658D01*
X47003388Y-35642352D01*
X47002681Y-35655464D01*
X47002445Y-35668994D01*
X46828859Y-35668994D01*
X46828893Y-35665528D01*
X46829206Y-35655130D01*
X46829729Y-35644883D01*
X46830460Y-35634788D01*
X46831400Y-35624844D01*
X46832549Y-35615051D01*
X46835475Y-35595919D01*
X46839235Y-35577392D01*
X46843832Y-35559470D01*
X46849265Y-35542152D01*
X46855533Y-35525440D01*
X46862637Y-35509332D01*
X46870577Y-35493830D01*
X46879352Y-35478932D01*
X46888964Y-35464639D01*
X46899411Y-35450951D01*
X46910694Y-35437867D01*
X46922812Y-35425389D01*
X46935767Y-35413516D01*
X46949498Y-35402306D01*
X46963946Y-35391820D01*
X46979112Y-35382057D01*
X46994996Y-35373017D01*
X47011596Y-35364700D01*
X47028915Y-35357107D01*
X47046951Y-35350237D01*
X47056238Y-35347073D01*
X47065704Y-35344090D01*
X47075350Y-35341287D01*
X47085175Y-35338666D01*
X47095179Y-35336225D01*
X47105363Y-35333965D01*
X47115726Y-35331886D01*
X47126269Y-35329987D01*
X47136990Y-35328270D01*
X47147892Y-35326733D01*
X47158972Y-35325377D01*
X47170232Y-35324202D01*
X47181672Y-35323208D01*
X47193290Y-35322394D01*
X47205088Y-35321761D01*
X47217066Y-35321309D01*
X47229223Y-35321038D01*
X47241559Y-35320948D01*
X47706353Y-35320948D01*
X47706353Y-36039999D01*
G37*
G36*
X46573066Y-36039999D02*
G01*
X46573066Y-35446000D01*
X45938035Y-35446000D01*
X45938035Y-35555421D01*
X46427497Y-35555421D01*
X46427497Y-35664841D01*
X46142466Y-35664841D01*
X46142466Y-35774262D01*
X46427497Y-35774262D01*
X46427497Y-35930578D01*
X45930463Y-35930578D01*
X45930463Y-36039999D01*
X46573066Y-36039999D01*
G37*
G36*
X45175264Y-35555421D02*
G01*
X45582661Y-35555421D01*
X45582661Y-35680473D01*
X45197002Y-35680473D01*
X45185877Y-35680582D01*
X45175218Y-35680908D01*
X45165025Y-35681452D01*
X45150608Y-35682676D01*
X45137239Y-35684389D01*
X45124917Y-35686591D01*
X45113643Y-35689283D01*
X45103416Y-35692464D01*
X45094237Y-35696135D01*
X45083627Y-35701791D01*
X45074880Y-35708317D01*
X45067496Y-35715995D01*
X45061096Y-35725231D01*
X45055681Y-35736023D01*
X45051250Y-35748373D01*
X45048573Y-35758657D01*
X45046450Y-35769816D01*
X45044881Y-35781852D01*
X45043865Y-35794763D01*
X45043404Y-35808551D01*
X45043373Y-35813341D01*
X45043373Y-35897605D01*
X45043499Y-35907719D01*
X45044160Y-35922121D01*
X45045388Y-35935600D01*
X45047183Y-35948156D01*
X45049544Y-35959789D01*
X45052472Y-35970498D01*
X45055967Y-35980285D01*
X45061508Y-35991898D01*
X45068057Y-36001870D01*
X45075613Y-36010201D01*
X45084509Y-36017185D01*
X45095198Y-36023237D01*
X45104393Y-36027166D01*
X45114596Y-36030570D01*
X45125808Y-36033451D01*
X45138029Y-36035808D01*
X45151259Y-36037641D01*
X45165497Y-36038951D01*
X45175551Y-36039533D01*
X45186052Y-36039882D01*
X45197002Y-36039999D01*
X45581196Y-36039999D01*
X45592414Y-36039882D01*
X45603170Y-36039533D01*
X45613465Y-36038951D01*
X45623297Y-36038136D01*
X45637180Y-36036477D01*
X45650025Y-36034295D01*
X45661830Y-36031589D01*
X45672596Y-36028359D01*
X45682323Y-36024605D01*
X45693677Y-36018785D01*
X45703183Y-36012034D01*
X45705271Y-36010201D01*
X45712885Y-36001870D01*
X45719483Y-35991898D01*
X45725066Y-35980285D01*
X45728588Y-35970498D01*
X45731538Y-35959789D01*
X45733917Y-35948156D01*
X45735725Y-35935600D01*
X45736962Y-35922121D01*
X45737629Y-35907719D01*
X45737756Y-35897605D01*
X45737756Y-35879287D01*
X45609284Y-35852420D01*
X45609284Y-35930578D01*
X45173799Y-35930578D01*
X45173799Y-35789894D01*
X45557260Y-35789894D01*
X45568418Y-35789782D01*
X45579116Y-35789447D01*
X45589354Y-35788889D01*
X45599132Y-35788108D01*
X45612938Y-35786517D01*
X45625708Y-35784424D01*
X45637444Y-35781829D01*
X45648145Y-35778731D01*
X45657812Y-35775131D01*
X45669091Y-35769550D01*
X45678530Y-35763076D01*
X45680603Y-35761317D01*
X45688102Y-35753349D01*
X45694601Y-35743854D01*
X45700100Y-35732833D01*
X45703568Y-35723565D01*
X45706474Y-35713438D01*
X45708818Y-35702453D01*
X45710599Y-35690609D01*
X45711817Y-35677907D01*
X45712474Y-35664345D01*
X45712599Y-35654828D01*
X45712599Y-35588393D01*
X45712474Y-35578397D01*
X45711817Y-35564153D01*
X45710599Y-35550811D01*
X45708818Y-35538370D01*
X45706474Y-35526831D01*
X45703568Y-35516193D01*
X45700100Y-35506458D01*
X45694601Y-35494879D01*
X45688102Y-35484903D01*
X45680603Y-35476530D01*
X45671623Y-35469375D01*
X45660804Y-35463173D01*
X45651482Y-35459148D01*
X45641126Y-35455660D01*
X45629735Y-35452708D01*
X45617309Y-35450293D01*
X45603849Y-35448415D01*
X45589354Y-35447073D01*
X45579116Y-35446477D01*
X45568418Y-35446119D01*
X45557260Y-35446000D01*
X45206039Y-35446000D01*
X45195056Y-35446113D01*
X45184515Y-35446454D01*
X45174417Y-35447022D01*
X45160100Y-35448299D01*
X45146779Y-35450087D01*
X45134455Y-35452386D01*
X45123126Y-35455196D01*
X45112793Y-35458517D01*
X45103457Y-35462349D01*
X45092558Y-35468253D01*
X45083429Y-35475065D01*
X45075644Y-35483026D01*
X45068897Y-35492376D01*
X45063187Y-35503115D01*
X45058516Y-35515243D01*
X45055694Y-35525250D01*
X45053456Y-35536040D01*
X45051801Y-35547610D01*
X45050731Y-35559962D01*
X45050244Y-35573095D01*
X45050212Y-35577647D01*
X45050212Y-35591813D01*
X45175264Y-35617947D01*
X45175264Y-35555421D01*
G37*
G36*
X44441315Y-35555421D02*
G01*
X44441315Y-36039999D01*
X44585418Y-36039999D01*
X44585418Y-35555421D01*
X44871182Y-35555421D01*
X44871182Y-35446000D01*
X44154818Y-35446000D01*
X44154818Y-35555421D01*
X44441315Y-35555421D01*
G37*
G36*
X43968460Y-36039999D02*
G01*
X43968460Y-35446000D01*
X43824846Y-35446000D01*
X43824846Y-36039999D01*
X43968460Y-36039999D01*
G37*
G36*
X43561063Y-36039999D02*
G01*
X43561063Y-35446000D01*
X43461901Y-35446000D01*
X42959493Y-35840452D01*
X42959493Y-35446000D01*
X42828823Y-35446000D01*
X42828823Y-36039999D01*
X42928719Y-36039999D01*
X43429661Y-35639440D01*
X43429661Y-36039999D01*
X43561063Y-36039999D01*
G37*
G36*
X42654678Y-36039999D02*
G01*
X42510575Y-36039999D01*
X42436081Y-35914946D01*
X42044315Y-35914946D01*
X41969821Y-36039999D01*
X41807888Y-36039999D01*
X41948746Y-35805525D01*
X42103178Y-35805525D01*
X42374532Y-35805525D01*
X42241175Y-35554932D01*
X42103178Y-35805525D01*
X41948746Y-35805525D01*
X42164727Y-35446000D01*
X42303457Y-35446000D01*
X42654678Y-36039999D01*
G37*
G36*
X41346269Y-35555421D02*
G01*
X41346269Y-36039999D01*
X41490372Y-36039999D01*
X41490372Y-35555421D01*
X41776137Y-35555421D01*
X41776137Y-35446000D01*
X41059772Y-35446000D01*
X41059772Y-35555421D01*
X41346269Y-35555421D01*
G37*
G36*
X40911517Y-36039999D02*
G01*
X40911517Y-35446000D01*
X40767902Y-35446000D01*
X40767902Y-36039999D01*
X40911517Y-36039999D01*
G37*
G36*
X40375783Y-35446116D02*
G01*
X40386444Y-35446465D01*
X40396642Y-35447047D01*
X40411070Y-35448357D01*
X40424455Y-35450190D01*
X40436796Y-35452547D01*
X40448094Y-35455428D01*
X40458348Y-35458833D01*
X40467560Y-35462761D01*
X40478219Y-35468814D01*
X40487023Y-35475798D01*
X40494407Y-35483995D01*
X40500807Y-35493810D01*
X40506223Y-35505244D01*
X40509638Y-35514881D01*
X40512499Y-35525428D01*
X40514807Y-35536886D01*
X40516561Y-35549254D01*
X40517761Y-35562531D01*
X40518407Y-35576719D01*
X40518530Y-35586684D01*
X40518530Y-35903467D01*
X40518407Y-35913162D01*
X40517761Y-35926968D01*
X40516561Y-35939889D01*
X40514807Y-35951927D01*
X40512499Y-35963079D01*
X40509638Y-35973347D01*
X40506223Y-35982731D01*
X40500807Y-35993867D01*
X40494407Y-36003431D01*
X40487023Y-36011422D01*
X40478219Y-36018120D01*
X40467560Y-36023924D01*
X40458348Y-36027692D01*
X40448094Y-36030957D01*
X40436796Y-36033720D01*
X40424455Y-36035980D01*
X40411070Y-36037738D01*
X40396642Y-36038994D01*
X40386444Y-36039552D01*
X40375783Y-36039887D01*
X40364657Y-36039999D01*
X39906702Y-36039999D01*
X39895635Y-36039887D01*
X39885025Y-36039552D01*
X39874874Y-36038994D01*
X39860506Y-36037738D01*
X39847168Y-36035980D01*
X39834860Y-36033720D01*
X39823583Y-36030957D01*
X39813336Y-36027692D01*
X39804120Y-36023924D01*
X39793434Y-36018120D01*
X39784580Y-36011422D01*
X39778906Y-36005576D01*
X39772208Y-35996405D01*
X39766503Y-35985663D01*
X39762875Y-35976574D01*
X39759805Y-35966600D01*
X39757294Y-35955742D01*
X39755340Y-35944000D01*
X39753945Y-35931373D01*
X39753896Y-35930578D01*
X39896932Y-35930578D01*
X40374183Y-35930578D01*
X40374183Y-35555421D01*
X39896932Y-35555421D01*
X39896932Y-35930578D01*
X39753896Y-35930578D01*
X39753108Y-35917862D01*
X39752829Y-35903467D01*
X39752829Y-35586684D01*
X39752951Y-35576719D01*
X39753592Y-35562531D01*
X39754783Y-35549254D01*
X39756523Y-35536886D01*
X39758813Y-35525428D01*
X39761652Y-35514881D01*
X39765041Y-35505244D01*
X39770414Y-35493810D01*
X39776765Y-35483995D01*
X39784092Y-35475798D01*
X39786090Y-35473964D01*
X39795264Y-35467213D01*
X39806331Y-35461393D01*
X39815874Y-35457640D01*
X39826481Y-35454410D01*
X39838154Y-35451703D01*
X39850890Y-35449521D01*
X39864692Y-35447862D01*
X39874485Y-35447047D01*
X39884751Y-35446465D01*
X39895490Y-35446116D01*
X39906702Y-35446000D01*
X40364657Y-35446000D01*
X40375783Y-35446116D01*
G37*
G36*
X39503701Y-36039999D02*
G01*
X39503701Y-35446000D01*
X39404539Y-35446000D01*
X38902131Y-35840452D01*
X38902131Y-35446000D01*
X38771461Y-35446000D01*
X38771461Y-36039999D01*
X38871356Y-36039999D01*
X39372298Y-35639440D01*
X39372298Y-36039999D01*
X39503701Y-36039999D01*
G37*
G36*
X37287197Y-35446000D02*
G01*
X37760051Y-35446000D01*
X37760051Y-35602315D01*
X37309668Y-35602315D01*
X37296687Y-35602457D01*
X37284243Y-35602884D01*
X37272339Y-35603595D01*
X37260972Y-35604590D01*
X37250143Y-35605869D01*
X37239852Y-35607433D01*
X37230100Y-35609281D01*
X37216480Y-35612586D01*
X37204071Y-35616531D01*
X37192872Y-35621116D01*
X37182885Y-35626340D01*
X37174108Y-35632204D01*
X37166541Y-35638708D01*
X37159863Y-35646033D01*
X37153842Y-35654453D01*
X37148477Y-35663967D01*
X37143769Y-35674577D01*
X37139719Y-35686281D01*
X37136325Y-35699080D01*
X37133588Y-35712974D01*
X37132128Y-35722845D01*
X37130960Y-35733203D01*
X37130085Y-35744047D01*
X37129501Y-35755377D01*
X37129209Y-35767194D01*
X37129172Y-35773285D01*
X37129172Y-35867319D01*
X37129318Y-35879499D01*
X37129756Y-35891190D01*
X37130486Y-35902390D01*
X37131508Y-35913099D01*
X37132821Y-35923318D01*
X37134427Y-35933047D01*
X37137383Y-35946720D01*
X37140996Y-35959291D01*
X37145266Y-35970757D01*
X37150192Y-35981121D01*
X37155776Y-35990381D01*
X37162016Y-35998537D01*
X37166541Y-36003362D01*
X37174108Y-36009909D01*
X37182885Y-36015813D01*
X37192872Y-36021072D01*
X37204071Y-36025687D01*
X37216480Y-36029659D01*
X37230100Y-36032986D01*
X37239852Y-36034847D01*
X37250143Y-36036421D01*
X37260972Y-36037709D01*
X37272339Y-36038711D01*
X37284243Y-36039426D01*
X37296687Y-36039855D01*
X37309668Y-36039999D01*
X37756144Y-36039999D01*
X37769096Y-36039855D01*
X37781514Y-36039426D01*
X37793398Y-36038711D01*
X37804748Y-36037709D01*
X37815563Y-36036421D01*
X37825844Y-36034847D01*
X37835591Y-36032986D01*
X37849210Y-36029659D01*
X37861626Y-36025687D01*
X37872840Y-36021072D01*
X37882852Y-36015813D01*
X37891662Y-36009909D01*
X37899270Y-36003362D01*
X37905904Y-35995941D01*
X37911887Y-35987417D01*
X37917216Y-35977789D01*
X37921893Y-35967058D01*
X37925917Y-35955223D01*
X37929289Y-35942285D01*
X37932008Y-35928244D01*
X37933458Y-35918270D01*
X37934618Y-35907806D01*
X37935488Y-35896851D01*
X37936068Y-35885406D01*
X37936359Y-35873470D01*
X37936395Y-35867319D01*
X37936395Y-35849245D01*
X37788139Y-35821157D01*
X37788139Y-35899315D01*
X37277428Y-35899315D01*
X37277428Y-35742999D01*
X37728056Y-35742999D01*
X37740947Y-35742856D01*
X37753304Y-35742427D01*
X37765127Y-35741711D01*
X37776416Y-35740709D01*
X37787170Y-35739421D01*
X37797390Y-35737847D01*
X37807076Y-35735987D01*
X37820603Y-35732659D01*
X37832927Y-35728688D01*
X37844050Y-35724073D01*
X37853970Y-35718813D01*
X37862689Y-35712910D01*
X37870205Y-35706363D01*
X37876796Y-35698892D01*
X37882739Y-35690309D01*
X37888033Y-35680614D01*
X37892679Y-35669806D01*
X37896677Y-35657887D01*
X37900026Y-35644857D01*
X37902728Y-35630714D01*
X37904168Y-35620667D01*
X37905321Y-35610127D01*
X37906185Y-35599092D01*
X37906761Y-35587563D01*
X37907050Y-35575539D01*
X37907086Y-35569343D01*
X37907086Y-35488254D01*
X37906942Y-35476433D01*
X37906509Y-35465089D01*
X37905789Y-35454222D01*
X37904781Y-35443832D01*
X37903484Y-35433919D01*
X37900999Y-35419945D01*
X37897865Y-35407043D01*
X37894084Y-35395215D01*
X37889654Y-35384460D01*
X37884575Y-35374779D01*
X37878849Y-35366171D01*
X37872474Y-35358636D01*
X37870205Y-35356363D01*
X37862689Y-35350034D01*
X37853970Y-35344327D01*
X37844050Y-35339243D01*
X37832927Y-35334782D01*
X37820603Y-35330943D01*
X37807076Y-35327726D01*
X37797390Y-35325928D01*
X37787170Y-35324406D01*
X37776416Y-35323161D01*
X37765127Y-35322193D01*
X37753304Y-35321501D01*
X37740947Y-35321086D01*
X37728056Y-35320948D01*
X37317972Y-35320948D01*
X37305488Y-35321081D01*
X37293498Y-35321482D01*
X37282002Y-35322150D01*
X37271001Y-35323085D01*
X37260494Y-35324287D01*
X37250481Y-35325756D01*
X37236388Y-35328461D01*
X37223407Y-35331767D01*
X37211538Y-35335674D01*
X37200781Y-35340182D01*
X37191136Y-35345291D01*
X37182603Y-35351001D01*
X37177532Y-35355142D01*
X37170592Y-35362019D01*
X37164335Y-35369828D01*
X37158760Y-35378568D01*
X37153867Y-35388240D01*
X37149658Y-35398844D01*
X37146131Y-35410380D01*
X37143286Y-35422847D01*
X37141125Y-35436245D01*
X37139646Y-35450576D01*
X37139039Y-35460647D01*
X37138736Y-35471132D01*
X37138698Y-35476530D01*
X37138698Y-35490941D01*
X37287197Y-35524158D01*
X37287197Y-35446000D01*
G37*
G36*
X36780882Y-36039999D02*
G01*
X36615529Y-36039999D01*
X36615529Y-35758631D01*
X36162947Y-35758631D01*
X36152356Y-35758501D01*
X36142137Y-35758112D01*
X36127506Y-35757041D01*
X36113712Y-35755387D01*
X36100756Y-35753149D01*
X36088637Y-35750326D01*
X36077354Y-35746920D01*
X36066909Y-35742931D01*
X36057302Y-35738357D01*
X36048531Y-35733199D01*
X36038139Y-35725414D01*
X36029095Y-35716484D01*
X36021256Y-35706302D01*
X36016168Y-35697844D01*
X36011759Y-35688682D01*
X36008028Y-35678816D01*
X36004976Y-35668246D01*
X36002602Y-35656971D01*
X36000906Y-35644993D01*
X35999888Y-35632310D01*
X35999549Y-35618924D01*
X35999549Y-35501687D01*
X36161726Y-35501687D01*
X36161726Y-35577403D01*
X36161868Y-35583143D01*
X36163001Y-35593618D01*
X36165756Y-35604147D01*
X36170794Y-35613947D01*
X36177846Y-35621366D01*
X36183487Y-35624884D01*
X36193669Y-35628808D01*
X36204516Y-35631241D01*
X36215052Y-35632612D01*
X36226947Y-35633388D01*
X36237442Y-35633578D01*
X36615529Y-35633578D01*
X36615529Y-35446000D01*
X36237442Y-35446000D01*
X36229489Y-35446109D01*
X36219647Y-35446596D01*
X36208567Y-35447752D01*
X36197067Y-35449941D01*
X36187524Y-35453007D01*
X36177846Y-35458456D01*
X36174068Y-35461857D01*
X36168023Y-35470375D01*
X36164387Y-35479706D01*
X36162293Y-35490791D01*
X36161726Y-35501687D01*
X35999549Y-35501687D01*
X35999549Y-35460654D01*
X35999888Y-35447226D01*
X36000906Y-35434511D01*
X36002602Y-35422508D01*
X36004976Y-35411218D01*
X36008028Y-35400641D01*
X36011759Y-35390776D01*
X36016168Y-35381624D01*
X36021256Y-35373185D01*
X36029095Y-35363041D01*
X36038139Y-35354165D01*
X36043149Y-35350142D01*
X36051362Y-35344595D01*
X36060411Y-35339632D01*
X36070298Y-35335253D01*
X36081022Y-35331458D01*
X36092583Y-35328246D01*
X36104982Y-35325619D01*
X36118217Y-35323575D01*
X36132290Y-35322115D01*
X36142137Y-35321467D01*
X36152356Y-35321077D01*
X36162947Y-35320948D01*
X36780882Y-35320948D01*
X36780882Y-36039999D01*
G37*
G36*
X35917728Y-36039999D02*
G01*
X35750177Y-36039999D01*
X35666158Y-35883683D01*
X35207958Y-35883683D01*
X35121252Y-36039999D01*
X34932696Y-36039999D01*
X35094788Y-35758631D01*
X35277811Y-35758631D01*
X35594350Y-35758631D01*
X35433638Y-35462364D01*
X35277811Y-35758631D01*
X35094788Y-35758631D01*
X35346932Y-35320948D01*
X35508865Y-35320948D01*
X35917728Y-36039999D01*
G37*
G36*
X34144525Y-35446000D02*
G01*
X34597595Y-35446000D01*
X34597595Y-35899315D01*
X34144525Y-35899315D01*
X34144525Y-35742999D01*
X33976241Y-35778170D01*
X33976241Y-35864144D01*
X33976387Y-35876651D01*
X33976825Y-35888648D01*
X33977555Y-35900136D01*
X33978577Y-35911115D01*
X33979891Y-35921584D01*
X33981496Y-35931543D01*
X33984452Y-35945527D01*
X33988065Y-35958365D01*
X33992335Y-35970057D01*
X33997261Y-35980602D01*
X34002845Y-35990001D01*
X34009085Y-35998253D01*
X34013610Y-36003118D01*
X34021166Y-36009709D01*
X34029911Y-36015651D01*
X34039845Y-36020946D01*
X34050968Y-36025592D01*
X34063281Y-36029590D01*
X34076782Y-36032939D01*
X34086444Y-36034812D01*
X34096635Y-36036397D01*
X34107354Y-36037693D01*
X34118601Y-36038702D01*
X34130378Y-36039422D01*
X34142682Y-36039854D01*
X34155516Y-36039999D01*
X34586848Y-36039999D01*
X34599740Y-36039854D01*
X34612097Y-36039422D01*
X34623920Y-36038702D01*
X34635208Y-36037693D01*
X34645963Y-36036397D01*
X34656183Y-36034812D01*
X34665869Y-36032939D01*
X34679395Y-36029590D01*
X34691720Y-36025592D01*
X34702843Y-36020946D01*
X34712763Y-36015651D01*
X34721482Y-36009709D01*
X34728998Y-36003118D01*
X34735589Y-35995630D01*
X34741531Y-35986995D01*
X34746826Y-35977214D01*
X34751472Y-35966287D01*
X34755470Y-35954213D01*
X34758819Y-35940993D01*
X34761520Y-35926627D01*
X34762961Y-35916413D01*
X34764114Y-35905689D01*
X34764978Y-35894456D01*
X34765554Y-35882713D01*
X34765842Y-35870461D01*
X34765878Y-35864144D01*
X34765878Y-35488987D01*
X34765734Y-35477135D01*
X34765302Y-35465761D01*
X34764582Y-35454863D01*
X34763573Y-35444443D01*
X34762277Y-35434499D01*
X34759792Y-35420479D01*
X34756658Y-35407532D01*
X34752877Y-35395658D01*
X34748446Y-35384857D01*
X34743368Y-35375130D01*
X34737642Y-35366476D01*
X34731267Y-35358895D01*
X34728998Y-35356607D01*
X34721482Y-35350234D01*
X34712763Y-35344488D01*
X34702843Y-35339369D01*
X34691720Y-35334877D01*
X34679395Y-35331012D01*
X34665869Y-35327773D01*
X34656183Y-35325962D01*
X34645963Y-35324430D01*
X34635208Y-35323176D01*
X34623920Y-35322201D01*
X34612097Y-35321505D01*
X34599740Y-35321087D01*
X34586848Y-35320948D01*
X34155516Y-35320948D01*
X34142682Y-35321087D01*
X34130378Y-35321505D01*
X34118601Y-35322201D01*
X34107354Y-35323176D01*
X34096635Y-35324430D01*
X34086444Y-35325962D01*
X34076782Y-35327773D01*
X34063281Y-35331012D01*
X34050968Y-35334877D01*
X34039845Y-35339369D01*
X34029911Y-35344488D01*
X34021166Y-35350234D01*
X34013610Y-35356607D01*
X34006932Y-35363830D01*
X34000911Y-35372126D01*
X33995546Y-35381495D01*
X33990839Y-35391938D01*
X33986788Y-35403454D01*
X33983394Y-35416044D01*
X33980657Y-35429707D01*
X33979197Y-35439412D01*
X33978029Y-35449593D01*
X33977154Y-35460252D01*
X33976570Y-35471388D01*
X33976278Y-35483001D01*
X33976241Y-35488987D01*
X33976241Y-35559329D01*
X34144525Y-35586684D01*
X34144525Y-35446000D01*
G37*
G36*
X33641873Y-36039999D02*
G01*
X33641873Y-35320948D01*
X32902305Y-35320948D01*
X32902305Y-35446000D01*
X33473834Y-35446000D01*
X33473834Y-35602315D01*
X33140198Y-35602315D01*
X33140198Y-35727368D01*
X33473834Y-35727368D01*
X33473834Y-35899315D01*
X32895467Y-35899315D01*
X32895467Y-36039999D01*
X33641873Y-36039999D01*
G37*
G36*
X32044525Y-36039999D02*
G01*
X32044525Y-35320948D01*
X31876485Y-35320948D01*
X31876485Y-36039999D01*
X32044525Y-36039999D01*
G37*
G36*
X31559947Y-36039999D02*
G01*
X31559947Y-35446000D01*
X31460784Y-35446000D01*
X30958377Y-35840452D01*
X30958377Y-35446000D01*
X30827707Y-35446000D01*
X30827707Y-36039999D01*
X30927602Y-36039999D01*
X31428544Y-35639440D01*
X31428544Y-36039999D01*
X31559947Y-36039999D01*
G37*
G36*
X30044664Y-35555421D02*
G01*
X30433499Y-35555421D01*
X30433499Y-35930578D01*
X30044664Y-35930578D01*
X30044664Y-35805525D01*
X29898851Y-35834835D01*
X29898851Y-35903955D01*
X29899135Y-35918220D01*
X29899985Y-35931613D01*
X29901401Y-35944134D01*
X29903385Y-35955784D01*
X29905935Y-35966563D01*
X29909052Y-35976470D01*
X29914090Y-35988323D01*
X29920135Y-35998627D01*
X29927187Y-36007382D01*
X29931091Y-36011178D01*
X29940014Y-36017933D01*
X29950783Y-36023787D01*
X29960073Y-36027586D01*
X29970401Y-36030879D01*
X29981768Y-36033666D01*
X29994175Y-36035946D01*
X30007620Y-36037719D01*
X30022104Y-36038985D01*
X30032338Y-36039548D01*
X30043033Y-36039886D01*
X30054190Y-36039999D01*
X30423973Y-36039999D01*
X30434954Y-36039887D01*
X30445486Y-36039552D01*
X30455569Y-36038994D01*
X30469854Y-36037738D01*
X30483130Y-36035980D01*
X30495396Y-36033720D01*
X30506654Y-36030957D01*
X30516903Y-36027692D01*
X30526143Y-36023924D01*
X30536894Y-36018120D01*
X30545850Y-36011422D01*
X30553349Y-36003492D01*
X30559849Y-35993989D01*
X30565348Y-35982914D01*
X30568816Y-35973576D01*
X30571722Y-35963354D01*
X30574066Y-35952247D01*
X30575847Y-35940256D01*
X30577065Y-35927380D01*
X30577721Y-35913620D01*
X30577846Y-35903955D01*
X30577846Y-35586195D01*
X30577722Y-35576261D01*
X30577071Y-35562113D01*
X30575862Y-35548872D01*
X30574094Y-35536536D01*
X30571769Y-35525107D01*
X30568885Y-35514583D01*
X30565443Y-35504965D01*
X30559986Y-35493551D01*
X30553536Y-35483747D01*
X30546095Y-35475553D01*
X30537241Y-35468627D01*
X30526555Y-35462624D01*
X30517339Y-35458727D01*
X30507092Y-35455351D01*
X30495815Y-35452494D01*
X30483507Y-35450156D01*
X30470170Y-35448338D01*
X30455801Y-35447039D01*
X30445650Y-35446462D01*
X30435041Y-35446115D01*
X30423973Y-35446000D01*
X30054190Y-35446000D01*
X30042974Y-35446115D01*
X30032227Y-35446462D01*
X30021947Y-35447039D01*
X30012134Y-35447847D01*
X29998292Y-35449492D01*
X29985501Y-35451657D01*
X29973762Y-35454341D01*
X29963076Y-35457544D01*
X29953441Y-35461267D01*
X29942230Y-35467039D01*
X29932890Y-35473735D01*
X29930847Y-35475553D01*
X29923348Y-35483747D01*
X29916849Y-35493551D01*
X29911350Y-35504965D01*
X29907881Y-35514583D01*
X29904975Y-35525107D01*
X29902632Y-35536536D01*
X29900851Y-35548872D01*
X29899632Y-35562113D01*
X29898976Y-35576261D01*
X29898851Y-35586195D01*
X29898851Y-35643592D01*
X30044664Y-35664841D01*
X30044664Y-35555421D01*
G37*
G36*
X29511970Y-35821157D02*
G01*
X29486569Y-35821157D01*
X29476170Y-35822206D01*
X29466461Y-35826236D01*
X29460679Y-35831904D01*
X29456369Y-35841601D01*
X29454358Y-35851554D01*
X29453374Y-35862266D01*
X29453108Y-35872936D01*
X29453108Y-35987486D01*
X29453311Y-35997294D01*
X29454089Y-36007552D01*
X29455735Y-36017437D01*
X29459020Y-36026848D01*
X29461412Y-36030473D01*
X29469813Y-36035496D01*
X29479695Y-36037906D01*
X29490789Y-36039245D01*
X29501884Y-36039850D01*
X29511970Y-36039999D01*
X29637023Y-36039999D01*
X29647422Y-36038925D01*
X29657131Y-36034804D01*
X29662913Y-36029008D01*
X29667223Y-36019032D01*
X29669235Y-36008950D01*
X29670218Y-35998174D01*
X29670484Y-35987486D01*
X29670484Y-35872936D01*
X29670201Y-35861562D01*
X29669351Y-35851802D01*
X29667336Y-35841299D01*
X29663400Y-35832207D01*
X29662424Y-35830927D01*
X29653919Y-35825775D01*
X29644019Y-35823304D01*
X29632948Y-35821930D01*
X29621899Y-35821310D01*
X29611866Y-35821157D01*
X29511970Y-35821157D01*
G37*
G36*
X47706353Y-37719999D02*
G01*
X47284546Y-37719999D01*
X47271022Y-37719947D01*
X47257809Y-37719792D01*
X47244904Y-37719535D01*
X47232308Y-37719174D01*
X47220022Y-37718711D01*
X47208044Y-37718144D01*
X47196376Y-37717474D01*
X47185017Y-37716701D01*
X47173966Y-37715825D01*
X47163226Y-37714847D01*
X47152794Y-37713765D01*
X47142671Y-37712580D01*
X47132857Y-37711292D01*
X47118717Y-37709166D01*
X47105271Y-37706809D01*
X47096599Y-37705069D01*
X47083926Y-37702230D01*
X47071657Y-37699116D01*
X47059792Y-37695727D01*
X47048330Y-37692063D01*
X47037272Y-37688125D01*
X47026617Y-37683912D01*
X47016366Y-37679424D01*
X47006519Y-37674661D01*
X46997075Y-37669623D01*
X46988035Y-37664311D01*
X46978674Y-37658377D01*
X46969583Y-37652175D01*
X46960761Y-37645707D01*
X46952207Y-37638971D01*
X46943923Y-37631968D01*
X46935908Y-37624698D01*
X46928162Y-37617161D01*
X46920685Y-37609356D01*
X46913477Y-37601285D01*
X46906538Y-37592946D01*
X46899868Y-37584341D01*
X46893467Y-37575468D01*
X46887335Y-37566328D01*
X46881472Y-37556921D01*
X46875879Y-37547246D01*
X46870554Y-37537305D01*
X46865496Y-37527152D01*
X46860765Y-37516842D01*
X46856360Y-37506376D01*
X46852281Y-37495753D01*
X46848529Y-37484974D01*
X46845103Y-37474038D01*
X46842003Y-37462946D01*
X46839230Y-37451698D01*
X46836783Y-37440293D01*
X46834662Y-37428731D01*
X46832867Y-37417013D01*
X46831399Y-37405139D01*
X46830257Y-37393108D01*
X46829441Y-37380921D01*
X46828952Y-37368577D01*
X46828788Y-37356077D01*
X46828859Y-37348994D01*
X47002445Y-37348994D01*
X47002728Y-37364139D01*
X47003578Y-37378738D01*
X47004995Y-37392791D01*
X47006979Y-37406299D01*
X47009529Y-37419261D01*
X47012646Y-37431677D01*
X47016330Y-37443548D01*
X47020580Y-37454873D01*
X47025397Y-37465652D01*
X47030781Y-37475885D01*
X47036732Y-37485573D01*
X47043249Y-37494715D01*
X47050333Y-37503311D01*
X47057984Y-37511362D01*
X47066201Y-37518866D01*
X47074985Y-37525825D01*
X47084418Y-37532303D01*
X47094643Y-37538362D01*
X47105660Y-37544003D01*
X47117468Y-37549227D01*
X47130069Y-37554033D01*
X47143461Y-37558420D01*
X47157645Y-37562390D01*
X47172621Y-37565942D01*
X47188389Y-37569076D01*
X47204949Y-37571793D01*
X47222301Y-37574091D01*
X47240444Y-37575972D01*
X47259380Y-37577434D01*
X47269145Y-37578009D01*
X47279107Y-37578479D01*
X47289268Y-37578845D01*
X47299627Y-37579106D01*
X47310183Y-37579262D01*
X47320938Y-37579315D01*
X47538314Y-37579315D01*
X47538314Y-37126000D01*
X47240338Y-37126000D01*
X47225877Y-37126221D01*
X47211864Y-37126885D01*
X47198300Y-37127992D01*
X47185184Y-37129541D01*
X47172517Y-37131534D01*
X47160298Y-37133968D01*
X47148528Y-37136846D01*
X47137206Y-37140166D01*
X47126332Y-37143929D01*
X47115907Y-37148134D01*
X47105931Y-37152783D01*
X47096402Y-37157874D01*
X47087322Y-37163407D01*
X47078691Y-37169384D01*
X47070508Y-37175803D01*
X47062773Y-37182664D01*
X47055468Y-37189926D01*
X47048634Y-37197605D01*
X47042271Y-37205702D01*
X47036380Y-37214217D01*
X47030959Y-37223150D01*
X47026011Y-37232501D01*
X47021533Y-37242270D01*
X47017527Y-37252457D01*
X47013992Y-37263061D01*
X47010929Y-37274084D01*
X47008336Y-37285524D01*
X47006216Y-37297382D01*
X47004566Y-37309658D01*
X47003388Y-37322352D01*
X47002681Y-37335464D01*
X47002445Y-37348994D01*
X46828859Y-37348994D01*
X46828893Y-37345528D01*
X46829206Y-37335130D01*
X46829729Y-37324883D01*
X46830460Y-37314788D01*
X46831400Y-37304844D01*
X46832549Y-37295051D01*
X46835475Y-37275919D01*
X46839235Y-37257392D01*
X46843832Y-37239470D01*
X46849265Y-37222152D01*
X46855533Y-37205440D01*
X46862637Y-37189332D01*
X46870577Y-37173830D01*
X46879352Y-37158932D01*
X46888964Y-37144639D01*
X46899411Y-37130951D01*
X46910694Y-37117867D01*
X46922812Y-37105389D01*
X46935767Y-37093516D01*
X46949498Y-37082306D01*
X46963946Y-37071820D01*
X46979112Y-37062057D01*
X46994996Y-37053017D01*
X47011596Y-37044700D01*
X47028915Y-37037107D01*
X47046951Y-37030237D01*
X47056238Y-37027073D01*
X47065704Y-37024090D01*
X47075350Y-37021287D01*
X47085175Y-37018666D01*
X47095179Y-37016225D01*
X47105363Y-37013965D01*
X47115726Y-37011886D01*
X47126269Y-37009987D01*
X47136990Y-37008270D01*
X47147892Y-37006733D01*
X47158972Y-37005377D01*
X47170232Y-37004202D01*
X47181672Y-37003208D01*
X47193290Y-37002394D01*
X47205088Y-37001761D01*
X47217066Y-37001309D01*
X47229223Y-37001038D01*
X47241559Y-37000948D01*
X47706353Y-37000948D01*
X47706353Y-37719999D01*
G37*
G36*
X46573066Y-37719999D02*
G01*
X46573066Y-37126000D01*
X45938035Y-37126000D01*
X45938035Y-37235421D01*
X46427497Y-37235421D01*
X46427497Y-37344841D01*
X46142466Y-37344841D01*
X46142466Y-37454262D01*
X46427497Y-37454262D01*
X46427497Y-37610578D01*
X45930463Y-37610578D01*
X45930463Y-37719999D01*
X46573066Y-37719999D01*
G37*
G36*
X45175264Y-37235421D02*
G01*
X45582661Y-37235421D01*
X45582661Y-37360473D01*
X45197002Y-37360473D01*
X45185877Y-37360582D01*
X45175218Y-37360908D01*
X45165025Y-37361452D01*
X45150608Y-37362676D01*
X45137239Y-37364389D01*
X45124917Y-37366591D01*
X45113643Y-37369283D01*
X45103416Y-37372464D01*
X45094237Y-37376135D01*
X45083627Y-37381791D01*
X45074880Y-37388317D01*
X45067496Y-37395995D01*
X45061096Y-37405231D01*
X45055681Y-37416023D01*
X45051250Y-37428373D01*
X45048573Y-37438657D01*
X45046450Y-37449816D01*
X45044881Y-37461852D01*
X45043865Y-37474763D01*
X45043404Y-37488551D01*
X45043373Y-37493341D01*
X45043373Y-37577605D01*
X45043499Y-37587719D01*
X45044160Y-37602121D01*
X45045388Y-37615600D01*
X45047183Y-37628156D01*
X45049544Y-37639789D01*
X45052472Y-37650498D01*
X45055967Y-37660285D01*
X45061508Y-37671898D01*
X45068057Y-37681870D01*
X45075613Y-37690201D01*
X45084509Y-37697185D01*
X45095198Y-37703237D01*
X45104393Y-37707166D01*
X45114596Y-37710570D01*
X45125808Y-37713451D01*
X45138029Y-37715808D01*
X45151259Y-37717641D01*
X45165497Y-37718951D01*
X45175551Y-37719533D01*
X45186052Y-37719882D01*
X45197002Y-37719999D01*
X45581196Y-37719999D01*
X45592414Y-37719882D01*
X45603170Y-37719533D01*
X45613465Y-37718951D01*
X45623297Y-37718136D01*
X45637180Y-37716477D01*
X45650025Y-37714295D01*
X45661830Y-37711589D01*
X45672596Y-37708359D01*
X45682323Y-37704605D01*
X45693677Y-37698785D01*
X45703183Y-37692034D01*
X45705271Y-37690201D01*
X45712885Y-37681870D01*
X45719483Y-37671898D01*
X45725066Y-37660285D01*
X45728588Y-37650498D01*
X45731538Y-37639789D01*
X45733917Y-37628156D01*
X45735725Y-37615600D01*
X45736962Y-37602121D01*
X45737629Y-37587719D01*
X45737756Y-37577605D01*
X45737756Y-37559287D01*
X45609284Y-37532420D01*
X45609284Y-37610578D01*
X45173799Y-37610578D01*
X45173799Y-37469894D01*
X45557260Y-37469894D01*
X45568418Y-37469782D01*
X45579116Y-37469447D01*
X45589354Y-37468889D01*
X45599132Y-37468108D01*
X45612938Y-37466517D01*
X45625708Y-37464424D01*
X45637444Y-37461829D01*
X45648145Y-37458731D01*
X45657812Y-37455131D01*
X45669091Y-37449550D01*
X45678530Y-37443076D01*
X45680603Y-37441317D01*
X45688102Y-37433349D01*
X45694601Y-37423854D01*
X45700100Y-37412833D01*
X45703568Y-37403565D01*
X45706474Y-37393438D01*
X45708818Y-37382453D01*
X45710599Y-37370609D01*
X45711817Y-37357907D01*
X45712474Y-37344345D01*
X45712599Y-37334828D01*
X45712599Y-37268393D01*
X45712474Y-37258397D01*
X45711817Y-37244153D01*
X45710599Y-37230811D01*
X45708818Y-37218370D01*
X45706474Y-37206831D01*
X45703568Y-37196193D01*
X45700100Y-37186458D01*
X45694601Y-37174879D01*
X45688102Y-37164903D01*
X45680603Y-37156530D01*
X45671623Y-37149375D01*
X45660804Y-37143173D01*
X45651482Y-37139148D01*
X45641126Y-37135660D01*
X45629735Y-37132708D01*
X45617309Y-37130293D01*
X45603849Y-37128415D01*
X45589354Y-37127073D01*
X45579116Y-37126477D01*
X45568418Y-37126119D01*
X45557260Y-37126000D01*
X45206039Y-37126000D01*
X45195056Y-37126113D01*
X45184515Y-37126454D01*
X45174417Y-37127022D01*
X45160100Y-37128299D01*
X45146779Y-37130087D01*
X45134455Y-37132386D01*
X45123126Y-37135196D01*
X45112793Y-37138517D01*
X45103457Y-37142349D01*
X45092558Y-37148253D01*
X45083429Y-37155065D01*
X45075644Y-37163026D01*
X45068897Y-37172376D01*
X45063187Y-37183115D01*
X45058516Y-37195243D01*
X45055694Y-37205250D01*
X45053456Y-37216040D01*
X45051801Y-37227610D01*
X45050731Y-37239962D01*
X45050244Y-37253095D01*
X45050212Y-37257647D01*
X45050212Y-37271813D01*
X45175264Y-37297947D01*
X45175264Y-37235421D01*
G37*
G36*
X44794001Y-37719999D02*
G01*
X44794001Y-37126000D01*
X44650386Y-37126000D01*
X44650386Y-37719999D01*
X44794001Y-37719999D01*
G37*
G36*
X43806283Y-37235421D02*
G01*
X44256667Y-37235421D01*
X44256667Y-37610578D01*
X43806283Y-37610578D01*
X43806283Y-37485525D01*
X44041245Y-37485525D01*
X44041245Y-37376105D01*
X43664622Y-37376105D01*
X43664622Y-37583955D01*
X43664901Y-37598305D01*
X43665739Y-37611770D01*
X43667134Y-37624351D01*
X43669087Y-37636048D01*
X43671599Y-37646860D01*
X43674669Y-37656787D01*
X43679630Y-37668648D01*
X43685583Y-37678937D01*
X43692529Y-37687653D01*
X43696374Y-37691422D01*
X43705228Y-37698120D01*
X43715913Y-37703924D01*
X43725130Y-37707692D01*
X43735376Y-37710957D01*
X43746654Y-37713720D01*
X43758961Y-37715980D01*
X43772299Y-37717738D01*
X43786667Y-37718994D01*
X43796819Y-37719552D01*
X43807428Y-37719887D01*
X43818495Y-37719999D01*
X44247141Y-37719999D01*
X44258209Y-37719887D01*
X44268818Y-37719552D01*
X44278969Y-37718994D01*
X44293338Y-37717738D01*
X44306676Y-37715980D01*
X44318983Y-37713720D01*
X44330260Y-37710957D01*
X44340507Y-37707692D01*
X44349723Y-37703924D01*
X44360409Y-37698120D01*
X44369263Y-37691422D01*
X44376705Y-37683492D01*
X44383154Y-37673989D01*
X44388611Y-37662914D01*
X44392053Y-37653576D01*
X44394937Y-37643354D01*
X44397263Y-37632247D01*
X44399030Y-37620256D01*
X44400239Y-37607380D01*
X44400890Y-37593620D01*
X44401014Y-37583955D01*
X44401014Y-37265707D01*
X44400890Y-37255803D01*
X44400239Y-37241701D01*
X44399030Y-37228506D01*
X44397263Y-37216216D01*
X44394937Y-37204832D01*
X44392053Y-37194354D01*
X44388611Y-37184782D01*
X44383154Y-37173429D01*
X44376705Y-37163686D01*
X44369263Y-37155553D01*
X44360409Y-37148627D01*
X44349723Y-37142624D01*
X44340507Y-37138727D01*
X44330260Y-37135351D01*
X44318983Y-37132494D01*
X44306676Y-37130156D01*
X44293338Y-37128338D01*
X44278969Y-37127039D01*
X44268818Y-37126462D01*
X44258209Y-37126115D01*
X44247141Y-37126000D01*
X43818495Y-37126000D01*
X43807516Y-37126112D01*
X43796987Y-37126450D01*
X43786908Y-37127013D01*
X43772634Y-37128280D01*
X43759373Y-37130053D01*
X43747126Y-37132333D01*
X43735892Y-37135119D01*
X43725671Y-37138412D01*
X43716463Y-37142212D01*
X43705762Y-37148066D01*
X43696862Y-37154821D01*
X43689306Y-37162751D01*
X43682757Y-37172131D01*
X43677216Y-37182962D01*
X43672682Y-37195243D01*
X43669943Y-37205405D01*
X43667771Y-37216383D01*
X43666165Y-37228177D01*
X43665126Y-37240786D01*
X43664654Y-37254212D01*
X43664622Y-37258868D01*
X43664622Y-37274500D01*
X43806283Y-37297947D01*
X43806283Y-37235421D01*
G37*
G36*
X43418425Y-37719999D02*
G01*
X43418425Y-37126000D01*
X43319263Y-37126000D01*
X42816855Y-37520452D01*
X42816855Y-37126000D01*
X42686185Y-37126000D01*
X42686185Y-37719999D01*
X42786081Y-37719999D01*
X43287023Y-37319440D01*
X43287023Y-37719999D01*
X43418425Y-37719999D01*
G37*
G36*
X42421915Y-37719999D02*
G01*
X42421915Y-37126000D01*
X41786883Y-37126000D01*
X41786883Y-37235421D01*
X42276346Y-37235421D01*
X42276346Y-37344841D01*
X41991315Y-37344841D01*
X41991315Y-37454262D01*
X42276346Y-37454262D01*
X42276346Y-37610578D01*
X41779312Y-37610578D01*
X41779312Y-37719999D01*
X42421915Y-37719999D01*
G37*
G36*
X41570973Y-37719999D02*
G01*
X41208516Y-37719999D01*
X41196310Y-37719926D01*
X41184298Y-37719707D01*
X41172481Y-37719342D01*
X41160858Y-37718831D01*
X41149430Y-37718174D01*
X41138197Y-37717371D01*
X41127159Y-37716422D01*
X41116315Y-37715327D01*
X41105665Y-37714087D01*
X41095210Y-37712700D01*
X41084950Y-37711167D01*
X41074885Y-37709488D01*
X41065014Y-37707664D01*
X41055338Y-37705693D01*
X41036569Y-37701314D01*
X41018579Y-37696351D01*
X41001368Y-37690804D01*
X40984935Y-37684673D01*
X40969280Y-37677958D01*
X40954404Y-37670660D01*
X40940307Y-37662777D01*
X40926988Y-37654311D01*
X40914448Y-37645260D01*
X40902647Y-37635626D01*
X40891607Y-37625408D01*
X40881329Y-37614606D01*
X40871812Y-37603220D01*
X40863057Y-37591250D01*
X40855062Y-37578696D01*
X40847830Y-37565559D01*
X40841358Y-37551837D01*
X40835648Y-37537532D01*
X40830699Y-37522643D01*
X40826512Y-37507169D01*
X40823086Y-37491112D01*
X40820421Y-37474471D01*
X40818518Y-37457247D01*
X40817376Y-37439438D01*
X40816995Y-37421045D01*
X40817090Y-37416405D01*
X40965250Y-37416405D01*
X40965310Y-37422925D01*
X40965785Y-37435608D01*
X40966735Y-37447816D01*
X40968160Y-37459550D01*
X40970061Y-37470808D01*
X40972437Y-37481591D01*
X40975287Y-37491898D01*
X40978613Y-37501731D01*
X40982414Y-37511089D01*
X40989007Y-37524234D01*
X40996668Y-37536310D01*
X41005399Y-37547318D01*
X41015198Y-37557256D01*
X41026067Y-37566126D01*
X41034027Y-37571508D01*
X41042702Y-37576544D01*
X41052093Y-37581232D01*
X41062199Y-37585573D01*
X41073022Y-37589567D01*
X41084559Y-37593214D01*
X41096812Y-37596513D01*
X41109781Y-37599465D01*
X41123465Y-37602069D01*
X41137865Y-37604327D01*
X41152981Y-37606237D01*
X41168811Y-37607799D01*
X41185358Y-37609015D01*
X41202620Y-37609883D01*
X41220598Y-37610404D01*
X41239291Y-37610578D01*
X41425404Y-37610578D01*
X41425404Y-37235421D01*
X41171147Y-37235421D01*
X41164651Y-37235465D01*
X41151977Y-37235816D01*
X41139727Y-37236518D01*
X41127900Y-37237571D01*
X41116497Y-37238976D01*
X41105518Y-37240731D01*
X41094962Y-37242838D01*
X41084830Y-37245295D01*
X41075121Y-37248104D01*
X41061352Y-37252976D01*
X41048537Y-37258637D01*
X41036674Y-37265089D01*
X41025765Y-37272330D01*
X41015809Y-37280361D01*
X41012698Y-37283200D01*
X41003959Y-37292264D01*
X40996109Y-37302148D01*
X40989147Y-37312852D01*
X40983074Y-37324376D01*
X40977890Y-37336720D01*
X40973594Y-37349884D01*
X40970188Y-37363869D01*
X40968410Y-37373647D01*
X40967028Y-37383790D01*
X40966040Y-37394297D01*
X40965448Y-37405169D01*
X40965250Y-37416405D01*
X40817090Y-37416405D01*
X40817355Y-37403533D01*
X40818434Y-37386535D01*
X40820232Y-37370049D01*
X40822750Y-37354077D01*
X40825987Y-37338618D01*
X40829944Y-37323673D01*
X40834620Y-37309240D01*
X40840015Y-37295321D01*
X40846129Y-37281916D01*
X40852963Y-37269023D01*
X40860517Y-37256644D01*
X40868790Y-37244778D01*
X40877782Y-37233426D01*
X40887493Y-37222586D01*
X40897924Y-37212261D01*
X40909074Y-37202448D01*
X40920865Y-37193191D01*
X40933277Y-37184530D01*
X40946312Y-37176468D01*
X40959969Y-37169002D01*
X40974247Y-37162134D01*
X40989148Y-37155862D01*
X41004671Y-37150189D01*
X41020816Y-37145112D01*
X41037582Y-37140633D01*
X41054971Y-37136750D01*
X41072982Y-37133466D01*
X41091615Y-37130778D01*
X41110871Y-37128688D01*
X41120731Y-37127866D01*
X41130748Y-37127194D01*
X41140920Y-37126672D01*
X41151247Y-37126299D01*
X41161730Y-37126075D01*
X41172368Y-37126000D01*
X41570973Y-37126000D01*
X41570973Y-37719999D01*
G37*
G36*
X40058621Y-37719999D02*
G01*
X40058621Y-37126000D01*
X39915006Y-37126000D01*
X39915006Y-37719999D01*
X40058621Y-37719999D01*
G37*
G36*
X39651224Y-37719999D02*
G01*
X39651224Y-37126000D01*
X39552061Y-37126000D01*
X39049654Y-37520452D01*
X39049654Y-37126000D01*
X38918984Y-37126000D01*
X38918984Y-37719999D01*
X39018879Y-37719999D01*
X39519821Y-37319440D01*
X39519821Y-37719999D01*
X39651224Y-37719999D01*
G37*
G36*
X38198956Y-37719999D02*
G01*
X38031405Y-37719999D01*
X37947386Y-37563683D01*
X37489186Y-37563683D01*
X37402480Y-37719999D01*
X37213924Y-37719999D01*
X37376016Y-37438631D01*
X37559040Y-37438631D01*
X37875578Y-37438631D01*
X37714867Y-37142364D01*
X37559040Y-37438631D01*
X37376016Y-37438631D01*
X37628160Y-37000948D01*
X37790093Y-37000948D01*
X38198956Y-37719999D01*
G37*
G36*
X36488035Y-37235421D02*
G01*
X36895432Y-37235421D01*
X36895432Y-37360473D01*
X36509772Y-37360473D01*
X36498648Y-37360582D01*
X36487989Y-37360908D01*
X36477796Y-37361452D01*
X36463379Y-37362676D01*
X36450009Y-37364389D01*
X36437687Y-37366591D01*
X36426413Y-37369283D01*
X36416186Y-37372464D01*
X36407007Y-37376135D01*
X36396398Y-37381791D01*
X36387651Y-37388317D01*
X36380266Y-37395995D01*
X36373866Y-37405231D01*
X36368451Y-37416023D01*
X36364020Y-37428373D01*
X36361343Y-37438657D01*
X36359220Y-37449816D01*
X36357651Y-37461852D01*
X36356636Y-37474763D01*
X36356174Y-37488551D01*
X36356144Y-37493341D01*
X36356144Y-37577605D01*
X36356269Y-37587719D01*
X36356931Y-37602121D01*
X36358159Y-37615600D01*
X36359953Y-37628156D01*
X36362315Y-37639789D01*
X36365243Y-37650498D01*
X36368737Y-37660285D01*
X36374279Y-37671898D01*
X36380827Y-37681870D01*
X36388384Y-37690201D01*
X36397279Y-37697185D01*
X36407969Y-37703237D01*
X36417163Y-37707166D01*
X36427366Y-37710570D01*
X36438578Y-37713451D01*
X36450799Y-37715808D01*
X36464029Y-37717641D01*
X36478268Y-37718951D01*
X36488321Y-37719533D01*
X36498822Y-37719882D01*
X36509772Y-37719999D01*
X36893966Y-37719999D01*
X36905184Y-37719882D01*
X36915941Y-37719533D01*
X36926235Y-37718951D01*
X36936068Y-37718136D01*
X36949951Y-37716477D01*
X36962795Y-37714295D01*
X36974600Y-37711589D01*
X36985367Y-37708359D01*
X36995094Y-37704605D01*
X37006447Y-37698785D01*
X37015954Y-37692034D01*
X37018042Y-37690201D01*
X37025655Y-37681870D01*
X37032254Y-37671898D01*
X37037837Y-37660285D01*
X37041358Y-37650498D01*
X37044308Y-37639789D01*
X37046687Y-37628156D01*
X37048496Y-37615600D01*
X37049733Y-37602121D01*
X37050399Y-37587719D01*
X37050526Y-37577605D01*
X37050526Y-37559287D01*
X36922054Y-37532420D01*
X36922054Y-37610578D01*
X36486569Y-37610578D01*
X36486569Y-37469894D01*
X36870031Y-37469894D01*
X36881188Y-37469782D01*
X36891886Y-37469447D01*
X36902125Y-37468889D01*
X36911903Y-37468108D01*
X36925708Y-37466517D01*
X36938479Y-37464424D01*
X36950214Y-37461829D01*
X36960916Y-37458731D01*
X36970582Y-37455131D01*
X36981861Y-37449550D01*
X36991301Y-37443076D01*
X36993373Y-37441317D01*
X37000872Y-37433349D01*
X37007371Y-37423854D01*
X37012871Y-37412833D01*
X37016339Y-37403565D01*
X37019245Y-37393438D01*
X37021588Y-37382453D01*
X37023369Y-37370609D01*
X37024588Y-37357907D01*
X37025244Y-37344345D01*
X37025369Y-37334828D01*
X37025369Y-37268393D01*
X37025244Y-37258397D01*
X37024588Y-37244153D01*
X37023369Y-37230811D01*
X37021588Y-37218370D01*
X37019245Y-37206831D01*
X37016339Y-37196193D01*
X37012871Y-37186458D01*
X37007371Y-37174879D01*
X37000872Y-37164903D01*
X36993373Y-37156530D01*
X36984393Y-37149375D01*
X36973574Y-37143173D01*
X36964253Y-37139148D01*
X36953896Y-37135660D01*
X36942506Y-37132708D01*
X36930080Y-37130293D01*
X36916620Y-37128415D01*
X36902125Y-37127073D01*
X36891886Y-37126477D01*
X36881188Y-37126119D01*
X36870031Y-37126000D01*
X36518809Y-37126000D01*
X36507826Y-37126113D01*
X36497285Y-37126454D01*
X36487187Y-37127022D01*
X36472871Y-37128299D01*
X36459550Y-37130087D01*
X36447225Y-37132386D01*
X36435896Y-37135196D01*
X36425564Y-37138517D01*
X36416227Y-37142349D01*
X36405328Y-37148253D01*
X36396199Y-37155065D01*
X36388414Y-37163026D01*
X36381667Y-37172376D01*
X36375958Y-37183115D01*
X36371287Y-37195243D01*
X36368464Y-37205250D01*
X36366226Y-37216040D01*
X36364572Y-37227610D01*
X36363501Y-37239962D01*
X36363015Y-37253095D01*
X36362982Y-37257647D01*
X36362982Y-37271813D01*
X36488035Y-37297947D01*
X36488035Y-37235421D01*
G37*
G36*
X36106772Y-37719999D02*
G01*
X36106772Y-37126000D01*
X35961203Y-37126000D01*
X35961203Y-37360473D01*
X35510575Y-37360473D01*
X35510575Y-37126000D01*
X35366472Y-37126000D01*
X35366472Y-37719999D01*
X35510575Y-37719999D01*
X35510575Y-37469894D01*
X35961203Y-37469894D01*
X35961203Y-37719999D01*
X36106772Y-37719999D01*
G37*
G36*
X35102445Y-37719999D02*
G01*
X35102445Y-37126000D01*
X34467414Y-37126000D01*
X34467414Y-37235421D01*
X34956876Y-37235421D01*
X34956876Y-37344841D01*
X34671845Y-37344841D01*
X34671845Y-37454262D01*
X34956876Y-37454262D01*
X34956876Y-37610578D01*
X34459842Y-37610578D01*
X34459842Y-37719999D01*
X35102445Y-37719999D01*
G37*
G36*
X33974532Y-37719999D02*
G01*
X34332836Y-37126000D01*
X34169437Y-37126000D01*
X33918600Y-37556844D01*
X33681929Y-37126000D01*
X33532208Y-37126000D01*
X33875369Y-37719999D01*
X33974532Y-37719999D01*
G37*
G36*
X33367344Y-37719999D02*
G01*
X33367344Y-37126000D01*
X33223729Y-37126000D01*
X33223729Y-37719999D01*
X33367344Y-37719999D01*
G37*
G36*
X32959947Y-37719999D02*
G01*
X32959947Y-37126000D01*
X32814378Y-37126000D01*
X32814378Y-37610578D01*
X32350072Y-37610578D01*
X32350072Y-37719999D01*
X32959947Y-37719999D01*
G37*
G36*
X32188139Y-37719999D02*
G01*
X32188139Y-37126000D01*
X32042571Y-37126000D01*
X32042571Y-37610578D01*
X31578265Y-37610578D01*
X31578265Y-37719999D01*
X32188139Y-37719999D01*
G37*
G36*
X31416332Y-37719999D02*
G01*
X31416332Y-37126000D01*
X30781301Y-37126000D01*
X30781301Y-37235421D01*
X31270763Y-37235421D01*
X31270763Y-37344841D01*
X30985732Y-37344841D01*
X30985732Y-37454262D01*
X31270763Y-37454262D01*
X31270763Y-37610578D01*
X30773729Y-37610578D01*
X30773729Y-37719999D01*
X31416332Y-37719999D01*
G37*
G36*
X30415669Y-37501157D02*
G01*
X30392466Y-37501157D01*
X30382658Y-37502007D01*
X30373136Y-37505355D01*
X30365843Y-37511904D01*
X30361533Y-37521601D01*
X30359522Y-37531554D01*
X30358538Y-37542266D01*
X30358272Y-37552936D01*
X30358272Y-37698505D01*
X30497002Y-37907577D01*
X30579800Y-37907577D01*
X30460854Y-37693132D01*
X30540721Y-37693132D01*
X30551121Y-37692058D01*
X30560829Y-37687937D01*
X30566611Y-37682141D01*
X30570922Y-37672166D01*
X30572933Y-37662083D01*
X30573916Y-37651307D01*
X30574183Y-37640620D01*
X30574183Y-37552936D01*
X30573992Y-37543140D01*
X30573259Y-37532928D01*
X30571710Y-37523141D01*
X30568199Y-37513132D01*
X30566367Y-37510438D01*
X30556982Y-37505154D01*
X30546832Y-37502933D01*
X30535546Y-37501737D01*
X30524318Y-37501238D01*
X30516786Y-37501157D01*
X30415669Y-37501157D01*
G37*
G36*
X29509772Y-37719999D02*
G01*
X29509772Y-37000948D01*
X29394978Y-37000948D01*
X28886220Y-37424709D01*
X28878279Y-37431290D01*
X28870636Y-37437751D01*
X28861857Y-37445347D01*
X28853508Y-37452772D01*
X28845588Y-37460025D01*
X28840547Y-37464765D01*
X28833248Y-37471769D01*
X28826190Y-37478858D01*
X28819372Y-37486034D01*
X28812795Y-37493295D01*
X28805425Y-37501876D01*
X28804399Y-37503111D01*
X28805154Y-37492065D01*
X28805862Y-37481641D01*
X28806522Y-37471840D01*
X28807329Y-37459741D01*
X28808052Y-37448748D01*
X28808692Y-37438862D01*
X28809373Y-37428061D01*
X28810017Y-37417382D01*
X28810492Y-37406925D01*
X28810893Y-37396319D01*
X28811161Y-37386103D01*
X28811238Y-37378547D01*
X28811238Y-37000948D01*
X28660051Y-37000948D01*
X28660051Y-37719999D01*
X28774846Y-37719999D01*
X29305341Y-37275721D01*
X29313454Y-37268500D01*
X29321122Y-37261582D01*
X29328347Y-37254969D01*
X29336060Y-37247783D01*
X29338802Y-37245190D01*
X29345870Y-37238321D01*
X29353493Y-37230520D01*
X29360768Y-37222642D01*
X29365425Y-37217347D01*
X29364398Y-37227644D01*
X29363455Y-37237773D01*
X29362595Y-37247736D01*
X29361818Y-37257532D01*
X29360997Y-37269067D01*
X29360296Y-37280361D01*
X29359715Y-37291169D01*
X29359254Y-37301427D01*
X29358868Y-37312701D01*
X29358646Y-37323226D01*
X29358586Y-37331652D01*
X29358586Y-37719999D01*
X29509772Y-37719999D01*
G37*
G36*
X27685767Y-37126000D02*
G01*
X28138837Y-37126000D01*
X28138837Y-37579315D01*
X27685767Y-37579315D01*
X27685767Y-37422999D01*
X27517483Y-37458170D01*
X27517483Y-37544144D01*
X27517629Y-37556651D01*
X27518067Y-37568648D01*
X27518797Y-37580136D01*
X27519819Y-37591115D01*
X27521133Y-37601584D01*
X27522738Y-37611543D01*
X27525694Y-37625527D01*
X27529307Y-37638365D01*
X27533577Y-37650057D01*
X27538504Y-37660602D01*
X27544087Y-37670001D01*
X27550327Y-37678253D01*
X27554853Y-37683118D01*
X27562408Y-37689709D01*
X27571153Y-37695651D01*
X27581087Y-37700946D01*
X27592210Y-37705592D01*
X27604523Y-37709590D01*
X27618025Y-37712939D01*
X27627687Y-37714812D01*
X27637877Y-37716397D01*
X27648596Y-37717693D01*
X27659844Y-37718702D01*
X27671620Y-37719422D01*
X27683924Y-37719854D01*
X27696758Y-37719999D01*
X28128091Y-37719999D01*
X28140982Y-37719854D01*
X28153339Y-37719422D01*
X28165162Y-37718702D01*
X28176451Y-37717693D01*
X28187205Y-37716397D01*
X28197425Y-37714812D01*
X28207111Y-37712939D01*
X28220638Y-37709590D01*
X28232962Y-37705592D01*
X28244085Y-37700946D01*
X28254005Y-37695651D01*
X28262724Y-37689709D01*
X28270240Y-37683118D01*
X28276831Y-37675630D01*
X28282774Y-37666995D01*
X28288068Y-37657214D01*
X28292714Y-37646287D01*
X28296712Y-37634213D01*
X28300061Y-37620993D01*
X28302763Y-37606627D01*
X28304203Y-37596413D01*
X28305356Y-37585689D01*
X28306220Y-37574456D01*
X28306796Y-37562713D01*
X28307085Y-37550461D01*
X28307121Y-37544144D01*
X28307121Y-37168987D01*
X28306976Y-37157135D01*
X28306544Y-37145761D01*
X28305824Y-37134863D01*
X28304815Y-37124443D01*
X28303519Y-37114499D01*
X28301034Y-37100479D01*
X28297900Y-37087532D01*
X28294119Y-37075658D01*
X28289689Y-37064857D01*
X28284610Y-37055130D01*
X28278884Y-37046476D01*
X28272509Y-37038895D01*
X28270240Y-37036607D01*
X28262724Y-37030234D01*
X28254005Y-37024488D01*
X28244085Y-37019369D01*
X28232962Y-37014877D01*
X28220638Y-37011012D01*
X28207111Y-37007773D01*
X28197425Y-37005962D01*
X28187205Y-37004430D01*
X28176451Y-37003176D01*
X28165162Y-37002201D01*
X28153339Y-37001505D01*
X28140982Y-37001087D01*
X28128091Y-37000948D01*
X27696758Y-37000948D01*
X27683924Y-37001087D01*
X27671620Y-37001505D01*
X27659844Y-37002201D01*
X27648596Y-37003176D01*
X27637877Y-37004430D01*
X27627687Y-37005962D01*
X27618025Y-37007773D01*
X27604523Y-37011012D01*
X27592210Y-37014877D01*
X27581087Y-37019369D01*
X27571153Y-37024488D01*
X27562408Y-37030234D01*
X27554853Y-37036607D01*
X27548174Y-37043830D01*
X27542153Y-37052126D01*
X27536788Y-37061495D01*
X27532081Y-37071938D01*
X27528030Y-37083454D01*
X27524636Y-37096044D01*
X27521899Y-37109707D01*
X27520439Y-37119412D01*
X27519272Y-37129593D01*
X27518396Y-37140252D01*
X27517812Y-37151388D01*
X27517520Y-37163001D01*
X27517483Y-37168987D01*
X27517483Y-37239329D01*
X27685767Y-37266684D01*
X27685767Y-37126000D01*
G37*
G36*
X47759109Y-39399999D02*
G01*
X47266960Y-39399999D01*
X47261235Y-39399969D01*
X47250059Y-39399737D01*
X47239248Y-39399271D01*
X47228801Y-39398573D01*
X47218718Y-39397641D01*
X47209000Y-39396477D01*
X47195106Y-39394295D01*
X47182032Y-39391589D01*
X47169778Y-39388359D01*
X47158344Y-39384605D01*
X47147730Y-39380327D01*
X47137937Y-39375526D01*
X47128963Y-39370201D01*
X47126138Y-39368309D01*
X47118201Y-39362282D01*
X47108874Y-39353424D01*
X47100982Y-39343628D01*
X47094525Y-39332893D01*
X47089502Y-39321219D01*
X47086677Y-39311847D01*
X47084659Y-39301947D01*
X47083449Y-39291520D01*
X47083045Y-39280564D01*
X47083045Y-39202162D01*
X47083480Y-39190331D01*
X47083580Y-39189461D01*
X47223241Y-39189461D01*
X47223241Y-39236112D01*
X47223298Y-39239855D01*
X47224156Y-39250217D01*
X47226461Y-39260655D01*
X47230811Y-39270410D01*
X47237895Y-39278610D01*
X47243119Y-39282058D01*
X47252595Y-39285903D01*
X47262728Y-39288287D01*
X47272588Y-39289631D01*
X47283736Y-39290391D01*
X47293582Y-39290578D01*
X47616960Y-39290578D01*
X47616960Y-39134262D01*
X47293582Y-39134262D01*
X47291044Y-39134274D01*
X47279123Y-39134700D01*
X47268489Y-39135734D01*
X47257430Y-39137778D01*
X47246871Y-39141269D01*
X47237895Y-39146719D01*
X47234460Y-39150058D01*
X47228965Y-39158454D01*
X47225659Y-39167678D01*
X47223756Y-39178656D01*
X47223241Y-39189461D01*
X47083580Y-39189461D01*
X47084785Y-39179020D01*
X47086961Y-39168227D01*
X47090006Y-39157954D01*
X47093922Y-39148199D01*
X47098707Y-39138964D01*
X47104363Y-39130248D01*
X47110889Y-39122050D01*
X47118136Y-39114471D01*
X47126078Y-39107609D01*
X47134714Y-39101465D01*
X47144045Y-39096038D01*
X47154070Y-39091329D01*
X47164790Y-39087337D01*
X47176205Y-39084063D01*
X47188314Y-39081506D01*
X47182268Y-39080374D01*
X47170720Y-39077733D01*
X47159897Y-39074589D01*
X47149799Y-39070940D01*
X47140426Y-39066788D01*
X47131778Y-39062132D01*
X47121988Y-39055604D01*
X47113331Y-39048289D01*
X47110167Y-39045152D01*
X47103148Y-39036842D01*
X47097406Y-39027864D01*
X47092940Y-39018218D01*
X47089749Y-39007905D01*
X47087835Y-38996923D01*
X47087197Y-38985274D01*
X47087197Y-38947905D01*
X47228614Y-38947905D01*
X47228614Y-38991869D01*
X47229950Y-39002139D01*
X47234504Y-39011068D01*
X47242291Y-39017514D01*
X47251879Y-39021056D01*
X47261953Y-39023010D01*
X47272412Y-39024126D01*
X47282413Y-39024663D01*
X47293582Y-39024841D01*
X47616960Y-39024841D01*
X47616960Y-38915421D01*
X47293582Y-38915421D01*
X47282214Y-38915600D01*
X47272073Y-38916136D01*
X47261526Y-38917253D01*
X47251456Y-38919206D01*
X47242047Y-38922748D01*
X47234399Y-38928916D01*
X47229926Y-38937682D01*
X47228614Y-38947905D01*
X47087197Y-38947905D01*
X47087197Y-38929831D01*
X47087485Y-38917834D01*
X47088348Y-38906481D01*
X47089786Y-38895772D01*
X47091800Y-38885707D01*
X47095379Y-38873289D01*
X47099982Y-38862015D01*
X47105607Y-38851887D01*
X47112255Y-38842903D01*
X47119926Y-38835065D01*
X47126430Y-38829871D01*
X47136243Y-38823740D01*
X47147362Y-38818517D01*
X47156557Y-38815196D01*
X47166487Y-38812386D01*
X47177151Y-38810087D01*
X47188549Y-38808299D01*
X47200681Y-38807022D01*
X47213548Y-38806255D01*
X47227148Y-38806000D01*
X47759109Y-38806000D01*
X47759109Y-39399999D01*
G37*
G36*
X46654399Y-39399999D02*
G01*
X46654399Y-39133285D01*
X46977532Y-38806000D01*
X46782871Y-38806000D01*
X46571601Y-39027528D01*
X46357644Y-38806000D01*
X46188139Y-38806000D01*
X46510051Y-39130354D01*
X46510051Y-39399999D01*
X46654399Y-39399999D01*
G37*
G36*
X45494001Y-39399999D02*
G01*
X45494001Y-38680948D01*
X45357958Y-38680948D01*
X45017483Y-39110571D01*
X44684580Y-38680948D01*
X44550003Y-38680948D01*
X44550003Y-39399999D01*
X44705830Y-39399999D01*
X44705830Y-38952546D01*
X44705589Y-38942058D01*
X44705021Y-38931850D01*
X44704225Y-38921520D01*
X44704120Y-38920306D01*
X44703204Y-38910246D01*
X44702166Y-38899606D01*
X44701157Y-38889820D01*
X44700055Y-38879590D01*
X44699723Y-38876586D01*
X44704732Y-38886592D01*
X44709501Y-38895912D01*
X44714760Y-38905916D01*
X44719692Y-38914986D01*
X44723659Y-38922015D01*
X44728651Y-38930533D01*
X44733938Y-38939167D01*
X44739405Y-38947582D01*
X44741977Y-38951324D01*
X45013331Y-39306209D01*
X45046793Y-39306209D01*
X45318879Y-38949859D01*
X45325294Y-38941118D01*
X45331288Y-38932635D01*
X45336861Y-38924409D01*
X45342715Y-38915322D01*
X45344769Y-38912001D01*
X45349791Y-38903147D01*
X45354355Y-38894416D01*
X45358943Y-38884739D01*
X45362110Y-38877319D01*
X45361194Y-38888172D01*
X45360400Y-38898507D01*
X45359729Y-38908322D01*
X45359179Y-38917619D01*
X45358589Y-38927689D01*
X45358192Y-38937566D01*
X45357977Y-38948313D01*
X45357958Y-38952546D01*
X45357958Y-39399999D01*
X45494001Y-39399999D01*
G37*
G36*
X44339954Y-39399999D02*
G01*
X44195850Y-39399999D01*
X44121356Y-39274946D01*
X43729591Y-39274946D01*
X43655097Y-39399999D01*
X43493164Y-39399999D01*
X43634022Y-39165525D01*
X43788453Y-39165525D01*
X44059807Y-39165525D01*
X43926451Y-38914932D01*
X43788453Y-39165525D01*
X43634022Y-39165525D01*
X43850003Y-38806000D01*
X43988733Y-38806000D01*
X44339954Y-39399999D01*
G37*
G36*
X43346130Y-39399999D02*
G01*
X42983673Y-39399999D01*
X42971467Y-39399926D01*
X42959455Y-39399707D01*
X42947638Y-39399342D01*
X42936015Y-39398831D01*
X42924587Y-39398174D01*
X42913354Y-39397371D01*
X42902316Y-39396422D01*
X42891472Y-39395327D01*
X42880822Y-39394087D01*
X42870367Y-39392700D01*
X42860107Y-39391167D01*
X42850042Y-39389488D01*
X42840171Y-39387664D01*
X42830495Y-39385693D01*
X42811726Y-39381314D01*
X42793736Y-39376351D01*
X42776525Y-39370804D01*
X42760092Y-39364673D01*
X42744437Y-39357958D01*
X42729561Y-39350660D01*
X42715464Y-39342777D01*
X42702145Y-39334311D01*
X42689605Y-39325260D01*
X42677804Y-39315626D01*
X42666764Y-39305408D01*
X42656486Y-39294606D01*
X42646969Y-39283220D01*
X42638214Y-39271250D01*
X42630219Y-39258696D01*
X42622987Y-39245559D01*
X42616515Y-39231837D01*
X42610805Y-39217532D01*
X42605856Y-39202643D01*
X42601669Y-39187169D01*
X42598243Y-39171112D01*
X42595578Y-39154471D01*
X42593675Y-39137247D01*
X42592533Y-39119438D01*
X42592152Y-39101045D01*
X42592247Y-39096405D01*
X42740407Y-39096405D01*
X42740467Y-39102925D01*
X42740942Y-39115608D01*
X42741892Y-39127816D01*
X42743318Y-39139550D01*
X42745218Y-39150808D01*
X42747594Y-39161591D01*
X42750444Y-39171898D01*
X42753770Y-39181731D01*
X42757571Y-39191089D01*
X42764164Y-39204234D01*
X42771825Y-39216310D01*
X42780556Y-39227318D01*
X42790355Y-39237256D01*
X42801224Y-39246126D01*
X42809184Y-39251508D01*
X42817859Y-39256544D01*
X42827250Y-39261232D01*
X42837356Y-39265573D01*
X42848179Y-39269567D01*
X42859716Y-39273214D01*
X42871969Y-39276513D01*
X42884938Y-39279465D01*
X42898622Y-39282069D01*
X42913022Y-39284327D01*
X42928138Y-39286237D01*
X42943968Y-39287799D01*
X42960515Y-39289015D01*
X42977777Y-39289883D01*
X42995755Y-39290404D01*
X43014448Y-39290578D01*
X43200561Y-39290578D01*
X43200561Y-38915421D01*
X42946304Y-38915421D01*
X42939808Y-38915465D01*
X42927134Y-38915816D01*
X42914884Y-38916518D01*
X42903057Y-38917571D01*
X42891654Y-38918976D01*
X42880675Y-38920731D01*
X42870119Y-38922838D01*
X42859987Y-38925295D01*
X42850278Y-38928104D01*
X42836509Y-38932976D01*
X42823694Y-38938637D01*
X42811831Y-38945089D01*
X42800922Y-38952330D01*
X42790966Y-38960361D01*
X42787855Y-38963200D01*
X42779116Y-38972264D01*
X42771266Y-38982148D01*
X42764304Y-38992852D01*
X42758231Y-39004376D01*
X42753047Y-39016720D01*
X42748751Y-39029884D01*
X42745345Y-39043869D01*
X42743567Y-39053647D01*
X42742185Y-39063790D01*
X42741197Y-39074297D01*
X42740605Y-39085169D01*
X42740407Y-39096405D01*
X42592247Y-39096405D01*
X42592512Y-39083533D01*
X42593591Y-39066535D01*
X42595389Y-39050049D01*
X42597907Y-39034077D01*
X42601144Y-39018618D01*
X42605101Y-39003673D01*
X42609777Y-38989240D01*
X42615172Y-38975321D01*
X42621286Y-38961916D01*
X42628121Y-38949023D01*
X42635674Y-38936644D01*
X42643947Y-38924778D01*
X42652939Y-38913426D01*
X42662650Y-38902586D01*
X42673081Y-38892261D01*
X42684231Y-38882448D01*
X42696022Y-38873191D01*
X42708434Y-38864530D01*
X42721469Y-38856468D01*
X42735126Y-38849002D01*
X42749404Y-38842134D01*
X42764305Y-38835862D01*
X42779828Y-38830189D01*
X42795973Y-38825112D01*
X42812739Y-38820633D01*
X42830128Y-38816750D01*
X42848139Y-38813466D01*
X42866772Y-38810778D01*
X42886028Y-38808688D01*
X42895888Y-38807866D01*
X42905905Y-38807194D01*
X42916077Y-38806672D01*
X42926404Y-38806299D01*
X42936887Y-38806075D01*
X42947525Y-38806000D01*
X43346130Y-38806000D01*
X43346130Y-39399999D01*
G37*
G36*
X42375020Y-39399999D02*
G01*
X42375020Y-38806000D01*
X42231405Y-38806000D01*
X42231405Y-39399999D01*
X42375020Y-39399999D01*
G37*
G36*
X41420763Y-38915421D02*
G01*
X41828160Y-38915421D01*
X41828160Y-39040473D01*
X41442501Y-39040473D01*
X41431376Y-39040582D01*
X41420717Y-39040908D01*
X41410524Y-39041452D01*
X41396107Y-39042676D01*
X41382738Y-39044389D01*
X41370416Y-39046591D01*
X41359142Y-39049283D01*
X41348915Y-39052464D01*
X41339736Y-39056135D01*
X41329126Y-39061791D01*
X41320379Y-39068317D01*
X41312995Y-39075995D01*
X41306595Y-39085231D01*
X41301180Y-39096023D01*
X41296749Y-39108373D01*
X41294072Y-39118657D01*
X41291949Y-39129816D01*
X41290380Y-39141852D01*
X41289364Y-39154763D01*
X41288903Y-39168551D01*
X41288872Y-39173341D01*
X41288872Y-39257605D01*
X41288998Y-39267719D01*
X41289659Y-39282121D01*
X41290887Y-39295600D01*
X41292682Y-39308156D01*
X41295043Y-39319789D01*
X41297971Y-39330498D01*
X41301466Y-39340285D01*
X41307007Y-39351898D01*
X41313556Y-39361870D01*
X41321112Y-39370201D01*
X41330008Y-39377185D01*
X41340697Y-39383237D01*
X41349892Y-39387166D01*
X41360095Y-39390570D01*
X41371307Y-39393451D01*
X41383528Y-39395808D01*
X41396758Y-39397641D01*
X41410996Y-39398951D01*
X41421049Y-39399533D01*
X41431551Y-39399882D01*
X41442501Y-39399999D01*
X41826695Y-39399999D01*
X41837913Y-39399882D01*
X41848669Y-39399533D01*
X41858964Y-39398951D01*
X41868796Y-39398136D01*
X41882679Y-39396477D01*
X41895524Y-39394295D01*
X41907329Y-39391589D01*
X41918095Y-39388359D01*
X41927822Y-39384605D01*
X41939176Y-39378785D01*
X41948682Y-39372034D01*
X41950770Y-39370201D01*
X41958384Y-39361870D01*
X41964982Y-39351898D01*
X41970565Y-39340285D01*
X41974087Y-39330498D01*
X41977037Y-39319789D01*
X41979416Y-39308156D01*
X41981224Y-39295600D01*
X41982461Y-39282121D01*
X41983128Y-39267719D01*
X41983255Y-39257605D01*
X41983255Y-39239287D01*
X41854783Y-39212420D01*
X41854783Y-39290578D01*
X41419298Y-39290578D01*
X41419298Y-39149894D01*
X41802759Y-39149894D01*
X41813917Y-39149782D01*
X41824615Y-39149447D01*
X41834853Y-39148889D01*
X41844631Y-39148108D01*
X41858437Y-39146517D01*
X41871207Y-39144424D01*
X41882943Y-39141829D01*
X41893644Y-39138731D01*
X41903311Y-39135131D01*
X41914590Y-39129550D01*
X41924029Y-39123076D01*
X41926102Y-39121317D01*
X41933601Y-39113349D01*
X41940100Y-39103854D01*
X41945599Y-39092833D01*
X41949067Y-39083565D01*
X41951973Y-39073438D01*
X41954317Y-39062453D01*
X41956098Y-39050609D01*
X41957316Y-39037907D01*
X41957973Y-39024345D01*
X41958097Y-39014828D01*
X41958097Y-38948393D01*
X41957973Y-38938397D01*
X41957316Y-38924153D01*
X41956098Y-38910811D01*
X41954317Y-38898370D01*
X41951973Y-38886831D01*
X41949067Y-38876193D01*
X41945599Y-38866458D01*
X41940100Y-38854879D01*
X41933601Y-38844903D01*
X41926102Y-38836530D01*
X41917122Y-38829375D01*
X41906303Y-38823173D01*
X41896981Y-38819148D01*
X41886625Y-38815660D01*
X41875234Y-38812708D01*
X41862808Y-38810293D01*
X41849348Y-38808415D01*
X41834853Y-38807073D01*
X41824615Y-38806477D01*
X41813917Y-38806119D01*
X41802759Y-38806000D01*
X41451538Y-38806000D01*
X41440555Y-38806113D01*
X41430014Y-38806454D01*
X41419916Y-38807022D01*
X41405599Y-38808299D01*
X41392278Y-38810087D01*
X41379954Y-38812386D01*
X41368625Y-38815196D01*
X41358292Y-38818517D01*
X41348956Y-38822349D01*
X41338057Y-38828253D01*
X41328928Y-38835065D01*
X41321143Y-38843026D01*
X41314395Y-38852376D01*
X41308686Y-38863115D01*
X41304015Y-38875243D01*
X41301193Y-38885250D01*
X41298955Y-38896040D01*
X41297300Y-38907610D01*
X41296230Y-38919962D01*
X41295743Y-38933095D01*
X41295711Y-38937647D01*
X41295711Y-38951813D01*
X41420763Y-38977947D01*
X41420763Y-38915421D01*
G37*
G36*
X40911163Y-38806116D02*
G01*
X40921825Y-38806465D01*
X40932023Y-38807047D01*
X40946451Y-38808357D01*
X40959835Y-38810190D01*
X40972176Y-38812547D01*
X40983474Y-38815428D01*
X40993729Y-38818833D01*
X41002940Y-38822761D01*
X41013599Y-38828814D01*
X41022403Y-38835798D01*
X41029788Y-38843995D01*
X41036188Y-38853810D01*
X41041603Y-38865244D01*
X41045018Y-38874881D01*
X41047880Y-38885428D01*
X41050187Y-38896886D01*
X41051941Y-38909254D01*
X41053141Y-38922531D01*
X41053787Y-38936719D01*
X41053910Y-38946684D01*
X41053910Y-39263467D01*
X41053787Y-39273162D01*
X41053141Y-39286968D01*
X41051941Y-39299889D01*
X41050187Y-39311927D01*
X41047880Y-39323079D01*
X41045018Y-39333347D01*
X41041603Y-39342731D01*
X41036188Y-39353867D01*
X41029788Y-39363431D01*
X41022403Y-39371422D01*
X41013599Y-39378120D01*
X41002940Y-39383924D01*
X40993729Y-39387692D01*
X40983474Y-39390957D01*
X40972176Y-39393720D01*
X40959835Y-39395980D01*
X40946451Y-39397738D01*
X40932023Y-39398994D01*
X40921825Y-39399552D01*
X40911163Y-39399887D01*
X40900037Y-39399999D01*
X40442082Y-39399999D01*
X40431015Y-39399887D01*
X40420406Y-39399552D01*
X40410254Y-39398994D01*
X40395886Y-39397738D01*
X40382548Y-39395980D01*
X40370240Y-39393720D01*
X40358963Y-39390957D01*
X40348717Y-39387692D01*
X40339500Y-39383924D01*
X40328815Y-39378120D01*
X40319961Y-39371422D01*
X40314286Y-39365576D01*
X40307589Y-39356405D01*
X40301883Y-39345663D01*
X40298256Y-39336574D01*
X40295186Y-39326600D01*
X40292674Y-39315742D01*
X40290721Y-39304000D01*
X40289325Y-39291373D01*
X40289276Y-39290578D01*
X40432312Y-39290578D01*
X40909563Y-39290578D01*
X40909563Y-38915421D01*
X40432312Y-38915421D01*
X40432312Y-39290578D01*
X40289276Y-39290578D01*
X40288488Y-39277862D01*
X40288209Y-39263467D01*
X40288209Y-38946684D01*
X40288331Y-38936719D01*
X40288972Y-38922531D01*
X40290163Y-38909254D01*
X40291903Y-38896886D01*
X40294193Y-38885428D01*
X40297032Y-38874881D01*
X40300421Y-38865244D01*
X40305795Y-38853810D01*
X40312145Y-38843995D01*
X40319472Y-38835798D01*
X40321470Y-38833964D01*
X40330644Y-38827213D01*
X40341712Y-38821393D01*
X40351254Y-38817640D01*
X40361862Y-38814410D01*
X40373534Y-38811703D01*
X40386271Y-38809521D01*
X40400072Y-38807862D01*
X40409865Y-38807047D01*
X40420131Y-38806465D01*
X40430870Y-38806116D01*
X40442082Y-38806000D01*
X40900037Y-38806000D01*
X40911163Y-38806116D01*
G37*
G36*
X40039081Y-39399999D02*
G01*
X40039081Y-38806000D01*
X39939919Y-38806000D01*
X39437511Y-39200452D01*
X39437511Y-38806000D01*
X39306841Y-38806000D01*
X39306841Y-39399999D01*
X39406737Y-39399999D01*
X39907679Y-38999440D01*
X39907679Y-39399999D01*
X40039081Y-39399999D01*
G37*
G36*
X37770554Y-38806000D02*
G01*
X38295432Y-38806000D01*
X38295432Y-39259315D01*
X37770554Y-39259315D01*
X37770554Y-39102999D01*
X38045327Y-39102999D01*
X38045327Y-38977947D01*
X37607155Y-38977947D01*
X37607155Y-39225365D01*
X37607299Y-39237782D01*
X37607732Y-39249694D01*
X37608452Y-39261100D01*
X37609460Y-39272000D01*
X37610757Y-39282395D01*
X37612342Y-39292284D01*
X37615259Y-39306169D01*
X37618825Y-39318917D01*
X37623039Y-39330526D01*
X37627901Y-39340999D01*
X37633411Y-39350333D01*
X37639570Y-39358530D01*
X37644036Y-39363362D01*
X37651552Y-39369909D01*
X37660271Y-39375813D01*
X37670191Y-39381072D01*
X37681314Y-39385687D01*
X37693638Y-39389659D01*
X37707165Y-39392986D01*
X37716851Y-39394847D01*
X37727071Y-39396421D01*
X37737825Y-39397709D01*
X37749114Y-39398711D01*
X37760937Y-39399426D01*
X37773294Y-39399855D01*
X37786185Y-39399999D01*
X38284685Y-39399999D01*
X38297577Y-39399855D01*
X38309934Y-39399426D01*
X38321757Y-39398711D01*
X38333045Y-39397709D01*
X38343799Y-39396421D01*
X38354020Y-39394847D01*
X38363705Y-39392986D01*
X38377232Y-39389659D01*
X38389557Y-39385687D01*
X38400679Y-39381072D01*
X38410600Y-39375813D01*
X38419318Y-39369909D01*
X38426834Y-39363362D01*
X38433425Y-39355924D01*
X38439368Y-39347348D01*
X38444662Y-39337634D01*
X38449309Y-39326783D01*
X38453306Y-39314794D01*
X38456656Y-39301667D01*
X38459357Y-39287402D01*
X38460798Y-39277261D01*
X38461950Y-39266613D01*
X38462815Y-39255460D01*
X38463391Y-39243801D01*
X38463679Y-39231637D01*
X38463715Y-39225365D01*
X38463715Y-38846300D01*
X38463571Y-38834629D01*
X38463139Y-38823429D01*
X38462418Y-38812700D01*
X38461410Y-38802443D01*
X38460113Y-38792657D01*
X38457628Y-38778862D01*
X38454495Y-38766127D01*
X38450713Y-38754453D01*
X38446283Y-38743839D01*
X38441205Y-38734286D01*
X38435478Y-38725793D01*
X38429103Y-38718360D01*
X38426834Y-38716119D01*
X38419318Y-38709833D01*
X38410600Y-38704166D01*
X38400679Y-38699117D01*
X38389557Y-38694686D01*
X38377232Y-38690874D01*
X38363705Y-38687680D01*
X38354020Y-38685893D01*
X38343799Y-38684382D01*
X38333045Y-38683146D01*
X38321757Y-38682184D01*
X38309934Y-38681497D01*
X38297577Y-38681085D01*
X38284685Y-38680948D01*
X37786185Y-38680948D01*
X37773469Y-38681082D01*
X37761269Y-38681486D01*
X37749586Y-38682158D01*
X37738421Y-38683100D01*
X37727772Y-38684311D01*
X37717641Y-38685790D01*
X37708027Y-38687539D01*
X37694575Y-38690667D01*
X37682287Y-38694400D01*
X37671162Y-38698738D01*
X37661201Y-38703682D01*
X37652403Y-38709231D01*
X37644769Y-38715386D01*
X37635953Y-38724862D01*
X37630113Y-38733106D01*
X37624934Y-38742324D01*
X37620416Y-38752517D01*
X37616559Y-38763685D01*
X37613363Y-38775827D01*
X37610829Y-38788944D01*
X37608955Y-38803035D01*
X37608074Y-38812971D01*
X37607486Y-38823340D01*
X37607192Y-38834142D01*
X37607155Y-38839705D01*
X37607155Y-38855581D01*
X37770554Y-38884158D01*
X37770554Y-38806000D01*
G37*
G36*
X37304539Y-39399999D02*
G01*
X37304539Y-38806000D01*
X37158970Y-38806000D01*
X37158970Y-39290578D01*
X36694664Y-39290578D01*
X36694664Y-39399999D01*
X37304539Y-39399999D01*
G37*
G36*
X36532731Y-39399999D02*
G01*
X36532731Y-38806000D01*
X35897700Y-38806000D01*
X35897700Y-38915421D01*
X36387162Y-38915421D01*
X36387162Y-39024841D01*
X36102131Y-39024841D01*
X36102131Y-39134262D01*
X36387162Y-39134262D01*
X36387162Y-39290578D01*
X35890128Y-39290578D01*
X35890128Y-39399999D01*
X36532731Y-39399999D01*
G37*
G36*
X35458307Y-39399999D02*
G01*
X35458307Y-39133285D01*
X35781440Y-38806000D01*
X35586779Y-38806000D01*
X35375509Y-39027528D01*
X35161552Y-38806000D01*
X34992047Y-38806000D01*
X35313959Y-39130354D01*
X35313959Y-39399999D01*
X35458307Y-39399999D01*
G37*
G36*
X34852340Y-39399999D02*
G01*
X34489884Y-39399999D01*
X34477678Y-39399926D01*
X34465666Y-39399707D01*
X34453849Y-39399342D01*
X34442226Y-39398831D01*
X34430798Y-39398174D01*
X34419565Y-39397371D01*
X34408526Y-39396422D01*
X34397682Y-39395327D01*
X34387033Y-39394087D01*
X34376578Y-39392700D01*
X34366318Y-39391167D01*
X34356253Y-39389488D01*
X34346382Y-39387664D01*
X34336706Y-39385693D01*
X34317937Y-39381314D01*
X34299947Y-39376351D01*
X34282735Y-39370804D01*
X34266303Y-39364673D01*
X34250648Y-39357958D01*
X34235772Y-39350660D01*
X34221675Y-39342777D01*
X34208356Y-39334311D01*
X34195816Y-39325260D01*
X34184015Y-39315626D01*
X34172975Y-39305408D01*
X34162697Y-39294606D01*
X34153180Y-39283220D01*
X34144424Y-39271250D01*
X34136430Y-39258696D01*
X34129197Y-39245559D01*
X34122726Y-39231837D01*
X34117016Y-39217532D01*
X34112067Y-39202643D01*
X34107880Y-39187169D01*
X34104453Y-39171112D01*
X34101789Y-39154471D01*
X34099885Y-39137247D01*
X34098743Y-39119438D01*
X34098363Y-39101045D01*
X34098458Y-39096405D01*
X34246618Y-39096405D01*
X34246677Y-39102925D01*
X34247153Y-39115608D01*
X34248103Y-39127816D01*
X34249528Y-39139550D01*
X34251429Y-39150808D01*
X34253804Y-39161591D01*
X34256655Y-39171898D01*
X34259981Y-39181731D01*
X34263782Y-39191089D01*
X34270375Y-39204234D01*
X34278036Y-39216310D01*
X34286766Y-39227318D01*
X34296566Y-39237256D01*
X34307435Y-39246126D01*
X34315394Y-39251508D01*
X34324070Y-39256544D01*
X34333461Y-39261232D01*
X34343567Y-39265573D01*
X34354389Y-39269567D01*
X34365927Y-39273214D01*
X34378180Y-39276513D01*
X34391149Y-39279465D01*
X34404833Y-39282069D01*
X34419233Y-39284327D01*
X34434348Y-39286237D01*
X34450179Y-39287799D01*
X34466726Y-39289015D01*
X34483988Y-39289883D01*
X34501965Y-39290404D01*
X34520659Y-39290578D01*
X34706772Y-39290578D01*
X34706772Y-38915421D01*
X34452515Y-38915421D01*
X34446019Y-38915465D01*
X34433345Y-38915816D01*
X34421095Y-38916518D01*
X34409268Y-38917571D01*
X34397865Y-38918976D01*
X34386886Y-38920731D01*
X34376330Y-38922838D01*
X34366197Y-38925295D01*
X34356489Y-38928104D01*
X34342720Y-38932976D01*
X34329904Y-38938637D01*
X34318042Y-38945089D01*
X34307133Y-38952330D01*
X34297176Y-38960361D01*
X34294066Y-38963200D01*
X34285327Y-38972264D01*
X34277476Y-38982148D01*
X34270515Y-38992852D01*
X34264442Y-39004376D01*
X34259258Y-39016720D01*
X34254962Y-39029884D01*
X34251555Y-39043869D01*
X34249778Y-39053647D01*
X34248396Y-39063790D01*
X34247408Y-39074297D01*
X34246816Y-39085169D01*
X34246618Y-39096405D01*
X34098458Y-39096405D01*
X34098722Y-39083533D01*
X34099801Y-39066535D01*
X34101600Y-39050049D01*
X34104118Y-39034077D01*
X34107355Y-39018618D01*
X34111311Y-39003673D01*
X34115987Y-38989240D01*
X34121383Y-38975321D01*
X34127497Y-38961916D01*
X34134331Y-38949023D01*
X34141885Y-38936644D01*
X34150157Y-38924778D01*
X34159150Y-38913426D01*
X34168861Y-38902586D01*
X34179292Y-38892261D01*
X34190442Y-38882448D01*
X34202233Y-38873191D01*
X34214645Y-38864530D01*
X34227680Y-38856468D01*
X34241336Y-38849002D01*
X34255615Y-38842134D01*
X34270516Y-38835862D01*
X34286038Y-38830189D01*
X34302183Y-38825112D01*
X34318950Y-38820633D01*
X34336339Y-38816750D01*
X34354350Y-38813466D01*
X34372983Y-38810778D01*
X34392238Y-38808688D01*
X34402099Y-38807866D01*
X34412116Y-38807194D01*
X34422287Y-38806672D01*
X34432615Y-38806299D01*
X34443098Y-38806075D01*
X34453736Y-38806000D01*
X34852340Y-38806000D01*
X34852340Y-39399999D01*
G37*
G36*
X33737616Y-38806000D02*
G01*
X33737616Y-39290578D01*
X33325334Y-39290578D01*
X33325334Y-38806000D01*
X33179765Y-38806000D01*
X33179765Y-39261024D01*
X33179892Y-39270841D01*
X33180558Y-39284825D01*
X33181796Y-39297920D01*
X33183604Y-39310127D01*
X33185983Y-39321445D01*
X33188933Y-39331874D01*
X33192455Y-39341415D01*
X33198038Y-39352753D01*
X33204636Y-39362511D01*
X33212250Y-39370689D01*
X33221283Y-39377559D01*
X33232140Y-39383512D01*
X33241480Y-39387376D01*
X33251847Y-39390725D01*
X33263239Y-39393559D01*
X33275657Y-39395877D01*
X33289102Y-39397680D01*
X33303573Y-39398968D01*
X33313790Y-39399541D01*
X33324463Y-39399884D01*
X33335592Y-39399999D01*
X33727358Y-39399999D01*
X33738425Y-39399885D01*
X33749034Y-39399544D01*
X33759186Y-39398977D01*
X33773554Y-39397699D01*
X33786892Y-39395911D01*
X33799200Y-39393612D01*
X33810477Y-39390802D01*
X33820723Y-39387481D01*
X33829940Y-39383649D01*
X33840625Y-39377746D01*
X33849479Y-39370934D01*
X33856921Y-39362805D01*
X33863371Y-39353073D01*
X33868828Y-39341739D01*
X33872270Y-39332186D01*
X33875153Y-39321732D01*
X33877479Y-39310376D01*
X33879246Y-39298119D01*
X33880456Y-39284960D01*
X33881107Y-39270899D01*
X33881231Y-39261024D01*
X33881231Y-38806000D01*
X33737616Y-38806000D01*
G37*
G36*
X32916960Y-39399999D02*
G01*
X32774811Y-39399999D01*
X32774811Y-39181157D01*
X32638767Y-39181157D01*
X32390617Y-39399999D01*
X32183499Y-39399999D01*
X32465111Y-39181157D01*
X32383778Y-39181157D01*
X32374807Y-39181046D01*
X32361940Y-39180465D01*
X32349782Y-39179386D01*
X32338333Y-39177809D01*
X32327592Y-39175734D01*
X32317559Y-39173161D01*
X32308234Y-39170090D01*
X32296904Y-39165220D01*
X32286833Y-39159465D01*
X32278021Y-39152825D01*
X32270293Y-39145188D01*
X32263595Y-39136445D01*
X32257928Y-39126595D01*
X32253291Y-39115639D01*
X32249685Y-39103575D01*
X32247656Y-39093802D01*
X32246207Y-39083405D01*
X32245338Y-39072387D01*
X32245048Y-39060745D01*
X32245048Y-38961094D01*
X32379626Y-38961094D01*
X32379626Y-39026063D01*
X32380124Y-39034898D01*
X32382337Y-39045103D01*
X32386944Y-39054430D01*
X32393792Y-39061478D01*
X32394685Y-39062109D01*
X32403497Y-39066437D01*
X32413637Y-39069172D01*
X32424132Y-39070734D01*
X32434151Y-39071486D01*
X32445327Y-39071736D01*
X32774811Y-39071736D01*
X32774811Y-38915421D01*
X32445327Y-38915421D01*
X32434151Y-38915677D01*
X32424132Y-38916446D01*
X32413637Y-38918046D01*
X32403497Y-38920846D01*
X32393792Y-38925923D01*
X32387594Y-38931968D01*
X32382738Y-38940958D01*
X32380304Y-38950896D01*
X32379626Y-38961094D01*
X32245048Y-38961094D01*
X32245048Y-38927877D01*
X32245338Y-38916103D01*
X32246207Y-38904959D01*
X32247656Y-38894447D01*
X32249685Y-38884566D01*
X32253291Y-38872373D01*
X32257928Y-38861302D01*
X32263595Y-38851353D01*
X32270293Y-38842526D01*
X32278021Y-38834821D01*
X32282269Y-38831331D01*
X32291711Y-38825026D01*
X32302412Y-38819622D01*
X32314372Y-38815119D01*
X32324169Y-38812333D01*
X32334674Y-38810053D01*
X32345887Y-38808280D01*
X32357809Y-38807013D01*
X32370439Y-38806253D01*
X32383778Y-38806000D01*
X32916960Y-38806000D01*
X32916960Y-39399999D01*
G37*
G36*
X32122927Y-39399999D02*
G01*
X31978823Y-39399999D01*
X31904329Y-39274946D01*
X31512564Y-39274946D01*
X31438070Y-39399999D01*
X31276137Y-39399999D01*
X31416995Y-39165525D01*
X31571426Y-39165525D01*
X31842780Y-39165525D01*
X31709423Y-38914932D01*
X31571426Y-39165525D01*
X31416995Y-39165525D01*
X31632975Y-38806000D01*
X31771705Y-38806000D01*
X32122927Y-39399999D01*
G37*
D11*
%TO.C,G\u002A\u002A\u002A*%
G36*
X54682683Y-38181426D02*
G01*
X54701980Y-38211083D01*
X54699983Y-38246369D01*
X54672221Y-38279529D01*
X54631737Y-38301250D01*
X54599924Y-38298122D01*
X54571480Y-38267401D01*
X54555479Y-38224404D01*
X54567647Y-38188959D01*
X54607500Y-38167252D01*
X54646563Y-38165157D01*
X54682683Y-38181426D01*
G37*
G36*
X55991190Y-36944325D02*
G01*
X56019145Y-36970761D01*
X56023292Y-37009055D01*
X56000443Y-37051165D01*
X55964092Y-37075661D01*
X55925421Y-37075743D01*
X55895580Y-37052318D01*
X55883622Y-37008679D01*
X55886531Y-36986395D01*
X55910978Y-36950457D01*
X55955193Y-36937107D01*
X55991190Y-36944325D01*
G37*
G36*
X56084393Y-37024268D02*
G01*
X56113096Y-37038155D01*
X56160851Y-37065293D01*
X56222904Y-37102934D01*
X56294504Y-37148328D01*
X56501674Y-37282275D01*
X56471216Y-37332359D01*
X56466500Y-37339886D01*
X56444015Y-37370163D01*
X56428596Y-37382430D01*
X56423327Y-37380382D01*
X56395245Y-37364604D01*
X56348005Y-37335787D01*
X56286546Y-37296976D01*
X56215804Y-37251215D01*
X56015176Y-37120013D01*
X56042297Y-37076154D01*
X56043087Y-37074879D01*
X56064428Y-37042044D01*
X56078376Y-37023338D01*
X56084393Y-37024268D01*
G37*
G36*
X54745502Y-38307627D02*
G01*
X54758727Y-38329476D01*
X54782814Y-38371371D01*
X54814449Y-38427346D01*
X54850314Y-38491435D01*
X54887095Y-38557671D01*
X54921475Y-38620088D01*
X54950138Y-38672719D01*
X54969767Y-38709598D01*
X54977047Y-38724759D01*
X54976100Y-38726597D01*
X54958392Y-38741672D01*
X54925356Y-38764332D01*
X54915345Y-38770714D01*
X54884607Y-38789863D01*
X54870806Y-38797704D01*
X54869794Y-38796402D01*
X54857715Y-38775960D01*
X54834637Y-38735186D01*
X54803767Y-38679880D01*
X54768309Y-38615845D01*
X54731468Y-38548881D01*
X54696449Y-38484790D01*
X54666456Y-38429373D01*
X54644696Y-38388430D01*
X54643006Y-38385143D01*
X54635515Y-38361813D01*
X54646710Y-38345123D01*
X54682052Y-38325936D01*
X54693399Y-38320725D01*
X54727511Y-38307836D01*
X54744330Y-38306048D01*
X54745502Y-38307627D01*
G37*
G36*
X53731342Y-31246753D02*
G01*
X53750325Y-31271014D01*
X53766231Y-31313204D01*
X53768387Y-31321130D01*
X53804442Y-31392558D01*
X53862410Y-31445907D01*
X53935749Y-31474938D01*
X53972012Y-31488134D01*
X53989877Y-31506364D01*
X53986304Y-31522509D01*
X53958349Y-31529468D01*
X53949405Y-31529798D01*
X53887336Y-31548333D01*
X53829718Y-31590123D01*
X53784304Y-31647971D01*
X53758846Y-31714679D01*
X53748495Y-31748770D01*
X53732501Y-31761684D01*
X53715190Y-31744769D01*
X53699302Y-31698755D01*
X53696024Y-31686806D01*
X53660411Y-31619723D01*
X53603806Y-31566009D01*
X53535374Y-31534827D01*
X53495019Y-31521755D01*
X53473211Y-31504492D01*
X53481110Y-31488088D01*
X53519450Y-31475283D01*
X53529434Y-31473117D01*
X53595300Y-31444272D01*
X53651258Y-31396599D01*
X53690111Y-31337851D01*
X53704661Y-31275781D01*
X53705220Y-31264827D01*
X53714551Y-31243624D01*
X53731342Y-31246753D01*
G37*
G36*
X51614418Y-31724663D02*
G01*
X51621130Y-31752925D01*
X51621460Y-31761869D01*
X51639995Y-31823938D01*
X51681785Y-31881556D01*
X51739633Y-31926970D01*
X51806341Y-31952428D01*
X51837629Y-31961417D01*
X51853495Y-31977226D01*
X51839110Y-31994686D01*
X51795001Y-32011077D01*
X51755187Y-32026874D01*
X51698444Y-32066949D01*
X51652720Y-32118529D01*
X51627947Y-32172045D01*
X51627879Y-32172360D01*
X51618391Y-32210484D01*
X51610368Y-32233256D01*
X51595424Y-32245558D01*
X51579398Y-32231640D01*
X51566815Y-32191132D01*
X51564642Y-32181141D01*
X51535804Y-32115649D01*
X51488108Y-32059901D01*
X51429379Y-32021142D01*
X51367442Y-32006613D01*
X51363966Y-32006556D01*
X51337941Y-31998809D01*
X51336240Y-31982627D01*
X51355749Y-31964636D01*
X51393355Y-31951462D01*
X51430630Y-31939456D01*
X51491429Y-31899219D01*
X51539747Y-31842477D01*
X51565978Y-31778838D01*
X51566756Y-31774969D01*
X51580606Y-31738797D01*
X51598702Y-31720991D01*
X51614418Y-31724663D01*
G37*
G36*
X54631122Y-38817071D02*
G01*
X54598514Y-38887945D01*
X54542925Y-38949401D01*
X54468093Y-38995282D01*
X54450484Y-39002301D01*
X54362288Y-39020013D01*
X54279213Y-39010242D01*
X54206125Y-38976083D01*
X54147892Y-38920633D01*
X54109383Y-38846989D01*
X54095465Y-38758247D01*
X54096532Y-38740063D01*
X54226160Y-38740063D01*
X54235869Y-38800552D01*
X54269108Y-38858483D01*
X54313081Y-38897360D01*
X54369737Y-38913941D01*
X54434206Y-38899967D01*
X54441583Y-38896574D01*
X54482474Y-38861319D01*
X54502116Y-38812493D01*
X54502483Y-38757019D01*
X54485550Y-38701821D01*
X54453291Y-38653821D01*
X54407680Y-38619945D01*
X54350692Y-38607114D01*
X54315963Y-38611827D01*
X54268433Y-38638843D01*
X54237757Y-38683875D01*
X54226160Y-38740063D01*
X54096532Y-38740063D01*
X54097327Y-38726519D01*
X54122216Y-38644366D01*
X54174359Y-38576494D01*
X54251531Y-38526208D01*
X54302362Y-38507947D01*
X54390990Y-38498775D01*
X54472754Y-38517930D01*
X54543317Y-38563179D01*
X54598344Y-38632287D01*
X54633496Y-38723020D01*
X54637006Y-38742934D01*
X54635888Y-38757019D01*
X54631122Y-38817071D01*
G37*
G36*
X55286976Y-36102470D02*
G01*
X55303801Y-36127931D01*
X55310805Y-36169146D01*
X55311518Y-36178136D01*
X55330751Y-36224478D01*
X55369778Y-36270373D01*
X55419938Y-36307368D01*
X55472573Y-36327013D01*
X55474137Y-36327268D01*
X55517531Y-36341574D01*
X55531238Y-36361609D01*
X55515424Y-36382267D01*
X55470254Y-36398440D01*
X55452740Y-36403619D01*
X55403608Y-36431426D01*
X55357901Y-36472651D01*
X55324190Y-36518570D01*
X55311048Y-36560460D01*
X55308794Y-36585666D01*
X55300445Y-36608408D01*
X55276026Y-36619478D01*
X55255253Y-36601858D01*
X55241597Y-36557116D01*
X55239284Y-36546161D01*
X55215245Y-36493761D01*
X55175650Y-36445490D01*
X55129015Y-36410040D01*
X55083851Y-36396100D01*
X55082722Y-36396088D01*
X55041796Y-36388782D01*
X55016817Y-36371784D01*
X55015710Y-36350407D01*
X55026947Y-36340697D01*
X55058300Y-36332724D01*
X55087451Y-36328836D01*
X55144771Y-36302303D01*
X55196120Y-36257619D01*
X55233113Y-36203031D01*
X55247369Y-36146781D01*
X55250816Y-36124157D01*
X55265112Y-36101005D01*
X55265643Y-36100687D01*
X55286976Y-36102470D01*
G37*
G36*
X50962066Y-38123381D02*
G01*
X51021384Y-38145986D01*
X51045099Y-38157762D01*
X51141812Y-38222053D01*
X51214773Y-38299495D01*
X51261969Y-38386621D01*
X51281389Y-38479966D01*
X51271020Y-38576060D01*
X51263101Y-38601777D01*
X51220871Y-38688999D01*
X51161948Y-38761931D01*
X51092870Y-38811917D01*
X51041875Y-38831631D01*
X50944687Y-38844157D01*
X50843036Y-38828863D01*
X50741815Y-38786769D01*
X50645919Y-38718892D01*
X50616141Y-38690892D01*
X50592291Y-38657671D01*
X50592971Y-38630051D01*
X50616544Y-38601498D01*
X50634444Y-38587095D01*
X50652482Y-38586274D01*
X50676168Y-38608633D01*
X50698911Y-38629980D01*
X50756926Y-38670374D01*
X50823286Y-38705019D01*
X50883285Y-38725611D01*
X50922072Y-38727615D01*
X50987624Y-38713113D01*
X51049596Y-38682440D01*
X51094268Y-38641091D01*
X51134346Y-38567634D01*
X51152401Y-38484297D01*
X51140647Y-38406076D01*
X51100163Y-38335791D01*
X51032024Y-38276260D01*
X50937307Y-38230301D01*
X50914197Y-38221495D01*
X50874111Y-38199756D01*
X50865414Y-38180518D01*
X50867957Y-38172769D01*
X50873603Y-38136621D01*
X50882379Y-38120786D01*
X50913720Y-38114854D01*
X50962066Y-38123381D01*
G37*
G36*
X56568054Y-36253044D02*
G01*
X56616957Y-36273159D01*
X56649336Y-36305079D01*
X56658033Y-36328287D01*
X56669463Y-36378029D01*
X56677629Y-36436106D01*
X56681603Y-36472280D01*
X56689365Y-36510661D01*
X56701560Y-36529517D01*
X56721525Y-36536476D01*
X56732731Y-36536812D01*
X56765146Y-36519267D01*
X56786947Y-36475574D01*
X56796018Y-36409342D01*
X56796340Y-36398797D01*
X56800664Y-36364691D01*
X56815657Y-36351086D01*
X56849570Y-36348629D01*
X56852322Y-36348633D01*
X56885629Y-36351743D01*
X56899047Y-36367241D01*
X56901530Y-36404807D01*
X56892436Y-36471063D01*
X56860167Y-36552992D01*
X56810234Y-36622987D01*
X56765402Y-36656573D01*
X56711673Y-36666220D01*
X56651492Y-36655899D01*
X56604445Y-36621770D01*
X56576658Y-36563018D01*
X56567529Y-36478861D01*
X56564857Y-36438313D01*
X56550005Y-36390072D01*
X56526805Y-36369227D01*
X56500629Y-36376039D01*
X56476847Y-36410770D01*
X56460834Y-36473679D01*
X56459442Y-36483683D01*
X56451094Y-36520585D01*
X56435850Y-36536236D01*
X56406387Y-36539487D01*
X56404311Y-36539483D01*
X56375238Y-36535997D01*
X56363164Y-36519601D01*
X56360766Y-36480889D01*
X56361158Y-36466831D01*
X56376836Y-36390577D01*
X56411801Y-36324336D01*
X56461108Y-36275268D01*
X56519815Y-36250536D01*
X56568054Y-36253044D01*
G37*
G36*
X57083735Y-35177502D02*
G01*
X57080711Y-35235815D01*
X57074051Y-35278955D01*
X57062443Y-35315334D01*
X57044575Y-35353359D01*
X56998269Y-35425409D01*
X56940268Y-35476499D01*
X56860849Y-35514720D01*
X56801276Y-35529375D01*
X56712435Y-35532081D01*
X56625143Y-35516617D01*
X56552491Y-35484278D01*
X56502114Y-35442793D01*
X56462616Y-35387918D01*
X56435516Y-35316890D01*
X56418952Y-35224737D01*
X56411062Y-35106486D01*
X56409272Y-35049456D01*
X56499958Y-35049456D01*
X56507975Y-35149332D01*
X56513280Y-35192343D01*
X56537254Y-35276580D01*
X56576011Y-35339220D01*
X56627313Y-35376016D01*
X56671495Y-35390334D01*
X56760523Y-35400154D01*
X56841421Y-35384246D01*
X56909018Y-35344093D01*
X56958143Y-35281177D01*
X56965011Y-35263878D01*
X56975919Y-35217969D01*
X56983881Y-35162291D01*
X56987951Y-35107057D01*
X56987182Y-35062482D01*
X56980625Y-35038781D01*
X56975897Y-35037501D01*
X56945149Y-35035852D01*
X56891079Y-35035718D01*
X56819470Y-35037072D01*
X56736100Y-35039888D01*
X56499958Y-35049456D01*
X56409272Y-35049456D01*
X56405273Y-34922013D01*
X56734508Y-34910583D01*
X56762118Y-34909662D01*
X56858845Y-34907053D01*
X56943277Y-34905717D01*
X57010543Y-34905669D01*
X57055771Y-34906925D01*
X57074089Y-34909499D01*
X57077706Y-34924402D01*
X57081193Y-34965494D01*
X57083562Y-35025607D01*
X57084436Y-35097874D01*
X57084355Y-35107057D01*
X57083735Y-35177502D01*
G37*
G36*
X54998182Y-38018833D02*
G01*
X55022988Y-38047179D01*
X55042036Y-38070500D01*
X55062252Y-38080596D01*
X55087093Y-38070393D01*
X55104991Y-38061370D01*
X55124887Y-38064675D01*
X55146817Y-38092202D01*
X55163065Y-38119403D01*
X55164364Y-38137447D01*
X55147140Y-38153532D01*
X55131427Y-38166854D01*
X55120190Y-38182939D01*
X55121925Y-38187509D01*
X55137031Y-38213712D01*
X55164321Y-38256663D01*
X55199714Y-38309848D01*
X55202814Y-38314432D01*
X55250983Y-38393002D01*
X55276424Y-38454905D01*
X55279494Y-38505085D01*
X55260549Y-38548486D01*
X55219948Y-38590051D01*
X55189218Y-38613615D01*
X55147246Y-38635089D01*
X55115997Y-38631799D01*
X55090323Y-38604314D01*
X55079180Y-38582591D01*
X55083035Y-38562763D01*
X55110355Y-38539368D01*
X55111805Y-38538300D01*
X55140243Y-38511878D01*
X55152000Y-38490307D01*
X55146537Y-38475278D01*
X55127490Y-38440478D01*
X55099545Y-38394874D01*
X55067715Y-38346105D01*
X55037014Y-38301811D01*
X55012454Y-38269632D01*
X54999048Y-38257208D01*
X54997352Y-38257524D01*
X54976110Y-38268656D01*
X54942775Y-38290770D01*
X54934589Y-38296572D01*
X54906369Y-38313922D01*
X54889770Y-38313093D01*
X54873230Y-38294747D01*
X54857866Y-38270464D01*
X54853221Y-38236203D01*
X54877642Y-38210585D01*
X54919751Y-38185256D01*
X54937627Y-38166693D01*
X54934507Y-38146065D01*
X54913726Y-38114483D01*
X54898427Y-38091376D01*
X54889808Y-38063862D01*
X54905434Y-38043604D01*
X54948404Y-38022366D01*
X54975194Y-38013346D01*
X54998182Y-38018833D01*
G37*
G36*
X56083298Y-37393631D02*
G01*
X56155294Y-37454328D01*
X56215093Y-37505302D01*
X56255822Y-37541922D01*
X56280118Y-37567583D01*
X56290618Y-37585683D01*
X56289958Y-37599618D01*
X56280775Y-37612783D01*
X56265707Y-37628574D01*
X56261950Y-37632513D01*
X56234034Y-37658217D01*
X56216293Y-37668729D01*
X56210448Y-37666122D01*
X56183839Y-37647737D01*
X56142198Y-37615600D01*
X56091570Y-37574291D01*
X56067696Y-37554504D01*
X56007111Y-37507105D01*
X55962402Y-37478985D01*
X55928193Y-37468099D01*
X55899111Y-37472398D01*
X55869782Y-37489838D01*
X55838387Y-37524100D01*
X55827955Y-37573841D01*
X55828914Y-37590710D01*
X55836676Y-37616488D01*
X55856010Y-37644436D01*
X55891378Y-37680404D01*
X55947241Y-37730243D01*
X55980543Y-37759424D01*
X56025826Y-37800043D01*
X56057756Y-37829905D01*
X56070932Y-37844039D01*
X56071196Y-37845146D01*
X56063327Y-37865314D01*
X56041944Y-37896659D01*
X56038905Y-37900477D01*
X56014419Y-37927886D01*
X55999415Y-37939111D01*
X55991162Y-37935649D01*
X55961989Y-37915285D01*
X55919122Y-37881027D01*
X55868557Y-37837905D01*
X55816289Y-37790949D01*
X55768312Y-37745190D01*
X55735282Y-37711119D01*
X55708053Y-37675820D01*
X55695684Y-37643413D01*
X55692764Y-37603768D01*
X55692845Y-37597709D01*
X55709160Y-37519221D01*
X55750634Y-37453161D01*
X55812670Y-37407072D01*
X55824133Y-37401193D01*
X55852340Y-37380960D01*
X55858994Y-37365291D01*
X55857987Y-37362393D01*
X55864968Y-37338112D01*
X55887324Y-37305068D01*
X55925116Y-37260155D01*
X56083298Y-37393631D01*
G37*
G36*
X52818160Y-38641770D02*
G01*
X52902167Y-38663381D01*
X52965992Y-38704222D01*
X53006549Y-38761901D01*
X53020754Y-38834024D01*
X53017884Y-38871295D01*
X53001952Y-38909420D01*
X52965796Y-38949429D01*
X52951149Y-38962031D01*
X52894749Y-38999460D01*
X52835900Y-39026795D01*
X52827454Y-39029735D01*
X52756861Y-39062020D01*
X52715893Y-39098728D01*
X52702657Y-39141488D01*
X52702864Y-39146792D01*
X52719942Y-39185755D01*
X52759794Y-39212629D01*
X52815850Y-39225754D01*
X52881539Y-39223467D01*
X52950290Y-39204107D01*
X52962014Y-39199257D01*
X52993419Y-39189127D01*
X53010097Y-39194934D01*
X53023442Y-39218997D01*
X53027279Y-39228039D01*
X53033464Y-39269499D01*
X53012522Y-39298763D01*
X52962327Y-39319319D01*
X52868753Y-39335097D01*
X52770734Y-39330781D01*
X52685976Y-39304049D01*
X52620075Y-39255937D01*
X52596825Y-39227369D01*
X52579821Y-39187028D01*
X52575419Y-39131514D01*
X52575421Y-39130445D01*
X52586011Y-39064690D01*
X52619234Y-39010793D01*
X52678128Y-38965465D01*
X52765731Y-38925414D01*
X52806003Y-38908750D01*
X52860866Y-38875509D01*
X52886780Y-38839321D01*
X52885630Y-38798184D01*
X52879517Y-38785936D01*
X52845806Y-38760730D01*
X52793548Y-38747942D01*
X52731073Y-38748844D01*
X52666711Y-38764711D01*
X52640868Y-38772134D01*
X52622963Y-38763889D01*
X52608481Y-38731109D01*
X52607320Y-38727768D01*
X52595984Y-38693986D01*
X52591324Y-38677868D01*
X52597117Y-38671614D01*
X52626172Y-38660518D01*
X52671037Y-38649946D01*
X52721953Y-38642035D01*
X52769161Y-38638923D01*
X52818160Y-38641770D01*
G37*
G36*
X53901813Y-38672800D02*
G01*
X53903633Y-38677845D01*
X53911951Y-38708306D01*
X53925415Y-38761420D01*
X53942643Y-38831682D01*
X53962253Y-38913590D01*
X53977781Y-38979360D01*
X53994013Y-39050269D01*
X54003622Y-39098268D01*
X54007043Y-39128082D01*
X54004712Y-39144439D01*
X53997064Y-39152066D01*
X53984534Y-39155691D01*
X53953738Y-39162268D01*
X53921508Y-39166084D01*
X53899994Y-39158699D01*
X53884417Y-39135242D01*
X53869995Y-39090846D01*
X53851949Y-39020639D01*
X53841699Y-38982384D01*
X53821939Y-38918449D01*
X53803222Y-38868760D01*
X53788524Y-38841710D01*
X53788426Y-38841602D01*
X53750248Y-38818766D01*
X53703365Y-38815563D01*
X53657652Y-38829078D01*
X53622983Y-38856398D01*
X53609232Y-38894610D01*
X53609821Y-38902382D01*
X53615932Y-38939774D01*
X53627264Y-38995590D01*
X53642061Y-39060924D01*
X53643113Y-39065364D01*
X53659579Y-39140628D01*
X53666290Y-39191095D01*
X53662670Y-39222168D01*
X53648144Y-39239250D01*
X53622133Y-39247744D01*
X53596663Y-39251320D01*
X53569470Y-39251728D01*
X53568843Y-39251542D01*
X53557221Y-39233582D01*
X53542294Y-39192262D01*
X53525903Y-39135078D01*
X53509887Y-39069525D01*
X53496090Y-39003102D01*
X53486350Y-38943304D01*
X53482510Y-38897628D01*
X53496127Y-38828177D01*
X53534672Y-38771741D01*
X53592716Y-38732222D01*
X53664830Y-38713313D01*
X53745582Y-38718709D01*
X53772888Y-38724008D01*
X53793517Y-38722897D01*
X53794021Y-38709666D01*
X53793293Y-38707376D01*
X53802424Y-38689760D01*
X53841317Y-38677361D01*
X53848731Y-38676030D01*
X53884670Y-38671532D01*
X53901813Y-38672800D01*
G37*
G36*
X55785853Y-38099658D02*
G01*
X55769999Y-38140425D01*
X55733466Y-38183636D01*
X55716927Y-38198764D01*
X55671004Y-38231188D01*
X55629946Y-38249079D01*
X55629011Y-38249287D01*
X55597291Y-38261748D01*
X55591809Y-38277039D01*
X55592949Y-38280534D01*
X55583551Y-38303286D01*
X55556162Y-38331376D01*
X55509858Y-38368470D01*
X55478456Y-38325666D01*
X55476005Y-38322370D01*
X55447961Y-38287016D01*
X55407725Y-38238622D01*
X55363142Y-38186647D01*
X55313709Y-38122114D01*
X55475097Y-38122114D01*
X55505445Y-38152924D01*
X55508675Y-38155168D01*
X55542536Y-38173438D01*
X55573265Y-38172906D01*
X55615330Y-38153670D01*
X55656540Y-38121593D01*
X55666593Y-38086974D01*
X55644974Y-38050369D01*
X55634808Y-38041481D01*
X55602363Y-38029404D01*
X55560551Y-38038418D01*
X55502966Y-38069379D01*
X55476331Y-38093473D01*
X55475097Y-38122114D01*
X55313709Y-38122114D01*
X55312692Y-38120787D01*
X55273442Y-38040610D01*
X55265138Y-37967626D01*
X55287824Y-37901552D01*
X55341545Y-37842110D01*
X55426345Y-37789019D01*
X55469435Y-37768294D01*
X55498929Y-37758030D01*
X55516208Y-37760572D01*
X55529668Y-37774761D01*
X55542820Y-37795794D01*
X55546155Y-37822091D01*
X55525536Y-37845560D01*
X55477732Y-37872270D01*
X55428276Y-37903408D01*
X55392619Y-37940368D01*
X55376967Y-37976034D01*
X55385662Y-38004182D01*
X55395113Y-38008496D01*
X55426935Y-38000919D01*
X55479002Y-37971941D01*
X55547491Y-37937888D01*
X55621706Y-37921690D01*
X55687548Y-37928067D01*
X55740353Y-37955569D01*
X55775455Y-38002745D01*
X55788193Y-38068142D01*
X55786795Y-38086974D01*
X55785853Y-38099658D01*
G37*
G36*
X56346775Y-36627953D02*
G01*
X56367895Y-36640070D01*
X56383386Y-36658556D01*
X56376938Y-36682131D01*
X56367434Y-36701585D01*
X56360766Y-36721169D01*
X56363701Y-36724529D01*
X56387947Y-36740275D01*
X56431399Y-36764584D01*
X56487632Y-36793776D01*
X56509883Y-36805366D01*
X56568331Y-36839665D01*
X56614786Y-36872344D01*
X56640758Y-36897643D01*
X56643248Y-36901658D01*
X56659086Y-36957099D01*
X56651869Y-37022240D01*
X56622575Y-37086919D01*
X56622069Y-37087689D01*
X56601264Y-37116161D01*
X56588512Y-37127965D01*
X56581895Y-37126019D01*
X56556097Y-37114503D01*
X56525916Y-37099142D01*
X56506713Y-37087527D01*
X56506344Y-37086933D01*
X56510864Y-37068990D01*
X56526004Y-37035945D01*
X56539993Y-37005546D01*
X56540363Y-36984140D01*
X56523201Y-36964682D01*
X56515163Y-36958489D01*
X56482416Y-36937914D01*
X56436991Y-36912456D01*
X56386943Y-36886257D01*
X56340326Y-36863457D01*
X56305196Y-36848195D01*
X56289608Y-36844613D01*
X56288733Y-36845842D01*
X56277349Y-36866103D01*
X56258999Y-36901322D01*
X56250857Y-36916840D01*
X56230082Y-36945812D01*
X56208557Y-36949337D01*
X56177235Y-36930664D01*
X56170561Y-36925679D01*
X56156126Y-36909869D01*
X56157297Y-36889230D01*
X56173519Y-36852019D01*
X56200365Y-36795722D01*
X56145476Y-36761799D01*
X56117686Y-36742795D01*
X56101136Y-36721771D01*
X56105522Y-36699969D01*
X56132869Y-36660719D01*
X56169557Y-36641009D01*
X56213906Y-36649856D01*
X56235887Y-36658736D01*
X56259314Y-36658434D01*
X56278700Y-36636733D01*
X56294822Y-36616606D01*
X56313723Y-36613318D01*
X56346775Y-36627953D01*
G37*
G36*
X56840494Y-35822650D02*
G01*
X56831261Y-35859341D01*
X56818960Y-35915329D01*
X56805159Y-35983760D01*
X56794763Y-36035958D01*
X56782097Y-36095518D01*
X56772190Y-36137429D01*
X56766579Y-36154881D01*
X56761404Y-36157584D01*
X56731683Y-36156905D01*
X56688799Y-36146237D01*
X56644013Y-36128905D01*
X56608587Y-36108234D01*
X56554571Y-36049859D01*
X56525306Y-35976754D01*
X56525409Y-35927672D01*
X56618197Y-35927672D01*
X56632291Y-35963845D01*
X56634958Y-35968432D01*
X56661720Y-36001411D01*
X56685931Y-36011541D01*
X56701660Y-35996069D01*
X56703647Y-35989614D01*
X56713506Y-35950102D01*
X56723565Y-35900906D01*
X56732021Y-35852205D01*
X56737072Y-35814176D01*
X56736915Y-35796996D01*
X56735235Y-35795656D01*
X56712803Y-35797206D01*
X56681302Y-35815742D01*
X56650305Y-35844254D01*
X56629390Y-35875730D01*
X56623424Y-35891314D01*
X56618197Y-35927672D01*
X56525409Y-35927672D01*
X56525478Y-35895043D01*
X56555600Y-35807623D01*
X56568078Y-35785217D01*
X56622719Y-35722337D01*
X56694205Y-35685936D01*
X56784295Y-35674992D01*
X56807415Y-35675971D01*
X56892863Y-35694737D01*
X56959466Y-35738304D01*
X57009859Y-35808229D01*
X57012674Y-35813848D01*
X57037232Y-35900568D01*
X57031932Y-35998055D01*
X56996782Y-36106136D01*
X56985291Y-36131412D01*
X56968892Y-36158340D01*
X56951904Y-36164419D01*
X56926257Y-36155274D01*
X56901289Y-36142661D01*
X56888604Y-36127238D01*
X56891880Y-36101829D01*
X56909483Y-36056843D01*
X56912219Y-36050119D01*
X56932461Y-35969415D01*
X56925840Y-35900030D01*
X56892614Y-35845217D01*
X56886210Y-35838993D01*
X56859225Y-35816994D01*
X56844459Y-35811920D01*
X56843625Y-35814176D01*
X56840494Y-35822650D01*
G37*
G36*
X51804035Y-38861591D02*
G01*
X51806809Y-38934787D01*
X51810850Y-39023341D01*
X51815059Y-39098919D01*
X51819081Y-39155247D01*
X51822556Y-39186051D01*
X51825863Y-39206805D01*
X51822529Y-39224271D01*
X51804346Y-39221769D01*
X51780610Y-39213669D01*
X51738800Y-39201718D01*
X51733240Y-39200168D01*
X51710242Y-39187255D01*
X51695437Y-39161569D01*
X51686462Y-39116770D01*
X51680953Y-39046519D01*
X51676796Y-38969018D01*
X51573938Y-38937525D01*
X51471079Y-38906031D01*
X51398985Y-38987909D01*
X51377678Y-39011976D01*
X51346391Y-39044465D01*
X51323707Y-39059065D01*
X51301395Y-39059827D01*
X51271224Y-39050804D01*
X51262836Y-39047911D01*
X51227136Y-39034758D01*
X51209542Y-39026843D01*
X51210418Y-39024351D01*
X51225308Y-39002715D01*
X51255605Y-38962498D01*
X51297879Y-38907975D01*
X51348700Y-38843426D01*
X51383471Y-38799731D01*
X51551591Y-38799731D01*
X51556355Y-38816419D01*
X51576751Y-38827808D01*
X51577933Y-38828250D01*
X51632616Y-38848440D01*
X51664531Y-38854977D01*
X51679726Y-38843328D01*
X51684250Y-38808964D01*
X51684152Y-38747353D01*
X51683555Y-38630971D01*
X51627866Y-38694590D01*
X51596284Y-38731366D01*
X51564290Y-38772971D01*
X51551591Y-38799731D01*
X51383471Y-38799731D01*
X51404641Y-38773128D01*
X51462271Y-38701360D01*
X51518161Y-38632399D01*
X51568883Y-38570523D01*
X51611007Y-38520011D01*
X51641104Y-38485140D01*
X51655745Y-38470189D01*
X51657781Y-38469301D01*
X51684153Y-38469870D01*
X51723751Y-38479624D01*
X51728137Y-38481079D01*
X51749011Y-38489157D01*
X51764907Y-38500312D01*
X51776687Y-38518647D01*
X51785215Y-38548264D01*
X51791351Y-38593265D01*
X51795958Y-38657752D01*
X51799899Y-38745826D01*
X51802155Y-38808964D01*
X51804035Y-38861591D01*
G37*
G36*
X50529096Y-37765997D02*
G01*
X50554384Y-37783550D01*
X50594629Y-37815656D01*
X50644182Y-37857353D01*
X50697394Y-37903680D01*
X50748616Y-37949674D01*
X50792197Y-37990374D01*
X50822488Y-38020816D01*
X50833841Y-38036040D01*
X50833245Y-38037817D01*
X50818713Y-38058887D01*
X50787070Y-38099154D01*
X50741429Y-38154807D01*
X50684904Y-38222036D01*
X50620606Y-38297032D01*
X50603873Y-38316350D01*
X50540914Y-38388593D01*
X50485937Y-38451003D01*
X50442128Y-38500005D01*
X50412677Y-38532027D01*
X50400768Y-38543494D01*
X50390987Y-38537314D01*
X50361858Y-38513998D01*
X50319082Y-38477822D01*
X50268067Y-38433570D01*
X50214222Y-38386026D01*
X50162956Y-38339974D01*
X50119677Y-38300199D01*
X50089794Y-38271485D01*
X50078716Y-38258616D01*
X50087443Y-38241017D01*
X50108366Y-38211151D01*
X50137663Y-38173048D01*
X50215370Y-38242291D01*
X50253402Y-38276205D01*
X50299674Y-38317524D01*
X50333564Y-38347851D01*
X50374051Y-38384167D01*
X50435831Y-38310258D01*
X50497612Y-38236348D01*
X50397216Y-38146551D01*
X50360211Y-38113068D01*
X50326735Y-38080048D01*
X50311100Y-38057719D01*
X50309631Y-38040244D01*
X50318655Y-38021790D01*
X50337519Y-37999013D01*
X50359597Y-37986826D01*
X50361479Y-37987095D01*
X50385012Y-37999907D01*
X50423486Y-38028091D01*
X50469579Y-38066350D01*
X50477747Y-38073453D01*
X50521801Y-38110204D01*
X50555844Y-38136086D01*
X50573077Y-38145874D01*
X50578737Y-38143313D01*
X50600881Y-38122655D01*
X50629804Y-38088047D01*
X50673911Y-38030220D01*
X50567878Y-37932975D01*
X50565621Y-37930905D01*
X50516555Y-37885205D01*
X50487580Y-37854907D01*
X50475251Y-37834362D01*
X50476125Y-37817924D01*
X50486758Y-37799944D01*
X50506861Y-37775833D01*
X50524298Y-37764158D01*
X50529096Y-37765997D01*
G37*
G36*
X54516144Y-32509370D02*
G01*
X54530392Y-32528039D01*
X54518255Y-32554326D01*
X54478693Y-32589650D01*
X54410664Y-32635435D01*
X54208905Y-32774204D01*
X53987277Y-32960554D01*
X53785978Y-33168408D01*
X53606829Y-33395164D01*
X53451653Y-33638218D01*
X53322271Y-33894967D01*
X53220505Y-34162809D01*
X53148178Y-34439139D01*
X53108460Y-34698983D01*
X53093735Y-34988748D01*
X53109000Y-35279000D01*
X53154007Y-35565407D01*
X53228508Y-35843636D01*
X53229067Y-35845340D01*
X53271481Y-35959075D01*
X53328187Y-36088995D01*
X53394543Y-36225933D01*
X53465907Y-36360725D01*
X53537636Y-36484203D01*
X53605088Y-36587201D01*
X53678667Y-36684251D01*
X53821524Y-36847487D01*
X53984064Y-37007814D01*
X54159238Y-37158905D01*
X54339998Y-37294429D01*
X54519294Y-37408059D01*
X54548575Y-37425118D01*
X54611862Y-37466238D01*
X54647639Y-37498226D01*
X54657501Y-37522805D01*
X54643046Y-37541700D01*
X54630146Y-37549702D01*
X54616480Y-37557152D01*
X54606853Y-37555741D01*
X54570249Y-37544492D01*
X54514297Y-37524181D01*
X54445252Y-37497323D01*
X54369369Y-37466437D01*
X54292903Y-37434039D01*
X54222108Y-37402645D01*
X54163240Y-37374773D01*
X53914286Y-37234189D01*
X53681705Y-37068761D01*
X53468506Y-36881297D01*
X53276565Y-36674047D01*
X53107758Y-36449260D01*
X52963961Y-36209183D01*
X52847053Y-35956066D01*
X52758908Y-35692156D01*
X52751070Y-35662600D01*
X52698427Y-35399273D01*
X52672889Y-35126560D01*
X52674457Y-34850969D01*
X52703130Y-34579008D01*
X52758908Y-34317187D01*
X52789612Y-34213457D01*
X52889509Y-33952210D01*
X53017632Y-33702733D01*
X53172287Y-33467184D01*
X53351782Y-33247719D01*
X53554422Y-33046497D01*
X53778513Y-32865676D01*
X54022363Y-32707413D01*
X54023369Y-32706832D01*
X54105718Y-32661747D01*
X54192642Y-32618291D01*
X54278727Y-32578734D01*
X54358554Y-32545341D01*
X54426708Y-32520381D01*
X54477771Y-32506120D01*
X54506327Y-32504828D01*
X54516144Y-32509370D01*
G37*
G36*
X57337362Y-35256280D02*
G01*
X57335126Y-35436411D01*
X57329135Y-35593921D01*
X57318548Y-35736204D01*
X57302525Y-35870652D01*
X57280222Y-36004658D01*
X57250799Y-36145614D01*
X57213414Y-36300915D01*
X57170379Y-36458710D01*
X57051993Y-36807191D01*
X56905355Y-37143237D01*
X56731799Y-37465200D01*
X56532659Y-37771435D01*
X56309268Y-38060295D01*
X56062961Y-38330134D01*
X55795072Y-38579306D01*
X55506934Y-38806165D01*
X55199882Y-39009065D01*
X54875249Y-39186359D01*
X54635535Y-39295949D01*
X54317742Y-39415680D01*
X53989357Y-39510629D01*
X53645973Y-39582025D01*
X53283183Y-39631100D01*
X53268944Y-39632044D01*
X53220424Y-39633399D01*
X53148404Y-39634158D01*
X53058330Y-39634301D01*
X52955648Y-39633809D01*
X52845801Y-39632662D01*
X52703363Y-39629932D01*
X52571030Y-39625101D01*
X52457208Y-39617914D01*
X52354953Y-39607926D01*
X52257322Y-39594687D01*
X52142059Y-39575420D01*
X51780389Y-39494479D01*
X51430171Y-39385025D01*
X51092781Y-39248304D01*
X50769594Y-39085560D01*
X50461984Y-38898040D01*
X50171326Y-38686988D01*
X49898995Y-38453651D01*
X49646367Y-38199274D01*
X49414815Y-37925102D01*
X49205715Y-37632381D01*
X49020442Y-37322356D01*
X48860370Y-36996273D01*
X48726875Y-36655378D01*
X48621331Y-36300915D01*
X48612094Y-36263986D01*
X48576592Y-36112594D01*
X48548861Y-35973866D01*
X48528059Y-35840408D01*
X48513344Y-35704829D01*
X48503876Y-35559736D01*
X48498812Y-35397735D01*
X48497311Y-35211434D01*
X48497312Y-35202001D01*
X48497388Y-35177213D01*
X48654933Y-35177213D01*
X48657086Y-35354121D01*
X48664113Y-35526026D01*
X48675955Y-35684590D01*
X48692552Y-35821473D01*
X48702070Y-35880794D01*
X48779201Y-36248210D01*
X48885649Y-36604091D01*
X49020959Y-36947393D01*
X49184675Y-37277074D01*
X49376343Y-37592089D01*
X49595508Y-37891397D01*
X49652939Y-37959825D01*
X49740483Y-38056771D01*
X49840730Y-38161928D01*
X49947114Y-38268726D01*
X50053067Y-38370599D01*
X50152021Y-38460979D01*
X50237410Y-38533299D01*
X50404643Y-38660136D01*
X50689644Y-38848843D01*
X50989259Y-39015977D01*
X51297313Y-39158207D01*
X51607626Y-39272200D01*
X51643605Y-39283471D01*
X51772792Y-39321044D01*
X51907636Y-39356419D01*
X52039236Y-39387460D01*
X52158693Y-39412033D01*
X52257108Y-39428003D01*
X52344370Y-39439260D01*
X52102036Y-39245790D01*
X52029873Y-39187349D01*
X51950012Y-39119506D01*
X51895245Y-39068112D01*
X51864827Y-39032377D01*
X51858012Y-39011514D01*
X51874055Y-39004734D01*
X51875879Y-39005222D01*
X51897610Y-39018744D01*
X51937704Y-39048026D01*
X51991161Y-39089321D01*
X52052985Y-39138882D01*
X52107541Y-39183313D01*
X52161146Y-39224935D01*
X52197138Y-39246481D01*
X52219754Y-39247684D01*
X52233234Y-39228282D01*
X52241815Y-39188008D01*
X52249736Y-39126600D01*
X52255165Y-39077427D01*
X52254440Y-39049664D01*
X52245144Y-39038562D01*
X52225214Y-39036544D01*
X52151883Y-39025264D01*
X52072894Y-38992653D01*
X52007960Y-38945170D01*
X51996911Y-38933864D01*
X51969898Y-38899320D01*
X51957872Y-38862577D01*
X51955131Y-38808933D01*
X51955170Y-38808301D01*
X52083477Y-38808301D01*
X52093208Y-38856191D01*
X52130084Y-38895507D01*
X52132733Y-38897414D01*
X52173312Y-38919157D01*
X52218139Y-38933687D01*
X52256441Y-38938424D01*
X52277441Y-38930789D01*
X52282324Y-38913935D01*
X52289543Y-38873163D01*
X52296647Y-38819482D01*
X52307782Y-38721707D01*
X52246053Y-38711278D01*
X52225565Y-38708613D01*
X52161485Y-38712229D01*
X52114077Y-38734237D01*
X52089358Y-38772294D01*
X52083477Y-38808301D01*
X51955170Y-38808301D01*
X51957737Y-38766177D01*
X51979527Y-38695371D01*
X52024195Y-38645799D01*
X52092667Y-38616650D01*
X52185870Y-38607114D01*
X52223516Y-38608396D01*
X52290655Y-38615368D01*
X52355249Y-38626766D01*
X52407552Y-38640723D01*
X52437814Y-38655372D01*
X52439908Y-38669629D01*
X52438047Y-38711032D01*
X52437022Y-38721707D01*
X52431998Y-38774013D01*
X52422285Y-38853263D01*
X52409431Y-38943473D01*
X52396207Y-39030739D01*
X52381664Y-39125688D01*
X52370300Y-39195832D01*
X52361096Y-39244995D01*
X52353035Y-39277002D01*
X52345099Y-39295676D01*
X52336269Y-39304842D01*
X52325527Y-39308325D01*
X52311854Y-39309947D01*
X52305707Y-39310834D01*
X52292101Y-39316032D01*
X52295406Y-39327388D01*
X52318551Y-39349099D01*
X52364464Y-39385362D01*
X52397796Y-39410521D01*
X52437527Y-39436216D01*
X52475571Y-39451616D01*
X52523076Y-39460771D01*
X52591189Y-39467732D01*
X52622447Y-39470135D01*
X52712414Y-39474486D01*
X52816366Y-39476736D01*
X52928581Y-39477030D01*
X53043336Y-39475513D01*
X53154909Y-39472329D01*
X53257577Y-39467625D01*
X53345617Y-39461546D01*
X53413307Y-39454235D01*
X53454924Y-39445839D01*
X53455379Y-39445145D01*
X53443330Y-39431117D01*
X53409989Y-39401646D01*
X53358900Y-39359658D01*
X53293607Y-39308081D01*
X53217655Y-39249844D01*
X53206148Y-39241114D01*
X53129459Y-39181551D01*
X53062473Y-39127205D01*
X53009173Y-39081480D01*
X52973544Y-39047776D01*
X52959571Y-39029496D01*
X52959155Y-39027243D01*
X52958442Y-39014511D01*
X52963685Y-39009069D01*
X52977643Y-39012633D01*
X53003077Y-39026922D01*
X53042747Y-39053654D01*
X53099413Y-39094546D01*
X53175833Y-39151316D01*
X53274769Y-39225682D01*
X53303784Y-39247634D01*
X53386511Y-39310748D01*
X53450230Y-39358126D01*
X53500672Y-39391277D01*
X53543568Y-39411709D01*
X53584646Y-39420929D01*
X53629639Y-39420447D01*
X53684275Y-39411771D01*
X53754287Y-39396408D01*
X53845403Y-39375866D01*
X54030518Y-39330602D01*
X54363379Y-39225081D01*
X54690433Y-39090694D01*
X55007737Y-38929338D01*
X55311351Y-38742908D01*
X55597335Y-38533299D01*
X55665763Y-38475868D01*
X55762710Y-38388324D01*
X55867866Y-38288076D01*
X55974664Y-38181693D01*
X56076537Y-38075740D01*
X56166917Y-37976785D01*
X56239237Y-37891397D01*
X56304195Y-37808149D01*
X56515900Y-37504138D01*
X56699547Y-37185239D01*
X56854978Y-36851819D01*
X56982037Y-36504245D01*
X57080565Y-36142884D01*
X57150404Y-35768103D01*
X57160862Y-35679073D01*
X57170806Y-35543491D01*
X57176938Y-35390803D01*
X57179256Y-35229122D01*
X57177763Y-35066563D01*
X57172456Y-34911241D01*
X57163337Y-34771271D01*
X57150404Y-34654766D01*
X57133567Y-34547406D01*
X57055596Y-34176384D01*
X56948981Y-33818886D01*
X56813880Y-33475279D01*
X56650451Y-33145929D01*
X56458851Y-32831204D01*
X56239237Y-32531472D01*
X56181806Y-32463044D01*
X56094262Y-32366097D01*
X55994015Y-32260941D01*
X55887631Y-32154143D01*
X55781678Y-32052270D01*
X55682724Y-31961890D01*
X55597335Y-31889570D01*
X55514087Y-31824612D01*
X55210076Y-31612907D01*
X54891177Y-31429260D01*
X54557757Y-31273828D01*
X54210183Y-31146770D01*
X53848822Y-31048242D01*
X53474041Y-30978402D01*
X53385011Y-30967945D01*
X53249430Y-30958001D01*
X53096741Y-30951869D01*
X52935060Y-30949550D01*
X52772502Y-30951044D01*
X52617180Y-30956351D01*
X52477209Y-30965470D01*
X52360704Y-30978402D01*
X52218573Y-31001115D01*
X51857036Y-31078788D01*
X51511406Y-31183144D01*
X51179443Y-31315030D01*
X50858906Y-31475295D01*
X50547554Y-31664788D01*
X50498716Y-31697877D01*
X50419075Y-31754124D01*
X50340003Y-31812369D01*
X50265757Y-31869255D01*
X50200597Y-31921423D01*
X50148782Y-31965513D01*
X50114570Y-31998166D01*
X50102219Y-32016025D01*
X50102386Y-32016882D01*
X50116202Y-32034729D01*
X50148990Y-32068378D01*
X50196209Y-32113346D01*
X50253315Y-32165150D01*
X50275887Y-32185370D01*
X50365535Y-32268316D01*
X50468499Y-32366845D01*
X50579522Y-32475667D01*
X50693348Y-32589488D01*
X50804721Y-32703017D01*
X50908383Y-32810961D01*
X50999078Y-32908029D01*
X51071550Y-32988929D01*
X51213077Y-33152146D01*
X51241510Y-33108803D01*
X51270719Y-33074994D01*
X51315477Y-33049763D01*
X51359306Y-33050812D01*
X51361303Y-33051633D01*
X51393193Y-33080918D01*
X51418312Y-33132893D01*
X51434577Y-33199246D01*
X51439907Y-33271665D01*
X51432218Y-33341839D01*
X51426477Y-33369862D01*
X51426116Y-33376959D01*
X51425198Y-33395031D01*
X51431724Y-33420645D01*
X51448710Y-33453076D01*
X51478807Y-33498696D01*
X51524671Y-33563878D01*
X51572832Y-33633125D01*
X51719760Y-33864276D01*
X51838739Y-34085698D01*
X51929738Y-34296900D01*
X51992727Y-34497394D01*
X52027677Y-34686690D01*
X52030137Y-34750194D01*
X52034557Y-34864299D01*
X52013338Y-35029732D01*
X51963989Y-35182499D01*
X51886481Y-35322111D01*
X51780783Y-35448079D01*
X51646867Y-35559913D01*
X51600867Y-35590101D01*
X51529956Y-35632623D01*
X51449216Y-35678063D01*
X51368703Y-35720614D01*
X51313448Y-35749761D01*
X51171596Y-35837661D01*
X51059272Y-35930572D01*
X50974823Y-36030750D01*
X50916593Y-36140451D01*
X50882927Y-36261932D01*
X50872170Y-36397449D01*
X50872824Y-36430557D01*
X50886119Y-36551745D01*
X50917775Y-36678221D01*
X50969426Y-36815455D01*
X51042703Y-36968917D01*
X51127373Y-37117685D01*
X51251089Y-37302950D01*
X51400082Y-37498971D01*
X51572692Y-37703790D01*
X51767255Y-37915445D01*
X51982109Y-38131979D01*
X52215592Y-38351430D01*
X52282192Y-38412693D01*
X52342284Y-38469387D01*
X52389804Y-38515750D01*
X52421039Y-38548156D01*
X52432275Y-38562983D01*
X52427369Y-38574697D01*
X52406949Y-38572281D01*
X52369516Y-38550262D01*
X52313846Y-38507773D01*
X52238718Y-38443948D01*
X52142909Y-38357922D01*
X51992491Y-38217540D01*
X51758145Y-37985591D01*
X51548636Y-37760444D01*
X51364418Y-37542810D01*
X51205948Y-37333402D01*
X51073680Y-37132933D01*
X50968070Y-36942116D01*
X50889573Y-36761664D01*
X50838645Y-36592288D01*
X50815741Y-36434702D01*
X50821316Y-36289619D01*
X50832314Y-36231287D01*
X50880430Y-36093919D01*
X50957334Y-35967435D01*
X51061757Y-35853336D01*
X51192426Y-35753120D01*
X51348070Y-35668288D01*
X51491030Y-35595133D01*
X51646323Y-35491586D01*
X51772484Y-35375851D01*
X51869773Y-35247635D01*
X51938449Y-35106644D01*
X51978772Y-34952582D01*
X51989871Y-34884587D01*
X51837764Y-34980415D01*
X51782817Y-35014732D01*
X51730671Y-35046629D01*
X51694010Y-35068271D01*
X51678508Y-35076243D01*
X51674929Y-35072198D01*
X51658251Y-35045701D01*
X51630825Y-34998582D01*
X51595416Y-34935636D01*
X51554791Y-34861663D01*
X51438224Y-34647082D01*
X51426391Y-34738400D01*
X51392943Y-34891089D01*
X51328473Y-35044767D01*
X51235305Y-35186664D01*
X51114358Y-35315394D01*
X50966555Y-35429574D01*
X50941917Y-35445168D01*
X50879109Y-35481956D01*
X50804855Y-35522813D01*
X50730460Y-35561426D01*
X50645191Y-35605323D01*
X50561834Y-35652584D01*
X50494252Y-35697682D01*
X50434826Y-35745788D01*
X50375935Y-35802076D01*
X50346720Y-35834241D01*
X50273955Y-35942851D01*
X50222980Y-36066019D01*
X50196596Y-36195559D01*
X50197606Y-36323281D01*
X50216992Y-36434859D01*
X50265125Y-36602536D01*
X50337441Y-36777385D01*
X50434571Y-36960371D01*
X50557146Y-37152457D01*
X50705798Y-37354609D01*
X50881156Y-37567791D01*
X51083853Y-37792969D01*
X51314518Y-38031107D01*
X51318722Y-38035313D01*
X51399011Y-38116223D01*
X51471221Y-38190033D01*
X51532445Y-38253687D01*
X51579776Y-38304131D01*
X51610307Y-38338314D01*
X51621130Y-38353179D01*
X51618919Y-38363670D01*
X51606751Y-38366612D01*
X51581843Y-38353562D01*
X51541815Y-38322838D01*
X51484287Y-38272756D01*
X51406879Y-38201632D01*
X51365553Y-38162686D01*
X51201067Y-38000158D01*
X51037101Y-37826936D01*
X50878726Y-37648858D01*
X50731014Y-37471763D01*
X50599038Y-37301488D01*
X50487869Y-37143870D01*
X50431704Y-37056440D01*
X50316770Y-36853738D01*
X50231035Y-36662898D01*
X50174508Y-36484006D01*
X50147199Y-36317148D01*
X50149117Y-36162409D01*
X50180274Y-36019875D01*
X50240678Y-35889631D01*
X50330339Y-35771763D01*
X50352791Y-35748588D01*
X50450614Y-35664088D01*
X50569399Y-35585576D01*
X50714555Y-35509358D01*
X50823302Y-35453301D01*
X50989281Y-35346752D01*
X51126125Y-35228691D01*
X51233618Y-35099355D01*
X51311542Y-34958980D01*
X51359681Y-34807802D01*
X51365284Y-34781070D01*
X51377316Y-34716817D01*
X51383278Y-34662198D01*
X51381828Y-34611868D01*
X51371621Y-34560480D01*
X51351314Y-34502686D01*
X51319564Y-34433141D01*
X51275026Y-34346496D01*
X51216359Y-34237406D01*
X51182289Y-34173978D01*
X51124747Y-34063013D01*
X51084181Y-33978450D01*
X51060471Y-33920033D01*
X51053495Y-33887500D01*
X51053879Y-33879847D01*
X51048323Y-33851381D01*
X51026017Y-33843620D01*
X51012284Y-33847722D01*
X50979083Y-33878512D01*
X50937320Y-33939049D01*
X50907804Y-33983086D01*
X50873622Y-34022679D01*
X50847619Y-34039158D01*
X50838623Y-34040692D01*
X50826876Y-34046664D01*
X50824003Y-34062263D01*
X50829770Y-34094526D01*
X50843946Y-34150491D01*
X50853638Y-34192555D01*
X50870918Y-34322596D01*
X50873182Y-34459069D01*
X50860650Y-34590369D01*
X50833538Y-34704890D01*
X50785530Y-34823847D01*
X50722726Y-34933526D01*
X50642885Y-35034799D01*
X50543142Y-35130407D01*
X50420631Y-35223092D01*
X50272486Y-35315595D01*
X50095842Y-35410659D01*
X50037532Y-35441350D01*
X49903927Y-35523347D01*
X49797920Y-35608636D01*
X49716455Y-35699922D01*
X49656479Y-35799913D01*
X49648868Y-35816210D01*
X49629102Y-35865670D01*
X49616508Y-35915341D01*
X49608951Y-35975752D01*
X49604297Y-36057434D01*
X49603208Y-36087010D01*
X49602597Y-36163566D01*
X49607433Y-36226496D01*
X49619282Y-36289444D01*
X49639709Y-36366050D01*
X49663797Y-36442466D01*
X49742941Y-36636960D01*
X49850614Y-36842438D01*
X49986248Y-37057965D01*
X50149273Y-37282603D01*
X50339119Y-37515418D01*
X50372018Y-37554004D01*
X50418116Y-37609993D01*
X50445694Y-37647690D01*
X50456690Y-37670455D01*
X50453043Y-37681650D01*
X50436690Y-37684634D01*
X50419327Y-37675794D01*
X50384217Y-37644249D01*
X50336129Y-37593233D01*
X50277940Y-37526316D01*
X50212525Y-37447067D01*
X50142760Y-37359057D01*
X50071521Y-37265855D01*
X50001684Y-37171030D01*
X49936125Y-37078153D01*
X49877719Y-36990793D01*
X49863071Y-36967759D01*
X49793733Y-36849746D01*
X49726953Y-36722550D01*
X49666858Y-36594833D01*
X49617572Y-36475258D01*
X49583221Y-36372486D01*
X49565336Y-36294310D01*
X49549979Y-36176324D01*
X49546299Y-36058126D01*
X49554459Y-35949582D01*
X49574628Y-35860560D01*
X49589726Y-35821345D01*
X49650378Y-35706744D01*
X49729439Y-35600702D01*
X49818726Y-35514813D01*
X49822162Y-35512152D01*
X49874454Y-35476127D01*
X49945822Y-35432384D01*
X50027318Y-35386207D01*
X50109998Y-35342874D01*
X50162119Y-35316148D01*
X50343740Y-35210171D01*
X50494921Y-35098866D01*
X50616564Y-34981073D01*
X50709568Y-34855635D01*
X50774836Y-34721391D01*
X50813268Y-34577182D01*
X50825764Y-34421850D01*
X50825422Y-34402357D01*
X50820012Y-34330190D01*
X50809244Y-34253088D01*
X50794695Y-34178381D01*
X50777938Y-34113397D01*
X50760550Y-34065465D01*
X50744105Y-34041915D01*
X50731689Y-34033794D01*
X50697464Y-34008982D01*
X50655343Y-33976716D01*
X50588180Y-33923983D01*
X50627510Y-33882931D01*
X50640323Y-33869112D01*
X50662526Y-33836099D01*
X50660508Y-33807491D01*
X50635031Y-33772048D01*
X50614140Y-33742697D01*
X51258136Y-33742697D01*
X51269115Y-33753882D01*
X51306087Y-33759112D01*
X51311362Y-33759752D01*
X51325867Y-33763638D01*
X51341181Y-33772703D01*
X51359322Y-33789665D01*
X51382306Y-33817241D01*
X51412153Y-33858148D01*
X51450879Y-33915104D01*
X51500503Y-33990825D01*
X51563043Y-34088028D01*
X51640517Y-34209431D01*
X51683490Y-34276881D01*
X51750560Y-34382092D01*
X51811979Y-34478364D01*
X51865462Y-34562118D01*
X51908721Y-34629775D01*
X51939472Y-34677755D01*
X51955427Y-34702480D01*
X51986678Y-34750194D01*
X51976653Y-34670670D01*
X51961450Y-34583295D01*
X51920231Y-34433104D01*
X51859543Y-34269205D01*
X51781657Y-34096487D01*
X51688844Y-33919841D01*
X51583375Y-33744158D01*
X51467521Y-33574327D01*
X51435343Y-33531809D01*
X51404272Y-33498095D01*
X51377775Y-33481746D01*
X51349169Y-33477280D01*
X51301064Y-33476751D01*
X51304763Y-33567381D01*
X51305183Y-33581359D01*
X51300317Y-33650831D01*
X51281890Y-33698566D01*
X51269838Y-33717271D01*
X51258136Y-33742697D01*
X50614140Y-33742697D01*
X50612906Y-33740963D01*
X50603221Y-33715688D01*
X50602996Y-33712626D01*
X50590129Y-33678954D01*
X50559423Y-33625496D01*
X50513581Y-33555883D01*
X50455303Y-33473742D01*
X50387293Y-33382704D01*
X50312253Y-33286397D01*
X50232883Y-33188450D01*
X50151886Y-33092492D01*
X50071965Y-33002152D01*
X50069985Y-32999978D01*
X50018544Y-32945335D01*
X49957217Y-32882934D01*
X49890037Y-32816573D01*
X49821034Y-32750050D01*
X49754240Y-32687161D01*
X49693684Y-32631704D01*
X49643399Y-32587477D01*
X49607416Y-32558277D01*
X49589765Y-32547901D01*
X49583639Y-32552097D01*
X49561111Y-32576650D01*
X49527589Y-32618233D01*
X49487775Y-32671163D01*
X49309422Y-32933877D01*
X49127411Y-33251957D01*
X48974422Y-33581772D01*
X48849921Y-33924635D01*
X48753376Y-34281862D01*
X48684255Y-34654766D01*
X48678313Y-34699865D01*
X48665487Y-34841746D01*
X48657714Y-35003642D01*
X48654933Y-35177213D01*
X48497388Y-35177213D01*
X48497736Y-35064070D01*
X48499144Y-34951550D01*
X48501857Y-34858418D01*
X48506198Y-34778653D01*
X48512490Y-34706233D01*
X48521054Y-34635135D01*
X48532213Y-34559337D01*
X48569497Y-34351897D01*
X48659843Y-33984529D01*
X48779005Y-33629221D01*
X48926335Y-33287257D01*
X49101188Y-32959918D01*
X49302915Y-32648485D01*
X49420273Y-32497000D01*
X49633268Y-32497000D01*
X49633537Y-32497840D01*
X49648025Y-32514471D01*
X49681354Y-32547040D01*
X49729009Y-32591250D01*
X49786478Y-32642806D01*
X49831954Y-32683981D01*
X49949217Y-32797367D01*
X50073057Y-32925760D01*
X50195910Y-33060938D01*
X50310212Y-33194678D01*
X50408399Y-33318761D01*
X50412536Y-33324257D01*
X50458528Y-33384489D01*
X50497682Y-33434265D01*
X50525965Y-33468551D01*
X50539346Y-33482310D01*
X50540347Y-33482379D01*
X50555848Y-33469024D01*
X50582370Y-33435888D01*
X50614799Y-33389277D01*
X50678895Y-33291743D01*
X50565510Y-33091912D01*
X50558283Y-33079199D01*
X50519304Y-33012161D01*
X50484316Y-32956423D01*
X50448848Y-32906411D01*
X50408429Y-32856549D01*
X50358589Y-32801266D01*
X50294855Y-32734985D01*
X50212757Y-32652134D01*
X50199184Y-32638549D01*
X50122367Y-32562406D01*
X50048522Y-32490355D01*
X49982485Y-32427040D01*
X49929091Y-32377105D01*
X49893176Y-32345196D01*
X49812964Y-32278206D01*
X49722996Y-32382296D01*
X49706120Y-32402013D01*
X49668777Y-32447244D01*
X49642889Y-32480957D01*
X49633268Y-32497000D01*
X49420273Y-32497000D01*
X49530870Y-32354241D01*
X49641595Y-32233805D01*
X49858152Y-32233805D01*
X50121222Y-32489996D01*
X50164439Y-32531991D01*
X50236077Y-32601175D01*
X50298390Y-32660815D01*
X50348028Y-32707730D01*
X50381643Y-32738743D01*
X50395884Y-32750674D01*
X50397766Y-32750724D01*
X50419743Y-32740434D01*
X50458451Y-32716074D01*
X50506894Y-32681973D01*
X50518726Y-32673321D01*
X50564000Y-32641377D01*
X50596713Y-32620153D01*
X50610449Y-32613867D01*
X50618992Y-32627564D01*
X50641855Y-32665022D01*
X50676824Y-32722603D01*
X50721710Y-32796699D01*
X50774325Y-32883701D01*
X50832480Y-32980000D01*
X50888811Y-33072128D01*
X50944187Y-33160224D01*
X50993163Y-33235630D01*
X51031311Y-33291743D01*
X51033301Y-33294670D01*
X51062160Y-33333665D01*
X51077299Y-33348939D01*
X51079422Y-33349543D01*
X51115097Y-33357904D01*
X51161177Y-33366893D01*
X51218131Y-33376959D01*
X51207972Y-33297770D01*
X51204825Y-33277107D01*
X51196263Y-33244779D01*
X51180684Y-33212080D01*
X51154479Y-33173230D01*
X51114041Y-33122448D01*
X51055761Y-33053956D01*
X51015091Y-33007952D01*
X50939144Y-32925393D01*
X50848210Y-32829369D01*
X50746858Y-32724485D01*
X50639657Y-32615348D01*
X50531178Y-32506563D01*
X50425989Y-32402735D01*
X50328660Y-32308472D01*
X50243761Y-32228377D01*
X50175860Y-32167058D01*
X50042739Y-32051145D01*
X49950445Y-32142475D01*
X49858152Y-32233805D01*
X49641595Y-32233805D01*
X49784406Y-32078468D01*
X49934238Y-31935423D01*
X50220364Y-31695925D01*
X50524252Y-31482364D01*
X50844622Y-31295388D01*
X51180190Y-31135645D01*
X51529677Y-31003780D01*
X51891799Y-30900441D01*
X52265275Y-30826275D01*
X52397594Y-30809954D01*
X52556812Y-30797925D01*
X52731906Y-30790684D01*
X52914990Y-30788228D01*
X53098176Y-30790560D01*
X53273576Y-30797678D01*
X53433303Y-30809583D01*
X53569470Y-30826275D01*
X53776910Y-30863559D01*
X54144278Y-30953905D01*
X54499586Y-31073067D01*
X54841550Y-31220397D01*
X55168889Y-31395250D01*
X55480322Y-31596977D01*
X55774565Y-31824932D01*
X56050339Y-32078468D01*
X56193384Y-32228300D01*
X56432882Y-32514425D01*
X56646443Y-32818314D01*
X56833419Y-33138683D01*
X56993162Y-33474252D01*
X57125027Y-33823739D01*
X57228366Y-34185861D01*
X57302532Y-34559337D01*
X57303298Y-34564239D01*
X57314289Y-34639575D01*
X57322704Y-34710581D01*
X57328866Y-34783279D01*
X57333098Y-34863691D01*
X57335722Y-34957839D01*
X57337060Y-35071746D01*
X57337434Y-35211434D01*
X57337406Y-35229122D01*
X57337362Y-35256280D01*
G37*
G36*
X26818025Y-37030582D02*
G01*
X26818350Y-37071356D01*
X26818450Y-37122915D01*
X26818450Y-37296976D01*
X26838616Y-37296976D01*
X26840409Y-37296953D01*
X26854612Y-37295078D01*
X26862405Y-37291115D01*
X26865432Y-37286993D01*
X26870672Y-37285606D01*
X26874288Y-37294710D01*
X26876381Y-37314689D01*
X26876505Y-37320419D01*
X26877056Y-37345930D01*
X26877056Y-37406606D01*
X26986943Y-37474555D01*
X27010354Y-37489004D01*
X27040833Y-37507614D01*
X27063608Y-37521060D01*
X27080046Y-37530005D01*
X27091516Y-37535111D01*
X27099388Y-37537041D01*
X27105030Y-37536457D01*
X27109810Y-37534022D01*
X27119198Y-37528405D01*
X27125927Y-37525540D01*
X27126985Y-37529170D01*
X27128107Y-37542368D01*
X27128906Y-37562956D01*
X27129256Y-37588542D01*
X27129448Y-37651544D01*
X27211140Y-37701359D01*
X27237897Y-37717924D01*
X27262941Y-37734282D01*
X27279258Y-37746296D01*
X27287740Y-37754635D01*
X27289277Y-37759966D01*
X27288377Y-37762251D01*
X27283476Y-37775331D01*
X27277370Y-37792199D01*
X27270918Y-37808848D01*
X27261323Y-37831730D01*
X27250919Y-37855201D01*
X27232820Y-37894761D01*
X26542407Y-37894761D01*
X25851993Y-37894761D01*
X25839490Y-37866922D01*
X25838612Y-37864949D01*
X25830005Y-37844552D01*
X25819719Y-37818855D01*
X25809791Y-37792934D01*
X25803335Y-37775358D01*
X25798023Y-37759102D01*
X25796407Y-37749306D01*
X25798165Y-37743403D01*
X25802973Y-37738822D01*
X25803012Y-37738792D01*
X25814819Y-37730461D01*
X25832679Y-37718699D01*
X25854322Y-37704907D01*
X25877476Y-37690484D01*
X25899871Y-37676829D01*
X25919237Y-37665343D01*
X25933302Y-37657425D01*
X25939798Y-37654474D01*
X25941677Y-37650471D01*
X25943512Y-37636873D01*
X25944756Y-37615893D01*
X25945215Y-37589872D01*
X25945215Y-37525270D01*
X25958532Y-37533996D01*
X25961706Y-37535850D01*
X25966888Y-37537317D01*
X25973717Y-37536570D01*
X25983588Y-37532962D01*
X25997896Y-37525848D01*
X26018033Y-37514579D01*
X26045395Y-37498508D01*
X26081374Y-37476990D01*
X26190899Y-37411258D01*
X26191130Y-37348256D01*
X26191237Y-37333957D01*
X26191914Y-37309944D01*
X26193403Y-37295025D01*
X26195951Y-37287396D01*
X26199807Y-37285254D01*
X26203394Y-37285722D01*
X26211874Y-37291115D01*
X26212272Y-37291632D01*
X26221065Y-37295423D01*
X26235662Y-37296976D01*
X26255829Y-37296976D01*
X26255829Y-37122915D01*
X26255830Y-37117657D01*
X26255949Y-37067138D01*
X26256297Y-37027315D01*
X26256668Y-37009269D01*
X26314435Y-37009269D01*
X26314435Y-37164843D01*
X26314435Y-37320418D01*
X26353994Y-37320418D01*
X26393554Y-37320419D01*
X26392407Y-37166577D01*
X26391261Y-37012735D01*
X26352848Y-37011002D01*
X26326294Y-37009804D01*
X26431648Y-37009804D01*
X26431648Y-37165111D01*
X26431648Y-37320418D01*
X26472672Y-37320418D01*
X26513697Y-37320418D01*
X26513697Y-37165111D01*
X26548861Y-37165111D01*
X26548861Y-37320418D01*
X26589885Y-37320418D01*
X26630910Y-37320418D01*
X26665879Y-37320418D01*
X26707001Y-37320418D01*
X26748122Y-37320418D01*
X26748122Y-37164843D01*
X26748122Y-37009269D01*
X26735910Y-37009804D01*
X26708563Y-37011002D01*
X26669004Y-37012735D01*
X26667441Y-37166576D01*
X26665879Y-37320418D01*
X26630910Y-37320418D01*
X26630910Y-37165111D01*
X26630910Y-37009804D01*
X26589885Y-37009804D01*
X26548861Y-37009804D01*
X26548861Y-37165111D01*
X26513697Y-37165111D01*
X26513697Y-37009804D01*
X26472672Y-37009804D01*
X26431648Y-37009804D01*
X26326294Y-37009804D01*
X26314435Y-37009269D01*
X26256668Y-37009269D01*
X26256915Y-36997253D01*
X26257840Y-36976016D01*
X26259114Y-36962666D01*
X26260774Y-36956269D01*
X26262862Y-36955886D01*
X26266899Y-36959219D01*
X26280463Y-36963235D01*
X26298610Y-36959555D01*
X26322427Y-36947842D01*
X26353000Y-36927755D01*
X26368036Y-36917348D01*
X26387796Y-36904574D01*
X26402995Y-36895832D01*
X26411202Y-36892592D01*
X26415445Y-36891025D01*
X26418914Y-36882347D01*
X26419927Y-36864197D01*
X26420458Y-36852446D01*
X26426094Y-36832480D01*
X26438954Y-36820662D01*
X26460360Y-36815396D01*
X26475166Y-36811617D01*
X26486733Y-36801887D01*
X26493342Y-36791881D01*
X26509375Y-36779450D01*
X26531836Y-36775565D01*
X26544364Y-36776830D01*
X26562414Y-36786569D01*
X26574159Y-36806147D01*
X26574516Y-36807057D01*
X26582563Y-36814208D01*
X26599496Y-36816403D01*
X26612281Y-36817334D01*
X26629790Y-36824550D01*
X26639583Y-36839811D01*
X26642631Y-36864197D01*
X26642659Y-36869182D01*
X26643718Y-36884121D01*
X26647178Y-36890957D01*
X26654223Y-36892592D01*
X26658723Y-36893770D01*
X26672206Y-36900750D01*
X26690628Y-36912605D01*
X26711364Y-36927724D01*
X26719634Y-36934049D01*
X26739996Y-36948718D01*
X26755143Y-36957496D01*
X26767789Y-36961760D01*
X26780649Y-36962888D01*
X26785214Y-36962769D01*
X26801373Y-36960383D01*
X26811417Y-36955886D01*
X26811630Y-36955694D01*
X26813676Y-36956594D01*
X26815299Y-36963597D01*
X26816538Y-36977638D01*
X26817434Y-36999655D01*
X26817618Y-37009269D01*
X26818025Y-37030582D01*
G37*
%TD*%
M02*
