%TF.GenerationSoftware,KiCad,Pcbnew,9.0.4*%
%TF.CreationDate,2026-02-16T08:56:39-05:00*%
%TF.ProjectId,destinationWeatherStation_v4-5,64657374-696e-4617-9469-6f6e57656174,03*%
%TF.SameCoordinates,PX6bcb370PY43d3480*%
%TF.FileFunction,Copper,L2,Bot*%
%TF.FilePolarity,Positive*%
%FSLAX46Y46*%
G04 Gerber Fmt 4.6, Leading zero omitted, Abs format (unit mm)*
G04 Created by KiCad (PCBNEW 9.0.4) date 2026-02-16 08:56:39*
%MOMM*%
%LPD*%
G01*
G04 APERTURE LIST*
%TA.AperFunction,ComponentPad*%
%ADD10C,1.750000*%
%TD*%
%TA.AperFunction,ComponentPad*%
%ADD11O,2.100000X1.300000*%
%TD*%
%TA.AperFunction,ComponentPad*%
%ADD12C,1.500000*%
%TD*%
%TA.AperFunction,ViaPad*%
%ADD13C,0.700000*%
%TD*%
%TA.AperFunction,ViaPad*%
%ADD14C,1.000000*%
%TD*%
%TA.AperFunction,ViaPad*%
%ADD15C,0.800000*%
%TD*%
%TA.AperFunction,Conductor*%
%ADD16C,0.250000*%
%TD*%
%TA.AperFunction,Conductor*%
%ADD17C,0.500000*%
%TD*%
%TA.AperFunction,Conductor*%
%ADD18C,0.200000*%
%TD*%
G04 APERTURE END LIST*
D10*
%TO.P,U1,1,D0*%
%TO.N,/SW2*%
X10160000Y-5080000D03*
%TO.P,U1,2,D1*%
%TO.N,/SW3*%
X10160000Y-7620000D03*
%TO.P,U1,3,D2*%
%TO.N,/CD*%
X10160000Y-10160000D03*
%TO.P,U1,4,D3*%
%TO.N,/CS_SD*%
X10160000Y-12700000D03*
%TO.P,U1,5,D4*%
%TO.N,/SDA*%
X10160000Y-15240000D03*
%TO.P,U1,6,D5*%
%TO.N,/SCL*%
X10160000Y-17780000D03*
%TO.P,U1,7,D6*%
%TO.N,/SW4*%
X10160000Y-20320000D03*
%TO.P,U1,8,D7*%
%TO.N,/SW5*%
X25400000Y-20320000D03*
%TO.P,U1,9,D8*%
%TO.N,/SCK*%
X25400000Y-17780000D03*
%TO.P,U1,10,D9*%
%TO.N,/MISO*%
X25400000Y-15240000D03*
%TO.P,U1,11,D10*%
%TO.N,/MOSI*%
X25400000Y-12700000D03*
%TO.P,U1,12,3V3*%
%TO.N,+3V3*%
X25400000Y-10160000D03*
%TO.P,U1,13,GND*%
%TO.N,GND*%
X25400000Y-7620000D03*
%TO.P,U1,14,VIN*%
%TO.N,VCC*%
X25400000Y-5080000D03*
%TD*%
%TO.P,U3,1,GND*%
%TO.N,/OLED1*%
X38100000Y-21590000D03*
%TO.P,U3,2,VCC*%
%TO.N,/OLED2*%
X40640000Y-21590000D03*
%TO.P,U3,3,SCL*%
%TO.N,/SCL*%
X43180000Y-21590000D03*
%TO.P,U3,4,SDA*%
%TO.N,/SDA*%
X45720000Y-21590000D03*
%TD*%
D11*
%TO.P,SW1,*%
%TO.N,*%
X52324000Y-13752000D03*
X52324000Y-5552000D03*
D12*
%TO.P,SW1,1,A*%
%TO.N,Net-(SW1-A)*%
X52324000Y-11652000D03*
%TO.P,SW1,2,B*%
%TO.N,Net-(J1-Pin_1)*%
X52324000Y-9652000D03*
%TO.P,SW1,3,C*%
%TO.N,unconnected-(SW1-C-Pad3)*%
X52324000Y-7652000D03*
%TD*%
D13*
%TO.N,+3V3*%
X19564000Y-41408000D03*
X21336000Y-41402000D03*
%TO.N,GND*%
X27305000Y-19050000D03*
X4445000Y-21590000D03*
X52070000Y-3810000D03*
X19685000Y-6985000D03*
X55880000Y-21590000D03*
X59055000Y-21590000D03*
X53340000Y-30480000D03*
X33020000Y-27940000D03*
X39370000Y-20320000D03*
X4572000Y-24384000D03*
X59055000Y-31750000D03*
X27940000Y-22860000D03*
X24130000Y-36830000D03*
X12700000Y-17145000D03*
X34925000Y-5715000D03*
X47625000Y-17780000D03*
X14605000Y-6985000D03*
X17145000Y-9525000D03*
X45720000Y-33020000D03*
X15875000Y-29210000D03*
X33020000Y-33020000D03*
X47117000Y-5461000D03*
X55880000Y-6350000D03*
X21590000Y-34290000D03*
X53340000Y-25400000D03*
X27305000Y-1905000D03*
X15875000Y-38735000D03*
X55880000Y-41275000D03*
X22225000Y-9525000D03*
X44450000Y-3810000D03*
X55880000Y-11430000D03*
X24130000Y-21717000D03*
X26035000Y-29845000D03*
X38100000Y-38735000D03*
X4884000Y-31914000D03*
X3302000Y-43561000D03*
X21590000Y-29210000D03*
X40640000Y-30480000D03*
X53340000Y-48895000D03*
X2921000Y-24384000D03*
X59055000Y-29210000D03*
X35560000Y-41275000D03*
X59055000Y-36830000D03*
X53340000Y-21590000D03*
X48260000Y-48895000D03*
X10795000Y-38735000D03*
X23495000Y-5715000D03*
X27305000Y-8890000D03*
X55880000Y-33020000D03*
X2540000Y-12065000D03*
X35560000Y-46355000D03*
X62230000Y-25400000D03*
X40640000Y-25400000D03*
X58420000Y-38735000D03*
X55880000Y-8890000D03*
X59055000Y-16891000D03*
X1270000Y-41910000D03*
X6350000Y-5080000D03*
X21590000Y-3810000D03*
X48260000Y-38735000D03*
X60960000Y-41275000D03*
D14*
X19304000Y-47879000D03*
D13*
X5080000Y-9525000D03*
X55880000Y-13970000D03*
X33020000Y-22860000D03*
X29210000Y-10795000D03*
X5080000Y-41910000D03*
X47117000Y-10293350D03*
X22225000Y-14478000D03*
X29210000Y-36830000D03*
X47117000Y-8128000D03*
X24130000Y-31750000D03*
X55880000Y-16510000D03*
X5715000Y-38735000D03*
X2540000Y-16510000D03*
X45085000Y-15875000D03*
X34925000Y-1905000D03*
X48260000Y-3810000D03*
X46990000Y-20320000D03*
X59055000Y-26670000D03*
X13335000Y-46355000D03*
X5715000Y-43815000D03*
X38989000Y-11938000D03*
X14605000Y-12065000D03*
X49530000Y-22860000D03*
X29210000Y-41910000D03*
X53340000Y-16510000D03*
X15875000Y-33655000D03*
X62230000Y-11430000D03*
X47117000Y-4318000D03*
X38100000Y-48895000D03*
X59055000Y-34290000D03*
X33020000Y-3810000D03*
D15*
X55880000Y-1905000D03*
D13*
X62230000Y-21590000D03*
X40640000Y-41275000D03*
X50800000Y-41275000D03*
X62230000Y-6350000D03*
X17145000Y-14605000D03*
X47117000Y-6350000D03*
X30480000Y-30480000D03*
X59055000Y-24130000D03*
X46355000Y-1905000D03*
X6985000Y-24130000D03*
X39370000Y-22860000D03*
X50165000Y-5715000D03*
X50165000Y-9525000D03*
X12065000Y-9525000D03*
X35560000Y-25400000D03*
X55880000Y-27940000D03*
X38735000Y-1905000D03*
X58420000Y-48895000D03*
X29210000Y-3810000D03*
X62230000Y-16510000D03*
X22225000Y-16510000D03*
X31115000Y-8890000D03*
X38608000Y-10033000D03*
X31115000Y-12700000D03*
X35560000Y-20320000D03*
X38100000Y-27940000D03*
X50800000Y-33020000D03*
X25400000Y-25400000D03*
X19685000Y-12065000D03*
X22225000Y-20574000D03*
X55880000Y-46355000D03*
X21590000Y-39370000D03*
X33655000Y-37465000D03*
X31115000Y-1905000D03*
X8255000Y-41275000D03*
X19685000Y-1905000D03*
X33020000Y-43815000D03*
X33020000Y-48895000D03*
X10795000Y-43815000D03*
X55880000Y-19050000D03*
X53340000Y-38735000D03*
X43180000Y-43815000D03*
X47117000Y-9271000D03*
X23495000Y-27305000D03*
X33020000Y-17780000D03*
X27305000Y-5715000D03*
X39370000Y-18542000D03*
X9144000Y-28448000D03*
X5715000Y-48895000D03*
X43180000Y-38735000D03*
X30480000Y-15240000D03*
X6985000Y-21590000D03*
X44450000Y-20320000D03*
X15875000Y-43815000D03*
X23495000Y-1905000D03*
X2540000Y-7620000D03*
X30480000Y-46355000D03*
X46228000Y-4318000D03*
X17145000Y-4445000D03*
X19431000Y-16891000D03*
X24130000Y-41910000D03*
X6350000Y-1270000D03*
X15875000Y-46355000D03*
X41910000Y-22860000D03*
X48260000Y-13970000D03*
X35560000Y-15240000D03*
X50800000Y-19050000D03*
X43180000Y-35560000D03*
X31750000Y-39370000D03*
X46990000Y-25400000D03*
X45720000Y-46355000D03*
X46990000Y-22860000D03*
X26670000Y-44450000D03*
X43180000Y-48895000D03*
X30480000Y-25400000D03*
X62230000Y-30480000D03*
X3175000Y-40005000D03*
X28575000Y-32385000D03*
X48260000Y-30480000D03*
X27940000Y-27940000D03*
X4191000Y-30353000D03*
X48260000Y-43815000D03*
X50800000Y-46355000D03*
D14*
X21590000Y-43561000D03*
D13*
X40640000Y-46355000D03*
X58420000Y-43815000D03*
X48260000Y-35560000D03*
X10795000Y-48895000D03*
X12700000Y-14605000D03*
X15875000Y-1905000D03*
X30480000Y-20320000D03*
X34925000Y-12700000D03*
D15*
X5842000Y-28575000D03*
D13*
X7620000Y-12065000D03*
X53340000Y-35560000D03*
X42545000Y-1905000D03*
X50800000Y-16510000D03*
D14*
X4978400Y-15011400D03*
D13*
X15875000Y-48895000D03*
X12700000Y-19685000D03*
X35560000Y-35560000D03*
X26670000Y-34290000D03*
X45720000Y-41275000D03*
X50800000Y-27940000D03*
X62230000Y-35560000D03*
X27305000Y-16510000D03*
X8255000Y-46355000D03*
X3175000Y-36195000D03*
X38100000Y-43815000D03*
X15240000Y-17145000D03*
X36830000Y-10795000D03*
X12065000Y-4445000D03*
X50165000Y-1905000D03*
X8382000Y-31750000D03*
X13335000Y-41275000D03*
X27940000Y-48895000D03*
X31115000Y-34925000D03*
X38100000Y-33020000D03*
X27305000Y-13970000D03*
X6985000Y-19050000D03*
X26670000Y-39370000D03*
X35560000Y-30480000D03*
X53340000Y-43815000D03*
X40640000Y-3810000D03*
X41910000Y-20320000D03*
X53340000Y-19050000D03*
%TO.N,VCC*%
X38989000Y-6858000D03*
X38989000Y-8636000D03*
%TO.N,/SDA*%
X10287000Y-23749000D03*
X17145000Y-24638000D03*
X12954000Y-23749000D03*
X20955000Y-25527000D03*
%TO.N,/SCL*%
X20955000Y-24130000D03*
X13462000Y-22352000D03*
X10541000Y-22352000D03*
X18288000Y-23749000D03*
%TO.N,/MISO*%
X11150600Y-26416000D03*
X11150600Y-24892000D03*
X16573500Y-17716500D03*
X17653000Y-16637000D03*
%TO.N,/SCK*%
X19431000Y-18415000D03*
X12090400Y-24892000D03*
X18288000Y-19558000D03*
X11161500Y-27432000D03*
%TO.N,/MOSI*%
X20320000Y-20955000D03*
X18288000Y-20955000D03*
%TO.N,/CS_SD*%
X9144000Y-24765000D03*
X11366500Y-29400500D03*
%TO.N,/SW4*%
X36763190Y-35747190D03*
X38227000Y-37211000D03*
X22987000Y-22352000D03*
X18288000Y-22352000D03*
X20320000Y-22352000D03*
X14528800Y-21234400D03*
X22987000Y-23876000D03*
%TO.N,/SW5*%
X26860500Y-23685500D03*
X39878000Y-36703000D03*
X37874617Y-34699617D03*
%TD*%
D16*
%TO.N,+3V3*%
X21330000Y-41408000D02*
X21336000Y-41402000D01*
X19564000Y-41408000D02*
X21330000Y-41408000D01*
D17*
%TO.N,VCC*%
X38989000Y-8636000D02*
X38989000Y-6858000D01*
D18*
%TO.N,/SDA*%
X10287000Y-23749000D02*
X12954000Y-23749000D01*
X18034000Y-25527000D02*
X20955000Y-25527000D01*
X17145000Y-24638000D02*
X18034000Y-25527000D01*
%TO.N,/SCL*%
X20955000Y-24130000D02*
X20599400Y-23774400D01*
X20599400Y-23774400D02*
X18288000Y-23774400D01*
X10541000Y-22352000D02*
X13462000Y-22352000D01*
%TO.N,/MISO*%
X11150600Y-24892000D02*
X11150600Y-26416000D01*
X16573500Y-17716500D02*
X17653000Y-16637000D01*
X11156000Y-24892000D02*
X11176000Y-24912000D01*
%TO.N,/SCK*%
X19431000Y-18415000D02*
X18288000Y-19558000D01*
X12090400Y-24892000D02*
X12090400Y-26503100D01*
X12090400Y-26503100D02*
X11161500Y-27432000D01*
%TO.N,/MOSI*%
X18288000Y-20955000D02*
X20320000Y-20955000D01*
%TO.N,/CS_SD*%
X9144000Y-27178000D02*
X9144000Y-24765000D01*
X11366500Y-29400500D02*
X9144000Y-27178000D01*
%TO.N,/SW4*%
X38227000Y-37211000D02*
X36763190Y-35747190D01*
X10287000Y-20447000D02*
X10160000Y-20320000D01*
X14528800Y-21234400D02*
X13741400Y-20447000D01*
X20320000Y-22352000D02*
X18288000Y-22352000D01*
X22987000Y-22352000D02*
X22987000Y-23876000D01*
X13741400Y-20447000D02*
X10287000Y-20447000D01*
%TO.N,/SW5*%
X25400000Y-22225000D02*
X25400000Y-20320000D01*
X39878000Y-36703000D02*
X37874617Y-34699617D01*
X26860500Y-23685500D02*
X25400000Y-22225000D01*
%TD*%
%TA.AperFunction,Conductor*%
%TO.N,/SCK*%
G36*
X18719892Y-18999944D02*
G01*
X18846055Y-19126107D01*
X18849482Y-19134380D01*
X18846696Y-19141958D01*
X18757045Y-19247417D01*
X18757042Y-19247421D01*
X18708975Y-19342208D01*
X18684995Y-19435967D01*
X18660754Y-19545968D01*
X18660409Y-19547205D01*
X18615359Y-19680133D01*
X18609458Y-19686869D01*
X18600523Y-19687459D01*
X18599829Y-19687199D01*
X18291808Y-19560563D01*
X18285460Y-19554249D01*
X18158800Y-19246168D01*
X18158823Y-19237216D01*
X18165172Y-19230901D01*
X18165855Y-19230644D01*
X18298801Y-19185586D01*
X18300026Y-19185244D01*
X18410022Y-19161004D01*
X18503789Y-19137023D01*
X18598578Y-19088955D01*
X18704043Y-18999302D01*
X18712564Y-18996555D01*
X18719892Y-18999944D01*
G37*
%TD.AperFunction*%
%TD*%
%TA.AperFunction,Conductor*%
%TO.N,/SW5*%
G36*
X26444456Y-23126802D02*
G01*
X26549920Y-23216455D01*
X26644709Y-23264523D01*
X26711418Y-23281584D01*
X26738467Y-23288502D01*
X26738475Y-23288503D01*
X26738476Y-23288504D01*
X26848467Y-23312743D01*
X26849703Y-23313088D01*
X26982634Y-23358141D01*
X26989369Y-23364042D01*
X26989959Y-23372978D01*
X26989699Y-23373671D01*
X26863063Y-23681691D01*
X26856748Y-23688040D01*
X26856691Y-23688063D01*
X26548671Y-23814699D01*
X26539716Y-23814676D01*
X26533401Y-23808327D01*
X26533141Y-23807634D01*
X26488088Y-23674703D01*
X26487743Y-23673465D01*
X26463502Y-23563467D01*
X26456584Y-23536418D01*
X26439523Y-23469709D01*
X26391455Y-23374920D01*
X26301802Y-23269456D01*
X26299055Y-23260935D01*
X26302443Y-23253608D01*
X26428608Y-23127443D01*
X26436880Y-23124017D01*
X26444456Y-23126802D01*
G37*
%TD.AperFunction*%
%TD*%
%TA.AperFunction,Conductor*%
%TO.N,/SDA*%
G36*
X17465784Y-24508823D02*
G01*
X17472099Y-24515172D01*
X17472359Y-24515866D01*
X17517410Y-24648793D01*
X17517755Y-24650030D01*
X17541995Y-24760030D01*
X17565975Y-24853789D01*
X17614043Y-24948578D01*
X17666781Y-25010617D01*
X17703696Y-25054041D01*
X17706444Y-25062564D01*
X17703055Y-25069892D01*
X17576892Y-25196055D01*
X17568619Y-25199482D01*
X17561041Y-25196696D01*
X17455580Y-25107045D01*
X17455578Y-25107043D01*
X17360789Y-25058975D01*
X17267030Y-25034995D01*
X17157030Y-25010755D01*
X17155793Y-25010410D01*
X17022866Y-24965359D01*
X17016130Y-24959458D01*
X17015540Y-24950523D01*
X17015790Y-24949853D01*
X17142437Y-24641806D01*
X17148748Y-24635461D01*
X17456831Y-24508800D01*
X17465784Y-24508823D01*
G37*
%TD.AperFunction*%
%TD*%
%TA.AperFunction,Conductor*%
%TO.N,/SCL*%
G36*
X20414893Y-23675398D02*
G01*
X20539721Y-23685296D01*
X20541847Y-23685665D01*
X20636818Y-23711424D01*
X20637894Y-23711773D01*
X20719928Y-23742827D01*
X20719932Y-23742828D01*
X20816489Y-23769017D01*
X20933955Y-23778331D01*
X20944255Y-23779148D01*
X20952231Y-23783218D01*
X20955030Y-23790778D01*
X20955977Y-24122149D01*
X20952574Y-24130431D01*
X20948743Y-24132996D01*
X20643675Y-24258970D01*
X20634720Y-24258961D01*
X20628395Y-24252622D01*
X20627981Y-24251446D01*
X20596468Y-24143908D01*
X20596158Y-24142549D01*
X20578639Y-24036612D01*
X20555754Y-23951378D01*
X20504634Y-23894865D01*
X20504633Y-23894864D01*
X20411700Y-23876280D01*
X20404259Y-23871297D01*
X20402294Y-23864807D01*
X20402294Y-23687063D01*
X20405721Y-23678790D01*
X20413994Y-23675363D01*
X20414893Y-23675398D01*
G37*
%TD.AperFunction*%
%TD*%
%TA.AperFunction,Conductor*%
%TO.N,/SCK*%
G36*
X12094878Y-24892868D02*
G01*
X12402254Y-25021138D01*
X12408569Y-25027487D01*
X12408546Y-25036442D01*
X12408239Y-25037116D01*
X12346101Y-25162966D01*
X12345470Y-25164085D01*
X12284826Y-25259013D01*
X12235488Y-25342256D01*
X12235486Y-25342263D01*
X12202451Y-25443272D01*
X12191271Y-25581245D01*
X12187187Y-25589214D01*
X12179609Y-25592000D01*
X12001190Y-25592000D01*
X11992917Y-25588573D01*
X11989528Y-25581245D01*
X11978348Y-25443277D01*
X11978347Y-25443274D01*
X11978347Y-25443272D01*
X11962070Y-25393506D01*
X11945311Y-25342261D01*
X11945309Y-25342259D01*
X11945309Y-25342256D01*
X11895971Y-25259013D01*
X11895964Y-25259001D01*
X11835323Y-25164076D01*
X11834701Y-25162974D01*
X11772559Y-25037114D01*
X11771970Y-25028180D01*
X11777871Y-25021445D01*
X11778525Y-25021146D01*
X12085894Y-24892879D01*
X12094849Y-24892857D01*
X12094878Y-24892868D01*
G37*
%TD.AperFunction*%
%TD*%
%TA.AperFunction,Conductor*%
%TO.N,/MOSI*%
G36*
X20190554Y-20642471D02*
G01*
X20190861Y-20643145D01*
X20319119Y-20950494D01*
X20319142Y-20959449D01*
X20319119Y-20959506D01*
X20190861Y-21266854D01*
X20184512Y-21273169D01*
X20175557Y-21273146D01*
X20174883Y-21272839D01*
X20049032Y-21210701D01*
X20047913Y-21210070D01*
X19952985Y-21149426D01*
X19869742Y-21100088D01*
X19869735Y-21100086D01*
X19768725Y-21067051D01*
X19768727Y-21067051D01*
X19630755Y-21055871D01*
X19622786Y-21051787D01*
X19620000Y-21044209D01*
X19620000Y-20865790D01*
X19623427Y-20857517D01*
X19630753Y-20854128D01*
X19768722Y-20842948D01*
X19768724Y-20842947D01*
X19768726Y-20842947D01*
X19792870Y-20835050D01*
X19869738Y-20809911D01*
X19869740Y-20809909D01*
X19869742Y-20809909D01*
X19898433Y-20792903D01*
X19952998Y-20760564D01*
X20047929Y-20699918D01*
X20049016Y-20699305D01*
X20174885Y-20637159D01*
X20183819Y-20636570D01*
X20190554Y-20642471D01*
G37*
%TD.AperFunction*%
%TD*%
%TA.AperFunction,Conductor*%
%TO.N,/SCK*%
G36*
X19119146Y-18285790D02*
G01*
X19427191Y-18412436D01*
X19433540Y-18418751D01*
X19433563Y-18418808D01*
X19560199Y-18726829D01*
X19560176Y-18735784D01*
X19553827Y-18742099D01*
X19553133Y-18742359D01*
X19420205Y-18787409D01*
X19418968Y-18787754D01*
X19308967Y-18811995D01*
X19215208Y-18835975D01*
X19120421Y-18884042D01*
X19120417Y-18884045D01*
X19014958Y-18973696D01*
X19006435Y-18976444D01*
X18999107Y-18973055D01*
X18872944Y-18846892D01*
X18869517Y-18838619D01*
X18872302Y-18831043D01*
X18961955Y-18725578D01*
X19010023Y-18630789D01*
X19034004Y-18537022D01*
X19058244Y-18427026D01*
X19058588Y-18425795D01*
X19060976Y-18418751D01*
X19103641Y-18292864D01*
X19109542Y-18286130D01*
X19118478Y-18285540D01*
X19119146Y-18285790D01*
G37*
%TD.AperFunction*%
%TD*%
%TA.AperFunction,Conductor*%
%TO.N,/MISO*%
G36*
X17341146Y-16507790D02*
G01*
X17649191Y-16634436D01*
X17655540Y-16640751D01*
X17655563Y-16640808D01*
X17782199Y-16948829D01*
X17782176Y-16957784D01*
X17775827Y-16964099D01*
X17775133Y-16964359D01*
X17642205Y-17009409D01*
X17640968Y-17009754D01*
X17530967Y-17033995D01*
X17437208Y-17057975D01*
X17342421Y-17106042D01*
X17342417Y-17106045D01*
X17236958Y-17195696D01*
X17228435Y-17198444D01*
X17221107Y-17195055D01*
X17094944Y-17068892D01*
X17091517Y-17060619D01*
X17094302Y-17053043D01*
X17183955Y-16947578D01*
X17232023Y-16852789D01*
X17256004Y-16759022D01*
X17280244Y-16649026D01*
X17280588Y-16647795D01*
X17282976Y-16640751D01*
X17325641Y-16514864D01*
X17331542Y-16508130D01*
X17340478Y-16507540D01*
X17341146Y-16507790D01*
G37*
%TD.AperFunction*%
%TD*%
%TA.AperFunction,Conductor*%
%TO.N,/SDA*%
G36*
X10431442Y-23430853D02*
G01*
X10432102Y-23431153D01*
X10557974Y-23493301D01*
X10559076Y-23493923D01*
X10654001Y-23554564D01*
X10654013Y-23554571D01*
X10737256Y-23603909D01*
X10737259Y-23603909D01*
X10737261Y-23603911D01*
X10805922Y-23626366D01*
X10838273Y-23636947D01*
X10838274Y-23636947D01*
X10838277Y-23636948D01*
X10976246Y-23648128D01*
X10984214Y-23652212D01*
X10987000Y-23659790D01*
X10987000Y-23838209D01*
X10983573Y-23846482D01*
X10976245Y-23849871D01*
X10838272Y-23861051D01*
X10737263Y-23894086D01*
X10737256Y-23894088D01*
X10654013Y-23943426D01*
X10559085Y-24004070D01*
X10557966Y-24004701D01*
X10432116Y-24066839D01*
X10423181Y-24067429D01*
X10416445Y-24061528D01*
X10416138Y-24060854D01*
X10346546Y-23894088D01*
X10287879Y-23753505D01*
X10287857Y-23744551D01*
X10287880Y-23744494D01*
X10416139Y-23437143D01*
X10422487Y-23430830D01*
X10431442Y-23430853D01*
G37*
%TD.AperFunction*%
%TD*%
%TA.AperFunction,Conductor*%
%TO.N,/SW4*%
G36*
X23084483Y-23179427D02*
G01*
X23087871Y-23186753D01*
X23094749Y-23271640D01*
X23099051Y-23324726D01*
X23132086Y-23425735D01*
X23132088Y-23425742D01*
X23181426Y-23508985D01*
X23242070Y-23603913D01*
X23242701Y-23605032D01*
X23304839Y-23730883D01*
X23305429Y-23739819D01*
X23299528Y-23746554D01*
X23298854Y-23746861D01*
X22991506Y-23875119D01*
X22982551Y-23875142D01*
X22982494Y-23875119D01*
X22675145Y-23746861D01*
X22668830Y-23740512D01*
X22668853Y-23731557D01*
X22669148Y-23730908D01*
X22731305Y-23605016D01*
X22731918Y-23603929D01*
X22792564Y-23508998D01*
X22841911Y-23425738D01*
X22874948Y-23324722D01*
X22886128Y-23186753D01*
X22890212Y-23178786D01*
X22897790Y-23176000D01*
X23076210Y-23176000D01*
X23084483Y-23179427D01*
G37*
%TD.AperFunction*%
%TD*%
%TA.AperFunction,Conductor*%
%TO.N,/SDA*%
G36*
X20825554Y-25214471D02*
G01*
X20825861Y-25215145D01*
X20954119Y-25522494D01*
X20954142Y-25531449D01*
X20954119Y-25531506D01*
X20825861Y-25838854D01*
X20819512Y-25845169D01*
X20810557Y-25845146D01*
X20809883Y-25844839D01*
X20684032Y-25782701D01*
X20682913Y-25782070D01*
X20587985Y-25721426D01*
X20504742Y-25672088D01*
X20504735Y-25672086D01*
X20403725Y-25639051D01*
X20403727Y-25639051D01*
X20265755Y-25627871D01*
X20257786Y-25623787D01*
X20255000Y-25616209D01*
X20255000Y-25437790D01*
X20258427Y-25429517D01*
X20265753Y-25426128D01*
X20403722Y-25414948D01*
X20403724Y-25414947D01*
X20403726Y-25414947D01*
X20427870Y-25407050D01*
X20504738Y-25381911D01*
X20504740Y-25381909D01*
X20504742Y-25381909D01*
X20533433Y-25364903D01*
X20587998Y-25332564D01*
X20682929Y-25271918D01*
X20684016Y-25271305D01*
X20809885Y-25209159D01*
X20818819Y-25208570D01*
X20825554Y-25214471D01*
G37*
%TD.AperFunction*%
%TD*%
%TA.AperFunction,Conductor*%
%TO.N,/SCL*%
G36*
X18432359Y-23431052D02*
G01*
X18433211Y-23431449D01*
X18558929Y-23496213D01*
X18560374Y-23497097D01*
X18653509Y-23563931D01*
X18734560Y-23620655D01*
X18833990Y-23659801D01*
X18972389Y-23673365D01*
X18980289Y-23677582D01*
X18982948Y-23685009D01*
X18982948Y-23863447D01*
X18979521Y-23871720D01*
X18972019Y-23875122D01*
X18836762Y-23884059D01*
X18736118Y-23911297D01*
X18736117Y-23911297D01*
X18736115Y-23911298D01*
X18652477Y-23953494D01*
X18652437Y-23953516D01*
X18557652Y-24007832D01*
X18556856Y-24008249D01*
X18433029Y-24067088D01*
X18424086Y-24067543D01*
X18417440Y-24061541D01*
X18417210Y-24061026D01*
X18395012Y-24007832D01*
X18288879Y-23753505D01*
X18288857Y-23744551D01*
X18288880Y-23744494D01*
X18417056Y-23437342D01*
X18423404Y-23431029D01*
X18432359Y-23431052D01*
G37*
%TD.AperFunction*%
%TD*%
%TA.AperFunction,Conductor*%
%TO.N,/MISO*%
G36*
X11248083Y-25719427D02*
G01*
X11251471Y-25726753D01*
X11258349Y-25811640D01*
X11262651Y-25864726D01*
X11295686Y-25965735D01*
X11295688Y-25965742D01*
X11345026Y-26048985D01*
X11405670Y-26143913D01*
X11406301Y-26145032D01*
X11468439Y-26270883D01*
X11469029Y-26279819D01*
X11463128Y-26286554D01*
X11462454Y-26286861D01*
X11155106Y-26415119D01*
X11146151Y-26415142D01*
X11146094Y-26415119D01*
X10838745Y-26286861D01*
X10832430Y-26280512D01*
X10832453Y-26271557D01*
X10832748Y-26270908D01*
X10894905Y-26145016D01*
X10895518Y-26143929D01*
X10956164Y-26048998D01*
X11005511Y-25965738D01*
X11038548Y-25864722D01*
X11049728Y-25726753D01*
X11053812Y-25718786D01*
X11061390Y-25716000D01*
X11239810Y-25716000D01*
X11248083Y-25719427D01*
G37*
%TD.AperFunction*%
%TD*%
%TA.AperFunction,Conductor*%
%TO.N,/SCK*%
G36*
X11593392Y-26873944D02*
G01*
X11719555Y-27000107D01*
X11722982Y-27008380D01*
X11720196Y-27015958D01*
X11630545Y-27121417D01*
X11630542Y-27121421D01*
X11582475Y-27216208D01*
X11558495Y-27309967D01*
X11534254Y-27419968D01*
X11533909Y-27421205D01*
X11488859Y-27554133D01*
X11482958Y-27560869D01*
X11474023Y-27561459D01*
X11473329Y-27561199D01*
X11165308Y-27434563D01*
X11158960Y-27428249D01*
X11032300Y-27120168D01*
X11032323Y-27111216D01*
X11038672Y-27104901D01*
X11039355Y-27104644D01*
X11172301Y-27059586D01*
X11173526Y-27059244D01*
X11283522Y-27035004D01*
X11377289Y-27011023D01*
X11472078Y-26962955D01*
X11577543Y-26873302D01*
X11586064Y-26870555D01*
X11593392Y-26873944D01*
G37*
%TD.AperFunction*%
%TD*%
%TA.AperFunction,Conductor*%
%TO.N,/SW4*%
G36*
X18432442Y-22033853D02*
G01*
X18433102Y-22034153D01*
X18558974Y-22096301D01*
X18560076Y-22096923D01*
X18655001Y-22157564D01*
X18655013Y-22157571D01*
X18738256Y-22206909D01*
X18738259Y-22206909D01*
X18738261Y-22206911D01*
X18806922Y-22229366D01*
X18839273Y-22239947D01*
X18839274Y-22239947D01*
X18839277Y-22239948D01*
X18977246Y-22251128D01*
X18985214Y-22255212D01*
X18988000Y-22262790D01*
X18988000Y-22441209D01*
X18984573Y-22449482D01*
X18977245Y-22452871D01*
X18839272Y-22464051D01*
X18738263Y-22497086D01*
X18738256Y-22497088D01*
X18655013Y-22546426D01*
X18560085Y-22607070D01*
X18558966Y-22607701D01*
X18433116Y-22669839D01*
X18424181Y-22670429D01*
X18417445Y-22664528D01*
X18417138Y-22663854D01*
X18347546Y-22497088D01*
X18288879Y-22356505D01*
X18288857Y-22347551D01*
X18288880Y-22347494D01*
X18417139Y-22040143D01*
X18423487Y-22033830D01*
X18432442Y-22033853D01*
G37*
%TD.AperFunction*%
%TD*%
%TA.AperFunction,Conductor*%
%TO.N,/SW4*%
G36*
X37810956Y-36652302D02*
G01*
X37916420Y-36741955D01*
X38011209Y-36790023D01*
X38077918Y-36807084D01*
X38104967Y-36814002D01*
X38104975Y-36814003D01*
X38104976Y-36814004D01*
X38214967Y-36838243D01*
X38216203Y-36838588D01*
X38349134Y-36883641D01*
X38355869Y-36889542D01*
X38356459Y-36898478D01*
X38356199Y-36899171D01*
X38229563Y-37207191D01*
X38223248Y-37213540D01*
X38223191Y-37213563D01*
X37915171Y-37340199D01*
X37906216Y-37340176D01*
X37899901Y-37333827D01*
X37899641Y-37333134D01*
X37854588Y-37200203D01*
X37854243Y-37198965D01*
X37830002Y-37088967D01*
X37823084Y-37061918D01*
X37806023Y-36995209D01*
X37757955Y-36900420D01*
X37668302Y-36794956D01*
X37665555Y-36786435D01*
X37668943Y-36779108D01*
X37795108Y-36652943D01*
X37803380Y-36649517D01*
X37810956Y-36652302D01*
G37*
%TD.AperFunction*%
%TD*%
%TA.AperFunction,Conductor*%
%TO.N,/SW5*%
G36*
X39461956Y-36144302D02*
G01*
X39567420Y-36233955D01*
X39662209Y-36282023D01*
X39728918Y-36299084D01*
X39755967Y-36306002D01*
X39755975Y-36306003D01*
X39755976Y-36306004D01*
X39865967Y-36330243D01*
X39867203Y-36330588D01*
X40000134Y-36375641D01*
X40006869Y-36381542D01*
X40007459Y-36390478D01*
X40007199Y-36391171D01*
X39880563Y-36699191D01*
X39874248Y-36705540D01*
X39874191Y-36705563D01*
X39566171Y-36832199D01*
X39557216Y-36832176D01*
X39550901Y-36825827D01*
X39550641Y-36825134D01*
X39505588Y-36692203D01*
X39505243Y-36690965D01*
X39481002Y-36580967D01*
X39474084Y-36553918D01*
X39457023Y-36487209D01*
X39408955Y-36392420D01*
X39319302Y-36286956D01*
X39316555Y-36278435D01*
X39319943Y-36271108D01*
X39446108Y-36144943D01*
X39454380Y-36141517D01*
X39461956Y-36144302D01*
G37*
%TD.AperFunction*%
%TD*%
%TA.AperFunction,Conductor*%
%TO.N,/SCL*%
G36*
X10685442Y-22033853D02*
G01*
X10686102Y-22034153D01*
X10811974Y-22096301D01*
X10813076Y-22096923D01*
X10908001Y-22157564D01*
X10908013Y-22157571D01*
X10991256Y-22206909D01*
X10991259Y-22206909D01*
X10991261Y-22206911D01*
X11059922Y-22229366D01*
X11092273Y-22239947D01*
X11092274Y-22239947D01*
X11092277Y-22239948D01*
X11230246Y-22251128D01*
X11238214Y-22255212D01*
X11241000Y-22262790D01*
X11241000Y-22441209D01*
X11237573Y-22449482D01*
X11230245Y-22452871D01*
X11092272Y-22464051D01*
X10991263Y-22497086D01*
X10991256Y-22497088D01*
X10908013Y-22546426D01*
X10813085Y-22607070D01*
X10811966Y-22607701D01*
X10686116Y-22669839D01*
X10677181Y-22670429D01*
X10670445Y-22664528D01*
X10670138Y-22663854D01*
X10600546Y-22497088D01*
X10541879Y-22356505D01*
X10541857Y-22347551D01*
X10541880Y-22347494D01*
X10670139Y-22040143D01*
X10676487Y-22033830D01*
X10685442Y-22033853D01*
G37*
%TD.AperFunction*%
%TD*%
%TA.AperFunction,Conductor*%
%TO.N,/SW4*%
G36*
X37083974Y-35618013D02*
G01*
X37090289Y-35624362D01*
X37090549Y-35625056D01*
X37135600Y-35757983D01*
X37135945Y-35759220D01*
X37160185Y-35869220D01*
X37184165Y-35962979D01*
X37232233Y-36057768D01*
X37284971Y-36119807D01*
X37321886Y-36163231D01*
X37324634Y-36171754D01*
X37321245Y-36179082D01*
X37195082Y-36305245D01*
X37186809Y-36308672D01*
X37179231Y-36305886D01*
X37073770Y-36216235D01*
X37073768Y-36216233D01*
X36978979Y-36168165D01*
X36885220Y-36144185D01*
X36775220Y-36119945D01*
X36773983Y-36119600D01*
X36641056Y-36074549D01*
X36634320Y-36068648D01*
X36633730Y-36059713D01*
X36633980Y-36059043D01*
X36760627Y-35750996D01*
X36766938Y-35744651D01*
X37075021Y-35617990D01*
X37083974Y-35618013D01*
G37*
%TD.AperFunction*%
%TD*%
%TA.AperFunction,Conductor*%
%TO.N,/SW4*%
G36*
X14112756Y-20675702D02*
G01*
X14218220Y-20765355D01*
X14313009Y-20813423D01*
X14379718Y-20830484D01*
X14406767Y-20837402D01*
X14406775Y-20837403D01*
X14406776Y-20837404D01*
X14516767Y-20861643D01*
X14518003Y-20861988D01*
X14650934Y-20907041D01*
X14657669Y-20912942D01*
X14658259Y-20921878D01*
X14657999Y-20922571D01*
X14531363Y-21230591D01*
X14525048Y-21236940D01*
X14524991Y-21236963D01*
X14216971Y-21363599D01*
X14208016Y-21363576D01*
X14201701Y-21357227D01*
X14201441Y-21356534D01*
X14156388Y-21223603D01*
X14156043Y-21222365D01*
X14131802Y-21112367D01*
X14124884Y-21085318D01*
X14107823Y-21018609D01*
X14059755Y-20923820D01*
X13970102Y-20818356D01*
X13967355Y-20809835D01*
X13970743Y-20802508D01*
X14096908Y-20676343D01*
X14105180Y-20672917D01*
X14112756Y-20675702D01*
G37*
%TD.AperFunction*%
%TD*%
%TA.AperFunction,Conductor*%
%TO.N,/SDA*%
G36*
X12824554Y-23436471D02*
G01*
X12824861Y-23437145D01*
X12953119Y-23744494D01*
X12953142Y-23753449D01*
X12953119Y-23753506D01*
X12824861Y-24060854D01*
X12818512Y-24067169D01*
X12809557Y-24067146D01*
X12808883Y-24066839D01*
X12683032Y-24004701D01*
X12681913Y-24004070D01*
X12586985Y-23943426D01*
X12503742Y-23894088D01*
X12503735Y-23894086D01*
X12402725Y-23861051D01*
X12402727Y-23861051D01*
X12264755Y-23849871D01*
X12256786Y-23845787D01*
X12254000Y-23838209D01*
X12254000Y-23659790D01*
X12257427Y-23651517D01*
X12264753Y-23648128D01*
X12402722Y-23636948D01*
X12503737Y-23603911D01*
X12586998Y-23554564D01*
X12681929Y-23493918D01*
X12683016Y-23493305D01*
X12808885Y-23431159D01*
X12817819Y-23430570D01*
X12824554Y-23436471D01*
G37*
%TD.AperFunction*%
%TD*%
%TA.AperFunction,Conductor*%
%TO.N,/MISO*%
G36*
X11155078Y-24892868D02*
G01*
X11462454Y-25021138D01*
X11468769Y-25027487D01*
X11468746Y-25036442D01*
X11468439Y-25037116D01*
X11406301Y-25162966D01*
X11405670Y-25164085D01*
X11345026Y-25259013D01*
X11295688Y-25342256D01*
X11295686Y-25342263D01*
X11262651Y-25443272D01*
X11251471Y-25581245D01*
X11247387Y-25589214D01*
X11239809Y-25592000D01*
X11061390Y-25592000D01*
X11053117Y-25588573D01*
X11049728Y-25581245D01*
X11038548Y-25443277D01*
X11038547Y-25443274D01*
X11038547Y-25443272D01*
X11022270Y-25393506D01*
X11005511Y-25342261D01*
X11005509Y-25342259D01*
X11005509Y-25342256D01*
X10956171Y-25259013D01*
X10956164Y-25259001D01*
X10895523Y-25164076D01*
X10894901Y-25162974D01*
X10832759Y-25037114D01*
X10832170Y-25028180D01*
X10838071Y-25021445D01*
X10838725Y-25021146D01*
X11146094Y-24892879D01*
X11155049Y-24892857D01*
X11155078Y-24892868D01*
G37*
%TD.AperFunction*%
%TD*%
%TA.AperFunction,Conductor*%
%TO.N,+3V3*%
G36*
X21206558Y-41089460D02*
G01*
X21206805Y-41090010D01*
X21335119Y-41397494D01*
X21335142Y-41406449D01*
X21335119Y-41406506D01*
X21206768Y-41714077D01*
X21200419Y-41720392D01*
X21191464Y-41720369D01*
X21190996Y-41720161D01*
X21066455Y-41661671D01*
X21065761Y-41661316D01*
X20970086Y-41608329D01*
X20970078Y-41608325D01*
X20885532Y-41567826D01*
X20784049Y-41542044D01*
X20648174Y-41533676D01*
X20640127Y-41529747D01*
X20637193Y-41521998D01*
X20637193Y-41293917D01*
X20640620Y-41285644D01*
X20648083Y-41282245D01*
X20784634Y-41272780D01*
X20885860Y-41244168D01*
X20969853Y-41200229D01*
X21065175Y-41144276D01*
X21066032Y-41143820D01*
X21190951Y-41083964D01*
X21199893Y-41083480D01*
X21206558Y-41089460D01*
G37*
%TD.AperFunction*%
%TD*%
%TA.AperFunction,Conductor*%
%TO.N,GND*%
G36*
X59690284Y-400513D02*
G01*
X60023637Y-416890D01*
X60024723Y-416997D01*
X60354610Y-465931D01*
X60355714Y-466151D01*
X60679176Y-547174D01*
X60680248Y-547498D01*
X60994231Y-659844D01*
X60995269Y-660274D01*
X61296717Y-802848D01*
X61297712Y-803380D01*
X61341368Y-829546D01*
X61583736Y-974815D01*
X61584661Y-975433D01*
X61767142Y-1110771D01*
X61852512Y-1174086D01*
X61853384Y-1174802D01*
X62100462Y-1398739D01*
X62101260Y-1399537D01*
X62325197Y-1646615D01*
X62325913Y-1647487D01*
X62524561Y-1915331D01*
X62525188Y-1916270D01*
X62696619Y-2202287D01*
X62697151Y-2203282D01*
X62839725Y-2504730D01*
X62840157Y-2505773D01*
X62952499Y-2819747D01*
X62952826Y-2820827D01*
X63033847Y-3144284D01*
X63034068Y-3145391D01*
X63083000Y-3475258D01*
X63083110Y-3476381D01*
X63099486Y-3809715D01*
X63099500Y-3810279D01*
X63099500Y-46989720D01*
X63099486Y-46990284D01*
X63083110Y-47323618D01*
X63083000Y-47324741D01*
X63034068Y-47654608D01*
X63033847Y-47655715D01*
X62952826Y-47979172D01*
X62952499Y-47980252D01*
X62840157Y-48294226D01*
X62839725Y-48295269D01*
X62697151Y-48596717D01*
X62696619Y-48597712D01*
X62525188Y-48883729D01*
X62524561Y-48884668D01*
X62325913Y-49152512D01*
X62325197Y-49153384D01*
X62101260Y-49400462D01*
X62100462Y-49401260D01*
X61853384Y-49625197D01*
X61852512Y-49625913D01*
X61584668Y-49824561D01*
X61583729Y-49825188D01*
X61297712Y-49996619D01*
X61296717Y-49997151D01*
X60995269Y-50139725D01*
X60994226Y-50140157D01*
X60680252Y-50252499D01*
X60679172Y-50252826D01*
X60355715Y-50333847D01*
X60354608Y-50334068D01*
X60024741Y-50383000D01*
X60023618Y-50383110D01*
X59690285Y-50399486D01*
X59689721Y-50399500D01*
X3810279Y-50399500D01*
X3809715Y-50399486D01*
X3476381Y-50383110D01*
X3475258Y-50383000D01*
X3145391Y-50334068D01*
X3144284Y-50333847D01*
X2820827Y-50252826D01*
X2819747Y-50252499D01*
X2505773Y-50140157D01*
X2504730Y-50139725D01*
X2203282Y-49997151D01*
X2202287Y-49996619D01*
X1916270Y-49825188D01*
X1915331Y-49824561D01*
X1647487Y-49625913D01*
X1646615Y-49625197D01*
X1399537Y-49401260D01*
X1398739Y-49400462D01*
X1174802Y-49153384D01*
X1174086Y-49152512D01*
X975438Y-48884668D01*
X974815Y-48883736D01*
X841013Y-48660499D01*
X803380Y-48597712D01*
X802848Y-48596717D01*
X660274Y-48295269D01*
X659842Y-48294226D01*
X588130Y-48093806D01*
X547498Y-47980248D01*
X547173Y-47979172D01*
X484866Y-47730428D01*
X466151Y-47655714D01*
X465931Y-47654608D01*
X447167Y-47528111D01*
X416997Y-47324723D01*
X416890Y-47323637D01*
X400514Y-46990284D01*
X400500Y-46989720D01*
X400500Y-46880510D01*
X2139500Y-46880510D01*
X2139500Y-47099490D01*
X2168083Y-47316598D01*
X2168084Y-47316602D01*
X2168085Y-47316609D01*
X2168085Y-47316610D01*
X2224757Y-47528111D01*
X2224757Y-47528112D01*
X2308561Y-47730431D01*
X2418047Y-47920067D01*
X2418049Y-47920070D01*
X2418050Y-47920071D01*
X2551357Y-48093800D01*
X2706200Y-48248643D01*
X2879929Y-48381950D01*
X2879932Y-48381952D01*
X3069568Y-48491438D01*
X3069569Y-48491438D01*
X3069572Y-48491440D01*
X3271883Y-48575241D01*
X3271887Y-48575242D01*
X3483390Y-48631914D01*
X3483391Y-48631914D01*
X3483402Y-48631917D01*
X3700510Y-48660500D01*
X3700514Y-48660500D01*
X3919486Y-48660500D01*
X3919490Y-48660500D01*
X4136598Y-48631917D01*
X4136609Y-48631914D01*
X4136610Y-48631914D01*
X4191953Y-48617084D01*
X4348117Y-48575241D01*
X4550428Y-48491440D01*
X4740071Y-48381950D01*
X4913800Y-48248643D01*
X5068643Y-48093800D01*
X5201950Y-47920071D01*
X5311440Y-47730428D01*
X5395241Y-47528117D01*
X5451917Y-47316598D01*
X5480500Y-47099490D01*
X5480500Y-46880510D01*
X58019500Y-46880510D01*
X58019500Y-47099490D01*
X58048083Y-47316598D01*
X58048084Y-47316602D01*
X58048085Y-47316609D01*
X58048085Y-47316610D01*
X58104757Y-47528111D01*
X58104757Y-47528112D01*
X58188561Y-47730431D01*
X58298047Y-47920067D01*
X58298049Y-47920070D01*
X58298050Y-47920071D01*
X58431357Y-48093800D01*
X58586200Y-48248643D01*
X58759929Y-48381950D01*
X58759932Y-48381952D01*
X58949568Y-48491438D01*
X58949569Y-48491438D01*
X58949572Y-48491440D01*
X59151883Y-48575241D01*
X59151887Y-48575242D01*
X59363390Y-48631914D01*
X59363391Y-48631914D01*
X59363402Y-48631917D01*
X59580510Y-48660500D01*
X59580514Y-48660500D01*
X59799486Y-48660500D01*
X59799490Y-48660500D01*
X60016598Y-48631917D01*
X60016609Y-48631914D01*
X60016610Y-48631914D01*
X60071953Y-48617084D01*
X60228117Y-48575241D01*
X60430428Y-48491440D01*
X60620071Y-48381950D01*
X60793800Y-48248643D01*
X60948643Y-48093800D01*
X61081950Y-47920071D01*
X61191440Y-47730428D01*
X61275241Y-47528117D01*
X61331917Y-47316598D01*
X61360500Y-47099490D01*
X61360500Y-46880510D01*
X61331917Y-46663402D01*
X61275241Y-46451883D01*
X61191440Y-46249572D01*
X61081950Y-46059929D01*
X60948643Y-45886200D01*
X60793800Y-45731357D01*
X60620071Y-45598050D01*
X60620070Y-45598049D01*
X60620067Y-45598047D01*
X60430431Y-45488561D01*
X60228112Y-45404757D01*
X60016609Y-45348085D01*
X60016602Y-45348084D01*
X60016598Y-45348083D01*
X59841313Y-45325006D01*
X59799491Y-45319500D01*
X59799490Y-45319500D01*
X59580510Y-45319500D01*
X59580508Y-45319500D01*
X59496862Y-45330512D01*
X59363402Y-45348083D01*
X59363398Y-45348083D01*
X59363390Y-45348085D01*
X59363389Y-45348085D01*
X59151888Y-45404757D01*
X59151887Y-45404757D01*
X58949568Y-45488561D01*
X58759932Y-45598047D01*
X58694780Y-45648040D01*
X58586200Y-45731357D01*
X58586195Y-45731362D01*
X58586193Y-45731363D01*
X58431363Y-45886193D01*
X58431362Y-45886195D01*
X58431357Y-45886200D01*
X58348040Y-45994780D01*
X58298047Y-46059932D01*
X58188561Y-46249568D01*
X58104757Y-46451887D01*
X58104757Y-46451888D01*
X58048085Y-46663389D01*
X58048085Y-46663390D01*
X58048083Y-46663398D01*
X58048083Y-46663402D01*
X58019500Y-46880510D01*
X5480500Y-46880510D01*
X5451917Y-46663402D01*
X5395241Y-46451883D01*
X5311440Y-46249572D01*
X5201950Y-46059929D01*
X5068643Y-45886200D01*
X4913800Y-45731357D01*
X4740071Y-45598050D01*
X4740070Y-45598049D01*
X4740067Y-45598047D01*
X4550431Y-45488561D01*
X4348112Y-45404757D01*
X4136609Y-45348085D01*
X4136602Y-45348084D01*
X4136598Y-45348083D01*
X3961313Y-45325006D01*
X3919491Y-45319500D01*
X3919490Y-45319500D01*
X3700510Y-45319500D01*
X3700508Y-45319500D01*
X3616862Y-45330512D01*
X3483402Y-45348083D01*
X3483398Y-45348083D01*
X3483390Y-45348085D01*
X3483389Y-45348085D01*
X3271888Y-45404757D01*
X3271887Y-45404757D01*
X3069568Y-45488561D01*
X2879932Y-45598047D01*
X2814780Y-45648040D01*
X2706200Y-45731357D01*
X2706195Y-45731362D01*
X2706193Y-45731363D01*
X2551363Y-45886193D01*
X2551362Y-45886195D01*
X2551357Y-45886200D01*
X2468040Y-45994780D01*
X2418047Y-46059932D01*
X2308561Y-46249568D01*
X2224757Y-46451887D01*
X2224757Y-46451888D01*
X2168085Y-46663389D01*
X2168085Y-46663390D01*
X2168083Y-46663398D01*
X2168083Y-46663402D01*
X2139500Y-46880510D01*
X400500Y-46880510D01*
X400500Y-41328943D01*
X18963500Y-41328943D01*
X18963500Y-41487056D01*
X19002813Y-41633778D01*
X19004423Y-41639784D01*
X19083480Y-41776716D01*
X19195284Y-41888520D01*
X19332216Y-41967577D01*
X19484943Y-42008500D01*
X19643057Y-42008500D01*
X19795780Y-41967578D01*
X19795779Y-41967578D01*
X19795784Y-41967577D01*
X19809436Y-41959693D01*
X19812369Y-41958506D01*
X19818476Y-41956971D01*
X19943470Y-41897713D01*
X19952004Y-41893470D01*
X19952363Y-41893283D01*
X19952794Y-41893059D01*
X19961175Y-41888494D01*
X19967584Y-41884846D01*
X20050618Y-41837581D01*
X20051130Y-41837308D01*
X20104946Y-41810430D01*
X20107100Y-41809613D01*
X20157181Y-41796224D01*
X20159394Y-41795859D01*
X20269680Y-41788672D01*
X20288977Y-41783843D01*
X20291767Y-41783500D01*
X20611286Y-41783500D01*
X20614218Y-41783880D01*
X20619871Y-41785370D01*
X20632469Y-41788693D01*
X20632471Y-41788693D01*
X20632473Y-41788694D01*
X20699728Y-41792835D01*
X20743321Y-41795519D01*
X20745436Y-41795850D01*
X20796931Y-41808932D01*
X20799060Y-41809704D01*
X20852572Y-41835338D01*
X20853176Y-41835649D01*
X20942008Y-41884846D01*
X20949389Y-41888776D01*
X20950082Y-41889131D01*
X20953234Y-41890676D01*
X20957843Y-41892936D01*
X21029355Y-41926521D01*
X21082379Y-41951424D01*
X21083532Y-41951951D01*
X21087228Y-41953640D01*
X21087584Y-41953798D01*
X21087673Y-41953838D01*
X21093084Y-41956169D01*
X21093944Y-41956342D01*
X21097425Y-41957656D01*
X21104216Y-41961577D01*
X21256943Y-42002500D01*
X21415057Y-42002500D01*
X21567784Y-41961577D01*
X21704716Y-41882520D01*
X21816520Y-41770716D01*
X21895577Y-41633784D01*
X21936500Y-41481057D01*
X21936500Y-41322943D01*
X21895577Y-41170216D01*
X21816520Y-41033284D01*
X21704716Y-40921480D01*
X21704715Y-40921479D01*
X21567788Y-40842425D01*
X21567786Y-40842424D01*
X21567784Y-40842423D01*
X21567780Y-40842422D01*
X21567778Y-40842421D01*
X21415057Y-40801500D01*
X21256943Y-40801500D01*
X21104221Y-40842421D01*
X21104213Y-40842424D01*
X21089811Y-40850738D01*
X21086914Y-40851919D01*
X21080545Y-40853549D01*
X20955638Y-40913399D01*
X20946010Y-40918264D01*
X20945167Y-40918713D01*
X20945158Y-40918718D01*
X20937613Y-40922938D01*
X20935821Y-40923940D01*
X20846132Y-40976584D01*
X20845642Y-40976856D01*
X20791939Y-41004950D01*
X20789736Y-41005826D01*
X20741729Y-41019396D01*
X20739396Y-41019802D01*
X20630416Y-41027356D01*
X20630415Y-41027356D01*
X20611520Y-41032147D01*
X20608694Y-41032500D01*
X20290527Y-41032500D01*
X20287555Y-41032109D01*
X20269687Y-41027328D01*
X20269684Y-41027327D01*
X20269682Y-41027327D01*
X20248000Y-41025913D01*
X20159395Y-41020137D01*
X20157173Y-41019771D01*
X20107107Y-41006386D01*
X20104941Y-41005565D01*
X20051163Y-40978705D01*
X20050618Y-40978414D01*
X19961174Y-40927502D01*
X19952794Y-40922938D01*
X19952017Y-40922534D01*
X19943438Y-40918269D01*
X19818497Y-40859038D01*
X19818474Y-40859027D01*
X19816008Y-40857892D01*
X19813284Y-40856638D01*
X19813251Y-40856623D01*
X19813220Y-40856609D01*
X19812714Y-40856383D01*
X19812654Y-40856357D01*
X19806905Y-40853873D01*
X19806897Y-40853871D01*
X19806163Y-40853723D01*
X19802690Y-40852410D01*
X19795782Y-40848422D01*
X19795783Y-40848422D01*
X19643057Y-40807500D01*
X19484943Y-40807500D01*
X19332221Y-40848421D01*
X19332211Y-40848425D01*
X19195284Y-40927479D01*
X19083479Y-41039284D01*
X19004425Y-41176211D01*
X19004421Y-41176221D01*
X18963500Y-41328943D01*
X400500Y-41328943D01*
X400500Y-35668133D01*
X36162690Y-35668133D01*
X36162690Y-35826246D01*
X36203611Y-35978968D01*
X36203615Y-35978978D01*
X36266909Y-36088608D01*
X36282670Y-36115906D01*
X36394474Y-36227710D01*
X36531406Y-36306767D01*
X36549950Y-36311735D01*
X36552719Y-36312881D01*
X36559043Y-36316528D01*
X36559051Y-36316532D01*
X36691965Y-36361578D01*
X36699207Y-36363813D01*
X36705343Y-36365707D01*
X36706580Y-36366052D01*
X36720236Y-36369459D01*
X36825920Y-36392747D01*
X36826272Y-36392831D01*
X36887237Y-36408424D01*
X36889587Y-36409308D01*
X36930076Y-36429840D01*
X36932323Y-36431335D01*
X37013747Y-36500553D01*
X37013748Y-36500554D01*
X37013750Y-36500555D01*
X37029579Y-36509796D01*
X37031913Y-36511595D01*
X37463542Y-36943224D01*
X37465456Y-36945760D01*
X37473630Y-36960434D01*
X37473632Y-36960438D01*
X37542851Y-37041863D01*
X37544346Y-37044110D01*
X37564877Y-37084596D01*
X37565761Y-37086948D01*
X37581356Y-37147926D01*
X37581446Y-37148300D01*
X37604735Y-37253974D01*
X37608122Y-37267558D01*
X37608462Y-37268777D01*
X37612614Y-37282234D01*
X37657643Y-37415097D01*
X37660433Y-37422912D01*
X37660673Y-37423552D01*
X37663587Y-37430967D01*
X37663589Y-37430971D01*
X37663670Y-37431092D01*
X37663781Y-37431339D01*
X37663871Y-37431511D01*
X37663861Y-37431516D01*
X37665195Y-37434472D01*
X37667423Y-37442784D01*
X37746480Y-37579716D01*
X37858284Y-37691520D01*
X37995216Y-37770577D01*
X38147943Y-37811500D01*
X38306057Y-37811500D01*
X38458784Y-37770577D01*
X38595716Y-37691520D01*
X38707520Y-37579716D01*
X38786577Y-37442784D01*
X38827500Y-37290057D01*
X38827500Y-37131943D01*
X38786577Y-36979216D01*
X38707520Y-36842284D01*
X38595716Y-36730480D01*
X38595715Y-36730479D01*
X38458782Y-36651422D01*
X38458783Y-36651422D01*
X38440237Y-36646453D01*
X38437468Y-36645307D01*
X38431150Y-36641663D01*
X38431148Y-36641662D01*
X38431146Y-36641661D01*
X38431141Y-36641659D01*
X38431138Y-36641658D01*
X38298222Y-36596609D01*
X38284898Y-36592496D01*
X38284457Y-36592373D01*
X38283658Y-36592150D01*
X38276742Y-36590424D01*
X38269967Y-36588733D01*
X38164306Y-36565448D01*
X38163932Y-36565358D01*
X38102948Y-36549761D01*
X38100596Y-36548877D01*
X38060110Y-36528346D01*
X38057863Y-36526851D01*
X37976440Y-36457635D01*
X37976435Y-36457631D01*
X37960610Y-36448393D01*
X37958276Y-36446594D01*
X37526645Y-36014963D01*
X37524730Y-36012427D01*
X37516552Y-35997745D01*
X37447335Y-35916323D01*
X37445840Y-35914076D01*
X37425308Y-35873587D01*
X37424424Y-35871236D01*
X37408831Y-35810272D01*
X37408745Y-35809910D01*
X37385459Y-35704236D01*
X37382052Y-35690580D01*
X37381707Y-35689343D01*
X37377580Y-35675972D01*
X37374923Y-35668133D01*
X37332532Y-35543054D01*
X37332529Y-35543045D01*
X37329809Y-35535420D01*
X37329549Y-35534726D01*
X37326602Y-35527220D01*
X37326524Y-35527103D01*
X37326414Y-35526860D01*
X37326319Y-35526677D01*
X37326329Y-35526671D01*
X37324992Y-35523714D01*
X37322767Y-35515406D01*
X37243710Y-35378474D01*
X37131906Y-35266670D01*
X37131905Y-35266669D01*
X36994978Y-35187615D01*
X36994976Y-35187614D01*
X36994974Y-35187613D01*
X36994970Y-35187612D01*
X36994968Y-35187611D01*
X36842247Y-35146690D01*
X36684133Y-35146690D01*
X36531411Y-35187611D01*
X36531401Y-35187615D01*
X36394474Y-35266669D01*
X36282669Y-35378474D01*
X36203615Y-35515401D01*
X36203611Y-35515411D01*
X36162690Y-35668133D01*
X400500Y-35668133D01*
X400500Y-34620560D01*
X37274117Y-34620560D01*
X37274117Y-34778674D01*
X37315040Y-34931401D01*
X37394097Y-35068333D01*
X37505901Y-35180137D01*
X37642833Y-35259194D01*
X37661377Y-35264162D01*
X37664146Y-35265308D01*
X37670470Y-35268955D01*
X37670478Y-35268959D01*
X37803392Y-35314005D01*
X37810634Y-35316240D01*
X37816770Y-35318134D01*
X37818007Y-35318479D01*
X37831663Y-35321886D01*
X37937347Y-35345174D01*
X37937699Y-35345258D01*
X37998664Y-35360851D01*
X38001014Y-35361735D01*
X38041503Y-35382267D01*
X38043750Y-35383762D01*
X38125174Y-35452980D01*
X38141011Y-35462226D01*
X38143339Y-35464021D01*
X38628953Y-35949635D01*
X39114542Y-36435223D01*
X39116456Y-36437759D01*
X39124630Y-36452434D01*
X39124635Y-36452441D01*
X39193851Y-36533863D01*
X39195346Y-36536110D01*
X39215877Y-36576596D01*
X39216761Y-36578948D01*
X39232356Y-36639926D01*
X39232446Y-36640300D01*
X39255735Y-36745974D01*
X39259122Y-36759558D01*
X39259462Y-36760777D01*
X39263614Y-36774234D01*
X39308643Y-36907097D01*
X39311433Y-36914912D01*
X39311673Y-36915552D01*
X39314587Y-36922967D01*
X39314589Y-36922971D01*
X39314670Y-36923092D01*
X39314781Y-36923339D01*
X39314871Y-36923511D01*
X39314861Y-36923516D01*
X39316195Y-36926472D01*
X39318423Y-36934784D01*
X39381541Y-37044110D01*
X39397480Y-37071716D01*
X39509284Y-37183520D01*
X39646216Y-37262577D01*
X39798943Y-37303500D01*
X39957057Y-37303500D01*
X40109784Y-37262577D01*
X40246716Y-37183520D01*
X40358520Y-37071716D01*
X40437577Y-36934784D01*
X40478500Y-36782057D01*
X40478500Y-36623943D01*
X40437577Y-36471216D01*
X40358520Y-36334284D01*
X40246716Y-36222480D01*
X40246715Y-36222479D01*
X40109782Y-36143422D01*
X40109783Y-36143422D01*
X40091237Y-36138453D01*
X40088468Y-36137307D01*
X40082150Y-36133663D01*
X40082148Y-36133662D01*
X40082146Y-36133661D01*
X40082141Y-36133659D01*
X40082138Y-36133658D01*
X39949222Y-36088609D01*
X39935898Y-36084496D01*
X39935457Y-36084373D01*
X39934658Y-36084150D01*
X39927742Y-36082424D01*
X39920967Y-36080733D01*
X39815306Y-36057448D01*
X39814932Y-36057358D01*
X39753948Y-36041761D01*
X39751596Y-36040877D01*
X39711110Y-36020346D01*
X39708863Y-36018851D01*
X39627440Y-35949635D01*
X39627435Y-35949631D01*
X39611606Y-35940390D01*
X39609272Y-35938591D01*
X38638072Y-34967390D01*
X38636157Y-34964854D01*
X38627979Y-34950172D01*
X38558762Y-34868750D01*
X38557267Y-34866503D01*
X38536735Y-34826014D01*
X38535851Y-34823663D01*
X38520258Y-34762699D01*
X38520172Y-34762337D01*
X38496886Y-34656663D01*
X38493479Y-34643007D01*
X38493134Y-34641770D01*
X38489007Y-34628399D01*
X38486350Y-34620560D01*
X38443959Y-34495481D01*
X38443956Y-34495472D01*
X38441236Y-34487847D01*
X38440976Y-34487153D01*
X38438029Y-34479647D01*
X38437951Y-34479530D01*
X38437841Y-34479287D01*
X38437746Y-34479104D01*
X38437756Y-34479098D01*
X38436419Y-34476141D01*
X38434194Y-34467833D01*
X38355137Y-34330901D01*
X38243333Y-34219097D01*
X38243332Y-34219096D01*
X38106405Y-34140042D01*
X38106403Y-34140041D01*
X38106401Y-34140040D01*
X38106397Y-34140039D01*
X38106395Y-34140038D01*
X37953674Y-34099117D01*
X37795560Y-34099117D01*
X37642838Y-34140038D01*
X37642828Y-34140042D01*
X37505901Y-34219096D01*
X37394096Y-34330901D01*
X37315042Y-34467828D01*
X37315038Y-34467838D01*
X37274117Y-34620560D01*
X400500Y-34620560D01*
X400500Y-24685943D01*
X8543500Y-24685943D01*
X8543500Y-24844056D01*
X8584421Y-24996778D01*
X8584425Y-24996788D01*
X8594020Y-25013407D01*
X8595167Y-25016174D01*
X8597061Y-25023227D01*
X8626325Y-25082497D01*
X8659204Y-25149088D01*
X8659210Y-25149099D01*
X8665792Y-25161553D01*
X8666419Y-25162664D01*
X8673616Y-25174640D01*
X8731853Y-25265801D01*
X8732055Y-25266129D01*
X8764150Y-25320281D01*
X8765187Y-25322569D01*
X8779298Y-25365715D01*
X8779830Y-25368361D01*
X8788462Y-25474879D01*
X8788463Y-25474881D01*
X8792709Y-25491036D01*
X8793122Y-25492605D01*
X8793500Y-25495529D01*
X8793500Y-27224143D01*
X8815627Y-27306723D01*
X8817384Y-27313282D01*
X8817388Y-27313292D01*
X8863529Y-27393211D01*
X10766748Y-29296430D01*
X10770116Y-29304562D01*
X10769725Y-29307537D01*
X10766000Y-29321443D01*
X10766000Y-29479557D01*
X10806923Y-29632284D01*
X10885980Y-29769216D01*
X10997784Y-29881020D01*
X11134716Y-29960077D01*
X11287443Y-30001000D01*
X11445557Y-30001000D01*
X11598284Y-29960077D01*
X11735216Y-29881020D01*
X11847020Y-29769216D01*
X11926077Y-29632284D01*
X11967000Y-29479557D01*
X11967000Y-29321443D01*
X11926077Y-29168716D01*
X11847020Y-29031784D01*
X11735216Y-28919980D01*
X11735215Y-28919979D01*
X11598288Y-28840925D01*
X11598286Y-28840924D01*
X11598284Y-28840923D01*
X11598280Y-28840922D01*
X11598278Y-28840921D01*
X11445557Y-28800000D01*
X11287443Y-28800000D01*
X11277831Y-28802575D01*
X11273537Y-28803725D01*
X11264811Y-28802575D01*
X11262430Y-28800748D01*
X9497868Y-27036186D01*
X9494500Y-27028054D01*
X9494500Y-25494184D01*
X9494939Y-25491036D01*
X9499535Y-25474884D01*
X9499536Y-25474881D01*
X9501685Y-25448367D01*
X9506174Y-25392950D01*
X9508167Y-25368354D01*
X9508699Y-25365710D01*
X9522809Y-25322568D01*
X9523846Y-25320280D01*
X9555960Y-25266096D01*
X9556152Y-25265785D01*
X9559680Y-25260263D01*
X9614383Y-25174636D01*
X9621625Y-25162583D01*
X9622256Y-25161464D01*
X9622256Y-25161463D01*
X9622278Y-25161425D01*
X9628189Y-25150232D01*
X9628797Y-25149082D01*
X9690935Y-25023232D01*
X9694355Y-25016025D01*
X9694662Y-25015351D01*
X9697945Y-25007824D01*
X9697968Y-25007706D01*
X9698052Y-25007484D01*
X9698130Y-25007238D01*
X9698143Y-25007242D01*
X9699286Y-25004214D01*
X9703577Y-24996784D01*
X9744500Y-24844057D01*
X9744500Y-24812943D01*
X10550100Y-24812943D01*
X10550100Y-24971057D01*
X10561448Y-25013407D01*
X10591021Y-25123778D01*
X10591025Y-25123788D01*
X10600620Y-25140407D01*
X10601767Y-25143174D01*
X10603661Y-25150227D01*
X10629493Y-25202545D01*
X10665804Y-25276088D01*
X10665810Y-25276099D01*
X10672392Y-25288553D01*
X10673019Y-25289664D01*
X10680216Y-25301640D01*
X10738453Y-25392801D01*
X10738655Y-25393129D01*
X10770750Y-25447281D01*
X10771787Y-25449569D01*
X10785898Y-25492715D01*
X10786430Y-25495361D01*
X10795062Y-25601879D01*
X10795063Y-25601881D01*
X10799309Y-25618036D01*
X10799722Y-25619605D01*
X10800100Y-25622529D01*
X10800100Y-25686808D01*
X10799661Y-25689955D01*
X10795064Y-25706110D01*
X10795061Y-25706124D01*
X10786430Y-25812636D01*
X10785898Y-25815282D01*
X10771789Y-25858422D01*
X10770752Y-25860710D01*
X10738626Y-25914915D01*
X10738424Y-25915243D01*
X10680203Y-26006380D01*
X10672965Y-26018426D01*
X10672359Y-26019501D01*
X10665813Y-26031890D01*
X10603654Y-26157786D01*
X10600147Y-26165185D01*
X10599835Y-26165870D01*
X10596656Y-26173168D01*
X10596653Y-26173179D01*
X10596627Y-26173310D01*
X10596539Y-26173540D01*
X10596472Y-26173756D01*
X10596459Y-26173752D01*
X10595315Y-26176780D01*
X10591024Y-26184213D01*
X10591021Y-26184221D01*
X10550100Y-26336943D01*
X10550100Y-26495056D01*
X10591021Y-26647778D01*
X10591025Y-26647788D01*
X10670079Y-26784715D01*
X10781884Y-26896520D01*
X10817681Y-26917187D01*
X10823039Y-26924169D01*
X10821890Y-26932896D01*
X10817681Y-26937105D01*
X10792784Y-26951479D01*
X10680979Y-27063284D01*
X10601925Y-27200211D01*
X10601921Y-27200221D01*
X10571624Y-27313292D01*
X10561000Y-27352943D01*
X10561000Y-27511057D01*
X10601923Y-27663784D01*
X10680980Y-27800716D01*
X10792784Y-27912520D01*
X10929716Y-27991577D01*
X11082443Y-28032500D01*
X11240557Y-28032500D01*
X11393284Y-27991577D01*
X11530216Y-27912520D01*
X11642020Y-27800716D01*
X11721077Y-27663784D01*
X11726046Y-27645233D01*
X11727192Y-27642466D01*
X11730840Y-27636142D01*
X11775890Y-27503214D01*
X11780016Y-27489845D01*
X11780361Y-27488608D01*
X11783767Y-27474953D01*
X11807051Y-27369288D01*
X11807139Y-27368924D01*
X11822735Y-27307945D01*
X11823618Y-27305598D01*
X11844152Y-27265104D01*
X11845635Y-27262874D01*
X11914862Y-27181443D01*
X11924107Y-27165605D01*
X11925899Y-27163281D01*
X12370870Y-26718312D01*
X12417014Y-26638388D01*
X12419964Y-26627379D01*
X12440900Y-26549244D01*
X12440900Y-25621184D01*
X12441339Y-25618036D01*
X12445935Y-25601884D01*
X12445936Y-25601881D01*
X12454567Y-25495354D01*
X12455099Y-25492710D01*
X12455134Y-25492605D01*
X12469209Y-25449566D01*
X12470246Y-25447280D01*
X12502350Y-25393113D01*
X12502552Y-25392785D01*
X12560783Y-25301636D01*
X12568025Y-25289583D01*
X12568656Y-25288464D01*
X12568656Y-25288463D01*
X12568678Y-25288425D01*
X12572936Y-25280360D01*
X12575197Y-25276082D01*
X12637335Y-25150232D01*
X12639765Y-25145112D01*
X12640730Y-25143078D01*
X12640733Y-25143069D01*
X12640755Y-25143025D01*
X12641062Y-25142351D01*
X12644345Y-25134824D01*
X12644368Y-25134706D01*
X12644452Y-25134484D01*
X12644530Y-25134238D01*
X12644543Y-25134242D01*
X12645686Y-25131214D01*
X12649977Y-25123784D01*
X12690900Y-24971057D01*
X12690900Y-24812943D01*
X12649977Y-24660216D01*
X12591508Y-24558943D01*
X16544500Y-24558943D01*
X16544500Y-24717056D01*
X16585421Y-24869778D01*
X16585425Y-24869788D01*
X16658747Y-24996787D01*
X16664480Y-25006716D01*
X16776284Y-25118520D01*
X16913216Y-25197577D01*
X16931760Y-25202545D01*
X16934529Y-25203691D01*
X16940853Y-25207338D01*
X16940861Y-25207342D01*
X17073775Y-25252388D01*
X17081017Y-25254623D01*
X17087153Y-25256517D01*
X17088390Y-25256862D01*
X17102046Y-25260269D01*
X17207730Y-25283557D01*
X17208082Y-25283641D01*
X17269047Y-25299234D01*
X17271397Y-25300118D01*
X17311886Y-25320650D01*
X17314133Y-25322145D01*
X17395557Y-25391363D01*
X17395558Y-25391364D01*
X17395560Y-25391365D01*
X17411389Y-25400606D01*
X17413723Y-25402405D01*
X17818788Y-25807470D01*
X17875998Y-25840500D01*
X17898712Y-25853614D01*
X17987856Y-25877500D01*
X20225816Y-25877500D01*
X20228961Y-25877938D01*
X20245119Y-25882536D01*
X20245121Y-25882536D01*
X20245126Y-25882537D01*
X20317091Y-25888367D01*
X20351642Y-25891167D01*
X20354285Y-25891698D01*
X20366566Y-25895715D01*
X20397427Y-25905808D01*
X20399715Y-25906845D01*
X20453883Y-25938950D01*
X20454211Y-25939152D01*
X20545364Y-25997384D01*
X20557399Y-26004616D01*
X20558545Y-26005262D01*
X20570903Y-26011791D01*
X20570914Y-26011796D01*
X20570917Y-26011798D01*
X20696768Y-26073936D01*
X20703974Y-26077355D01*
X20704648Y-26077662D01*
X20704679Y-26077676D01*
X20708121Y-26079176D01*
X20712175Y-26080945D01*
X20712178Y-26080945D01*
X20712179Y-26080946D01*
X20712293Y-26080969D01*
X20712504Y-26081048D01*
X20712765Y-26081131D01*
X20712760Y-26081145D01*
X20715781Y-26082284D01*
X20723216Y-26086577D01*
X20875943Y-26127500D01*
X21034057Y-26127500D01*
X21186784Y-26086577D01*
X21323716Y-26007520D01*
X21435520Y-25895716D01*
X21514577Y-25758784D01*
X21555500Y-25606057D01*
X21555500Y-25447943D01*
X21514577Y-25295216D01*
X21435520Y-25158284D01*
X21323716Y-25046480D01*
X21323715Y-25046479D01*
X21186788Y-24967425D01*
X21186786Y-24967424D01*
X21186784Y-24967423D01*
X21186780Y-24967422D01*
X21186778Y-24967421D01*
X21034057Y-24926500D01*
X20875943Y-24926500D01*
X20723221Y-24967421D01*
X20723218Y-24967422D01*
X20723216Y-24967423D01*
X20706586Y-24977023D01*
X20703825Y-24978167D01*
X20696773Y-24980061D01*
X20570904Y-25042207D01*
X20558509Y-25048754D01*
X20557409Y-25049375D01*
X20545380Y-25056603D01*
X20454227Y-25114834D01*
X20453900Y-25115036D01*
X20439141Y-25123784D01*
X20403166Y-25145106D01*
X20403156Y-25145112D01*
X20403154Y-25145112D01*
X20403154Y-25145113D01*
X20399710Y-25147153D01*
X20397424Y-25148189D01*
X20354282Y-25162298D01*
X20351636Y-25162830D01*
X20245115Y-25171463D01*
X20227394Y-25176122D01*
X20224470Y-25176500D01*
X18183946Y-25176500D01*
X18175814Y-25173132D01*
X17908455Y-24905773D01*
X17906540Y-24903237D01*
X17898362Y-24888555D01*
X17829145Y-24807133D01*
X17827650Y-24804886D01*
X17807118Y-24764397D01*
X17806234Y-24762046D01*
X17798166Y-24730500D01*
X17790641Y-24701082D01*
X17790555Y-24700720D01*
X17788100Y-24689578D01*
X17767269Y-24595046D01*
X17763862Y-24581390D01*
X17763517Y-24580153D01*
X17759390Y-24566782D01*
X17758426Y-24563939D01*
X17714342Y-24433864D01*
X17714339Y-24433855D01*
X17711619Y-24426230D01*
X17711359Y-24425536D01*
X17708412Y-24418030D01*
X17708334Y-24417913D01*
X17708224Y-24417670D01*
X17708129Y-24417487D01*
X17708139Y-24417481D01*
X17706802Y-24414524D01*
X17704577Y-24406216D01*
X17625520Y-24269284D01*
X17513716Y-24157480D01*
X17513715Y-24157479D01*
X17376788Y-24078425D01*
X17376786Y-24078424D01*
X17376784Y-24078423D01*
X17376780Y-24078422D01*
X17376778Y-24078421D01*
X17224057Y-24037500D01*
X17065943Y-24037500D01*
X16913221Y-24078421D01*
X16913211Y-24078425D01*
X16776284Y-24157479D01*
X16664479Y-24269284D01*
X16585425Y-24406211D01*
X16585421Y-24406221D01*
X16544500Y-24558943D01*
X12591508Y-24558943D01*
X12570920Y-24523284D01*
X12459116Y-24411480D01*
X12459115Y-24411479D01*
X12322188Y-24332425D01*
X12322186Y-24332424D01*
X12322184Y-24332423D01*
X12322180Y-24332422D01*
X12322178Y-24332421D01*
X12169457Y-24291500D01*
X12011343Y-24291500D01*
X11858621Y-24332421D01*
X11858611Y-24332425D01*
X11721684Y-24411479D01*
X11628632Y-24504532D01*
X11620500Y-24507900D01*
X11612368Y-24504532D01*
X11519315Y-24411479D01*
X11382388Y-24332425D01*
X11382386Y-24332424D01*
X11382384Y-24332423D01*
X11382380Y-24332422D01*
X11382378Y-24332421D01*
X11229657Y-24291500D01*
X11071543Y-24291500D01*
X10918821Y-24332421D01*
X10918811Y-24332425D01*
X10781884Y-24411479D01*
X10670079Y-24523284D01*
X10591025Y-24660211D01*
X10591021Y-24660221D01*
X10572190Y-24730500D01*
X10550100Y-24812943D01*
X9744500Y-24812943D01*
X9744500Y-24685943D01*
X9703577Y-24533216D01*
X9624520Y-24396284D01*
X9512716Y-24284480D01*
X9512715Y-24284479D01*
X9375788Y-24205425D01*
X9375786Y-24205424D01*
X9375784Y-24205423D01*
X9375780Y-24205422D01*
X9375778Y-24205421D01*
X9223057Y-24164500D01*
X9064943Y-24164500D01*
X8912221Y-24205421D01*
X8912211Y-24205425D01*
X8775284Y-24284479D01*
X8663479Y-24396284D01*
X8584425Y-24533211D01*
X8584421Y-24533221D01*
X8543500Y-24685943D01*
X400500Y-24685943D01*
X400500Y-23669943D01*
X9686500Y-23669943D01*
X9686500Y-23828056D01*
X9727421Y-23980778D01*
X9727425Y-23980788D01*
X9804160Y-24113699D01*
X9806480Y-24117716D01*
X9918284Y-24229520D01*
X10055216Y-24308577D01*
X10207943Y-24349500D01*
X10366057Y-24349500D01*
X10518784Y-24308577D01*
X10535420Y-24298970D01*
X10538177Y-24297828D01*
X10545232Y-24295935D01*
X10671082Y-24233797D01*
X10683464Y-24227256D01*
X10684583Y-24226625D01*
X10696636Y-24219383D01*
X10787802Y-24161141D01*
X10788096Y-24160960D01*
X10842281Y-24128845D01*
X10844566Y-24127809D01*
X10887711Y-24113698D01*
X10890354Y-24113167D01*
X10921346Y-24110656D01*
X10996875Y-24104537D01*
X10996878Y-24104536D01*
X10996881Y-24104536D01*
X11014604Y-24099878D01*
X11017527Y-24099500D01*
X12224816Y-24099500D01*
X12227961Y-24099938D01*
X12244119Y-24104536D01*
X12244121Y-24104536D01*
X12244126Y-24104537D01*
X12316091Y-24110367D01*
X12350642Y-24113167D01*
X12353285Y-24113698D01*
X12365566Y-24117715D01*
X12396427Y-24127808D01*
X12398715Y-24128845D01*
X12452883Y-24160950D01*
X12453211Y-24161152D01*
X12528198Y-24209057D01*
X12544364Y-24219384D01*
X12556399Y-24226616D01*
X12557545Y-24227262D01*
X12569903Y-24233791D01*
X12569914Y-24233796D01*
X12569917Y-24233798D01*
X12695768Y-24295936D01*
X12702974Y-24299355D01*
X12703648Y-24299662D01*
X12703679Y-24299676D01*
X12705810Y-24300605D01*
X12711175Y-24302945D01*
X12711178Y-24302945D01*
X12711179Y-24302946D01*
X12711293Y-24302969D01*
X12711504Y-24303048D01*
X12711765Y-24303131D01*
X12711760Y-24303145D01*
X12714781Y-24304284D01*
X12722216Y-24308577D01*
X12874943Y-24349500D01*
X13033057Y-24349500D01*
X13185784Y-24308577D01*
X13322716Y-24229520D01*
X13434520Y-24117716D01*
X13513577Y-23980784D01*
X13554500Y-23828057D01*
X13554500Y-23669943D01*
X17687500Y-23669943D01*
X17687500Y-23828056D01*
X17728421Y-23980778D01*
X17728425Y-23980788D01*
X17805160Y-24113699D01*
X17807480Y-24117716D01*
X17919284Y-24229520D01*
X18056216Y-24308577D01*
X18208943Y-24349500D01*
X18367057Y-24349500D01*
X18519784Y-24308577D01*
X18533596Y-24300601D01*
X18536519Y-24299415D01*
X18542685Y-24297860D01*
X18666512Y-24239021D01*
X18675420Y-24234573D01*
X18676216Y-24234156D01*
X18684685Y-24229514D01*
X18773392Y-24178679D01*
X18773857Y-24178430D01*
X18826934Y-24151652D01*
X18829091Y-24150825D01*
X18877871Y-24137624D01*
X18880108Y-24137251D01*
X18988864Y-24130066D01*
X19008072Y-24125245D01*
X19010871Y-24124900D01*
X20324515Y-24124900D01*
X20332647Y-24128268D01*
X20335860Y-24134522D01*
X20338556Y-24150822D01*
X20344082Y-24184239D01*
X20347058Y-24199380D01*
X20347364Y-24200718D01*
X20351277Y-24215751D01*
X20382790Y-24323291D01*
X20386980Y-24336295D01*
X20387396Y-24337477D01*
X20392242Y-24350155D01*
X20392608Y-24351282D01*
X20395423Y-24361784D01*
X20461653Y-24476500D01*
X20474480Y-24498716D01*
X20586284Y-24610520D01*
X20723216Y-24689577D01*
X20875943Y-24730500D01*
X21034057Y-24730500D01*
X21186784Y-24689577D01*
X21323716Y-24610520D01*
X21435520Y-24498716D01*
X21514577Y-24361784D01*
X21555500Y-24209057D01*
X21555500Y-24050943D01*
X21514577Y-23898216D01*
X21435520Y-23761284D01*
X21323716Y-23649480D01*
X21323715Y-23649479D01*
X21186788Y-23570425D01*
X21186786Y-23570424D01*
X21186784Y-23570423D01*
X21186780Y-23570422D01*
X21186778Y-23570421D01*
X21034057Y-23529500D01*
X20983920Y-23529500D01*
X20980792Y-23529066D01*
X20964453Y-23524447D01*
X20861471Y-23516280D01*
X20859370Y-23515915D01*
X20831079Y-23508242D01*
X20825957Y-23505275D01*
X20814611Y-23493929D01*
X20734692Y-23447788D01*
X20734690Y-23447787D01*
X20734688Y-23447786D01*
X20734684Y-23447785D01*
X20734682Y-23447784D01*
X20645544Y-23423900D01*
X20475938Y-23423900D01*
X20475029Y-23423864D01*
X20435093Y-23420697D01*
X20424817Y-23420089D01*
X20423953Y-23420056D01*
X20413989Y-23419863D01*
X20413987Y-23419863D01*
X20394806Y-23423679D01*
X20392562Y-23423900D01*
X19014924Y-23423900D01*
X19011592Y-23423407D01*
X19003742Y-23421030D01*
X18997310Y-23419083D01*
X18997308Y-23419082D01*
X18997305Y-23419082D01*
X18896001Y-23409153D01*
X18892910Y-23408409D01*
X18857555Y-23394490D01*
X18855174Y-23393211D01*
X18801309Y-23355513D01*
X18801198Y-23355434D01*
X18775434Y-23336946D01*
X18709336Y-23289514D01*
X18703084Y-23285367D01*
X18693714Y-23279150D01*
X18692257Y-23278259D01*
X18675940Y-23269081D01*
X18550217Y-23204314D01*
X18541109Y-23199849D01*
X18540264Y-23199456D01*
X18530744Y-23195253D01*
X18530153Y-23195066D01*
X18530173Y-23195001D01*
X18530172Y-23195001D01*
X18530177Y-23194987D01*
X18530188Y-23194955D01*
X18527794Y-23194047D01*
X18527215Y-23193713D01*
X18523348Y-23191480D01*
X18519786Y-23189424D01*
X18519785Y-23189423D01*
X18519784Y-23189423D01*
X18519781Y-23189422D01*
X18519778Y-23189421D01*
X18367057Y-23148500D01*
X18208943Y-23148500D01*
X18056221Y-23189421D01*
X18056211Y-23189425D01*
X17919284Y-23268479D01*
X17807479Y-23380284D01*
X17728425Y-23517211D01*
X17728421Y-23517221D01*
X17687500Y-23669943D01*
X13554500Y-23669943D01*
X13513577Y-23517216D01*
X13434520Y-23380284D01*
X13322716Y-23268480D01*
X13322715Y-23268479D01*
X13185788Y-23189425D01*
X13185786Y-23189424D01*
X13185784Y-23189423D01*
X13185780Y-23189422D01*
X13185778Y-23189421D01*
X13033057Y-23148500D01*
X12874943Y-23148500D01*
X12722221Y-23189421D01*
X12722218Y-23189422D01*
X12722216Y-23189423D01*
X12705586Y-23199023D01*
X12702825Y-23200167D01*
X12695773Y-23202061D01*
X12569904Y-23264207D01*
X12557509Y-23270754D01*
X12556409Y-23271375D01*
X12544380Y-23278603D01*
X12453218Y-23336840D01*
X12452890Y-23337042D01*
X12398712Y-23369152D01*
X12396424Y-23370189D01*
X12353284Y-23384298D01*
X12350638Y-23384830D01*
X12244115Y-23393463D01*
X12226394Y-23398122D01*
X12223470Y-23398500D01*
X11016189Y-23398500D01*
X11013042Y-23398061D01*
X10996887Y-23393464D01*
X10996874Y-23393461D01*
X10890361Y-23384830D01*
X10887715Y-23384298D01*
X10844569Y-23370187D01*
X10842281Y-23369150D01*
X10788113Y-23337045D01*
X10787785Y-23336843D01*
X10696627Y-23278609D01*
X10684658Y-23271414D01*
X10683574Y-23270803D01*
X10671099Y-23264210D01*
X10671088Y-23264204D01*
X10545216Y-23202056D01*
X10545071Y-23201987D01*
X10537851Y-23198564D01*
X10537128Y-23198235D01*
X10529830Y-23195056D01*
X10529826Y-23195055D01*
X10529824Y-23195054D01*
X10529679Y-23195024D01*
X10529437Y-23194933D01*
X10529243Y-23194872D01*
X10529246Y-23194860D01*
X10526215Y-23193713D01*
X10518788Y-23189425D01*
X10518786Y-23189424D01*
X10518784Y-23189423D01*
X10518780Y-23189422D01*
X10518778Y-23189421D01*
X10366057Y-23148500D01*
X10207943Y-23148500D01*
X10055221Y-23189421D01*
X10055211Y-23189425D01*
X9918284Y-23268479D01*
X9806479Y-23380284D01*
X9727425Y-23517211D01*
X9727421Y-23517221D01*
X9686500Y-23669943D01*
X400500Y-23669943D01*
X400500Y-22272943D01*
X9940500Y-22272943D01*
X9940500Y-22431056D01*
X9981421Y-22583778D01*
X9981425Y-22583788D01*
X10058160Y-22716699D01*
X10060480Y-22720716D01*
X10172284Y-22832520D01*
X10309216Y-22911577D01*
X10461943Y-22952500D01*
X10620057Y-22952500D01*
X10772784Y-22911577D01*
X10789420Y-22901970D01*
X10792177Y-22900828D01*
X10799232Y-22898935D01*
X10925082Y-22836797D01*
X10937464Y-22830256D01*
X10938583Y-22829625D01*
X10950636Y-22822383D01*
X11041802Y-22764141D01*
X11042096Y-22763960D01*
X11096281Y-22731845D01*
X11098566Y-22730809D01*
X11141711Y-22716698D01*
X11144354Y-22716167D01*
X11175346Y-22713656D01*
X11250875Y-22707537D01*
X11250878Y-22707536D01*
X11250881Y-22707536D01*
X11268604Y-22702878D01*
X11271527Y-22702500D01*
X12732816Y-22702500D01*
X12735961Y-22702938D01*
X12752119Y-22707536D01*
X12752121Y-22707536D01*
X12752126Y-22707537D01*
X12824091Y-22713367D01*
X12858642Y-22716167D01*
X12861285Y-22716698D01*
X12873566Y-22720715D01*
X12904427Y-22730808D01*
X12906715Y-22731845D01*
X12960883Y-22763950D01*
X12961211Y-22764152D01*
X13052364Y-22822384D01*
X13064399Y-22829616D01*
X13065545Y-22830262D01*
X13077903Y-22836791D01*
X13077914Y-22836796D01*
X13077917Y-22836798D01*
X13203768Y-22898936D01*
X13210974Y-22902355D01*
X13211648Y-22902662D01*
X13211679Y-22902676D01*
X13215121Y-22904176D01*
X13219175Y-22905945D01*
X13219178Y-22905945D01*
X13219179Y-22905946D01*
X13219293Y-22905969D01*
X13219504Y-22906048D01*
X13219765Y-22906131D01*
X13219760Y-22906145D01*
X13222781Y-22907284D01*
X13230216Y-22911577D01*
X13382943Y-22952500D01*
X13541057Y-22952500D01*
X13693784Y-22911577D01*
X13830716Y-22832520D01*
X13942520Y-22720716D01*
X14021577Y-22583784D01*
X14062500Y-22431057D01*
X14062500Y-22272943D01*
X17687500Y-22272943D01*
X17687500Y-22431056D01*
X17728421Y-22583778D01*
X17728425Y-22583788D01*
X17805160Y-22716699D01*
X17807480Y-22720716D01*
X17919284Y-22832520D01*
X18056216Y-22911577D01*
X18208943Y-22952500D01*
X18367057Y-22952500D01*
X18519784Y-22911577D01*
X18536420Y-22901970D01*
X18539177Y-22900828D01*
X18546232Y-22898935D01*
X18672082Y-22836797D01*
X18684464Y-22830256D01*
X18685583Y-22829625D01*
X18697636Y-22822383D01*
X18788802Y-22764141D01*
X18789096Y-22763960D01*
X18843281Y-22731845D01*
X18845566Y-22730809D01*
X18888711Y-22716698D01*
X18891354Y-22716167D01*
X18922346Y-22713656D01*
X18997875Y-22707537D01*
X18997878Y-22707536D01*
X18997881Y-22707536D01*
X19015604Y-22702878D01*
X19018527Y-22702500D01*
X19590816Y-22702500D01*
X19593961Y-22702938D01*
X19610119Y-22707536D01*
X19610121Y-22707536D01*
X19610126Y-22707537D01*
X19682091Y-22713367D01*
X19716642Y-22716167D01*
X19719285Y-22716698D01*
X19731566Y-22720715D01*
X19762427Y-22730808D01*
X19764715Y-22731845D01*
X19818883Y-22763950D01*
X19819211Y-22764152D01*
X19910364Y-22822384D01*
X19922399Y-22829616D01*
X19923545Y-22830262D01*
X19935903Y-22836791D01*
X19935914Y-22836796D01*
X19935917Y-22836798D01*
X20061768Y-22898936D01*
X20068974Y-22902355D01*
X20069648Y-22902662D01*
X20069679Y-22902676D01*
X20073121Y-22904176D01*
X20077175Y-22905945D01*
X20077178Y-22905945D01*
X20077179Y-22905946D01*
X20077293Y-22905969D01*
X20077504Y-22906048D01*
X20077765Y-22906131D01*
X20077760Y-22906145D01*
X20080781Y-22907284D01*
X20088216Y-22911577D01*
X20240943Y-22952500D01*
X20399057Y-22952500D01*
X20551784Y-22911577D01*
X20688716Y-22832520D01*
X20800520Y-22720716D01*
X20879577Y-22583784D01*
X20920500Y-22431057D01*
X20920500Y-22272943D01*
X22386500Y-22272943D01*
X22386500Y-22431056D01*
X22427421Y-22583778D01*
X22427425Y-22583788D01*
X22437020Y-22600407D01*
X22438167Y-22603174D01*
X22440061Y-22610227D01*
X22469325Y-22669497D01*
X22502204Y-22736088D01*
X22502210Y-22736099D01*
X22508792Y-22748553D01*
X22509419Y-22749664D01*
X22516616Y-22761640D01*
X22574853Y-22852801D01*
X22575055Y-22853129D01*
X22607150Y-22907281D01*
X22608187Y-22909569D01*
X22622298Y-22952715D01*
X22622830Y-22955361D01*
X22631462Y-23061879D01*
X22631463Y-23061882D01*
X22631818Y-23063233D01*
X22635709Y-23078036D01*
X22636122Y-23079605D01*
X22636500Y-23082529D01*
X22636500Y-23146808D01*
X22636061Y-23149955D01*
X22631464Y-23166110D01*
X22631461Y-23166124D01*
X22622830Y-23272636D01*
X22622298Y-23275282D01*
X22608189Y-23318422D01*
X22607152Y-23320710D01*
X22575026Y-23374915D01*
X22574824Y-23375243D01*
X22516603Y-23466380D01*
X22509365Y-23478426D01*
X22508759Y-23479501D01*
X22502213Y-23491890D01*
X22440054Y-23617786D01*
X22436547Y-23625185D01*
X22436235Y-23625870D01*
X22433056Y-23633168D01*
X22433053Y-23633179D01*
X22433027Y-23633310D01*
X22432939Y-23633540D01*
X22432872Y-23633756D01*
X22432859Y-23633752D01*
X22431715Y-23636780D01*
X22427424Y-23644213D01*
X22427421Y-23644221D01*
X22386500Y-23796943D01*
X22386500Y-23955056D01*
X22427421Y-24107778D01*
X22427425Y-24107788D01*
X22503196Y-24239029D01*
X22506480Y-24244716D01*
X22618284Y-24356520D01*
X22755216Y-24435577D01*
X22907943Y-24476500D01*
X23066057Y-24476500D01*
X23218784Y-24435577D01*
X23355716Y-24356520D01*
X23467520Y-24244716D01*
X23546577Y-24107784D01*
X23587500Y-23955057D01*
X23587500Y-23796943D01*
X23546577Y-23644216D01*
X23536976Y-23627587D01*
X23535828Y-23624818D01*
X23533936Y-23617768D01*
X23471798Y-23491917D01*
X23465256Y-23479534D01*
X23464625Y-23478415D01*
X23464616Y-23478399D01*
X23457394Y-23466380D01*
X23457383Y-23466362D01*
X23399152Y-23375211D01*
X23398950Y-23374883D01*
X23366846Y-23320716D01*
X23365809Y-23318428D01*
X23351699Y-23275286D01*
X23351167Y-23272640D01*
X23342537Y-23166122D01*
X23342536Y-23166118D01*
X23337878Y-23148393D01*
X23337500Y-23145470D01*
X23337500Y-23081184D01*
X23337939Y-23078036D01*
X23339911Y-23071108D01*
X23342536Y-23061881D01*
X23344321Y-23039858D01*
X23351167Y-22955356D01*
X23351699Y-22952710D01*
X23362040Y-22921094D01*
X23365809Y-22909566D01*
X23366846Y-22907280D01*
X23398960Y-22853096D01*
X23399152Y-22852785D01*
X23457383Y-22761636D01*
X23464625Y-22749583D01*
X23465256Y-22748464D01*
X23465256Y-22748463D01*
X23465278Y-22748425D01*
X23469536Y-22740360D01*
X23471797Y-22736082D01*
X23533935Y-22610232D01*
X23537355Y-22603025D01*
X23537662Y-22602351D01*
X23540945Y-22594824D01*
X23540968Y-22594706D01*
X23541052Y-22594484D01*
X23541130Y-22594238D01*
X23541143Y-22594242D01*
X23542286Y-22591214D01*
X23546577Y-22583784D01*
X23587500Y-22431057D01*
X23587500Y-22272943D01*
X23546577Y-22120216D01*
X23467520Y-21983284D01*
X23355716Y-21871480D01*
X23355715Y-21871479D01*
X23218788Y-21792425D01*
X23218786Y-21792424D01*
X23218784Y-21792423D01*
X23218780Y-21792422D01*
X23218778Y-21792421D01*
X23066057Y-21751500D01*
X22907943Y-21751500D01*
X22755221Y-21792421D01*
X22755211Y-21792425D01*
X22618284Y-21871479D01*
X22506479Y-21983284D01*
X22427425Y-22120211D01*
X22427421Y-22120221D01*
X22386500Y-22272943D01*
X20920500Y-22272943D01*
X20879577Y-22120216D01*
X20800520Y-21983284D01*
X20688716Y-21871480D01*
X20688715Y-21871479D01*
X20551788Y-21792425D01*
X20551786Y-21792424D01*
X20551784Y-21792423D01*
X20551780Y-21792422D01*
X20551778Y-21792421D01*
X20399057Y-21751500D01*
X20240943Y-21751500D01*
X20088221Y-21792421D01*
X20088218Y-21792422D01*
X20088216Y-21792423D01*
X20071586Y-21802023D01*
X20068825Y-21803167D01*
X20061773Y-21805061D01*
X19935904Y-21867207D01*
X19923509Y-21873754D01*
X19922409Y-21874375D01*
X19910380Y-21881603D01*
X19819227Y-21939834D01*
X19818900Y-21940036D01*
X19794679Y-21954391D01*
X19768166Y-21970106D01*
X19768156Y-21970112D01*
X19768154Y-21970112D01*
X19768154Y-21970113D01*
X19764710Y-21972153D01*
X19762424Y-21973189D01*
X19719282Y-21987298D01*
X19716636Y-21987830D01*
X19610115Y-21996463D01*
X19592394Y-22001122D01*
X19589470Y-22001500D01*
X19017189Y-22001500D01*
X19014042Y-22001061D01*
X18997887Y-21996464D01*
X18997874Y-21996461D01*
X18891361Y-21987830D01*
X18888715Y-21987298D01*
X18845569Y-21973187D01*
X18843281Y-21972150D01*
X18789113Y-21940045D01*
X18788785Y-21939843D01*
X18697627Y-21881609D01*
X18685658Y-21874414D01*
X18684574Y-21873803D01*
X18672099Y-21867210D01*
X18672088Y-21867204D01*
X18546216Y-21805056D01*
X18546071Y-21804987D01*
X18538851Y-21801564D01*
X18538128Y-21801235D01*
X18530830Y-21798056D01*
X18530826Y-21798055D01*
X18530824Y-21798054D01*
X18530679Y-21798024D01*
X18530437Y-21797933D01*
X18530243Y-21797872D01*
X18530246Y-21797860D01*
X18527215Y-21796713D01*
X18519788Y-21792425D01*
X18519786Y-21792424D01*
X18519784Y-21792423D01*
X18519780Y-21792422D01*
X18519778Y-21792421D01*
X18367057Y-21751500D01*
X18208943Y-21751500D01*
X18056221Y-21792421D01*
X18056211Y-21792425D01*
X17919284Y-21871479D01*
X17807479Y-21983284D01*
X17728425Y-22120211D01*
X17728421Y-22120221D01*
X17687500Y-22272943D01*
X14062500Y-22272943D01*
X14021577Y-22120216D01*
X13942520Y-21983284D01*
X13830716Y-21871480D01*
X13830715Y-21871479D01*
X13693788Y-21792425D01*
X13693786Y-21792424D01*
X13693784Y-21792423D01*
X13693780Y-21792422D01*
X13693778Y-21792421D01*
X13541057Y-21751500D01*
X13382943Y-21751500D01*
X13230221Y-21792421D01*
X13230218Y-21792422D01*
X13230216Y-21792423D01*
X13213586Y-21802023D01*
X13210825Y-21803167D01*
X13203773Y-21805061D01*
X13077904Y-21867207D01*
X13065509Y-21873754D01*
X13064409Y-21874375D01*
X13052380Y-21881603D01*
X12961218Y-21939840D01*
X12960890Y-21940042D01*
X12906712Y-21972152D01*
X12904424Y-21973189D01*
X12861284Y-21987298D01*
X12858638Y-21987830D01*
X12752115Y-21996463D01*
X12734394Y-22001122D01*
X12731470Y-22001500D01*
X11270189Y-22001500D01*
X11267042Y-22001061D01*
X11250887Y-21996464D01*
X11250874Y-21996461D01*
X11144361Y-21987830D01*
X11141715Y-21987298D01*
X11098569Y-21973187D01*
X11096281Y-21972150D01*
X11042113Y-21940045D01*
X11041785Y-21939843D01*
X10950627Y-21881609D01*
X10938658Y-21874414D01*
X10937574Y-21873803D01*
X10925099Y-21867210D01*
X10925088Y-21867204D01*
X10799216Y-21805056D01*
X10799071Y-21804987D01*
X10791851Y-21801564D01*
X10791128Y-21801235D01*
X10783830Y-21798056D01*
X10783826Y-21798055D01*
X10783824Y-21798054D01*
X10783679Y-21798024D01*
X10783437Y-21797933D01*
X10783243Y-21797872D01*
X10783246Y-21797860D01*
X10780215Y-21796713D01*
X10772788Y-21792425D01*
X10772786Y-21792424D01*
X10772784Y-21792423D01*
X10772780Y-21792422D01*
X10772778Y-21792421D01*
X10620057Y-21751500D01*
X10461943Y-21751500D01*
X10309221Y-21792421D01*
X10309211Y-21792425D01*
X10172284Y-21871479D01*
X10060479Y-21983284D01*
X9981425Y-22120211D01*
X9981421Y-22120221D01*
X9940500Y-22272943D01*
X400500Y-22272943D01*
X400500Y-20231418D01*
X9034500Y-20231418D01*
X9034500Y-20408581D01*
X9062213Y-20583552D01*
X9116956Y-20752038D01*
X9116957Y-20752041D01*
X9116958Y-20752042D01*
X9197386Y-20909890D01*
X9301517Y-21053214D01*
X9426786Y-21178483D01*
X9570110Y-21282614D01*
X9727958Y-21363042D01*
X9896445Y-21417786D01*
X9983933Y-21431643D01*
X10071419Y-21445500D01*
X10071421Y-21445500D01*
X10248581Y-21445500D01*
X10329924Y-21432616D01*
X10423555Y-21417786D01*
X10592042Y-21363042D01*
X10749890Y-21282614D01*
X10893214Y-21178483D01*
X11018483Y-21053214D01*
X11122614Y-20909890D01*
X11176681Y-20803779D01*
X11183374Y-20798063D01*
X11186928Y-20797500D01*
X13591454Y-20797500D01*
X13599586Y-20800868D01*
X13765342Y-20966624D01*
X13767256Y-20969160D01*
X13775430Y-20983834D01*
X13775432Y-20983838D01*
X13844651Y-21065263D01*
X13846146Y-21067510D01*
X13866677Y-21107996D01*
X13867561Y-21110348D01*
X13883156Y-21171326D01*
X13883246Y-21171700D01*
X13906535Y-21277374D01*
X13909922Y-21290958D01*
X13910262Y-21292177D01*
X13914414Y-21305634D01*
X13959443Y-21438497D01*
X13962233Y-21446312D01*
X13962473Y-21446952D01*
X13965387Y-21454367D01*
X13965389Y-21454371D01*
X13965470Y-21454492D01*
X13965581Y-21454739D01*
X13965671Y-21454911D01*
X13965661Y-21454916D01*
X13966995Y-21457872D01*
X13969223Y-21466184D01*
X13994140Y-21509343D01*
X14048280Y-21603116D01*
X14160084Y-21714920D01*
X14297016Y-21793977D01*
X14449743Y-21834900D01*
X14607857Y-21834900D01*
X14760584Y-21793977D01*
X14897516Y-21714920D01*
X15009320Y-21603116D01*
X15088377Y-21466184D01*
X15129300Y-21313457D01*
X15129300Y-21155343D01*
X15088377Y-21002616D01*
X15015243Y-20875943D01*
X17687500Y-20875943D01*
X17687500Y-21034057D01*
X17696464Y-21067510D01*
X17728421Y-21186778D01*
X17728425Y-21186788D01*
X17805160Y-21319699D01*
X17807480Y-21323716D01*
X17919284Y-21435520D01*
X18056216Y-21514577D01*
X18208943Y-21555500D01*
X18367057Y-21555500D01*
X18519784Y-21514577D01*
X18536420Y-21504970D01*
X18539177Y-21503828D01*
X18546232Y-21501935D01*
X18672082Y-21439797D01*
X18684464Y-21433256D01*
X18685583Y-21432625D01*
X18697636Y-21425383D01*
X18788802Y-21367141D01*
X18789096Y-21366960D01*
X18843281Y-21334845D01*
X18845566Y-21333809D01*
X18888711Y-21319698D01*
X18891354Y-21319167D01*
X18922346Y-21316656D01*
X18997875Y-21310537D01*
X18997878Y-21310536D01*
X18997881Y-21310536D01*
X19015604Y-21305878D01*
X19018527Y-21305500D01*
X19590816Y-21305500D01*
X19593961Y-21305938D01*
X19610119Y-21310536D01*
X19610121Y-21310536D01*
X19610126Y-21310537D01*
X19682091Y-21316367D01*
X19716642Y-21319167D01*
X19719285Y-21319698D01*
X19731566Y-21323715D01*
X19762427Y-21333808D01*
X19764715Y-21334845D01*
X19818883Y-21366950D01*
X19819211Y-21367152D01*
X19898470Y-21417786D01*
X19910364Y-21425384D01*
X19922399Y-21432616D01*
X19923545Y-21433262D01*
X19935903Y-21439791D01*
X19935914Y-21439796D01*
X19935917Y-21439798D01*
X20061768Y-21501936D01*
X20068974Y-21505355D01*
X20069648Y-21505662D01*
X20069679Y-21505676D01*
X20073121Y-21507176D01*
X20077175Y-21508945D01*
X20077178Y-21508945D01*
X20077179Y-21508946D01*
X20077293Y-21508969D01*
X20077504Y-21509048D01*
X20077765Y-21509131D01*
X20077760Y-21509145D01*
X20080781Y-21510284D01*
X20088216Y-21514577D01*
X20240943Y-21555500D01*
X20399057Y-21555500D01*
X20551784Y-21514577D01*
X20688716Y-21435520D01*
X20800520Y-21323716D01*
X20879577Y-21186784D01*
X20920500Y-21034057D01*
X20920500Y-20875943D01*
X20879577Y-20723216D01*
X20800520Y-20586284D01*
X20688716Y-20474480D01*
X20688715Y-20474479D01*
X20551788Y-20395425D01*
X20551786Y-20395424D01*
X20551784Y-20395423D01*
X20551780Y-20395422D01*
X20551778Y-20395421D01*
X20399057Y-20354500D01*
X20240943Y-20354500D01*
X20088221Y-20395421D01*
X20088218Y-20395422D01*
X20088216Y-20395423D01*
X20071586Y-20405023D01*
X20068825Y-20406167D01*
X20061773Y-20408061D01*
X19935904Y-20470207D01*
X19923509Y-20476754D01*
X19922409Y-20477375D01*
X19910380Y-20484603D01*
X19819227Y-20542834D01*
X19818900Y-20543036D01*
X19804205Y-20551746D01*
X19768166Y-20573106D01*
X19768156Y-20573112D01*
X19768154Y-20573112D01*
X19768154Y-20573113D01*
X19764710Y-20575153D01*
X19762424Y-20576189D01*
X19719282Y-20590298D01*
X19716636Y-20590830D01*
X19610115Y-20599463D01*
X19592394Y-20604122D01*
X19589470Y-20604500D01*
X19017189Y-20604500D01*
X19014042Y-20604061D01*
X18997887Y-20599464D01*
X18997874Y-20599461D01*
X18891361Y-20590830D01*
X18888715Y-20590298D01*
X18845569Y-20576187D01*
X18843281Y-20575150D01*
X18789113Y-20543045D01*
X18788785Y-20542843D01*
X18697627Y-20484609D01*
X18685658Y-20477414D01*
X18684574Y-20476803D01*
X18672099Y-20470210D01*
X18672088Y-20470204D01*
X18546216Y-20408056D01*
X18546071Y-20407987D01*
X18538851Y-20404564D01*
X18538128Y-20404235D01*
X18530830Y-20401056D01*
X18530826Y-20401055D01*
X18530824Y-20401054D01*
X18530679Y-20401024D01*
X18530437Y-20400933D01*
X18530243Y-20400872D01*
X18530246Y-20400860D01*
X18527215Y-20399713D01*
X18519788Y-20395425D01*
X18519786Y-20395424D01*
X18519784Y-20395423D01*
X18519780Y-20395422D01*
X18519778Y-20395421D01*
X18367057Y-20354500D01*
X18208943Y-20354500D01*
X18056221Y-20395421D01*
X18056211Y-20395425D01*
X17919284Y-20474479D01*
X17807479Y-20586284D01*
X17728425Y-20723211D01*
X17728421Y-20723221D01*
X17708368Y-20798063D01*
X17687500Y-20875943D01*
X15015243Y-20875943D01*
X15009320Y-20865684D01*
X14897516Y-20753880D01*
X14897515Y-20753879D01*
X14760582Y-20674822D01*
X14760583Y-20674822D01*
X14742037Y-20669853D01*
X14739268Y-20668707D01*
X14732950Y-20665063D01*
X14732948Y-20665062D01*
X14732946Y-20665061D01*
X14732941Y-20665059D01*
X14732938Y-20665058D01*
X14600022Y-20620009D01*
X14586698Y-20615896D01*
X14586257Y-20615773D01*
X14585458Y-20615550D01*
X14578542Y-20613824D01*
X14571767Y-20612133D01*
X14466106Y-20588848D01*
X14465732Y-20588758D01*
X14404748Y-20573161D01*
X14402396Y-20572277D01*
X14361910Y-20551746D01*
X14359663Y-20550251D01*
X14278240Y-20481035D01*
X14278235Y-20481031D01*
X14262410Y-20471793D01*
X14260076Y-20469994D01*
X14021500Y-20231418D01*
X24274500Y-20231418D01*
X24274500Y-20408581D01*
X24302213Y-20583552D01*
X24356956Y-20752038D01*
X24356957Y-20752041D01*
X24356958Y-20752042D01*
X24437386Y-20909890D01*
X24541517Y-21053214D01*
X24666786Y-21178483D01*
X24810110Y-21282614D01*
X24967958Y-21363042D01*
X25041554Y-21386954D01*
X25048246Y-21392670D01*
X25049500Y-21397891D01*
X25049500Y-22271143D01*
X25072182Y-22355793D01*
X25072182Y-22355794D01*
X25073383Y-22360281D01*
X25073388Y-22360292D01*
X25119529Y-22440211D01*
X26097042Y-23417724D01*
X26098956Y-23420260D01*
X26107130Y-23434934D01*
X26107132Y-23434938D01*
X26176351Y-23516363D01*
X26177846Y-23518610D01*
X26198377Y-23559096D01*
X26199261Y-23561448D01*
X26214856Y-23622426D01*
X26214946Y-23622800D01*
X26238235Y-23728474D01*
X26241622Y-23742058D01*
X26241962Y-23743277D01*
X26246114Y-23756734D01*
X26291143Y-23889597D01*
X26293933Y-23897412D01*
X26294173Y-23898052D01*
X26297087Y-23905467D01*
X26297089Y-23905471D01*
X26297170Y-23905592D01*
X26297281Y-23905839D01*
X26297371Y-23906011D01*
X26297361Y-23906016D01*
X26298695Y-23908972D01*
X26300923Y-23917284D01*
X26379980Y-24054216D01*
X26491784Y-24166020D01*
X26628716Y-24245077D01*
X26781443Y-24286000D01*
X26939557Y-24286000D01*
X27092284Y-24245077D01*
X27229216Y-24166020D01*
X27341020Y-24054216D01*
X27420077Y-23917284D01*
X27461000Y-23764557D01*
X27461000Y-23606443D01*
X27420077Y-23453716D01*
X27341020Y-23316784D01*
X27229216Y-23204980D01*
X27229215Y-23204979D01*
X27092282Y-23125922D01*
X27092283Y-23125922D01*
X27073737Y-23120953D01*
X27070968Y-23119807D01*
X27064650Y-23116163D01*
X27064648Y-23116162D01*
X27064646Y-23116161D01*
X27064641Y-23116159D01*
X27064638Y-23116158D01*
X26931722Y-23071109D01*
X26918398Y-23066996D01*
X26917957Y-23066873D01*
X26917158Y-23066650D01*
X26910242Y-23064924D01*
X26903467Y-23063233D01*
X26797806Y-23039948D01*
X26797432Y-23039858D01*
X26736448Y-23024261D01*
X26734096Y-23023377D01*
X26693610Y-23002846D01*
X26691363Y-23001351D01*
X26609940Y-22932135D01*
X26609935Y-22932131D01*
X26594110Y-22922893D01*
X26591776Y-22921094D01*
X25753868Y-22083186D01*
X25750500Y-22075054D01*
X25750500Y-21501418D01*
X36974500Y-21501418D01*
X36974500Y-21678581D01*
X37002213Y-21853552D01*
X37056956Y-22022038D01*
X37056957Y-22022041D01*
X37056958Y-22022042D01*
X37137386Y-22179890D01*
X37241517Y-22323214D01*
X37366786Y-22448483D01*
X37510110Y-22552614D01*
X37667958Y-22633042D01*
X37836445Y-22687786D01*
X37923933Y-22701643D01*
X38011419Y-22715500D01*
X38011421Y-22715500D01*
X38188581Y-22715500D01*
X38258569Y-22704414D01*
X38363555Y-22687786D01*
X38532042Y-22633042D01*
X38689890Y-22552614D01*
X38833214Y-22448483D01*
X38958483Y-22323214D01*
X39062614Y-22179890D01*
X39143042Y-22022042D01*
X39197786Y-21853555D01*
X39225500Y-21678579D01*
X39225500Y-21501421D01*
X39225500Y-21501418D01*
X39514500Y-21501418D01*
X39514500Y-21678581D01*
X39542213Y-21853552D01*
X39596956Y-22022038D01*
X39596957Y-22022041D01*
X39596958Y-22022042D01*
X39677386Y-22179890D01*
X39781517Y-22323214D01*
X39906786Y-22448483D01*
X40050110Y-22552614D01*
X40207958Y-22633042D01*
X40376445Y-22687786D01*
X40463933Y-22701643D01*
X40551419Y-22715500D01*
X40551421Y-22715500D01*
X40728581Y-22715500D01*
X40798569Y-22704414D01*
X40903555Y-22687786D01*
X41072042Y-22633042D01*
X41229890Y-22552614D01*
X41373214Y-22448483D01*
X41498483Y-22323214D01*
X41602614Y-22179890D01*
X41683042Y-22022042D01*
X41737786Y-21853555D01*
X41765500Y-21678579D01*
X41765500Y-21501421D01*
X41765500Y-21501418D01*
X42054500Y-21501418D01*
X42054500Y-21678581D01*
X42082213Y-21853552D01*
X42136956Y-22022038D01*
X42136957Y-22022041D01*
X42136958Y-22022042D01*
X42217386Y-22179890D01*
X42321517Y-22323214D01*
X42446786Y-22448483D01*
X42590110Y-22552614D01*
X42747958Y-22633042D01*
X42916445Y-22687786D01*
X43003933Y-22701643D01*
X43091419Y-22715500D01*
X43091421Y-22715500D01*
X43268581Y-22715500D01*
X43338569Y-22704414D01*
X43443555Y-22687786D01*
X43612042Y-22633042D01*
X43769890Y-22552614D01*
X43913214Y-22448483D01*
X44038483Y-22323214D01*
X44142614Y-22179890D01*
X44223042Y-22022042D01*
X44277786Y-21853555D01*
X44305500Y-21678579D01*
X44305500Y-21501421D01*
X44305500Y-21501418D01*
X44594500Y-21501418D01*
X44594500Y-21678581D01*
X44622213Y-21853552D01*
X44676956Y-22022038D01*
X44676957Y-22022041D01*
X44676958Y-22022042D01*
X44757386Y-22179890D01*
X44861517Y-22323214D01*
X44986786Y-22448483D01*
X45130110Y-22552614D01*
X45287958Y-22633042D01*
X45456445Y-22687786D01*
X45543933Y-22701643D01*
X45631419Y-22715500D01*
X45631421Y-22715500D01*
X45808581Y-22715500D01*
X45878569Y-22704414D01*
X45983555Y-22687786D01*
X46152042Y-22633042D01*
X46309890Y-22552614D01*
X46453214Y-22448483D01*
X46578483Y-22323214D01*
X46682614Y-22179890D01*
X46763042Y-22022042D01*
X46817786Y-21853555D01*
X46845500Y-21678579D01*
X46845500Y-21501421D01*
X46838602Y-21457872D01*
X46823583Y-21363043D01*
X46817786Y-21326445D01*
X46763042Y-21157958D01*
X46682614Y-21000110D01*
X46578483Y-20856786D01*
X46453214Y-20731517D01*
X46309890Y-20627386D01*
X46152042Y-20546958D01*
X46152041Y-20546957D01*
X46152038Y-20546956D01*
X45983552Y-20492213D01*
X45808581Y-20464500D01*
X45808579Y-20464500D01*
X45631421Y-20464500D01*
X45631419Y-20464500D01*
X45456447Y-20492213D01*
X45287961Y-20546956D01*
X45130108Y-20627387D01*
X44986786Y-20731517D01*
X44861517Y-20856786D01*
X44757387Y-21000108D01*
X44676956Y-21157961D01*
X44622213Y-21326447D01*
X44594500Y-21501418D01*
X44305500Y-21501418D01*
X44298602Y-21457872D01*
X44283583Y-21363043D01*
X44277786Y-21326445D01*
X44223042Y-21157958D01*
X44142614Y-21000110D01*
X44038483Y-20856786D01*
X43913214Y-20731517D01*
X43769890Y-20627386D01*
X43612042Y-20546958D01*
X43612041Y-20546957D01*
X43612038Y-20546956D01*
X43443552Y-20492213D01*
X43268581Y-20464500D01*
X43268579Y-20464500D01*
X43091421Y-20464500D01*
X43091419Y-20464500D01*
X42916447Y-20492213D01*
X42747961Y-20546956D01*
X42590108Y-20627387D01*
X42446786Y-20731517D01*
X42321517Y-20856786D01*
X42217387Y-21000108D01*
X42136956Y-21157961D01*
X42082213Y-21326447D01*
X42054500Y-21501418D01*
X41765500Y-21501418D01*
X41758602Y-21457872D01*
X41743583Y-21363043D01*
X41737786Y-21326445D01*
X41683042Y-21157958D01*
X41602614Y-21000110D01*
X41498483Y-20856786D01*
X41373214Y-20731517D01*
X41229890Y-20627386D01*
X41072042Y-20546958D01*
X41072041Y-20546957D01*
X41072038Y-20546956D01*
X40903552Y-20492213D01*
X40728581Y-20464500D01*
X40728579Y-20464500D01*
X40551421Y-20464500D01*
X40551419Y-20464500D01*
X40376447Y-20492213D01*
X40207961Y-20546956D01*
X40050108Y-20627387D01*
X39906786Y-20731517D01*
X39781517Y-20856786D01*
X39677387Y-21000108D01*
X39596956Y-21157961D01*
X39542213Y-21326447D01*
X39514500Y-21501418D01*
X39225500Y-21501418D01*
X39218602Y-21457872D01*
X39203583Y-21363043D01*
X39197786Y-21326445D01*
X39143042Y-21157958D01*
X39062614Y-21000110D01*
X38958483Y-20856786D01*
X38833214Y-20731517D01*
X38689890Y-20627386D01*
X38532042Y-20546958D01*
X38532041Y-20546957D01*
X38532038Y-20546956D01*
X38363552Y-20492213D01*
X38188581Y-20464500D01*
X38188579Y-20464500D01*
X38011421Y-20464500D01*
X38011419Y-20464500D01*
X37836447Y-20492213D01*
X37667961Y-20546956D01*
X37510108Y-20627387D01*
X37366786Y-20731517D01*
X37241517Y-20856786D01*
X37137387Y-21000108D01*
X37056956Y-21157961D01*
X37002213Y-21326447D01*
X36974500Y-21501418D01*
X25750500Y-21501418D01*
X25750500Y-21397891D01*
X25753868Y-21389759D01*
X25758445Y-21386954D01*
X25832042Y-21363042D01*
X25989890Y-21282614D01*
X26133214Y-21178483D01*
X26258483Y-21053214D01*
X26362614Y-20909890D01*
X26443042Y-20752042D01*
X26497786Y-20583555D01*
X26515488Y-20471793D01*
X26525500Y-20408581D01*
X26525500Y-20231418D01*
X26497786Y-20056447D01*
X26497786Y-20056445D01*
X26443042Y-19887958D01*
X26362614Y-19730110D01*
X26258483Y-19586786D01*
X26133214Y-19461517D01*
X25989890Y-19357386D01*
X25832042Y-19276958D01*
X25832041Y-19276957D01*
X25832038Y-19276956D01*
X25663552Y-19222213D01*
X25488581Y-19194500D01*
X25488579Y-19194500D01*
X25311421Y-19194500D01*
X25311419Y-19194500D01*
X25136447Y-19222213D01*
X24967961Y-19276956D01*
X24810108Y-19357387D01*
X24666786Y-19461517D01*
X24541517Y-19586786D01*
X24437387Y-19730108D01*
X24356956Y-19887961D01*
X24302213Y-20056447D01*
X24274500Y-20231418D01*
X14021500Y-20231418D01*
X13956611Y-20166529D01*
X13876692Y-20120388D01*
X13876690Y-20120387D01*
X13876688Y-20120386D01*
X13876684Y-20120385D01*
X13876682Y-20120384D01*
X13787544Y-20096500D01*
X11273952Y-20096500D01*
X11265820Y-20093132D01*
X11262594Y-20086799D01*
X11257786Y-20056447D01*
X11257786Y-20056445D01*
X11203042Y-19887958D01*
X11122614Y-19730110D01*
X11018483Y-19586786D01*
X10910640Y-19478943D01*
X17687500Y-19478943D01*
X17687500Y-19637057D01*
X17728423Y-19789784D01*
X17807480Y-19926716D01*
X17919284Y-20038520D01*
X18056216Y-20117577D01*
X18208943Y-20158500D01*
X18367057Y-20158500D01*
X18519784Y-20117577D01*
X18656716Y-20038520D01*
X18768520Y-19926716D01*
X18847577Y-19789784D01*
X18852546Y-19771233D01*
X18853692Y-19768466D01*
X18857340Y-19762142D01*
X18902390Y-19629214D01*
X18906516Y-19615845D01*
X18906861Y-19614608D01*
X18910267Y-19600953D01*
X18933551Y-19495288D01*
X18933639Y-19494924D01*
X18949235Y-19433945D01*
X18950118Y-19431598D01*
X18970652Y-19391104D01*
X18972135Y-19388874D01*
X19041362Y-19307443D01*
X19050607Y-19291605D01*
X19052399Y-19289281D01*
X19163231Y-19178449D01*
X19165759Y-19176540D01*
X19180443Y-19168362D01*
X19261874Y-19099135D01*
X19264104Y-19097652D01*
X19304601Y-19077116D01*
X19306945Y-19076235D01*
X19367936Y-19060635D01*
X19368288Y-19060551D01*
X19473953Y-19037267D01*
X19487608Y-19033861D01*
X19488845Y-19033516D01*
X19502214Y-19029390D01*
X19635142Y-18984340D01*
X19642769Y-18981619D01*
X19643463Y-18981359D01*
X19650969Y-18978412D01*
X19651082Y-18978337D01*
X19651321Y-18978228D01*
X19651515Y-18978128D01*
X19651520Y-18978138D01*
X19654477Y-18976802D01*
X19662784Y-18974577D01*
X19799716Y-18895520D01*
X19911520Y-18783716D01*
X19990577Y-18646784D01*
X20031500Y-18494057D01*
X20031500Y-18335943D01*
X19990577Y-18183216D01*
X19911520Y-18046284D01*
X19799716Y-17934480D01*
X19799715Y-17934479D01*
X19662788Y-17855425D01*
X19662786Y-17855424D01*
X19662784Y-17855423D01*
X19662780Y-17855422D01*
X19662778Y-17855421D01*
X19510057Y-17814500D01*
X19351943Y-17814500D01*
X19199221Y-17855421D01*
X19199211Y-17855425D01*
X19062284Y-17934479D01*
X18950479Y-18046284D01*
X18871422Y-18183216D01*
X18866453Y-18201759D01*
X18865308Y-18204526D01*
X18861663Y-18210847D01*
X18861658Y-18210859D01*
X18816616Y-18343755D01*
X18812515Y-18357029D01*
X18812171Y-18358261D01*
X18808724Y-18372068D01*
X18785447Y-18477689D01*
X18785358Y-18478063D01*
X18769761Y-18539047D01*
X18768877Y-18541399D01*
X18748344Y-18581889D01*
X18746849Y-18584136D01*
X18677631Y-18665564D01*
X18668393Y-18681388D01*
X18666594Y-18683722D01*
X18555771Y-18794545D01*
X18553236Y-18796458D01*
X18549897Y-18798318D01*
X18538559Y-18804634D01*
X18457136Y-18873849D01*
X18454889Y-18875344D01*
X18414399Y-18895877D01*
X18412047Y-18896761D01*
X18351063Y-18912358D01*
X18350689Y-18912447D01*
X18245068Y-18935724D01*
X18245040Y-18935731D01*
X18231322Y-18939155D01*
X18231313Y-18939157D01*
X18231303Y-18939160D01*
X18230093Y-18939498D01*
X18216781Y-18943607D01*
X18083878Y-18988651D01*
X18075856Y-18991519D01*
X18075212Y-18991761D01*
X18068024Y-18994590D01*
X18067899Y-18994674D01*
X18067639Y-18994790D01*
X18067486Y-18994871D01*
X18067481Y-18994862D01*
X18064522Y-18996197D01*
X18056219Y-18998422D01*
X18056211Y-18998425D01*
X17919284Y-19077479D01*
X17807479Y-19189284D01*
X17728425Y-19326211D01*
X17728421Y-19326221D01*
X17699556Y-19433949D01*
X17687500Y-19478943D01*
X10910640Y-19478943D01*
X10893214Y-19461517D01*
X10749890Y-19357386D01*
X10592042Y-19276958D01*
X10592041Y-19276957D01*
X10592038Y-19276956D01*
X10423552Y-19222213D01*
X10248581Y-19194500D01*
X10248579Y-19194500D01*
X10071421Y-19194500D01*
X10071419Y-19194500D01*
X9896447Y-19222213D01*
X9727961Y-19276956D01*
X9570108Y-19357387D01*
X9426786Y-19461517D01*
X9301517Y-19586786D01*
X9197387Y-19730108D01*
X9116956Y-19887961D01*
X9062213Y-20056447D01*
X9034500Y-20231418D01*
X400500Y-20231418D01*
X400500Y-17691418D01*
X9034500Y-17691418D01*
X9034500Y-17868581D01*
X9062213Y-18043552D01*
X9116956Y-18212038D01*
X9116957Y-18212041D01*
X9116958Y-18212042D01*
X9197386Y-18369890D01*
X9301517Y-18513214D01*
X9426786Y-18638483D01*
X9570110Y-18742614D01*
X9727958Y-18823042D01*
X9896445Y-18877786D01*
X9983933Y-18891643D01*
X10071419Y-18905500D01*
X10071421Y-18905500D01*
X10248581Y-18905500D01*
X10318569Y-18894414D01*
X10423555Y-18877786D01*
X10592042Y-18823042D01*
X10749890Y-18742614D01*
X10893214Y-18638483D01*
X11018483Y-18513214D01*
X11122614Y-18369890D01*
X11203042Y-18212042D01*
X11257786Y-18043555D01*
X11275062Y-17934479D01*
X11285500Y-17868581D01*
X11285500Y-17691418D01*
X11277117Y-17638488D01*
X11276951Y-17637443D01*
X15973000Y-17637443D01*
X15973000Y-17795556D01*
X16013921Y-17948278D01*
X16013925Y-17948288D01*
X16070502Y-18046284D01*
X16092980Y-18085216D01*
X16204784Y-18197020D01*
X16341716Y-18276077D01*
X16494443Y-18317000D01*
X16652557Y-18317000D01*
X16805284Y-18276077D01*
X16942216Y-18197020D01*
X17054020Y-18085216D01*
X17133077Y-17948284D01*
X17138046Y-17929733D01*
X17139192Y-17926966D01*
X17142840Y-17920642D01*
X17187890Y-17787714D01*
X17192016Y-17774345D01*
X17192361Y-17773108D01*
X17195767Y-17759453D01*
X17210759Y-17691418D01*
X24274500Y-17691418D01*
X24274500Y-17868581D01*
X24302213Y-18043552D01*
X24356956Y-18212038D01*
X24356957Y-18212041D01*
X24356958Y-18212042D01*
X24437386Y-18369890D01*
X24541517Y-18513214D01*
X24666786Y-18638483D01*
X24810110Y-18742614D01*
X24967958Y-18823042D01*
X25136445Y-18877786D01*
X25223933Y-18891643D01*
X25311419Y-18905500D01*
X25311421Y-18905500D01*
X25488581Y-18905500D01*
X25558569Y-18894414D01*
X25663555Y-18877786D01*
X25832042Y-18823042D01*
X25989890Y-18742614D01*
X26133214Y-18638483D01*
X26258483Y-18513214D01*
X26362614Y-18369890D01*
X26443042Y-18212042D01*
X26497786Y-18043555D01*
X26515062Y-17934479D01*
X26525500Y-17868581D01*
X26525500Y-17691418D01*
X26497786Y-17516447D01*
X26497786Y-17516445D01*
X26443042Y-17347958D01*
X26362614Y-17190110D01*
X26258483Y-17046786D01*
X26133214Y-16921517D01*
X25989890Y-16817386D01*
X25832042Y-16736958D01*
X25832041Y-16736957D01*
X25832038Y-16736956D01*
X25663552Y-16682213D01*
X25488581Y-16654500D01*
X25488579Y-16654500D01*
X25311421Y-16654500D01*
X25311419Y-16654500D01*
X25136447Y-16682213D01*
X24967961Y-16736956D01*
X24810108Y-16817387D01*
X24666786Y-16921517D01*
X24541517Y-17046786D01*
X24437387Y-17190108D01*
X24356956Y-17347961D01*
X24302213Y-17516447D01*
X24274500Y-17691418D01*
X17210759Y-17691418D01*
X17219051Y-17653788D01*
X17219139Y-17653424D01*
X17222959Y-17638488D01*
X17234735Y-17592445D01*
X17235618Y-17590098D01*
X17256152Y-17549604D01*
X17257635Y-17547374D01*
X17326862Y-17465943D01*
X17336107Y-17450105D01*
X17337899Y-17447781D01*
X17385231Y-17400449D01*
X17387759Y-17398540D01*
X17402443Y-17390362D01*
X17483874Y-17321135D01*
X17486104Y-17319652D01*
X17526601Y-17299116D01*
X17528945Y-17298235D01*
X17589936Y-17282635D01*
X17590288Y-17282551D01*
X17695953Y-17259267D01*
X17709608Y-17255861D01*
X17710845Y-17255516D01*
X17724214Y-17251390D01*
X17857142Y-17206340D01*
X17864769Y-17203619D01*
X17865463Y-17203359D01*
X17872969Y-17200412D01*
X17873082Y-17200337D01*
X17873321Y-17200228D01*
X17873515Y-17200128D01*
X17873520Y-17200138D01*
X17876477Y-17198802D01*
X17884784Y-17196577D01*
X18021716Y-17117520D01*
X18133520Y-17005716D01*
X18212577Y-16868784D01*
X18253500Y-16716057D01*
X18253500Y-16557943D01*
X18212577Y-16405216D01*
X18133520Y-16268284D01*
X18021716Y-16156480D01*
X18021715Y-16156479D01*
X17884788Y-16077425D01*
X17884786Y-16077424D01*
X17884784Y-16077423D01*
X17884780Y-16077422D01*
X17884778Y-16077421D01*
X17732057Y-16036500D01*
X17573943Y-16036500D01*
X17421221Y-16077421D01*
X17421211Y-16077425D01*
X17284284Y-16156479D01*
X17172479Y-16268284D01*
X17093422Y-16405216D01*
X17088453Y-16423759D01*
X17087308Y-16426526D01*
X17083663Y-16432847D01*
X17083658Y-16432859D01*
X17038616Y-16565755D01*
X17034515Y-16579029D01*
X17034171Y-16580261D01*
X17030724Y-16594068D01*
X17007447Y-16699689D01*
X17007358Y-16700063D01*
X16991761Y-16761047D01*
X16990877Y-16763399D01*
X16970344Y-16803889D01*
X16968849Y-16806136D01*
X16899631Y-16887564D01*
X16890393Y-16903388D01*
X16888594Y-16905722D01*
X16841271Y-16953045D01*
X16838736Y-16954958D01*
X16835397Y-16956818D01*
X16824059Y-16963134D01*
X16742636Y-17032349D01*
X16740389Y-17033844D01*
X16699899Y-17054377D01*
X16697547Y-17055261D01*
X16636563Y-17070858D01*
X16636189Y-17070947D01*
X16530568Y-17094224D01*
X16530540Y-17094231D01*
X16516822Y-17097655D01*
X16516813Y-17097657D01*
X16516803Y-17097660D01*
X16515593Y-17097998D01*
X16502281Y-17102107D01*
X16369378Y-17147151D01*
X16361356Y-17150019D01*
X16360712Y-17150261D01*
X16353524Y-17153090D01*
X16353399Y-17153174D01*
X16353139Y-17153290D01*
X16352986Y-17153371D01*
X16352981Y-17153362D01*
X16350022Y-17154697D01*
X16341719Y-17156922D01*
X16341711Y-17156925D01*
X16204784Y-17235979D01*
X16092979Y-17347784D01*
X16013925Y-17484711D01*
X16013921Y-17484721D01*
X15973000Y-17637443D01*
X11276951Y-17637443D01*
X11257786Y-17516447D01*
X11257786Y-17516445D01*
X11203042Y-17347958D01*
X11122614Y-17190110D01*
X11018483Y-17046786D01*
X10893214Y-16921517D01*
X10749890Y-16817386D01*
X10592042Y-16736958D01*
X10592041Y-16736957D01*
X10592038Y-16736956D01*
X10423552Y-16682213D01*
X10248581Y-16654500D01*
X10248579Y-16654500D01*
X10071421Y-16654500D01*
X10071419Y-16654500D01*
X9896447Y-16682213D01*
X9727961Y-16736956D01*
X9570108Y-16817387D01*
X9426786Y-16921517D01*
X9301517Y-17046786D01*
X9197387Y-17190108D01*
X9116956Y-17347961D01*
X9062213Y-17516447D01*
X9034500Y-17691418D01*
X400500Y-17691418D01*
X400500Y-15151418D01*
X9034500Y-15151418D01*
X9034500Y-15328581D01*
X9062213Y-15503552D01*
X9116956Y-15672038D01*
X9116957Y-15672041D01*
X9116958Y-15672042D01*
X9197386Y-15829890D01*
X9301517Y-15973214D01*
X9426786Y-16098483D01*
X9570110Y-16202614D01*
X9727958Y-16283042D01*
X9896445Y-16337786D01*
X9983933Y-16351643D01*
X10071419Y-16365500D01*
X10071421Y-16365500D01*
X10248581Y-16365500D01*
X10318569Y-16354414D01*
X10423555Y-16337786D01*
X10592042Y-16283042D01*
X10749890Y-16202614D01*
X10893214Y-16098483D01*
X11018483Y-15973214D01*
X11122614Y-15829890D01*
X11203042Y-15672042D01*
X11257786Y-15503555D01*
X11285500Y-15328579D01*
X11285500Y-15151421D01*
X11285500Y-15151418D01*
X24274500Y-15151418D01*
X24274500Y-15328581D01*
X24302213Y-15503552D01*
X24356956Y-15672038D01*
X24356957Y-15672041D01*
X24356958Y-15672042D01*
X24437386Y-15829890D01*
X24541517Y-15973214D01*
X24666786Y-16098483D01*
X24810110Y-16202614D01*
X24967958Y-16283042D01*
X25136445Y-16337786D01*
X25223933Y-16351643D01*
X25311419Y-16365500D01*
X25311421Y-16365500D01*
X25488581Y-16365500D01*
X25558569Y-16354414D01*
X25663555Y-16337786D01*
X25832042Y-16283042D01*
X25989890Y-16202614D01*
X26133214Y-16098483D01*
X26258483Y-15973214D01*
X26362614Y-15829890D01*
X26443042Y-15672042D01*
X26497786Y-15503555D01*
X26525500Y-15328579D01*
X26525500Y-15151421D01*
X26497786Y-14976445D01*
X26443042Y-14807958D01*
X26362614Y-14650110D01*
X26258483Y-14506786D01*
X26133214Y-14381517D01*
X25989890Y-14277386D01*
X25832042Y-14196958D01*
X25832041Y-14196957D01*
X25832038Y-14196956D01*
X25663552Y-14142213D01*
X25488581Y-14114500D01*
X25488579Y-14114500D01*
X25311421Y-14114500D01*
X25311419Y-14114500D01*
X25136447Y-14142213D01*
X24967961Y-14196956D01*
X24810108Y-14277387D01*
X24666786Y-14381517D01*
X24541517Y-14506786D01*
X24437387Y-14650108D01*
X24356956Y-14807961D01*
X24302213Y-14976447D01*
X24274500Y-15151418D01*
X11285500Y-15151418D01*
X11257786Y-14976445D01*
X11203042Y-14807958D01*
X11122614Y-14650110D01*
X11018483Y-14506786D01*
X10893214Y-14381517D01*
X10749890Y-14277386D01*
X10592042Y-14196958D01*
X10592041Y-14196957D01*
X10592038Y-14196956D01*
X10423552Y-14142213D01*
X10248581Y-14114500D01*
X10248579Y-14114500D01*
X10071421Y-14114500D01*
X10071419Y-14114500D01*
X9896447Y-14142213D01*
X9727961Y-14196956D01*
X9570108Y-14277387D01*
X9426786Y-14381517D01*
X9301517Y-14506786D01*
X9197387Y-14650108D01*
X9116956Y-14807961D01*
X9062213Y-14976447D01*
X9034500Y-15151418D01*
X400500Y-15151418D01*
X400500Y-12611418D01*
X9034500Y-12611418D01*
X9034500Y-12788581D01*
X9062213Y-12963552D01*
X9116956Y-13132038D01*
X9116957Y-13132041D01*
X9116958Y-13132042D01*
X9197386Y-13289890D01*
X9301517Y-13433214D01*
X9426786Y-13558483D01*
X9570110Y-13662614D01*
X9727958Y-13743042D01*
X9896445Y-13797786D01*
X9983933Y-13811643D01*
X10071419Y-13825500D01*
X10071421Y-13825500D01*
X10248581Y-13825500D01*
X10318569Y-13814414D01*
X10423555Y-13797786D01*
X10592042Y-13743042D01*
X10749890Y-13662614D01*
X10893214Y-13558483D01*
X11018483Y-13433214D01*
X11122614Y-13289890D01*
X11203042Y-13132042D01*
X11257786Y-12963555D01*
X11285500Y-12788579D01*
X11285500Y-12611421D01*
X11285500Y-12611418D01*
X24274500Y-12611418D01*
X24274500Y-12788581D01*
X24302213Y-12963552D01*
X24356956Y-13132038D01*
X24356957Y-13132041D01*
X24356958Y-13132042D01*
X24437386Y-13289890D01*
X24541517Y-13433214D01*
X24666786Y-13558483D01*
X24810110Y-13662614D01*
X24967958Y-13743042D01*
X25136445Y-13797786D01*
X25223933Y-13811643D01*
X25311419Y-13825500D01*
X25311421Y-13825500D01*
X25488581Y-13825500D01*
X25558569Y-13814414D01*
X25663555Y-13797786D01*
X25832042Y-13743042D01*
X25988524Y-13663310D01*
X51023500Y-13663310D01*
X51023500Y-13840689D01*
X51058105Y-14014662D01*
X51058105Y-14014665D01*
X51125988Y-14178549D01*
X51192030Y-14277387D01*
X51224536Y-14326035D01*
X51349965Y-14451464D01*
X51497453Y-14550013D01*
X51661334Y-14617894D01*
X51835309Y-14652500D01*
X51835311Y-14652500D01*
X52812689Y-14652500D01*
X52812691Y-14652500D01*
X52986666Y-14617894D01*
X53150547Y-14550013D01*
X53298035Y-14451464D01*
X53423464Y-14326035D01*
X53522013Y-14178547D01*
X53589894Y-14014666D01*
X53624500Y-13840691D01*
X53624500Y-13663309D01*
X53589894Y-13489334D01*
X53522013Y-13325453D01*
X53423464Y-13177965D01*
X53298035Y-13052536D01*
X53298031Y-13052533D01*
X53150549Y-12953988D01*
X52986664Y-12886105D01*
X52881901Y-12865266D01*
X52812691Y-12851500D01*
X51835309Y-12851500D01*
X51748913Y-12868685D01*
X51661337Y-12886105D01*
X51661334Y-12886105D01*
X51497450Y-12953988D01*
X51349968Y-13052533D01*
X51224533Y-13177968D01*
X51125988Y-13325450D01*
X51058105Y-13489334D01*
X51058105Y-13489337D01*
X51023500Y-13663310D01*
X25988524Y-13663310D01*
X25989890Y-13662614D01*
X26133214Y-13558483D01*
X26258483Y-13433214D01*
X26362614Y-13289890D01*
X26443042Y-13132042D01*
X26497786Y-12963555D01*
X26525500Y-12788579D01*
X26525500Y-12611421D01*
X26497786Y-12436445D01*
X26443042Y-12267958D01*
X26362614Y-12110110D01*
X26258483Y-11966786D01*
X26133214Y-11841517D01*
X25989890Y-11737386D01*
X25832042Y-11656958D01*
X25832041Y-11656957D01*
X25832038Y-11656956D01*
X25663552Y-11602213D01*
X25488581Y-11574500D01*
X25488579Y-11574500D01*
X25311421Y-11574500D01*
X25311419Y-11574500D01*
X25136447Y-11602213D01*
X24967961Y-11656956D01*
X24810108Y-11737387D01*
X24666786Y-11841517D01*
X24541517Y-11966786D01*
X24437387Y-12110108D01*
X24356956Y-12267961D01*
X24302213Y-12436447D01*
X24274500Y-12611418D01*
X11285500Y-12611418D01*
X11257786Y-12436445D01*
X11203042Y-12267958D01*
X11122614Y-12110110D01*
X11018483Y-11966786D01*
X10893214Y-11841517D01*
X10749890Y-11737386D01*
X10592042Y-11656958D01*
X10592041Y-11656957D01*
X10592038Y-11656956D01*
X10423552Y-11602213D01*
X10248581Y-11574500D01*
X10248579Y-11574500D01*
X10071421Y-11574500D01*
X10071419Y-11574500D01*
X9896447Y-11602213D01*
X9727961Y-11656956D01*
X9570108Y-11737387D01*
X9426786Y-11841517D01*
X9301517Y-11966786D01*
X9197387Y-12110108D01*
X9116956Y-12267961D01*
X9062213Y-12436447D01*
X9034500Y-12611418D01*
X400500Y-12611418D01*
X400500Y-10071418D01*
X9034500Y-10071418D01*
X9034500Y-10248581D01*
X9062213Y-10423552D01*
X9116956Y-10592038D01*
X9116957Y-10592041D01*
X9116958Y-10592042D01*
X9197386Y-10749890D01*
X9301517Y-10893214D01*
X9426786Y-11018483D01*
X9570110Y-11122614D01*
X9727958Y-11203042D01*
X9896445Y-11257786D01*
X9983933Y-11271643D01*
X10071419Y-11285500D01*
X10071421Y-11285500D01*
X10248581Y-11285500D01*
X10318569Y-11274414D01*
X10423555Y-11257786D01*
X10592042Y-11203042D01*
X10749890Y-11122614D01*
X10893214Y-11018483D01*
X11018483Y-10893214D01*
X11122614Y-10749890D01*
X11203042Y-10592042D01*
X11257786Y-10423555D01*
X11285500Y-10248579D01*
X11285500Y-10071421D01*
X11285500Y-10071418D01*
X24274500Y-10071418D01*
X24274500Y-10248581D01*
X24302213Y-10423552D01*
X24356956Y-10592038D01*
X24356957Y-10592041D01*
X24356958Y-10592042D01*
X24437386Y-10749890D01*
X24541517Y-10893214D01*
X24666786Y-11018483D01*
X24810110Y-11122614D01*
X24967958Y-11203042D01*
X25136445Y-11257786D01*
X25223933Y-11271643D01*
X25311419Y-11285500D01*
X25311421Y-11285500D01*
X25488581Y-11285500D01*
X25558569Y-11274414D01*
X25663555Y-11257786D01*
X25832042Y-11203042D01*
X25989890Y-11122614D01*
X26133214Y-11018483D01*
X26258483Y-10893214D01*
X26362614Y-10749890D01*
X26443042Y-10592042D01*
X26497786Y-10423555D01*
X26525500Y-10248579D01*
X26525500Y-10071421D01*
X26497786Y-9896445D01*
X26443042Y-9727958D01*
X26362614Y-9570110D01*
X26258483Y-9426786D01*
X26133214Y-9301517D01*
X25989890Y-9197386D01*
X25832042Y-9116958D01*
X25832041Y-9116957D01*
X25832038Y-9116956D01*
X25663552Y-9062213D01*
X25488581Y-9034500D01*
X25488579Y-9034500D01*
X25311421Y-9034500D01*
X25311419Y-9034500D01*
X25136447Y-9062213D01*
X24967961Y-9116956D01*
X24810108Y-9197387D01*
X24666786Y-9301517D01*
X24541517Y-9426786D01*
X24437387Y-9570108D01*
X24356956Y-9727961D01*
X24302213Y-9896447D01*
X24274500Y-10071418D01*
X11285500Y-10071418D01*
X11257786Y-9896445D01*
X11203042Y-9727958D01*
X11122614Y-9570110D01*
X11018483Y-9426786D01*
X10893214Y-9301517D01*
X10749890Y-9197386D01*
X10592042Y-9116958D01*
X10592041Y-9116957D01*
X10592038Y-9116956D01*
X10423552Y-9062213D01*
X10248581Y-9034500D01*
X10248579Y-9034500D01*
X10071421Y-9034500D01*
X10071419Y-9034500D01*
X9896447Y-9062213D01*
X9727961Y-9116956D01*
X9570108Y-9197387D01*
X9426786Y-9301517D01*
X9301517Y-9426786D01*
X9197387Y-9570108D01*
X9116956Y-9727961D01*
X9062213Y-9896447D01*
X9034500Y-10071418D01*
X400500Y-10071418D01*
X400500Y-7531418D01*
X9034500Y-7531418D01*
X9034500Y-7708581D01*
X9062213Y-7883552D01*
X9116956Y-8052038D01*
X9116957Y-8052041D01*
X9116958Y-8052042D01*
X9197386Y-8209890D01*
X9301517Y-8353214D01*
X9426786Y-8478483D01*
X9570110Y-8582614D01*
X9727958Y-8663042D01*
X9896445Y-8717786D01*
X9983933Y-8731643D01*
X10071419Y-8745500D01*
X10071421Y-8745500D01*
X10248581Y-8745500D01*
X10299545Y-8737428D01*
X10354167Y-8728776D01*
X10423555Y-8717786D01*
X10592042Y-8663042D01*
X10749890Y-8582614D01*
X10893214Y-8478483D01*
X11018483Y-8353214D01*
X11122614Y-8209890D01*
X11203042Y-8052042D01*
X11257786Y-7883555D01*
X11285500Y-7708579D01*
X11285500Y-7531421D01*
X11285500Y-7531418D01*
X11282604Y-7513132D01*
X11282390Y-7511782D01*
X24025000Y-7511782D01*
X24025000Y-7728217D01*
X24058856Y-7941977D01*
X24125735Y-8147813D01*
X24223995Y-8340658D01*
X24266830Y-8399613D01*
X24917036Y-7749407D01*
X24934075Y-7812993D01*
X24999901Y-7927007D01*
X25092993Y-8020099D01*
X25207007Y-8085925D01*
X25270590Y-8102962D01*
X24620385Y-8753168D01*
X24679344Y-8796005D01*
X24872186Y-8894264D01*
X25078022Y-8961143D01*
X25291783Y-8995000D01*
X25508217Y-8995000D01*
X25721977Y-8961143D01*
X25927813Y-8894264D01*
X26120655Y-8796005D01*
X26179613Y-8753168D01*
X25529407Y-8102962D01*
X25592993Y-8085925D01*
X25707007Y-8020099D01*
X25800099Y-7927007D01*
X25865925Y-7812993D01*
X25882962Y-7749407D01*
X26533168Y-8399613D01*
X26576005Y-8340655D01*
X26674264Y-8147813D01*
X26741143Y-7941977D01*
X26775000Y-7728217D01*
X26775000Y-7511782D01*
X26741143Y-7298022D01*
X26674264Y-7092186D01*
X26576005Y-6899344D01*
X26533168Y-6840385D01*
X25882962Y-7490590D01*
X25865925Y-7427007D01*
X25800099Y-7312993D01*
X25707007Y-7219901D01*
X25592993Y-7154075D01*
X25529406Y-7137036D01*
X25887501Y-6778943D01*
X38388500Y-6778943D01*
X38388500Y-6937056D01*
X38429421Y-7089778D01*
X38429425Y-7089788D01*
X38446868Y-7120000D01*
X38486959Y-7189440D01*
X38488500Y-7195189D01*
X38488500Y-8298809D01*
X38486959Y-8304559D01*
X38429425Y-8404211D01*
X38429421Y-8404221D01*
X38388500Y-8556943D01*
X38388500Y-8715056D01*
X38429421Y-8867778D01*
X38429425Y-8867788D01*
X38502870Y-8995000D01*
X38508480Y-9004716D01*
X38620284Y-9116520D01*
X38757216Y-9195577D01*
X38909943Y-9236500D01*
X39068057Y-9236500D01*
X39220784Y-9195577D01*
X39357716Y-9116520D01*
X39469520Y-9004716D01*
X39548577Y-8867784D01*
X39589500Y-8715057D01*
X39589500Y-8556943D01*
X39548577Y-8404216D01*
X39491041Y-8304559D01*
X39489500Y-8298809D01*
X39489500Y-7553460D01*
X51323500Y-7553460D01*
X51323500Y-7750539D01*
X51361948Y-7943831D01*
X51361948Y-7943834D01*
X51393538Y-8020099D01*
X51434918Y-8120000D01*
X51437369Y-8125916D01*
X51546858Y-8289778D01*
X51546861Y-8289782D01*
X51686218Y-8429139D01*
X51850086Y-8538632D01*
X52032165Y-8614051D01*
X52129125Y-8633337D01*
X52166242Y-8640721D01*
X52173560Y-8645611D01*
X52175277Y-8654244D01*
X52170387Y-8661562D01*
X52166242Y-8663279D01*
X52032168Y-8689948D01*
X52032165Y-8689948D01*
X51850083Y-8765369D01*
X51686221Y-8874858D01*
X51546858Y-9014221D01*
X51437369Y-9178083D01*
X51361948Y-9360165D01*
X51361948Y-9360168D01*
X51323500Y-9553460D01*
X51323500Y-9750539D01*
X51361948Y-9943831D01*
X51361948Y-9943834D01*
X51414795Y-10071418D01*
X51437368Y-10125914D01*
X51546861Y-10289782D01*
X51686218Y-10429139D01*
X51850086Y-10538632D01*
X52032165Y-10614051D01*
X52129125Y-10633337D01*
X52166242Y-10640721D01*
X52173560Y-10645611D01*
X52175277Y-10654244D01*
X52170387Y-10661562D01*
X52166242Y-10663279D01*
X52032168Y-10689948D01*
X52032165Y-10689948D01*
X51850083Y-10765369D01*
X51686221Y-10874858D01*
X51546858Y-11014221D01*
X51437369Y-11178083D01*
X51361948Y-11360165D01*
X51361948Y-11360168D01*
X51323500Y-11553459D01*
X51323500Y-11750541D01*
X51348900Y-11878238D01*
X51361948Y-11943831D01*
X51361948Y-11943834D01*
X51437369Y-12125916D01*
X51546858Y-12289778D01*
X51546861Y-12289782D01*
X51686218Y-12429139D01*
X51850086Y-12538632D01*
X52032165Y-12614051D01*
X52225459Y-12652500D01*
X52225461Y-12652500D01*
X52422539Y-12652500D01*
X52422541Y-12652500D01*
X52615835Y-12614051D01*
X52797914Y-12538632D01*
X52961782Y-12429139D01*
X53101139Y-12289782D01*
X53210632Y-12125914D01*
X53286051Y-11943835D01*
X53324500Y-11750541D01*
X53324500Y-11553459D01*
X53286051Y-11360165D01*
X53210632Y-11178086D01*
X53101139Y-11014218D01*
X52961782Y-10874861D01*
X52961778Y-10874858D01*
X52797916Y-10765369D01*
X52760546Y-10749890D01*
X52615835Y-10689949D01*
X52615833Y-10689948D01*
X52481757Y-10663279D01*
X52474439Y-10658389D01*
X52472722Y-10649756D01*
X52477612Y-10642438D01*
X52481757Y-10640721D01*
X52484565Y-10640162D01*
X52615835Y-10614051D01*
X52797914Y-10538632D01*
X52961782Y-10429139D01*
X53101139Y-10289782D01*
X53210632Y-10125914D01*
X53286051Y-9943835D01*
X53324500Y-9750541D01*
X53324500Y-9553459D01*
X53286051Y-9360165D01*
X53210632Y-9178086D01*
X53101139Y-9014218D01*
X52961782Y-8874861D01*
X52961778Y-8874858D01*
X52797916Y-8765369D01*
X52615833Y-8689948D01*
X52481757Y-8663279D01*
X52474439Y-8658389D01*
X52472722Y-8649756D01*
X52477612Y-8642438D01*
X52481757Y-8640721D01*
X52484565Y-8640162D01*
X52615835Y-8614051D01*
X52797914Y-8538632D01*
X52961782Y-8429139D01*
X53101139Y-8289782D01*
X53210632Y-8125914D01*
X53286051Y-7943835D01*
X53324500Y-7750541D01*
X53324500Y-7553459D01*
X53286051Y-7360165D01*
X53210632Y-7178086D01*
X53101139Y-7014218D01*
X52961782Y-6874861D01*
X52910185Y-6840385D01*
X52797916Y-6765369D01*
X52788616Y-6761517D01*
X52615835Y-6689949D01*
X52615833Y-6689948D01*
X52499437Y-6666795D01*
X52422541Y-6651500D01*
X52225459Y-6651500D01*
X52129469Y-6670593D01*
X52032168Y-6689948D01*
X52032165Y-6689948D01*
X51850083Y-6765369D01*
X51686221Y-6874858D01*
X51546858Y-7014221D01*
X51437369Y-7178083D01*
X51361948Y-7360165D01*
X51361948Y-7360168D01*
X51323500Y-7553460D01*
X39489500Y-7553460D01*
X39489500Y-7195189D01*
X39491040Y-7189440D01*
X39548577Y-7089784D01*
X39589500Y-6937057D01*
X39589500Y-6778943D01*
X39548577Y-6626216D01*
X39469520Y-6489284D01*
X39357716Y-6377480D01*
X39357715Y-6377479D01*
X39220788Y-6298425D01*
X39220786Y-6298424D01*
X39220784Y-6298423D01*
X39220780Y-6298422D01*
X39220778Y-6298421D01*
X39068057Y-6257500D01*
X38909943Y-6257500D01*
X38757221Y-6298421D01*
X38757211Y-6298425D01*
X38620284Y-6377479D01*
X38508479Y-6489284D01*
X38429425Y-6626211D01*
X38429421Y-6626221D01*
X38388500Y-6778943D01*
X25887501Y-6778943D01*
X25896387Y-6770057D01*
X26179613Y-6486830D01*
X26120658Y-6443995D01*
X25927813Y-6345735D01*
X25721977Y-6278856D01*
X25508217Y-6245000D01*
X25291783Y-6245000D01*
X25078022Y-6278856D01*
X24872186Y-6345735D01*
X24679338Y-6443997D01*
X24620384Y-6486829D01*
X24620383Y-6486829D01*
X25270591Y-7137037D01*
X25207007Y-7154075D01*
X25092993Y-7219901D01*
X24999901Y-7312993D01*
X24934075Y-7427007D01*
X24917037Y-7490591D01*
X24266829Y-6840383D01*
X24266829Y-6840384D01*
X24223997Y-6899338D01*
X24125735Y-7092186D01*
X24058856Y-7298022D01*
X24025000Y-7511782D01*
X11282390Y-7511782D01*
X11265170Y-7403069D01*
X11257786Y-7356445D01*
X11203042Y-7187958D01*
X11122614Y-7030110D01*
X11018483Y-6886786D01*
X10893214Y-6761517D01*
X10749890Y-6657386D01*
X10592042Y-6576958D01*
X10592041Y-6576957D01*
X10592038Y-6576956D01*
X10423552Y-6522213D01*
X10299539Y-6502571D01*
X10248581Y-6494500D01*
X10248579Y-6494500D01*
X10071421Y-6494500D01*
X10071419Y-6494500D01*
X9896447Y-6522213D01*
X9727961Y-6576956D01*
X9570108Y-6657387D01*
X9426786Y-6761517D01*
X9301517Y-6886786D01*
X9197387Y-7030108D01*
X9116956Y-7187961D01*
X9062213Y-7356447D01*
X9034500Y-7531418D01*
X400500Y-7531418D01*
X400500Y-3810279D01*
X400514Y-3809715D01*
X405879Y-3700510D01*
X2139500Y-3700510D01*
X2139500Y-3919490D01*
X2168083Y-4136598D01*
X2168084Y-4136602D01*
X2168085Y-4136609D01*
X2168085Y-4136610D01*
X2224757Y-4348111D01*
X2224757Y-4348112D01*
X2308561Y-4550431D01*
X2418047Y-4740067D01*
X2418049Y-4740070D01*
X2418050Y-4740071D01*
X2551357Y-4913800D01*
X2706200Y-5068643D01*
X2879929Y-5201950D01*
X2879932Y-5201952D01*
X3069568Y-5311438D01*
X3069569Y-5311438D01*
X3069572Y-5311440D01*
X3271883Y-5395241D01*
X3271887Y-5395242D01*
X3483390Y-5451914D01*
X3483391Y-5451914D01*
X3483402Y-5451917D01*
X3700510Y-5480500D01*
X3700514Y-5480500D01*
X3919486Y-5480500D01*
X3919490Y-5480500D01*
X4136598Y-5451917D01*
X4136609Y-5451914D01*
X4136610Y-5451914D01*
X4191953Y-5437084D01*
X4348117Y-5395241D01*
X4550428Y-5311440D01*
X4740071Y-5201950D01*
X4913800Y-5068643D01*
X4991025Y-4991418D01*
X9034500Y-4991418D01*
X9034500Y-5168581D01*
X9062213Y-5343552D01*
X9116956Y-5512038D01*
X9116957Y-5512041D01*
X9116958Y-5512042D01*
X9197386Y-5669890D01*
X9301517Y-5813214D01*
X9426786Y-5938483D01*
X9570110Y-6042614D01*
X9727958Y-6123042D01*
X9896445Y-6177786D01*
X9983933Y-6191643D01*
X10071419Y-6205500D01*
X10071421Y-6205500D01*
X10248581Y-6205500D01*
X10318569Y-6194414D01*
X10423555Y-6177786D01*
X10592042Y-6123042D01*
X10749890Y-6042614D01*
X10893214Y-5938483D01*
X11018483Y-5813214D01*
X11122614Y-5669890D01*
X11203042Y-5512042D01*
X11257786Y-5343555D01*
X11280214Y-5201952D01*
X11285500Y-5168581D01*
X11285500Y-4991418D01*
X24274500Y-4991418D01*
X24274500Y-5168581D01*
X24302213Y-5343552D01*
X24356956Y-5512038D01*
X24356957Y-5512041D01*
X24356958Y-5512042D01*
X24437386Y-5669890D01*
X24541517Y-5813214D01*
X24666786Y-5938483D01*
X24810110Y-6042614D01*
X24967958Y-6123042D01*
X25136445Y-6177786D01*
X25223933Y-6191643D01*
X25311419Y-6205500D01*
X25311421Y-6205500D01*
X25488581Y-6205500D01*
X25558569Y-6194414D01*
X25663555Y-6177786D01*
X25832042Y-6123042D01*
X25989890Y-6042614D01*
X26133214Y-5938483D01*
X26258483Y-5813214D01*
X26362614Y-5669890D01*
X26443042Y-5512042D01*
X26448906Y-5493991D01*
X26458876Y-5463309D01*
X51023500Y-5463309D01*
X51023500Y-5640691D01*
X51046361Y-5755624D01*
X51058105Y-5814662D01*
X51058105Y-5814665D01*
X51125988Y-5978549D01*
X51224533Y-6126031D01*
X51224536Y-6126035D01*
X51349965Y-6251464D01*
X51497453Y-6350013D01*
X51661334Y-6417894D01*
X51835309Y-6452500D01*
X51835311Y-6452500D01*
X52812689Y-6452500D01*
X52812691Y-6452500D01*
X52986666Y-6417894D01*
X53150547Y-6350013D01*
X53298035Y-6251464D01*
X53423464Y-6126035D01*
X53522013Y-5978547D01*
X53589894Y-5814666D01*
X53624500Y-5640691D01*
X53624500Y-5463309D01*
X53589894Y-5289334D01*
X53522013Y-5125453D01*
X53423464Y-4977965D01*
X53298035Y-4852536D01*
X53298031Y-4852533D01*
X53150549Y-4753988D01*
X52986664Y-4686105D01*
X52881901Y-4665266D01*
X52812691Y-4651500D01*
X51835309Y-4651500D01*
X51748913Y-4668685D01*
X51661337Y-4686105D01*
X51661334Y-4686105D01*
X51497450Y-4753988D01*
X51349968Y-4852533D01*
X51224533Y-4977968D01*
X51125988Y-5125450D01*
X51058105Y-5289334D01*
X51058105Y-5289337D01*
X51037040Y-5395241D01*
X51023500Y-5463309D01*
X26458876Y-5463309D01*
X26460215Y-5459190D01*
X26480992Y-5395241D01*
X26497786Y-5343555D01*
X26520214Y-5201952D01*
X26525500Y-5168581D01*
X26525500Y-4991418D01*
X26497786Y-4816447D01*
X26497786Y-4816445D01*
X26443042Y-4647958D01*
X26362614Y-4490110D01*
X26258483Y-4346786D01*
X26133214Y-4221517D01*
X25989890Y-4117386D01*
X25832042Y-4036958D01*
X25832041Y-4036957D01*
X25832038Y-4036956D01*
X25663552Y-3982213D01*
X25488581Y-3954500D01*
X25488579Y-3954500D01*
X25311421Y-3954500D01*
X25311419Y-3954500D01*
X25136447Y-3982213D01*
X24967961Y-4036956D01*
X24810108Y-4117387D01*
X24666786Y-4221517D01*
X24541517Y-4346786D01*
X24437387Y-4490108D01*
X24356956Y-4647961D01*
X24302213Y-4816447D01*
X24274500Y-4991418D01*
X11285500Y-4991418D01*
X11257786Y-4816447D01*
X11257786Y-4816445D01*
X11203042Y-4647958D01*
X11122614Y-4490110D01*
X11018483Y-4346786D01*
X10893214Y-4221517D01*
X10749890Y-4117386D01*
X10592042Y-4036958D01*
X10592041Y-4036957D01*
X10592038Y-4036956D01*
X10423552Y-3982213D01*
X10248581Y-3954500D01*
X10248579Y-3954500D01*
X10071421Y-3954500D01*
X10071419Y-3954500D01*
X9896447Y-3982213D01*
X9727961Y-4036956D01*
X9570108Y-4117387D01*
X9426786Y-4221517D01*
X9301517Y-4346786D01*
X9197387Y-4490108D01*
X9116956Y-4647961D01*
X9062213Y-4816447D01*
X9034500Y-4991418D01*
X4991025Y-4991418D01*
X5068643Y-4913800D01*
X5201950Y-4740071D01*
X5311440Y-4550428D01*
X5395241Y-4348117D01*
X5451917Y-4136598D01*
X5480500Y-3919490D01*
X5480500Y-3700510D01*
X58019500Y-3700510D01*
X58019500Y-3919490D01*
X58048083Y-4136598D01*
X58048084Y-4136602D01*
X58048085Y-4136609D01*
X58048085Y-4136610D01*
X58104757Y-4348111D01*
X58104757Y-4348112D01*
X58188561Y-4550431D01*
X58298047Y-4740067D01*
X58298049Y-4740070D01*
X58298050Y-4740071D01*
X58431357Y-4913800D01*
X58586200Y-5068643D01*
X58759929Y-5201950D01*
X58759932Y-5201952D01*
X58949568Y-5311438D01*
X58949569Y-5311438D01*
X58949572Y-5311440D01*
X59151883Y-5395241D01*
X59151887Y-5395242D01*
X59363390Y-5451914D01*
X59363391Y-5451914D01*
X59363402Y-5451917D01*
X59580510Y-5480500D01*
X59580514Y-5480500D01*
X59799486Y-5480500D01*
X59799490Y-5480500D01*
X60016598Y-5451917D01*
X60016609Y-5451914D01*
X60016610Y-5451914D01*
X60071953Y-5437084D01*
X60228117Y-5395241D01*
X60430428Y-5311440D01*
X60620071Y-5201950D01*
X60793800Y-5068643D01*
X60948643Y-4913800D01*
X61081950Y-4740071D01*
X61191440Y-4550428D01*
X61275241Y-4348117D01*
X61331917Y-4136598D01*
X61360500Y-3919490D01*
X61360500Y-3700510D01*
X61331917Y-3483402D01*
X61275241Y-3271883D01*
X61191440Y-3069572D01*
X61081950Y-2879929D01*
X60948643Y-2706200D01*
X60793800Y-2551357D01*
X60620071Y-2418050D01*
X60620070Y-2418049D01*
X60620067Y-2418047D01*
X60430431Y-2308561D01*
X60228112Y-2224757D01*
X60016609Y-2168085D01*
X60016602Y-2168084D01*
X60016598Y-2168083D01*
X59841313Y-2145006D01*
X59799491Y-2139500D01*
X59799490Y-2139500D01*
X59580510Y-2139500D01*
X59580508Y-2139500D01*
X59496862Y-2150512D01*
X59363402Y-2168083D01*
X59363398Y-2168083D01*
X59363390Y-2168085D01*
X59363389Y-2168085D01*
X59151888Y-2224757D01*
X59151887Y-2224757D01*
X58949568Y-2308561D01*
X58759932Y-2418047D01*
X58694780Y-2468040D01*
X58586200Y-2551357D01*
X58586195Y-2551362D01*
X58586193Y-2551363D01*
X58431363Y-2706193D01*
X58431362Y-2706195D01*
X58431357Y-2706200D01*
X58348040Y-2814780D01*
X58298047Y-2879932D01*
X58188561Y-3069568D01*
X58104757Y-3271887D01*
X58104757Y-3271888D01*
X58048085Y-3483389D01*
X58048085Y-3483390D01*
X58019624Y-3699570D01*
X58019500Y-3700510D01*
X5480500Y-3700510D01*
X5451917Y-3483402D01*
X5395241Y-3271883D01*
X5311440Y-3069572D01*
X5201950Y-2879929D01*
X5068643Y-2706200D01*
X4913800Y-2551357D01*
X4740071Y-2418050D01*
X4740070Y-2418049D01*
X4740067Y-2418047D01*
X4550431Y-2308561D01*
X4348112Y-2224757D01*
X4136609Y-2168085D01*
X4136602Y-2168084D01*
X4136598Y-2168083D01*
X3961313Y-2145006D01*
X3919491Y-2139500D01*
X3919490Y-2139500D01*
X3700510Y-2139500D01*
X3700508Y-2139500D01*
X3616862Y-2150512D01*
X3483402Y-2168083D01*
X3483398Y-2168083D01*
X3483390Y-2168085D01*
X3483389Y-2168085D01*
X3271888Y-2224757D01*
X3271887Y-2224757D01*
X3069568Y-2308561D01*
X2879932Y-2418047D01*
X2814780Y-2468040D01*
X2706200Y-2551357D01*
X2706195Y-2551362D01*
X2706193Y-2551363D01*
X2551363Y-2706193D01*
X2551362Y-2706195D01*
X2551357Y-2706200D01*
X2468040Y-2814780D01*
X2418047Y-2879932D01*
X2308561Y-3069568D01*
X2224757Y-3271887D01*
X2224757Y-3271888D01*
X2168085Y-3483389D01*
X2168085Y-3483390D01*
X2139624Y-3699570D01*
X2139500Y-3700510D01*
X405879Y-3700510D01*
X405925Y-3699570D01*
X410063Y-3615337D01*
X416891Y-3476360D01*
X416996Y-3475278D01*
X465932Y-3145385D01*
X466152Y-3144284D01*
X547175Y-2820817D01*
X547496Y-2819757D01*
X659846Y-2505761D01*
X660269Y-2504741D01*
X802850Y-2203277D01*
X803380Y-2202287D01*
X841013Y-2139500D01*
X974821Y-1916253D01*
X975426Y-1915347D01*
X1174091Y-1647480D01*
X1174796Y-1646621D01*
X1398751Y-1399524D01*
X1399524Y-1398751D01*
X1646621Y-1174796D01*
X1647480Y-1174091D01*
X1915347Y-975426D01*
X1916253Y-974821D01*
X2202291Y-803377D01*
X2203277Y-802850D01*
X2504741Y-660269D01*
X2505761Y-659846D01*
X2819757Y-547496D01*
X2820817Y-547175D01*
X3144289Y-466150D01*
X3145385Y-465932D01*
X3475278Y-416996D01*
X3476360Y-416891D01*
X3809715Y-400513D01*
X3810279Y-400500D01*
X3867583Y-400500D01*
X59632417Y-400500D01*
X59689721Y-400500D01*
X59690284Y-400513D01*
G37*
%TD.AperFunction*%
%TD*%
%TA.AperFunction,Conductor*%
%TO.N,/MOSI*%
G36*
X18432442Y-20636853D02*
G01*
X18433102Y-20637153D01*
X18558974Y-20699301D01*
X18560076Y-20699923D01*
X18655001Y-20760564D01*
X18655013Y-20760571D01*
X18738256Y-20809909D01*
X18738259Y-20809909D01*
X18738261Y-20809911D01*
X18806922Y-20832366D01*
X18839273Y-20842947D01*
X18839274Y-20842947D01*
X18839277Y-20842948D01*
X18977246Y-20854128D01*
X18985214Y-20858212D01*
X18988000Y-20865790D01*
X18988000Y-21044209D01*
X18984573Y-21052482D01*
X18977245Y-21055871D01*
X18839272Y-21067051D01*
X18738263Y-21100086D01*
X18738256Y-21100088D01*
X18655013Y-21149426D01*
X18560085Y-21210070D01*
X18558966Y-21210701D01*
X18433116Y-21272839D01*
X18424181Y-21273429D01*
X18417445Y-21267528D01*
X18417138Y-21266854D01*
X18347546Y-21100088D01*
X18288879Y-20959505D01*
X18288857Y-20950551D01*
X18288880Y-20950494D01*
X18417139Y-20643143D01*
X18423487Y-20636830D01*
X18432442Y-20636853D01*
G37*
%TD.AperFunction*%
%TD*%
%TA.AperFunction,Conductor*%
%TO.N,/SCL*%
G36*
X13332554Y-22039471D02*
G01*
X13332861Y-22040145D01*
X13461119Y-22347494D01*
X13461142Y-22356449D01*
X13461119Y-22356506D01*
X13332861Y-22663854D01*
X13326512Y-22670169D01*
X13317557Y-22670146D01*
X13316883Y-22669839D01*
X13191032Y-22607701D01*
X13189913Y-22607070D01*
X13094985Y-22546426D01*
X13011742Y-22497088D01*
X13011735Y-22497086D01*
X12910725Y-22464051D01*
X12910727Y-22464051D01*
X12772755Y-22452871D01*
X12764786Y-22448787D01*
X12762000Y-22441209D01*
X12762000Y-22262790D01*
X12765427Y-22254517D01*
X12772753Y-22251128D01*
X12910722Y-22239948D01*
X13011737Y-22206911D01*
X13094998Y-22157564D01*
X13189929Y-22096918D01*
X13191016Y-22096305D01*
X13316885Y-22034159D01*
X13325819Y-22033570D01*
X13332554Y-22039471D01*
G37*
%TD.AperFunction*%
%TD*%
%TA.AperFunction,Conductor*%
%TO.N,+3V3*%
G36*
X19708518Y-41089671D02*
G01*
X19709024Y-41089897D01*
X19834018Y-41149154D01*
X19834794Y-41149558D01*
X19930516Y-41204043D01*
X20014985Y-41246231D01*
X20116565Y-41273388D01*
X20253062Y-41282286D01*
X20261094Y-41286244D01*
X20264000Y-41293961D01*
X20264000Y-41522038D01*
X20260573Y-41530311D01*
X20253061Y-41533713D01*
X20116570Y-41542610D01*
X20116566Y-41542610D01*
X20116565Y-41542611D01*
X20065775Y-41556189D01*
X20014984Y-41569768D01*
X19930515Y-41611955D01*
X19930502Y-41611962D01*
X19834794Y-41666440D01*
X19834018Y-41666844D01*
X19709024Y-41726102D01*
X19700080Y-41726550D01*
X19693440Y-41720542D01*
X19693214Y-41720036D01*
X19648111Y-41611955D01*
X19564879Y-41412505D01*
X19564857Y-41403551D01*
X19564880Y-41403494D01*
X19619174Y-41273388D01*
X19693215Y-41095961D01*
X19699563Y-41089648D01*
X19708518Y-41089671D01*
G37*
%TD.AperFunction*%
%TD*%
%TA.AperFunction,Conductor*%
%TO.N,/MISO*%
G36*
X17005392Y-17158444D02*
G01*
X17131555Y-17284607D01*
X17134982Y-17292880D01*
X17132196Y-17300458D01*
X17042545Y-17405917D01*
X17042542Y-17405921D01*
X16994475Y-17500708D01*
X16970495Y-17594467D01*
X16946254Y-17704468D01*
X16945909Y-17705705D01*
X16900859Y-17838633D01*
X16894958Y-17845369D01*
X16886023Y-17845959D01*
X16885329Y-17845699D01*
X16577308Y-17719063D01*
X16570960Y-17712749D01*
X16444300Y-17404668D01*
X16444323Y-17395716D01*
X16450672Y-17389401D01*
X16451355Y-17389144D01*
X16584301Y-17344086D01*
X16585526Y-17343744D01*
X16695522Y-17319504D01*
X16789289Y-17295523D01*
X16884078Y-17247455D01*
X16989543Y-17157802D01*
X16998064Y-17155055D01*
X17005392Y-17158444D01*
G37*
%TD.AperFunction*%
%TD*%
%TA.AperFunction,Conductor*%
%TO.N,/SW4*%
G36*
X22991478Y-22352868D02*
G01*
X23298854Y-22481138D01*
X23305169Y-22487487D01*
X23305146Y-22496442D01*
X23304839Y-22497116D01*
X23242701Y-22622966D01*
X23242070Y-22624085D01*
X23181426Y-22719013D01*
X23132088Y-22802256D01*
X23132086Y-22802263D01*
X23099051Y-22903272D01*
X23087871Y-23041245D01*
X23083787Y-23049214D01*
X23076209Y-23052000D01*
X22897790Y-23052000D01*
X22889517Y-23048573D01*
X22886128Y-23041245D01*
X22874948Y-22903277D01*
X22874947Y-22903274D01*
X22874947Y-22903272D01*
X22858670Y-22853506D01*
X22841911Y-22802261D01*
X22841909Y-22802259D01*
X22841909Y-22802256D01*
X22792571Y-22719013D01*
X22792564Y-22719001D01*
X22731923Y-22624076D01*
X22731301Y-22622974D01*
X22669159Y-22497114D01*
X22668570Y-22488180D01*
X22674471Y-22481445D01*
X22675125Y-22481146D01*
X22982494Y-22352879D01*
X22991449Y-22352857D01*
X22991478Y-22352868D01*
G37*
%TD.AperFunction*%
%TD*%
%TA.AperFunction,Conductor*%
%TO.N,/SW5*%
G36*
X38195401Y-34570440D02*
G01*
X38201716Y-34576789D01*
X38201976Y-34577483D01*
X38247027Y-34710410D01*
X38247372Y-34711647D01*
X38271612Y-34821647D01*
X38295592Y-34915406D01*
X38343660Y-35010195D01*
X38396398Y-35072234D01*
X38433313Y-35115658D01*
X38436061Y-35124181D01*
X38432672Y-35131509D01*
X38306509Y-35257672D01*
X38298236Y-35261099D01*
X38290658Y-35258313D01*
X38185197Y-35168662D01*
X38185195Y-35168660D01*
X38090406Y-35120592D01*
X37996647Y-35096612D01*
X37886647Y-35072372D01*
X37885410Y-35072027D01*
X37752483Y-35026976D01*
X37745747Y-35021075D01*
X37745157Y-35012140D01*
X37745407Y-35011470D01*
X37872054Y-34703423D01*
X37878365Y-34697078D01*
X38186448Y-34570417D01*
X38195401Y-34570440D01*
G37*
%TD.AperFunction*%
%TD*%
%TA.AperFunction,Conductor*%
%TO.N,/SW4*%
G36*
X20190554Y-22039471D02*
G01*
X20190861Y-22040145D01*
X20319119Y-22347494D01*
X20319142Y-22356449D01*
X20319119Y-22356506D01*
X20190861Y-22663854D01*
X20184512Y-22670169D01*
X20175557Y-22670146D01*
X20174883Y-22669839D01*
X20049032Y-22607701D01*
X20047913Y-22607070D01*
X19952985Y-22546426D01*
X19869742Y-22497088D01*
X19869735Y-22497086D01*
X19768725Y-22464051D01*
X19768727Y-22464051D01*
X19630755Y-22452871D01*
X19622786Y-22448787D01*
X19620000Y-22441209D01*
X19620000Y-22262790D01*
X19623427Y-22254517D01*
X19630753Y-22251128D01*
X19768722Y-22239948D01*
X19768724Y-22239947D01*
X19768726Y-22239947D01*
X19792870Y-22232050D01*
X19869738Y-22206911D01*
X19869740Y-22206909D01*
X19869742Y-22206909D01*
X19898433Y-22189903D01*
X19952998Y-22157564D01*
X20047929Y-22096918D01*
X20049016Y-22096305D01*
X20174885Y-22034159D01*
X20183819Y-22033570D01*
X20190554Y-22039471D01*
G37*
%TD.AperFunction*%
%TD*%
%TA.AperFunction,Conductor*%
%TO.N,/CS_SD*%
G36*
X9148478Y-24765868D02*
G01*
X9455854Y-24894138D01*
X9462169Y-24900487D01*
X9462146Y-24909442D01*
X9461839Y-24910116D01*
X9399701Y-25035966D01*
X9399070Y-25037085D01*
X9338426Y-25132013D01*
X9289088Y-25215256D01*
X9289086Y-25215263D01*
X9256051Y-25316272D01*
X9244871Y-25454245D01*
X9240787Y-25462214D01*
X9233209Y-25465000D01*
X9054790Y-25465000D01*
X9046517Y-25461573D01*
X9043128Y-25454245D01*
X9031948Y-25316277D01*
X9031947Y-25316274D01*
X9031947Y-25316272D01*
X9015670Y-25266506D01*
X8998911Y-25215261D01*
X8998909Y-25215259D01*
X8998909Y-25215256D01*
X8949571Y-25132013D01*
X8949564Y-25132001D01*
X8888923Y-25037076D01*
X8888301Y-25035974D01*
X8826159Y-24910114D01*
X8825570Y-24901180D01*
X8831471Y-24894445D01*
X8832125Y-24894146D01*
X9139494Y-24765879D01*
X9148449Y-24765857D01*
X9148478Y-24765868D01*
G37*
%TD.AperFunction*%
%TD*%
M02*
