%TF.GenerationSoftware,KiCad,Pcbnew,9.0.4*%
%TF.CreationDate,2026-02-02T09:46:51-05:00*%
%TF.ProjectId,destinationWeatherStation_v4-5,64657374-696e-4617-9469-6f6e57656174,03*%
%TF.SameCoordinates,PX6bcb370PY43d3480*%
%TF.FileFunction,Legend,Top*%
%TF.FilePolarity,Positive*%
%FSLAX46Y46*%
G04 Gerber Fmt 4.6, Leading zero omitted, Abs format (unit mm)*
G04 Created by KiCad (PCBNEW 9.0.4) date 2026-02-02 09:46:51*
%MOMM*%
%LPD*%
G01*
G04 APERTURE LIST*
%ADD10C,0.150000*%
%ADD11C,0.120000*%
%ADD12C,0.300000*%
%ADD13C,0.250000*%
%ADD14C,0.100000*%
%ADD15C,0.000000*%
%ADD16C,0.200000*%
G04 APERTURE END LIST*
D10*
X43180000Y-14986000D02*
X43053000Y-15240000D01*
D11*
X50170000Y-16383000D02*
X50170000Y-13910000D01*
D10*
X43688000Y-14986000D02*
X42926000Y-14986000D01*
G36*
X30206950Y-1835150D02*
G01*
X38354000Y-1835150D01*
X38354000Y-2413000D01*
X30206950Y-2413000D01*
X30206950Y-1835150D01*
G37*
D12*
X62230000Y-12255500D02*
X62230000Y-10604500D01*
D11*
X37337000Y-17975000D02*
X38725000Y-17975000D01*
D12*
X62230000Y-18224500D02*
X62230000Y-19875500D01*
D11*
X42555000Y-15875000D02*
X43942000Y-15875000D01*
G36*
X31870650Y-2398800D02*
G01*
X36703000Y-2398800D01*
X36703000Y-2856000D01*
X31870650Y-2856000D01*
X31870650Y-2398800D01*
G37*
G36*
X1371600Y-13417550D02*
G01*
X2032000Y-13417550D01*
X2032000Y-19697700D01*
X1371600Y-19697700D01*
X1371600Y-13417550D01*
G37*
D12*
X61352500Y-34290000D02*
X63003500Y-34290000D01*
D11*
X54470000Y-2840000D02*
X54470000Y-5330000D01*
X37337000Y-15875000D02*
X38724000Y-15875000D01*
X50170000Y-2837000D02*
X54470000Y-2837000D01*
X42554000Y-16465000D02*
X42554000Y-17078000D01*
X38725000Y-13775000D02*
X37337000Y-13775000D01*
D10*
X63130500Y-34290000D02*
X62622500Y-34671000D01*
X62622500Y-33909000D01*
X63130500Y-34290000D01*
G36*
X63130500Y-34290000D02*
G01*
X62622500Y-34671000D01*
X62622500Y-33909000D01*
X63130500Y-34290000D01*
G37*
X38036500Y-16510000D02*
X38036500Y-17145000D01*
D11*
X38725000Y-14672000D02*
X38725000Y-15285000D01*
D10*
X43307000Y-14351000D02*
X43307000Y-14986000D01*
X43688000Y-14986000D02*
X43561000Y-15240000D01*
X37655500Y-17145000D02*
X37528500Y-17399000D01*
X38417500Y-17145000D02*
X38290500Y-17399000D01*
D11*
X42554000Y-13775000D02*
X43942000Y-13775000D01*
X37337000Y-13775000D02*
X37337000Y-15875000D01*
D10*
X61837500Y-27051000D02*
X61329500Y-26670000D01*
X61837500Y-26289000D01*
X61837500Y-27051000D01*
G36*
X61837500Y-27051000D02*
G01*
X61329500Y-26670000D01*
X61837500Y-26289000D01*
X61837500Y-27051000D01*
G37*
X62611000Y-10985500D02*
X61849000Y-10985500D01*
X62230000Y-10477500D01*
X62611000Y-10985500D01*
G36*
X62611000Y-10985500D02*
G01*
X61849000Y-10985500D01*
X62230000Y-10477500D01*
X62611000Y-10985500D01*
G37*
G36*
X1917700Y-28568650D02*
G01*
X3079750Y-28568650D01*
X3079750Y-41071800D01*
X1917700Y-41071800D01*
X1917700Y-28568650D01*
G37*
D11*
X43942000Y-13775000D02*
X43942000Y-15875000D01*
D10*
X37909500Y-17145000D02*
X37782500Y-17399000D01*
G36*
X1778000Y-14509750D02*
G01*
X2457450Y-14509750D01*
X2457450Y-18510250D01*
X1778000Y-18510250D01*
X1778000Y-14509750D01*
G37*
D11*
X50170000Y-5330000D02*
X50170000Y-2837000D01*
D10*
X43434000Y-14986000D02*
X43307000Y-15240000D01*
D11*
X43942000Y-15875000D02*
X43942000Y-17975000D01*
D12*
X63107500Y-26670000D02*
X61456500Y-26670000D01*
D11*
X37337000Y-15875000D02*
X37337000Y-17975000D01*
X50240000Y-16380000D02*
X50240000Y-14750000D01*
D10*
X42926000Y-14986000D02*
X42799000Y-15240000D01*
D11*
X54470000Y-16383000D02*
X50174000Y-16383000D01*
X43942000Y-17975000D02*
X42554000Y-17975000D01*
D10*
X38417500Y-17145000D02*
X37655500Y-17145000D01*
X62230000Y-20002500D02*
X61849000Y-19494500D01*
X62611000Y-19494500D01*
X62230000Y-20002500D01*
G36*
X62230000Y-20002500D02*
G01*
X61849000Y-19494500D01*
X62611000Y-19494500D01*
X62230000Y-20002500D01*
G37*
X38163500Y-17145000D02*
X38036500Y-17399000D01*
D11*
X54470000Y-13930000D02*
X54470000Y-16383000D01*
D10*
G36*
X1485363Y-42022931D02*
G01*
X1477962Y-42109863D01*
X1458244Y-42173697D01*
X1428521Y-42219978D01*
X1386398Y-42254338D01*
X1330178Y-42276228D01*
X1255359Y-42284265D01*
X1188735Y-42278610D01*
X1136771Y-42263146D01*
X1096358Y-42239234D01*
X1065291Y-42206950D01*
X1037124Y-42151781D01*
X1016912Y-42065430D01*
X1008914Y-41936078D01*
X1008914Y-41699947D01*
X1485363Y-41699947D01*
X1485363Y-42022931D01*
G37*
G36*
X1490326Y-40958907D02*
G01*
X1486119Y-41002408D01*
X1476445Y-41024434D01*
X1458970Y-41037341D01*
X1429529Y-41042270D01*
X1342677Y-41042270D01*
X1313236Y-41037341D01*
X1295761Y-41024434D01*
X1286087Y-41002408D01*
X1281880Y-40958907D01*
X1281880Y-40540463D01*
X1490326Y-40540463D01*
X1490326Y-40958907D01*
G37*
G36*
X1483967Y-39622848D02*
G01*
X1172693Y-39798260D01*
X1172693Y-39453563D01*
X1483967Y-39622848D01*
G37*
G36*
X1624328Y-36254357D02*
G01*
X1619060Y-36329570D01*
X1604490Y-36390637D01*
X1581915Y-36440132D01*
X1551821Y-36480096D01*
X1513405Y-36512180D01*
X1466399Y-36535896D01*
X1408993Y-36551039D01*
X1338799Y-36556480D01*
X1260080Y-36549788D01*
X1198265Y-36531431D01*
X1149811Y-36502959D01*
X1112207Y-36464432D01*
X1085471Y-36417988D01*
X1063935Y-36353791D01*
X1049203Y-36266990D01*
X1043655Y-36151917D01*
X1043655Y-35875849D01*
X1624328Y-35875849D01*
X1624328Y-36254357D01*
G37*
G36*
X1480400Y-33657770D02*
G01*
X1013877Y-33657770D01*
X1013877Y-33051817D01*
X1480400Y-33051817D01*
X1480400Y-33657770D01*
G37*
G36*
X1490326Y-32330706D02*
G01*
X1486119Y-32374207D01*
X1476445Y-32396233D01*
X1458970Y-32409140D01*
X1429529Y-32414069D01*
X1342677Y-32414069D01*
X1313236Y-32409140D01*
X1295761Y-32396233D01*
X1286087Y-32374207D01*
X1281880Y-32330706D01*
X1281880Y-31912262D01*
X1490326Y-31912262D01*
X1490326Y-32330706D01*
G37*
G36*
X1929218Y-42613738D02*
G01*
X728839Y-42613738D01*
X728839Y-41936078D01*
X869950Y-41936078D01*
X869950Y-41975162D01*
X877097Y-42103248D01*
X896591Y-42205251D01*
X926111Y-42285813D01*
X964247Y-42348861D01*
X1015880Y-42401866D01*
X1078555Y-42440074D01*
X1154545Y-42464068D01*
X1247216Y-42472627D01*
X1335209Y-42464648D01*
X1408735Y-42442118D01*
X1470622Y-42406029D01*
X1522819Y-42355841D01*
X1562739Y-42295636D01*
X1592867Y-42221768D01*
X1612338Y-42131433D01*
X1619365Y-42021225D01*
X1619365Y-41515075D01*
X869950Y-41515075D01*
X869950Y-41936078D01*
X728839Y-41936078D01*
X728839Y-40540463D01*
X869950Y-40540463D01*
X1152841Y-40540463D01*
X1152841Y-40713238D01*
X869950Y-41028389D01*
X869950Y-41291429D01*
X1152841Y-40933782D01*
X1152841Y-40958907D01*
X1152841Y-41037075D01*
X1157398Y-41098441D01*
X1169267Y-41141768D01*
X1186574Y-41171619D01*
X1212086Y-41193764D01*
X1247619Y-41208028D01*
X1296614Y-41213339D01*
X1473809Y-41213339D01*
X1523397Y-41208018D01*
X1559326Y-41193740D01*
X1585089Y-41171619D01*
X1602695Y-41141721D01*
X1614743Y-41098389D01*
X1619365Y-41037075D01*
X1619365Y-40359933D01*
X869950Y-40359933D01*
X869950Y-40540463D01*
X728839Y-40540463D01*
X728839Y-39280788D01*
X869950Y-39280788D01*
X1033729Y-39375395D01*
X1033729Y-39798260D01*
X1033729Y-39872860D01*
X869950Y-39967545D01*
X869950Y-40173277D01*
X1619365Y-39720092D01*
X1619365Y-39543827D01*
X869950Y-39097621D01*
X869950Y-39280788D01*
X728839Y-39280788D01*
X728839Y-38064306D01*
X869950Y-38064306D01*
X869950Y-38612099D01*
X876479Y-38700195D01*
X892852Y-38757166D01*
X915780Y-38792241D01*
X950001Y-38816105D01*
X1004667Y-38832899D01*
X1088245Y-38839545D01*
X1197586Y-38839545D01*
X1242176Y-38625980D01*
X1043655Y-38625980D01*
X1043655Y-38050348D01*
X1624328Y-38050348D01*
X1624328Y-38625980D01*
X1450622Y-38625980D01*
X1484510Y-38839545D01*
X1571363Y-38839545D01*
X1653688Y-38832932D01*
X1707889Y-38816167D01*
X1742122Y-38792241D01*
X1765134Y-38757151D01*
X1781558Y-38700178D01*
X1788107Y-38612099D01*
X1788107Y-38064306D01*
X1781534Y-37975569D01*
X1765089Y-37918499D01*
X1742122Y-37883622D01*
X1707934Y-37859952D01*
X1653739Y-37843340D01*
X1571363Y-37836783D01*
X1088245Y-37836783D01*
X1004616Y-37843373D01*
X949956Y-37860013D01*
X915780Y-37883622D01*
X892896Y-37918485D01*
X876504Y-37975552D01*
X869950Y-38064306D01*
X728839Y-38064306D01*
X728839Y-36151917D01*
X869950Y-36151917D01*
X869950Y-36197903D01*
X874657Y-36330602D01*
X886855Y-36425814D01*
X909815Y-36509934D01*
X941215Y-36574704D01*
X985375Y-36634074D01*
X1039019Y-36683628D01*
X1103134Y-36724060D01*
X1173507Y-36753127D01*
X1250277Y-36770911D01*
X1334689Y-36777024D01*
X1421838Y-36770986D01*
X1497277Y-36753810D01*
X1562852Y-36726412D01*
X1620051Y-36689020D01*
X1669925Y-36641162D01*
X1719041Y-36570682D01*
X1755878Y-36484677D01*
X1779577Y-36379974D01*
X1788107Y-36252651D01*
X1788107Y-35662285D01*
X869950Y-35662285D01*
X869950Y-36151917D01*
X728839Y-36151917D01*
X728839Y-34423935D01*
X869950Y-34423935D01*
X869950Y-34990804D01*
X876555Y-35080113D01*
X893083Y-35137583D01*
X916168Y-35172730D01*
X950647Y-35196644D01*
X1005245Y-35213416D01*
X1088167Y-35220034D01*
X1213561Y-35220034D01*
X1296048Y-35213421D01*
X1350378Y-35196654D01*
X1384707Y-35172730D01*
X1407708Y-35137598D01*
X1424184Y-35080131D01*
X1430770Y-34990804D01*
X1430770Y-34418662D01*
X1629291Y-34418662D01*
X1629291Y-35019497D01*
X1525067Y-35019497D01*
X1569347Y-35207859D01*
X1588501Y-35207859D01*
X1661513Y-35201230D01*
X1711271Y-35184070D01*
X1744216Y-35158771D01*
X1766266Y-35122925D01*
X1781915Y-35066245D01*
X1788107Y-34980413D01*
X1788107Y-34459529D01*
X1781572Y-34370758D01*
X1765231Y-34313693D01*
X1742432Y-34278844D01*
X1708445Y-34255160D01*
X1654614Y-34238556D01*
X1572836Y-34232006D01*
X1470397Y-34232006D01*
X1387423Y-34238567D01*
X1332832Y-34255187D01*
X1298397Y-34278844D01*
X1275261Y-34313752D01*
X1258714Y-34370826D01*
X1252102Y-34459529D01*
X1252102Y-35031594D01*
X1043655Y-35031594D01*
X1043655Y-34383068D01*
X1152841Y-34383068D01*
X1113525Y-34194706D01*
X1088167Y-34194706D01*
X1005245Y-34201323D01*
X950647Y-34218096D01*
X916168Y-34242010D01*
X893083Y-34277157D01*
X876555Y-34334626D01*
X869950Y-34423935D01*
X728839Y-34423935D01*
X728839Y-33063991D01*
X869950Y-33063991D01*
X869950Y-33645595D01*
X870805Y-33657770D01*
X875306Y-33721863D01*
X888664Y-33770783D01*
X907172Y-33800534D01*
X935207Y-33821008D01*
X979726Y-33835301D01*
X1047532Y-33840936D01*
X1441627Y-33840936D01*
X1509365Y-33835410D01*
X1553869Y-33821403D01*
X1581909Y-33801387D01*
X1600459Y-33772088D01*
X1613931Y-33723053D01*
X1619365Y-33645595D01*
X1619365Y-33063991D01*
X1613956Y-32987142D01*
X1600502Y-32938146D01*
X1581909Y-32908587D01*
X1553832Y-32888357D01*
X1509322Y-32874222D01*
X1441627Y-32868650D01*
X1047532Y-32868650D01*
X979674Y-32874230D01*
X935162Y-32888371D01*
X907172Y-32908587D01*
X888704Y-32938124D01*
X875329Y-32987116D01*
X869950Y-33063991D01*
X728839Y-33063991D01*
X728839Y-31912262D01*
X869950Y-31912262D01*
X1152841Y-31912262D01*
X1152841Y-32085037D01*
X869950Y-32400188D01*
X869950Y-32663228D01*
X1152841Y-32305581D01*
X1152841Y-32330706D01*
X1152841Y-32408874D01*
X1157398Y-32470240D01*
X1169267Y-32513567D01*
X1186574Y-32543418D01*
X1212086Y-32565563D01*
X1247619Y-32579827D01*
X1296614Y-32585138D01*
X1473809Y-32585138D01*
X1523397Y-32579817D01*
X1559326Y-32565539D01*
X1585089Y-32543418D01*
X1602695Y-32513520D01*
X1614743Y-32470188D01*
X1619365Y-32408874D01*
X1619365Y-31731732D01*
X869950Y-31731732D01*
X869950Y-31912262D01*
X728839Y-31912262D01*
X728839Y-30764875D01*
X869950Y-30764875D01*
X869950Y-31234500D01*
X875366Y-31311314D01*
X888884Y-31360669D01*
X907637Y-31390758D01*
X935929Y-31411536D01*
X980376Y-31425961D01*
X1047532Y-31431625D01*
X1135548Y-31431625D01*
X1172693Y-31246675D01*
X1013877Y-31246675D01*
X1013877Y-30752700D01*
X1480400Y-30752700D01*
X1480400Y-31246675D01*
X1341436Y-31246675D01*
X1368345Y-31431625D01*
X1441317Y-31431625D01*
X1509069Y-31425998D01*
X1553661Y-31411709D01*
X1581832Y-31391223D01*
X1600457Y-31361408D01*
X1613942Y-31311993D01*
X1619365Y-31234500D01*
X1619365Y-30764875D01*
X1613971Y-30688641D01*
X1600510Y-30639685D01*
X1581832Y-30609858D01*
X1553668Y-30589415D01*
X1509077Y-30575152D01*
X1441317Y-30569534D01*
X1047532Y-30569534D01*
X979769Y-30575214D01*
X935244Y-30589634D01*
X907172Y-30610324D01*
X888621Y-30640336D01*
X875282Y-30689213D01*
X869950Y-30764875D01*
X728839Y-30764875D01*
X728839Y-30252676D01*
X869950Y-30252676D01*
X1619365Y-30252676D01*
X1619365Y-30070363D01*
X869950Y-30070363D01*
X869950Y-30252676D01*
X728839Y-30252676D01*
X728839Y-28853494D01*
X869950Y-28853494D01*
X1373618Y-28853494D01*
X959982Y-29193771D01*
X959982Y-29229365D01*
X1385715Y-29565376D01*
X869950Y-29565376D01*
X869950Y-29735515D01*
X1619365Y-29735515D01*
X1619365Y-29587943D01*
X1174555Y-29221610D01*
X1619365Y-28853494D01*
X1619365Y-28706775D01*
X869950Y-28706775D01*
X869950Y-28853494D01*
X728839Y-28853494D01*
X728839Y-28565664D01*
X1929218Y-28565664D01*
X1929218Y-42613738D01*
G37*
G36*
X28221053Y-47219256D02*
G01*
X28231943Y-47223818D01*
X28264855Y-47247631D01*
X28285444Y-47266457D01*
X28299232Y-47286100D01*
X28498046Y-47682139D01*
X28521606Y-47740934D01*
X28528821Y-47792720D01*
X28523203Y-47835402D01*
X28505007Y-47879488D01*
X28303445Y-48246157D01*
X28285262Y-48276101D01*
X28266992Y-48297937D01*
X28246230Y-48315107D01*
X28224311Y-48326635D01*
X28177416Y-48337809D01*
X28134002Y-48342023D01*
X28076605Y-48345503D01*
X28002416Y-48346907D01*
X27904414Y-48346907D01*
X27831629Y-48346907D01*
X27813217Y-48341856D01*
X27798718Y-48325903D01*
X27789898Y-48303546D01*
X27786811Y-48276810D01*
X27789251Y-48252951D01*
X27795909Y-48234800D01*
X27807378Y-48222101D01*
X27823203Y-48217947D01*
X27929571Y-48217947D01*
X27929571Y-48216543D01*
X28073796Y-48216543D01*
X28103166Y-48217947D01*
X28145863Y-48212842D01*
X28181568Y-48198225D01*
X28278899Y-48026583D01*
X28324645Y-47931247D01*
X28357973Y-47837966D01*
X28377573Y-47766220D01*
X28353759Y-47690199D01*
X28318191Y-47603944D01*
X28271144Y-47515688D01*
X28170394Y-47356625D01*
X28129447Y-47345762D01*
X28097610Y-47342581D01*
X28073796Y-47342581D01*
X28073796Y-48216543D01*
X27929571Y-48216543D01*
X27929571Y-47342581D01*
X27811968Y-47342581D01*
X27795707Y-47339116D01*
X27783941Y-47329025D01*
X27776737Y-47314138D01*
X27774171Y-47295015D01*
X27778008Y-47267509D01*
X27789558Y-47242014D01*
X27807154Y-47223122D01*
X27825951Y-47217528D01*
X28205382Y-47217528D01*
X28221053Y-47219256D01*
G37*
G36*
X29086061Y-47562338D02*
G01*
X29128803Y-47579252D01*
X29183337Y-47625242D01*
X29236575Y-47677621D01*
X29253367Y-47726164D01*
X29266006Y-47777455D01*
X29266006Y-48002403D01*
X29231019Y-48034765D01*
X29214450Y-48043122D01*
X29194627Y-48046000D01*
X28703210Y-48046000D01*
X28703210Y-48130203D01*
X28721761Y-48157855D01*
X28747296Y-48181616D01*
X28777381Y-48199499D01*
X28809639Y-48210131D01*
X29222592Y-48210131D01*
X29249002Y-48226617D01*
X29263765Y-48247541D01*
X29268815Y-48274306D01*
X29264147Y-48301813D01*
X29250202Y-48325640D01*
X29225401Y-48346907D01*
X28749372Y-48346907D01*
X28699748Y-48327393D01*
X28654930Y-48298772D01*
X28614244Y-48260323D01*
X28582220Y-48215101D01*
X28563726Y-48168311D01*
X28557580Y-48118724D01*
X28557580Y-47762312D01*
X28703210Y-47762312D01*
X28703210Y-47913132D01*
X29116225Y-47913132D01*
X29116225Y-47753825D01*
X29078103Y-47718243D01*
X29034866Y-47697473D01*
X28984639Y-47690383D01*
X28798404Y-47690383D01*
X28769033Y-47700946D01*
X28741006Y-47712914D01*
X28717926Y-47739048D01*
X28703210Y-47762312D01*
X28557580Y-47762312D01*
X28557580Y-47752542D01*
X28572277Y-47708886D01*
X28596229Y-47668727D01*
X28630364Y-47631398D01*
X28691953Y-47585130D01*
X28763416Y-47549699D01*
X29044784Y-47549699D01*
X29086061Y-47562338D01*
G37*
G36*
X30080373Y-48049542D02*
G01*
X30087395Y-48119273D01*
X30080856Y-48180580D01*
X30062177Y-48232357D01*
X30031592Y-48275927D01*
X29990797Y-48307767D01*
X29944895Y-48331366D01*
X29905373Y-48346907D01*
X29524599Y-48346907D01*
X29481798Y-48332535D01*
X29448334Y-48317415D01*
X29418242Y-48297816D01*
X29388800Y-48270520D01*
X29378374Y-48244827D01*
X29374817Y-48215749D01*
X29379737Y-48185103D01*
X29393684Y-48161771D01*
X29416024Y-48147132D01*
X29449005Y-48143697D01*
X29471952Y-48149903D01*
X29507807Y-48174472D01*
X29555434Y-48210131D01*
X29897008Y-48210131D01*
X29920322Y-48193047D01*
X29940422Y-48170564D01*
X29950192Y-48142049D01*
X29954405Y-48122265D01*
X29942579Y-48093400D01*
X29923750Y-48068709D01*
X29897008Y-48047588D01*
X29454623Y-47850178D01*
X29427792Y-47823925D01*
X29409804Y-47793758D01*
X29399395Y-47759809D01*
X29395822Y-47721951D01*
X29400497Y-47677841D01*
X29414350Y-47637038D01*
X29437770Y-47598608D01*
X29468954Y-47567106D01*
X29504914Y-47547211D01*
X29547008Y-47537975D01*
X29946040Y-47537975D01*
X29990960Y-47554826D01*
X30029265Y-47579680D01*
X30048959Y-47601148D01*
X30059185Y-47624814D01*
X30060834Y-47651914D01*
X30048707Y-47681802D01*
X30029826Y-47705240D01*
X30003437Y-47723233D01*
X29968388Y-47723233D01*
X29883025Y-47663027D01*
X29579187Y-47663027D01*
X29549817Y-47675423D01*
X29539253Y-47701496D01*
X29538581Y-47729034D01*
X29554702Y-47755107D01*
X29569417Y-47764755D01*
X29986584Y-47930046D01*
X30024783Y-47966527D01*
X30055875Y-48006259D01*
X30080373Y-48049542D01*
G37*
G36*
X30858287Y-48107549D02*
G01*
X30856150Y-48163847D01*
X30852669Y-48210131D01*
X30835342Y-48237990D01*
X30812796Y-48266429D01*
X30760284Y-48318392D01*
X30680478Y-48346907D01*
X30467681Y-48346907D01*
X30429285Y-48336520D01*
X30394268Y-48318675D01*
X30361985Y-48292869D01*
X30320913Y-48244670D01*
X30287064Y-48186073D01*
X30287064Y-47655212D01*
X30161095Y-47655212D01*
X30143373Y-47625158D01*
X30137282Y-47588167D01*
X30140648Y-47561194D01*
X30150375Y-47538275D01*
X30166652Y-47518436D01*
X30289872Y-47518436D01*
X30289872Y-47316080D01*
X30299814Y-47302083D01*
X30312953Y-47290435D01*
X30328326Y-47282604D01*
X30344461Y-47280055D01*
X30385066Y-47282802D01*
X30407547Y-47299469D01*
X30421458Y-47316080D01*
X30421458Y-47518436D01*
X30730914Y-47518436D01*
X30756071Y-47528022D01*
X30779885Y-47551286D01*
X30784098Y-47585480D01*
X30781464Y-47609973D01*
X30774267Y-47628528D01*
X30761558Y-47643288D01*
X30740684Y-47655212D01*
X30421458Y-47655212D01*
X30421458Y-48135149D01*
X30433574Y-48161718D01*
X30453637Y-48185158D01*
X30471162Y-48194500D01*
X30497051Y-48202316D01*
X30677669Y-48202316D01*
X30701386Y-48181706D01*
X30731586Y-48138568D01*
X30771458Y-48077813D01*
X30796676Y-48073355D01*
X30819279Y-48077011D01*
X30839538Y-48088011D01*
X30858287Y-48107549D01*
G37*
G36*
X31316608Y-47365845D02*
G01*
X31300488Y-47379095D01*
X31284429Y-47389475D01*
X31155652Y-47389475D01*
X31136724Y-47379095D01*
X31117856Y-47363097D01*
X31117856Y-47207576D01*
X31138567Y-47188672D01*
X31158461Y-47178450D01*
X31281621Y-47178450D01*
X31300488Y-47194448D01*
X31316608Y-47210384D01*
X31316608Y-47365845D01*
G37*
G36*
X31571415Y-48254767D02*
G01*
X31572819Y-48271558D01*
X31567377Y-48303888D01*
X31551891Y-48328356D01*
X31525192Y-48346907D01*
X31032432Y-48346907D01*
X31009374Y-48330097D01*
X30996300Y-48309575D01*
X30991826Y-48284076D01*
X30996231Y-48256336D01*
X31009353Y-48232042D01*
X31032432Y-48210131D01*
X31194853Y-48210131D01*
X31194853Y-47690383D01*
X31019853Y-47690383D01*
X30998787Y-47676949D01*
X30975035Y-47655028D01*
X30972226Y-47625353D01*
X30978515Y-47587190D01*
X30986553Y-47570330D01*
X30997444Y-47557515D01*
X31309586Y-47557515D01*
X31334804Y-47572352D01*
X31353001Y-47588533D01*
X31353001Y-48210131D01*
X31522444Y-48210131D01*
X31549754Y-48227289D01*
X31571415Y-48254767D01*
G37*
G36*
X32426326Y-48299158D02*
G01*
X32412807Y-48327995D01*
X32388529Y-48350937D01*
X32359098Y-48353746D01*
X32328323Y-48350937D01*
X32296083Y-48322239D01*
X32284109Y-48306117D01*
X32279292Y-48287862D01*
X32279292Y-47731599D01*
X32230321Y-47696550D01*
X32184770Y-47686780D01*
X32139279Y-47682567D01*
X32103559Y-47695267D01*
X32070708Y-47710716D01*
X31866338Y-47842973D01*
X31866338Y-48301661D01*
X31853698Y-48320712D01*
X31831350Y-48342511D01*
X31808985Y-48351111D01*
X31789340Y-48353746D01*
X31770933Y-48351166D01*
X31748735Y-48342511D01*
X31731943Y-48313751D01*
X31726326Y-48296166D01*
X31726326Y-47618026D01*
X31728648Y-47601315D01*
X31737500Y-47574489D01*
X31763164Y-47553377D01*
X31794958Y-47546401D01*
X31817716Y-47550322D01*
X31839715Y-47562521D01*
X31856825Y-47581144D01*
X31866338Y-47605203D01*
X31866338Y-47675178D01*
X31961532Y-47621872D01*
X32060938Y-47560140D01*
X32100811Y-47548905D01*
X32144958Y-47541883D01*
X32209949Y-47547185D01*
X32270516Y-47562808D01*
X32327591Y-47588778D01*
X32365764Y-47615543D01*
X32394279Y-47646802D01*
X32414343Y-47683026D01*
X32426326Y-47725248D01*
X32426326Y-48299158D01*
G37*
G36*
X33084088Y-47558429D02*
G01*
X33118389Y-47581094D01*
X33147819Y-47610149D01*
X33182065Y-47662962D01*
X33205216Y-47727630D01*
X33205216Y-48289205D01*
X33205114Y-48309448D01*
X33195385Y-48335672D01*
X33178594Y-48342694D01*
X33161802Y-48346907D01*
X33147819Y-48345930D01*
X33133935Y-48343724D01*
X33110023Y-48335001D01*
X33069417Y-48284381D01*
X33038768Y-48316078D01*
X33006803Y-48336364D01*
X32972819Y-48346907D01*
X32667638Y-48346907D01*
X32626760Y-48335200D01*
X32590622Y-48315515D01*
X32558400Y-48287373D01*
X32532594Y-48253206D01*
X32514965Y-48215245D01*
X32505216Y-48172640D01*
X32505216Y-48043252D01*
X32639611Y-48043252D01*
X32639611Y-48136431D01*
X32643616Y-48160117D01*
X32654998Y-48177952D01*
X32672557Y-48191547D01*
X32697008Y-48202316D01*
X33020446Y-48202316D01*
X33044010Y-48191482D01*
X33062950Y-48174190D01*
X33077844Y-48149315D01*
X33077844Y-48051862D01*
X33070497Y-48027751D01*
X33061052Y-48010280D01*
X33046479Y-47998651D01*
X33024660Y-47987382D01*
X32705434Y-47987382D01*
X32674713Y-48000574D01*
X32653374Y-48019061D01*
X32639611Y-48043252D01*
X32505216Y-48043252D01*
X32505216Y-48028109D01*
X32511505Y-47980665D01*
X32530434Y-47928947D01*
X32572444Y-47887853D01*
X32592265Y-47873924D01*
X32617202Y-47862330D01*
X33061052Y-47862330D01*
X33061052Y-47741368D01*
X33047664Y-47719417D01*
X33030277Y-47701984D01*
X33009491Y-47690305D01*
X32986863Y-47686475D01*
X32697008Y-47686475D01*
X32674774Y-47674506D01*
X32658540Y-47655578D01*
X32648572Y-47632128D01*
X32645228Y-47606485D01*
X32650846Y-47571375D01*
X32673646Y-47553436D01*
X32699817Y-47541883D01*
X33044199Y-47541883D01*
X33084088Y-47558429D01*
G37*
G36*
X34022697Y-48107549D02*
G01*
X34020560Y-48163847D01*
X34017079Y-48210131D01*
X33999753Y-48237990D01*
X33977207Y-48266429D01*
X33924695Y-48318392D01*
X33844888Y-48346907D01*
X33632092Y-48346907D01*
X33593695Y-48336520D01*
X33558678Y-48318675D01*
X33526396Y-48292869D01*
X33485323Y-48244670D01*
X33451474Y-48186073D01*
X33451474Y-47655212D01*
X33325506Y-47655212D01*
X33307783Y-47625158D01*
X33301692Y-47588167D01*
X33305059Y-47561194D01*
X33314786Y-47538275D01*
X33331062Y-47518436D01*
X33454283Y-47518436D01*
X33454283Y-47316080D01*
X33464225Y-47302083D01*
X33477364Y-47290435D01*
X33492736Y-47282604D01*
X33508871Y-47280055D01*
X33549476Y-47282802D01*
X33571957Y-47299469D01*
X33585869Y-47316080D01*
X33585869Y-47518436D01*
X33895324Y-47518436D01*
X33920481Y-47528022D01*
X33944295Y-47551286D01*
X33948508Y-47585480D01*
X33945874Y-47609973D01*
X33938677Y-47628528D01*
X33925968Y-47643288D01*
X33905094Y-47655212D01*
X33585869Y-47655212D01*
X33585869Y-48135149D01*
X33597985Y-48161718D01*
X33618048Y-48185158D01*
X33635572Y-48194500D01*
X33661462Y-48202316D01*
X33842079Y-48202316D01*
X33865796Y-48181706D01*
X33895996Y-48138568D01*
X33935869Y-48077813D01*
X33961087Y-48073355D01*
X33983689Y-48077011D01*
X34003948Y-48088011D01*
X34022697Y-48107549D01*
G37*
G36*
X34481019Y-47365845D02*
G01*
X34464899Y-47379095D01*
X34448840Y-47389475D01*
X34320063Y-47389475D01*
X34301134Y-47379095D01*
X34282266Y-47363097D01*
X34282266Y-47207576D01*
X34302978Y-47188672D01*
X34322871Y-47178450D01*
X34446031Y-47178450D01*
X34464899Y-47194448D01*
X34481019Y-47210384D01*
X34481019Y-47365845D01*
G37*
G36*
X34735825Y-48254767D02*
G01*
X34737229Y-48271558D01*
X34731787Y-48303888D01*
X34716301Y-48328356D01*
X34689602Y-48346907D01*
X34196842Y-48346907D01*
X34173784Y-48330097D01*
X34160710Y-48309575D01*
X34156237Y-48284076D01*
X34160642Y-48256336D01*
X34173763Y-48232042D01*
X34196842Y-48210131D01*
X34359264Y-48210131D01*
X34359264Y-47690383D01*
X34184264Y-47690383D01*
X34163198Y-47676949D01*
X34139445Y-47655028D01*
X34136636Y-47625353D01*
X34142926Y-47587190D01*
X34150963Y-47570330D01*
X34161854Y-47557515D01*
X34473997Y-47557515D01*
X34499215Y-47572352D01*
X34517411Y-47588533D01*
X34517411Y-48210131D01*
X34686854Y-48210131D01*
X34714164Y-48227289D01*
X34735825Y-48254767D01*
G37*
G36*
X35393998Y-47540418D02*
G01*
X35460494Y-47558003D01*
X35544513Y-47618453D01*
X35596293Y-47690138D01*
X35624319Y-47813908D01*
X35624319Y-48102237D01*
X35607204Y-48155980D01*
X35579735Y-48206118D01*
X35541033Y-48253362D01*
X35494908Y-48293678D01*
X35444475Y-48324682D01*
X35389114Y-48346907D01*
X35137116Y-48346907D01*
X35065736Y-48327124D01*
X35011125Y-48287495D01*
X34965596Y-48239685D01*
X34930535Y-48184098D01*
X34907528Y-48121105D01*
X34907528Y-47783989D01*
X35044731Y-47783989D01*
X35047540Y-47954714D01*
X35053158Y-48107122D01*
X35093763Y-48170320D01*
X35167952Y-48198408D01*
X35389175Y-48198408D01*
X35420180Y-48180910D01*
X35445839Y-48156764D01*
X35466021Y-48126815D01*
X35481560Y-48089659D01*
X35475942Y-47773303D01*
X35421354Y-47718226D01*
X35371650Y-47694901D01*
X35303751Y-47678659D01*
X35131560Y-47692703D01*
X35104055Y-47705933D01*
X35079719Y-47726408D01*
X35059969Y-47752409D01*
X35044731Y-47783989D01*
X34907528Y-47783989D01*
X34907528Y-47734468D01*
X34933410Y-47684828D01*
X34965596Y-47641351D01*
X35004305Y-47601692D01*
X35053096Y-47560873D01*
X35114707Y-47534067D01*
X35225288Y-47534067D01*
X35337334Y-47534067D01*
X35393998Y-47540418D01*
G37*
G36*
X36399668Y-48299158D02*
G01*
X36386150Y-48327995D01*
X36361872Y-48350937D01*
X36332441Y-48353746D01*
X36301666Y-48350937D01*
X36269426Y-48322239D01*
X36257452Y-48306117D01*
X36252634Y-48287862D01*
X36252634Y-47731599D01*
X36203663Y-47696550D01*
X36158112Y-47686780D01*
X36112622Y-47682567D01*
X36076901Y-47695267D01*
X36044051Y-47710716D01*
X35839681Y-47842973D01*
X35839681Y-48301661D01*
X35827041Y-48320712D01*
X35804693Y-48342511D01*
X35782327Y-48351111D01*
X35762683Y-48353746D01*
X35744276Y-48351166D01*
X35722078Y-48342511D01*
X35705286Y-48313751D01*
X35699668Y-48296166D01*
X35699668Y-47618026D01*
X35701990Y-47601315D01*
X35710842Y-47574489D01*
X35736506Y-47553377D01*
X35768301Y-47546401D01*
X35791059Y-47550322D01*
X35813058Y-47562521D01*
X35830168Y-47581144D01*
X35839681Y-47605203D01*
X35839681Y-47675178D01*
X35934874Y-47621872D01*
X36034281Y-47560140D01*
X36074154Y-47548905D01*
X36118301Y-47541883D01*
X36183292Y-47547185D01*
X36243858Y-47562808D01*
X36300933Y-47588778D01*
X36339106Y-47615543D01*
X36367622Y-47646802D01*
X36387685Y-47683026D01*
X36399668Y-47725248D01*
X36399668Y-48299158D01*
G37*
G36*
X37427198Y-48346907D02*
G01*
X37386999Y-48315322D01*
X37355146Y-48273146D01*
X37332951Y-48224235D01*
X37320830Y-48171297D01*
X37320830Y-47282009D01*
X37326555Y-47267387D01*
X37339698Y-47251845D01*
X37358608Y-47241150D01*
X37387997Y-47237068D01*
X37416895Y-47241127D01*
X37438187Y-47252332D01*
X37453821Y-47270712D01*
X37453821Y-48104130D01*
X37459969Y-48138814D01*
X37478978Y-48171480D01*
X37497452Y-48189018D01*
X37517290Y-48198992D01*
X37539244Y-48202316D01*
X37577713Y-48191813D01*
X37592941Y-48181135D01*
X37603474Y-48159518D01*
X37607816Y-48120800D01*
X37607816Y-47643122D01*
X37612316Y-47627139D01*
X37626683Y-47614362D01*
X37647118Y-47606616D01*
X37673639Y-47603799D01*
X37699188Y-47606842D01*
X37721877Y-47615766D01*
X37738634Y-47629908D01*
X37743615Y-47645930D01*
X37743615Y-48112373D01*
X37748727Y-48131566D01*
X37767367Y-48155971D01*
X37817803Y-48202316D01*
X37847772Y-48199264D01*
X37872392Y-48184791D01*
X37889383Y-48162433D01*
X37894801Y-48137713D01*
X37894801Y-47272178D01*
X37913686Y-47252269D01*
X37934842Y-47240901D01*
X37959220Y-47237068D01*
X37989857Y-47242477D01*
X38014551Y-47258309D01*
X38034813Y-47286283D01*
X38034813Y-48190775D01*
X38015779Y-48243176D01*
X37988281Y-48285766D01*
X37952096Y-48320102D01*
X37906036Y-48346907D01*
X37771580Y-48346907D01*
X37749289Y-48338243D01*
X37722610Y-48321811D01*
X37682004Y-48292197D01*
X37641399Y-48324010D01*
X37607816Y-48346907D01*
X37427198Y-48346907D01*
G37*
G36*
X38643772Y-47562338D02*
G01*
X38686514Y-47579252D01*
X38741048Y-47625242D01*
X38794286Y-47677621D01*
X38811078Y-47726164D01*
X38823718Y-47777455D01*
X38823718Y-48002403D01*
X38788730Y-48034765D01*
X38772161Y-48043122D01*
X38752338Y-48046000D01*
X38260921Y-48046000D01*
X38260921Y-48130203D01*
X38279472Y-48157855D01*
X38305007Y-48181616D01*
X38335092Y-48199499D01*
X38367350Y-48210131D01*
X38780303Y-48210131D01*
X38806713Y-48226617D01*
X38821476Y-48247541D01*
X38826526Y-48274306D01*
X38821858Y-48301813D01*
X38807913Y-48325640D01*
X38783112Y-48346907D01*
X38307083Y-48346907D01*
X38257459Y-48327393D01*
X38212641Y-48298772D01*
X38171956Y-48260323D01*
X38139931Y-48215101D01*
X38121437Y-48168311D01*
X38115291Y-48118724D01*
X38115291Y-47762312D01*
X38260921Y-47762312D01*
X38260921Y-47913132D01*
X38673936Y-47913132D01*
X38673936Y-47753825D01*
X38635815Y-47718243D01*
X38592577Y-47697473D01*
X38542350Y-47690383D01*
X38356115Y-47690383D01*
X38326744Y-47700946D01*
X38298718Y-47712914D01*
X38275637Y-47739048D01*
X38260921Y-47762312D01*
X38115291Y-47762312D01*
X38115291Y-47752542D01*
X38129988Y-47708886D01*
X38153940Y-47668727D01*
X38188076Y-47631398D01*
X38249664Y-47585130D01*
X38321127Y-47549699D01*
X38602495Y-47549699D01*
X38643772Y-47562338D01*
G37*
G36*
X39486181Y-47558429D02*
G01*
X39520482Y-47581094D01*
X39549913Y-47610149D01*
X39584158Y-47662962D01*
X39607310Y-47727630D01*
X39607310Y-48289205D01*
X39607208Y-48309448D01*
X39597479Y-48335672D01*
X39580687Y-48342694D01*
X39563896Y-48346907D01*
X39549913Y-48345930D01*
X39536028Y-48343724D01*
X39512116Y-48335001D01*
X39471511Y-48284381D01*
X39440862Y-48316078D01*
X39408896Y-48336364D01*
X39374913Y-48346907D01*
X39069731Y-48346907D01*
X39028854Y-48335200D01*
X38992715Y-48315515D01*
X38960494Y-48287373D01*
X38934688Y-48253206D01*
X38917058Y-48215245D01*
X38907310Y-48172640D01*
X38907310Y-48043252D01*
X39041704Y-48043252D01*
X39041704Y-48136431D01*
X39045709Y-48160117D01*
X39057092Y-48177952D01*
X39074650Y-48191547D01*
X39099101Y-48202316D01*
X39422540Y-48202316D01*
X39446103Y-48191482D01*
X39465043Y-48174190D01*
X39479937Y-48149315D01*
X39479937Y-48051862D01*
X39472591Y-48027751D01*
X39463145Y-48010280D01*
X39448573Y-47998651D01*
X39426753Y-47987382D01*
X39107528Y-47987382D01*
X39076806Y-48000574D01*
X39055468Y-48019061D01*
X39041704Y-48043252D01*
X38907310Y-48043252D01*
X38907310Y-48028109D01*
X38913599Y-47980665D01*
X38932528Y-47928947D01*
X38974538Y-47887853D01*
X38994358Y-47873924D01*
X39019295Y-47862330D01*
X39463145Y-47862330D01*
X39463145Y-47741368D01*
X39449757Y-47719417D01*
X39432371Y-47701984D01*
X39411584Y-47690305D01*
X39388957Y-47686475D01*
X39099101Y-47686475D01*
X39076867Y-47674506D01*
X39060633Y-47655578D01*
X39050665Y-47632128D01*
X39047322Y-47606485D01*
X39052939Y-47571375D01*
X39075740Y-47553436D01*
X39101910Y-47541883D01*
X39446293Y-47541883D01*
X39486181Y-47558429D01*
G37*
G36*
X40424790Y-48107549D02*
G01*
X40422653Y-48163847D01*
X40419173Y-48210131D01*
X40401846Y-48237990D01*
X40379300Y-48266429D01*
X40326788Y-48318392D01*
X40246982Y-48346907D01*
X40034185Y-48346907D01*
X39995789Y-48336520D01*
X39960772Y-48318675D01*
X39928489Y-48292869D01*
X39887416Y-48244670D01*
X39853568Y-48186073D01*
X39853568Y-47655212D01*
X39727599Y-47655212D01*
X39709877Y-47625158D01*
X39703786Y-47588167D01*
X39707152Y-47561194D01*
X39716879Y-47538275D01*
X39733156Y-47518436D01*
X39856376Y-47518436D01*
X39856376Y-47316080D01*
X39866318Y-47302083D01*
X39879457Y-47290435D01*
X39894830Y-47282604D01*
X39910965Y-47280055D01*
X39951570Y-47282802D01*
X39974051Y-47299469D01*
X39987962Y-47316080D01*
X39987962Y-47518436D01*
X40297418Y-47518436D01*
X40322575Y-47528022D01*
X40346389Y-47551286D01*
X40350602Y-47585480D01*
X40347968Y-47609973D01*
X40340771Y-47628528D01*
X40328061Y-47643288D01*
X40307188Y-47655212D01*
X39987962Y-47655212D01*
X39987962Y-48135149D01*
X40000078Y-48161718D01*
X40020141Y-48185158D01*
X40037666Y-48194500D01*
X40063555Y-48202316D01*
X40244173Y-48202316D01*
X40267889Y-48181706D01*
X40298090Y-48138568D01*
X40337962Y-48077813D01*
X40363180Y-48073355D01*
X40385782Y-48077011D01*
X40406041Y-48088011D01*
X40424790Y-48107549D01*
G37*
G36*
X41249904Y-48315034D02*
G01*
X41220465Y-48334220D01*
X41191102Y-48340191D01*
X41163334Y-48335203D01*
X41137919Y-48319919D01*
X41118858Y-48296623D01*
X41108548Y-48266124D01*
X41108548Y-47736239D01*
X41083576Y-47708088D01*
X41055303Y-47689467D01*
X41023206Y-47678523D01*
X40986732Y-47674751D01*
X40940570Y-47678964D01*
X40684360Y-47818366D01*
X40684360Y-48278580D01*
X40674729Y-48306595D01*
X40657737Y-48328101D01*
X40634772Y-48342157D01*
X40607362Y-48346907D01*
X40589573Y-48344833D01*
X40572313Y-48338542D01*
X40553364Y-48312248D01*
X40538730Y-48284015D01*
X40538730Y-47325362D01*
X40537868Y-47306180D01*
X40544347Y-47279261D01*
X40554646Y-47269292D01*
X40571580Y-47259721D01*
X40590114Y-47253582D01*
X40604553Y-47252699D01*
X40636160Y-47262659D01*
X40660430Y-47280565D01*
X40678742Y-47307288D01*
X40678742Y-47675178D01*
X40822235Y-47601722D01*
X40976901Y-47537975D01*
X41031490Y-47537975D01*
X41057203Y-47546379D01*
X41083330Y-47546340D01*
X41149093Y-47575711D01*
X41181012Y-47603244D01*
X41205757Y-47634451D01*
X41226736Y-47670418D01*
X41249904Y-47718287D01*
X41249904Y-48315034D01*
G37*
G36*
X41903925Y-47562338D02*
G01*
X41946668Y-47579252D01*
X42001201Y-47625242D01*
X42054440Y-47677621D01*
X42071232Y-47726164D01*
X42083871Y-47777455D01*
X42083871Y-48002403D01*
X42048883Y-48034765D01*
X42032315Y-48043122D01*
X42012491Y-48046000D01*
X41521075Y-48046000D01*
X41521075Y-48130203D01*
X41539625Y-48157855D01*
X41565160Y-48181616D01*
X41595246Y-48199499D01*
X41627503Y-48210131D01*
X42040457Y-48210131D01*
X42066867Y-48226617D01*
X42081630Y-48247541D01*
X42086680Y-48274306D01*
X42082012Y-48301813D01*
X42068067Y-48325640D01*
X42043266Y-48346907D01*
X41567236Y-48346907D01*
X41517613Y-48327393D01*
X41472795Y-48298772D01*
X41432109Y-48260323D01*
X41400085Y-48215101D01*
X41381591Y-48168311D01*
X41375445Y-48118724D01*
X41375445Y-47762312D01*
X41521075Y-47762312D01*
X41521075Y-47913132D01*
X41934089Y-47913132D01*
X41934089Y-47753825D01*
X41895968Y-47718243D01*
X41852730Y-47697473D01*
X41802503Y-47690383D01*
X41616268Y-47690383D01*
X41586898Y-47700946D01*
X41558871Y-47712914D01*
X41535790Y-47739048D01*
X41521075Y-47762312D01*
X41375445Y-47762312D01*
X41375445Y-47752542D01*
X41390141Y-47708886D01*
X41414093Y-47668727D01*
X41448229Y-47631398D01*
X41509817Y-47585130D01*
X41581280Y-47549699D01*
X41862648Y-47549699D01*
X41903925Y-47562338D01*
G37*
G36*
X42912282Y-47795529D02*
G01*
X42893129Y-47818578D01*
X42870514Y-47834216D01*
X42843711Y-47843218D01*
X42807113Y-47828485D01*
X42772270Y-47798765D01*
X42752669Y-47693252D01*
X42729588Y-47676583D01*
X42698081Y-47661257D01*
X42640684Y-47647396D01*
X42556664Y-47680796D01*
X42332693Y-47858605D01*
X42332693Y-48302394D01*
X42322863Y-48323277D01*
X42310284Y-48337199D01*
X42288470Y-48344429D01*
X42264061Y-48346907D01*
X42233134Y-48341841D01*
X42208967Y-48327312D01*
X42189872Y-48302272D01*
X42189872Y-47613263D01*
X42203272Y-47574343D01*
X42222051Y-47544936D01*
X42239576Y-47540112D01*
X42254292Y-47537975D01*
X42290684Y-47542188D01*
X42315716Y-47564693D01*
X42332693Y-47588167D01*
X42332693Y-47680185D01*
X42553855Y-47524175D01*
X42604963Y-47514711D01*
X42657475Y-47510620D01*
X42712489Y-47514930D01*
X42761868Y-47527419D01*
X42806586Y-47547806D01*
X42845367Y-47576715D01*
X42875768Y-47614344D01*
X42898299Y-47662173D01*
X42912282Y-47795529D01*
G37*
G36*
X44496380Y-47508605D02*
G01*
X44470490Y-47502804D01*
X44447409Y-47489737D01*
X44384394Y-47373844D01*
X44007772Y-47373844D01*
X43990980Y-47384835D01*
X43990197Y-47398854D01*
X43993789Y-47422570D01*
X44521598Y-48079034D01*
X44540885Y-48110502D01*
X44552559Y-48145702D01*
X44556586Y-48185646D01*
X44554449Y-48211597D01*
X44550968Y-48234739D01*
X44523685Y-48278502D01*
X44486549Y-48314667D01*
X44457303Y-48332817D01*
X44427195Y-48343388D01*
X44395569Y-48346907D01*
X44370412Y-48346907D01*
X43990980Y-48346907D01*
X43948623Y-48333055D01*
X43912309Y-48311107D01*
X43881071Y-48280595D01*
X43857332Y-48243992D01*
X43843201Y-48204153D01*
X43838390Y-48160001D01*
X43839794Y-48135759D01*
X43853897Y-48109879D01*
X43872833Y-48090687D01*
X43897191Y-48077263D01*
X43919729Y-48079647D01*
X43944818Y-48087277D01*
X43979806Y-48162260D01*
X43997418Y-48190175D01*
X44017603Y-48210131D01*
X44392821Y-48210131D01*
X44409613Y-48204209D01*
X44409613Y-48179174D01*
X43867821Y-47484791D01*
X43851944Y-47438700D01*
X43846816Y-47393689D01*
X43853792Y-47342264D01*
X43874110Y-47298312D01*
X43894836Y-47273750D01*
X43922186Y-47253349D01*
X43957397Y-47237068D01*
X44376029Y-47237068D01*
X44417978Y-47243479D01*
X44455774Y-47251295D01*
X44497594Y-47282888D01*
X44530696Y-47323774D01*
X44552308Y-47370983D01*
X44559394Y-47420433D01*
X44555934Y-47454045D01*
X44545412Y-47487295D01*
X44519522Y-47504331D01*
X44496380Y-47508605D01*
G37*
G36*
X45330164Y-48107549D02*
G01*
X45328027Y-48163847D01*
X45324546Y-48210131D01*
X45307219Y-48237990D01*
X45284674Y-48266429D01*
X45232161Y-48318392D01*
X45152355Y-48346907D01*
X44939558Y-48346907D01*
X44901162Y-48336520D01*
X44866145Y-48318675D01*
X44833862Y-48292869D01*
X44792790Y-48244670D01*
X44758941Y-48186073D01*
X44758941Y-47655212D01*
X44632973Y-47655212D01*
X44615250Y-47625158D01*
X44609159Y-47588167D01*
X44612526Y-47561194D01*
X44622252Y-47538275D01*
X44638529Y-47518436D01*
X44761750Y-47518436D01*
X44761750Y-47316080D01*
X44771692Y-47302083D01*
X44784831Y-47290435D01*
X44800203Y-47282604D01*
X44816338Y-47280055D01*
X44856943Y-47282802D01*
X44879424Y-47299469D01*
X44893336Y-47316080D01*
X44893336Y-47518436D01*
X45202791Y-47518436D01*
X45227948Y-47528022D01*
X45251762Y-47551286D01*
X45255975Y-47585480D01*
X45253341Y-47609973D01*
X45246144Y-47628528D01*
X45233435Y-47643288D01*
X45212561Y-47655212D01*
X44893336Y-47655212D01*
X44893336Y-48135149D01*
X44905452Y-48161718D01*
X44925515Y-48185158D01*
X44943039Y-48194500D01*
X44968929Y-48202316D01*
X45149546Y-48202316D01*
X45173263Y-48181706D01*
X45203463Y-48138568D01*
X45243336Y-48077813D01*
X45268554Y-48073355D01*
X45291156Y-48077011D01*
X45311415Y-48088011D01*
X45330164Y-48107549D01*
G37*
G36*
X46020166Y-47558429D02*
G01*
X46054467Y-47581094D01*
X46083897Y-47610149D01*
X46118143Y-47662962D01*
X46141294Y-47727630D01*
X46141294Y-48289205D01*
X46141193Y-48309448D01*
X46131464Y-48335672D01*
X46114672Y-48342694D01*
X46097880Y-48346907D01*
X46083897Y-48345930D01*
X46070013Y-48343724D01*
X46046101Y-48335001D01*
X46005495Y-48284381D01*
X45974847Y-48316078D01*
X45942881Y-48336364D01*
X45908897Y-48346907D01*
X45603716Y-48346907D01*
X45562838Y-48335200D01*
X45526700Y-48315515D01*
X45494478Y-48287373D01*
X45468672Y-48253206D01*
X45451043Y-48215245D01*
X45441294Y-48172640D01*
X45441294Y-48043252D01*
X45575689Y-48043252D01*
X45575689Y-48136431D01*
X45579694Y-48160117D01*
X45591076Y-48177952D01*
X45608635Y-48191547D01*
X45633086Y-48202316D01*
X45956525Y-48202316D01*
X45980088Y-48191482D01*
X45999028Y-48174190D01*
X46013922Y-48149315D01*
X46013922Y-48051862D01*
X46006575Y-48027751D01*
X45997130Y-48010280D01*
X45982558Y-47998651D01*
X45960738Y-47987382D01*
X45641512Y-47987382D01*
X45610791Y-48000574D01*
X45589452Y-48019061D01*
X45575689Y-48043252D01*
X45441294Y-48043252D01*
X45441294Y-48028109D01*
X45447584Y-47980665D01*
X45466512Y-47928947D01*
X45508522Y-47887853D01*
X45528343Y-47873924D01*
X45553280Y-47862330D01*
X45997130Y-47862330D01*
X45997130Y-47741368D01*
X45983742Y-47719417D01*
X45966355Y-47701984D01*
X45945569Y-47690305D01*
X45922941Y-47686475D01*
X45633086Y-47686475D01*
X45610852Y-47674506D01*
X45594618Y-47655578D01*
X45584650Y-47632128D01*
X45581307Y-47606485D01*
X45586924Y-47571375D01*
X45609724Y-47553436D01*
X45635895Y-47541883D01*
X45980277Y-47541883D01*
X46020166Y-47558429D01*
G37*
G36*
X46958775Y-48107549D02*
G01*
X46956638Y-48163847D01*
X46953158Y-48210131D01*
X46935831Y-48237990D01*
X46913285Y-48266429D01*
X46860773Y-48318392D01*
X46780966Y-48346907D01*
X46568170Y-48346907D01*
X46529773Y-48336520D01*
X46494757Y-48318675D01*
X46462474Y-48292869D01*
X46421401Y-48244670D01*
X46387552Y-48186073D01*
X46387552Y-47655212D01*
X46261584Y-47655212D01*
X46243861Y-47625158D01*
X46237770Y-47588167D01*
X46241137Y-47561194D01*
X46250864Y-47538275D01*
X46267140Y-47518436D01*
X46390361Y-47518436D01*
X46390361Y-47316080D01*
X46400303Y-47302083D01*
X46413442Y-47290435D01*
X46428815Y-47282604D01*
X46444949Y-47280055D01*
X46485555Y-47282802D01*
X46508035Y-47299469D01*
X46521947Y-47316080D01*
X46521947Y-47518436D01*
X46831403Y-47518436D01*
X46856560Y-47528022D01*
X46880373Y-47551286D01*
X46884586Y-47585480D01*
X46881953Y-47609973D01*
X46874756Y-47628528D01*
X46862046Y-47643288D01*
X46841172Y-47655212D01*
X46521947Y-47655212D01*
X46521947Y-48135149D01*
X46534063Y-48161718D01*
X46554126Y-48185158D01*
X46571650Y-48194500D01*
X46597540Y-48202316D01*
X46778158Y-48202316D01*
X46801874Y-48181706D01*
X46832074Y-48138568D01*
X46871947Y-48077813D01*
X46897165Y-48073355D01*
X46919767Y-48077011D01*
X46940026Y-48088011D01*
X46958775Y-48107549D01*
G37*
G36*
X47417097Y-47365845D02*
G01*
X47400977Y-47379095D01*
X47384918Y-47389475D01*
X47256141Y-47389475D01*
X47237212Y-47379095D01*
X47218344Y-47363097D01*
X47218344Y-47207576D01*
X47239056Y-47188672D01*
X47258950Y-47178450D01*
X47382109Y-47178450D01*
X47400977Y-47194448D01*
X47417097Y-47210384D01*
X47417097Y-47365845D01*
G37*
G36*
X47671903Y-48254767D02*
G01*
X47673308Y-48271558D01*
X47667865Y-48303888D01*
X47652379Y-48328356D01*
X47625680Y-48346907D01*
X47132920Y-48346907D01*
X47109862Y-48330097D01*
X47096788Y-48309575D01*
X47092315Y-48284076D01*
X47096720Y-48256336D01*
X47109841Y-48232042D01*
X47132920Y-48210131D01*
X47295342Y-48210131D01*
X47295342Y-47690383D01*
X47120342Y-47690383D01*
X47099276Y-47676949D01*
X47075523Y-47655028D01*
X47072714Y-47625353D01*
X47079004Y-47587190D01*
X47087042Y-47570330D01*
X47097933Y-47557515D01*
X47410075Y-47557515D01*
X47435293Y-47572352D01*
X47453489Y-47588533D01*
X47453489Y-48210131D01*
X47622933Y-48210131D01*
X47650242Y-48227289D01*
X47671903Y-48254767D01*
G37*
G36*
X48330077Y-47540418D02*
G01*
X48396572Y-47558003D01*
X48480591Y-47618453D01*
X48532371Y-47690138D01*
X48560398Y-47813908D01*
X48560398Y-48102237D01*
X48543283Y-48155980D01*
X48515813Y-48206118D01*
X48477111Y-48253362D01*
X48430986Y-48293678D01*
X48380554Y-48324682D01*
X48325192Y-48346907D01*
X48073194Y-48346907D01*
X48001814Y-48327124D01*
X47947203Y-48287495D01*
X47901675Y-48239685D01*
X47866613Y-48184098D01*
X47843606Y-48121105D01*
X47843606Y-47783989D01*
X47980809Y-47783989D01*
X47983618Y-47954714D01*
X47989236Y-48107122D01*
X48029841Y-48170320D01*
X48104030Y-48198408D01*
X48325253Y-48198408D01*
X48356258Y-48180910D01*
X48381917Y-48156764D01*
X48402099Y-48126815D01*
X48417638Y-48089659D01*
X48412020Y-47773303D01*
X48357432Y-47718226D01*
X48307728Y-47694901D01*
X48239829Y-47678659D01*
X48067638Y-47692703D01*
X48040133Y-47705933D01*
X48015797Y-47726408D01*
X47996048Y-47752409D01*
X47980809Y-47783989D01*
X47843606Y-47783989D01*
X47843606Y-47734468D01*
X47869488Y-47684828D01*
X47901675Y-47641351D01*
X47940384Y-47601692D01*
X47989175Y-47560873D01*
X48050785Y-47534067D01*
X48161366Y-47534067D01*
X48273412Y-47534067D01*
X48330077Y-47540418D01*
G37*
G36*
X49335747Y-48299158D02*
G01*
X49322228Y-48327995D01*
X49297950Y-48350937D01*
X49268519Y-48353746D01*
X49237744Y-48350937D01*
X49205504Y-48322239D01*
X49193530Y-48306117D01*
X49188712Y-48287862D01*
X49188712Y-47731599D01*
X49139742Y-47696550D01*
X49094190Y-47686780D01*
X49048700Y-47682567D01*
X49012980Y-47695267D01*
X48980129Y-47710716D01*
X48775759Y-47842973D01*
X48775759Y-48301661D01*
X48763119Y-48320712D01*
X48740771Y-48342511D01*
X48718406Y-48351111D01*
X48698761Y-48353746D01*
X48680354Y-48351166D01*
X48658156Y-48342511D01*
X48641364Y-48313751D01*
X48635747Y-48296166D01*
X48635747Y-47618026D01*
X48638068Y-47601315D01*
X48646921Y-47574489D01*
X48672584Y-47553377D01*
X48704379Y-47546401D01*
X48727137Y-47550322D01*
X48749136Y-47562521D01*
X48766246Y-47581144D01*
X48775759Y-47605203D01*
X48775759Y-47675178D01*
X48870952Y-47621872D01*
X48970359Y-47560140D01*
X49010232Y-47548905D01*
X49054379Y-47541883D01*
X49119370Y-47547185D01*
X49179936Y-47562808D01*
X49237011Y-47588778D01*
X49275184Y-47615543D01*
X49303700Y-47646802D01*
X49323764Y-47683026D01*
X49335747Y-47725248D01*
X49335747Y-48299158D01*
G37*
G36*
X28449014Y-49423811D02*
G01*
X28182973Y-49982394D01*
X28163981Y-50002390D01*
X28140963Y-50016161D01*
X28115167Y-50024205D01*
X28087779Y-50026907D01*
X28049642Y-50022437D01*
X28013590Y-50009017D01*
X27740588Y-49415384D01*
X27740588Y-49234095D01*
X27774171Y-49195749D01*
X27791742Y-49186066D01*
X27809220Y-49186712D01*
X27836372Y-49193800D01*
X27857907Y-49209168D01*
X27874982Y-49234095D01*
X27874982Y-49399814D01*
X28104571Y-49851358D01*
X28314620Y-49394868D01*
X28314620Y-49233484D01*
X28335482Y-49211969D01*
X28358481Y-49199731D01*
X28384595Y-49195627D01*
X28411123Y-49200142D01*
X28435031Y-49213823D01*
X28449014Y-49234828D01*
X28449014Y-49423811D01*
G37*
G36*
X29145412Y-49559610D02*
G01*
X29148220Y-49591728D01*
X29145783Y-49620656D01*
X29138451Y-49648942D01*
X29102058Y-49671290D01*
X29075436Y-49671290D01*
X29075436Y-49994423D01*
X29062796Y-50009994D01*
X29050218Y-50021290D01*
X29032022Y-50025503D01*
X29013826Y-50026907D01*
X28988132Y-50023211D01*
X28963189Y-50011857D01*
X28938233Y-49991614D01*
X28938233Y-49671290D01*
X28511235Y-49671290D01*
X28511235Y-48988387D01*
X28509831Y-48964573D01*
X28511235Y-48949186D01*
X28532018Y-48939815D01*
X28556054Y-48936607D01*
X28602277Y-48942225D01*
X28621262Y-48955629D01*
X28631647Y-48971595D01*
X28631647Y-49534514D01*
X28938233Y-49534514D01*
X28938233Y-49096098D01*
X28949220Y-49076506D01*
X28966259Y-49058362D01*
X28998438Y-49052806D01*
X29033426Y-49052806D01*
X29057179Y-49070269D01*
X29069818Y-49096098D01*
X29069818Y-49534514D01*
X29116041Y-49534514D01*
X29145412Y-49559610D01*
G37*
G36*
X29648552Y-49977509D02*
G01*
X29633103Y-50002911D01*
X29602329Y-50026907D01*
X29479169Y-50026907D01*
X29462876Y-50024196D01*
X29446258Y-50015611D01*
X29432147Y-50002608D01*
X29421772Y-49985997D01*
X29421772Y-49803853D01*
X29432186Y-49786253D01*
X29445586Y-49774238D01*
X29484787Y-49757263D01*
X29588346Y-49757263D01*
X29612197Y-49769471D01*
X29632123Y-49787535D01*
X29648552Y-49812340D01*
X29648552Y-49977509D01*
G37*
G36*
X30590474Y-49916937D02*
G01*
X30571730Y-49964620D01*
X30540099Y-50007185D01*
X30521729Y-50014114D01*
X30505050Y-50026907D01*
X29957641Y-50026907D01*
X29923997Y-50013718D01*
X29893222Y-49994851D01*
X29878652Y-49960852D01*
X29873622Y-49921028D01*
X29876430Y-49895932D01*
X29891450Y-49880816D01*
X29914227Y-49866684D01*
X30456080Y-49866684D01*
X30456080Y-49546237D01*
X30009421Y-49546237D01*
X30009421Y-48973244D01*
X30036932Y-48947816D01*
X30072435Y-48932699D01*
X30545656Y-48932699D01*
X30562032Y-48950706D01*
X30571697Y-48971498D01*
X30575026Y-48996019D01*
X30568914Y-49029637D01*
X30551748Y-49053325D01*
X30521842Y-49069475D01*
X30149433Y-49069475D01*
X30149433Y-49409461D01*
X30502242Y-49409461D01*
X30530271Y-49417757D01*
X30556891Y-49434863D01*
X30577978Y-49474243D01*
X30590474Y-49515219D01*
X30590474Y-49916937D01*
G37*
G36*
X31021197Y-49977509D02*
G01*
X31005748Y-50002911D01*
X30974974Y-50026907D01*
X30851814Y-50026907D01*
X30835521Y-50024196D01*
X30818903Y-50015611D01*
X30804792Y-50002608D01*
X30794417Y-49985997D01*
X30794417Y-49803853D01*
X30804830Y-49786253D01*
X30818231Y-49774238D01*
X30857432Y-49757263D01*
X30960991Y-49757263D01*
X30984842Y-49769471D01*
X31004767Y-49787535D01*
X31021197Y-49812340D01*
X31021197Y-49977509D01*
G37*
G36*
X31965867Y-49953512D02*
G01*
X31965134Y-49972624D01*
X31960249Y-49997293D01*
X31934360Y-50014207D01*
X31915431Y-50024099D01*
X31853149Y-50025503D01*
X31753070Y-50026907D01*
X31473779Y-50026175D01*
X31254693Y-50022694D01*
X31254693Y-49499831D01*
X31272114Y-49454118D01*
X31298107Y-49417155D01*
X31349566Y-49396105D01*
X31410092Y-49382106D01*
X31814681Y-49382106D01*
X31814681Y-49049936D01*
X31275698Y-49049936D01*
X31246327Y-49018734D01*
X31240710Y-48996080D01*
X31239306Y-48981914D01*
X31245651Y-48950924D01*
X31264463Y-48926593D01*
X31292649Y-48910945D01*
X31330286Y-48905344D01*
X31852538Y-48905344D01*
X31893818Y-48929880D01*
X31922514Y-48954559D01*
X31944143Y-48984329D01*
X31960310Y-49023375D01*
X31960310Y-49415384D01*
X31944754Y-49449464D01*
X31922976Y-49477550D01*
X31894487Y-49500442D01*
X31861672Y-49517143D01*
X31826439Y-49527187D01*
X31788119Y-49530606D01*
X31404475Y-49530606D01*
X31404475Y-49874500D01*
X31932284Y-49874500D01*
X31953343Y-49894358D01*
X31964916Y-49914789D01*
X31968676Y-49936599D01*
X31965867Y-49953512D01*
G37*
G36*
X33585685Y-49953512D02*
G01*
X33584953Y-49972624D01*
X33580068Y-49997293D01*
X33554178Y-50014207D01*
X33535249Y-50024099D01*
X33472967Y-50025503D01*
X33372889Y-50026907D01*
X33093597Y-50026175D01*
X32874511Y-50022694D01*
X32874511Y-49499831D01*
X32891933Y-49454118D01*
X32917926Y-49417155D01*
X32969385Y-49396105D01*
X33029911Y-49382106D01*
X33434499Y-49382106D01*
X33434499Y-49049936D01*
X32895516Y-49049936D01*
X32866146Y-49018734D01*
X32860528Y-48996080D01*
X32859124Y-48981914D01*
X32865470Y-48950924D01*
X32884281Y-48926593D01*
X32912467Y-48910945D01*
X32950105Y-48905344D01*
X33472357Y-48905344D01*
X33513637Y-48929880D01*
X33542332Y-48954559D01*
X33563961Y-48984329D01*
X33580129Y-49023375D01*
X33580129Y-49415384D01*
X33564572Y-49449464D01*
X33542794Y-49477550D01*
X33514306Y-49500442D01*
X33481490Y-49517143D01*
X33446257Y-49527187D01*
X33407938Y-49530606D01*
X33024293Y-49530606D01*
X33024293Y-49874500D01*
X33552102Y-49874500D01*
X33573162Y-49894358D01*
X33584735Y-49914789D01*
X33588494Y-49936599D01*
X33585685Y-49953512D01*
G37*
G36*
X34316802Y-48959195D02*
G01*
X34363233Y-49001515D01*
X34363233Y-49946857D01*
X34289044Y-50026907D01*
X33764044Y-50026907D01*
X33727645Y-50004171D01*
X33704510Y-49986180D01*
X33685726Y-49966153D01*
X33668850Y-49941239D01*
X33668850Y-49890131D01*
X33803245Y-49890131D01*
X34227434Y-49890131D01*
X34227434Y-49077291D01*
X33803245Y-49077291D01*
X33803245Y-49890131D01*
X33668850Y-49890131D01*
X33668850Y-49033816D01*
X33673073Y-49004986D01*
X33686314Y-48975564D01*
X33706178Y-48950021D01*
X33729056Y-48932699D01*
X34273657Y-48932699D01*
X34316802Y-48959195D01*
G37*
G36*
X35337395Y-49953512D02*
G01*
X35336662Y-49972624D01*
X35331778Y-49997293D01*
X35305888Y-50014207D01*
X35286959Y-50024099D01*
X35224677Y-50025503D01*
X35124599Y-50026907D01*
X34845307Y-50026175D01*
X34626221Y-50022694D01*
X34626221Y-49499831D01*
X34643643Y-49454118D01*
X34669635Y-49417155D01*
X34721095Y-49396105D01*
X34781621Y-49382106D01*
X35186209Y-49382106D01*
X35186209Y-49049936D01*
X34647226Y-49049936D01*
X34617856Y-49018734D01*
X34612238Y-48996080D01*
X34610834Y-48981914D01*
X34617179Y-48950924D01*
X34635991Y-48926593D01*
X34664177Y-48910945D01*
X34701814Y-48905344D01*
X35224066Y-48905344D01*
X35265346Y-48929880D01*
X35294042Y-48954559D01*
X35315671Y-48984329D01*
X35331839Y-49023375D01*
X35331839Y-49415384D01*
X35316282Y-49449464D01*
X35294504Y-49477550D01*
X35266015Y-49500442D01*
X35233200Y-49517143D01*
X35197967Y-49527187D01*
X35159647Y-49530606D01*
X34776003Y-49530606D01*
X34776003Y-49874500D01*
X35303812Y-49874500D01*
X35324872Y-49894358D01*
X35336445Y-49914789D01*
X35340204Y-49936599D01*
X35337395Y-49953512D01*
G37*
G36*
X35552878Y-48926471D02*
G01*
X35592812Y-48931539D01*
X35610275Y-48944545D01*
X35626396Y-48973427D01*
X35622169Y-49011467D01*
X35609543Y-49047188D01*
X35597314Y-49049432D01*
X35575959Y-49058423D01*
X35566063Y-49073785D01*
X35563381Y-49085046D01*
X35563381Y-49526698D01*
X36065972Y-49526698D01*
X36086244Y-49530911D01*
X36112195Y-49539215D01*
X36142969Y-49572677D01*
X36140160Y-49998697D01*
X36109386Y-50026907D01*
X35463974Y-50026907D01*
X35423369Y-49988989D01*
X35423369Y-49693088D01*
X35575959Y-49693088D01*
X35575959Y-49880056D01*
X35590701Y-49899631D01*
X35610947Y-49905763D01*
X35623587Y-49905763D01*
X35980548Y-49905763D01*
X35993123Y-49895737D01*
X36002957Y-49882804D01*
X36002957Y-49687471D01*
X35983356Y-49673122D01*
X35956734Y-49667382D01*
X35629143Y-49667382D01*
X35598369Y-49673122D01*
X35575959Y-49693088D01*
X35423369Y-49693088D01*
X35423369Y-48981548D01*
X35438244Y-48951178D01*
X35459990Y-48934154D01*
X35490596Y-48928181D01*
X35503175Y-48929585D01*
X35503175Y-48917068D01*
X35552878Y-48926471D01*
G37*
G36*
X36834115Y-49559366D02*
G01*
X36853604Y-49565581D01*
X36867699Y-49581592D01*
X36876026Y-49603536D01*
X36878934Y-49629524D01*
X36875523Y-49656875D01*
X36865623Y-49680388D01*
X36849485Y-49697140D01*
X36828559Y-49702553D01*
X36314672Y-49702553D01*
X36290941Y-49695412D01*
X36274066Y-49680388D01*
X36263646Y-49659644D01*
X36260084Y-49635264D01*
X36267777Y-49595941D01*
X36283836Y-49567975D01*
X36300881Y-49562656D01*
X36373473Y-49559366D01*
X36516294Y-49557961D01*
X36696912Y-49557961D01*
X36834115Y-49559366D01*
G37*
G36*
X37719594Y-48959195D02*
G01*
X37766024Y-49001515D01*
X37766024Y-49946857D01*
X37691835Y-50026907D01*
X37166835Y-50026907D01*
X37130436Y-50004171D01*
X37107301Y-49986180D01*
X37088518Y-49966153D01*
X37071642Y-49941239D01*
X37071642Y-49890131D01*
X37206036Y-49890131D01*
X37630225Y-49890131D01*
X37630225Y-49077291D01*
X37206036Y-49077291D01*
X37206036Y-49890131D01*
X37071642Y-49890131D01*
X37071642Y-49033816D01*
X37075865Y-49004986D01*
X37089105Y-48975564D01*
X37108970Y-48950021D01*
X37131847Y-48932699D01*
X37676448Y-48932699D01*
X37719594Y-48959195D01*
G37*
G36*
X38740187Y-49953512D02*
G01*
X38739454Y-49972624D01*
X38734569Y-49997293D01*
X38708679Y-50014207D01*
X38689750Y-50024099D01*
X38627468Y-50025503D01*
X38527390Y-50026907D01*
X38248098Y-50026175D01*
X38029012Y-50022694D01*
X38029012Y-49499831D01*
X38046434Y-49454118D01*
X38072427Y-49417155D01*
X38123886Y-49396105D01*
X38184412Y-49382106D01*
X38589000Y-49382106D01*
X38589000Y-49049936D01*
X38050017Y-49049936D01*
X38020647Y-49018734D01*
X38015030Y-48996080D01*
X38013625Y-48981914D01*
X38019971Y-48950924D01*
X38038782Y-48926593D01*
X38066968Y-48910945D01*
X38104606Y-48905344D01*
X38626858Y-48905344D01*
X38668138Y-48929880D01*
X38696833Y-48954559D01*
X38718463Y-48984329D01*
X38734630Y-49023375D01*
X38734630Y-49415384D01*
X38719073Y-49449464D01*
X38697295Y-49477550D01*
X38668807Y-49500442D01*
X38635991Y-49517143D01*
X38600758Y-49527187D01*
X38562439Y-49530606D01*
X38178794Y-49530606D01*
X38178794Y-49874500D01*
X38706603Y-49874500D01*
X38727663Y-49894358D01*
X38739236Y-49914789D01*
X38742995Y-49936599D01*
X38740187Y-49953512D01*
G37*
G36*
X39411366Y-49559366D02*
G01*
X39430855Y-49565581D01*
X39444949Y-49581592D01*
X39453276Y-49603536D01*
X39456184Y-49629524D01*
X39452773Y-49656875D01*
X39442873Y-49680388D01*
X39426736Y-49697140D01*
X39405809Y-49702553D01*
X38891922Y-49702553D01*
X38868191Y-49695412D01*
X38851317Y-49680388D01*
X38840897Y-49659644D01*
X38837334Y-49635264D01*
X38845028Y-49595941D01*
X38861087Y-49567975D01*
X38878132Y-49562656D01*
X38950724Y-49559366D01*
X39093545Y-49557961D01*
X39274162Y-49557961D01*
X39411366Y-49559366D01*
G37*
G36*
X40296844Y-48959195D02*
G01*
X40343274Y-49001515D01*
X40343274Y-49946857D01*
X40269086Y-50026907D01*
X39744086Y-50026907D01*
X39707687Y-50004171D01*
X39684551Y-49986180D01*
X39665768Y-49966153D01*
X39648892Y-49941239D01*
X39648892Y-49890131D01*
X39783287Y-49890131D01*
X40207475Y-49890131D01*
X40207475Y-49077291D01*
X39783287Y-49077291D01*
X39783287Y-49890131D01*
X39648892Y-49890131D01*
X39648892Y-49033816D01*
X39653115Y-49004986D01*
X39666355Y-48975564D01*
X39686220Y-48950021D01*
X39709098Y-48932699D01*
X40253698Y-48932699D01*
X40296844Y-48959195D01*
G37*
G36*
X41317437Y-49953512D02*
G01*
X41316704Y-49972624D01*
X41311819Y-49997293D01*
X41285930Y-50014207D01*
X41267001Y-50024099D01*
X41204719Y-50025503D01*
X41104640Y-50026907D01*
X40825349Y-50026175D01*
X40606263Y-50022694D01*
X40606263Y-49499831D01*
X40623685Y-49454118D01*
X40649677Y-49417155D01*
X40701137Y-49396105D01*
X40761662Y-49382106D01*
X41166251Y-49382106D01*
X41166251Y-49049936D01*
X40627268Y-49049936D01*
X40597898Y-49018734D01*
X40592280Y-48996080D01*
X40590876Y-48981914D01*
X40597221Y-48950924D01*
X40616033Y-48926593D01*
X40644219Y-48910945D01*
X40681856Y-48905344D01*
X41204108Y-48905344D01*
X41245388Y-48929880D01*
X41274084Y-48954559D01*
X41295713Y-48984329D01*
X41311881Y-49023375D01*
X41311881Y-49415384D01*
X41296324Y-49449464D01*
X41274546Y-49477550D01*
X41246057Y-49500442D01*
X41213242Y-49517143D01*
X41178009Y-49527187D01*
X41139689Y-49530606D01*
X40756045Y-49530606D01*
X40756045Y-49874500D01*
X41283854Y-49874500D01*
X41304913Y-49894358D01*
X41316487Y-49914789D01*
X41320246Y-49936599D01*
X41317437Y-49953512D01*
G37*
D13*
G36*
X28636324Y-18112217D02*
G01*
X28681219Y-18125166D01*
X28708644Y-18143250D01*
X28727315Y-18170175D01*
X28740416Y-18212849D01*
X28745586Y-18277705D01*
X28745586Y-18658358D01*
X28740393Y-18724072D01*
X28727273Y-18767061D01*
X28708644Y-18793974D01*
X28681236Y-18811958D01*
X28636345Y-18824845D01*
X28566495Y-18830000D01*
X28034656Y-18830000D01*
X27964764Y-18824846D01*
X27919830Y-18811959D01*
X27892385Y-18793974D01*
X27873790Y-18767067D01*
X27860690Y-18724079D01*
X27858255Y-18693224D01*
X28023665Y-18693224D01*
X28578096Y-18693224D01*
X28578096Y-18236001D01*
X28023665Y-18236001D01*
X28023665Y-18693224D01*
X27858255Y-18693224D01*
X27855504Y-18658358D01*
X27855504Y-18277705D01*
X27860667Y-18212843D01*
X27873748Y-18170169D01*
X27892385Y-18143250D01*
X27919848Y-18125165D01*
X27964784Y-18112217D01*
X28034656Y-18107041D01*
X28566495Y-18107041D01*
X28636324Y-18112217D01*
G37*
G36*
X29099616Y-18830000D02*
G01*
X29099616Y-18107041D01*
X29267777Y-18107041D01*
X29267777Y-18693224D01*
X29809874Y-18693224D01*
X29809874Y-18830000D01*
X29099616Y-18830000D01*
G37*
G36*
X30055094Y-18830000D02*
G01*
X30055094Y-18107041D01*
X30794722Y-18107041D01*
X30794722Y-18228185D01*
X30223255Y-18228185D01*
X30223255Y-18392316D01*
X30556830Y-18392316D01*
X30556830Y-18513461D01*
X30223255Y-18513461D01*
X30223255Y-18693224D01*
X30801561Y-18693224D01*
X30801561Y-18830000D01*
X30055094Y-18830000D01*
G37*
G36*
X31676310Y-18113757D02*
G01*
X31758753Y-18132418D01*
X31826474Y-18161423D01*
X31881969Y-18200097D01*
X31919653Y-18239368D01*
X31949095Y-18284407D01*
X31970669Y-18336041D01*
X31984193Y-18395441D01*
X31988948Y-18464063D01*
X31984134Y-18530529D01*
X31970131Y-18590978D01*
X31947243Y-18646390D01*
X31915407Y-18696874D01*
X31876388Y-18739113D01*
X31829640Y-18773885D01*
X31778640Y-18798609D01*
X31712404Y-18816688D01*
X31637434Y-18826293D01*
X31532946Y-18830000D01*
X31111200Y-18830000D01*
X31111200Y-18693224D01*
X31279361Y-18693224D01*
X31496737Y-18693224D01*
X31587346Y-18688855D01*
X31655693Y-18677255D01*
X31706242Y-18660297D01*
X31742812Y-18639246D01*
X31773148Y-18609636D01*
X31795567Y-18571484D01*
X31810022Y-18522810D01*
X31815291Y-18460826D01*
X31811007Y-18405556D01*
X31799083Y-18360354D01*
X31780409Y-18323341D01*
X31755146Y-18293093D01*
X31723679Y-18269397D01*
X31684706Y-18251621D01*
X31636622Y-18240149D01*
X31577399Y-18236001D01*
X31279361Y-18236001D01*
X31279361Y-18693224D01*
X31111200Y-18693224D01*
X31111200Y-18107041D01*
X31576055Y-18107041D01*
X31676310Y-18113757D01*
G37*
G36*
X33403595Y-18113757D02*
G01*
X33486039Y-18132418D01*
X33553759Y-18161423D01*
X33609255Y-18200097D01*
X33646939Y-18239368D01*
X33676381Y-18284407D01*
X33697954Y-18336041D01*
X33711479Y-18395441D01*
X33716233Y-18464063D01*
X33711419Y-18530529D01*
X33697416Y-18590978D01*
X33674529Y-18646390D01*
X33642693Y-18696874D01*
X33603674Y-18739113D01*
X33556926Y-18773885D01*
X33505926Y-18798609D01*
X33439689Y-18816688D01*
X33364719Y-18826293D01*
X33260232Y-18830000D01*
X32838486Y-18830000D01*
X32838486Y-18693224D01*
X33006647Y-18693224D01*
X33224023Y-18693224D01*
X33314631Y-18688855D01*
X33382978Y-18677255D01*
X33433528Y-18660297D01*
X33470098Y-18639246D01*
X33500434Y-18609636D01*
X33522853Y-18571484D01*
X33537307Y-18522810D01*
X33542577Y-18460826D01*
X33538292Y-18405556D01*
X33526368Y-18360354D01*
X33507694Y-18323341D01*
X33482432Y-18293093D01*
X33450964Y-18269397D01*
X33411992Y-18251621D01*
X33363907Y-18240149D01*
X33304684Y-18236001D01*
X33006647Y-18236001D01*
X33006647Y-18693224D01*
X32838486Y-18693224D01*
X32838486Y-18107041D01*
X33303341Y-18107041D01*
X33403595Y-18113757D01*
G37*
G36*
X33971894Y-18830000D02*
G01*
X33971894Y-18239909D01*
X34115448Y-18239909D01*
X34115448Y-18830000D01*
X33971894Y-18830000D01*
G37*
G36*
X34926151Y-18345422D02*
G01*
X34518754Y-18345422D01*
X34518754Y-18470474D01*
X34904292Y-18470474D01*
X34964876Y-18474648D01*
X35003446Y-18485015D01*
X35026657Y-18499295D01*
X35042566Y-18520963D01*
X35053702Y-18555627D01*
X35058103Y-18608715D01*
X35058103Y-18690903D01*
X35053633Y-18743960D01*
X35042283Y-18778825D01*
X35025986Y-18800812D01*
X35002365Y-18815354D01*
X34963881Y-18825816D01*
X34904292Y-18830000D01*
X34520098Y-18830000D01*
X34459093Y-18825796D01*
X34419899Y-18815314D01*
X34396022Y-18800812D01*
X34379520Y-18778790D01*
X34368051Y-18743919D01*
X34363538Y-18690903D01*
X34363538Y-18674356D01*
X34492071Y-18650237D01*
X34492071Y-18720579D01*
X34927495Y-18720579D01*
X34927495Y-18583803D01*
X34544033Y-18583803D01*
X34483531Y-18579563D01*
X34444646Y-18568981D01*
X34420935Y-18554310D01*
X34404601Y-18532156D01*
X34393267Y-18497354D01*
X34388817Y-18444767D01*
X34388817Y-18378394D01*
X34393255Y-18326236D01*
X34404579Y-18291604D01*
X34420935Y-18269462D01*
X34444652Y-18254759D01*
X34483538Y-18244157D01*
X34544033Y-18239909D01*
X34895377Y-18239909D01*
X34955054Y-18243943D01*
X34993957Y-18254058D01*
X35018109Y-18268119D01*
X35035299Y-18289394D01*
X35046835Y-18321216D01*
X35051265Y-18367587D01*
X35051265Y-18381753D01*
X34926151Y-18407948D01*
X34926151Y-18345422D01*
G37*
G36*
X35889353Y-18243559D02*
G01*
X35923543Y-18253041D01*
X35946903Y-18266837D01*
X35964111Y-18287089D01*
X35975237Y-18315359D01*
X35979387Y-18354398D01*
X35979387Y-18484945D01*
X35975199Y-18523949D01*
X35963958Y-18552223D01*
X35946537Y-18572506D01*
X35923000Y-18586336D01*
X35888882Y-18595802D01*
X35840596Y-18599434D01*
X35449564Y-18599434D01*
X35449564Y-18830000D01*
X35307414Y-18830000D01*
X35307414Y-18497829D01*
X35449564Y-18497829D01*
X35779047Y-18497829D01*
X35813307Y-18494533D01*
X35830644Y-18486960D01*
X35840811Y-18473274D01*
X35844688Y-18450263D01*
X35844688Y-18389080D01*
X35840811Y-18366070D01*
X35830644Y-18352383D01*
X35813307Y-18344810D01*
X35779047Y-18341514D01*
X35449564Y-18341514D01*
X35449564Y-18497829D01*
X35307414Y-18497829D01*
X35307414Y-18239909D01*
X35840596Y-18239909D01*
X35889353Y-18243559D01*
G37*
G36*
X36185712Y-18830000D02*
G01*
X36185712Y-18239909D01*
X36331280Y-18239909D01*
X36331280Y-18720579D01*
X36795464Y-18720579D01*
X36795464Y-18830000D01*
X36185712Y-18830000D01*
G37*
G36*
X37714244Y-18830000D02*
G01*
X37552250Y-18830000D01*
X37477695Y-18701039D01*
X37085991Y-18701039D01*
X37011497Y-18830000D01*
X36867271Y-18830000D01*
X37009205Y-18591618D01*
X37147540Y-18591618D01*
X37418955Y-18591618D01*
X37280836Y-18346521D01*
X37147540Y-18591618D01*
X37009205Y-18591618D01*
X37218615Y-18239909D01*
X37357406Y-18239909D01*
X37714244Y-18830000D01*
G37*
G36*
X38046659Y-18830000D02*
G01*
X38046659Y-18564935D01*
X37723281Y-18239909D01*
X37918126Y-18239909D01*
X38129335Y-18459972D01*
X38343292Y-18239909D01*
X38512857Y-18239909D01*
X38190884Y-18562187D01*
X38190884Y-18830000D01*
X38046659Y-18830000D01*
G37*
D10*
G36*
X53913024Y-15955197D02*
G01*
X52915048Y-15955197D01*
X52915048Y-15132196D01*
X53913024Y-15132196D01*
X53913024Y-15955197D01*
G37*
G36*
X54415714Y-16387325D02*
G01*
X50249343Y-16387325D01*
X50249343Y-16187325D01*
X50449343Y-16187325D01*
X50721259Y-16187325D01*
X50721259Y-15504019D01*
X50718841Y-15433787D01*
X50708949Y-15278705D01*
X50774235Y-15348278D01*
X50856667Y-15420269D01*
X51772101Y-16187325D01*
X51978841Y-16187325D01*
X51978841Y-15194954D01*
X52613567Y-15194954D01*
X52613567Y-15880129D01*
X52619551Y-15955197D01*
X52622873Y-15996870D01*
X52646455Y-16073684D01*
X52680062Y-16122149D01*
X52729428Y-16154700D01*
X52810238Y-16178007D01*
X52935931Y-16187325D01*
X53893241Y-16187325D01*
X54019010Y-16178008D01*
X54099896Y-16154702D01*
X54149329Y-16122149D01*
X54182876Y-16073694D01*
X54206421Y-15996882D01*
X54215714Y-15880129D01*
X54215714Y-15194954D01*
X54206380Y-15076657D01*
X54182800Y-14999279D01*
X54149329Y-14950846D01*
X54099928Y-14918472D01*
X54019046Y-14895276D01*
X53893241Y-14886000D01*
X52935931Y-14886000D01*
X52810201Y-14895277D01*
X52729396Y-14918474D01*
X52680062Y-14950846D01*
X52646531Y-14999289D01*
X52622914Y-15076669D01*
X52613567Y-15194954D01*
X51978841Y-15194954D01*
X51978841Y-14886000D01*
X51706815Y-14886000D01*
X51706815Y-15588979D01*
X51709893Y-15681853D01*
X51719125Y-15795829D01*
X51671205Y-15745380D01*
X51610864Y-15689986D01*
X50656082Y-14886000D01*
X50449343Y-14886000D01*
X50449343Y-16187325D01*
X50249343Y-16187325D01*
X50249343Y-14686000D01*
X54415714Y-14686000D01*
X54415714Y-16387325D01*
G37*
G36*
X17826659Y-49226526D02*
G01*
X17866515Y-49238266D01*
X17894180Y-49255563D01*
X17914454Y-49280538D01*
X17927578Y-49315051D01*
X17932465Y-49362297D01*
X17932465Y-49452301D01*
X17928655Y-49485705D01*
X17917874Y-49513032D01*
X17900286Y-49535648D01*
X17877086Y-49553068D01*
X17846902Y-49566161D01*
X17808023Y-49574422D01*
X17847941Y-49583471D01*
X17879414Y-49598306D01*
X17904072Y-49618569D01*
X17922577Y-49644350D01*
X17933950Y-49675110D01*
X17937960Y-49712236D01*
X17937960Y-49804438D01*
X17931734Y-49849154D01*
X17914265Y-49883621D01*
X17885326Y-49910378D01*
X17848412Y-49928178D01*
X17796590Y-49940362D01*
X17725347Y-49945000D01*
X17151132Y-49945000D01*
X17151132Y-49816039D01*
X17316546Y-49816039D01*
X17700068Y-49816039D01*
X17743452Y-49811661D01*
X17764670Y-49801690D01*
X17776637Y-49783562D01*
X17781401Y-49751193D01*
X17781401Y-49696543D01*
X17776621Y-49664185D01*
X17764670Y-49646352D01*
X17743493Y-49636645D01*
X17700068Y-49632369D01*
X17316546Y-49632369D01*
X17316546Y-49816039D01*
X17151132Y-49816039D01*
X17151132Y-49515132D01*
X17316546Y-49515132D01*
X17700068Y-49515132D01*
X17740039Y-49511539D01*
X17760518Y-49503286D01*
X17772697Y-49488012D01*
X17777310Y-49462070D01*
X17777310Y-49392339D01*
X17772737Y-49366924D01*
X17760518Y-49351489D01*
X17740003Y-49342973D01*
X17700068Y-49339277D01*
X17316546Y-49339277D01*
X17316546Y-49515132D01*
X17151132Y-49515132D01*
X17151132Y-49222041D01*
X17770471Y-49222041D01*
X17826659Y-49226526D01*
G37*
G36*
X18260544Y-49945000D02*
G01*
X18260544Y-49222041D01*
X18396587Y-49222041D01*
X18737001Y-49659724D01*
X19069904Y-49222041D01*
X19204604Y-49222041D01*
X19204604Y-49945000D01*
X19048777Y-49945000D01*
X19048777Y-49498768D01*
X19050487Y-49465917D01*
X19054883Y-49421343D01*
X19030947Y-49467566D01*
X19012507Y-49497363D01*
X18741092Y-49859026D01*
X18707631Y-49859026D01*
X18435544Y-49496020D01*
X18409899Y-49457308D01*
X18392496Y-49422015D01*
X18395549Y-49463108D01*
X18396587Y-49498768D01*
X18396587Y-49945000D01*
X18260544Y-49945000D01*
G37*
G36*
X19557413Y-49945000D02*
G01*
X19557413Y-49222041D01*
X20297041Y-49222041D01*
X20297041Y-49343185D01*
X19725574Y-49343185D01*
X19725574Y-49507316D01*
X20059148Y-49507316D01*
X20059148Y-49628461D01*
X19725574Y-49628461D01*
X19725574Y-49808224D01*
X20303880Y-49808224D01*
X20303880Y-49945000D01*
X19557413Y-49945000D01*
G37*
G36*
X20625120Y-49361564D02*
G01*
X20629726Y-49308998D01*
X20641498Y-49274075D01*
X20658581Y-49251716D01*
X20683243Y-49237075D01*
X20724574Y-49226367D01*
X20789862Y-49222041D01*
X21161050Y-49222041D01*
X21226332Y-49226359D01*
X21267793Y-49237062D01*
X21292636Y-49251716D01*
X21309925Y-49274110D01*
X21321816Y-49309039D01*
X21326464Y-49361564D01*
X21326464Y-49407909D01*
X21321911Y-49457338D01*
X21310405Y-49489181D01*
X21286983Y-49516464D01*
X21232857Y-49555982D01*
X20808302Y-49816039D01*
X21228034Y-49816039D01*
X21228034Y-49710526D01*
X21361329Y-49747712D01*
X21361329Y-49804560D01*
X21356678Y-49857428D01*
X21344783Y-49892593D01*
X21327502Y-49915141D01*
X21302641Y-49929893D01*
X21261179Y-49940657D01*
X21195916Y-49945000D01*
X20588239Y-49945000D01*
X20588239Y-49879848D01*
X20593783Y-49836059D01*
X20608390Y-49806697D01*
X20633491Y-49781720D01*
X20679831Y-49749056D01*
X21179490Y-49438440D01*
X21179490Y-49343185D01*
X20768002Y-49343185D01*
X20768002Y-49491685D01*
X20625120Y-49454926D01*
X20625120Y-49361564D01*
G37*
G36*
X22341349Y-49226375D02*
G01*
X22382811Y-49237119D01*
X22407666Y-49251838D01*
X22424950Y-49274309D01*
X22436844Y-49309356D01*
X22441493Y-49362053D01*
X22441493Y-49429159D01*
X22437580Y-49470526D01*
X22427007Y-49501545D01*
X22410719Y-49524658D01*
X22388024Y-49542219D01*
X22353339Y-49557939D01*
X22302702Y-49571003D01*
X22354956Y-49580784D01*
X22393098Y-49595674D01*
X22420305Y-49614661D01*
X22440585Y-49640184D01*
X22453315Y-49672900D01*
X22457918Y-49714984D01*
X22457918Y-49790760D01*
X22452675Y-49847942D01*
X22439152Y-49886514D01*
X22419267Y-49911721D01*
X22391208Y-49928468D01*
X22347342Y-49940324D01*
X22281514Y-49945000D01*
X21820078Y-49945000D01*
X21754724Y-49940373D01*
X21711192Y-49928644D01*
X21683363Y-49912088D01*
X21663728Y-49887116D01*
X21650305Y-49848490D01*
X21645078Y-49790760D01*
X21645078Y-49714984D01*
X21646878Y-49698620D01*
X21797547Y-49698620D01*
X21797547Y-49751193D01*
X21801526Y-49786727D01*
X21810553Y-49803400D01*
X21827810Y-49812110D01*
X21865935Y-49816039D01*
X22235719Y-49816039D01*
X22273298Y-49812137D01*
X22290734Y-49803400D01*
X22300028Y-49786682D01*
X22304107Y-49751193D01*
X22304107Y-49698620D01*
X22299940Y-49662468D01*
X22290429Y-49645375D01*
X22272719Y-49636342D01*
X22235719Y-49632369D01*
X21865935Y-49632369D01*
X21828934Y-49636342D01*
X21811224Y-49645375D01*
X21801713Y-49662468D01*
X21797547Y-49698620D01*
X21646878Y-49698620D01*
X21649658Y-49673348D01*
X21662369Y-49640721D01*
X21682692Y-49615027D01*
X21709905Y-49595774D01*
X21747642Y-49580781D01*
X21798890Y-49571003D01*
X21748709Y-49557568D01*
X21714090Y-49541643D01*
X21691240Y-49523986D01*
X21674745Y-49500824D01*
X21664090Y-49469997D01*
X21660160Y-49429159D01*
X21660160Y-49410963D01*
X21812568Y-49410963D01*
X21812568Y-49448026D01*
X21816874Y-49483831D01*
X21826917Y-49501516D01*
X21845339Y-49511004D01*
X21882971Y-49515132D01*
X22220026Y-49515132D01*
X22256993Y-49511106D01*
X22274981Y-49501882D01*
X22284769Y-49484410D01*
X22289025Y-49448026D01*
X22289025Y-49410963D01*
X22284749Y-49373995D01*
X22274981Y-49356496D01*
X22256986Y-49347227D01*
X22220026Y-49343185D01*
X21882971Y-49343185D01*
X21845339Y-49347313D01*
X21826917Y-49356802D01*
X21816892Y-49374564D01*
X21812568Y-49410963D01*
X21660160Y-49410963D01*
X21660160Y-49362053D01*
X21664810Y-49309356D01*
X21676703Y-49274309D01*
X21693988Y-49251838D01*
X21718843Y-49237119D01*
X21760304Y-49226375D01*
X21825574Y-49222041D01*
X22276080Y-49222041D01*
X22341349Y-49226375D01*
G37*
G36*
X23441051Y-49227061D02*
G01*
X23482504Y-49239716D01*
X23508285Y-49257639D01*
X23525629Y-49283971D01*
X23537949Y-49326327D01*
X23542845Y-49391362D01*
X23542845Y-49774762D01*
X23537947Y-49840182D01*
X23525622Y-49882791D01*
X23508285Y-49909279D01*
X23482492Y-49927269D01*
X23441038Y-49939965D01*
X23377371Y-49945000D01*
X22888641Y-49945000D01*
X22825489Y-49939979D01*
X22784213Y-49927296D01*
X22758398Y-49909279D01*
X22741094Y-49882797D01*
X22728790Y-49840189D01*
X22726985Y-49816039D01*
X22874963Y-49816039D01*
X23391048Y-49816039D01*
X23391048Y-49343185D01*
X22874963Y-49343185D01*
X22874963Y-49816039D01*
X22726985Y-49816039D01*
X22723899Y-49774762D01*
X22723899Y-49391362D01*
X22728787Y-49326320D01*
X22741088Y-49283965D01*
X22758398Y-49257639D01*
X22784201Y-49239690D01*
X22825475Y-49227047D01*
X22888641Y-49222041D01*
X23377371Y-49222041D01*
X23441051Y-49227061D01*
G37*
G36*
X38355987Y-1870037D02*
G01*
X30204010Y-1870037D01*
X30204010Y-1731148D01*
X30342899Y-1731148D01*
X30500006Y-1731148D01*
X30500006Y-1256630D01*
X30498609Y-1207858D01*
X30492894Y-1100162D01*
X30530614Y-1148476D01*
X30578242Y-1198470D01*
X31107159Y-1731148D01*
X31226609Y-1731148D01*
X31609088Y-1731148D01*
X31783976Y-1731148D01*
X32550840Y-1731148D01*
X32725029Y-1731148D01*
X33015048Y-1077951D01*
X33319355Y-1731148D01*
X33519136Y-1731148D01*
X33224798Y-1118862D01*
X33652111Y-1118862D01*
X33658396Y-1192823D01*
X33676147Y-1253898D01*
X33704800Y-1304809D01*
X33745270Y-1347229D01*
X33792231Y-1377832D01*
X33852414Y-1401725D01*
X33928746Y-1417579D01*
X34024621Y-1423402D01*
X34158676Y-1418288D01*
X34328928Y-1401344D01*
X34311909Y-1579717D01*
X33787246Y-1579717D01*
X33774418Y-1731148D01*
X34423484Y-1731148D01*
X34435873Y-1585900D01*
X35271695Y-1585900D01*
X35271695Y-1731148D01*
X36106381Y-1731148D01*
X36272632Y-1731148D01*
X36446821Y-1731148D01*
X36736840Y-1077951D01*
X37041147Y-1731148D01*
X37240928Y-1731148D01*
X36899258Y-1020401D01*
X37426547Y-1020401D01*
X37426547Y-1115656D01*
X37431659Y-1169488D01*
X37445824Y-1211287D01*
X37468523Y-1243884D01*
X37498700Y-1267747D01*
X37541507Y-1286389D01*
X37600737Y-1298304D01*
X37547495Y-1312876D01*
X37511259Y-1331260D01*
X37487701Y-1352266D01*
X37470805Y-1380417D01*
X37459792Y-1418746D01*
X37455695Y-1470495D01*
X37455695Y-1555751D01*
X37460496Y-1621825D01*
X37472765Y-1665722D01*
X37490559Y-1693825D01*
X37516186Y-1712245D01*
X37559147Y-1725709D01*
X37627027Y-1731148D01*
X38033701Y-1731148D01*
X38101580Y-1725711D01*
X38144567Y-1712248D01*
X38170233Y-1693825D01*
X38187991Y-1665730D01*
X38200239Y-1621834D01*
X38205032Y-1555751D01*
X38205032Y-1497133D01*
X38056435Y-1462481D01*
X38056435Y-1579717D01*
X37685323Y-1579717D01*
X37646902Y-1574586D01*
X37628424Y-1562849D01*
X37618552Y-1540672D01*
X37614199Y-1493546D01*
X37614199Y-1447063D01*
X37618512Y-1402456D01*
X37628424Y-1381041D01*
X37646842Y-1369750D01*
X37685323Y-1364784D01*
X37911394Y-1364784D01*
X37911394Y-1218238D01*
X37657572Y-1218238D01*
X37619008Y-1213222D01*
X37599975Y-1201675D01*
X37589532Y-1180093D01*
X37585051Y-1136035D01*
X37585051Y-1070166D01*
X37589448Y-1026289D01*
X37599657Y-1004907D01*
X37618422Y-993620D01*
X37657572Y-988650D01*
X38062849Y-988650D01*
X38062849Y-1115656D01*
X38217098Y-1077035D01*
X38217098Y-1003228D01*
X38212261Y-937035D01*
X38199888Y-893006D01*
X38181917Y-864773D01*
X38156063Y-846333D01*
X38112942Y-832877D01*
X38045068Y-827450D01*
X37608547Y-827450D01*
X37540586Y-833242D01*
X37495312Y-847929D01*
X37466364Y-868665D01*
X37445946Y-899882D01*
X37431984Y-948185D01*
X37426547Y-1020401D01*
X36899258Y-1020401D01*
X36806503Y-827450D01*
X36685656Y-827450D01*
X36272632Y-1731148D01*
X36106381Y-1731148D01*
X36106381Y-1417754D01*
X35947813Y-1384323D01*
X35947813Y-1579717D01*
X35450901Y-1579717D01*
X35856115Y-812795D01*
X35664843Y-812795D01*
X35271695Y-1585900D01*
X34435873Y-1585900D01*
X34453066Y-1384323D01*
X34727093Y-1384323D01*
X35066199Y-1384323D01*
X35066199Y-1203583D01*
X34727093Y-1203583D01*
X34727093Y-1384323D01*
X34453066Y-1384323D01*
X34466158Y-1230832D01*
X34247199Y-1257775D01*
X34059484Y-1267087D01*
X33969401Y-1262490D01*
X33908685Y-1250890D01*
X33869737Y-1235030D01*
X33838164Y-1208544D01*
X33819921Y-1174009D01*
X33813536Y-1128784D01*
X33820145Y-1080848D01*
X33838911Y-1044566D01*
X33871134Y-1017043D01*
X33911197Y-1000654D01*
X33974712Y-988578D01*
X34070153Y-983765D01*
X34161300Y-986546D01*
X34258249Y-995137D01*
X34357294Y-1009280D01*
X34466158Y-1030171D01*
X34428501Y-854850D01*
X34360910Y-839473D01*
X34272474Y-827221D01*
X34177643Y-820199D01*
X34065898Y-817680D01*
X33951830Y-823422D01*
X33864352Y-838758D01*
X33798495Y-861255D01*
X33749906Y-889121D01*
X33707533Y-929777D01*
X33677505Y-980123D01*
X33658793Y-1042072D01*
X33652111Y-1118862D01*
X33224798Y-1118862D01*
X33084711Y-827450D01*
X32963864Y-827450D01*
X32550840Y-1731148D01*
X31783976Y-1731148D01*
X31783976Y-827450D01*
X31609088Y-827450D01*
X31609088Y-1731148D01*
X31226609Y-1731148D01*
X31226609Y-827450D01*
X31069439Y-827450D01*
X31069439Y-1315630D01*
X31071217Y-1380125D01*
X31076551Y-1459275D01*
X31048864Y-1424242D01*
X31014000Y-1385773D01*
X30462349Y-827450D01*
X30342899Y-827450D01*
X30342899Y-1731148D01*
X30204010Y-1731148D01*
X30204010Y-673906D01*
X38355987Y-673906D01*
X38355987Y-1870037D01*
G37*
G36*
X54000433Y-4145197D02*
G01*
X53279672Y-4145197D01*
X53279672Y-3322196D01*
X54000433Y-3322196D01*
X54000433Y-4145197D01*
G37*
G36*
X54419043Y-4577325D02*
G01*
X50231160Y-4577325D01*
X50231160Y-4152231D01*
X50431160Y-4152231D01*
X50431160Y-4377325D01*
X51381167Y-4377325D01*
X51381167Y-4152231D01*
X51651690Y-4152231D01*
X51651690Y-4377325D01*
X52601697Y-4377325D01*
X52601697Y-3384954D01*
X53061936Y-3384954D01*
X53061936Y-4070129D01*
X53066258Y-4145197D01*
X53068657Y-4186870D01*
X53085688Y-4263684D01*
X53109960Y-4312149D01*
X53145613Y-4344700D01*
X53203976Y-4368007D01*
X53294754Y-4377325D01*
X53986145Y-4377325D01*
X54076978Y-4368008D01*
X54135396Y-4344702D01*
X54171098Y-4312149D01*
X54195326Y-4263694D01*
X54212331Y-4186882D01*
X54219043Y-4070129D01*
X54219043Y-3384954D01*
X54212301Y-3266657D01*
X54195271Y-3189279D01*
X54171098Y-3140846D01*
X54135419Y-3108472D01*
X54077005Y-3085276D01*
X53986145Y-3076000D01*
X53294754Y-3076000D01*
X53203950Y-3085277D01*
X53145591Y-3108474D01*
X53109960Y-3140846D01*
X53085743Y-3189289D01*
X53068687Y-3266669D01*
X53061936Y-3384954D01*
X52601697Y-3384954D01*
X52601697Y-3076000D01*
X52383087Y-3076000D01*
X52383087Y-3568393D01*
X51987622Y-3568393D01*
X51987622Y-3807556D01*
X52383087Y-3807556D01*
X52383087Y-4152231D01*
X51651690Y-4152231D01*
X51381167Y-4152231D01*
X51381167Y-3076000D01*
X51162557Y-3076000D01*
X51162557Y-3568393D01*
X50767091Y-3568393D01*
X50767091Y-3807556D01*
X51162557Y-3807556D01*
X51162557Y-4152231D01*
X50431160Y-4152231D01*
X50231160Y-4152231D01*
X50231160Y-2876000D01*
X54419043Y-2876000D01*
X54419043Y-4577325D01*
G37*
G36*
X1211546Y-18828399D02*
G01*
X906693Y-18828399D01*
X906693Y-18725397D01*
X1044789Y-18660217D01*
X1011771Y-18579077D01*
X906693Y-18623739D01*
X906693Y-18458732D01*
X1211546Y-18458732D01*
X1211546Y-18828399D01*
G37*
G36*
X1204177Y-17507287D02*
G01*
X1008311Y-17611185D01*
X1008311Y-17400173D01*
X1204177Y-17507287D01*
G37*
G36*
X1372530Y-19697328D02*
G01*
X615430Y-19697328D01*
X615430Y-19288244D01*
X815498Y-19288244D01*
X815498Y-19400365D01*
X1211546Y-19400365D01*
X1211546Y-19622328D01*
X1297530Y-19622328D01*
X1297530Y-19067176D01*
X1211546Y-19067176D01*
X1211546Y-19288244D01*
X815498Y-19288244D01*
X615430Y-19288244D01*
X615430Y-18718110D01*
X690430Y-18718110D01*
X690430Y-18829295D01*
X815498Y-18768674D01*
X815498Y-18820664D01*
X818939Y-18867231D01*
X827545Y-18897164D01*
X839558Y-18915442D01*
X857505Y-18927858D01*
X886202Y-18936608D01*
X930102Y-18940073D01*
X1183902Y-18940073D01*
X1227088Y-18936626D01*
X1255502Y-18927891D01*
X1273429Y-18915442D01*
X1285464Y-18897160D01*
X1294084Y-18867227D01*
X1297530Y-18820664D01*
X1297530Y-18466060D01*
X1294084Y-18419469D01*
X1285465Y-18389508D01*
X1273429Y-18371201D01*
X1255506Y-18358773D01*
X1227093Y-18350053D01*
X1183902Y-18346610D01*
X930102Y-18346610D01*
X886197Y-18350070D01*
X857501Y-18358806D01*
X839558Y-18371201D01*
X827545Y-18389504D01*
X818939Y-18419464D01*
X815498Y-18466060D01*
X815498Y-18623739D01*
X815498Y-18663840D01*
X690430Y-18718110D01*
X615430Y-18718110D01*
X615430Y-17296235D01*
X815498Y-17296235D01*
X922326Y-17352296D01*
X922326Y-17611185D01*
X922326Y-17657678D01*
X815498Y-17715571D01*
X815498Y-17841372D01*
X1297530Y-17565139D01*
X1297530Y-17457130D01*
X815498Y-17184561D01*
X815498Y-17296235D01*
X615430Y-17296235D01*
X615430Y-16502672D01*
X815498Y-16502672D01*
X1113022Y-16502672D01*
X1136798Y-16501980D01*
X1164198Y-16499944D01*
X1140666Y-16511547D01*
X1114855Y-16528647D01*
X872820Y-16710060D01*
X872820Y-16732371D01*
X1113959Y-16913336D01*
X1133826Y-16925631D01*
X1164646Y-16941591D01*
X1134926Y-16938659D01*
X1113022Y-16937519D01*
X815498Y-16937519D01*
X815498Y-17041417D01*
X1297530Y-17041417D01*
X1297530Y-16951606D01*
X1005705Y-16729643D01*
X1297530Y-16502672D01*
X1297530Y-16411965D01*
X815498Y-16411965D01*
X815498Y-16502672D01*
X615430Y-16502672D01*
X615430Y-15638921D01*
X815498Y-15638921D01*
X1113022Y-15638921D01*
X1136798Y-15638229D01*
X1164198Y-15636194D01*
X1140666Y-15647797D01*
X1114855Y-15664896D01*
X872820Y-15846310D01*
X872820Y-15868620D01*
X1113959Y-16049586D01*
X1133826Y-16061881D01*
X1164646Y-16077840D01*
X1134926Y-16074909D01*
X1113022Y-16073769D01*
X815498Y-16073769D01*
X815498Y-16177666D01*
X1297530Y-16177666D01*
X1297530Y-16087855D01*
X1005705Y-15865892D01*
X1297530Y-15638921D01*
X1297530Y-15548215D01*
X815498Y-15548215D01*
X815498Y-15638921D01*
X615430Y-15638921D01*
X615430Y-15342699D01*
X815498Y-15342699D01*
X906693Y-15342699D01*
X906693Y-14957114D01*
X1026550Y-14957114D01*
X1026550Y-15179525D01*
X1107323Y-15179525D01*
X1107323Y-14957114D01*
X1216757Y-14957114D01*
X1216757Y-15338140D01*
X1297530Y-15338140D01*
X1297530Y-14844992D01*
X815498Y-14844992D01*
X815498Y-15342699D01*
X615430Y-15342699D01*
X615430Y-14374115D01*
X815498Y-14374115D01*
X815498Y-14486236D01*
X1211546Y-14486236D01*
X1211546Y-14708199D01*
X1297530Y-14708199D01*
X1297530Y-14153047D01*
X1211546Y-14153047D01*
X1211546Y-14374115D01*
X815498Y-14374115D01*
X615430Y-14374115D01*
X615430Y-13611860D01*
X815498Y-13611860D01*
X815498Y-13909466D01*
X818966Y-13956353D01*
X827642Y-13986525D01*
X839762Y-14004977D01*
X857864Y-14017532D01*
X886527Y-14026337D01*
X930062Y-14029811D01*
X995893Y-14029811D01*
X1039199Y-14026340D01*
X1067723Y-14017537D01*
X1085745Y-14004977D01*
X1097821Y-13986532D01*
X1106470Y-13956362D01*
X1109928Y-13909466D01*
X1109928Y-13609091D01*
X1214152Y-13609091D01*
X1214152Y-13924529D01*
X1159434Y-13924529D01*
X1182681Y-14023419D01*
X1192737Y-14023419D01*
X1231068Y-14019939D01*
X1257191Y-14010930D01*
X1274487Y-13997649D01*
X1286064Y-13978829D01*
X1294280Y-13949072D01*
X1297530Y-13904011D01*
X1297530Y-13630546D01*
X1294099Y-13583941D01*
X1285521Y-13553982D01*
X1273551Y-13535687D01*
X1255708Y-13523253D01*
X1227446Y-13514536D01*
X1184513Y-13511097D01*
X1130732Y-13511097D01*
X1087171Y-13514542D01*
X1058511Y-13523267D01*
X1040433Y-13535687D01*
X1028286Y-13554014D01*
X1019599Y-13583977D01*
X1016127Y-13630546D01*
X1016127Y-13930881D01*
X906693Y-13930881D01*
X906693Y-13590404D01*
X964016Y-13590404D01*
X943375Y-13491514D01*
X930062Y-13491514D01*
X886527Y-13494988D01*
X857864Y-13503794D01*
X839762Y-13516349D01*
X827642Y-13534801D01*
X818966Y-13564972D01*
X815498Y-13611860D01*
X615430Y-13611860D01*
X615430Y-13416514D01*
X1372530Y-13416514D01*
X1372530Y-19697328D01*
G37*
%TO.C,J2*%
X17893000Y-28560000D02*
X5618000Y-28560000D01*
X17893000Y-28560000D02*
X17893000Y-29360000D01*
X17893000Y-35060000D02*
X17893000Y-31810000D01*
X17893000Y-42560000D02*
X17893000Y-37510000D01*
X4618000Y-42560000D02*
X17893000Y-42560000D01*
D11*
%TO.C,R12*%
X42554000Y-13775000D02*
X42554000Y-14672000D01*
X41264000Y-13775000D02*
X42554000Y-13775000D01*
X41264000Y-14672000D02*
X41264000Y-13775000D01*
X41264000Y-15285000D02*
X41264000Y-16465000D01*
X42554000Y-16465000D02*
X42554000Y-15285000D01*
X42554000Y-17078000D02*
X42554000Y-17975000D01*
X42554000Y-17975000D02*
X41264000Y-17975000D01*
X41264000Y-17975000D02*
X41264000Y-17078000D01*
%TO.C,R11*%
X38725000Y-17975000D02*
X38725000Y-17078000D01*
X40015000Y-17975000D02*
X38725000Y-17975000D01*
X40015000Y-17078000D02*
X40015000Y-17975000D01*
X40015000Y-16465000D02*
X40015000Y-15285000D01*
X38725000Y-15285000D02*
X38725000Y-16465000D01*
X38725000Y-14672000D02*
X38725000Y-13775000D01*
X38725000Y-13775000D02*
X40015000Y-13775000D01*
X40015000Y-13775000D02*
X40015000Y-14672000D01*
%TO.C,Q1*%
X44325000Y-8580000D02*
X45845000Y-8580000D01*
X44325000Y-9675000D02*
X44325000Y-8580000D01*
X44325000Y-11740000D02*
X44325000Y-10645000D01*
X45845000Y-9694000D02*
X45845000Y-10626000D01*
X45845000Y-11740000D02*
X44325000Y-11740000D01*
D14*
X46385000Y-11960000D02*
X45885000Y-11960000D01*
X46135000Y-11710000D01*
X46385000Y-11960000D01*
G36*
X46385000Y-11960000D02*
G01*
X45885000Y-11960000D01*
X46135000Y-11710000D01*
X46385000Y-11960000D01*
G37*
D11*
%TO.C,Q2*%
X44325000Y-4770000D02*
X45845000Y-4770000D01*
X44325000Y-5865000D02*
X44325000Y-4770000D01*
X44325000Y-7930000D02*
X44325000Y-6835000D01*
X45845000Y-5884000D02*
X45845000Y-6816000D01*
X45845000Y-7930000D02*
X44325000Y-7930000D01*
D14*
X46385000Y-8150000D02*
X45885000Y-8150000D01*
X46135000Y-7900000D01*
X46385000Y-8150000D01*
G36*
X46385000Y-8150000D02*
G01*
X45885000Y-8150000D01*
X46135000Y-7900000D01*
X46385000Y-8150000D01*
G37*
D11*
%TO.C,J1*%
X38350000Y-10649000D02*
X37330000Y-10649000D01*
X38350000Y-6399000D02*
X38350000Y-10649000D01*
X37330000Y-10649000D02*
X37330000Y-9049000D01*
X37330000Y-9049000D02*
X36050000Y-9049000D01*
X36630000Y-2829000D02*
X31950000Y-2829000D01*
X36050000Y-9049000D02*
X36050000Y-11939000D01*
X31250000Y-10649000D02*
X31250000Y-9049000D01*
X31250000Y-9049000D02*
X32530000Y-9049000D01*
X30230000Y-10649000D02*
X31250000Y-10649000D01*
X30230000Y-6399000D02*
X30230000Y-10649000D01*
%TO.C,C2*%
X16861000Y-45867000D02*
X18191000Y-45867000D01*
X16861000Y-46777000D02*
X16861000Y-45867000D01*
X16861000Y-47687000D02*
X16861000Y-48597000D01*
X16861000Y-48597000D02*
X18191000Y-48597000D01*
X18191000Y-45867000D02*
X18191000Y-46777000D01*
X18191000Y-48597000D02*
X18191000Y-47687000D01*
%TO.C,Q4*%
X40475000Y-4800000D02*
X42075000Y-4800000D01*
X42075000Y-7900000D02*
X40475000Y-7900000D01*
D14*
X42575000Y-8250000D02*
X42075000Y-8250000D01*
X42325000Y-8000000D01*
X42575000Y-8250000D01*
G36*
X42575000Y-8250000D02*
G01*
X42075000Y-8250000D01*
X42325000Y-8000000D01*
X42575000Y-8250000D01*
G37*
D11*
%TO.C,R10*%
X22780000Y-46599000D02*
X22780000Y-47889000D01*
X22780000Y-47889000D02*
X23677000Y-47889000D01*
X23677000Y-46599000D02*
X22780000Y-46599000D01*
X24573000Y-46599000D02*
X25470000Y-46599000D01*
X25470000Y-46599000D02*
X25470000Y-47889000D01*
X25470000Y-47889000D02*
X24573000Y-47889000D01*
%TO.C,R5*%
X14214000Y-25071000D02*
X15504000Y-25071000D01*
X14214000Y-25968000D02*
X14214000Y-25071000D01*
X14214000Y-26864000D02*
X14214000Y-27761000D01*
X14214000Y-27761000D02*
X15504000Y-27761000D01*
X15504000Y-25071000D02*
X15504000Y-25968000D01*
X15504000Y-27761000D02*
X15504000Y-26864000D01*
D15*
%TO.C,G\u002A\u002A\u002A*%
G36*
X43925440Y-15842676D02*
G01*
X43929678Y-15844023D01*
X43934255Y-15845835D01*
X43938718Y-15847911D01*
X43942614Y-15850049D01*
X43944144Y-15851034D01*
X43950308Y-15856017D01*
X43955761Y-15861934D01*
X43960388Y-15868608D01*
X43964074Y-15875863D01*
X43966702Y-15883524D01*
X43967379Y-15886405D01*
X43967422Y-15886685D01*
X43967464Y-15887112D01*
X43967505Y-15887706D01*
X43967544Y-15888484D01*
X43967582Y-15889464D01*
X43967619Y-15890664D01*
X43967655Y-15892102D01*
X43967690Y-15893796D01*
X43967723Y-15895765D01*
X43967756Y-15898026D01*
X43967787Y-15900596D01*
X43967817Y-15903496D01*
X43967847Y-15906741D01*
X43967875Y-15910351D01*
X43967902Y-15914343D01*
X43967929Y-15918736D01*
X43967954Y-15923547D01*
X43967978Y-15928794D01*
X43968002Y-15934496D01*
X43968024Y-15940670D01*
X43968046Y-15947335D01*
X43968067Y-15954508D01*
X43968086Y-15962208D01*
X43968105Y-15970452D01*
X43968124Y-15979260D01*
X43968141Y-15988647D01*
X43968158Y-15998634D01*
X43968173Y-16009237D01*
X43968188Y-16020474D01*
X43968203Y-16032365D01*
X43968216Y-16044926D01*
X43968229Y-16058176D01*
X43968242Y-16072133D01*
X43968253Y-16086815D01*
X43968264Y-16102240D01*
X43968274Y-16118425D01*
X43968284Y-16135390D01*
X43968293Y-16153151D01*
X43968301Y-16171728D01*
X43968309Y-16191137D01*
X43968317Y-16211398D01*
X43968324Y-16232527D01*
X43968330Y-16254544D01*
X43968336Y-16277466D01*
X43968341Y-16301311D01*
X43968346Y-16326097D01*
X43968351Y-16351842D01*
X43968355Y-16378564D01*
X43968358Y-16406282D01*
X43968362Y-16435013D01*
X43968365Y-16464776D01*
X43968367Y-16495587D01*
X43968370Y-16527466D01*
X43968372Y-16560431D01*
X43968373Y-16594499D01*
X43968375Y-16629688D01*
X43968376Y-16666017D01*
X43968377Y-16703503D01*
X43968377Y-16742165D01*
X43968378Y-16782020D01*
X43968378Y-16823087D01*
X43968378Y-16865383D01*
X43968378Y-16890932D01*
X43968378Y-16934242D01*
X43968378Y-16976311D01*
X43968378Y-17017157D01*
X43968377Y-17056798D01*
X43968376Y-17095250D01*
X43968374Y-17132532D01*
X43968373Y-17168662D01*
X43968371Y-17203656D01*
X43968368Y-17237532D01*
X43968366Y-17270308D01*
X43968363Y-17302002D01*
X43968360Y-17332631D01*
X43968356Y-17362213D01*
X43968352Y-17390764D01*
X43968347Y-17418304D01*
X43968342Y-17444849D01*
X43968337Y-17470417D01*
X43968331Y-17495025D01*
X43968324Y-17518692D01*
X43968317Y-17541434D01*
X43968310Y-17563270D01*
X43968302Y-17584216D01*
X43968293Y-17604291D01*
X43968284Y-17623512D01*
X43968275Y-17641896D01*
X43968264Y-17659462D01*
X43968253Y-17676226D01*
X43968242Y-17692206D01*
X43968230Y-17707421D01*
X43968217Y-17721887D01*
X43968203Y-17735622D01*
X43968189Y-17748643D01*
X43968174Y-17760969D01*
X43968159Y-17772616D01*
X43968142Y-17783603D01*
X43968125Y-17793947D01*
X43968107Y-17803665D01*
X43968089Y-17812775D01*
X43968069Y-17821295D01*
X43968049Y-17829242D01*
X43968027Y-17836634D01*
X43968005Y-17843488D01*
X43967983Y-17849823D01*
X43967959Y-17855654D01*
X43967934Y-17861001D01*
X43967908Y-17865881D01*
X43967882Y-17870311D01*
X43967854Y-17874308D01*
X43967826Y-17877891D01*
X43967797Y-17881077D01*
X43967766Y-17883884D01*
X43967735Y-17886329D01*
X43967702Y-17888429D01*
X43967669Y-17890203D01*
X43967634Y-17891668D01*
X43967598Y-17892841D01*
X43967562Y-17893740D01*
X43967524Y-17894382D01*
X43967485Y-17894786D01*
X43967466Y-17894898D01*
X43965079Y-17903272D01*
X43961657Y-17910966D01*
X43957259Y-17917920D01*
X43951944Y-17924075D01*
X43945773Y-17929371D01*
X43938804Y-17933750D01*
X43931096Y-17937153D01*
X43922882Y-17939482D01*
X43922541Y-17939530D01*
X43921965Y-17939577D01*
X43921134Y-17939622D01*
X43920025Y-17939665D01*
X43918616Y-17939707D01*
X43916887Y-17939747D01*
X43914816Y-17939786D01*
X43912380Y-17939823D01*
X43909559Y-17939858D01*
X43906330Y-17939892D01*
X43902673Y-17939924D01*
X43898565Y-17939955D01*
X43893985Y-17939985D01*
X43888911Y-17940013D01*
X43883322Y-17940040D01*
X43877195Y-17940065D01*
X43870510Y-17940089D01*
X43863245Y-17940112D01*
X43855378Y-17940134D01*
X43846887Y-17940154D01*
X43837751Y-17940174D01*
X43827949Y-17940192D01*
X43817458Y-17940209D01*
X43806257Y-17940224D01*
X43794324Y-17940239D01*
X43781638Y-17940253D01*
X43768177Y-17940266D01*
X43753919Y-17940277D01*
X43738844Y-17940288D01*
X43722928Y-17940298D01*
X43706152Y-17940306D01*
X43688492Y-17940314D01*
X43669927Y-17940322D01*
X43650436Y-17940328D01*
X43629998Y-17940333D01*
X43608589Y-17940338D01*
X43586190Y-17940342D01*
X43562778Y-17940345D01*
X43538331Y-17940348D01*
X43512828Y-17940350D01*
X43486248Y-17940351D01*
X43458568Y-17940351D01*
X43429768Y-17940351D01*
X43399825Y-17940351D01*
X43368718Y-17940350D01*
X43336425Y-17940348D01*
X43302924Y-17940347D01*
X43268195Y-17940344D01*
X43255687Y-17940343D01*
X43220614Y-17940340D01*
X43186778Y-17940337D01*
X43154156Y-17940334D01*
X43122728Y-17940330D01*
X43092469Y-17940326D01*
X43063360Y-17940322D01*
X43035378Y-17940318D01*
X43008502Y-17940313D01*
X42982709Y-17940307D01*
X42957977Y-17940301D01*
X42934285Y-17940295D01*
X42911611Y-17940288D01*
X42889932Y-17940281D01*
X42869228Y-17940273D01*
X42849477Y-17940264D01*
X42830655Y-17940255D01*
X42812742Y-17940245D01*
X42795716Y-17940234D01*
X42779555Y-17940222D01*
X42764236Y-17940210D01*
X42749739Y-17940197D01*
X42736041Y-17940183D01*
X42723121Y-17940168D01*
X42710956Y-17940152D01*
X42699524Y-17940135D01*
X42688805Y-17940118D01*
X42678775Y-17940099D01*
X42669414Y-17940079D01*
X42660699Y-17940058D01*
X42652608Y-17940036D01*
X42645120Y-17940013D01*
X42638212Y-17939989D01*
X42631863Y-17939963D01*
X42626052Y-17939936D01*
X42620755Y-17939908D01*
X42615952Y-17939879D01*
X42611620Y-17939848D01*
X42607737Y-17939816D01*
X42604283Y-17939783D01*
X42601234Y-17939748D01*
X42598569Y-17939711D01*
X42596266Y-17939673D01*
X42594303Y-17939634D01*
X42592659Y-17939593D01*
X42591311Y-17939550D01*
X42590239Y-17939506D01*
X42589418Y-17939460D01*
X42588829Y-17939412D01*
X42588449Y-17939363D01*
X42588384Y-17939350D01*
X42580751Y-17937105D01*
X42573413Y-17933762D01*
X42566565Y-17929450D01*
X42560398Y-17924295D01*
X42555105Y-17918426D01*
X42553449Y-17916160D01*
X42551181Y-17912391D01*
X42548949Y-17907840D01*
X42546955Y-17902971D01*
X42545404Y-17898247D01*
X42545129Y-17897221D01*
X42543706Y-17891637D01*
X42543706Y-16890685D01*
X42543706Y-16847772D01*
X42543706Y-16806098D01*
X42543707Y-16765646D01*
X42543707Y-16726398D01*
X42543708Y-16688335D01*
X42543708Y-16651439D01*
X42543708Y-16648137D01*
X42922149Y-16648137D01*
X42922242Y-16655856D01*
X42923370Y-16663504D01*
X42925528Y-16670954D01*
X42928712Y-16678082D01*
X42932919Y-16684762D01*
X42938143Y-16690871D01*
X42940092Y-16692742D01*
X42946702Y-16697945D01*
X42954027Y-16702166D01*
X42961877Y-16705304D01*
X42964596Y-16706097D01*
X42968592Y-16706873D01*
X42973329Y-16707353D01*
X42978386Y-16707529D01*
X42983345Y-16707395D01*
X42987785Y-16706946D01*
X42990225Y-16706474D01*
X42997044Y-16704392D01*
X43003446Y-16701664D01*
X43008966Y-16698504D01*
X43009913Y-16697776D01*
X43011761Y-16696266D01*
X43014462Y-16694013D01*
X43017967Y-16691059D01*
X43022227Y-16687447D01*
X43027193Y-16683218D01*
X43032818Y-16678414D01*
X43039053Y-16673075D01*
X43045848Y-16667245D01*
X43053155Y-16660964D01*
X43060927Y-16654274D01*
X43069113Y-16647218D01*
X43077666Y-16639836D01*
X43086537Y-16632170D01*
X43095677Y-16624262D01*
X43105037Y-16616153D01*
X43106466Y-16614915D01*
X43199263Y-16534472D01*
X43199586Y-16956997D01*
X43199608Y-16984665D01*
X43199628Y-17011102D01*
X43199648Y-17036337D01*
X43199668Y-17060399D01*
X43199687Y-17083315D01*
X43199706Y-17105114D01*
X43199724Y-17125823D01*
X43199743Y-17145472D01*
X43199761Y-17164087D01*
X43199780Y-17181698D01*
X43199799Y-17198333D01*
X43199818Y-17214019D01*
X43199837Y-17228785D01*
X43199857Y-17242659D01*
X43199877Y-17255670D01*
X43199899Y-17267845D01*
X43199920Y-17279212D01*
X43199943Y-17289800D01*
X43199967Y-17299637D01*
X43199991Y-17308751D01*
X43200017Y-17317171D01*
X43200044Y-17324924D01*
X43200072Y-17332039D01*
X43200101Y-17338543D01*
X43200133Y-17344465D01*
X43200165Y-17349834D01*
X43200200Y-17354677D01*
X43200236Y-17359023D01*
X43200274Y-17362899D01*
X43200314Y-17366334D01*
X43200356Y-17369357D01*
X43200400Y-17371994D01*
X43200446Y-17374275D01*
X43200495Y-17376228D01*
X43200546Y-17377880D01*
X43200600Y-17379261D01*
X43200656Y-17380397D01*
X43200715Y-17381318D01*
X43200777Y-17382052D01*
X43200842Y-17382626D01*
X43200910Y-17383069D01*
X43200981Y-17383409D01*
X43201012Y-17383530D01*
X43203944Y-17392034D01*
X43207822Y-17399736D01*
X43212605Y-17406599D01*
X43218255Y-17412582D01*
X43224731Y-17417649D01*
X43231993Y-17421758D01*
X43240003Y-17424873D01*
X43244561Y-17426112D01*
X43247711Y-17426595D01*
X43251730Y-17426837D01*
X43256256Y-17426850D01*
X43260924Y-17426648D01*
X43265371Y-17426243D01*
X43269235Y-17425649D01*
X43271294Y-17425158D01*
X43279125Y-17422241D01*
X43286362Y-17418258D01*
X43292919Y-17413293D01*
X43298712Y-17407431D01*
X43303657Y-17400755D01*
X43307670Y-17393351D01*
X43310419Y-17386120D01*
X43311878Y-17381409D01*
X43312192Y-16957791D01*
X43312507Y-16534173D01*
X43405009Y-16614285D01*
X43414355Y-16622378D01*
X43423467Y-16630266D01*
X43432298Y-16637910D01*
X43440801Y-16645268D01*
X43448929Y-16652298D01*
X43456633Y-16658961D01*
X43463868Y-16665216D01*
X43470584Y-16671020D01*
X43476736Y-16676335D01*
X43482276Y-16681118D01*
X43487156Y-16685328D01*
X43491329Y-16688926D01*
X43494748Y-16691869D01*
X43497366Y-16694118D01*
X43499134Y-16695631D01*
X43500007Y-16696367D01*
X43500059Y-16696409D01*
X43503262Y-16698619D01*
X43507248Y-16700886D01*
X43511571Y-16702982D01*
X43515789Y-16704678D01*
X43516770Y-16705011D01*
X43524674Y-16706944D01*
X43532631Y-16707680D01*
X43540524Y-16707268D01*
X43548236Y-16705760D01*
X43555650Y-16703204D01*
X43562649Y-16699652D01*
X43569118Y-16695151D01*
X43574938Y-16689753D01*
X43579993Y-16683508D01*
X43584167Y-16676465D01*
X43584322Y-16676151D01*
X43587376Y-16668569D01*
X43589288Y-16660740D01*
X43590076Y-16652801D01*
X43589758Y-16644888D01*
X43588352Y-16637138D01*
X43585877Y-16629686D01*
X43582349Y-16622670D01*
X43577788Y-16616224D01*
X43576139Y-16614332D01*
X43575412Y-16613645D01*
X43573779Y-16612174D01*
X43571286Y-16609958D01*
X43567978Y-16607039D01*
X43563900Y-16603454D01*
X43559099Y-16599243D01*
X43553620Y-16594447D01*
X43547508Y-16589104D01*
X43540809Y-16583254D01*
X43533569Y-16576937D01*
X43525832Y-16570192D01*
X43517646Y-16563059D01*
X43509054Y-16555578D01*
X43500103Y-16547787D01*
X43490839Y-16539726D01*
X43481306Y-16531436D01*
X43471550Y-16522955D01*
X43461618Y-16514323D01*
X43451554Y-16505580D01*
X43441404Y-16496765D01*
X43431214Y-16487918D01*
X43421029Y-16479078D01*
X43410895Y-16470285D01*
X43400857Y-16461579D01*
X43390961Y-16452998D01*
X43381253Y-16444583D01*
X43371777Y-16436373D01*
X43362580Y-16428407D01*
X43353708Y-16420726D01*
X43345204Y-16413368D01*
X43337116Y-16406374D01*
X43329489Y-16399782D01*
X43322369Y-16393633D01*
X43315800Y-16387966D01*
X43309828Y-16382820D01*
X43304500Y-16378235D01*
X43299860Y-16374251D01*
X43295955Y-16370907D01*
X43292829Y-16368243D01*
X43290528Y-16366298D01*
X43289099Y-16365111D01*
X43288710Y-16364804D01*
X43285182Y-16362505D01*
X43280850Y-16360216D01*
X43276155Y-16358144D01*
X43271535Y-16356495D01*
X43270219Y-16356111D01*
X43267899Y-16355543D01*
X43265594Y-16355156D01*
X43262980Y-16354920D01*
X43259734Y-16354804D01*
X43255885Y-16354777D01*
X43252023Y-16354804D01*
X43249087Y-16354901D01*
X43246745Y-16355105D01*
X43244664Y-16355455D01*
X43242512Y-16355987D01*
X43240786Y-16356489D01*
X43233150Y-16359276D01*
X43226463Y-16362779D01*
X43222098Y-16365831D01*
X43221045Y-16366697D01*
X43219101Y-16368338D01*
X43216312Y-16370715D01*
X43212724Y-16373787D01*
X43208383Y-16377515D01*
X43203334Y-16381859D01*
X43197624Y-16386779D01*
X43191298Y-16392235D01*
X43184402Y-16398188D01*
X43176983Y-16404598D01*
X43169085Y-16411425D01*
X43160755Y-16418629D01*
X43152039Y-16426170D01*
X43142983Y-16434009D01*
X43133632Y-16442106D01*
X43124033Y-16450421D01*
X43114230Y-16458914D01*
X43104271Y-16467546D01*
X43094201Y-16476276D01*
X43084066Y-16485065D01*
X43073911Y-16493874D01*
X43063783Y-16502661D01*
X43053727Y-16511388D01*
X43043790Y-16520015D01*
X43034017Y-16528502D01*
X43024454Y-16536809D01*
X43015147Y-16544896D01*
X43006142Y-16552723D01*
X42997485Y-16560252D01*
X42989221Y-16567441D01*
X42981397Y-16574252D01*
X42974058Y-16580644D01*
X42967250Y-16586577D01*
X42961019Y-16592012D01*
X42955411Y-16596910D01*
X42950473Y-16601229D01*
X42946248Y-16604931D01*
X42942785Y-16607975D01*
X42940127Y-16610323D01*
X42938323Y-16611933D01*
X42937416Y-16612767D01*
X42937356Y-16612827D01*
X42932211Y-16619034D01*
X42928122Y-16625793D01*
X42925085Y-16632980D01*
X42923095Y-16640470D01*
X42922149Y-16648137D01*
X42543708Y-16648137D01*
X42543709Y-16615693D01*
X42543710Y-16581077D01*
X42543712Y-16547574D01*
X42543713Y-16515166D01*
X42543715Y-16483833D01*
X42543718Y-16453559D01*
X42543720Y-16424325D01*
X42543723Y-16396112D01*
X42543726Y-16368903D01*
X42543730Y-16342679D01*
X42543734Y-16317422D01*
X42543739Y-16293113D01*
X42543743Y-16269736D01*
X42543749Y-16247271D01*
X42543755Y-16225700D01*
X42543761Y-16205005D01*
X42543768Y-16185168D01*
X42543775Y-16166170D01*
X42543783Y-16147994D01*
X42543792Y-16130621D01*
X42543801Y-16114033D01*
X42543810Y-16098212D01*
X42543821Y-16083140D01*
X42543832Y-16068798D01*
X42543844Y-16055168D01*
X42543856Y-16042232D01*
X42543869Y-16029972D01*
X42543883Y-16018370D01*
X42543897Y-16007406D01*
X42543913Y-15997065D01*
X42543929Y-15987326D01*
X42543946Y-15978172D01*
X42543964Y-15969584D01*
X42543982Y-15961545D01*
X42544002Y-15954036D01*
X42544022Y-15947039D01*
X42544044Y-15940536D01*
X42544066Y-15934508D01*
X42544089Y-15928938D01*
X42544113Y-15923807D01*
X42544138Y-15919097D01*
X42544164Y-15914790D01*
X42544192Y-15910867D01*
X42544220Y-15907310D01*
X42544249Y-15904102D01*
X42544280Y-15901224D01*
X42544311Y-15898657D01*
X42544344Y-15896384D01*
X42544378Y-15894387D01*
X42544413Y-15892646D01*
X42544449Y-15891145D01*
X42544486Y-15889864D01*
X42544525Y-15888786D01*
X42544564Y-15887892D01*
X42544606Y-15887164D01*
X42544648Y-15886584D01*
X42544692Y-15886134D01*
X42544737Y-15885795D01*
X42544783Y-15885550D01*
X42544796Y-15885496D01*
X42547479Y-15877155D01*
X42551035Y-15869674D01*
X42555516Y-15862959D01*
X42560145Y-15857730D01*
X42566276Y-15852413D01*
X42573092Y-15848066D01*
X42580689Y-15844635D01*
X42587911Y-15842381D01*
X42588175Y-15842324D01*
X42588531Y-15842269D01*
X42589001Y-15842216D01*
X42589607Y-15842164D01*
X42590372Y-15842115D01*
X42591317Y-15842068D01*
X42592466Y-15842022D01*
X42593840Y-15841978D01*
X42595463Y-15841936D01*
X42597357Y-15841896D01*
X42599543Y-15841858D01*
X42602044Y-15841821D01*
X42604884Y-15841785D01*
X42608083Y-15841752D01*
X42611665Y-15841720D01*
X42615652Y-15841689D01*
X42620066Y-15841660D01*
X42624930Y-15841632D01*
X42630266Y-15841606D01*
X42636096Y-15841581D01*
X42642443Y-15841558D01*
X42649330Y-15841535D01*
X42656778Y-15841514D01*
X42664810Y-15841495D01*
X42673449Y-15841476D01*
X42682717Y-15841459D01*
X42692636Y-15841442D01*
X42703228Y-15841427D01*
X42714517Y-15841413D01*
X42726524Y-15841400D01*
X42739272Y-15841388D01*
X42752783Y-15841376D01*
X42767080Y-15841366D01*
X42782185Y-15841357D01*
X42798120Y-15841348D01*
X42814908Y-15841340D01*
X42832571Y-15841333D01*
X42851132Y-15841326D01*
X42870612Y-15841321D01*
X42891035Y-15841316D01*
X42912423Y-15841311D01*
X42934799Y-15841307D01*
X42958183Y-15841304D01*
X42982600Y-15841301D01*
X43008071Y-15841298D01*
X43034619Y-15841296D01*
X43062266Y-15841295D01*
X43091034Y-15841294D01*
X43120946Y-15841293D01*
X43152025Y-15841292D01*
X43184293Y-15841291D01*
X43217771Y-15841291D01*
X43252483Y-15841291D01*
X43256200Y-15841291D01*
X43920250Y-15841291D01*
X43925440Y-15842676D01*
G37*
D11*
%TO.C,C4*%
X3907000Y-25051000D02*
X3907000Y-25961000D01*
X3907000Y-27781000D02*
X3907000Y-26871000D01*
X5237000Y-25051000D02*
X3907000Y-25051000D01*
X5237000Y-25961000D02*
X5237000Y-25051000D01*
X5237000Y-26871000D02*
X5237000Y-27781000D01*
X5237000Y-27781000D02*
X3907000Y-27781000D01*
%TO.C,R3*%
X7668000Y-25071000D02*
X8958000Y-25071000D01*
X7668000Y-25968000D02*
X7668000Y-25071000D01*
X7668000Y-26864000D02*
X7668000Y-27761000D01*
X7668000Y-27761000D02*
X8958000Y-27761000D01*
X8958000Y-25071000D02*
X8958000Y-25968000D01*
X8958000Y-27761000D02*
X8958000Y-26864000D01*
%TO.C,U1*%
X8890000Y-20510500D02*
X8890000Y-4889500D01*
X11430000Y-2349500D02*
X24130000Y-2349500D01*
X13335000Y-2349500D02*
X13335000Y-1270000D01*
X22225000Y-1270000D02*
X13335000Y-1270000D01*
X22225000Y-2349500D02*
X22225000Y-1270000D01*
X24130000Y-23050500D02*
X11430000Y-23050500D01*
X26670000Y-4889500D02*
X26670000Y-20510500D01*
X8890000Y-4889500D02*
G75*
G02*
X11430000Y-2349500I2540001J-1D01*
G01*
X11430000Y-23050500D02*
G75*
G02*
X8890000Y-20510500I1J2540001D01*
G01*
X24130000Y-2349500D02*
G75*
G02*
X26670000Y-4889500I0J-2540000D01*
G01*
X26670000Y-20510500D02*
G75*
G02*
X24130000Y-23050500I-2540000J0D01*
G01*
%TO.C,J3*%
X2395000Y-14570000D02*
X2395000Y-18450000D01*
X4365000Y-13400000D02*
X6865000Y-13400000D01*
X4365000Y-19620000D02*
X6865000Y-19620000D01*
X6865000Y-13400000D02*
X6865000Y-14450000D01*
X6865000Y-14450000D02*
X7855000Y-14450000D01*
X6865000Y-19620000D02*
X6865000Y-18570000D01*
%TO.C,R1*%
X17516000Y-25071000D02*
X18806000Y-25071000D01*
X17516000Y-25968000D02*
X17516000Y-25071000D01*
X17516000Y-26864000D02*
X17516000Y-27761000D01*
X17516000Y-27761000D02*
X18806000Y-27761000D01*
X18806000Y-25071000D02*
X18806000Y-25968000D01*
X18806000Y-27761000D02*
X18806000Y-26864000D01*
%TO.C,U2*%
D16*
X18920000Y-44320000D02*
X21720000Y-44320000D01*
X21720000Y-47120000D01*
X18920000Y-47120000D01*
X18920000Y-44320000D01*
D14*
X22170000Y-44995000D02*
X21920000Y-44745000D01*
X22170000Y-44495000D01*
X22170000Y-44995000D01*
G36*
X22170000Y-44995000D02*
G01*
X21920000Y-44745000D01*
X22170000Y-44495000D01*
X22170000Y-44995000D01*
G37*
D11*
%TO.C,R2*%
X6017000Y-25071000D02*
X7307000Y-25071000D01*
X6017000Y-25968000D02*
X6017000Y-25071000D01*
X6017000Y-26864000D02*
X6017000Y-27761000D01*
X6017000Y-27761000D02*
X7307000Y-27761000D01*
X7307000Y-25071000D02*
X7307000Y-25968000D01*
X7307000Y-27761000D02*
X7307000Y-26864000D01*
%TO.C,U3*%
D16*
X27940000Y-19050000D02*
X55880000Y-19050000D01*
X55880000Y-46990000D01*
X27940000Y-46990000D01*
X27940000Y-19050000D01*
X36830000Y-20320000D02*
X46990000Y-20320000D01*
X46990000Y-22860000D01*
X36830000Y-22860000D01*
X36830000Y-20320000D01*
D11*
%TO.C,R9*%
X22790000Y-45075000D02*
X22790000Y-46365000D01*
X22790000Y-46365000D02*
X23687000Y-46365000D01*
X23687000Y-45075000D02*
X22790000Y-45075000D01*
X24583000Y-45075000D02*
X25480000Y-45075000D01*
X25480000Y-45075000D02*
X25480000Y-46365000D01*
X25480000Y-46365000D02*
X24583000Y-46365000D01*
D15*
%TO.C,G\u002A\u002A\u002A*%
G36*
X38693040Y-13785276D02*
G01*
X38697278Y-13786623D01*
X38701855Y-13788435D01*
X38706318Y-13790511D01*
X38710214Y-13792649D01*
X38711744Y-13793634D01*
X38717908Y-13798617D01*
X38723361Y-13804534D01*
X38727988Y-13811208D01*
X38731674Y-13818463D01*
X38734302Y-13826124D01*
X38734979Y-13829005D01*
X38735022Y-13829285D01*
X38735064Y-13829712D01*
X38735105Y-13830306D01*
X38735144Y-13831084D01*
X38735182Y-13832064D01*
X38735219Y-13833264D01*
X38735255Y-13834702D01*
X38735290Y-13836396D01*
X38735323Y-13838365D01*
X38735356Y-13840626D01*
X38735387Y-13843196D01*
X38735417Y-13846096D01*
X38735447Y-13849341D01*
X38735475Y-13852951D01*
X38735502Y-13856943D01*
X38735529Y-13861336D01*
X38735554Y-13866147D01*
X38735578Y-13871394D01*
X38735602Y-13877096D01*
X38735624Y-13883270D01*
X38735646Y-13889935D01*
X38735667Y-13897108D01*
X38735686Y-13904808D01*
X38735705Y-13913052D01*
X38735724Y-13921860D01*
X38735741Y-13931247D01*
X38735758Y-13941234D01*
X38735773Y-13951837D01*
X38735788Y-13963074D01*
X38735803Y-13974965D01*
X38735816Y-13987526D01*
X38735829Y-14000776D01*
X38735842Y-14014733D01*
X38735853Y-14029415D01*
X38735864Y-14044840D01*
X38735874Y-14061025D01*
X38735884Y-14077990D01*
X38735893Y-14095751D01*
X38735901Y-14114328D01*
X38735909Y-14133737D01*
X38735917Y-14153998D01*
X38735924Y-14175127D01*
X38735930Y-14197144D01*
X38735936Y-14220066D01*
X38735941Y-14243911D01*
X38735946Y-14268697D01*
X38735951Y-14294442D01*
X38735955Y-14321164D01*
X38735958Y-14348882D01*
X38735962Y-14377613D01*
X38735965Y-14407376D01*
X38735967Y-14438187D01*
X38735970Y-14470066D01*
X38735972Y-14503031D01*
X38735973Y-14537099D01*
X38735975Y-14572288D01*
X38735976Y-14608617D01*
X38735977Y-14646103D01*
X38735977Y-14684765D01*
X38735978Y-14724620D01*
X38735978Y-14765687D01*
X38735978Y-14807983D01*
X38735978Y-14833532D01*
X38735978Y-14876842D01*
X38735978Y-14918911D01*
X38735978Y-14959757D01*
X38735977Y-14999398D01*
X38735976Y-15037850D01*
X38735974Y-15075132D01*
X38735973Y-15111262D01*
X38735971Y-15146256D01*
X38735968Y-15180132D01*
X38735966Y-15212908D01*
X38735963Y-15244602D01*
X38735960Y-15275231D01*
X38735956Y-15304813D01*
X38735952Y-15333364D01*
X38735947Y-15360904D01*
X38735942Y-15387449D01*
X38735937Y-15413017D01*
X38735931Y-15437625D01*
X38735924Y-15461292D01*
X38735917Y-15484034D01*
X38735910Y-15505870D01*
X38735902Y-15526816D01*
X38735893Y-15546891D01*
X38735884Y-15566112D01*
X38735875Y-15584496D01*
X38735864Y-15602062D01*
X38735853Y-15618826D01*
X38735842Y-15634806D01*
X38735830Y-15650021D01*
X38735817Y-15664487D01*
X38735803Y-15678222D01*
X38735789Y-15691243D01*
X38735774Y-15703569D01*
X38735759Y-15715216D01*
X38735742Y-15726203D01*
X38735725Y-15736547D01*
X38735707Y-15746265D01*
X38735689Y-15755375D01*
X38735669Y-15763895D01*
X38735649Y-15771842D01*
X38735627Y-15779234D01*
X38735605Y-15786088D01*
X38735583Y-15792423D01*
X38735559Y-15798254D01*
X38735534Y-15803601D01*
X38735508Y-15808481D01*
X38735482Y-15812911D01*
X38735454Y-15816908D01*
X38735426Y-15820491D01*
X38735397Y-15823677D01*
X38735366Y-15826484D01*
X38735335Y-15828929D01*
X38735302Y-15831029D01*
X38735269Y-15832803D01*
X38735234Y-15834268D01*
X38735198Y-15835441D01*
X38735162Y-15836340D01*
X38735124Y-15836982D01*
X38735085Y-15837386D01*
X38735066Y-15837498D01*
X38732679Y-15845872D01*
X38729257Y-15853566D01*
X38724859Y-15860520D01*
X38719544Y-15866675D01*
X38713373Y-15871971D01*
X38706404Y-15876350D01*
X38698696Y-15879753D01*
X38690482Y-15882082D01*
X38690141Y-15882130D01*
X38689565Y-15882177D01*
X38688734Y-15882222D01*
X38687625Y-15882265D01*
X38686216Y-15882307D01*
X38684487Y-15882347D01*
X38682416Y-15882386D01*
X38679980Y-15882423D01*
X38677159Y-15882458D01*
X38673930Y-15882492D01*
X38670273Y-15882524D01*
X38666165Y-15882555D01*
X38661585Y-15882585D01*
X38656511Y-15882613D01*
X38650922Y-15882640D01*
X38644795Y-15882665D01*
X38638110Y-15882689D01*
X38630845Y-15882712D01*
X38622978Y-15882734D01*
X38614487Y-15882754D01*
X38605351Y-15882774D01*
X38595549Y-15882792D01*
X38585058Y-15882809D01*
X38573857Y-15882824D01*
X38561924Y-15882839D01*
X38549238Y-15882853D01*
X38535777Y-15882866D01*
X38521519Y-15882877D01*
X38506444Y-15882888D01*
X38490528Y-15882898D01*
X38473752Y-15882906D01*
X38456092Y-15882914D01*
X38437527Y-15882922D01*
X38418036Y-15882928D01*
X38397598Y-15882933D01*
X38376189Y-15882938D01*
X38353790Y-15882942D01*
X38330378Y-15882945D01*
X38305931Y-15882948D01*
X38280428Y-15882950D01*
X38253848Y-15882951D01*
X38226168Y-15882951D01*
X38197368Y-15882951D01*
X38167425Y-15882951D01*
X38136318Y-15882950D01*
X38104025Y-15882948D01*
X38070524Y-15882947D01*
X38035795Y-15882944D01*
X38023287Y-15882943D01*
X37988214Y-15882940D01*
X37954378Y-15882937D01*
X37921756Y-15882934D01*
X37890328Y-15882930D01*
X37860069Y-15882926D01*
X37830960Y-15882922D01*
X37802978Y-15882918D01*
X37776102Y-15882913D01*
X37750309Y-15882907D01*
X37725577Y-15882901D01*
X37701885Y-15882895D01*
X37679211Y-15882888D01*
X37657532Y-15882881D01*
X37636828Y-15882873D01*
X37617077Y-15882864D01*
X37598255Y-15882855D01*
X37580342Y-15882845D01*
X37563316Y-15882834D01*
X37547155Y-15882822D01*
X37531836Y-15882810D01*
X37517339Y-15882797D01*
X37503641Y-15882783D01*
X37490721Y-15882768D01*
X37478556Y-15882752D01*
X37467124Y-15882735D01*
X37456405Y-15882718D01*
X37446375Y-15882699D01*
X37437014Y-15882679D01*
X37428299Y-15882658D01*
X37420208Y-15882636D01*
X37412720Y-15882613D01*
X37405812Y-15882589D01*
X37399463Y-15882563D01*
X37393652Y-15882536D01*
X37388355Y-15882508D01*
X37383552Y-15882479D01*
X37379220Y-15882448D01*
X37375337Y-15882416D01*
X37371883Y-15882383D01*
X37368834Y-15882348D01*
X37366169Y-15882311D01*
X37363866Y-15882273D01*
X37361903Y-15882234D01*
X37360259Y-15882193D01*
X37358911Y-15882150D01*
X37357839Y-15882106D01*
X37357018Y-15882060D01*
X37356429Y-15882012D01*
X37356049Y-15881963D01*
X37355984Y-15881950D01*
X37348351Y-15879705D01*
X37341013Y-15876362D01*
X37334165Y-15872050D01*
X37327998Y-15866895D01*
X37322705Y-15861026D01*
X37321049Y-15858760D01*
X37318781Y-15854991D01*
X37316549Y-15850440D01*
X37314555Y-15845571D01*
X37313004Y-15840847D01*
X37312729Y-15839821D01*
X37311306Y-15834237D01*
X37311306Y-14833285D01*
X37311306Y-14790372D01*
X37311306Y-14748698D01*
X37311307Y-14708246D01*
X37311307Y-14668998D01*
X37311308Y-14630935D01*
X37311308Y-14594039D01*
X37311308Y-14590737D01*
X37689749Y-14590737D01*
X37689842Y-14598456D01*
X37690970Y-14606104D01*
X37693128Y-14613554D01*
X37696312Y-14620682D01*
X37700519Y-14627362D01*
X37705743Y-14633471D01*
X37707692Y-14635342D01*
X37714302Y-14640545D01*
X37721627Y-14644766D01*
X37729477Y-14647904D01*
X37732196Y-14648697D01*
X37736192Y-14649473D01*
X37740929Y-14649953D01*
X37745986Y-14650129D01*
X37750945Y-14649995D01*
X37755385Y-14649546D01*
X37757825Y-14649074D01*
X37764644Y-14646992D01*
X37771046Y-14644264D01*
X37776566Y-14641104D01*
X37777513Y-14640376D01*
X37779361Y-14638866D01*
X37782062Y-14636613D01*
X37785567Y-14633659D01*
X37789827Y-14630047D01*
X37794793Y-14625818D01*
X37800418Y-14621014D01*
X37806653Y-14615675D01*
X37813448Y-14609845D01*
X37820755Y-14603564D01*
X37828527Y-14596874D01*
X37836713Y-14589818D01*
X37845266Y-14582436D01*
X37854137Y-14574770D01*
X37863277Y-14566862D01*
X37872637Y-14558753D01*
X37874066Y-14557515D01*
X37966863Y-14477072D01*
X37967186Y-14899597D01*
X37967208Y-14927265D01*
X37967228Y-14953702D01*
X37967248Y-14978937D01*
X37967268Y-15002999D01*
X37967287Y-15025915D01*
X37967306Y-15047714D01*
X37967324Y-15068423D01*
X37967343Y-15088072D01*
X37967361Y-15106687D01*
X37967380Y-15124298D01*
X37967399Y-15140933D01*
X37967418Y-15156619D01*
X37967437Y-15171385D01*
X37967457Y-15185259D01*
X37967477Y-15198270D01*
X37967499Y-15210445D01*
X37967520Y-15221812D01*
X37967543Y-15232400D01*
X37967567Y-15242237D01*
X37967591Y-15251351D01*
X37967617Y-15259771D01*
X37967644Y-15267524D01*
X37967672Y-15274639D01*
X37967701Y-15281143D01*
X37967733Y-15287065D01*
X37967765Y-15292434D01*
X37967800Y-15297277D01*
X37967836Y-15301623D01*
X37967874Y-15305499D01*
X37967914Y-15308934D01*
X37967956Y-15311957D01*
X37968000Y-15314594D01*
X37968046Y-15316875D01*
X37968095Y-15318828D01*
X37968146Y-15320480D01*
X37968200Y-15321861D01*
X37968256Y-15322997D01*
X37968315Y-15323918D01*
X37968377Y-15324652D01*
X37968442Y-15325226D01*
X37968510Y-15325669D01*
X37968581Y-15326009D01*
X37968612Y-15326130D01*
X37971544Y-15334634D01*
X37975422Y-15342336D01*
X37980205Y-15349199D01*
X37985855Y-15355182D01*
X37992331Y-15360249D01*
X37999593Y-15364358D01*
X38007603Y-15367473D01*
X38012161Y-15368712D01*
X38015311Y-15369195D01*
X38019330Y-15369437D01*
X38023856Y-15369450D01*
X38028524Y-15369248D01*
X38032971Y-15368843D01*
X38036835Y-15368249D01*
X38038894Y-15367758D01*
X38046725Y-15364841D01*
X38053962Y-15360858D01*
X38060519Y-15355893D01*
X38066312Y-15350031D01*
X38071257Y-15343355D01*
X38075270Y-15335951D01*
X38078019Y-15328720D01*
X38079478Y-15324009D01*
X38079792Y-14900391D01*
X38080107Y-14476773D01*
X38172609Y-14556885D01*
X38181955Y-14564978D01*
X38191067Y-14572866D01*
X38199898Y-14580510D01*
X38208401Y-14587868D01*
X38216529Y-14594898D01*
X38224233Y-14601561D01*
X38231468Y-14607816D01*
X38238184Y-14613620D01*
X38244336Y-14618935D01*
X38249876Y-14623718D01*
X38254756Y-14627928D01*
X38258929Y-14631526D01*
X38262348Y-14634469D01*
X38264966Y-14636718D01*
X38266734Y-14638231D01*
X38267607Y-14638967D01*
X38267659Y-14639009D01*
X38270862Y-14641219D01*
X38274848Y-14643486D01*
X38279171Y-14645582D01*
X38283389Y-14647278D01*
X38284370Y-14647611D01*
X38292274Y-14649544D01*
X38300231Y-14650280D01*
X38308124Y-14649868D01*
X38315836Y-14648360D01*
X38323250Y-14645804D01*
X38330249Y-14642252D01*
X38336718Y-14637751D01*
X38342538Y-14632353D01*
X38347593Y-14626108D01*
X38351767Y-14619065D01*
X38351922Y-14618751D01*
X38354976Y-14611169D01*
X38356888Y-14603340D01*
X38357676Y-14595401D01*
X38357358Y-14587488D01*
X38355952Y-14579738D01*
X38353477Y-14572286D01*
X38349949Y-14565270D01*
X38345388Y-14558824D01*
X38343739Y-14556932D01*
X38343012Y-14556245D01*
X38341379Y-14554774D01*
X38338886Y-14552558D01*
X38335578Y-14549639D01*
X38331500Y-14546054D01*
X38326699Y-14541843D01*
X38321220Y-14537047D01*
X38315108Y-14531704D01*
X38308409Y-14525854D01*
X38301169Y-14519537D01*
X38293432Y-14512792D01*
X38285246Y-14505659D01*
X38276654Y-14498178D01*
X38267703Y-14490387D01*
X38258439Y-14482326D01*
X38248906Y-14474036D01*
X38239150Y-14465555D01*
X38229218Y-14456923D01*
X38219154Y-14448180D01*
X38209004Y-14439365D01*
X38198814Y-14430518D01*
X38188629Y-14421678D01*
X38178495Y-14412885D01*
X38168457Y-14404179D01*
X38158561Y-14395598D01*
X38148853Y-14387183D01*
X38139377Y-14378973D01*
X38130180Y-14371007D01*
X38121308Y-14363326D01*
X38112804Y-14355968D01*
X38104716Y-14348974D01*
X38097089Y-14342382D01*
X38089969Y-14336233D01*
X38083400Y-14330566D01*
X38077428Y-14325420D01*
X38072100Y-14320835D01*
X38067460Y-14316851D01*
X38063555Y-14313507D01*
X38060429Y-14310843D01*
X38058128Y-14308898D01*
X38056699Y-14307711D01*
X38056310Y-14307404D01*
X38052782Y-14305105D01*
X38048450Y-14302816D01*
X38043755Y-14300744D01*
X38039135Y-14299095D01*
X38037819Y-14298711D01*
X38035499Y-14298143D01*
X38033194Y-14297756D01*
X38030580Y-14297520D01*
X38027334Y-14297404D01*
X38023485Y-14297377D01*
X38019623Y-14297404D01*
X38016687Y-14297501D01*
X38014345Y-14297705D01*
X38012264Y-14298055D01*
X38010112Y-14298587D01*
X38008386Y-14299089D01*
X38000750Y-14301876D01*
X37994063Y-14305379D01*
X37989698Y-14308431D01*
X37988645Y-14309297D01*
X37986701Y-14310938D01*
X37983912Y-14313315D01*
X37980324Y-14316387D01*
X37975983Y-14320115D01*
X37970934Y-14324459D01*
X37965224Y-14329379D01*
X37958898Y-14334835D01*
X37952002Y-14340788D01*
X37944583Y-14347198D01*
X37936685Y-14354025D01*
X37928355Y-14361229D01*
X37919639Y-14368770D01*
X37910583Y-14376609D01*
X37901232Y-14384706D01*
X37891633Y-14393021D01*
X37881830Y-14401514D01*
X37871871Y-14410146D01*
X37861801Y-14418876D01*
X37851666Y-14427665D01*
X37841511Y-14436474D01*
X37831383Y-14445261D01*
X37821327Y-14453988D01*
X37811390Y-14462615D01*
X37801617Y-14471102D01*
X37792054Y-14479409D01*
X37782747Y-14487496D01*
X37773742Y-14495323D01*
X37765085Y-14502852D01*
X37756821Y-14510041D01*
X37748997Y-14516852D01*
X37741658Y-14523244D01*
X37734850Y-14529177D01*
X37728619Y-14534612D01*
X37723011Y-14539510D01*
X37718073Y-14543829D01*
X37713848Y-14547531D01*
X37710385Y-14550575D01*
X37707727Y-14552923D01*
X37705923Y-14554533D01*
X37705016Y-14555367D01*
X37704956Y-14555427D01*
X37699811Y-14561634D01*
X37695722Y-14568393D01*
X37692685Y-14575580D01*
X37690695Y-14583070D01*
X37689749Y-14590737D01*
X37311308Y-14590737D01*
X37311309Y-14558293D01*
X37311310Y-14523677D01*
X37311312Y-14490174D01*
X37311313Y-14457766D01*
X37311315Y-14426433D01*
X37311318Y-14396159D01*
X37311320Y-14366925D01*
X37311323Y-14338712D01*
X37311326Y-14311503D01*
X37311330Y-14285279D01*
X37311334Y-14260022D01*
X37311339Y-14235713D01*
X37311343Y-14212336D01*
X37311349Y-14189871D01*
X37311355Y-14168300D01*
X37311361Y-14147605D01*
X37311368Y-14127768D01*
X37311375Y-14108770D01*
X37311383Y-14090594D01*
X37311392Y-14073221D01*
X37311401Y-14056633D01*
X37311410Y-14040812D01*
X37311421Y-14025740D01*
X37311432Y-14011398D01*
X37311444Y-13997768D01*
X37311456Y-13984832D01*
X37311469Y-13972572D01*
X37311483Y-13960970D01*
X37311497Y-13950006D01*
X37311513Y-13939665D01*
X37311529Y-13929926D01*
X37311546Y-13920772D01*
X37311564Y-13912184D01*
X37311582Y-13904145D01*
X37311602Y-13896636D01*
X37311622Y-13889639D01*
X37311644Y-13883136D01*
X37311666Y-13877108D01*
X37311689Y-13871538D01*
X37311713Y-13866407D01*
X37311738Y-13861697D01*
X37311764Y-13857390D01*
X37311792Y-13853467D01*
X37311820Y-13849910D01*
X37311849Y-13846702D01*
X37311880Y-13843824D01*
X37311911Y-13841257D01*
X37311944Y-13838984D01*
X37311978Y-13836987D01*
X37312013Y-13835246D01*
X37312049Y-13833745D01*
X37312086Y-13832464D01*
X37312125Y-13831386D01*
X37312164Y-13830492D01*
X37312206Y-13829764D01*
X37312248Y-13829184D01*
X37312292Y-13828734D01*
X37312337Y-13828395D01*
X37312383Y-13828150D01*
X37312396Y-13828096D01*
X37315079Y-13819755D01*
X37318635Y-13812274D01*
X37323116Y-13805559D01*
X37327745Y-13800330D01*
X37333876Y-13795013D01*
X37340692Y-13790666D01*
X37348289Y-13787235D01*
X37355511Y-13784981D01*
X37355775Y-13784924D01*
X37356131Y-13784869D01*
X37356601Y-13784816D01*
X37357207Y-13784764D01*
X37357972Y-13784715D01*
X37358917Y-13784668D01*
X37360066Y-13784622D01*
X37361440Y-13784578D01*
X37363063Y-13784536D01*
X37364957Y-13784496D01*
X37367143Y-13784458D01*
X37369644Y-13784421D01*
X37372484Y-13784385D01*
X37375683Y-13784352D01*
X37379265Y-13784320D01*
X37383252Y-13784289D01*
X37387666Y-13784260D01*
X37392530Y-13784232D01*
X37397866Y-13784206D01*
X37403696Y-13784181D01*
X37410043Y-13784158D01*
X37416930Y-13784135D01*
X37424378Y-13784114D01*
X37432410Y-13784095D01*
X37441049Y-13784076D01*
X37450317Y-13784059D01*
X37460236Y-13784042D01*
X37470828Y-13784027D01*
X37482117Y-13784013D01*
X37494124Y-13784000D01*
X37506872Y-13783988D01*
X37520383Y-13783976D01*
X37534680Y-13783966D01*
X37549785Y-13783957D01*
X37565720Y-13783948D01*
X37582508Y-13783940D01*
X37600171Y-13783933D01*
X37618732Y-13783926D01*
X37638212Y-13783921D01*
X37658635Y-13783916D01*
X37680023Y-13783911D01*
X37702399Y-13783907D01*
X37725783Y-13783904D01*
X37750200Y-13783901D01*
X37775671Y-13783898D01*
X37802219Y-13783896D01*
X37829866Y-13783895D01*
X37858634Y-13783894D01*
X37888546Y-13783893D01*
X37919625Y-13783892D01*
X37951893Y-13783891D01*
X37985371Y-13783891D01*
X38020083Y-13783891D01*
X38023800Y-13783891D01*
X38687850Y-13783891D01*
X38693040Y-13785276D01*
G37*
D11*
%TO.C,R6*%
X12563000Y-25071000D02*
X13853000Y-25071000D01*
X12563000Y-25968000D02*
X12563000Y-25071000D01*
X12563000Y-26864000D02*
X12563000Y-27761000D01*
X12563000Y-27761000D02*
X13853000Y-27761000D01*
X13853000Y-25071000D02*
X13853000Y-25968000D01*
X13853000Y-27761000D02*
X13853000Y-26864000D01*
%TO.C,SW1*%
X50174000Y-5352000D02*
X50174000Y-13952000D01*
X54474000Y-5352000D02*
X54474000Y-13952000D01*
%TO.C,R7*%
X15865000Y-25071000D02*
X17155000Y-25071000D01*
X15865000Y-25968000D02*
X15865000Y-25071000D01*
X15865000Y-26864000D02*
X15865000Y-27761000D01*
X15865000Y-27761000D02*
X17155000Y-27761000D01*
X17155000Y-25071000D02*
X17155000Y-25968000D01*
X17155000Y-27761000D02*
X17155000Y-26864000D01*
%TO.C,R8*%
X22790000Y-43551000D02*
X22790000Y-44841000D01*
X22790000Y-44841000D02*
X23687000Y-44841000D01*
X23687000Y-43551000D02*
X22790000Y-43551000D01*
X24583000Y-43551000D02*
X25480000Y-43551000D01*
X25480000Y-43551000D02*
X25480000Y-44841000D01*
X25480000Y-44841000D02*
X24583000Y-44841000D01*
%TO.C,C1*%
X16861000Y-42831000D02*
X18191000Y-42831000D01*
X16861000Y-43741000D02*
X16861000Y-42831000D01*
X16861000Y-44651000D02*
X16861000Y-45561000D01*
X16861000Y-45561000D02*
X18191000Y-45561000D01*
X18191000Y-42831000D02*
X18191000Y-43741000D01*
X18191000Y-45561000D02*
X18191000Y-44651000D01*
%TO.C,R4*%
X9388000Y-25071000D02*
X10678000Y-25071000D01*
X9388000Y-25968000D02*
X9388000Y-25071000D01*
X9388000Y-26864000D02*
X9388000Y-27761000D01*
X9388000Y-27761000D02*
X10678000Y-27761000D01*
X10678000Y-25071000D02*
X10678000Y-25968000D01*
X10678000Y-27761000D02*
X10678000Y-26864000D01*
%TO.C,C3*%
X2256000Y-25051000D02*
X2256000Y-25961000D01*
X2256000Y-27781000D02*
X2256000Y-26871000D01*
X3586000Y-25051000D02*
X2256000Y-25051000D01*
X3586000Y-25961000D02*
X3586000Y-25051000D01*
X3586000Y-26871000D02*
X3586000Y-27781000D01*
X3586000Y-27781000D02*
X2256000Y-27781000D01*
%TO.C,Q3*%
X40475000Y-8610000D02*
X42075000Y-8610000D01*
X42075000Y-11710000D02*
X40475000Y-11710000D01*
D14*
X42575000Y-12060000D02*
X42075000Y-12060000D01*
X42325000Y-11810000D01*
X42575000Y-12060000D01*
G36*
X42575000Y-12060000D02*
G01*
X42075000Y-12060000D01*
X42325000Y-11810000D01*
X42575000Y-12060000D01*
G37*
%TD*%
M02*
