M48
; DRILL file {KiCad 9.0.4} date 2026-02-16T08:56:42-0500
; FORMAT={-:-/ absolute / metric / decimal}
; #@! TF.CreationDate,2026-02-16T08:56:42-05:00
; #@! TF.GenerationSoftware,Kicad,Pcbnew,9.0.4
; #@! TF.FileFunction,Plated,1,2,PTH
FMAT,2
METRIC
; #@! TA.AperFunction,Plated,PTH,ViaDrill
T1C0.350
; #@! TA.AperFunction,Plated,PTH,ViaDrill
T2C0.400
; #@! TA.AperFunction,Plated,PTH,ComponentDrill
T3C0.700
; #@! TA.AperFunction,Plated,PTH,ComponentDrill
T4C0.900
; #@! TA.AperFunction,Plated,PTH,ComponentDrill
T5C1.000
%
G90
G05
T1
X1.27Y-41.91
X2.54Y-7.62
X2.54Y-12.065
X2.54Y-16.51
X2.921Y-24.384
X3.175Y-36.195
X3.175Y-40.005
X3.302Y-43.561
X4.191Y-30.353
X4.445Y-21.59
X4.572Y-24.384
X4.884Y-31.914
X5.08Y-9.525
X5.08Y-41.91
X5.715Y-38.735
X5.715Y-43.815
X5.715Y-48.895
X6.35Y-1.27
X6.35Y-5.08
X6.985Y-19.05
X6.985Y-21.59
X6.985Y-24.13
X7.62Y-12.065
X8.255Y-41.275
X8.255Y-46.355
X8.382Y-31.75
X9.144Y-24.765
X9.144Y-28.448
X10.287Y-23.749
X10.541Y-22.352
X10.795Y-38.735
X10.795Y-43.815
X10.795Y-48.895
X11.151Y-24.892
X11.151Y-26.416
X11.162Y-27.432
X11.367Y-29.4
X12.065Y-4.445
X12.065Y-9.525
X12.09Y-24.892
X12.7Y-14.605
X12.7Y-17.145
X12.7Y-19.685
X12.954Y-23.749
X13.335Y-41.275
X13.335Y-46.355
X13.462Y-22.352
X14.529Y-21.234
X14.605Y-6.985
X14.605Y-12.065
X15.24Y-17.145
X15.875Y-1.905
X15.875Y-29.21
X15.875Y-33.655
X15.875Y-38.735
X15.875Y-43.815
X15.875Y-46.355
X15.875Y-48.895
X16.573Y-17.716
X17.145Y-4.445
X17.145Y-9.525
X17.145Y-14.605
X17.145Y-24.638
X17.653Y-16.637
X18.288Y-19.558
X18.288Y-20.955
X18.288Y-22.352
X18.288Y-23.749
X19.431Y-16.891
X19.431Y-18.415
X19.564Y-41.408
X19.685Y-1.905
X19.685Y-6.985
X19.685Y-12.065
X20.32Y-20.955
X20.32Y-22.352
X20.955Y-24.13
X20.955Y-25.527
X21.336Y-41.402
X21.59Y-3.81
X21.59Y-29.21
X21.59Y-34.29
X21.59Y-39.37
X22.225Y-9.525
X22.225Y-14.478
X22.225Y-16.51
X22.225Y-20.574
X22.987Y-22.352
X22.987Y-23.876
X23.495Y-1.905
X23.495Y-5.715
X23.495Y-27.305
X24.13Y-21.717
X24.13Y-31.75
X24.13Y-36.83
X24.13Y-41.91
X25.4Y-25.4
X26.035Y-29.845
X26.67Y-34.29
X26.67Y-39.37
X26.67Y-44.45
X26.86Y-23.685
X27.305Y-1.905
X27.305Y-5.715
X27.305Y-8.89
X27.305Y-13.97
X27.305Y-16.51
X27.305Y-19.05
X27.94Y-22.86
X27.94Y-27.94
X27.94Y-48.895
X28.575Y-32.385
X29.21Y-3.81
X29.21Y-10.795
X29.21Y-36.83
X29.21Y-41.91
X30.48Y-15.24
X30.48Y-20.32
X30.48Y-25.4
X30.48Y-30.48
X30.48Y-46.355
X31.115Y-1.905
X31.115Y-8.89
X31.115Y-12.7
X31.115Y-34.925
X31.75Y-39.37
X33.02Y-3.81
X33.02Y-17.78
X33.02Y-22.86
X33.02Y-27.94
X33.02Y-33.02
X33.02Y-43.815
X33.02Y-48.895
X33.655Y-37.465
X34.925Y-1.905
X34.925Y-5.715
X34.925Y-12.7
X35.56Y-15.24
X35.56Y-20.32
X35.56Y-25.4
X35.56Y-30.48
X35.56Y-35.56
X35.56Y-41.275
X35.56Y-46.355
X36.763Y-35.747
X36.83Y-10.795
X37.875Y-34.7
X38.1Y-27.94
X38.1Y-33.02
X38.1Y-38.735
X38.1Y-43.815
X38.1Y-48.895
X38.227Y-37.211
X38.608Y-10.033
X38.735Y-1.905
X38.989Y-6.858
X38.989Y-8.636
X38.989Y-11.938
X39.37Y-18.542
X39.37Y-20.32
X39.37Y-22.86
X39.878Y-36.703
X40.64Y-3.81
X40.64Y-25.4
X40.64Y-30.48
X40.64Y-41.275
X40.64Y-46.355
X41.91Y-20.32
X41.91Y-22.86
X42.545Y-1.905
X43.18Y-35.56
X43.18Y-38.735
X43.18Y-43.815
X43.18Y-48.895
X44.45Y-3.81
X44.45Y-20.32
X45.085Y-15.875
X45.72Y-33.02
X45.72Y-41.275
X45.72Y-46.355
X46.228Y-4.318
X46.355Y-1.905
X46.99Y-20.32
X46.99Y-22.86
X46.99Y-25.4
X47.117Y-4.318
X47.117Y-5.461
X47.117Y-6.35
X47.117Y-8.128
X47.117Y-9.271
X47.117Y-10.293
X47.625Y-17.78
X48.26Y-3.81
X48.26Y-13.97
X48.26Y-30.48
X48.26Y-35.56
X48.26Y-38.735
X48.26Y-43.815
X48.26Y-48.895
X49.53Y-22.86
X50.165Y-1.905
X50.165Y-5.715
X50.165Y-9.525
X50.8Y-16.51
X50.8Y-19.05
X50.8Y-27.94
X50.8Y-33.02
X50.8Y-41.275
X50.8Y-46.355
X52.07Y-3.81
X53.34Y-16.51
X53.34Y-19.05
X53.34Y-21.59
X53.34Y-25.4
X53.34Y-30.48
X53.34Y-35.56
X53.34Y-38.735
X53.34Y-43.815
X53.34Y-48.895
X55.88Y-6.35
X55.88Y-8.89
X55.88Y-11.43
X55.88Y-13.97
X55.88Y-16.51
X55.88Y-19.05
X55.88Y-21.59
X55.88Y-27.94
X55.88Y-33.02
X55.88Y-41.275
X55.88Y-46.355
X58.42Y-38.735
X58.42Y-43.815
X58.42Y-48.895
X59.055Y-16.891
X59.055Y-21.59
X59.055Y-24.13
X59.055Y-26.67
X59.055Y-29.21
X59.055Y-31.75
X59.055Y-34.29
X59.055Y-36.83
X60.96Y-41.275
X62.23Y-6.35
X62.23Y-11.43
X62.23Y-16.51
X62.23Y-21.59
X62.23Y-25.4
X62.23Y-30.48
X62.23Y-35.56
T2
X4.978Y-15.011
X5.842Y-28.575
X19.304Y-47.879
X21.59Y-43.561
X55.88Y-1.905
T4
X52.324Y-7.652
X52.324Y-9.652
X52.324Y-11.652
T5
X10.16Y-5.08
X10.16Y-7.62
X10.16Y-10.16
X10.16Y-12.7
X10.16Y-15.24
X10.16Y-17.78
X10.16Y-20.32
X25.4Y-5.08
X25.4Y-7.62
X25.4Y-10.16
X25.4Y-12.7
X25.4Y-15.24
X25.4Y-17.78
X25.4Y-20.32
X38.1Y-21.59
X40.64Y-21.59
X43.18Y-21.59
X45.72Y-21.59
T3
G00X51.924Y-5.552
M15
G01X52.724Y-5.552
M16
G05
G00X51.924Y-13.752
M15
G01X52.724Y-13.752
M16
G05
M30
