%TF.GenerationSoftware,KiCad,Pcbnew,9.0.4*%
%TF.CreationDate,2026-02-16T08:56:39-05:00*%
%TF.ProjectId,destinationWeatherStation_v4-5,64657374-696e-4617-9469-6f6e57656174,03*%
%TF.SameCoordinates,PX6bcb370PY43d3480*%
%TF.FileFunction,Legend,Top*%
%TF.FilePolarity,Positive*%
%FSLAX46Y46*%
G04 Gerber Fmt 4.6, Leading zero omitted, Abs format (unit mm)*
G04 Created by KiCad (PCBNEW 9.0.4) date 2026-02-16 08:56:39*
%MOMM*%
%LPD*%
G01*
G04 APERTURE LIST*
%ADD10C,0.150000*%
%ADD11C,0.120000*%
%ADD12C,0.300000*%
%ADD13C,0.250000*%
%ADD14C,0.100000*%
%ADD15C,0.000000*%
%ADD16C,0.200000*%
G04 APERTURE END LIST*
D10*
X43180000Y-14986000D02*
X43053000Y-15240000D01*
D11*
X50170000Y-16383000D02*
X50170000Y-13910000D01*
D10*
X43688000Y-14986000D02*
X42926000Y-14986000D01*
G36*
X30206950Y-1835150D02*
G01*
X38354000Y-1835150D01*
X38354000Y-2413000D01*
X30206950Y-2413000D01*
X30206950Y-1835150D01*
G37*
D12*
X62230000Y-12255500D02*
X62230000Y-10604500D01*
D11*
X37337000Y-17975000D02*
X38725000Y-17975000D01*
D12*
X62230000Y-18224500D02*
X62230000Y-19875500D01*
D11*
X42555000Y-15875000D02*
X43942000Y-15875000D01*
G36*
X31870650Y-2398800D02*
G01*
X36703000Y-2398800D01*
X36703000Y-2856000D01*
X31870650Y-2856000D01*
X31870650Y-2398800D01*
G37*
G36*
X1371600Y-13417550D02*
G01*
X2032000Y-13417550D01*
X2032000Y-19697700D01*
X1371600Y-19697700D01*
X1371600Y-13417550D01*
G37*
D12*
X61352500Y-34290000D02*
X63003500Y-34290000D01*
D11*
X54470000Y-2840000D02*
X54470000Y-5330000D01*
X37337000Y-15875000D02*
X38724000Y-15875000D01*
X50170000Y-2837000D02*
X54470000Y-2837000D01*
X42554000Y-16465000D02*
X42554000Y-17078000D01*
X38725000Y-13775000D02*
X37337000Y-13775000D01*
D10*
X63130500Y-34290000D02*
X62622500Y-34671000D01*
X62622500Y-33909000D01*
X63130500Y-34290000D01*
G36*
X63130500Y-34290000D02*
G01*
X62622500Y-34671000D01*
X62622500Y-33909000D01*
X63130500Y-34290000D01*
G37*
X38036500Y-16510000D02*
X38036500Y-17145000D01*
D11*
X38725000Y-14672000D02*
X38725000Y-15285000D01*
D10*
X43307000Y-14351000D02*
X43307000Y-14986000D01*
X43688000Y-14986000D02*
X43561000Y-15240000D01*
X37655500Y-17145000D02*
X37528500Y-17399000D01*
X38417500Y-17145000D02*
X38290500Y-17399000D01*
D11*
X42554000Y-13775000D02*
X43942000Y-13775000D01*
X37337000Y-13775000D02*
X37337000Y-15875000D01*
D10*
X61837500Y-27051000D02*
X61329500Y-26670000D01*
X61837500Y-26289000D01*
X61837500Y-27051000D01*
G36*
X61837500Y-27051000D02*
G01*
X61329500Y-26670000D01*
X61837500Y-26289000D01*
X61837500Y-27051000D01*
G37*
X62611000Y-10985500D02*
X61849000Y-10985500D01*
X62230000Y-10477500D01*
X62611000Y-10985500D01*
G36*
X62611000Y-10985500D02*
G01*
X61849000Y-10985500D01*
X62230000Y-10477500D01*
X62611000Y-10985500D01*
G37*
G36*
X1917700Y-28568650D02*
G01*
X3079750Y-28568650D01*
X3079750Y-41071800D01*
X1917700Y-41071800D01*
X1917700Y-28568650D01*
G37*
D11*
X43942000Y-13775000D02*
X43942000Y-15875000D01*
D10*
X37909500Y-17145000D02*
X37782500Y-17399000D01*
G36*
X1778000Y-14509750D02*
G01*
X2457450Y-14509750D01*
X2457450Y-18510250D01*
X1778000Y-18510250D01*
X1778000Y-14509750D01*
G37*
D11*
X50170000Y-5330000D02*
X50170000Y-2837000D01*
D10*
X43434000Y-14986000D02*
X43307000Y-15240000D01*
D11*
X43942000Y-15875000D02*
X43942000Y-17975000D01*
D12*
X63107500Y-26670000D02*
X61456500Y-26670000D01*
D11*
X37337000Y-15875000D02*
X37337000Y-17975000D01*
X50240000Y-16380000D02*
X50240000Y-14750000D01*
D10*
X42926000Y-14986000D02*
X42799000Y-15240000D01*
D11*
X54470000Y-16383000D02*
X50174000Y-16383000D01*
X43942000Y-17975000D02*
X42554000Y-17975000D01*
D10*
X38417500Y-17145000D02*
X37655500Y-17145000D01*
X62230000Y-20002500D02*
X61849000Y-19494500D01*
X62611000Y-19494500D01*
X62230000Y-20002500D01*
G36*
X62230000Y-20002500D02*
G01*
X61849000Y-19494500D01*
X62611000Y-19494500D01*
X62230000Y-20002500D01*
G37*
X38163500Y-17145000D02*
X38036500Y-17399000D01*
D11*
X54470000Y-13930000D02*
X54470000Y-16383000D01*
D10*
G36*
X1485363Y-42022931D02*
G01*
X1477962Y-42109863D01*
X1458244Y-42173697D01*
X1428521Y-42219978D01*
X1386398Y-42254338D01*
X1330178Y-42276228D01*
X1255359Y-42284265D01*
X1188735Y-42278610D01*
X1136771Y-42263146D01*
X1096358Y-42239234D01*
X1065291Y-42206950D01*
X1037124Y-42151781D01*
X1016912Y-42065430D01*
X1008914Y-41936078D01*
X1008914Y-41699947D01*
X1485363Y-41699947D01*
X1485363Y-42022931D01*
G37*
G36*
X1490326Y-40958907D02*
G01*
X1486119Y-41002408D01*
X1476445Y-41024434D01*
X1458970Y-41037341D01*
X1429529Y-41042270D01*
X1342677Y-41042270D01*
X1313236Y-41037341D01*
X1295761Y-41024434D01*
X1286087Y-41002408D01*
X1281880Y-40958907D01*
X1281880Y-40540463D01*
X1490326Y-40540463D01*
X1490326Y-40958907D01*
G37*
G36*
X1483967Y-39622848D02*
G01*
X1172693Y-39798260D01*
X1172693Y-39453563D01*
X1483967Y-39622848D01*
G37*
G36*
X1624328Y-36254357D02*
G01*
X1619060Y-36329570D01*
X1604490Y-36390637D01*
X1581915Y-36440132D01*
X1551821Y-36480096D01*
X1513405Y-36512180D01*
X1466399Y-36535896D01*
X1408993Y-36551039D01*
X1338799Y-36556480D01*
X1260080Y-36549788D01*
X1198265Y-36531431D01*
X1149811Y-36502959D01*
X1112207Y-36464432D01*
X1085471Y-36417988D01*
X1063935Y-36353791D01*
X1049203Y-36266990D01*
X1043655Y-36151917D01*
X1043655Y-35875849D01*
X1624328Y-35875849D01*
X1624328Y-36254357D01*
G37*
G36*
X1480400Y-33657770D02*
G01*
X1013877Y-33657770D01*
X1013877Y-33051817D01*
X1480400Y-33051817D01*
X1480400Y-33657770D01*
G37*
G36*
X1490326Y-32330706D02*
G01*
X1486119Y-32374207D01*
X1476445Y-32396233D01*
X1458970Y-32409140D01*
X1429529Y-32414069D01*
X1342677Y-32414069D01*
X1313236Y-32409140D01*
X1295761Y-32396233D01*
X1286087Y-32374207D01*
X1281880Y-32330706D01*
X1281880Y-31912262D01*
X1490326Y-31912262D01*
X1490326Y-32330706D01*
G37*
G36*
X1929218Y-42613738D02*
G01*
X728839Y-42613738D01*
X728839Y-41936078D01*
X869950Y-41936078D01*
X869950Y-41975162D01*
X877097Y-42103248D01*
X896591Y-42205251D01*
X926111Y-42285813D01*
X964247Y-42348861D01*
X1015880Y-42401866D01*
X1078555Y-42440074D01*
X1154545Y-42464068D01*
X1247216Y-42472627D01*
X1335209Y-42464648D01*
X1408735Y-42442118D01*
X1470622Y-42406029D01*
X1522819Y-42355841D01*
X1562739Y-42295636D01*
X1592867Y-42221768D01*
X1612338Y-42131433D01*
X1619365Y-42021225D01*
X1619365Y-41515075D01*
X869950Y-41515075D01*
X869950Y-41936078D01*
X728839Y-41936078D01*
X728839Y-40540463D01*
X869950Y-40540463D01*
X1152841Y-40540463D01*
X1152841Y-40713238D01*
X869950Y-41028389D01*
X869950Y-41291429D01*
X1152841Y-40933782D01*
X1152841Y-40958907D01*
X1152841Y-41037075D01*
X1157398Y-41098441D01*
X1169267Y-41141768D01*
X1186574Y-41171619D01*
X1212086Y-41193764D01*
X1247619Y-41208028D01*
X1296614Y-41213339D01*
X1473809Y-41213339D01*
X1523397Y-41208018D01*
X1559326Y-41193740D01*
X1585089Y-41171619D01*
X1602695Y-41141721D01*
X1614743Y-41098389D01*
X1619365Y-41037075D01*
X1619365Y-40359933D01*
X869950Y-40359933D01*
X869950Y-40540463D01*
X728839Y-40540463D01*
X728839Y-39280788D01*
X869950Y-39280788D01*
X1033729Y-39375395D01*
X1033729Y-39798260D01*
X1033729Y-39872860D01*
X869950Y-39967545D01*
X869950Y-40173277D01*
X1619365Y-39720092D01*
X1619365Y-39543827D01*
X869950Y-39097621D01*
X869950Y-39280788D01*
X728839Y-39280788D01*
X728839Y-38064306D01*
X869950Y-38064306D01*
X869950Y-38612099D01*
X876479Y-38700195D01*
X892852Y-38757166D01*
X915780Y-38792241D01*
X950001Y-38816105D01*
X1004667Y-38832899D01*
X1088245Y-38839545D01*
X1197586Y-38839545D01*
X1242176Y-38625980D01*
X1043655Y-38625980D01*
X1043655Y-38050348D01*
X1624328Y-38050348D01*
X1624328Y-38625980D01*
X1450622Y-38625980D01*
X1484510Y-38839545D01*
X1571363Y-38839545D01*
X1653688Y-38832932D01*
X1707889Y-38816167D01*
X1742122Y-38792241D01*
X1765134Y-38757151D01*
X1781558Y-38700178D01*
X1788107Y-38612099D01*
X1788107Y-38064306D01*
X1781534Y-37975569D01*
X1765089Y-37918499D01*
X1742122Y-37883622D01*
X1707934Y-37859952D01*
X1653739Y-37843340D01*
X1571363Y-37836783D01*
X1088245Y-37836783D01*
X1004616Y-37843373D01*
X949956Y-37860013D01*
X915780Y-37883622D01*
X892896Y-37918485D01*
X876504Y-37975552D01*
X869950Y-38064306D01*
X728839Y-38064306D01*
X728839Y-36151917D01*
X869950Y-36151917D01*
X869950Y-36197903D01*
X874657Y-36330602D01*
X886855Y-36425814D01*
X909815Y-36509934D01*
X941215Y-36574704D01*
X985375Y-36634074D01*
X1039019Y-36683628D01*
X1103134Y-36724060D01*
X1173507Y-36753127D01*
X1250277Y-36770911D01*
X1334689Y-36777024D01*
X1421838Y-36770986D01*
X1497277Y-36753810D01*
X1562852Y-36726412D01*
X1620051Y-36689020D01*
X1669925Y-36641162D01*
X1719041Y-36570682D01*
X1755878Y-36484677D01*
X1779577Y-36379974D01*
X1788107Y-36252651D01*
X1788107Y-35662285D01*
X869950Y-35662285D01*
X869950Y-36151917D01*
X728839Y-36151917D01*
X728839Y-34423935D01*
X869950Y-34423935D01*
X869950Y-34990804D01*
X876555Y-35080113D01*
X893083Y-35137583D01*
X916168Y-35172730D01*
X950647Y-35196644D01*
X1005245Y-35213416D01*
X1088167Y-35220034D01*
X1213561Y-35220034D01*
X1296048Y-35213421D01*
X1350378Y-35196654D01*
X1384707Y-35172730D01*
X1407708Y-35137598D01*
X1424184Y-35080131D01*
X1430770Y-34990804D01*
X1430770Y-34418662D01*
X1629291Y-34418662D01*
X1629291Y-35019497D01*
X1525067Y-35019497D01*
X1569347Y-35207859D01*
X1588501Y-35207859D01*
X1661513Y-35201230D01*
X1711271Y-35184070D01*
X1744216Y-35158771D01*
X1766266Y-35122925D01*
X1781915Y-35066245D01*
X1788107Y-34980413D01*
X1788107Y-34459529D01*
X1781572Y-34370758D01*
X1765231Y-34313693D01*
X1742432Y-34278844D01*
X1708445Y-34255160D01*
X1654614Y-34238556D01*
X1572836Y-34232006D01*
X1470397Y-34232006D01*
X1387423Y-34238567D01*
X1332832Y-34255187D01*
X1298397Y-34278844D01*
X1275261Y-34313752D01*
X1258714Y-34370826D01*
X1252102Y-34459529D01*
X1252102Y-35031594D01*
X1043655Y-35031594D01*
X1043655Y-34383068D01*
X1152841Y-34383068D01*
X1113525Y-34194706D01*
X1088167Y-34194706D01*
X1005245Y-34201323D01*
X950647Y-34218096D01*
X916168Y-34242010D01*
X893083Y-34277157D01*
X876555Y-34334626D01*
X869950Y-34423935D01*
X728839Y-34423935D01*
X728839Y-33063991D01*
X869950Y-33063991D01*
X869950Y-33645595D01*
X870805Y-33657770D01*
X875306Y-33721863D01*
X888664Y-33770783D01*
X907172Y-33800534D01*
X935207Y-33821008D01*
X979726Y-33835301D01*
X1047532Y-33840936D01*
X1441627Y-33840936D01*
X1509365Y-33835410D01*
X1553869Y-33821403D01*
X1581909Y-33801387D01*
X1600459Y-33772088D01*
X1613931Y-33723053D01*
X1619365Y-33645595D01*
X1619365Y-33063991D01*
X1613956Y-32987142D01*
X1600502Y-32938146D01*
X1581909Y-32908587D01*
X1553832Y-32888357D01*
X1509322Y-32874222D01*
X1441627Y-32868650D01*
X1047532Y-32868650D01*
X979674Y-32874230D01*
X935162Y-32888371D01*
X907172Y-32908587D01*
X888704Y-32938124D01*
X875329Y-32987116D01*
X869950Y-33063991D01*
X728839Y-33063991D01*
X728839Y-31912262D01*
X869950Y-31912262D01*
X1152841Y-31912262D01*
X1152841Y-32085037D01*
X869950Y-32400188D01*
X869950Y-32663228D01*
X1152841Y-32305581D01*
X1152841Y-32330706D01*
X1152841Y-32408874D01*
X1157398Y-32470240D01*
X1169267Y-32513567D01*
X1186574Y-32543418D01*
X1212086Y-32565563D01*
X1247619Y-32579827D01*
X1296614Y-32585138D01*
X1473809Y-32585138D01*
X1523397Y-32579817D01*
X1559326Y-32565539D01*
X1585089Y-32543418D01*
X1602695Y-32513520D01*
X1614743Y-32470188D01*
X1619365Y-32408874D01*
X1619365Y-31731732D01*
X869950Y-31731732D01*
X869950Y-31912262D01*
X728839Y-31912262D01*
X728839Y-30764875D01*
X869950Y-30764875D01*
X869950Y-31234500D01*
X875366Y-31311314D01*
X888884Y-31360669D01*
X907637Y-31390758D01*
X935929Y-31411536D01*
X980376Y-31425961D01*
X1047532Y-31431625D01*
X1135548Y-31431625D01*
X1172693Y-31246675D01*
X1013877Y-31246675D01*
X1013877Y-30752700D01*
X1480400Y-30752700D01*
X1480400Y-31246675D01*
X1341436Y-31246675D01*
X1368345Y-31431625D01*
X1441317Y-31431625D01*
X1509069Y-31425998D01*
X1553661Y-31411709D01*
X1581832Y-31391223D01*
X1600457Y-31361408D01*
X1613942Y-31311993D01*
X1619365Y-31234500D01*
X1619365Y-30764875D01*
X1613971Y-30688641D01*
X1600510Y-30639685D01*
X1581832Y-30609858D01*
X1553668Y-30589415D01*
X1509077Y-30575152D01*
X1441317Y-30569534D01*
X1047532Y-30569534D01*
X979769Y-30575214D01*
X935244Y-30589634D01*
X907172Y-30610324D01*
X888621Y-30640336D01*
X875282Y-30689213D01*
X869950Y-30764875D01*
X728839Y-30764875D01*
X728839Y-30252676D01*
X869950Y-30252676D01*
X1619365Y-30252676D01*
X1619365Y-30070363D01*
X869950Y-30070363D01*
X869950Y-30252676D01*
X728839Y-30252676D01*
X728839Y-28853494D01*
X869950Y-28853494D01*
X1373618Y-28853494D01*
X959982Y-29193771D01*
X959982Y-29229365D01*
X1385715Y-29565376D01*
X869950Y-29565376D01*
X869950Y-29735515D01*
X1619365Y-29735515D01*
X1619365Y-29587943D01*
X1174555Y-29221610D01*
X1619365Y-28853494D01*
X1619365Y-28706775D01*
X869950Y-28706775D01*
X869950Y-28853494D01*
X728839Y-28853494D01*
X728839Y-28565664D01*
X1929218Y-28565664D01*
X1929218Y-42613738D01*
G37*
G36*
X28153333Y-47443705D02*
G01*
X28196650Y-47465313D01*
X28233636Y-47496948D01*
X28258444Y-47532968D01*
X28371833Y-47761274D01*
X28389779Y-47803448D01*
X28400405Y-47846405D01*
X28403951Y-47890662D01*
X28400355Y-47931805D01*
X28389240Y-47974609D01*
X28369818Y-48019683D01*
X28255696Y-48246218D01*
X28229058Y-48285602D01*
X28192864Y-48316438D01*
X28149694Y-48336302D01*
X28101334Y-48343000D01*
X27882065Y-48343000D01*
X27859939Y-48338698D01*
X27841399Y-48325780D01*
X27828824Y-48306892D01*
X27824668Y-48285053D01*
X27828844Y-48262584D01*
X27841399Y-48243348D01*
X27859968Y-48230143D01*
X27882065Y-48225763D01*
X27942149Y-48225763D01*
X27942149Y-47553607D01*
X28056943Y-47553607D01*
X28056943Y-48225763D01*
X28097243Y-48225763D01*
X28120505Y-48222426D01*
X28139200Y-48210890D01*
X28154579Y-48189798D01*
X28268030Y-47965522D01*
X28284577Y-47922427D01*
X28289218Y-47891028D01*
X28284935Y-47854308D01*
X28272121Y-47819892D01*
X28154640Y-47587190D01*
X28139754Y-47567915D01*
X28120222Y-47556537D01*
X28094496Y-47552508D01*
X28056943Y-47553607D01*
X27942149Y-47553607D01*
X27883409Y-47553607D01*
X27861311Y-47549226D01*
X27842742Y-47536021D01*
X27830188Y-47516785D01*
X27826012Y-47494317D01*
X27830169Y-47472488D01*
X27842742Y-47453650D01*
X27861287Y-47440685D01*
X27883409Y-47436370D01*
X28110249Y-47436370D01*
X28153333Y-47443705D01*
G37*
G36*
X29084784Y-47687899D02*
G01*
X29122667Y-47704289D01*
X29160860Y-47733430D01*
X29203908Y-47774646D01*
X29228819Y-47805555D01*
X29244609Y-47846204D01*
X29250375Y-47899638D01*
X29250375Y-48039100D01*
X29246144Y-48060796D01*
X29233278Y-48079645D01*
X29214585Y-48092556D01*
X29192978Y-48096803D01*
X28787229Y-48096803D01*
X28787229Y-48130386D01*
X28793382Y-48157255D01*
X28812509Y-48180334D01*
X28845970Y-48208422D01*
X28873789Y-48224826D01*
X28897871Y-48229671D01*
X29192978Y-48229671D01*
X29214631Y-48233786D01*
X29233278Y-48246218D01*
X29246106Y-48264504D01*
X29250375Y-48286335D01*
X29246072Y-48307624D01*
X29232912Y-48326147D01*
X29214041Y-48338865D01*
X29192978Y-48343000D01*
X28890361Y-48343000D01*
X28860199Y-48339970D01*
X28827163Y-48330360D01*
X28796710Y-48316488D01*
X28778315Y-48303982D01*
X28727085Y-48258797D01*
X28705699Y-48236623D01*
X28687151Y-48205491D01*
X28674829Y-48171500D01*
X28671092Y-48142476D01*
X28671092Y-47890723D01*
X28788634Y-47890723D01*
X28788634Y-47979566D01*
X29136985Y-47979566D01*
X29136985Y-47899577D01*
X29131767Y-47870548D01*
X29117202Y-47850362D01*
X29083679Y-47820991D01*
X29057582Y-47804426D01*
X29037273Y-47799803D01*
X28893170Y-47799803D01*
X28867906Y-47804333D01*
X28844627Y-47818244D01*
X28811165Y-47846271D01*
X28794217Y-47866031D01*
X28788634Y-47890723D01*
X28671092Y-47890723D01*
X28671092Y-47878999D01*
X28674754Y-47854967D01*
X28688494Y-47818122D01*
X28708842Y-47783251D01*
X28732580Y-47758526D01*
X28780391Y-47720913D01*
X28813425Y-47699374D01*
X28847993Y-47686782D01*
X28884927Y-47682567D01*
X29046127Y-47682567D01*
X29084784Y-47687899D01*
G37*
G36*
X29678105Y-47682567D02*
G01*
X29941094Y-47682567D01*
X29980833Y-47686704D01*
X30016737Y-47698840D01*
X30049721Y-47719142D01*
X30078063Y-47745877D01*
X30092515Y-47769286D01*
X30096860Y-47790644D01*
X30092442Y-47813157D01*
X30079396Y-47831005D01*
X30060807Y-47842878D01*
X30040867Y-47846698D01*
X30015430Y-47840705D01*
X29990980Y-47821297D01*
X29966917Y-47801712D01*
X29943841Y-47795896D01*
X29684272Y-47795896D01*
X29661884Y-47799927D01*
X29650139Y-47810233D01*
X29645987Y-47827769D01*
X29651927Y-47846940D01*
X29671266Y-47861719D01*
X29976631Y-47999350D01*
X30018578Y-48025846D01*
X30052774Y-48065418D01*
X30075037Y-48113279D01*
X30082510Y-48166412D01*
X30076618Y-48213487D01*
X30059384Y-48254734D01*
X30030242Y-48291647D01*
X29992972Y-48320697D01*
X29953858Y-48337426D01*
X29911724Y-48343000D01*
X29679449Y-48343000D01*
X29640469Y-48339012D01*
X29603462Y-48327087D01*
X29567707Y-48306790D01*
X29536380Y-48279964D01*
X29520776Y-48256952D01*
X29516172Y-48236326D01*
X29520284Y-48215202D01*
X29532903Y-48196332D01*
X29551845Y-48183346D01*
X29576317Y-48178868D01*
X29597411Y-48184414D01*
X29623090Y-48204270D01*
X29641242Y-48217889D01*
X29664728Y-48226528D01*
X29695141Y-48229671D01*
X29909037Y-48229671D01*
X29932166Y-48224767D01*
X29951352Y-48209887D01*
X29964193Y-48188574D01*
X29968449Y-48164397D01*
X29964178Y-48140411D01*
X29951841Y-48121864D01*
X29930164Y-48107427D01*
X29622113Y-47968331D01*
X29582410Y-47943740D01*
X29553725Y-47910934D01*
X29535620Y-47872341D01*
X29529850Y-47834364D01*
X29534628Y-47795015D01*
X29548689Y-47759830D01*
X29572531Y-47727691D01*
X29603364Y-47702541D01*
X29638111Y-47687665D01*
X29678105Y-47682567D01*
G37*
G36*
X30765658Y-48343000D02*
G01*
X30650924Y-48343000D01*
X30605613Y-48337320D01*
X30565296Y-48320606D01*
X30528620Y-48292197D01*
X30499985Y-48255748D01*
X30483127Y-48215486D01*
X30477390Y-48170015D01*
X30477390Y-47795896D01*
X30418650Y-47795896D01*
X30396442Y-47791821D01*
X30377983Y-47779714D01*
X30365482Y-47761616D01*
X30361252Y-47739231D01*
X30365442Y-47717371D01*
X30377983Y-47699114D01*
X30396470Y-47686722D01*
X30418650Y-47682567D01*
X30478794Y-47682567D01*
X30478794Y-47540967D01*
X30482988Y-47518729D01*
X30495525Y-47500117D01*
X30514036Y-47487486D01*
X30536191Y-47483265D01*
X30557226Y-47487478D01*
X30576125Y-47500484D01*
X30589229Y-47519306D01*
X30593527Y-47540967D01*
X30593527Y-47682567D01*
X30824398Y-47682567D01*
X30846028Y-47686748D01*
X30864698Y-47699420D01*
X30877570Y-47717914D01*
X30881795Y-47739231D01*
X30877528Y-47761073D01*
X30864698Y-47779409D01*
X30846056Y-47791794D01*
X30824398Y-47795896D01*
X30592184Y-47795896D01*
X30592184Y-48171724D01*
X30596484Y-48193512D01*
X30609586Y-48212452D01*
X30628724Y-48225396D01*
X30650924Y-48229671D01*
X30762971Y-48229671D01*
X30789969Y-48224295D01*
X30809709Y-48208777D01*
X30823787Y-48180822D01*
X30837736Y-48152611D01*
X30856651Y-48137220D01*
X30881856Y-48131974D01*
X30905024Y-48136207D01*
X30923133Y-48148521D01*
X30935092Y-48166911D01*
X30939192Y-48189981D01*
X30934298Y-48222383D01*
X30918800Y-48256053D01*
X30890344Y-48292136D01*
X30855028Y-48320247D01*
X30814045Y-48337136D01*
X30765658Y-48343000D01*
G37*
G36*
X31437264Y-47385568D02*
G01*
X31497348Y-47385568D01*
X31519522Y-47389736D01*
X31538015Y-47402176D01*
X31550554Y-47420551D01*
X31554745Y-47442537D01*
X31554745Y-47491386D01*
X31550576Y-47513487D01*
X31538015Y-47532419D01*
X31519470Y-47545384D01*
X31497348Y-47549699D01*
X31435921Y-47549699D01*
X31413251Y-47545273D01*
X31394583Y-47532052D01*
X31382085Y-47513106D01*
X31378524Y-47492729D01*
X31379867Y-47442537D01*
X31384058Y-47420551D01*
X31396598Y-47402176D01*
X31415090Y-47389736D01*
X31437264Y-47385568D01*
G37*
G36*
X31670883Y-48343000D02*
G01*
X31321127Y-48343000D01*
X31298943Y-48338858D01*
X31280460Y-48326513D01*
X31267917Y-48308206D01*
X31263730Y-48286335D01*
X31267876Y-48264990D01*
X31280460Y-48246524D01*
X31298972Y-48233893D01*
X31321127Y-48229671D01*
X31438608Y-48229671D01*
X31438608Y-47799803D01*
X31322531Y-47799803D01*
X31300405Y-47795502D01*
X31281865Y-47782584D01*
X31269289Y-47763696D01*
X31265134Y-47741857D01*
X31269310Y-47719388D01*
X31281865Y-47700152D01*
X31300434Y-47686947D01*
X31322531Y-47682567D01*
X31497348Y-47682567D01*
X31519451Y-47686934D01*
X31538015Y-47700091D01*
X31550568Y-47719217D01*
X31554745Y-47741613D01*
X31554745Y-48229671D01*
X31669539Y-48229671D01*
X31691781Y-48233802D01*
X31710816Y-48246218D01*
X31723932Y-48264533D01*
X31728280Y-48286335D01*
X31724013Y-48308177D01*
X31711183Y-48326513D01*
X31692541Y-48338898D01*
X31670883Y-48343000D01*
G37*
G36*
X32323988Y-47816290D02*
G01*
X32167550Y-47920948D01*
X32167550Y-48285908D01*
X32163325Y-48307362D01*
X32150453Y-48326025D01*
X32131783Y-48338795D01*
X32110214Y-48343000D01*
X32088588Y-48338781D01*
X32069853Y-48325964D01*
X32057036Y-48307229D01*
X32052817Y-48285602D01*
X32052817Y-47741307D01*
X32056991Y-47719027D01*
X32069548Y-47699969D01*
X32088102Y-47686908D01*
X32110214Y-47682567D01*
X32131736Y-47686902D01*
X32150453Y-47700152D01*
X32163295Y-47719357D01*
X32167550Y-47741735D01*
X32167550Y-47780264D01*
X32272086Y-47716272D01*
X32308396Y-47697652D01*
X32347760Y-47686409D01*
X32390972Y-47682567D01*
X32444217Y-47682567D01*
X32487819Y-47687982D01*
X32526779Y-47703932D01*
X32562369Y-47731049D01*
X32590425Y-47765940D01*
X32607821Y-47805345D01*
X32615003Y-47850606D01*
X32630696Y-48285602D01*
X32627012Y-48307225D01*
X32614332Y-48325964D01*
X32595512Y-48338752D01*
X32573360Y-48343000D01*
X32552187Y-48339170D01*
X32533670Y-48327612D01*
X32520899Y-48309763D01*
X32515963Y-48285480D01*
X32498866Y-47856162D01*
X32493805Y-47828860D01*
X32482158Y-47810999D01*
X32463779Y-47800011D01*
X32436034Y-47795896D01*
X32379981Y-47795896D01*
X32354228Y-47800558D01*
X32323988Y-47816290D01*
G37*
G36*
X33333287Y-47688187D02*
G01*
X33373245Y-47704654D01*
X33409220Y-47732515D01*
X33437361Y-47768368D01*
X33454642Y-47808739D01*
X33461488Y-47855002D01*
X33475776Y-48285541D01*
X33471503Y-48307688D01*
X33458679Y-48326269D01*
X33440027Y-48338848D01*
X33418440Y-48343000D01*
X33395663Y-48338706D01*
X33376736Y-48325903D01*
X33363972Y-48307005D01*
X33359700Y-48284381D01*
X33262674Y-48343000D01*
X33068684Y-48343000D01*
X33022490Y-48337292D01*
X32981980Y-48320609D01*
X32945708Y-48292441D01*
X32917538Y-48256132D01*
X32900856Y-48215600D01*
X32895150Y-48169404D01*
X32895150Y-48103642D01*
X33011287Y-48103642D01*
X33011287Y-48168122D01*
X33015507Y-48189811D01*
X33028323Y-48208605D01*
X33047067Y-48221518D01*
X33068684Y-48225763D01*
X33230556Y-48225763D01*
X33355548Y-48151513D01*
X33352128Y-48103153D01*
X33347456Y-48080565D01*
X33335031Y-48062364D01*
X33316862Y-48050127D01*
X33294731Y-48046000D01*
X33068684Y-48046000D01*
X33046529Y-48050222D01*
X33028018Y-48062853D01*
X33015483Y-48081414D01*
X33011287Y-48103642D01*
X32895150Y-48103642D01*
X32895150Y-48102359D01*
X32900860Y-48056618D01*
X32917614Y-48016194D01*
X32946013Y-47979688D01*
X32982523Y-47951252D01*
X33022947Y-47934480D01*
X33068684Y-47928764D01*
X33293388Y-47928764D01*
X33346694Y-47937190D01*
X33345351Y-47854392D01*
X33341146Y-47831807D01*
X33328620Y-47812993D01*
X33310090Y-47800170D01*
X33287953Y-47795896D01*
X33070028Y-47795896D01*
X33048387Y-47791716D01*
X33029667Y-47779043D01*
X33016843Y-47760553D01*
X33012631Y-47739231D01*
X33016820Y-47717371D01*
X33029361Y-47699114D01*
X33047849Y-47686722D01*
X33070028Y-47682567D01*
X33287953Y-47682567D01*
X33333287Y-47688187D01*
G37*
G36*
X34145979Y-48343000D02*
G01*
X34031245Y-48343000D01*
X33985934Y-48337320D01*
X33945617Y-48320606D01*
X33908941Y-48292197D01*
X33880306Y-48255748D01*
X33863448Y-48215486D01*
X33857711Y-48170015D01*
X33857711Y-47795896D01*
X33798971Y-47795896D01*
X33776763Y-47791821D01*
X33758304Y-47779714D01*
X33745803Y-47761616D01*
X33741573Y-47739231D01*
X33745763Y-47717371D01*
X33758304Y-47699114D01*
X33776791Y-47686722D01*
X33798971Y-47682567D01*
X33859115Y-47682567D01*
X33859115Y-47540967D01*
X33863309Y-47518729D01*
X33875846Y-47500117D01*
X33894357Y-47487486D01*
X33916512Y-47483265D01*
X33937547Y-47487478D01*
X33956446Y-47500484D01*
X33969550Y-47519306D01*
X33973848Y-47540967D01*
X33973848Y-47682567D01*
X34204719Y-47682567D01*
X34226349Y-47686748D01*
X34245019Y-47699420D01*
X34257891Y-47717914D01*
X34262116Y-47739231D01*
X34257849Y-47761073D01*
X34245019Y-47779409D01*
X34226377Y-47791794D01*
X34204719Y-47795896D01*
X33972505Y-47795896D01*
X33972505Y-48171724D01*
X33976805Y-48193512D01*
X33989907Y-48212452D01*
X34009045Y-48225396D01*
X34031245Y-48229671D01*
X34143292Y-48229671D01*
X34170290Y-48224295D01*
X34190030Y-48208777D01*
X34204108Y-48180822D01*
X34218057Y-48152611D01*
X34236972Y-48137220D01*
X34262177Y-48131974D01*
X34285345Y-48136207D01*
X34303454Y-48148521D01*
X34315413Y-48166911D01*
X34319513Y-48189981D01*
X34314619Y-48222383D01*
X34299121Y-48256053D01*
X34270665Y-48292136D01*
X34235349Y-48320247D01*
X34194366Y-48337136D01*
X34145979Y-48343000D01*
G37*
G36*
X34817585Y-47385568D02*
G01*
X34877669Y-47385568D01*
X34899843Y-47389736D01*
X34918336Y-47402176D01*
X34930875Y-47420551D01*
X34935066Y-47442537D01*
X34935066Y-47491386D01*
X34930897Y-47513487D01*
X34918336Y-47532419D01*
X34899791Y-47545384D01*
X34877669Y-47549699D01*
X34816242Y-47549699D01*
X34793572Y-47545273D01*
X34774904Y-47532052D01*
X34762406Y-47513106D01*
X34758845Y-47492729D01*
X34760188Y-47442537D01*
X34764379Y-47420551D01*
X34776919Y-47402176D01*
X34795411Y-47389736D01*
X34817585Y-47385568D01*
G37*
G36*
X35051204Y-48343000D02*
G01*
X34701448Y-48343000D01*
X34679264Y-48338858D01*
X34660781Y-48326513D01*
X34648238Y-48308206D01*
X34644051Y-48286335D01*
X34648197Y-48264990D01*
X34660781Y-48246524D01*
X34679293Y-48233893D01*
X34701448Y-48229671D01*
X34818929Y-48229671D01*
X34818929Y-47799803D01*
X34702852Y-47799803D01*
X34680726Y-47795502D01*
X34662186Y-47782584D01*
X34649610Y-47763696D01*
X34645455Y-47741857D01*
X34649631Y-47719388D01*
X34662186Y-47700152D01*
X34680755Y-47686947D01*
X34702852Y-47682567D01*
X34877669Y-47682567D01*
X34899772Y-47686934D01*
X34918336Y-47700091D01*
X34930889Y-47719217D01*
X34935066Y-47741613D01*
X34935066Y-48229671D01*
X35049860Y-48229671D01*
X35072102Y-48233802D01*
X35091137Y-48246218D01*
X35104253Y-48264533D01*
X35108601Y-48286335D01*
X35104334Y-48308177D01*
X35091504Y-48326513D01*
X35072862Y-48338898D01*
X35051204Y-48343000D01*
G37*
G36*
X35837470Y-47688600D02*
G01*
X35886939Y-47709210D01*
X35938233Y-47746925D01*
X35971546Y-47782465D01*
X35993860Y-47817972D01*
X36006753Y-47853996D01*
X36011017Y-47891333D01*
X36011017Y-48134233D01*
X36003484Y-48182803D01*
X35980211Y-48229960D01*
X35938233Y-48277298D01*
X35886960Y-48315137D01*
X35837465Y-48336217D01*
X35788329Y-48343000D01*
X35653751Y-48343000D01*
X35603788Y-48336062D01*
X35554154Y-48314611D01*
X35503419Y-48276260D01*
X35461940Y-48228375D01*
X35439080Y-48181558D01*
X35431734Y-48134233D01*
X35431734Y-47895180D01*
X35547871Y-47895180D01*
X35547871Y-48129653D01*
X35553628Y-48158397D01*
X35570403Y-48180028D01*
X35613451Y-48217275D01*
X35629879Y-48226313D01*
X35653751Y-48229671D01*
X35786985Y-48229671D01*
X35814695Y-48224448D01*
X35840291Y-48208300D01*
X35875096Y-48177281D01*
X35890847Y-48157754D01*
X35896284Y-48131058D01*
X35896284Y-47896585D01*
X35890627Y-47865725D01*
X35875096Y-47845538D01*
X35834796Y-47813115D01*
X35812642Y-47800221D01*
X35786985Y-47795896D01*
X35668100Y-47795896D01*
X35632331Y-47800956D01*
X35608016Y-47814519D01*
X35569060Y-47848286D01*
X35553226Y-47868858D01*
X35547871Y-47895180D01*
X35431734Y-47895180D01*
X35431734Y-47891333D01*
X35438937Y-47843903D01*
X35461298Y-47797071D01*
X35501710Y-47749306D01*
X35551404Y-47711232D01*
X35601606Y-47689645D01*
X35653751Y-47682567D01*
X35788329Y-47682567D01*
X35837470Y-47688600D01*
G37*
G36*
X36549389Y-47816290D02*
G01*
X36392952Y-47920948D01*
X36392952Y-48285908D01*
X36388727Y-48307362D01*
X36375855Y-48326025D01*
X36357184Y-48338795D01*
X36335616Y-48343000D01*
X36313989Y-48338781D01*
X36295255Y-48325964D01*
X36282437Y-48307229D01*
X36278219Y-48285602D01*
X36278219Y-47741307D01*
X36282392Y-47719027D01*
X36294949Y-47699969D01*
X36313504Y-47686908D01*
X36335616Y-47682567D01*
X36357137Y-47686902D01*
X36375855Y-47700152D01*
X36388697Y-47719357D01*
X36392952Y-47741735D01*
X36392952Y-47780264D01*
X36497488Y-47716272D01*
X36533798Y-47697652D01*
X36573162Y-47686409D01*
X36616373Y-47682567D01*
X36669618Y-47682567D01*
X36713220Y-47687982D01*
X36752180Y-47703932D01*
X36787770Y-47731049D01*
X36815826Y-47765940D01*
X36833222Y-47805345D01*
X36840405Y-47850606D01*
X36856097Y-48285602D01*
X36852413Y-48307225D01*
X36839733Y-48325964D01*
X36820913Y-48338752D01*
X36798761Y-48343000D01*
X36777588Y-48339170D01*
X36759072Y-48327612D01*
X36746300Y-48309763D01*
X36741364Y-48285480D01*
X36724267Y-47856162D01*
X36719206Y-47828860D01*
X36707559Y-47810999D01*
X36689181Y-47800011D01*
X36661436Y-47795896D01*
X36605382Y-47795896D01*
X36579629Y-47800558D01*
X36549389Y-47816290D01*
G37*
G36*
X38315387Y-47790889D02*
G01*
X38315387Y-48173556D01*
X38348848Y-48229671D01*
X38396659Y-48229671D01*
X38431525Y-48172274D01*
X38431525Y-47495110D01*
X38435841Y-47472935D01*
X38448927Y-47453833D01*
X38468083Y-47440698D01*
X38490265Y-47436370D01*
X38511876Y-47440604D01*
X38530565Y-47453467D01*
X38543434Y-47472139D01*
X38547662Y-47493645D01*
X38547662Y-48189493D01*
X38544747Y-48203275D01*
X38533313Y-48225641D01*
X38480007Y-48313690D01*
X38467027Y-48330124D01*
X38450782Y-48339675D01*
X38430181Y-48343000D01*
X38322226Y-48343000D01*
X38291423Y-48337605D01*
X38270382Y-48322700D01*
X38256647Y-48297143D01*
X38242322Y-48323045D01*
X38221999Y-48337799D01*
X38193815Y-48343000D01*
X38092699Y-48343000D01*
X38065359Y-48339154D01*
X38044983Y-48328490D01*
X38029806Y-48310943D01*
X37980652Y-48228389D01*
X37969976Y-48206176D01*
X37966975Y-48189493D01*
X37966975Y-47495049D01*
X37971291Y-47472874D01*
X37984377Y-47453772D01*
X38003529Y-47440685D01*
X38025715Y-47436370D01*
X38046668Y-47440659D01*
X38065038Y-47453833D01*
X38077598Y-47472883D01*
X38081769Y-47495110D01*
X38081769Y-48175021D01*
X38115230Y-48229671D01*
X38164445Y-48229671D01*
X38200654Y-48172152D01*
X38200654Y-47790889D01*
X38204852Y-47768671D01*
X38217385Y-47750161D01*
X38235891Y-47737578D01*
X38258051Y-47733369D01*
X38280159Y-47737575D01*
X38298657Y-47750161D01*
X38311189Y-47768671D01*
X38315387Y-47790889D01*
G37*
G36*
X39225747Y-47687899D02*
G01*
X39263630Y-47704289D01*
X39301823Y-47733430D01*
X39344871Y-47774646D01*
X39369782Y-47805555D01*
X39385572Y-47846204D01*
X39391338Y-47899638D01*
X39391338Y-48039100D01*
X39387107Y-48060796D01*
X39374241Y-48079645D01*
X39355548Y-48092556D01*
X39333941Y-48096803D01*
X38928192Y-48096803D01*
X38928192Y-48130386D01*
X38934345Y-48157255D01*
X38953472Y-48180334D01*
X38986933Y-48208422D01*
X39014752Y-48224826D01*
X39038834Y-48229671D01*
X39333941Y-48229671D01*
X39355594Y-48233786D01*
X39374241Y-48246218D01*
X39387069Y-48264504D01*
X39391338Y-48286335D01*
X39387035Y-48307624D01*
X39373875Y-48326147D01*
X39355004Y-48338865D01*
X39333941Y-48343000D01*
X39031324Y-48343000D01*
X39001162Y-48339970D01*
X38968126Y-48330360D01*
X38937673Y-48316488D01*
X38919278Y-48303982D01*
X38868048Y-48258797D01*
X38846662Y-48236623D01*
X38828114Y-48205491D01*
X38815792Y-48171500D01*
X38812055Y-48142476D01*
X38812055Y-47890723D01*
X38929597Y-47890723D01*
X38929597Y-47979566D01*
X39277948Y-47979566D01*
X39277948Y-47899577D01*
X39272730Y-47870548D01*
X39258165Y-47850362D01*
X39224642Y-47820991D01*
X39198545Y-47804426D01*
X39178236Y-47799803D01*
X39034133Y-47799803D01*
X39008869Y-47804333D01*
X38985590Y-47818244D01*
X38952128Y-47846271D01*
X38935180Y-47866031D01*
X38929597Y-47890723D01*
X38812055Y-47890723D01*
X38812055Y-47878999D01*
X38815717Y-47854967D01*
X38829457Y-47818122D01*
X38849805Y-47783251D01*
X38873543Y-47758526D01*
X38921354Y-47720913D01*
X38954388Y-47699374D01*
X38988956Y-47686782D01*
X39025890Y-47682567D01*
X39187090Y-47682567D01*
X39225747Y-47687899D01*
G37*
G36*
X40093929Y-47688187D02*
G01*
X40133887Y-47704654D01*
X40169862Y-47732515D01*
X40198003Y-47768368D01*
X40215284Y-47808739D01*
X40222130Y-47855002D01*
X40236418Y-48285541D01*
X40232145Y-48307688D01*
X40219321Y-48326269D01*
X40200669Y-48338848D01*
X40179082Y-48343000D01*
X40156305Y-48338706D01*
X40137378Y-48325903D01*
X40124614Y-48307005D01*
X40120342Y-48284381D01*
X40023316Y-48343000D01*
X39829326Y-48343000D01*
X39783132Y-48337292D01*
X39742622Y-48320609D01*
X39706350Y-48292441D01*
X39678180Y-48256132D01*
X39661498Y-48215600D01*
X39655792Y-48169404D01*
X39655792Y-48103642D01*
X39771929Y-48103642D01*
X39771929Y-48168122D01*
X39776149Y-48189811D01*
X39788965Y-48208605D01*
X39807709Y-48221518D01*
X39829326Y-48225763D01*
X39991198Y-48225763D01*
X40116190Y-48151513D01*
X40112770Y-48103153D01*
X40108098Y-48080565D01*
X40095673Y-48062364D01*
X40077504Y-48050127D01*
X40055373Y-48046000D01*
X39829326Y-48046000D01*
X39807171Y-48050222D01*
X39788660Y-48062853D01*
X39776125Y-48081414D01*
X39771929Y-48103642D01*
X39655792Y-48103642D01*
X39655792Y-48102359D01*
X39661502Y-48056618D01*
X39678256Y-48016194D01*
X39706655Y-47979688D01*
X39743165Y-47951252D01*
X39783589Y-47934480D01*
X39829326Y-47928764D01*
X40054030Y-47928764D01*
X40107336Y-47937190D01*
X40105993Y-47854392D01*
X40101788Y-47831807D01*
X40089262Y-47812993D01*
X40070732Y-47800170D01*
X40048595Y-47795896D01*
X39830670Y-47795896D01*
X39809029Y-47791716D01*
X39790309Y-47779043D01*
X39777485Y-47760553D01*
X39773273Y-47739231D01*
X39777462Y-47717371D01*
X39790003Y-47699114D01*
X39808491Y-47686722D01*
X39830670Y-47682567D01*
X40048595Y-47682567D01*
X40093929Y-47688187D01*
G37*
G36*
X40906621Y-48343000D02*
G01*
X40791887Y-48343000D01*
X40746576Y-48337320D01*
X40706259Y-48320606D01*
X40669583Y-48292197D01*
X40640948Y-48255748D01*
X40624090Y-48215486D01*
X40618353Y-48170015D01*
X40618353Y-47795896D01*
X40559613Y-47795896D01*
X40537405Y-47791821D01*
X40518946Y-47779714D01*
X40506445Y-47761616D01*
X40502215Y-47739231D01*
X40506405Y-47717371D01*
X40518946Y-47699114D01*
X40537433Y-47686722D01*
X40559613Y-47682567D01*
X40619757Y-47682567D01*
X40619757Y-47540967D01*
X40623951Y-47518729D01*
X40636488Y-47500117D01*
X40654999Y-47487486D01*
X40677154Y-47483265D01*
X40698189Y-47487478D01*
X40717088Y-47500484D01*
X40730192Y-47519306D01*
X40734490Y-47540967D01*
X40734490Y-47682567D01*
X40965361Y-47682567D01*
X40986991Y-47686748D01*
X41005661Y-47699420D01*
X41018533Y-47717914D01*
X41022758Y-47739231D01*
X41018491Y-47761073D01*
X41005661Y-47779409D01*
X40987019Y-47791794D01*
X40965361Y-47795896D01*
X40733147Y-47795896D01*
X40733147Y-48171724D01*
X40737447Y-48193512D01*
X40750549Y-48212452D01*
X40769687Y-48225396D01*
X40791887Y-48229671D01*
X40903934Y-48229671D01*
X40930932Y-48224295D01*
X40950672Y-48208777D01*
X40964750Y-48180822D01*
X40978699Y-48152611D01*
X40997614Y-48137220D01*
X41022819Y-48131974D01*
X41045987Y-48136207D01*
X41064096Y-48148521D01*
X41076055Y-48166911D01*
X41080155Y-48189981D01*
X41075261Y-48222383D01*
X41059763Y-48256053D01*
X41031307Y-48292136D01*
X40995991Y-48320247D01*
X40955008Y-48337136D01*
X40906621Y-48343000D01*
G37*
G36*
X41347296Y-48285602D02*
G01*
X41347296Y-47492424D01*
X41351472Y-47470900D01*
X41364026Y-47452795D01*
X41382504Y-47440498D01*
X41404693Y-47436370D01*
X41426853Y-47440579D01*
X41445359Y-47453162D01*
X41457892Y-47471672D01*
X41462090Y-47493889D01*
X41462090Y-47784172D01*
X41554292Y-47722928D01*
X41597623Y-47699162D01*
X41634509Y-47686447D01*
X41666338Y-47682567D01*
X41737352Y-47682567D01*
X41782227Y-47688197D01*
X41822076Y-47704754D01*
X41858252Y-47732881D01*
X41886665Y-47768970D01*
X41904035Y-47809236D01*
X41910886Y-47855002D01*
X41925235Y-48285541D01*
X41921466Y-48307689D01*
X41908810Y-48326269D01*
X41890064Y-48338817D01*
X41867899Y-48343000D01*
X41845845Y-48338635D01*
X41827538Y-48325536D01*
X41815035Y-48306644D01*
X41810502Y-48285480D01*
X41796153Y-47853415D01*
X41791418Y-47831791D01*
X41778384Y-47813054D01*
X41759555Y-47800169D01*
X41737413Y-47795896D01*
X41673177Y-47795896D01*
X41651399Y-47799825D01*
X41625366Y-47813176D01*
X41462090Y-47920948D01*
X41462090Y-48285663D01*
X41457897Y-48307776D01*
X41445359Y-48326269D01*
X41426858Y-48338804D01*
X41404693Y-48343000D01*
X41382528Y-48338804D01*
X41364026Y-48326269D01*
X41351491Y-48307767D01*
X41347296Y-48285602D01*
G37*
G36*
X42606068Y-47687899D02*
G01*
X42643951Y-47704289D01*
X42682144Y-47733430D01*
X42725192Y-47774646D01*
X42750103Y-47805555D01*
X42765893Y-47846204D01*
X42771659Y-47899638D01*
X42771659Y-48039100D01*
X42767428Y-48060796D01*
X42754562Y-48079645D01*
X42735869Y-48092556D01*
X42714262Y-48096803D01*
X42308513Y-48096803D01*
X42308513Y-48130386D01*
X42314666Y-48157255D01*
X42333793Y-48180334D01*
X42367254Y-48208422D01*
X42395073Y-48224826D01*
X42419155Y-48229671D01*
X42714262Y-48229671D01*
X42735915Y-48233786D01*
X42754562Y-48246218D01*
X42767390Y-48264504D01*
X42771659Y-48286335D01*
X42767356Y-48307624D01*
X42754196Y-48326147D01*
X42735325Y-48338865D01*
X42714262Y-48343000D01*
X42411645Y-48343000D01*
X42381483Y-48339970D01*
X42348447Y-48330360D01*
X42317994Y-48316488D01*
X42299599Y-48303982D01*
X42248369Y-48258797D01*
X42226983Y-48236623D01*
X42208435Y-48205491D01*
X42196113Y-48171500D01*
X42192376Y-48142476D01*
X42192376Y-47890723D01*
X42309918Y-47890723D01*
X42309918Y-47979566D01*
X42658269Y-47979566D01*
X42658269Y-47899577D01*
X42653051Y-47870548D01*
X42638486Y-47850362D01*
X42604963Y-47820991D01*
X42578866Y-47804426D01*
X42558557Y-47799803D01*
X42414454Y-47799803D01*
X42389190Y-47804333D01*
X42365911Y-47818244D01*
X42332449Y-47846271D01*
X42315501Y-47866031D01*
X42309918Y-47890723D01*
X42192376Y-47890723D01*
X42192376Y-47878999D01*
X42196038Y-47854967D01*
X42209778Y-47818122D01*
X42230126Y-47783251D01*
X42253864Y-47758526D01*
X42301675Y-47720913D01*
X42334709Y-47699374D01*
X42369277Y-47686782D01*
X42406211Y-47682567D01*
X42567411Y-47682567D01*
X42606068Y-47687899D01*
G37*
G36*
X43038861Y-48285602D02*
G01*
X43038861Y-47741307D01*
X43043034Y-47719027D01*
X43055591Y-47699969D01*
X43074146Y-47686908D01*
X43096258Y-47682567D01*
X43118356Y-47686799D01*
X43136863Y-47699481D01*
X43149386Y-47718135D01*
X43153594Y-47740636D01*
X43153594Y-47811527D01*
X43247200Y-47731721D01*
X43287897Y-47703119D01*
X43325300Y-47687490D01*
X43360590Y-47682567D01*
X43444609Y-47682567D01*
X43489870Y-47688242D01*
X43529934Y-47704907D01*
X43566181Y-47733186D01*
X43594421Y-47769430D01*
X43611068Y-47809514D01*
X43616739Y-47854819D01*
X43616739Y-47885594D01*
X43612526Y-47908399D01*
X43600009Y-47927298D01*
X43581487Y-47940123D01*
X43559403Y-47944395D01*
X43537253Y-47940160D01*
X43518737Y-47927481D01*
X43506206Y-47908794D01*
X43502006Y-47886387D01*
X43502006Y-47853903D01*
X43497806Y-47831497D01*
X43485275Y-47812809D01*
X43466760Y-47800131D01*
X43444609Y-47795896D01*
X43370176Y-47795896D01*
X43346601Y-47801464D01*
X43316870Y-47821358D01*
X43153594Y-47963935D01*
X43153594Y-48285419D01*
X43149318Y-48307618D01*
X43136497Y-48326208D01*
X43117840Y-48338834D01*
X43096258Y-48343000D01*
X43074093Y-48338804D01*
X43055591Y-48326269D01*
X43043056Y-48307767D01*
X43038861Y-48285602D01*
G37*
G36*
X44858836Y-47436370D02*
G01*
X45157301Y-47436370D01*
X45192047Y-47441161D01*
X45226221Y-47455910D01*
X45260799Y-47482166D01*
X45288176Y-47515190D01*
X45304204Y-47551689D01*
X45309647Y-47592991D01*
X45305292Y-47615565D01*
X45292245Y-47634390D01*
X45273558Y-47647222D01*
X45253655Y-47651304D01*
X45227430Y-47647518D01*
X45213355Y-47638176D01*
X45203745Y-47621824D01*
X45192533Y-47589327D01*
X45182836Y-47568958D01*
X45168571Y-47557589D01*
X45148447Y-47553607D01*
X44865003Y-47553607D01*
X44848844Y-47557298D01*
X44844487Y-47566307D01*
X44853341Y-47585297D01*
X45278934Y-48130508D01*
X45302192Y-48172068D01*
X45309647Y-48214894D01*
X45305540Y-48247330D01*
X45293335Y-48276866D01*
X45272400Y-48304409D01*
X45245762Y-48326415D01*
X45218388Y-48338891D01*
X45189419Y-48343000D01*
X44879963Y-48343000D01*
X44840870Y-48337902D01*
X44805618Y-48322786D01*
X44773046Y-48296838D01*
X44747144Y-48263929D01*
X44732447Y-48230431D01*
X44727617Y-48195355D01*
X44731827Y-48166252D01*
X44742913Y-48147548D01*
X44760699Y-48136204D01*
X44787762Y-48131974D01*
X44809247Y-48136107D01*
X44827329Y-48148521D01*
X44839696Y-48166557D01*
X44843754Y-48187234D01*
X44846945Y-48203991D01*
X44856394Y-48217581D01*
X44870471Y-48226579D01*
X44888145Y-48229671D01*
X45173726Y-48229671D01*
X45187928Y-48225782D01*
X45192167Y-48215322D01*
X45183313Y-48197553D01*
X44758391Y-47652708D01*
X44735722Y-47611667D01*
X44728349Y-47568017D01*
X44732602Y-47534096D01*
X44745160Y-47503628D01*
X44766573Y-47475632D01*
X44794092Y-47453669D01*
X44824490Y-47440761D01*
X44858836Y-47436370D01*
G37*
G36*
X45977102Y-48343000D02*
G01*
X45862369Y-48343000D01*
X45817057Y-48337320D01*
X45776741Y-48320606D01*
X45740064Y-48292197D01*
X45711430Y-48255748D01*
X45694572Y-48215486D01*
X45688834Y-48170015D01*
X45688834Y-47795896D01*
X45630094Y-47795896D01*
X45607886Y-47791821D01*
X45589428Y-47779714D01*
X45576927Y-47761616D01*
X45572697Y-47739231D01*
X45576886Y-47717371D01*
X45589428Y-47699114D01*
X45607915Y-47686722D01*
X45630094Y-47682567D01*
X45690239Y-47682567D01*
X45690239Y-47540967D01*
X45694433Y-47518729D01*
X45706969Y-47500117D01*
X45725481Y-47487486D01*
X45747636Y-47483265D01*
X45768671Y-47487478D01*
X45787570Y-47500484D01*
X45800674Y-47519306D01*
X45804972Y-47540967D01*
X45804972Y-47682567D01*
X46035842Y-47682567D01*
X46057473Y-47686748D01*
X46076143Y-47699420D01*
X46089014Y-47717914D01*
X46093240Y-47739231D01*
X46088973Y-47761073D01*
X46076143Y-47779409D01*
X46057501Y-47791794D01*
X46035842Y-47795896D01*
X45803629Y-47795896D01*
X45803629Y-48171724D01*
X45807929Y-48193512D01*
X45821031Y-48212452D01*
X45840169Y-48225396D01*
X45862369Y-48229671D01*
X45974415Y-48229671D01*
X46001413Y-48224295D01*
X46021154Y-48208777D01*
X46035232Y-48180822D01*
X46049181Y-48152611D01*
X46068095Y-48137220D01*
X46093301Y-48131974D01*
X46116468Y-48136207D01*
X46134578Y-48148521D01*
X46146537Y-48166911D01*
X46150637Y-48189981D01*
X46145742Y-48222383D01*
X46130245Y-48256053D01*
X46101788Y-48292136D01*
X46066472Y-48320247D01*
X46025490Y-48337136D01*
X45977102Y-48343000D01*
G37*
G36*
X46854571Y-47688187D02*
G01*
X46894529Y-47704654D01*
X46930504Y-47732515D01*
X46958645Y-47768368D01*
X46975926Y-47808739D01*
X46982772Y-47855002D01*
X46997060Y-48285541D01*
X46992787Y-48307688D01*
X46979963Y-48326269D01*
X46961311Y-48338848D01*
X46939724Y-48343000D01*
X46916947Y-48338706D01*
X46898020Y-48325903D01*
X46885256Y-48307005D01*
X46880984Y-48284381D01*
X46783958Y-48343000D01*
X46589968Y-48343000D01*
X46543774Y-48337292D01*
X46503264Y-48320609D01*
X46466992Y-48292441D01*
X46438822Y-48256132D01*
X46422140Y-48215600D01*
X46416434Y-48169404D01*
X46416434Y-48103642D01*
X46532571Y-48103642D01*
X46532571Y-48168122D01*
X46536791Y-48189811D01*
X46549607Y-48208605D01*
X46568351Y-48221518D01*
X46589968Y-48225763D01*
X46751840Y-48225763D01*
X46876832Y-48151513D01*
X46873412Y-48103153D01*
X46868740Y-48080565D01*
X46856315Y-48062364D01*
X46838146Y-48050127D01*
X46816015Y-48046000D01*
X46589968Y-48046000D01*
X46567813Y-48050222D01*
X46549302Y-48062853D01*
X46536767Y-48081414D01*
X46532571Y-48103642D01*
X46416434Y-48103642D01*
X46416434Y-48102359D01*
X46422144Y-48056618D01*
X46438898Y-48016194D01*
X46467297Y-47979688D01*
X46503807Y-47951252D01*
X46544231Y-47934480D01*
X46589968Y-47928764D01*
X46814672Y-47928764D01*
X46867978Y-47937190D01*
X46866635Y-47854392D01*
X46862430Y-47831807D01*
X46849904Y-47812993D01*
X46831374Y-47800170D01*
X46809237Y-47795896D01*
X46591312Y-47795896D01*
X46569671Y-47791716D01*
X46550951Y-47779043D01*
X46538127Y-47760553D01*
X46533915Y-47739231D01*
X46538104Y-47717371D01*
X46550645Y-47699114D01*
X46569133Y-47686722D01*
X46591312Y-47682567D01*
X46809237Y-47682567D01*
X46854571Y-47688187D01*
G37*
G36*
X47667263Y-48343000D02*
G01*
X47552530Y-48343000D01*
X47507218Y-48337320D01*
X47466901Y-48320606D01*
X47430225Y-48292197D01*
X47401590Y-48255748D01*
X47384732Y-48215486D01*
X47378995Y-48170015D01*
X47378995Y-47795896D01*
X47320255Y-47795896D01*
X47298047Y-47791821D01*
X47279588Y-47779714D01*
X47267087Y-47761616D01*
X47262857Y-47739231D01*
X47267047Y-47717371D01*
X47279588Y-47699114D01*
X47298075Y-47686722D01*
X47320255Y-47682567D01*
X47380399Y-47682567D01*
X47380399Y-47540967D01*
X47384593Y-47518729D01*
X47397130Y-47500117D01*
X47415641Y-47487486D01*
X47437796Y-47483265D01*
X47458831Y-47487478D01*
X47477730Y-47500484D01*
X47490834Y-47519306D01*
X47495132Y-47540967D01*
X47495132Y-47682567D01*
X47726003Y-47682567D01*
X47747633Y-47686748D01*
X47766303Y-47699420D01*
X47779175Y-47717914D01*
X47783400Y-47739231D01*
X47779133Y-47761073D01*
X47766303Y-47779409D01*
X47747661Y-47791794D01*
X47726003Y-47795896D01*
X47493789Y-47795896D01*
X47493789Y-48171724D01*
X47498089Y-48193512D01*
X47511191Y-48212452D01*
X47530329Y-48225396D01*
X47552530Y-48229671D01*
X47664576Y-48229671D01*
X47691574Y-48224295D01*
X47711314Y-48208777D01*
X47725392Y-48180822D01*
X47739341Y-48152611D01*
X47758256Y-48137220D01*
X47783461Y-48131974D01*
X47806629Y-48136207D01*
X47824738Y-48148521D01*
X47836697Y-48166911D01*
X47840797Y-48189981D01*
X47835903Y-48222383D01*
X47820405Y-48256053D01*
X47791949Y-48292136D01*
X47756633Y-48320247D01*
X47715650Y-48337136D01*
X47667263Y-48343000D01*
G37*
G36*
X48338869Y-47385568D02*
G01*
X48398953Y-47385568D01*
X48421127Y-47389736D01*
X48439620Y-47402176D01*
X48452159Y-47420551D01*
X48456350Y-47442537D01*
X48456350Y-47491386D01*
X48452181Y-47513487D01*
X48439620Y-47532419D01*
X48421075Y-47545384D01*
X48398953Y-47549699D01*
X48337526Y-47549699D01*
X48314856Y-47545273D01*
X48296188Y-47532052D01*
X48283690Y-47513106D01*
X48280129Y-47492729D01*
X48281472Y-47442537D01*
X48285663Y-47420551D01*
X48298203Y-47402176D01*
X48316695Y-47389736D01*
X48338869Y-47385568D01*
G37*
G36*
X48572488Y-48343000D02*
G01*
X48222732Y-48343000D01*
X48200548Y-48338858D01*
X48182065Y-48326513D01*
X48169522Y-48308206D01*
X48165335Y-48286335D01*
X48169481Y-48264990D01*
X48182065Y-48246524D01*
X48200577Y-48233893D01*
X48222732Y-48229671D01*
X48340213Y-48229671D01*
X48340213Y-47799803D01*
X48224136Y-47799803D01*
X48202010Y-47795502D01*
X48183470Y-47782584D01*
X48170895Y-47763696D01*
X48166739Y-47741857D01*
X48170915Y-47719388D01*
X48183470Y-47700152D01*
X48202039Y-47686947D01*
X48224136Y-47682567D01*
X48398953Y-47682567D01*
X48421056Y-47686934D01*
X48439620Y-47700091D01*
X48452173Y-47719217D01*
X48456350Y-47741613D01*
X48456350Y-48229671D01*
X48571144Y-48229671D01*
X48593386Y-48233802D01*
X48612421Y-48246218D01*
X48625537Y-48264533D01*
X48629885Y-48286335D01*
X48625618Y-48308177D01*
X48612788Y-48326513D01*
X48594146Y-48338898D01*
X48572488Y-48343000D01*
G37*
G36*
X49358754Y-47688600D02*
G01*
X49408223Y-47709210D01*
X49459517Y-47746925D01*
X49492830Y-47782465D01*
X49515144Y-47817972D01*
X49528037Y-47853996D01*
X49532301Y-47891333D01*
X49532301Y-48134233D01*
X49524768Y-48182803D01*
X49501495Y-48229960D01*
X49459517Y-48277298D01*
X49408244Y-48315137D01*
X49358749Y-48336217D01*
X49309613Y-48343000D01*
X49175035Y-48343000D01*
X49125072Y-48336062D01*
X49075438Y-48314611D01*
X49024703Y-48276260D01*
X48983224Y-48228375D01*
X48960364Y-48181558D01*
X48953018Y-48134233D01*
X48953018Y-47895180D01*
X49069155Y-47895180D01*
X49069155Y-48129653D01*
X49074912Y-48158397D01*
X49091687Y-48180028D01*
X49134735Y-48217275D01*
X49151163Y-48226313D01*
X49175035Y-48229671D01*
X49308269Y-48229671D01*
X49335979Y-48224448D01*
X49361575Y-48208300D01*
X49396380Y-48177281D01*
X49412131Y-48157754D01*
X49417568Y-48131058D01*
X49417568Y-47896585D01*
X49411911Y-47865725D01*
X49396380Y-47845538D01*
X49356080Y-47813115D01*
X49333926Y-47800221D01*
X49308269Y-47795896D01*
X49189384Y-47795896D01*
X49153615Y-47800956D01*
X49129300Y-47814519D01*
X49090344Y-47848286D01*
X49074510Y-47868858D01*
X49069155Y-47895180D01*
X48953018Y-47895180D01*
X48953018Y-47891333D01*
X48960221Y-47843903D01*
X48982582Y-47797071D01*
X49022994Y-47749306D01*
X49072688Y-47711232D01*
X49122890Y-47689645D01*
X49175035Y-47682567D01*
X49309613Y-47682567D01*
X49358754Y-47688600D01*
G37*
G36*
X50070673Y-47816290D02*
G01*
X49914236Y-47920948D01*
X49914236Y-48285908D01*
X49910011Y-48307362D01*
X49897139Y-48326025D01*
X49878468Y-48338795D01*
X49856900Y-48343000D01*
X49835273Y-48338781D01*
X49816539Y-48325964D01*
X49803721Y-48307229D01*
X49799503Y-48285602D01*
X49799503Y-47741307D01*
X49803676Y-47719027D01*
X49816233Y-47699969D01*
X49834788Y-47686908D01*
X49856900Y-47682567D01*
X49878421Y-47686902D01*
X49897139Y-47700152D01*
X49909981Y-47719357D01*
X49914236Y-47741735D01*
X49914236Y-47780264D01*
X50018772Y-47716272D01*
X50055082Y-47697652D01*
X50094446Y-47686409D01*
X50137657Y-47682567D01*
X50190902Y-47682567D01*
X50234504Y-47687982D01*
X50273464Y-47703932D01*
X50309054Y-47731049D01*
X50337110Y-47765940D01*
X50354506Y-47805345D01*
X50361689Y-47850606D01*
X50377381Y-48285602D01*
X50373697Y-48307225D01*
X50361017Y-48325964D01*
X50342197Y-48338752D01*
X50320045Y-48343000D01*
X50298872Y-48339170D01*
X50280356Y-48327612D01*
X50267584Y-48309763D01*
X50262648Y-48285480D01*
X50245551Y-47856162D01*
X50240490Y-47828860D01*
X50228843Y-47810999D01*
X50210465Y-47800011D01*
X50182720Y-47795896D01*
X50126666Y-47795896D01*
X50100913Y-47800558D01*
X50070673Y-47816290D01*
G37*
G36*
X28405295Y-49419964D02*
G01*
X28405295Y-49529324D01*
X28206542Y-49982577D01*
X28191199Y-50006424D01*
X28174599Y-50018976D01*
X28155984Y-50023000D01*
X28082222Y-50023000D01*
X28058008Y-50018453D01*
X28038839Y-50005114D01*
X28023482Y-49981234D01*
X27826012Y-49530728D01*
X27826012Y-49419964D01*
X27830204Y-49397852D01*
X27842742Y-49379359D01*
X27861249Y-49366775D01*
X27883409Y-49362567D01*
X27905578Y-49366749D01*
X27924075Y-49379236D01*
X27936612Y-49397620D01*
X27940806Y-49419659D01*
X27940806Y-49507281D01*
X28115684Y-49901855D01*
X28289218Y-49506670D01*
X28289218Y-49419964D01*
X28293480Y-49397823D01*
X28306254Y-49379297D01*
X28325153Y-49366780D01*
X28347959Y-49362567D01*
X28370071Y-49366759D01*
X28388564Y-49379297D01*
X28401100Y-49397799D01*
X28405295Y-49419964D01*
G37*
G36*
X29047531Y-49966274D02*
G01*
X29047531Y-49729908D01*
X28701867Y-49729908D01*
X28701867Y-49175355D01*
X28706187Y-49153063D01*
X28719269Y-49133894D01*
X28738430Y-49120711D01*
X28760607Y-49116370D01*
X28782190Y-49120682D01*
X28800907Y-49133833D01*
X28813753Y-49152970D01*
X28818004Y-49175233D01*
X28818004Y-49612672D01*
X29047531Y-49612672D01*
X29047531Y-49276715D01*
X29051705Y-49254436D01*
X29064262Y-49235377D01*
X29082816Y-49222316D01*
X29104928Y-49217975D01*
X29126988Y-49222313D01*
X29145534Y-49235377D01*
X29158091Y-49254436D01*
X29162264Y-49276715D01*
X29162264Y-49612672D01*
X29184400Y-49616946D01*
X29202931Y-49629769D01*
X29215456Y-49648642D01*
X29219661Y-49671290D01*
X29215456Y-49693938D01*
X29202931Y-49712811D01*
X29184400Y-49725633D01*
X29162264Y-49729908D01*
X29162264Y-49966518D01*
X29157999Y-49988297D01*
X29145167Y-50006574D01*
X29126539Y-50018914D01*
X29104928Y-50023000D01*
X29082749Y-50018844D01*
X29064262Y-50006452D01*
X29051718Y-49988145D01*
X29047531Y-49966274D01*
G37*
G36*
X29747104Y-49659566D02*
G01*
X29863180Y-49659566D01*
X29884810Y-49663747D01*
X29903480Y-49676419D01*
X29916299Y-49695017D01*
X29920577Y-49717269D01*
X29920577Y-49815454D01*
X29916405Y-49837807D01*
X29903847Y-49856975D01*
X29885283Y-49870133D01*
X29863180Y-49874500D01*
X29745760Y-49874500D01*
X29723629Y-49870212D01*
X29705094Y-49857342D01*
X29692520Y-49838563D01*
X29688363Y-49816797D01*
X29688363Y-49717269D01*
X29692629Y-49695012D01*
X29705399Y-49676419D01*
X29724308Y-49663806D01*
X29747104Y-49659566D01*
G37*
G36*
X30572339Y-49909671D02*
G01*
X30838076Y-49909671D01*
X30838076Y-49624395D01*
X30491068Y-49624395D01*
X30491068Y-49116370D01*
X30895473Y-49116370D01*
X30917103Y-49120551D01*
X30935773Y-49133223D01*
X30948645Y-49151717D01*
X30952870Y-49173034D01*
X30948683Y-49194905D01*
X30936139Y-49213212D01*
X30917657Y-49225557D01*
X30895473Y-49229699D01*
X30607205Y-49229699D01*
X30607205Y-49511066D01*
X30838076Y-49511066D01*
X30867653Y-49514864D01*
X30894228Y-49526099D01*
X30918676Y-49545322D01*
X30937860Y-49569804D01*
X30949077Y-49596420D01*
X30952870Y-49626044D01*
X30952870Y-49908022D01*
X30949086Y-49938103D01*
X30937958Y-49964830D01*
X30919042Y-49989111D01*
X30894796Y-50008065D01*
X30868110Y-50019211D01*
X30838076Y-50023000D01*
X30572339Y-50023000D01*
X30536652Y-50018979D01*
X30496502Y-50006025D01*
X30409796Y-49970121D01*
X30390384Y-49957698D01*
X30379003Y-49940173D01*
X30374930Y-49915838D01*
X30378892Y-49893771D01*
X30390623Y-49875477D01*
X30408110Y-49863003D01*
X30428908Y-49858868D01*
X30446354Y-49861199D01*
X30468536Y-49869188D01*
X30544312Y-49901428D01*
X30558345Y-49907665D01*
X30572339Y-49909671D01*
G37*
G36*
X31437264Y-49659566D02*
G01*
X31553341Y-49659566D01*
X31574971Y-49663747D01*
X31593641Y-49676419D01*
X31606459Y-49695017D01*
X31610738Y-49717269D01*
X31610738Y-49815454D01*
X31606565Y-49837807D01*
X31594007Y-49856975D01*
X31575443Y-49870133D01*
X31553341Y-49874500D01*
X31435921Y-49874500D01*
X31413790Y-49870212D01*
X31395255Y-49857342D01*
X31382680Y-49838563D01*
X31378524Y-49816797D01*
X31378524Y-49717269D01*
X31382789Y-49695012D01*
X31395560Y-49676419D01*
X31414468Y-49663806D01*
X31437264Y-49659566D01*
G37*
G36*
X32573299Y-50023000D02*
G01*
X32051413Y-50023000D01*
X32051413Y-49627082D01*
X32055206Y-49596630D01*
X32066346Y-49569642D01*
X32085241Y-49545199D01*
X32109504Y-49526099D01*
X32136189Y-49514878D01*
X32166207Y-49511066D01*
X32514620Y-49511066D01*
X32514620Y-49229699D01*
X32104719Y-49229699D01*
X32082009Y-49225518D01*
X32063686Y-49213212D01*
X32051429Y-49194934D01*
X32047322Y-49173034D01*
X32051431Y-49151146D01*
X32063686Y-49132918D01*
X32082014Y-49120565D01*
X32104719Y-49116370D01*
X32514558Y-49116370D01*
X32545043Y-49120176D01*
X32572049Y-49131355D01*
X32596502Y-49150320D01*
X32615631Y-49174629D01*
X32626875Y-49201393D01*
X32630696Y-49231531D01*
X32630696Y-49511799D01*
X32626839Y-49542826D01*
X32615561Y-49570040D01*
X32596502Y-49594414D01*
X32572054Y-49613342D01*
X32545047Y-49624502D01*
X32514558Y-49628303D01*
X32166207Y-49628303D01*
X32166207Y-49909671D01*
X32573299Y-49909671D01*
X32594952Y-49913786D01*
X32613599Y-49926218D01*
X32626427Y-49944504D01*
X32630696Y-49966335D01*
X32626429Y-49988177D01*
X32613599Y-50006513D01*
X32594957Y-50018898D01*
X32573299Y-50023000D01*
G37*
G36*
X34263459Y-50023000D02*
G01*
X33741573Y-50023000D01*
X33741573Y-49627082D01*
X33745367Y-49596630D01*
X33756506Y-49569642D01*
X33775401Y-49545199D01*
X33799665Y-49526099D01*
X33826349Y-49514878D01*
X33856368Y-49511066D01*
X34204780Y-49511066D01*
X34204780Y-49229699D01*
X33794879Y-49229699D01*
X33772170Y-49225518D01*
X33753847Y-49213212D01*
X33741590Y-49194934D01*
X33737482Y-49173034D01*
X33741592Y-49151146D01*
X33753847Y-49132918D01*
X33772175Y-49120565D01*
X33794879Y-49116370D01*
X34204719Y-49116370D01*
X34235203Y-49120176D01*
X34262210Y-49131355D01*
X34286662Y-49150320D01*
X34305792Y-49174629D01*
X34317035Y-49201393D01*
X34320856Y-49231531D01*
X34320856Y-49511799D01*
X34317000Y-49542826D01*
X34305721Y-49570040D01*
X34286662Y-49594414D01*
X34262214Y-49613342D01*
X34235207Y-49624502D01*
X34204719Y-49628303D01*
X33856368Y-49628303D01*
X33856368Y-49909671D01*
X34263459Y-49909671D01*
X34285113Y-49913786D01*
X34303759Y-49926218D01*
X34316588Y-49944504D01*
X34320856Y-49966335D01*
X34316590Y-49988177D01*
X34303759Y-50006513D01*
X34285118Y-50018898D01*
X34263459Y-50023000D01*
G37*
G36*
X35082197Y-49120008D02*
G01*
X35107520Y-49130764D01*
X35130766Y-49149160D01*
X35148955Y-49172585D01*
X35159630Y-49198211D01*
X35163250Y-49226890D01*
X35163250Y-49912480D01*
X35159603Y-49941632D01*
X35148904Y-49967386D01*
X35130766Y-49990637D01*
X35107523Y-50008703D01*
X35081768Y-50019364D01*
X35052608Y-50023000D01*
X34695952Y-50023000D01*
X34666358Y-50019340D01*
X34640496Y-50008656D01*
X34617428Y-49990637D01*
X34599509Y-49967412D01*
X34588922Y-49941656D01*
X34585310Y-49912480D01*
X34585310Y-49909671D01*
X34700105Y-49909671D01*
X35049860Y-49909671D01*
X35049860Y-49233607D01*
X34700105Y-49233607D01*
X34700105Y-49909671D01*
X34585310Y-49909671D01*
X34585310Y-49226890D01*
X34588959Y-49198231D01*
X34599727Y-49172606D01*
X34618100Y-49149160D01*
X34641586Y-49130788D01*
X34667251Y-49120019D01*
X34695952Y-49116370D01*
X35053951Y-49116370D01*
X35082197Y-49120008D01*
G37*
G36*
X35953620Y-50023000D02*
G01*
X35431734Y-50023000D01*
X35431734Y-49627082D01*
X35435527Y-49596630D01*
X35446667Y-49569642D01*
X35465562Y-49545199D01*
X35489825Y-49526099D01*
X35516510Y-49514878D01*
X35546528Y-49511066D01*
X35894941Y-49511066D01*
X35894941Y-49229699D01*
X35485040Y-49229699D01*
X35462330Y-49225518D01*
X35444007Y-49213212D01*
X35431750Y-49194934D01*
X35427643Y-49173034D01*
X35431752Y-49151146D01*
X35444007Y-49132918D01*
X35462335Y-49120565D01*
X35485040Y-49116370D01*
X35894879Y-49116370D01*
X35925364Y-49120176D01*
X35952370Y-49131355D01*
X35976823Y-49150320D01*
X35995952Y-49174629D01*
X36007196Y-49201393D01*
X36011017Y-49231531D01*
X36011017Y-49511799D01*
X36007160Y-49542826D01*
X35995882Y-49570040D01*
X35976823Y-49594414D01*
X35952375Y-49613342D01*
X35925368Y-49624502D01*
X35894879Y-49628303D01*
X35546528Y-49628303D01*
X35546528Y-49909671D01*
X35953620Y-49909671D01*
X35975273Y-49913786D01*
X35993920Y-49926218D01*
X36006748Y-49944504D01*
X36011017Y-49966335D01*
X36006750Y-49988177D01*
X35993920Y-50006513D01*
X35975278Y-50018898D01*
X35953620Y-50023000D01*
G37*
G36*
X36416450Y-49120592D02*
G01*
X36434961Y-49133223D01*
X36447546Y-49151689D01*
X36451692Y-49173034D01*
X36447505Y-49194905D01*
X36434961Y-49213212D01*
X36416487Y-49225560D01*
X36394356Y-49229699D01*
X36394356Y-49608764D01*
X36798700Y-49608764D01*
X36820278Y-49613089D01*
X36839000Y-49626288D01*
X36851843Y-49645434D01*
X36856097Y-49667748D01*
X36856097Y-49965419D01*
X36851742Y-49987590D01*
X36838634Y-50006208D01*
X36819579Y-50018815D01*
X36797357Y-50023000D01*
X36336959Y-50023000D01*
X36314745Y-50018764D01*
X36295621Y-50005964D01*
X36282516Y-49987201D01*
X36278219Y-49965602D01*
X36278219Y-49909671D01*
X36392952Y-49909671D01*
X36740021Y-49909671D01*
X36740021Y-49726000D01*
X36392952Y-49726000D01*
X36392952Y-49909671D01*
X36278219Y-49909671D01*
X36278219Y-49173767D01*
X36282480Y-49151626D01*
X36295255Y-49133101D01*
X36314153Y-49120583D01*
X36336959Y-49116370D01*
X36394295Y-49116370D01*
X36416450Y-49120592D01*
G37*
G36*
X37701177Y-49564983D02*
G01*
X37701177Y-49615969D01*
X37697002Y-49638437D01*
X37684447Y-49657673D01*
X37665883Y-49670830D01*
X37643780Y-49675198D01*
X37180696Y-49675198D01*
X37158593Y-49670830D01*
X37140030Y-49657673D01*
X37127475Y-49638437D01*
X37123299Y-49615969D01*
X37123299Y-49564983D01*
X37127496Y-49542692D01*
X37140030Y-49524072D01*
X37158545Y-49511394D01*
X37180696Y-49507159D01*
X37643780Y-49507159D01*
X37664377Y-49511106D01*
X37683409Y-49523340D01*
X37696668Y-49541684D01*
X37701177Y-49564983D01*
G37*
G36*
X38462518Y-49120008D02*
G01*
X38487841Y-49130764D01*
X38511087Y-49149160D01*
X38529276Y-49172585D01*
X38539951Y-49198211D01*
X38543571Y-49226890D01*
X38543571Y-49912480D01*
X38539924Y-49941632D01*
X38529225Y-49967386D01*
X38511087Y-49990637D01*
X38487844Y-50008703D01*
X38462089Y-50019364D01*
X38432929Y-50023000D01*
X38076273Y-50023000D01*
X38046679Y-50019340D01*
X38020817Y-50008656D01*
X37997749Y-49990637D01*
X37979830Y-49967412D01*
X37969243Y-49941656D01*
X37965631Y-49912480D01*
X37965631Y-49909671D01*
X38080426Y-49909671D01*
X38430181Y-49909671D01*
X38430181Y-49233607D01*
X38080426Y-49233607D01*
X38080426Y-49909671D01*
X37965631Y-49909671D01*
X37965631Y-49226890D01*
X37969280Y-49198231D01*
X37980048Y-49172606D01*
X37998421Y-49149160D01*
X38021907Y-49130788D01*
X38047572Y-49120019D01*
X38076273Y-49116370D01*
X38434272Y-49116370D01*
X38462518Y-49120008D01*
G37*
G36*
X39333941Y-50023000D02*
G01*
X38812055Y-50023000D01*
X38812055Y-49627082D01*
X38815848Y-49596630D01*
X38826988Y-49569642D01*
X38845883Y-49545199D01*
X38870146Y-49526099D01*
X38896831Y-49514878D01*
X38926849Y-49511066D01*
X39275262Y-49511066D01*
X39275262Y-49229699D01*
X38865361Y-49229699D01*
X38842651Y-49225518D01*
X38824328Y-49213212D01*
X38812071Y-49194934D01*
X38807964Y-49173034D01*
X38812073Y-49151146D01*
X38824328Y-49132918D01*
X38842656Y-49120565D01*
X38865361Y-49116370D01*
X39275200Y-49116370D01*
X39305685Y-49120176D01*
X39332691Y-49131355D01*
X39357144Y-49150320D01*
X39376273Y-49174629D01*
X39387517Y-49201393D01*
X39391338Y-49231531D01*
X39391338Y-49511799D01*
X39387481Y-49542826D01*
X39376203Y-49570040D01*
X39357144Y-49594414D01*
X39332696Y-49613342D01*
X39305689Y-49624502D01*
X39275200Y-49628303D01*
X38926849Y-49628303D01*
X38926849Y-49909671D01*
X39333941Y-49909671D01*
X39355594Y-49913786D01*
X39374241Y-49926218D01*
X39387069Y-49944504D01*
X39391338Y-49966335D01*
X39387071Y-49988177D01*
X39374241Y-50006513D01*
X39355599Y-50018898D01*
X39333941Y-50023000D01*
G37*
G36*
X40236418Y-49564983D02*
G01*
X40236418Y-49615969D01*
X40232242Y-49638437D01*
X40219688Y-49657673D01*
X40201124Y-49670830D01*
X40179021Y-49675198D01*
X39715937Y-49675198D01*
X39693834Y-49670830D01*
X39675270Y-49657673D01*
X39662715Y-49638437D01*
X39658540Y-49615969D01*
X39658540Y-49564983D01*
X39662736Y-49542692D01*
X39675270Y-49524072D01*
X39693786Y-49511394D01*
X39715937Y-49507159D01*
X40179021Y-49507159D01*
X40199617Y-49511106D01*
X40218650Y-49523340D01*
X40231909Y-49541684D01*
X40236418Y-49564983D01*
G37*
G36*
X40556926Y-49909671D02*
G01*
X40733147Y-49909671D01*
X40733147Y-49229699D01*
X40559613Y-49229699D01*
X40537429Y-49225557D01*
X40518946Y-49213212D01*
X40506403Y-49194905D01*
X40502215Y-49173034D01*
X40506405Y-49151174D01*
X40518946Y-49132918D01*
X40537433Y-49120525D01*
X40559613Y-49116370D01*
X40847880Y-49116370D01*
X40847880Y-49909671D01*
X40962674Y-49909671D01*
X40962674Y-49670130D01*
X40966827Y-49648480D01*
X40979405Y-49629769D01*
X40997935Y-49616946D01*
X41020071Y-49612672D01*
X41042184Y-49616864D01*
X41060677Y-49629402D01*
X41073213Y-49647845D01*
X41077407Y-49669946D01*
X41077407Y-49965725D01*
X41073215Y-49987837D01*
X41060677Y-50006330D01*
X41042180Y-50018818D01*
X41020010Y-50023000D01*
X40556926Y-50023000D01*
X40534795Y-50018711D01*
X40516259Y-50005841D01*
X40503694Y-49986978D01*
X40499529Y-49964992D01*
X40503697Y-49943762D01*
X40516259Y-49925852D01*
X40534718Y-49913745D01*
X40556926Y-49909671D01*
G37*
G36*
X41558383Y-49909671D02*
G01*
X41824119Y-49909671D01*
X41824119Y-49624395D01*
X41477111Y-49624395D01*
X41477111Y-49116370D01*
X41881516Y-49116370D01*
X41903146Y-49120551D01*
X41921816Y-49133223D01*
X41934688Y-49151717D01*
X41938913Y-49173034D01*
X41934726Y-49194905D01*
X41922182Y-49213212D01*
X41903700Y-49225557D01*
X41881516Y-49229699D01*
X41593248Y-49229699D01*
X41593248Y-49511066D01*
X41824119Y-49511066D01*
X41853696Y-49514864D01*
X41880271Y-49526099D01*
X41904719Y-49545322D01*
X41923903Y-49569804D01*
X41935120Y-49596420D01*
X41938913Y-49626044D01*
X41938913Y-49908022D01*
X41935130Y-49938103D01*
X41924001Y-49964830D01*
X41905085Y-49989111D01*
X41880839Y-50008065D01*
X41854153Y-50019211D01*
X41824119Y-50023000D01*
X41558383Y-50023000D01*
X41522695Y-50018979D01*
X41482545Y-50006025D01*
X41395839Y-49970121D01*
X41376427Y-49957698D01*
X41365046Y-49940173D01*
X41360973Y-49915838D01*
X41364936Y-49893771D01*
X41376666Y-49875477D01*
X41394153Y-49863003D01*
X41414951Y-49858868D01*
X41432398Y-49861199D01*
X41454579Y-49869188D01*
X41530356Y-49901428D01*
X41544388Y-49907665D01*
X41558383Y-49909671D01*
G37*
D13*
G36*
X28636324Y-18112217D02*
G01*
X28681219Y-18125166D01*
X28708644Y-18143250D01*
X28727315Y-18170175D01*
X28740416Y-18212849D01*
X28745586Y-18277705D01*
X28745586Y-18658358D01*
X28740393Y-18724072D01*
X28727273Y-18767061D01*
X28708644Y-18793974D01*
X28681236Y-18811958D01*
X28636345Y-18824845D01*
X28566495Y-18830000D01*
X28034656Y-18830000D01*
X27964764Y-18824846D01*
X27919830Y-18811959D01*
X27892385Y-18793974D01*
X27873790Y-18767067D01*
X27860690Y-18724079D01*
X27858255Y-18693224D01*
X28023665Y-18693224D01*
X28578096Y-18693224D01*
X28578096Y-18236001D01*
X28023665Y-18236001D01*
X28023665Y-18693224D01*
X27858255Y-18693224D01*
X27855504Y-18658358D01*
X27855504Y-18277705D01*
X27860667Y-18212843D01*
X27873748Y-18170169D01*
X27892385Y-18143250D01*
X27919848Y-18125165D01*
X27964784Y-18112217D01*
X28034656Y-18107041D01*
X28566495Y-18107041D01*
X28636324Y-18112217D01*
G37*
G36*
X29099616Y-18830000D02*
G01*
X29099616Y-18107041D01*
X29267777Y-18107041D01*
X29267777Y-18693224D01*
X29809874Y-18693224D01*
X29809874Y-18830000D01*
X29099616Y-18830000D01*
G37*
G36*
X30055094Y-18830000D02*
G01*
X30055094Y-18107041D01*
X30794722Y-18107041D01*
X30794722Y-18228185D01*
X30223255Y-18228185D01*
X30223255Y-18392316D01*
X30556830Y-18392316D01*
X30556830Y-18513461D01*
X30223255Y-18513461D01*
X30223255Y-18693224D01*
X30801561Y-18693224D01*
X30801561Y-18830000D01*
X30055094Y-18830000D01*
G37*
G36*
X31676310Y-18113757D02*
G01*
X31758753Y-18132418D01*
X31826474Y-18161423D01*
X31881969Y-18200097D01*
X31919653Y-18239368D01*
X31949095Y-18284407D01*
X31970669Y-18336041D01*
X31984193Y-18395441D01*
X31988948Y-18464063D01*
X31984134Y-18530529D01*
X31970131Y-18590978D01*
X31947243Y-18646390D01*
X31915407Y-18696874D01*
X31876388Y-18739113D01*
X31829640Y-18773885D01*
X31778640Y-18798609D01*
X31712404Y-18816688D01*
X31637434Y-18826293D01*
X31532946Y-18830000D01*
X31111200Y-18830000D01*
X31111200Y-18693224D01*
X31279361Y-18693224D01*
X31496737Y-18693224D01*
X31587346Y-18688855D01*
X31655693Y-18677255D01*
X31706242Y-18660297D01*
X31742812Y-18639246D01*
X31773148Y-18609636D01*
X31795567Y-18571484D01*
X31810022Y-18522810D01*
X31815291Y-18460826D01*
X31811007Y-18405556D01*
X31799083Y-18360354D01*
X31780409Y-18323341D01*
X31755146Y-18293093D01*
X31723679Y-18269397D01*
X31684706Y-18251621D01*
X31636622Y-18240149D01*
X31577399Y-18236001D01*
X31279361Y-18236001D01*
X31279361Y-18693224D01*
X31111200Y-18693224D01*
X31111200Y-18107041D01*
X31576055Y-18107041D01*
X31676310Y-18113757D01*
G37*
G36*
X33403595Y-18113757D02*
G01*
X33486039Y-18132418D01*
X33553759Y-18161423D01*
X33609255Y-18200097D01*
X33646939Y-18239368D01*
X33676381Y-18284407D01*
X33697954Y-18336041D01*
X33711479Y-18395441D01*
X33716233Y-18464063D01*
X33711419Y-18530529D01*
X33697416Y-18590978D01*
X33674529Y-18646390D01*
X33642693Y-18696874D01*
X33603674Y-18739113D01*
X33556926Y-18773885D01*
X33505926Y-18798609D01*
X33439689Y-18816688D01*
X33364719Y-18826293D01*
X33260232Y-18830000D01*
X32838486Y-18830000D01*
X32838486Y-18693224D01*
X33006647Y-18693224D01*
X33224023Y-18693224D01*
X33314631Y-18688855D01*
X33382978Y-18677255D01*
X33433528Y-18660297D01*
X33470098Y-18639246D01*
X33500434Y-18609636D01*
X33522853Y-18571484D01*
X33537307Y-18522810D01*
X33542577Y-18460826D01*
X33538292Y-18405556D01*
X33526368Y-18360354D01*
X33507694Y-18323341D01*
X33482432Y-18293093D01*
X33450964Y-18269397D01*
X33411992Y-18251621D01*
X33363907Y-18240149D01*
X33304684Y-18236001D01*
X33006647Y-18236001D01*
X33006647Y-18693224D01*
X32838486Y-18693224D01*
X32838486Y-18107041D01*
X33303341Y-18107041D01*
X33403595Y-18113757D01*
G37*
G36*
X33971894Y-18830000D02*
G01*
X33971894Y-18239909D01*
X34115448Y-18239909D01*
X34115448Y-18830000D01*
X33971894Y-18830000D01*
G37*
G36*
X34926151Y-18345422D02*
G01*
X34518754Y-18345422D01*
X34518754Y-18470474D01*
X34904292Y-18470474D01*
X34964876Y-18474648D01*
X35003446Y-18485015D01*
X35026657Y-18499295D01*
X35042566Y-18520963D01*
X35053702Y-18555627D01*
X35058103Y-18608715D01*
X35058103Y-18690903D01*
X35053633Y-18743960D01*
X35042283Y-18778825D01*
X35025986Y-18800812D01*
X35002365Y-18815354D01*
X34963881Y-18825816D01*
X34904292Y-18830000D01*
X34520098Y-18830000D01*
X34459093Y-18825796D01*
X34419899Y-18815314D01*
X34396022Y-18800812D01*
X34379520Y-18778790D01*
X34368051Y-18743919D01*
X34363538Y-18690903D01*
X34363538Y-18674356D01*
X34492071Y-18650237D01*
X34492071Y-18720579D01*
X34927495Y-18720579D01*
X34927495Y-18583803D01*
X34544033Y-18583803D01*
X34483531Y-18579563D01*
X34444646Y-18568981D01*
X34420935Y-18554310D01*
X34404601Y-18532156D01*
X34393267Y-18497354D01*
X34388817Y-18444767D01*
X34388817Y-18378394D01*
X34393255Y-18326236D01*
X34404579Y-18291604D01*
X34420935Y-18269462D01*
X34444652Y-18254759D01*
X34483538Y-18244157D01*
X34544033Y-18239909D01*
X34895377Y-18239909D01*
X34955054Y-18243943D01*
X34993957Y-18254058D01*
X35018109Y-18268119D01*
X35035299Y-18289394D01*
X35046835Y-18321216D01*
X35051265Y-18367587D01*
X35051265Y-18381753D01*
X34926151Y-18407948D01*
X34926151Y-18345422D01*
G37*
G36*
X35889353Y-18243559D02*
G01*
X35923543Y-18253041D01*
X35946903Y-18266837D01*
X35964111Y-18287089D01*
X35975237Y-18315359D01*
X35979387Y-18354398D01*
X35979387Y-18484945D01*
X35975199Y-18523949D01*
X35963958Y-18552223D01*
X35946537Y-18572506D01*
X35923000Y-18586336D01*
X35888882Y-18595802D01*
X35840596Y-18599434D01*
X35449564Y-18599434D01*
X35449564Y-18830000D01*
X35307414Y-18830000D01*
X35307414Y-18497829D01*
X35449564Y-18497829D01*
X35779047Y-18497829D01*
X35813307Y-18494533D01*
X35830644Y-18486960D01*
X35840811Y-18473274D01*
X35844688Y-18450263D01*
X35844688Y-18389080D01*
X35840811Y-18366070D01*
X35830644Y-18352383D01*
X35813307Y-18344810D01*
X35779047Y-18341514D01*
X35449564Y-18341514D01*
X35449564Y-18497829D01*
X35307414Y-18497829D01*
X35307414Y-18239909D01*
X35840596Y-18239909D01*
X35889353Y-18243559D01*
G37*
G36*
X36185712Y-18830000D02*
G01*
X36185712Y-18239909D01*
X36331280Y-18239909D01*
X36331280Y-18720579D01*
X36795464Y-18720579D01*
X36795464Y-18830000D01*
X36185712Y-18830000D01*
G37*
G36*
X37714244Y-18830000D02*
G01*
X37552250Y-18830000D01*
X37477695Y-18701039D01*
X37085991Y-18701039D01*
X37011497Y-18830000D01*
X36867271Y-18830000D01*
X37009205Y-18591618D01*
X37147540Y-18591618D01*
X37418955Y-18591618D01*
X37280836Y-18346521D01*
X37147540Y-18591618D01*
X37009205Y-18591618D01*
X37218615Y-18239909D01*
X37357406Y-18239909D01*
X37714244Y-18830000D01*
G37*
G36*
X38046659Y-18830000D02*
G01*
X38046659Y-18564935D01*
X37723281Y-18239909D01*
X37918126Y-18239909D01*
X38129335Y-18459972D01*
X38343292Y-18239909D01*
X38512857Y-18239909D01*
X38190884Y-18562187D01*
X38190884Y-18830000D01*
X38046659Y-18830000D01*
G37*
D10*
G36*
X53913024Y-15955197D02*
G01*
X52915048Y-15955197D01*
X52915048Y-15132196D01*
X53913024Y-15132196D01*
X53913024Y-15955197D01*
G37*
G36*
X54415714Y-16387325D02*
G01*
X50249343Y-16387325D01*
X50249343Y-16187325D01*
X50449343Y-16187325D01*
X50721259Y-16187325D01*
X50721259Y-15504019D01*
X50718841Y-15433787D01*
X50708949Y-15278705D01*
X50774235Y-15348278D01*
X50856667Y-15420269D01*
X51772101Y-16187325D01*
X51978841Y-16187325D01*
X51978841Y-15194954D01*
X52613567Y-15194954D01*
X52613567Y-15880129D01*
X52619551Y-15955197D01*
X52622873Y-15996870D01*
X52646455Y-16073684D01*
X52680062Y-16122149D01*
X52729428Y-16154700D01*
X52810238Y-16178007D01*
X52935931Y-16187325D01*
X53893241Y-16187325D01*
X54019010Y-16178008D01*
X54099896Y-16154702D01*
X54149329Y-16122149D01*
X54182876Y-16073694D01*
X54206421Y-15996882D01*
X54215714Y-15880129D01*
X54215714Y-15194954D01*
X54206380Y-15076657D01*
X54182800Y-14999279D01*
X54149329Y-14950846D01*
X54099928Y-14918472D01*
X54019046Y-14895276D01*
X53893241Y-14886000D01*
X52935931Y-14886000D01*
X52810201Y-14895277D01*
X52729396Y-14918474D01*
X52680062Y-14950846D01*
X52646531Y-14999289D01*
X52622914Y-15076669D01*
X52613567Y-15194954D01*
X51978841Y-15194954D01*
X51978841Y-14886000D01*
X51706815Y-14886000D01*
X51706815Y-15588979D01*
X51709893Y-15681853D01*
X51719125Y-15795829D01*
X51671205Y-15745380D01*
X51610864Y-15689986D01*
X50656082Y-14886000D01*
X50449343Y-14886000D01*
X50449343Y-16187325D01*
X50249343Y-16187325D01*
X50249343Y-14686000D01*
X54415714Y-14686000D01*
X54415714Y-16387325D01*
G37*
G36*
X17826659Y-49226526D02*
G01*
X17866515Y-49238266D01*
X17894180Y-49255563D01*
X17914454Y-49280538D01*
X17927578Y-49315051D01*
X17932465Y-49362297D01*
X17932465Y-49452301D01*
X17928655Y-49485705D01*
X17917874Y-49513032D01*
X17900286Y-49535648D01*
X17877086Y-49553068D01*
X17846902Y-49566161D01*
X17808023Y-49574422D01*
X17847941Y-49583471D01*
X17879414Y-49598306D01*
X17904072Y-49618569D01*
X17922577Y-49644350D01*
X17933950Y-49675110D01*
X17937960Y-49712236D01*
X17937960Y-49804438D01*
X17931734Y-49849154D01*
X17914265Y-49883621D01*
X17885326Y-49910378D01*
X17848412Y-49928178D01*
X17796590Y-49940362D01*
X17725347Y-49945000D01*
X17151132Y-49945000D01*
X17151132Y-49816039D01*
X17316546Y-49816039D01*
X17700068Y-49816039D01*
X17743452Y-49811661D01*
X17764670Y-49801690D01*
X17776637Y-49783562D01*
X17781401Y-49751193D01*
X17781401Y-49696543D01*
X17776621Y-49664185D01*
X17764670Y-49646352D01*
X17743493Y-49636645D01*
X17700068Y-49632369D01*
X17316546Y-49632369D01*
X17316546Y-49816039D01*
X17151132Y-49816039D01*
X17151132Y-49515132D01*
X17316546Y-49515132D01*
X17700068Y-49515132D01*
X17740039Y-49511539D01*
X17760518Y-49503286D01*
X17772697Y-49488012D01*
X17777310Y-49462070D01*
X17777310Y-49392339D01*
X17772737Y-49366924D01*
X17760518Y-49351489D01*
X17740003Y-49342973D01*
X17700068Y-49339277D01*
X17316546Y-49339277D01*
X17316546Y-49515132D01*
X17151132Y-49515132D01*
X17151132Y-49222041D01*
X17770471Y-49222041D01*
X17826659Y-49226526D01*
G37*
G36*
X18260544Y-49945000D02*
G01*
X18260544Y-49222041D01*
X18396587Y-49222041D01*
X18737001Y-49659724D01*
X19069904Y-49222041D01*
X19204604Y-49222041D01*
X19204604Y-49945000D01*
X19048777Y-49945000D01*
X19048777Y-49498768D01*
X19050487Y-49465917D01*
X19054883Y-49421343D01*
X19030947Y-49467566D01*
X19012507Y-49497363D01*
X18741092Y-49859026D01*
X18707631Y-49859026D01*
X18435544Y-49496020D01*
X18409899Y-49457308D01*
X18392496Y-49422015D01*
X18395549Y-49463108D01*
X18396587Y-49498768D01*
X18396587Y-49945000D01*
X18260544Y-49945000D01*
G37*
G36*
X19557413Y-49945000D02*
G01*
X19557413Y-49222041D01*
X20297041Y-49222041D01*
X20297041Y-49343185D01*
X19725574Y-49343185D01*
X19725574Y-49507316D01*
X20059148Y-49507316D01*
X20059148Y-49628461D01*
X19725574Y-49628461D01*
X19725574Y-49808224D01*
X20303880Y-49808224D01*
X20303880Y-49945000D01*
X19557413Y-49945000D01*
G37*
G36*
X20625120Y-49361564D02*
G01*
X20629726Y-49308998D01*
X20641498Y-49274075D01*
X20658581Y-49251716D01*
X20683243Y-49237075D01*
X20724574Y-49226367D01*
X20789862Y-49222041D01*
X21161050Y-49222041D01*
X21226332Y-49226359D01*
X21267793Y-49237062D01*
X21292636Y-49251716D01*
X21309925Y-49274110D01*
X21321816Y-49309039D01*
X21326464Y-49361564D01*
X21326464Y-49407909D01*
X21321911Y-49457338D01*
X21310405Y-49489181D01*
X21286983Y-49516464D01*
X21232857Y-49555982D01*
X20808302Y-49816039D01*
X21228034Y-49816039D01*
X21228034Y-49710526D01*
X21361329Y-49747712D01*
X21361329Y-49804560D01*
X21356678Y-49857428D01*
X21344783Y-49892593D01*
X21327502Y-49915141D01*
X21302641Y-49929893D01*
X21261179Y-49940657D01*
X21195916Y-49945000D01*
X20588239Y-49945000D01*
X20588239Y-49879848D01*
X20593783Y-49836059D01*
X20608390Y-49806697D01*
X20633491Y-49781720D01*
X20679831Y-49749056D01*
X21179490Y-49438440D01*
X21179490Y-49343185D01*
X20768002Y-49343185D01*
X20768002Y-49491685D01*
X20625120Y-49454926D01*
X20625120Y-49361564D01*
G37*
G36*
X22341349Y-49226375D02*
G01*
X22382811Y-49237119D01*
X22407666Y-49251838D01*
X22424950Y-49274309D01*
X22436844Y-49309356D01*
X22441493Y-49362053D01*
X22441493Y-49429159D01*
X22437580Y-49470526D01*
X22427007Y-49501545D01*
X22410719Y-49524658D01*
X22388024Y-49542219D01*
X22353339Y-49557939D01*
X22302702Y-49571003D01*
X22354956Y-49580784D01*
X22393098Y-49595674D01*
X22420305Y-49614661D01*
X22440585Y-49640184D01*
X22453315Y-49672900D01*
X22457918Y-49714984D01*
X22457918Y-49790760D01*
X22452675Y-49847942D01*
X22439152Y-49886514D01*
X22419267Y-49911721D01*
X22391208Y-49928468D01*
X22347342Y-49940324D01*
X22281514Y-49945000D01*
X21820078Y-49945000D01*
X21754724Y-49940373D01*
X21711192Y-49928644D01*
X21683363Y-49912088D01*
X21663728Y-49887116D01*
X21650305Y-49848490D01*
X21645078Y-49790760D01*
X21645078Y-49714984D01*
X21646878Y-49698620D01*
X21797547Y-49698620D01*
X21797547Y-49751193D01*
X21801526Y-49786727D01*
X21810553Y-49803400D01*
X21827810Y-49812110D01*
X21865935Y-49816039D01*
X22235719Y-49816039D01*
X22273298Y-49812137D01*
X22290734Y-49803400D01*
X22300028Y-49786682D01*
X22304107Y-49751193D01*
X22304107Y-49698620D01*
X22299940Y-49662468D01*
X22290429Y-49645375D01*
X22272719Y-49636342D01*
X22235719Y-49632369D01*
X21865935Y-49632369D01*
X21828934Y-49636342D01*
X21811224Y-49645375D01*
X21801713Y-49662468D01*
X21797547Y-49698620D01*
X21646878Y-49698620D01*
X21649658Y-49673348D01*
X21662369Y-49640721D01*
X21682692Y-49615027D01*
X21709905Y-49595774D01*
X21747642Y-49580781D01*
X21798890Y-49571003D01*
X21748709Y-49557568D01*
X21714090Y-49541643D01*
X21691240Y-49523986D01*
X21674745Y-49500824D01*
X21664090Y-49469997D01*
X21660160Y-49429159D01*
X21660160Y-49410963D01*
X21812568Y-49410963D01*
X21812568Y-49448026D01*
X21816874Y-49483831D01*
X21826917Y-49501516D01*
X21845339Y-49511004D01*
X21882971Y-49515132D01*
X22220026Y-49515132D01*
X22256993Y-49511106D01*
X22274981Y-49501882D01*
X22284769Y-49484410D01*
X22289025Y-49448026D01*
X22289025Y-49410963D01*
X22284749Y-49373995D01*
X22274981Y-49356496D01*
X22256986Y-49347227D01*
X22220026Y-49343185D01*
X21882971Y-49343185D01*
X21845339Y-49347313D01*
X21826917Y-49356802D01*
X21816892Y-49374564D01*
X21812568Y-49410963D01*
X21660160Y-49410963D01*
X21660160Y-49362053D01*
X21664810Y-49309356D01*
X21676703Y-49274309D01*
X21693988Y-49251838D01*
X21718843Y-49237119D01*
X21760304Y-49226375D01*
X21825574Y-49222041D01*
X22276080Y-49222041D01*
X22341349Y-49226375D01*
G37*
G36*
X23441051Y-49227061D02*
G01*
X23482504Y-49239716D01*
X23508285Y-49257639D01*
X23525629Y-49283971D01*
X23537949Y-49326327D01*
X23542845Y-49391362D01*
X23542845Y-49774762D01*
X23537947Y-49840182D01*
X23525622Y-49882791D01*
X23508285Y-49909279D01*
X23482492Y-49927269D01*
X23441038Y-49939965D01*
X23377371Y-49945000D01*
X22888641Y-49945000D01*
X22825489Y-49939979D01*
X22784213Y-49927296D01*
X22758398Y-49909279D01*
X22741094Y-49882797D01*
X22728790Y-49840189D01*
X22726985Y-49816039D01*
X22874963Y-49816039D01*
X23391048Y-49816039D01*
X23391048Y-49343185D01*
X22874963Y-49343185D01*
X22874963Y-49816039D01*
X22726985Y-49816039D01*
X22723899Y-49774762D01*
X22723899Y-49391362D01*
X22728787Y-49326320D01*
X22741088Y-49283965D01*
X22758398Y-49257639D01*
X22784201Y-49239690D01*
X22825475Y-49227047D01*
X22888641Y-49222041D01*
X23377371Y-49222041D01*
X23441051Y-49227061D01*
G37*
G36*
X38355987Y-1870037D02*
G01*
X30204010Y-1870037D01*
X30204010Y-1731148D01*
X30342899Y-1731148D01*
X30500006Y-1731148D01*
X30500006Y-1256630D01*
X30498609Y-1207858D01*
X30492894Y-1100162D01*
X30530614Y-1148476D01*
X30578242Y-1198470D01*
X31107159Y-1731148D01*
X31226609Y-1731148D01*
X31609088Y-1731148D01*
X31783976Y-1731148D01*
X32550840Y-1731148D01*
X32725029Y-1731148D01*
X33015048Y-1077951D01*
X33319355Y-1731148D01*
X33519136Y-1731148D01*
X33224798Y-1118862D01*
X33652111Y-1118862D01*
X33658396Y-1192823D01*
X33676147Y-1253898D01*
X33704800Y-1304809D01*
X33745270Y-1347229D01*
X33792231Y-1377832D01*
X33852414Y-1401725D01*
X33928746Y-1417579D01*
X34024621Y-1423402D01*
X34158676Y-1418288D01*
X34328928Y-1401344D01*
X34311909Y-1579717D01*
X33787246Y-1579717D01*
X33774418Y-1731148D01*
X34423484Y-1731148D01*
X34435873Y-1585900D01*
X35271695Y-1585900D01*
X35271695Y-1731148D01*
X36106381Y-1731148D01*
X36272632Y-1731148D01*
X36446821Y-1731148D01*
X36736840Y-1077951D01*
X37041147Y-1731148D01*
X37240928Y-1731148D01*
X36899258Y-1020401D01*
X37426547Y-1020401D01*
X37426547Y-1115656D01*
X37431659Y-1169488D01*
X37445824Y-1211287D01*
X37468523Y-1243884D01*
X37498700Y-1267747D01*
X37541507Y-1286389D01*
X37600737Y-1298304D01*
X37547495Y-1312876D01*
X37511259Y-1331260D01*
X37487701Y-1352266D01*
X37470805Y-1380417D01*
X37459792Y-1418746D01*
X37455695Y-1470495D01*
X37455695Y-1555751D01*
X37460496Y-1621825D01*
X37472765Y-1665722D01*
X37490559Y-1693825D01*
X37516186Y-1712245D01*
X37559147Y-1725709D01*
X37627027Y-1731148D01*
X38033701Y-1731148D01*
X38101580Y-1725711D01*
X38144567Y-1712248D01*
X38170233Y-1693825D01*
X38187991Y-1665730D01*
X38200239Y-1621834D01*
X38205032Y-1555751D01*
X38205032Y-1497133D01*
X38056435Y-1462481D01*
X38056435Y-1579717D01*
X37685323Y-1579717D01*
X37646902Y-1574586D01*
X37628424Y-1562849D01*
X37618552Y-1540672D01*
X37614199Y-1493546D01*
X37614199Y-1447063D01*
X37618512Y-1402456D01*
X37628424Y-1381041D01*
X37646842Y-1369750D01*
X37685323Y-1364784D01*
X37911394Y-1364784D01*
X37911394Y-1218238D01*
X37657572Y-1218238D01*
X37619008Y-1213222D01*
X37599975Y-1201675D01*
X37589532Y-1180093D01*
X37585051Y-1136035D01*
X37585051Y-1070166D01*
X37589448Y-1026289D01*
X37599657Y-1004907D01*
X37618422Y-993620D01*
X37657572Y-988650D01*
X38062849Y-988650D01*
X38062849Y-1115656D01*
X38217098Y-1077035D01*
X38217098Y-1003228D01*
X38212261Y-937035D01*
X38199888Y-893006D01*
X38181917Y-864773D01*
X38156063Y-846333D01*
X38112942Y-832877D01*
X38045068Y-827450D01*
X37608547Y-827450D01*
X37540586Y-833242D01*
X37495312Y-847929D01*
X37466364Y-868665D01*
X37445946Y-899882D01*
X37431984Y-948185D01*
X37426547Y-1020401D01*
X36899258Y-1020401D01*
X36806503Y-827450D01*
X36685656Y-827450D01*
X36272632Y-1731148D01*
X36106381Y-1731148D01*
X36106381Y-1417754D01*
X35947813Y-1384323D01*
X35947813Y-1579717D01*
X35450901Y-1579717D01*
X35856115Y-812795D01*
X35664843Y-812795D01*
X35271695Y-1585900D01*
X34435873Y-1585900D01*
X34453066Y-1384323D01*
X34727093Y-1384323D01*
X35066199Y-1384323D01*
X35066199Y-1203583D01*
X34727093Y-1203583D01*
X34727093Y-1384323D01*
X34453066Y-1384323D01*
X34466158Y-1230832D01*
X34247199Y-1257775D01*
X34059484Y-1267087D01*
X33969401Y-1262490D01*
X33908685Y-1250890D01*
X33869737Y-1235030D01*
X33838164Y-1208544D01*
X33819921Y-1174009D01*
X33813536Y-1128784D01*
X33820145Y-1080848D01*
X33838911Y-1044566D01*
X33871134Y-1017043D01*
X33911197Y-1000654D01*
X33974712Y-988578D01*
X34070153Y-983765D01*
X34161300Y-986546D01*
X34258249Y-995137D01*
X34357294Y-1009280D01*
X34466158Y-1030171D01*
X34428501Y-854850D01*
X34360910Y-839473D01*
X34272474Y-827221D01*
X34177643Y-820199D01*
X34065898Y-817680D01*
X33951830Y-823422D01*
X33864352Y-838758D01*
X33798495Y-861255D01*
X33749906Y-889121D01*
X33707533Y-929777D01*
X33677505Y-980123D01*
X33658793Y-1042072D01*
X33652111Y-1118862D01*
X33224798Y-1118862D01*
X33084711Y-827450D01*
X32963864Y-827450D01*
X32550840Y-1731148D01*
X31783976Y-1731148D01*
X31783976Y-827450D01*
X31609088Y-827450D01*
X31609088Y-1731148D01*
X31226609Y-1731148D01*
X31226609Y-827450D01*
X31069439Y-827450D01*
X31069439Y-1315630D01*
X31071217Y-1380125D01*
X31076551Y-1459275D01*
X31048864Y-1424242D01*
X31014000Y-1385773D01*
X30462349Y-827450D01*
X30342899Y-827450D01*
X30342899Y-1731148D01*
X30204010Y-1731148D01*
X30204010Y-673906D01*
X38355987Y-673906D01*
X38355987Y-1870037D01*
G37*
G36*
X54000433Y-4145197D02*
G01*
X53279672Y-4145197D01*
X53279672Y-3322196D01*
X54000433Y-3322196D01*
X54000433Y-4145197D01*
G37*
G36*
X54419043Y-4577325D02*
G01*
X50231160Y-4577325D01*
X50231160Y-4152231D01*
X50431160Y-4152231D01*
X50431160Y-4377325D01*
X51381167Y-4377325D01*
X51381167Y-4152231D01*
X51651690Y-4152231D01*
X51651690Y-4377325D01*
X52601697Y-4377325D01*
X52601697Y-3384954D01*
X53061936Y-3384954D01*
X53061936Y-4070129D01*
X53066258Y-4145197D01*
X53068657Y-4186870D01*
X53085688Y-4263684D01*
X53109960Y-4312149D01*
X53145613Y-4344700D01*
X53203976Y-4368007D01*
X53294754Y-4377325D01*
X53986145Y-4377325D01*
X54076978Y-4368008D01*
X54135396Y-4344702D01*
X54171098Y-4312149D01*
X54195326Y-4263694D01*
X54212331Y-4186882D01*
X54219043Y-4070129D01*
X54219043Y-3384954D01*
X54212301Y-3266657D01*
X54195271Y-3189279D01*
X54171098Y-3140846D01*
X54135419Y-3108472D01*
X54077005Y-3085276D01*
X53986145Y-3076000D01*
X53294754Y-3076000D01*
X53203950Y-3085277D01*
X53145591Y-3108474D01*
X53109960Y-3140846D01*
X53085743Y-3189289D01*
X53068687Y-3266669D01*
X53061936Y-3384954D01*
X52601697Y-3384954D01*
X52601697Y-3076000D01*
X52383087Y-3076000D01*
X52383087Y-3568393D01*
X51987622Y-3568393D01*
X51987622Y-3807556D01*
X52383087Y-3807556D01*
X52383087Y-4152231D01*
X51651690Y-4152231D01*
X51381167Y-4152231D01*
X51381167Y-3076000D01*
X51162557Y-3076000D01*
X51162557Y-3568393D01*
X50767091Y-3568393D01*
X50767091Y-3807556D01*
X51162557Y-3807556D01*
X51162557Y-4152231D01*
X50431160Y-4152231D01*
X50231160Y-4152231D01*
X50231160Y-2876000D01*
X54419043Y-2876000D01*
X54419043Y-4577325D01*
G37*
G36*
X1211546Y-18828399D02*
G01*
X906693Y-18828399D01*
X906693Y-18725397D01*
X1044789Y-18660217D01*
X1011771Y-18579077D01*
X906693Y-18623739D01*
X906693Y-18458732D01*
X1211546Y-18458732D01*
X1211546Y-18828399D01*
G37*
G36*
X1204177Y-17507287D02*
G01*
X1008311Y-17611185D01*
X1008311Y-17400173D01*
X1204177Y-17507287D01*
G37*
G36*
X1372530Y-19697328D02*
G01*
X615430Y-19697328D01*
X615430Y-19288244D01*
X815498Y-19288244D01*
X815498Y-19400365D01*
X1211546Y-19400365D01*
X1211546Y-19622328D01*
X1297530Y-19622328D01*
X1297530Y-19067176D01*
X1211546Y-19067176D01*
X1211546Y-19288244D01*
X815498Y-19288244D01*
X615430Y-19288244D01*
X615430Y-18718110D01*
X690430Y-18718110D01*
X690430Y-18829295D01*
X815498Y-18768674D01*
X815498Y-18820664D01*
X818939Y-18867231D01*
X827545Y-18897164D01*
X839558Y-18915442D01*
X857505Y-18927858D01*
X886202Y-18936608D01*
X930102Y-18940073D01*
X1183902Y-18940073D01*
X1227088Y-18936626D01*
X1255502Y-18927891D01*
X1273429Y-18915442D01*
X1285464Y-18897160D01*
X1294084Y-18867227D01*
X1297530Y-18820664D01*
X1297530Y-18466060D01*
X1294084Y-18419469D01*
X1285465Y-18389508D01*
X1273429Y-18371201D01*
X1255506Y-18358773D01*
X1227093Y-18350053D01*
X1183902Y-18346610D01*
X930102Y-18346610D01*
X886197Y-18350070D01*
X857501Y-18358806D01*
X839558Y-18371201D01*
X827545Y-18389504D01*
X818939Y-18419464D01*
X815498Y-18466060D01*
X815498Y-18623739D01*
X815498Y-18663840D01*
X690430Y-18718110D01*
X615430Y-18718110D01*
X615430Y-17296235D01*
X815498Y-17296235D01*
X922326Y-17352296D01*
X922326Y-17611185D01*
X922326Y-17657678D01*
X815498Y-17715571D01*
X815498Y-17841372D01*
X1297530Y-17565139D01*
X1297530Y-17457130D01*
X815498Y-17184561D01*
X815498Y-17296235D01*
X615430Y-17296235D01*
X615430Y-16502672D01*
X815498Y-16502672D01*
X1113022Y-16502672D01*
X1136798Y-16501980D01*
X1164198Y-16499944D01*
X1140666Y-16511547D01*
X1114855Y-16528647D01*
X872820Y-16710060D01*
X872820Y-16732371D01*
X1113959Y-16913336D01*
X1133826Y-16925631D01*
X1164646Y-16941591D01*
X1134926Y-16938659D01*
X1113022Y-16937519D01*
X815498Y-16937519D01*
X815498Y-17041417D01*
X1297530Y-17041417D01*
X1297530Y-16951606D01*
X1005705Y-16729643D01*
X1297530Y-16502672D01*
X1297530Y-16411965D01*
X815498Y-16411965D01*
X815498Y-16502672D01*
X615430Y-16502672D01*
X615430Y-15638921D01*
X815498Y-15638921D01*
X1113022Y-15638921D01*
X1136798Y-15638229D01*
X1164198Y-15636194D01*
X1140666Y-15647797D01*
X1114855Y-15664896D01*
X872820Y-15846310D01*
X872820Y-15868620D01*
X1113959Y-16049586D01*
X1133826Y-16061881D01*
X1164646Y-16077840D01*
X1134926Y-16074909D01*
X1113022Y-16073769D01*
X815498Y-16073769D01*
X815498Y-16177666D01*
X1297530Y-16177666D01*
X1297530Y-16087855D01*
X1005705Y-15865892D01*
X1297530Y-15638921D01*
X1297530Y-15548215D01*
X815498Y-15548215D01*
X815498Y-15638921D01*
X615430Y-15638921D01*
X615430Y-15342699D01*
X815498Y-15342699D01*
X906693Y-15342699D01*
X906693Y-14957114D01*
X1026550Y-14957114D01*
X1026550Y-15179525D01*
X1107323Y-15179525D01*
X1107323Y-14957114D01*
X1216757Y-14957114D01*
X1216757Y-15338140D01*
X1297530Y-15338140D01*
X1297530Y-14844992D01*
X815498Y-14844992D01*
X815498Y-15342699D01*
X615430Y-15342699D01*
X615430Y-14374115D01*
X815498Y-14374115D01*
X815498Y-14486236D01*
X1211546Y-14486236D01*
X1211546Y-14708199D01*
X1297530Y-14708199D01*
X1297530Y-14153047D01*
X1211546Y-14153047D01*
X1211546Y-14374115D01*
X815498Y-14374115D01*
X615430Y-14374115D01*
X615430Y-13611860D01*
X815498Y-13611860D01*
X815498Y-13909466D01*
X818966Y-13956353D01*
X827642Y-13986525D01*
X839762Y-14004977D01*
X857864Y-14017532D01*
X886527Y-14026337D01*
X930062Y-14029811D01*
X995893Y-14029811D01*
X1039199Y-14026340D01*
X1067723Y-14017537D01*
X1085745Y-14004977D01*
X1097821Y-13986532D01*
X1106470Y-13956362D01*
X1109928Y-13909466D01*
X1109928Y-13609091D01*
X1214152Y-13609091D01*
X1214152Y-13924529D01*
X1159434Y-13924529D01*
X1182681Y-14023419D01*
X1192737Y-14023419D01*
X1231068Y-14019939D01*
X1257191Y-14010930D01*
X1274487Y-13997649D01*
X1286064Y-13978829D01*
X1294280Y-13949072D01*
X1297530Y-13904011D01*
X1297530Y-13630546D01*
X1294099Y-13583941D01*
X1285521Y-13553982D01*
X1273551Y-13535687D01*
X1255708Y-13523253D01*
X1227446Y-13514536D01*
X1184513Y-13511097D01*
X1130732Y-13511097D01*
X1087171Y-13514542D01*
X1058511Y-13523267D01*
X1040433Y-13535687D01*
X1028286Y-13554014D01*
X1019599Y-13583977D01*
X1016127Y-13630546D01*
X1016127Y-13930881D01*
X906693Y-13930881D01*
X906693Y-13590404D01*
X964016Y-13590404D01*
X943375Y-13491514D01*
X930062Y-13491514D01*
X886527Y-13494988D01*
X857864Y-13503794D01*
X839762Y-13516349D01*
X827642Y-13534801D01*
X818966Y-13564972D01*
X815498Y-13611860D01*
X615430Y-13611860D01*
X615430Y-13416514D01*
X1372530Y-13416514D01*
X1372530Y-19697328D01*
G37*
D11*
%TO.C,R12*%
X41265000Y-17975000D02*
X41265000Y-17078000D01*
X42555000Y-17975000D02*
X41265000Y-17975000D01*
X42555000Y-17078000D02*
X42555000Y-17975000D01*
X42555000Y-16465000D02*
X42555000Y-15285000D01*
X41265000Y-15285000D02*
X41265000Y-16465000D01*
X41265000Y-14672000D02*
X41265000Y-13775000D01*
X41265000Y-13775000D02*
X42555000Y-13775000D01*
X42555000Y-13775000D02*
X42555000Y-14672000D01*
%TO.C,R11*%
X38725000Y-17975000D02*
X38725000Y-17078000D01*
X40015000Y-17975000D02*
X38725000Y-17975000D01*
X40015000Y-17078000D02*
X40015000Y-17975000D01*
X40015000Y-16465000D02*
X40015000Y-15285000D01*
X38725000Y-15285000D02*
X38725000Y-16465000D01*
X38725000Y-14672000D02*
X38725000Y-13775000D01*
X38725000Y-13775000D02*
X40015000Y-13775000D01*
X40015000Y-13775000D02*
X40015000Y-14672000D01*
%TO.C,Q2*%
X44325000Y-4770000D02*
X45845000Y-4770000D01*
X44325000Y-5865000D02*
X44325000Y-4770000D01*
X44325000Y-7930000D02*
X44325000Y-6835000D01*
X45845000Y-5884000D02*
X45845000Y-6816000D01*
X45845000Y-7930000D02*
X44325000Y-7930000D01*
D14*
X46385000Y-8150000D02*
X45885000Y-8150000D01*
X46135000Y-7900000D01*
X46385000Y-8150000D01*
G36*
X46385000Y-8150000D02*
G01*
X45885000Y-8150000D01*
X46135000Y-7900000D01*
X46385000Y-8150000D01*
G37*
D11*
%TO.C,C2*%
X16861000Y-45867000D02*
X18191000Y-45867000D01*
X16861000Y-46777000D02*
X16861000Y-45867000D01*
X16861000Y-47687000D02*
X16861000Y-48597000D01*
X16861000Y-48597000D02*
X18191000Y-48597000D01*
X18191000Y-45867000D02*
X18191000Y-46777000D01*
X18191000Y-48597000D02*
X18191000Y-47687000D01*
%TO.C,J1*%
X30230000Y-6399000D02*
X30230000Y-10649000D01*
X30230000Y-10649000D02*
X31250000Y-10649000D01*
X31250000Y-9049000D02*
X32530000Y-9049000D01*
X31250000Y-10649000D02*
X31250000Y-9049000D01*
X36050000Y-9049000D02*
X36050000Y-11939000D01*
X36630000Y-2829000D02*
X31950000Y-2829000D01*
X37330000Y-9049000D02*
X36050000Y-9049000D01*
X37330000Y-10649000D02*
X37330000Y-9049000D01*
X38350000Y-6399000D02*
X38350000Y-10649000D01*
X38350000Y-10649000D02*
X37330000Y-10649000D01*
%TO.C,Q4*%
X40475000Y-4800000D02*
X42075000Y-4800000D01*
X42075000Y-7900000D02*
X40475000Y-7900000D01*
D14*
X42575000Y-8250000D02*
X42075000Y-8250000D01*
X42325000Y-8000000D01*
X42575000Y-8250000D01*
G36*
X42575000Y-8250000D02*
G01*
X42075000Y-8250000D01*
X42325000Y-8000000D01*
X42575000Y-8250000D01*
G37*
D10*
%TO.C,J2*%
X4618000Y-42560000D02*
X17893000Y-42560000D01*
X17893000Y-28560000D02*
X5618000Y-28560000D01*
X17893000Y-28560000D02*
X17893000Y-29360000D01*
X17893000Y-35060000D02*
X17893000Y-31810000D01*
X17893000Y-42560000D02*
X17893000Y-37510000D01*
D11*
%TO.C,R10*%
X22780000Y-46599000D02*
X22780000Y-47889000D01*
X22780000Y-47889000D02*
X23677000Y-47889000D01*
X23677000Y-46599000D02*
X22780000Y-46599000D01*
X24573000Y-46599000D02*
X25470000Y-46599000D01*
X25470000Y-46599000D02*
X25470000Y-47889000D01*
X25470000Y-47889000D02*
X24573000Y-47889000D01*
%TO.C,R5*%
X14214000Y-25071000D02*
X15504000Y-25071000D01*
X14214000Y-25968000D02*
X14214000Y-25071000D01*
X14214000Y-26864000D02*
X14214000Y-27761000D01*
X14214000Y-27761000D02*
X15504000Y-27761000D01*
X15504000Y-25071000D02*
X15504000Y-25968000D01*
X15504000Y-27761000D02*
X15504000Y-26864000D01*
D15*
%TO.C,G\u002A\u002A\u002A*%
G36*
X43925440Y-15842676D02*
G01*
X43929678Y-15844023D01*
X43934255Y-15845835D01*
X43938718Y-15847911D01*
X43942614Y-15850049D01*
X43944144Y-15851034D01*
X43950308Y-15856017D01*
X43955761Y-15861934D01*
X43960388Y-15868608D01*
X43964074Y-15875863D01*
X43966702Y-15883524D01*
X43967379Y-15886405D01*
X43967422Y-15886685D01*
X43967464Y-15887112D01*
X43967505Y-15887706D01*
X43967544Y-15888484D01*
X43967582Y-15889464D01*
X43967619Y-15890664D01*
X43967655Y-15892102D01*
X43967690Y-15893796D01*
X43967723Y-15895765D01*
X43967756Y-15898026D01*
X43967787Y-15900596D01*
X43967817Y-15903496D01*
X43967847Y-15906741D01*
X43967875Y-15910351D01*
X43967902Y-15914343D01*
X43967929Y-15918736D01*
X43967954Y-15923547D01*
X43967978Y-15928794D01*
X43968002Y-15934496D01*
X43968024Y-15940670D01*
X43968046Y-15947335D01*
X43968067Y-15954508D01*
X43968086Y-15962208D01*
X43968105Y-15970452D01*
X43968124Y-15979260D01*
X43968141Y-15988647D01*
X43968158Y-15998634D01*
X43968173Y-16009237D01*
X43968188Y-16020474D01*
X43968203Y-16032365D01*
X43968216Y-16044926D01*
X43968229Y-16058176D01*
X43968242Y-16072133D01*
X43968253Y-16086815D01*
X43968264Y-16102240D01*
X43968274Y-16118425D01*
X43968284Y-16135390D01*
X43968293Y-16153151D01*
X43968301Y-16171728D01*
X43968309Y-16191137D01*
X43968317Y-16211398D01*
X43968324Y-16232527D01*
X43968330Y-16254544D01*
X43968336Y-16277466D01*
X43968341Y-16301311D01*
X43968346Y-16326097D01*
X43968351Y-16351842D01*
X43968355Y-16378564D01*
X43968358Y-16406282D01*
X43968362Y-16435013D01*
X43968365Y-16464776D01*
X43968367Y-16495587D01*
X43968370Y-16527466D01*
X43968372Y-16560431D01*
X43968373Y-16594499D01*
X43968375Y-16629688D01*
X43968376Y-16666017D01*
X43968377Y-16703503D01*
X43968377Y-16742165D01*
X43968378Y-16782020D01*
X43968378Y-16823087D01*
X43968378Y-16865383D01*
X43968378Y-16890932D01*
X43968378Y-16934242D01*
X43968378Y-16976311D01*
X43968378Y-17017157D01*
X43968377Y-17056798D01*
X43968376Y-17095250D01*
X43968374Y-17132532D01*
X43968373Y-17168662D01*
X43968371Y-17203656D01*
X43968368Y-17237532D01*
X43968366Y-17270308D01*
X43968363Y-17302002D01*
X43968360Y-17332631D01*
X43968356Y-17362213D01*
X43968352Y-17390764D01*
X43968347Y-17418304D01*
X43968342Y-17444849D01*
X43968337Y-17470417D01*
X43968331Y-17495025D01*
X43968324Y-17518692D01*
X43968317Y-17541434D01*
X43968310Y-17563270D01*
X43968302Y-17584216D01*
X43968293Y-17604291D01*
X43968284Y-17623512D01*
X43968275Y-17641896D01*
X43968264Y-17659462D01*
X43968253Y-17676226D01*
X43968242Y-17692206D01*
X43968230Y-17707421D01*
X43968217Y-17721887D01*
X43968203Y-17735622D01*
X43968189Y-17748643D01*
X43968174Y-17760969D01*
X43968159Y-17772616D01*
X43968142Y-17783603D01*
X43968125Y-17793947D01*
X43968107Y-17803665D01*
X43968089Y-17812775D01*
X43968069Y-17821295D01*
X43968049Y-17829242D01*
X43968027Y-17836634D01*
X43968005Y-17843488D01*
X43967983Y-17849823D01*
X43967959Y-17855654D01*
X43967934Y-17861001D01*
X43967908Y-17865881D01*
X43967882Y-17870311D01*
X43967854Y-17874308D01*
X43967826Y-17877891D01*
X43967797Y-17881077D01*
X43967766Y-17883884D01*
X43967735Y-17886329D01*
X43967702Y-17888429D01*
X43967669Y-17890203D01*
X43967634Y-17891668D01*
X43967598Y-17892841D01*
X43967562Y-17893740D01*
X43967524Y-17894382D01*
X43967485Y-17894786D01*
X43967466Y-17894898D01*
X43965079Y-17903272D01*
X43961657Y-17910966D01*
X43957259Y-17917920D01*
X43951944Y-17924075D01*
X43945773Y-17929371D01*
X43938804Y-17933750D01*
X43931096Y-17937153D01*
X43922882Y-17939482D01*
X43922541Y-17939530D01*
X43921965Y-17939577D01*
X43921134Y-17939622D01*
X43920025Y-17939665D01*
X43918616Y-17939707D01*
X43916887Y-17939747D01*
X43914816Y-17939786D01*
X43912380Y-17939823D01*
X43909559Y-17939858D01*
X43906330Y-17939892D01*
X43902673Y-17939924D01*
X43898565Y-17939955D01*
X43893985Y-17939985D01*
X43888911Y-17940013D01*
X43883322Y-17940040D01*
X43877195Y-17940065D01*
X43870510Y-17940089D01*
X43863245Y-17940112D01*
X43855378Y-17940134D01*
X43846887Y-17940154D01*
X43837751Y-17940174D01*
X43827949Y-17940192D01*
X43817458Y-17940209D01*
X43806257Y-17940224D01*
X43794324Y-17940239D01*
X43781638Y-17940253D01*
X43768177Y-17940266D01*
X43753919Y-17940277D01*
X43738844Y-17940288D01*
X43722928Y-17940298D01*
X43706152Y-17940306D01*
X43688492Y-17940314D01*
X43669927Y-17940322D01*
X43650436Y-17940328D01*
X43629998Y-17940333D01*
X43608589Y-17940338D01*
X43586190Y-17940342D01*
X43562778Y-17940345D01*
X43538331Y-17940348D01*
X43512828Y-17940350D01*
X43486248Y-17940351D01*
X43458568Y-17940351D01*
X43429768Y-17940351D01*
X43399825Y-17940351D01*
X43368718Y-17940350D01*
X43336425Y-17940348D01*
X43302924Y-17940347D01*
X43268195Y-17940344D01*
X43255687Y-17940343D01*
X43220614Y-17940340D01*
X43186778Y-17940337D01*
X43154156Y-17940334D01*
X43122728Y-17940330D01*
X43092469Y-17940326D01*
X43063360Y-17940322D01*
X43035378Y-17940318D01*
X43008502Y-17940313D01*
X42982709Y-17940307D01*
X42957977Y-17940301D01*
X42934285Y-17940295D01*
X42911611Y-17940288D01*
X42889932Y-17940281D01*
X42869228Y-17940273D01*
X42849477Y-17940264D01*
X42830655Y-17940255D01*
X42812742Y-17940245D01*
X42795716Y-17940234D01*
X42779555Y-17940222D01*
X42764236Y-17940210D01*
X42749739Y-17940197D01*
X42736041Y-17940183D01*
X42723121Y-17940168D01*
X42710956Y-17940152D01*
X42699524Y-17940135D01*
X42688805Y-17940118D01*
X42678775Y-17940099D01*
X42669414Y-17940079D01*
X42660699Y-17940058D01*
X42652608Y-17940036D01*
X42645120Y-17940013D01*
X42638212Y-17939989D01*
X42631863Y-17939963D01*
X42626052Y-17939936D01*
X42620755Y-17939908D01*
X42615952Y-17939879D01*
X42611620Y-17939848D01*
X42607737Y-17939816D01*
X42604283Y-17939783D01*
X42601234Y-17939748D01*
X42598569Y-17939711D01*
X42596266Y-17939673D01*
X42594303Y-17939634D01*
X42592659Y-17939593D01*
X42591311Y-17939550D01*
X42590239Y-17939506D01*
X42589418Y-17939460D01*
X42588829Y-17939412D01*
X42588449Y-17939363D01*
X42588384Y-17939350D01*
X42580751Y-17937105D01*
X42573413Y-17933762D01*
X42566565Y-17929450D01*
X42560398Y-17924295D01*
X42555105Y-17918426D01*
X42553449Y-17916160D01*
X42551181Y-17912391D01*
X42548949Y-17907840D01*
X42546955Y-17902971D01*
X42545404Y-17898247D01*
X42545129Y-17897221D01*
X42543706Y-17891637D01*
X42543706Y-16890685D01*
X42543706Y-16847772D01*
X42543706Y-16806098D01*
X42543707Y-16765646D01*
X42543707Y-16726398D01*
X42543708Y-16688335D01*
X42543708Y-16651439D01*
X42543708Y-16648137D01*
X42922149Y-16648137D01*
X42922242Y-16655856D01*
X42923370Y-16663504D01*
X42925528Y-16670954D01*
X42928712Y-16678082D01*
X42932919Y-16684762D01*
X42938143Y-16690871D01*
X42940092Y-16692742D01*
X42946702Y-16697945D01*
X42954027Y-16702166D01*
X42961877Y-16705304D01*
X42964596Y-16706097D01*
X42968592Y-16706873D01*
X42973329Y-16707353D01*
X42978386Y-16707529D01*
X42983345Y-16707395D01*
X42987785Y-16706946D01*
X42990225Y-16706474D01*
X42997044Y-16704392D01*
X43003446Y-16701664D01*
X43008966Y-16698504D01*
X43009913Y-16697776D01*
X43011761Y-16696266D01*
X43014462Y-16694013D01*
X43017967Y-16691059D01*
X43022227Y-16687447D01*
X43027193Y-16683218D01*
X43032818Y-16678414D01*
X43039053Y-16673075D01*
X43045848Y-16667245D01*
X43053155Y-16660964D01*
X43060927Y-16654274D01*
X43069113Y-16647218D01*
X43077666Y-16639836D01*
X43086537Y-16632170D01*
X43095677Y-16624262D01*
X43105037Y-16616153D01*
X43106466Y-16614915D01*
X43199263Y-16534472D01*
X43199586Y-16956997D01*
X43199608Y-16984665D01*
X43199628Y-17011102D01*
X43199648Y-17036337D01*
X43199668Y-17060399D01*
X43199687Y-17083315D01*
X43199706Y-17105114D01*
X43199724Y-17125823D01*
X43199743Y-17145472D01*
X43199761Y-17164087D01*
X43199780Y-17181698D01*
X43199799Y-17198333D01*
X43199818Y-17214019D01*
X43199837Y-17228785D01*
X43199857Y-17242659D01*
X43199877Y-17255670D01*
X43199899Y-17267845D01*
X43199920Y-17279212D01*
X43199943Y-17289800D01*
X43199967Y-17299637D01*
X43199991Y-17308751D01*
X43200017Y-17317171D01*
X43200044Y-17324924D01*
X43200072Y-17332039D01*
X43200101Y-17338543D01*
X43200133Y-17344465D01*
X43200165Y-17349834D01*
X43200200Y-17354677D01*
X43200236Y-17359023D01*
X43200274Y-17362899D01*
X43200314Y-17366334D01*
X43200356Y-17369357D01*
X43200400Y-17371994D01*
X43200446Y-17374275D01*
X43200495Y-17376228D01*
X43200546Y-17377880D01*
X43200600Y-17379261D01*
X43200656Y-17380397D01*
X43200715Y-17381318D01*
X43200777Y-17382052D01*
X43200842Y-17382626D01*
X43200910Y-17383069D01*
X43200981Y-17383409D01*
X43201012Y-17383530D01*
X43203944Y-17392034D01*
X43207822Y-17399736D01*
X43212605Y-17406599D01*
X43218255Y-17412582D01*
X43224731Y-17417649D01*
X43231993Y-17421758D01*
X43240003Y-17424873D01*
X43244561Y-17426112D01*
X43247711Y-17426595D01*
X43251730Y-17426837D01*
X43256256Y-17426850D01*
X43260924Y-17426648D01*
X43265371Y-17426243D01*
X43269235Y-17425649D01*
X43271294Y-17425158D01*
X43279125Y-17422241D01*
X43286362Y-17418258D01*
X43292919Y-17413293D01*
X43298712Y-17407431D01*
X43303657Y-17400755D01*
X43307670Y-17393351D01*
X43310419Y-17386120D01*
X43311878Y-17381409D01*
X43312192Y-16957791D01*
X43312507Y-16534173D01*
X43405009Y-16614285D01*
X43414355Y-16622378D01*
X43423467Y-16630266D01*
X43432298Y-16637910D01*
X43440801Y-16645268D01*
X43448929Y-16652298D01*
X43456633Y-16658961D01*
X43463868Y-16665216D01*
X43470584Y-16671020D01*
X43476736Y-16676335D01*
X43482276Y-16681118D01*
X43487156Y-16685328D01*
X43491329Y-16688926D01*
X43494748Y-16691869D01*
X43497366Y-16694118D01*
X43499134Y-16695631D01*
X43500007Y-16696367D01*
X43500059Y-16696409D01*
X43503262Y-16698619D01*
X43507248Y-16700886D01*
X43511571Y-16702982D01*
X43515789Y-16704678D01*
X43516770Y-16705011D01*
X43524674Y-16706944D01*
X43532631Y-16707680D01*
X43540524Y-16707268D01*
X43548236Y-16705760D01*
X43555650Y-16703204D01*
X43562649Y-16699652D01*
X43569118Y-16695151D01*
X43574938Y-16689753D01*
X43579993Y-16683508D01*
X43584167Y-16676465D01*
X43584322Y-16676151D01*
X43587376Y-16668569D01*
X43589288Y-16660740D01*
X43590076Y-16652801D01*
X43589758Y-16644888D01*
X43588352Y-16637138D01*
X43585877Y-16629686D01*
X43582349Y-16622670D01*
X43577788Y-16616224D01*
X43576139Y-16614332D01*
X43575412Y-16613645D01*
X43573779Y-16612174D01*
X43571286Y-16609958D01*
X43567978Y-16607039D01*
X43563900Y-16603454D01*
X43559099Y-16599243D01*
X43553620Y-16594447D01*
X43547508Y-16589104D01*
X43540809Y-16583254D01*
X43533569Y-16576937D01*
X43525832Y-16570192D01*
X43517646Y-16563059D01*
X43509054Y-16555578D01*
X43500103Y-16547787D01*
X43490839Y-16539726D01*
X43481306Y-16531436D01*
X43471550Y-16522955D01*
X43461618Y-16514323D01*
X43451554Y-16505580D01*
X43441404Y-16496765D01*
X43431214Y-16487918D01*
X43421029Y-16479078D01*
X43410895Y-16470285D01*
X43400857Y-16461579D01*
X43390961Y-16452998D01*
X43381253Y-16444583D01*
X43371777Y-16436373D01*
X43362580Y-16428407D01*
X43353708Y-16420726D01*
X43345204Y-16413368D01*
X43337116Y-16406374D01*
X43329489Y-16399782D01*
X43322369Y-16393633D01*
X43315800Y-16387966D01*
X43309828Y-16382820D01*
X43304500Y-16378235D01*
X43299860Y-16374251D01*
X43295955Y-16370907D01*
X43292829Y-16368243D01*
X43290528Y-16366298D01*
X43289099Y-16365111D01*
X43288710Y-16364804D01*
X43285182Y-16362505D01*
X43280850Y-16360216D01*
X43276155Y-16358144D01*
X43271535Y-16356495D01*
X43270219Y-16356111D01*
X43267899Y-16355543D01*
X43265594Y-16355156D01*
X43262980Y-16354920D01*
X43259734Y-16354804D01*
X43255885Y-16354777D01*
X43252023Y-16354804D01*
X43249087Y-16354901D01*
X43246745Y-16355105D01*
X43244664Y-16355455D01*
X43242512Y-16355987D01*
X43240786Y-16356489D01*
X43233150Y-16359276D01*
X43226463Y-16362779D01*
X43222098Y-16365831D01*
X43221045Y-16366697D01*
X43219101Y-16368338D01*
X43216312Y-16370715D01*
X43212724Y-16373787D01*
X43208383Y-16377515D01*
X43203334Y-16381859D01*
X43197624Y-16386779D01*
X43191298Y-16392235D01*
X43184402Y-16398188D01*
X43176983Y-16404598D01*
X43169085Y-16411425D01*
X43160755Y-16418629D01*
X43152039Y-16426170D01*
X43142983Y-16434009D01*
X43133632Y-16442106D01*
X43124033Y-16450421D01*
X43114230Y-16458914D01*
X43104271Y-16467546D01*
X43094201Y-16476276D01*
X43084066Y-16485065D01*
X43073911Y-16493874D01*
X43063783Y-16502661D01*
X43053727Y-16511388D01*
X43043790Y-16520015D01*
X43034017Y-16528502D01*
X43024454Y-16536809D01*
X43015147Y-16544896D01*
X43006142Y-16552723D01*
X42997485Y-16560252D01*
X42989221Y-16567441D01*
X42981397Y-16574252D01*
X42974058Y-16580644D01*
X42967250Y-16586577D01*
X42961019Y-16592012D01*
X42955411Y-16596910D01*
X42950473Y-16601229D01*
X42946248Y-16604931D01*
X42942785Y-16607975D01*
X42940127Y-16610323D01*
X42938323Y-16611933D01*
X42937416Y-16612767D01*
X42937356Y-16612827D01*
X42932211Y-16619034D01*
X42928122Y-16625793D01*
X42925085Y-16632980D01*
X42923095Y-16640470D01*
X42922149Y-16648137D01*
X42543708Y-16648137D01*
X42543709Y-16615693D01*
X42543710Y-16581077D01*
X42543712Y-16547574D01*
X42543713Y-16515166D01*
X42543715Y-16483833D01*
X42543718Y-16453559D01*
X42543720Y-16424325D01*
X42543723Y-16396112D01*
X42543726Y-16368903D01*
X42543730Y-16342679D01*
X42543734Y-16317422D01*
X42543739Y-16293113D01*
X42543743Y-16269736D01*
X42543749Y-16247271D01*
X42543755Y-16225700D01*
X42543761Y-16205005D01*
X42543768Y-16185168D01*
X42543775Y-16166170D01*
X42543783Y-16147994D01*
X42543792Y-16130621D01*
X42543801Y-16114033D01*
X42543810Y-16098212D01*
X42543821Y-16083140D01*
X42543832Y-16068798D01*
X42543844Y-16055168D01*
X42543856Y-16042232D01*
X42543869Y-16029972D01*
X42543883Y-16018370D01*
X42543897Y-16007406D01*
X42543913Y-15997065D01*
X42543929Y-15987326D01*
X42543946Y-15978172D01*
X42543964Y-15969584D01*
X42543982Y-15961545D01*
X42544002Y-15954036D01*
X42544022Y-15947039D01*
X42544044Y-15940536D01*
X42544066Y-15934508D01*
X42544089Y-15928938D01*
X42544113Y-15923807D01*
X42544138Y-15919097D01*
X42544164Y-15914790D01*
X42544192Y-15910867D01*
X42544220Y-15907310D01*
X42544249Y-15904102D01*
X42544280Y-15901224D01*
X42544311Y-15898657D01*
X42544344Y-15896384D01*
X42544378Y-15894387D01*
X42544413Y-15892646D01*
X42544449Y-15891145D01*
X42544486Y-15889864D01*
X42544525Y-15888786D01*
X42544564Y-15887892D01*
X42544606Y-15887164D01*
X42544648Y-15886584D01*
X42544692Y-15886134D01*
X42544737Y-15885795D01*
X42544783Y-15885550D01*
X42544796Y-15885496D01*
X42547479Y-15877155D01*
X42551035Y-15869674D01*
X42555516Y-15862959D01*
X42560145Y-15857730D01*
X42566276Y-15852413D01*
X42573092Y-15848066D01*
X42580689Y-15844635D01*
X42587911Y-15842381D01*
X42588175Y-15842324D01*
X42588531Y-15842269D01*
X42589001Y-15842216D01*
X42589607Y-15842164D01*
X42590372Y-15842115D01*
X42591317Y-15842068D01*
X42592466Y-15842022D01*
X42593840Y-15841978D01*
X42595463Y-15841936D01*
X42597357Y-15841896D01*
X42599543Y-15841858D01*
X42602044Y-15841821D01*
X42604884Y-15841785D01*
X42608083Y-15841752D01*
X42611665Y-15841720D01*
X42615652Y-15841689D01*
X42620066Y-15841660D01*
X42624930Y-15841632D01*
X42630266Y-15841606D01*
X42636096Y-15841581D01*
X42642443Y-15841558D01*
X42649330Y-15841535D01*
X42656778Y-15841514D01*
X42664810Y-15841495D01*
X42673449Y-15841476D01*
X42682717Y-15841459D01*
X42692636Y-15841442D01*
X42703228Y-15841427D01*
X42714517Y-15841413D01*
X42726524Y-15841400D01*
X42739272Y-15841388D01*
X42752783Y-15841376D01*
X42767080Y-15841366D01*
X42782185Y-15841357D01*
X42798120Y-15841348D01*
X42814908Y-15841340D01*
X42832571Y-15841333D01*
X42851132Y-15841326D01*
X42870612Y-15841321D01*
X42891035Y-15841316D01*
X42912423Y-15841311D01*
X42934799Y-15841307D01*
X42958183Y-15841304D01*
X42982600Y-15841301D01*
X43008071Y-15841298D01*
X43034619Y-15841296D01*
X43062266Y-15841295D01*
X43091034Y-15841294D01*
X43120946Y-15841293D01*
X43152025Y-15841292D01*
X43184293Y-15841291D01*
X43217771Y-15841291D01*
X43252483Y-15841291D01*
X43256200Y-15841291D01*
X43920250Y-15841291D01*
X43925440Y-15842676D01*
G37*
D11*
%TO.C,C4*%
X3907000Y-25051000D02*
X3907000Y-25961000D01*
X3907000Y-27781000D02*
X3907000Y-26871000D01*
X5237000Y-25051000D02*
X3907000Y-25051000D01*
X5237000Y-25961000D02*
X5237000Y-25051000D01*
X5237000Y-26871000D02*
X5237000Y-27781000D01*
X5237000Y-27781000D02*
X3907000Y-27781000D01*
%TO.C,R3*%
X7668000Y-25071000D02*
X8958000Y-25071000D01*
X7668000Y-25968000D02*
X7668000Y-25071000D01*
X7668000Y-26864000D02*
X7668000Y-27761000D01*
X7668000Y-27761000D02*
X8958000Y-27761000D01*
X8958000Y-25071000D02*
X8958000Y-25968000D01*
X8958000Y-27761000D02*
X8958000Y-26864000D01*
%TO.C,U1*%
X8890000Y-20510500D02*
X8890000Y-4889500D01*
X11430000Y-2349500D02*
X24130000Y-2349500D01*
X13335000Y-2349500D02*
X13335000Y-1270000D01*
X22225000Y-1270000D02*
X13335000Y-1270000D01*
X22225000Y-2349500D02*
X22225000Y-1270000D01*
X24130000Y-23050500D02*
X11430000Y-23050500D01*
X26670000Y-4889500D02*
X26670000Y-20510500D01*
X8890000Y-4889500D02*
G75*
G02*
X11430000Y-2349500I2540001J-1D01*
G01*
X11430000Y-23050500D02*
G75*
G02*
X8890000Y-20510500I1J2540001D01*
G01*
X24130000Y-2349500D02*
G75*
G02*
X26670000Y-4889500I0J-2540000D01*
G01*
X26670000Y-20510500D02*
G75*
G02*
X24130000Y-23050500I-2540000J0D01*
G01*
%TO.C,J3*%
X2395000Y-14570000D02*
X2395000Y-18450000D01*
X4365000Y-13400000D02*
X6865000Y-13400000D01*
X4365000Y-19620000D02*
X6865000Y-19620000D01*
X6865000Y-13400000D02*
X6865000Y-14450000D01*
X6865000Y-14450000D02*
X7855000Y-14450000D01*
X6865000Y-19620000D02*
X6865000Y-18570000D01*
%TO.C,R1*%
X17516000Y-25071000D02*
X18806000Y-25071000D01*
X17516000Y-25968000D02*
X17516000Y-25071000D01*
X17516000Y-26864000D02*
X17516000Y-27761000D01*
X17516000Y-27761000D02*
X18806000Y-27761000D01*
X18806000Y-25071000D02*
X18806000Y-25968000D01*
X18806000Y-27761000D02*
X18806000Y-26864000D01*
%TO.C,U2*%
D16*
X18920000Y-44320000D02*
X21720000Y-44320000D01*
X21720000Y-47120000D01*
X18920000Y-47120000D01*
X18920000Y-44320000D01*
D14*
X22170000Y-44995000D02*
X21920000Y-44745000D01*
X22170000Y-44495000D01*
X22170000Y-44995000D01*
G36*
X22170000Y-44995000D02*
G01*
X21920000Y-44745000D01*
X22170000Y-44495000D01*
X22170000Y-44995000D01*
G37*
D11*
%TO.C,Q1*%
X44325000Y-8580000D02*
X45845000Y-8580000D01*
X44325000Y-9675000D02*
X44325000Y-8580000D01*
X44325000Y-11740000D02*
X44325000Y-10645000D01*
X45845000Y-9694000D02*
X45845000Y-10626000D01*
X45845000Y-11740000D02*
X44325000Y-11740000D01*
D14*
X46385000Y-11960000D02*
X45885000Y-11960000D01*
X46135000Y-11710000D01*
X46385000Y-11960000D01*
G36*
X46385000Y-11960000D02*
G01*
X45885000Y-11960000D01*
X46135000Y-11710000D01*
X46385000Y-11960000D01*
G37*
D11*
%TO.C,R2*%
X6017000Y-25071000D02*
X7307000Y-25071000D01*
X6017000Y-25968000D02*
X6017000Y-25071000D01*
X6017000Y-26864000D02*
X6017000Y-27761000D01*
X6017000Y-27761000D02*
X7307000Y-27761000D01*
X7307000Y-25071000D02*
X7307000Y-25968000D01*
X7307000Y-27761000D02*
X7307000Y-26864000D01*
%TO.C,U3*%
D16*
X27940000Y-19050000D02*
X55880000Y-19050000D01*
X55880000Y-46990000D01*
X27940000Y-46990000D01*
X27940000Y-19050000D01*
X36830000Y-20320000D02*
X46990000Y-20320000D01*
X46990000Y-22860000D01*
X36830000Y-22860000D01*
X36830000Y-20320000D01*
D11*
%TO.C,R9*%
X22790000Y-45075000D02*
X22790000Y-46365000D01*
X22790000Y-46365000D02*
X23687000Y-46365000D01*
X23687000Y-45075000D02*
X22790000Y-45075000D01*
X24583000Y-45075000D02*
X25480000Y-45075000D01*
X25480000Y-45075000D02*
X25480000Y-46365000D01*
X25480000Y-46365000D02*
X24583000Y-46365000D01*
D15*
%TO.C,G\u002A\u002A\u002A*%
G36*
X38693040Y-13785276D02*
G01*
X38697278Y-13786623D01*
X38701855Y-13788435D01*
X38706318Y-13790511D01*
X38710214Y-13792649D01*
X38711744Y-13793634D01*
X38717908Y-13798617D01*
X38723361Y-13804534D01*
X38727988Y-13811208D01*
X38731674Y-13818463D01*
X38734302Y-13826124D01*
X38734979Y-13829005D01*
X38735022Y-13829285D01*
X38735064Y-13829712D01*
X38735105Y-13830306D01*
X38735144Y-13831084D01*
X38735182Y-13832064D01*
X38735219Y-13833264D01*
X38735255Y-13834702D01*
X38735290Y-13836396D01*
X38735323Y-13838365D01*
X38735356Y-13840626D01*
X38735387Y-13843196D01*
X38735417Y-13846096D01*
X38735447Y-13849341D01*
X38735475Y-13852951D01*
X38735502Y-13856943D01*
X38735529Y-13861336D01*
X38735554Y-13866147D01*
X38735578Y-13871394D01*
X38735602Y-13877096D01*
X38735624Y-13883270D01*
X38735646Y-13889935D01*
X38735667Y-13897108D01*
X38735686Y-13904808D01*
X38735705Y-13913052D01*
X38735724Y-13921860D01*
X38735741Y-13931247D01*
X38735758Y-13941234D01*
X38735773Y-13951837D01*
X38735788Y-13963074D01*
X38735803Y-13974965D01*
X38735816Y-13987526D01*
X38735829Y-14000776D01*
X38735842Y-14014733D01*
X38735853Y-14029415D01*
X38735864Y-14044840D01*
X38735874Y-14061025D01*
X38735884Y-14077990D01*
X38735893Y-14095751D01*
X38735901Y-14114328D01*
X38735909Y-14133737D01*
X38735917Y-14153998D01*
X38735924Y-14175127D01*
X38735930Y-14197144D01*
X38735936Y-14220066D01*
X38735941Y-14243911D01*
X38735946Y-14268697D01*
X38735951Y-14294442D01*
X38735955Y-14321164D01*
X38735958Y-14348882D01*
X38735962Y-14377613D01*
X38735965Y-14407376D01*
X38735967Y-14438187D01*
X38735970Y-14470066D01*
X38735972Y-14503031D01*
X38735973Y-14537099D01*
X38735975Y-14572288D01*
X38735976Y-14608617D01*
X38735977Y-14646103D01*
X38735977Y-14684765D01*
X38735978Y-14724620D01*
X38735978Y-14765687D01*
X38735978Y-14807983D01*
X38735978Y-14833532D01*
X38735978Y-14876842D01*
X38735978Y-14918911D01*
X38735978Y-14959757D01*
X38735977Y-14999398D01*
X38735976Y-15037850D01*
X38735974Y-15075132D01*
X38735973Y-15111262D01*
X38735971Y-15146256D01*
X38735968Y-15180132D01*
X38735966Y-15212908D01*
X38735963Y-15244602D01*
X38735960Y-15275231D01*
X38735956Y-15304813D01*
X38735952Y-15333364D01*
X38735947Y-15360904D01*
X38735942Y-15387449D01*
X38735937Y-15413017D01*
X38735931Y-15437625D01*
X38735924Y-15461292D01*
X38735917Y-15484034D01*
X38735910Y-15505870D01*
X38735902Y-15526816D01*
X38735893Y-15546891D01*
X38735884Y-15566112D01*
X38735875Y-15584496D01*
X38735864Y-15602062D01*
X38735853Y-15618826D01*
X38735842Y-15634806D01*
X38735830Y-15650021D01*
X38735817Y-15664487D01*
X38735803Y-15678222D01*
X38735789Y-15691243D01*
X38735774Y-15703569D01*
X38735759Y-15715216D01*
X38735742Y-15726203D01*
X38735725Y-15736547D01*
X38735707Y-15746265D01*
X38735689Y-15755375D01*
X38735669Y-15763895D01*
X38735649Y-15771842D01*
X38735627Y-15779234D01*
X38735605Y-15786088D01*
X38735583Y-15792423D01*
X38735559Y-15798254D01*
X38735534Y-15803601D01*
X38735508Y-15808481D01*
X38735482Y-15812911D01*
X38735454Y-15816908D01*
X38735426Y-15820491D01*
X38735397Y-15823677D01*
X38735366Y-15826484D01*
X38735335Y-15828929D01*
X38735302Y-15831029D01*
X38735269Y-15832803D01*
X38735234Y-15834268D01*
X38735198Y-15835441D01*
X38735162Y-15836340D01*
X38735124Y-15836982D01*
X38735085Y-15837386D01*
X38735066Y-15837498D01*
X38732679Y-15845872D01*
X38729257Y-15853566D01*
X38724859Y-15860520D01*
X38719544Y-15866675D01*
X38713373Y-15871971D01*
X38706404Y-15876350D01*
X38698696Y-15879753D01*
X38690482Y-15882082D01*
X38690141Y-15882130D01*
X38689565Y-15882177D01*
X38688734Y-15882222D01*
X38687625Y-15882265D01*
X38686216Y-15882307D01*
X38684487Y-15882347D01*
X38682416Y-15882386D01*
X38679980Y-15882423D01*
X38677159Y-15882458D01*
X38673930Y-15882492D01*
X38670273Y-15882524D01*
X38666165Y-15882555D01*
X38661585Y-15882585D01*
X38656511Y-15882613D01*
X38650922Y-15882640D01*
X38644795Y-15882665D01*
X38638110Y-15882689D01*
X38630845Y-15882712D01*
X38622978Y-15882734D01*
X38614487Y-15882754D01*
X38605351Y-15882774D01*
X38595549Y-15882792D01*
X38585058Y-15882809D01*
X38573857Y-15882824D01*
X38561924Y-15882839D01*
X38549238Y-15882853D01*
X38535777Y-15882866D01*
X38521519Y-15882877D01*
X38506444Y-15882888D01*
X38490528Y-15882898D01*
X38473752Y-15882906D01*
X38456092Y-15882914D01*
X38437527Y-15882922D01*
X38418036Y-15882928D01*
X38397598Y-15882933D01*
X38376189Y-15882938D01*
X38353790Y-15882942D01*
X38330378Y-15882945D01*
X38305931Y-15882948D01*
X38280428Y-15882950D01*
X38253848Y-15882951D01*
X38226168Y-15882951D01*
X38197368Y-15882951D01*
X38167425Y-15882951D01*
X38136318Y-15882950D01*
X38104025Y-15882948D01*
X38070524Y-15882947D01*
X38035795Y-15882944D01*
X38023287Y-15882943D01*
X37988214Y-15882940D01*
X37954378Y-15882937D01*
X37921756Y-15882934D01*
X37890328Y-15882930D01*
X37860069Y-15882926D01*
X37830960Y-15882922D01*
X37802978Y-15882918D01*
X37776102Y-15882913D01*
X37750309Y-15882907D01*
X37725577Y-15882901D01*
X37701885Y-15882895D01*
X37679211Y-15882888D01*
X37657532Y-15882881D01*
X37636828Y-15882873D01*
X37617077Y-15882864D01*
X37598255Y-15882855D01*
X37580342Y-15882845D01*
X37563316Y-15882834D01*
X37547155Y-15882822D01*
X37531836Y-15882810D01*
X37517339Y-15882797D01*
X37503641Y-15882783D01*
X37490721Y-15882768D01*
X37478556Y-15882752D01*
X37467124Y-15882735D01*
X37456405Y-15882718D01*
X37446375Y-15882699D01*
X37437014Y-15882679D01*
X37428299Y-15882658D01*
X37420208Y-15882636D01*
X37412720Y-15882613D01*
X37405812Y-15882589D01*
X37399463Y-15882563D01*
X37393652Y-15882536D01*
X37388355Y-15882508D01*
X37383552Y-15882479D01*
X37379220Y-15882448D01*
X37375337Y-15882416D01*
X37371883Y-15882383D01*
X37368834Y-15882348D01*
X37366169Y-15882311D01*
X37363866Y-15882273D01*
X37361903Y-15882234D01*
X37360259Y-15882193D01*
X37358911Y-15882150D01*
X37357839Y-15882106D01*
X37357018Y-15882060D01*
X37356429Y-15882012D01*
X37356049Y-15881963D01*
X37355984Y-15881950D01*
X37348351Y-15879705D01*
X37341013Y-15876362D01*
X37334165Y-15872050D01*
X37327998Y-15866895D01*
X37322705Y-15861026D01*
X37321049Y-15858760D01*
X37318781Y-15854991D01*
X37316549Y-15850440D01*
X37314555Y-15845571D01*
X37313004Y-15840847D01*
X37312729Y-15839821D01*
X37311306Y-15834237D01*
X37311306Y-14833285D01*
X37311306Y-14790372D01*
X37311306Y-14748698D01*
X37311307Y-14708246D01*
X37311307Y-14668998D01*
X37311308Y-14630935D01*
X37311308Y-14594039D01*
X37311308Y-14590737D01*
X37689749Y-14590737D01*
X37689842Y-14598456D01*
X37690970Y-14606104D01*
X37693128Y-14613554D01*
X37696312Y-14620682D01*
X37700519Y-14627362D01*
X37705743Y-14633471D01*
X37707692Y-14635342D01*
X37714302Y-14640545D01*
X37721627Y-14644766D01*
X37729477Y-14647904D01*
X37732196Y-14648697D01*
X37736192Y-14649473D01*
X37740929Y-14649953D01*
X37745986Y-14650129D01*
X37750945Y-14649995D01*
X37755385Y-14649546D01*
X37757825Y-14649074D01*
X37764644Y-14646992D01*
X37771046Y-14644264D01*
X37776566Y-14641104D01*
X37777513Y-14640376D01*
X37779361Y-14638866D01*
X37782062Y-14636613D01*
X37785567Y-14633659D01*
X37789827Y-14630047D01*
X37794793Y-14625818D01*
X37800418Y-14621014D01*
X37806653Y-14615675D01*
X37813448Y-14609845D01*
X37820755Y-14603564D01*
X37828527Y-14596874D01*
X37836713Y-14589818D01*
X37845266Y-14582436D01*
X37854137Y-14574770D01*
X37863277Y-14566862D01*
X37872637Y-14558753D01*
X37874066Y-14557515D01*
X37966863Y-14477072D01*
X37967186Y-14899597D01*
X37967208Y-14927265D01*
X37967228Y-14953702D01*
X37967248Y-14978937D01*
X37967268Y-15002999D01*
X37967287Y-15025915D01*
X37967306Y-15047714D01*
X37967324Y-15068423D01*
X37967343Y-15088072D01*
X37967361Y-15106687D01*
X37967380Y-15124298D01*
X37967399Y-15140933D01*
X37967418Y-15156619D01*
X37967437Y-15171385D01*
X37967457Y-15185259D01*
X37967477Y-15198270D01*
X37967499Y-15210445D01*
X37967520Y-15221812D01*
X37967543Y-15232400D01*
X37967567Y-15242237D01*
X37967591Y-15251351D01*
X37967617Y-15259771D01*
X37967644Y-15267524D01*
X37967672Y-15274639D01*
X37967701Y-15281143D01*
X37967733Y-15287065D01*
X37967765Y-15292434D01*
X37967800Y-15297277D01*
X37967836Y-15301623D01*
X37967874Y-15305499D01*
X37967914Y-15308934D01*
X37967956Y-15311957D01*
X37968000Y-15314594D01*
X37968046Y-15316875D01*
X37968095Y-15318828D01*
X37968146Y-15320480D01*
X37968200Y-15321861D01*
X37968256Y-15322997D01*
X37968315Y-15323918D01*
X37968377Y-15324652D01*
X37968442Y-15325226D01*
X37968510Y-15325669D01*
X37968581Y-15326009D01*
X37968612Y-15326130D01*
X37971544Y-15334634D01*
X37975422Y-15342336D01*
X37980205Y-15349199D01*
X37985855Y-15355182D01*
X37992331Y-15360249D01*
X37999593Y-15364358D01*
X38007603Y-15367473D01*
X38012161Y-15368712D01*
X38015311Y-15369195D01*
X38019330Y-15369437D01*
X38023856Y-15369450D01*
X38028524Y-15369248D01*
X38032971Y-15368843D01*
X38036835Y-15368249D01*
X38038894Y-15367758D01*
X38046725Y-15364841D01*
X38053962Y-15360858D01*
X38060519Y-15355893D01*
X38066312Y-15350031D01*
X38071257Y-15343355D01*
X38075270Y-15335951D01*
X38078019Y-15328720D01*
X38079478Y-15324009D01*
X38079792Y-14900391D01*
X38080107Y-14476773D01*
X38172609Y-14556885D01*
X38181955Y-14564978D01*
X38191067Y-14572866D01*
X38199898Y-14580510D01*
X38208401Y-14587868D01*
X38216529Y-14594898D01*
X38224233Y-14601561D01*
X38231468Y-14607816D01*
X38238184Y-14613620D01*
X38244336Y-14618935D01*
X38249876Y-14623718D01*
X38254756Y-14627928D01*
X38258929Y-14631526D01*
X38262348Y-14634469D01*
X38264966Y-14636718D01*
X38266734Y-14638231D01*
X38267607Y-14638967D01*
X38267659Y-14639009D01*
X38270862Y-14641219D01*
X38274848Y-14643486D01*
X38279171Y-14645582D01*
X38283389Y-14647278D01*
X38284370Y-14647611D01*
X38292274Y-14649544D01*
X38300231Y-14650280D01*
X38308124Y-14649868D01*
X38315836Y-14648360D01*
X38323250Y-14645804D01*
X38330249Y-14642252D01*
X38336718Y-14637751D01*
X38342538Y-14632353D01*
X38347593Y-14626108D01*
X38351767Y-14619065D01*
X38351922Y-14618751D01*
X38354976Y-14611169D01*
X38356888Y-14603340D01*
X38357676Y-14595401D01*
X38357358Y-14587488D01*
X38355952Y-14579738D01*
X38353477Y-14572286D01*
X38349949Y-14565270D01*
X38345388Y-14558824D01*
X38343739Y-14556932D01*
X38343012Y-14556245D01*
X38341379Y-14554774D01*
X38338886Y-14552558D01*
X38335578Y-14549639D01*
X38331500Y-14546054D01*
X38326699Y-14541843D01*
X38321220Y-14537047D01*
X38315108Y-14531704D01*
X38308409Y-14525854D01*
X38301169Y-14519537D01*
X38293432Y-14512792D01*
X38285246Y-14505659D01*
X38276654Y-14498178D01*
X38267703Y-14490387D01*
X38258439Y-14482326D01*
X38248906Y-14474036D01*
X38239150Y-14465555D01*
X38229218Y-14456923D01*
X38219154Y-14448180D01*
X38209004Y-14439365D01*
X38198814Y-14430518D01*
X38188629Y-14421678D01*
X38178495Y-14412885D01*
X38168457Y-14404179D01*
X38158561Y-14395598D01*
X38148853Y-14387183D01*
X38139377Y-14378973D01*
X38130180Y-14371007D01*
X38121308Y-14363326D01*
X38112804Y-14355968D01*
X38104716Y-14348974D01*
X38097089Y-14342382D01*
X38089969Y-14336233D01*
X38083400Y-14330566D01*
X38077428Y-14325420D01*
X38072100Y-14320835D01*
X38067460Y-14316851D01*
X38063555Y-14313507D01*
X38060429Y-14310843D01*
X38058128Y-14308898D01*
X38056699Y-14307711D01*
X38056310Y-14307404D01*
X38052782Y-14305105D01*
X38048450Y-14302816D01*
X38043755Y-14300744D01*
X38039135Y-14299095D01*
X38037819Y-14298711D01*
X38035499Y-14298143D01*
X38033194Y-14297756D01*
X38030580Y-14297520D01*
X38027334Y-14297404D01*
X38023485Y-14297377D01*
X38019623Y-14297404D01*
X38016687Y-14297501D01*
X38014345Y-14297705D01*
X38012264Y-14298055D01*
X38010112Y-14298587D01*
X38008386Y-14299089D01*
X38000750Y-14301876D01*
X37994063Y-14305379D01*
X37989698Y-14308431D01*
X37988645Y-14309297D01*
X37986701Y-14310938D01*
X37983912Y-14313315D01*
X37980324Y-14316387D01*
X37975983Y-14320115D01*
X37970934Y-14324459D01*
X37965224Y-14329379D01*
X37958898Y-14334835D01*
X37952002Y-14340788D01*
X37944583Y-14347198D01*
X37936685Y-14354025D01*
X37928355Y-14361229D01*
X37919639Y-14368770D01*
X37910583Y-14376609D01*
X37901232Y-14384706D01*
X37891633Y-14393021D01*
X37881830Y-14401514D01*
X37871871Y-14410146D01*
X37861801Y-14418876D01*
X37851666Y-14427665D01*
X37841511Y-14436474D01*
X37831383Y-14445261D01*
X37821327Y-14453988D01*
X37811390Y-14462615D01*
X37801617Y-14471102D01*
X37792054Y-14479409D01*
X37782747Y-14487496D01*
X37773742Y-14495323D01*
X37765085Y-14502852D01*
X37756821Y-14510041D01*
X37748997Y-14516852D01*
X37741658Y-14523244D01*
X37734850Y-14529177D01*
X37728619Y-14534612D01*
X37723011Y-14539510D01*
X37718073Y-14543829D01*
X37713848Y-14547531D01*
X37710385Y-14550575D01*
X37707727Y-14552923D01*
X37705923Y-14554533D01*
X37705016Y-14555367D01*
X37704956Y-14555427D01*
X37699811Y-14561634D01*
X37695722Y-14568393D01*
X37692685Y-14575580D01*
X37690695Y-14583070D01*
X37689749Y-14590737D01*
X37311308Y-14590737D01*
X37311309Y-14558293D01*
X37311310Y-14523677D01*
X37311312Y-14490174D01*
X37311313Y-14457766D01*
X37311315Y-14426433D01*
X37311318Y-14396159D01*
X37311320Y-14366925D01*
X37311323Y-14338712D01*
X37311326Y-14311503D01*
X37311330Y-14285279D01*
X37311334Y-14260022D01*
X37311339Y-14235713D01*
X37311343Y-14212336D01*
X37311349Y-14189871D01*
X37311355Y-14168300D01*
X37311361Y-14147605D01*
X37311368Y-14127768D01*
X37311375Y-14108770D01*
X37311383Y-14090594D01*
X37311392Y-14073221D01*
X37311401Y-14056633D01*
X37311410Y-14040812D01*
X37311421Y-14025740D01*
X37311432Y-14011398D01*
X37311444Y-13997768D01*
X37311456Y-13984832D01*
X37311469Y-13972572D01*
X37311483Y-13960970D01*
X37311497Y-13950006D01*
X37311513Y-13939665D01*
X37311529Y-13929926D01*
X37311546Y-13920772D01*
X37311564Y-13912184D01*
X37311582Y-13904145D01*
X37311602Y-13896636D01*
X37311622Y-13889639D01*
X37311644Y-13883136D01*
X37311666Y-13877108D01*
X37311689Y-13871538D01*
X37311713Y-13866407D01*
X37311738Y-13861697D01*
X37311764Y-13857390D01*
X37311792Y-13853467D01*
X37311820Y-13849910D01*
X37311849Y-13846702D01*
X37311880Y-13843824D01*
X37311911Y-13841257D01*
X37311944Y-13838984D01*
X37311978Y-13836987D01*
X37312013Y-13835246D01*
X37312049Y-13833745D01*
X37312086Y-13832464D01*
X37312125Y-13831386D01*
X37312164Y-13830492D01*
X37312206Y-13829764D01*
X37312248Y-13829184D01*
X37312292Y-13828734D01*
X37312337Y-13828395D01*
X37312383Y-13828150D01*
X37312396Y-13828096D01*
X37315079Y-13819755D01*
X37318635Y-13812274D01*
X37323116Y-13805559D01*
X37327745Y-13800330D01*
X37333876Y-13795013D01*
X37340692Y-13790666D01*
X37348289Y-13787235D01*
X37355511Y-13784981D01*
X37355775Y-13784924D01*
X37356131Y-13784869D01*
X37356601Y-13784816D01*
X37357207Y-13784764D01*
X37357972Y-13784715D01*
X37358917Y-13784668D01*
X37360066Y-13784622D01*
X37361440Y-13784578D01*
X37363063Y-13784536D01*
X37364957Y-13784496D01*
X37367143Y-13784458D01*
X37369644Y-13784421D01*
X37372484Y-13784385D01*
X37375683Y-13784352D01*
X37379265Y-13784320D01*
X37383252Y-13784289D01*
X37387666Y-13784260D01*
X37392530Y-13784232D01*
X37397866Y-13784206D01*
X37403696Y-13784181D01*
X37410043Y-13784158D01*
X37416930Y-13784135D01*
X37424378Y-13784114D01*
X37432410Y-13784095D01*
X37441049Y-13784076D01*
X37450317Y-13784059D01*
X37460236Y-13784042D01*
X37470828Y-13784027D01*
X37482117Y-13784013D01*
X37494124Y-13784000D01*
X37506872Y-13783988D01*
X37520383Y-13783976D01*
X37534680Y-13783966D01*
X37549785Y-13783957D01*
X37565720Y-13783948D01*
X37582508Y-13783940D01*
X37600171Y-13783933D01*
X37618732Y-13783926D01*
X37638212Y-13783921D01*
X37658635Y-13783916D01*
X37680023Y-13783911D01*
X37702399Y-13783907D01*
X37725783Y-13783904D01*
X37750200Y-13783901D01*
X37775671Y-13783898D01*
X37802219Y-13783896D01*
X37829866Y-13783895D01*
X37858634Y-13783894D01*
X37888546Y-13783893D01*
X37919625Y-13783892D01*
X37951893Y-13783891D01*
X37985371Y-13783891D01*
X38020083Y-13783891D01*
X38023800Y-13783891D01*
X38687850Y-13783891D01*
X38693040Y-13785276D01*
G37*
D11*
%TO.C,R6*%
X12563000Y-25071000D02*
X13853000Y-25071000D01*
X12563000Y-25968000D02*
X12563000Y-25071000D01*
X12563000Y-26864000D02*
X12563000Y-27761000D01*
X12563000Y-27761000D02*
X13853000Y-27761000D01*
X13853000Y-25071000D02*
X13853000Y-25968000D01*
X13853000Y-27761000D02*
X13853000Y-26864000D01*
%TO.C,SW1*%
X50174000Y-5352000D02*
X50174000Y-13952000D01*
X54474000Y-5352000D02*
X54474000Y-13952000D01*
%TO.C,R7*%
X15865000Y-25071000D02*
X17155000Y-25071000D01*
X15865000Y-25968000D02*
X15865000Y-25071000D01*
X15865000Y-26864000D02*
X15865000Y-27761000D01*
X15865000Y-27761000D02*
X17155000Y-27761000D01*
X17155000Y-25071000D02*
X17155000Y-25968000D01*
X17155000Y-27761000D02*
X17155000Y-26864000D01*
%TO.C,R8*%
X22790000Y-43551000D02*
X22790000Y-44841000D01*
X22790000Y-44841000D02*
X23687000Y-44841000D01*
X23687000Y-43551000D02*
X22790000Y-43551000D01*
X24583000Y-43551000D02*
X25480000Y-43551000D01*
X25480000Y-43551000D02*
X25480000Y-44841000D01*
X25480000Y-44841000D02*
X24583000Y-44841000D01*
%TO.C,C1*%
X16861000Y-42831000D02*
X18191000Y-42831000D01*
X16861000Y-43741000D02*
X16861000Y-42831000D01*
X16861000Y-44651000D02*
X16861000Y-45561000D01*
X16861000Y-45561000D02*
X18191000Y-45561000D01*
X18191000Y-42831000D02*
X18191000Y-43741000D01*
X18191000Y-45561000D02*
X18191000Y-44651000D01*
%TO.C,R4*%
X9388000Y-25071000D02*
X10678000Y-25071000D01*
X9388000Y-25968000D02*
X9388000Y-25071000D01*
X9388000Y-26864000D02*
X9388000Y-27761000D01*
X9388000Y-27761000D02*
X10678000Y-27761000D01*
X10678000Y-25071000D02*
X10678000Y-25968000D01*
X10678000Y-27761000D02*
X10678000Y-26864000D01*
%TO.C,C3*%
X2256000Y-25051000D02*
X2256000Y-25961000D01*
X2256000Y-27781000D02*
X2256000Y-26871000D01*
X3586000Y-25051000D02*
X2256000Y-25051000D01*
X3586000Y-25961000D02*
X3586000Y-25051000D01*
X3586000Y-26871000D02*
X3586000Y-27781000D01*
X3586000Y-27781000D02*
X2256000Y-27781000D01*
%TO.C,Q3*%
X40475000Y-8610000D02*
X42075000Y-8610000D01*
X42075000Y-11710000D02*
X40475000Y-11710000D01*
D14*
X42575000Y-12060000D02*
X42075000Y-12060000D01*
X42325000Y-11810000D01*
X42575000Y-12060000D01*
G36*
X42575000Y-12060000D02*
G01*
X42075000Y-12060000D01*
X42325000Y-11810000D01*
X42575000Y-12060000D01*
G37*
%TD*%
M02*
