%TF.GenerationSoftware,KiCad,Pcbnew,9.0.7*%
%TF.CreationDate,2026-02-15T10:57:48-05:00*%
%TF.ProjectId,destinationWeatherStation_v4-5,64657374-696e-4617-9469-6f6e57656174,03*%
%TF.SameCoordinates,PX6bcb370PY43d3480*%
%TF.FileFunction,Plated,1,2,PTH,Mixed*%
%TF.FilePolarity,Positive*%
%FSLAX46Y46*%
G04 Gerber Fmt 4.6, Leading zero omitted, Abs format (unit mm)*
G04 Created by KiCad (PCBNEW 9.0.7) date 2026-02-15 10:57:48*
%MOMM*%
%LPD*%
G01*
G04 APERTURE LIST*
%TA.AperFunction,ViaDrill*%
%ADD10C,0.350000*%
%TD*%
%TA.AperFunction,ViaDrill*%
%ADD11C,0.400000*%
%TD*%
G04 aperture for slot hole*
%TA.AperFunction,ComponentDrill*%
%ADD12C,0.700000*%
%TD*%
%TA.AperFunction,ComponentDrill*%
%ADD13C,0.900000*%
%TD*%
%TA.AperFunction,ComponentDrill*%
%ADD14C,1.000000*%
%TD*%
G04 APERTURE END LIST*
D10*
X1270000Y-41910000D03*
X2540000Y-7620000D03*
X2540000Y-12065000D03*
X2540000Y-16510000D03*
X2921000Y-24384000D03*
X3175000Y-36195000D03*
X3175000Y-40005000D03*
X3302000Y-43561000D03*
X4191000Y-30353000D03*
X4445000Y-21590000D03*
X4572000Y-24384000D03*
X4884000Y-31914000D03*
X5080000Y-9525000D03*
X5080000Y-41910000D03*
X5715000Y-38735000D03*
X5715000Y-43815000D03*
X5715000Y-48895000D03*
X6350000Y-1270000D03*
X6350000Y-5080000D03*
X6985000Y-19050000D03*
X6985000Y-21590000D03*
X6985000Y-24130000D03*
X7620000Y-12065000D03*
X8255000Y-41275000D03*
X8255000Y-46355000D03*
X8382000Y-31750000D03*
X9144000Y-24765000D03*
X9144000Y-28448000D03*
X10287000Y-23749000D03*
X10541000Y-22352000D03*
X10795000Y-38735000D03*
X10795000Y-43815000D03*
X10795000Y-48895000D03*
X11150600Y-24892000D03*
X11150600Y-26416000D03*
X11161500Y-27432000D03*
X11366500Y-29400500D03*
X12065000Y-4445000D03*
X12065000Y-9525000D03*
X12090400Y-24892000D03*
X12700000Y-14605000D03*
X12700000Y-17145000D03*
X12700000Y-19685000D03*
X12954000Y-23749000D03*
X13335000Y-41275000D03*
X13335000Y-46355000D03*
X13462000Y-22352000D03*
X14528800Y-21234400D03*
X14605000Y-6985000D03*
X14605000Y-12065000D03*
X15240000Y-17145000D03*
X15875000Y-1905000D03*
X15875000Y-29210000D03*
X15875000Y-33655000D03*
X15875000Y-38735000D03*
X15875000Y-43815000D03*
X15875000Y-46355000D03*
X15875000Y-48895000D03*
X16573500Y-17716500D03*
X17145000Y-4445000D03*
X17145000Y-9525000D03*
X17145000Y-14605000D03*
X17145000Y-24638000D03*
X17653000Y-16637000D03*
X18288000Y-19558000D03*
X18288000Y-20955000D03*
X18288000Y-22352000D03*
X18288000Y-23749000D03*
X19431000Y-16891000D03*
X19431000Y-18415000D03*
X19564000Y-41408000D03*
X19685000Y-1905000D03*
X19685000Y-6985000D03*
X19685000Y-12065000D03*
X20320000Y-20955000D03*
X20320000Y-22352000D03*
X20955000Y-24130000D03*
X20955000Y-25527000D03*
X21336000Y-41402000D03*
X21590000Y-3810000D03*
X21590000Y-29210000D03*
X21590000Y-34290000D03*
X21590000Y-39370000D03*
X22225000Y-9525000D03*
X22225000Y-14478000D03*
X22225000Y-16510000D03*
X22225000Y-20574000D03*
X22987000Y-22352000D03*
X22987000Y-23876000D03*
X23495000Y-1905000D03*
X23495000Y-5715000D03*
X23495000Y-27305000D03*
X24130000Y-21717000D03*
X24130000Y-31750000D03*
X24130000Y-36830000D03*
X24130000Y-41910000D03*
X25400000Y-25400000D03*
X26035000Y-29845000D03*
X26670000Y-34290000D03*
X26670000Y-39370000D03*
X26670000Y-44450000D03*
X26860500Y-23685500D03*
X27305000Y-1905000D03*
X27305000Y-5715000D03*
X27305000Y-8890000D03*
X27305000Y-13970000D03*
X27305000Y-16510000D03*
X27305000Y-19050000D03*
X27940000Y-22860000D03*
X27940000Y-27940000D03*
X27940000Y-48895000D03*
X28575000Y-32385000D03*
X29210000Y-3810000D03*
X29210000Y-10795000D03*
X29210000Y-36830000D03*
X29210000Y-41910000D03*
X30480000Y-15240000D03*
X30480000Y-20320000D03*
X30480000Y-25400000D03*
X30480000Y-30480000D03*
X30480000Y-46355000D03*
X31115000Y-1905000D03*
X31115000Y-8890000D03*
X31115000Y-12700000D03*
X31115000Y-34925000D03*
X31750000Y-39370000D03*
X33020000Y-3810000D03*
X33020000Y-17780000D03*
X33020000Y-22860000D03*
X33020000Y-27940000D03*
X33020000Y-33020000D03*
X33020000Y-43815000D03*
X33020000Y-48895000D03*
X33655000Y-37465000D03*
X34925000Y-1905000D03*
X34925000Y-5715000D03*
X34925000Y-12700000D03*
X35560000Y-15240000D03*
X35560000Y-20320000D03*
X35560000Y-25400000D03*
X35560000Y-30480000D03*
X35560000Y-35560000D03*
X35560000Y-41275000D03*
X35560000Y-46355000D03*
X36763190Y-35747190D03*
X36830000Y-10795000D03*
X37874617Y-34699617D03*
X38100000Y-27940000D03*
X38100000Y-33020000D03*
X38100000Y-38735000D03*
X38100000Y-43815000D03*
X38100000Y-48895000D03*
X38227000Y-37211000D03*
X38608000Y-10033000D03*
X38735000Y-1905000D03*
X38989000Y-6858000D03*
X38989000Y-8636000D03*
X38989000Y-11938000D03*
X39370000Y-18542000D03*
X39370000Y-20320000D03*
X39370000Y-22860000D03*
X39878000Y-36703000D03*
X40640000Y-3810000D03*
X40640000Y-25400000D03*
X40640000Y-30480000D03*
X40640000Y-41275000D03*
X40640000Y-46355000D03*
X41910000Y-20320000D03*
X41910000Y-22860000D03*
X42545000Y-1905000D03*
X43180000Y-35560000D03*
X43180000Y-38735000D03*
X43180000Y-43815000D03*
X43180000Y-48895000D03*
X44450000Y-3810000D03*
X44450000Y-20320000D03*
X45085000Y-15875000D03*
X45720000Y-33020000D03*
X45720000Y-41275000D03*
X45720000Y-46355000D03*
X46228000Y-4318000D03*
X46355000Y-1905000D03*
X46990000Y-20320000D03*
X46990000Y-22860000D03*
X46990000Y-25400000D03*
X47117000Y-4318000D03*
X47117000Y-5461000D03*
X47117000Y-6350000D03*
X47117000Y-8128000D03*
X47117000Y-9271000D03*
X47117000Y-10293350D03*
X47625000Y-17780000D03*
X48260000Y-3810000D03*
X48260000Y-13970000D03*
X48260000Y-30480000D03*
X48260000Y-35560000D03*
X48260000Y-38735000D03*
X48260000Y-43815000D03*
X48260000Y-48895000D03*
X49530000Y-22860000D03*
X50165000Y-1905000D03*
X50165000Y-5715000D03*
X50165000Y-9525000D03*
X50800000Y-16510000D03*
X50800000Y-19050000D03*
X50800000Y-27940000D03*
X50800000Y-33020000D03*
X50800000Y-41275000D03*
X50800000Y-46355000D03*
X52070000Y-3810000D03*
X53340000Y-16510000D03*
X53340000Y-19050000D03*
X53340000Y-21590000D03*
X53340000Y-25400000D03*
X53340000Y-30480000D03*
X53340000Y-35560000D03*
X53340000Y-38735000D03*
X53340000Y-43815000D03*
X53340000Y-48895000D03*
X55880000Y-6350000D03*
X55880000Y-8890000D03*
X55880000Y-11430000D03*
X55880000Y-13970000D03*
X55880000Y-16510000D03*
X55880000Y-19050000D03*
X55880000Y-21590000D03*
X55880000Y-27940000D03*
X55880000Y-33020000D03*
X55880000Y-41275000D03*
X55880000Y-46355000D03*
X58420000Y-38735000D03*
X58420000Y-43815000D03*
X58420000Y-48895000D03*
X59055000Y-16891000D03*
X59055000Y-21590000D03*
X59055000Y-24130000D03*
X59055000Y-26670000D03*
X59055000Y-29210000D03*
X59055000Y-31750000D03*
X59055000Y-34290000D03*
X59055000Y-36830000D03*
X60960000Y-41275000D03*
X62230000Y-6350000D03*
X62230000Y-11430000D03*
X62230000Y-16510000D03*
X62230000Y-21590000D03*
X62230000Y-25400000D03*
X62230000Y-30480000D03*
X62230000Y-35560000D03*
D11*
X4978400Y-15011400D03*
X5842000Y-28575000D03*
X19304000Y-47879000D03*
X21590000Y-43561000D03*
X55880000Y-1905000D03*
D12*
%TO.C,SW1*%
X52724000Y-5552000D02*
X51924000Y-5552000D01*
X52724000Y-13752000D02*
X51924000Y-13752000D01*
D13*
X52324000Y-7652000D03*
X52324000Y-9652000D03*
X52324000Y-11652000D03*
D14*
%TO.C,U1*%
X10160000Y-5080000D03*
X10160000Y-7620000D03*
X10160000Y-10160000D03*
X10160000Y-12700000D03*
X10160000Y-15240000D03*
X10160000Y-17780000D03*
X10160000Y-20320000D03*
X25400000Y-5080000D03*
X25400000Y-7620000D03*
X25400000Y-10160000D03*
X25400000Y-12700000D03*
X25400000Y-15240000D03*
X25400000Y-17780000D03*
X25400000Y-20320000D03*
%TO.C,U3*%
X38100000Y-21590000D03*
X40640000Y-21590000D03*
X43180000Y-21590000D03*
X45720000Y-21590000D03*
M02*
