%TF.GenerationSoftware,KiCad,Pcbnew,9.0.6*%
%TF.CreationDate,2026-01-30T18:10:03-05:00*%
%TF.ProjectId,destinationWeatherStation_v4-5,64657374-696e-4617-9469-6f6e57656174,03*%
%TF.SameCoordinates,Original*%
%TF.FileFunction,Copper,L1,Top*%
%TF.FilePolarity,Positive*%
%FSLAX46Y46*%
G04 Gerber Fmt 4.6, Leading zero omitted, Abs format (unit mm)*
G04 Created by KiCad (PCBNEW 9.0.6) date 2026-01-30 18:10:03*
%MOMM*%
%LPD*%
G01*
G04 APERTURE LIST*
%TA.AperFunction,SMDPad,CuDef*%
%ADD10R,1.000000X1.550000*%
%TD*%
%TA.AperFunction,SMDPad,CuDef*%
%ADD11R,0.972000X0.802000*%
%TD*%
%TA.AperFunction,SMDPad,CuDef*%
%ADD12R,0.929000X0.820000*%
%TD*%
%TA.AperFunction,SMDPad,CuDef*%
%ADD13R,0.970000X0.871000*%
%TD*%
%TA.AperFunction,SMDPad,CuDef*%
%ADD14R,1.500000X3.400000*%
%TD*%
%TA.AperFunction,SMDPad,CuDef*%
%ADD15R,1.000000X3.500000*%
%TD*%
%TA.AperFunction,SMDPad,CuDef*%
%ADD16R,1.000000X0.700000*%
%TD*%
%TA.AperFunction,SMDPad,CuDef*%
%ADD17R,2.000000X0.800000*%
%TD*%
%TA.AperFunction,SMDPad,CuDef*%
%ADD18R,1.400000X1.800000*%
%TD*%
%TA.AperFunction,SMDPad,CuDef*%
%ADD19R,1.900000X1.400000*%
%TD*%
%TA.AperFunction,SMDPad,CuDef*%
%ADD20R,0.820000X0.929000*%
%TD*%
%TA.AperFunction,ComponentPad*%
%ADD21C,1.750000*%
%TD*%
%TA.AperFunction,SMDPad,CuDef*%
%ADD22R,1.800000X1.200000*%
%TD*%
%TA.AperFunction,SMDPad,CuDef*%
%ADD23R,1.550000X0.600000*%
%TD*%
%TA.AperFunction,SMDPad,CuDef*%
%ADD24R,0.500000X0.350000*%
%TD*%
%TA.AperFunction,ComponentPad*%
%ADD25O,2.100000X1.300000*%
%TD*%
%TA.AperFunction,ComponentPad*%
%ADD26C,1.500000*%
%TD*%
%TA.AperFunction,ViaPad*%
%ADD27C,0.700000*%
%TD*%
%TA.AperFunction,ViaPad*%
%ADD28C,1.000000*%
%TD*%
%TA.AperFunction,ViaPad*%
%ADD29C,0.800000*%
%TD*%
%TA.AperFunction,Conductor*%
%ADD30C,0.250000*%
%TD*%
%TA.AperFunction,Conductor*%
%ADD31C,0.200000*%
%TD*%
%TA.AperFunction,Conductor*%
%ADD32C,0.500000*%
%TD*%
%TA.AperFunction,Conductor*%
%ADD33C,0.350000*%
%TD*%
G04 APERTURE END LIST*
D10*
%TO.P,SW5,1*%
%TO.N,+3V3*%
X173685000Y-102785000D03*
%TO.P,SW5,2*%
X173685000Y-108035000D03*
%TO.P,SW5,3*%
%TO.N,/SW5*%
X170485000Y-102785000D03*
%TO.P,SW5,4*%
X170485000Y-108035000D03*
%TD*%
%TO.P,SW3,1*%
%TO.N,+3V3*%
X173685000Y-87545000D03*
%TO.P,SW3,2*%
X173685000Y-92795000D03*
%TO.P,SW3,3*%
%TO.N,/SW3*%
X170485000Y-87545000D03*
%TO.P,SW3,4*%
X170485000Y-92795000D03*
%TD*%
%TO.P,SW2,1*%
%TO.N,+3V3*%
X173685000Y-79925000D03*
%TO.P,SW2,2*%
X173685000Y-85175000D03*
%TO.P,SW2,3*%
%TO.N,/SW2*%
X170485000Y-79925000D03*
%TO.P,SW2,4*%
X170485000Y-85175000D03*
%TD*%
D11*
%TO.P,Q2,1*%
%TO.N,Net-(SW1-A)*%
X159000000Y-78420000D03*
%TO.P,Q2,2*%
%TO.N,GND*%
X159000000Y-76520000D03*
%TO.P,Q2,3*%
%TO.N,Net-(J1-Pin_2)*%
X157230000Y-77470000D03*
%TD*%
D12*
%TO.P,R12,1,A*%
%TO.N,GND*%
X154939000Y-85485000D03*
%TO.P,R12,2,C*%
%TO.N,/OLED2*%
X154939000Y-86995000D03*
%TO.P,R12,3,B*%
%TO.N,+3V3*%
X154939000Y-88505000D03*
%TD*%
D13*
%TO.P,C2,1*%
%TO.N,+3V3*%
X130556000Y-117602000D03*
%TO.P,C2,2*%
%TO.N,GND*%
X130556000Y-119102000D03*
%TD*%
D14*
%TO.P,J1,*%
%TO.N,*%
X150670000Y-75520000D03*
X143970000Y-75520000D03*
D15*
%TO.P,J1,1,Pin_1*%
%TO.N,Net-(J1-Pin_1)*%
X148320000Y-81270000D03*
%TO.P,J1,2,Pin_2*%
%TO.N,Net-(J1-Pin_2)*%
X146320000Y-81270000D03*
%TD*%
D16*
%TO.P,Q4,1*%
%TO.N,Net-(J1-Pin_2)*%
X155405000Y-78420000D03*
%TO.P,Q4,2*%
X155405000Y-77470000D03*
%TO.P,Q4,3*%
%TO.N,Net-(SW1-A)*%
X155405000Y-76520000D03*
%TO.P,Q4,4*%
%TO.N,VCC*%
X153205000Y-76520000D03*
%TO.P,Q4,5*%
%TO.N,Net-(J1-Pin_2)*%
X153205000Y-77470000D03*
%TO.P,Q4,6*%
X153205000Y-78420000D03*
%TD*%
D17*
%TO.P,J2,1,DAT2*%
%TO.N,/DAT2*%
X119948000Y-108595000D03*
%TO.P,J2,2,DAT3/CD*%
%TO.N,/CS_SD*%
X120348000Y-107495000D03*
%TO.P,J2,3,CMD*%
%TO.N,/MOSI*%
X119948000Y-106395000D03*
%TO.P,J2,4,VDD*%
%TO.N,+3V3*%
X119748000Y-105295000D03*
%TO.P,J2,5,CLK*%
%TO.N,/SCK*%
X119948000Y-104195000D03*
%TO.P,J2,6,VSS*%
%TO.N,GND*%
X119748000Y-103095000D03*
%TO.P,J2,7,DAT0*%
%TO.N,/MISO*%
X119948000Y-101995000D03*
%TO.P,J2,8,DAT1*%
%TO.N,/DAT1*%
X119948000Y-100895000D03*
D18*
%TO.P,J2,9,DET*%
%TO.N,/CD*%
X130498000Y-101705000D03*
X130498000Y-107405000D03*
D19*
%TO.P,J2,10,SHIELD*%
%TO.N,GND*%
X117348000Y-100105000D03*
X116348000Y-113255000D03*
%TD*%
D10*
%TO.P,SW4,1*%
%TO.N,+3V3*%
X173685000Y-95165000D03*
%TO.P,SW4,2*%
X173685000Y-100415000D03*
%TO.P,SW4,3*%
%TO.N,/SW4*%
X170485000Y-95165000D03*
%TO.P,SW4,4*%
X170485000Y-100415000D03*
%TD*%
D20*
%TO.P,R10,1*%
%TO.N,+3V3*%
X137910000Y-118364000D03*
%TO.P,R10,2*%
%TO.N,/SCL*%
X136400000Y-118364000D03*
%TD*%
D12*
%TO.P,R5,1*%
%TO.N,+3V3*%
X127889000Y-96781000D03*
%TO.P,R5,2*%
%TO.N,/MOSI*%
X127889000Y-98291000D03*
%TD*%
D13*
%TO.P,C4,1*%
%TO.N,+3V3*%
X117602000Y-98286000D03*
%TO.P,C4,2*%
%TO.N,GND*%
X117602000Y-96786000D03*
%TD*%
D12*
%TO.P,R3,1*%
%TO.N,+3V3*%
X121343000Y-96781000D03*
%TO.P,R3,2*%
%TO.N,/MISO*%
X121343000Y-98291000D03*
%TD*%
D21*
%TO.P,U1,1,D0*%
%TO.N,/SW2*%
X123190000Y-76200000D03*
%TO.P,U1,2,D1*%
%TO.N,/SW3*%
X123190000Y-78740000D03*
%TO.P,U1,3,D2*%
%TO.N,/CD*%
X123190000Y-81280000D03*
%TO.P,U1,4,D3*%
%TO.N,/CS_SD*%
X123190000Y-83820000D03*
%TO.P,U1,5,D4*%
%TO.N,/SDA*%
X123190000Y-86360000D03*
%TO.P,U1,6,D5*%
%TO.N,/SCL*%
X123190000Y-88900000D03*
%TO.P,U1,7,D6*%
%TO.N,/SW4*%
X123190000Y-91440000D03*
%TO.P,U1,8,D7*%
%TO.N,/SW5*%
X138430000Y-91440000D03*
%TO.P,U1,9,D8*%
%TO.N,/SCK*%
X138430000Y-88900000D03*
%TO.P,U1,10,D9*%
%TO.N,/MISO*%
X138430000Y-86360000D03*
%TO.P,U1,11,D10*%
%TO.N,/MOSI*%
X138430000Y-83820000D03*
%TO.P,U1,12,3V3*%
%TO.N,+3V3*%
X138430000Y-81280000D03*
%TO.P,U1,13,GND*%
%TO.N,GND*%
X138430000Y-78740000D03*
%TO.P,U1,14,VIN*%
%TO.N,VCC*%
X138430000Y-76200000D03*
%TD*%
D22*
%TO.P,J3,*%
%TO.N,*%
X116235000Y-84830000D03*
X116235000Y-90430000D03*
D23*
%TO.P,J3,1,Pin_1*%
%TO.N,GND*%
X120110000Y-86130000D03*
%TO.P,J3,2,Pin_2*%
%TO.N,+3V3*%
X120110000Y-87130000D03*
%TO.P,J3,3,Pin_3*%
%TO.N,/SDA*%
X120110000Y-88130000D03*
%TO.P,J3,4,Pin_4*%
%TO.N,/SCL*%
X120110000Y-89130000D03*
%TD*%
D12*
%TO.P,R1,1*%
%TO.N,+3V3*%
X131191000Y-96781000D03*
%TO.P,R1,2*%
%TO.N,/CD*%
X131191000Y-98291000D03*
%TD*%
D24*
%TO.P,U2,1,GND*%
%TO.N,GND*%
X134375000Y-115865000D03*
%TO.P,U2,2,CSB*%
%TO.N,/BME_CS*%
X134375000Y-116515000D03*
%TO.P,U2,3,SDI*%
%TO.N,/SDA*%
X134375000Y-117165000D03*
%TO.P,U2,4,SCK*%
%TO.N,/SCL*%
X134375000Y-117815000D03*
%TO.P,U2,5,SDO*%
%TO.N,GND*%
X132325000Y-117815000D03*
%TO.P,U2,6,VDDIO*%
%TO.N,+3V3*%
X132325000Y-117165000D03*
%TO.P,U2,7,GND*%
%TO.N,GND*%
X132325000Y-116515000D03*
%TO.P,U2,8,VDD*%
%TO.N,+3V3*%
X132325000Y-115865000D03*
%TD*%
D11*
%TO.P,Q1,1*%
%TO.N,Net-(J1-Pin_2)*%
X159000000Y-82230000D03*
%TO.P,Q1,2*%
%TO.N,GND*%
X159000000Y-80330000D03*
%TO.P,Q1,3*%
%TO.N,Net-(SW1-A)*%
X157230000Y-81280000D03*
%TD*%
D12*
%TO.P,R2,1*%
%TO.N,+3V3*%
X119692000Y-96781000D03*
%TO.P,R2,2*%
%TO.N,/DAT1*%
X119692000Y-98291000D03*
%TD*%
D21*
%TO.P,U3,1,GND*%
%TO.N,/OLED1*%
X151130000Y-92710000D03*
%TO.P,U3,2,VCC*%
%TO.N,/OLED2*%
X153670000Y-92710000D03*
%TO.P,U3,3,SCL*%
%TO.N,/SCL*%
X156210000Y-92710000D03*
%TO.P,U3,4,SDA*%
%TO.N,/SDA*%
X158750000Y-92710000D03*
%TD*%
D20*
%TO.P,R9,1*%
%TO.N,+3V3*%
X137920000Y-116840000D03*
%TO.P,R9,2*%
%TO.N,/SDA*%
X136410000Y-116840000D03*
%TD*%
D12*
%TO.P,R6,1*%
%TO.N,+3V3*%
X126238000Y-96781000D03*
%TO.P,R6,2*%
%TO.N,/CS_SD*%
X126238000Y-98291000D03*
%TD*%
D25*
%TO.P,SW1,*%
%TO.N,*%
X165354000Y-84872000D03*
X165354000Y-76672000D03*
D26*
%TO.P,SW1,1,A*%
%TO.N,Net-(SW1-A)*%
X165354000Y-82772000D03*
%TO.P,SW1,2,B*%
%TO.N,Net-(J1-Pin_1)*%
X165354000Y-80772000D03*
%TO.P,SW1,3,C*%
%TO.N,unconnected-(SW1-C-Pad3)*%
X165354000Y-78772000D03*
%TD*%
D12*
%TO.P,R7,1*%
%TO.N,+3V3*%
X129540000Y-96781000D03*
%TO.P,R7,2*%
%TO.N,/DAT2*%
X129540000Y-98291000D03*
%TD*%
%TO.P,R11,1,A*%
%TO.N,+3V3*%
X152400000Y-85485000D03*
%TO.P,R11,2,C*%
%TO.N,/OLED1*%
X152400000Y-86995000D03*
%TO.P,R11,3,B*%
%TO.N,GND*%
X152400000Y-88505000D03*
%TD*%
D20*
%TO.P,R8,1*%
%TO.N,+3V3*%
X137920000Y-115316000D03*
%TO.P,R8,2*%
%TO.N,/BME_CS*%
X136410000Y-115316000D03*
%TD*%
D13*
%TO.P,C1,1*%
%TO.N,+3V3*%
X130556000Y-114566000D03*
%TO.P,C1,2*%
%TO.N,GND*%
X130556000Y-116066000D03*
%TD*%
D12*
%TO.P,R4,1*%
%TO.N,+3V3*%
X123063000Y-96781000D03*
%TO.P,R4,2*%
%TO.N,/SCK*%
X123063000Y-98291000D03*
%TD*%
D13*
%TO.P,C3,1*%
%TO.N,+3V3*%
X115951000Y-98286000D03*
%TO.P,C3,2*%
%TO.N,GND*%
X115951000Y-96786000D03*
%TD*%
D16*
%TO.P,Q3,1*%
%TO.N,Net-(SW1-A)*%
X155405000Y-82230000D03*
%TO.P,Q3,2*%
X155405000Y-81280000D03*
%TO.P,Q3,3*%
%TO.N,Net-(J1-Pin_2)*%
X155405000Y-80330000D03*
%TO.P,Q3,4*%
%TO.N,VCC*%
X153205000Y-80330000D03*
%TO.P,Q3,5*%
%TO.N,Net-(SW1-A)*%
X153205000Y-81280000D03*
%TO.P,Q3,6*%
X153205000Y-82230000D03*
%TD*%
D27*
%TO.N,+3V3*%
X132594000Y-112528000D03*
X134366000Y-112522000D03*
%TO.N,GND*%
X140335000Y-90170000D03*
X117475000Y-92710000D03*
X165100000Y-74930000D03*
X132715000Y-78105000D03*
X168910000Y-92710000D03*
X172085000Y-92710000D03*
X166370000Y-101600000D03*
X146050000Y-99060000D03*
X152400000Y-91440000D03*
X117602000Y-95504000D03*
X172085000Y-102870000D03*
X140970000Y-93980000D03*
X137160000Y-107950000D03*
X125730000Y-88265000D03*
X147955000Y-76835000D03*
X160655000Y-88900000D03*
X127635000Y-78105000D03*
X130175000Y-80645000D03*
X158750000Y-104140000D03*
X128905000Y-100330000D03*
X146050000Y-104140000D03*
X160147000Y-76581000D03*
X168910000Y-77470000D03*
X134620000Y-105410000D03*
X166370000Y-96520000D03*
X140335000Y-73025000D03*
X128905000Y-109855000D03*
X168910000Y-112395000D03*
X135255000Y-80645000D03*
X157480000Y-74930000D03*
X168910000Y-82550000D03*
X137160000Y-92837000D03*
X139065000Y-100965000D03*
X151130000Y-109855000D03*
X117914000Y-103034000D03*
X116332000Y-114681000D03*
X134620000Y-100330000D03*
X153670000Y-101600000D03*
X166370000Y-120015000D03*
X115951000Y-95504000D03*
X172085000Y-100330000D03*
X148590000Y-112395000D03*
X172085000Y-107950000D03*
X166370000Y-92710000D03*
X161290000Y-120015000D03*
X123825000Y-109855000D03*
X136525000Y-76835000D03*
X140335000Y-80010000D03*
X168910000Y-104140000D03*
X115570000Y-83185000D03*
X148590000Y-117475000D03*
X175260000Y-96520000D03*
X153670000Y-96520000D03*
X171450000Y-109855000D03*
X168910000Y-80010000D03*
X172085000Y-88011000D03*
X114300000Y-113030000D03*
X119380000Y-76200000D03*
X134620000Y-74930000D03*
X161290000Y-109855000D03*
X173990000Y-112395000D03*
D28*
X132334000Y-118999000D03*
D27*
X118110000Y-80645000D03*
X168910000Y-85090000D03*
X146050000Y-93980000D03*
X142240000Y-81915000D03*
X118110000Y-113030000D03*
X160147000Y-81413350D03*
X135255000Y-85598000D03*
X142240000Y-107950000D03*
X160147000Y-79248000D03*
X137160000Y-102870000D03*
X168910000Y-87630000D03*
X118745000Y-109855000D03*
X115570000Y-87630000D03*
X158115000Y-86995000D03*
X147955000Y-73025000D03*
X161290000Y-74930000D03*
X160020000Y-91440000D03*
X172085000Y-97790000D03*
X126365000Y-117475000D03*
X118745000Y-114935000D03*
X152019000Y-83058000D03*
X127635000Y-83185000D03*
X162560000Y-93980000D03*
X142240000Y-113030000D03*
X166370000Y-87630000D03*
X128905000Y-104775000D03*
X175260000Y-82550000D03*
X160147000Y-75438000D03*
X151130000Y-120015000D03*
X172085000Y-105410000D03*
X146050000Y-74930000D03*
D29*
X168910000Y-73025000D03*
D27*
X175260000Y-92710000D03*
X153670000Y-112395000D03*
X163830000Y-112395000D03*
X175260000Y-77470000D03*
X130175000Y-85725000D03*
X160147000Y-77470000D03*
X143510000Y-101600000D03*
X172085000Y-95250000D03*
X159385000Y-73025000D03*
X120015000Y-95250000D03*
X152400000Y-93980000D03*
X163195000Y-76835000D03*
X163195000Y-80645000D03*
X125095000Y-80645000D03*
X148590000Y-96520000D03*
X168910000Y-99060000D03*
X151765000Y-73025000D03*
X171450000Y-120015000D03*
X142240000Y-74930000D03*
X175260000Y-87630000D03*
X135255000Y-87630000D03*
X144145000Y-80010000D03*
X151638000Y-81153000D03*
X144145000Y-83820000D03*
X148590000Y-91440000D03*
X151130000Y-99060000D03*
X163830000Y-104140000D03*
X138430000Y-96520000D03*
X132715000Y-83185000D03*
X135255000Y-91694000D03*
X168910000Y-117475000D03*
X134620000Y-110490000D03*
X146685000Y-108585000D03*
X144145000Y-73025000D03*
X121285000Y-112395000D03*
X132715000Y-73025000D03*
X146050000Y-114935000D03*
X146050000Y-120015000D03*
X123825000Y-114935000D03*
X168910000Y-90170000D03*
X166370000Y-109855000D03*
X156210000Y-114935000D03*
X160147000Y-80391000D03*
X136525000Y-98425000D03*
X146050000Y-88900000D03*
X140335000Y-76835000D03*
X152400000Y-89662000D03*
X122174000Y-99568000D03*
X118745000Y-120015000D03*
X156210000Y-109855000D03*
X143510000Y-86360000D03*
X120015000Y-92710000D03*
X157480000Y-91440000D03*
X128905000Y-114935000D03*
X136525000Y-73025000D03*
X115570000Y-78740000D03*
X143510000Y-117475000D03*
X159258000Y-75438000D03*
X130175000Y-75565000D03*
X132461000Y-88011000D03*
X137160000Y-113030000D03*
X119380000Y-72390000D03*
X128905000Y-117475000D03*
X154940000Y-93980000D03*
X161290000Y-85090000D03*
X148590000Y-86360000D03*
X163830000Y-90170000D03*
X156210000Y-106680000D03*
X144780000Y-110490000D03*
X160020000Y-96520000D03*
X158750000Y-117475000D03*
X160020000Y-93980000D03*
X139700000Y-115570000D03*
X156210000Y-120015000D03*
X143510000Y-96520000D03*
X175260000Y-101600000D03*
X116205000Y-111125000D03*
X141605000Y-103505000D03*
X161290000Y-101600000D03*
X140970000Y-99060000D03*
X117221000Y-101473000D03*
X161290000Y-114935000D03*
X163830000Y-117475000D03*
D28*
X134620000Y-114681000D03*
D27*
X153670000Y-117475000D03*
X171450000Y-114935000D03*
X161290000Y-106680000D03*
X123825000Y-120015000D03*
X125730000Y-85725000D03*
X128905000Y-73025000D03*
X143510000Y-91440000D03*
X147955000Y-83820000D03*
D29*
X118872000Y-99695000D03*
D27*
X120650000Y-83185000D03*
X166370000Y-106680000D03*
X155575000Y-73025000D03*
X163830000Y-87630000D03*
D28*
X118008400Y-86131400D03*
D27*
X128905000Y-120015000D03*
X125730000Y-90805000D03*
X148590000Y-106680000D03*
X139700000Y-105410000D03*
X158750000Y-112395000D03*
X163830000Y-99060000D03*
X175260000Y-106680000D03*
X140335000Y-87630000D03*
X121285000Y-117475000D03*
X116205000Y-107315000D03*
X151130000Y-114935000D03*
X128270000Y-88265000D03*
X149860000Y-81915000D03*
X125095000Y-75565000D03*
X163195000Y-73025000D03*
X121412000Y-102870000D03*
X126365000Y-112395000D03*
X140970000Y-120015000D03*
X144145000Y-106045000D03*
X151130000Y-104140000D03*
X140335000Y-85090000D03*
X120015000Y-90170000D03*
X139700000Y-110490000D03*
X148590000Y-101600000D03*
X166370000Y-114935000D03*
X153670000Y-74930000D03*
X154940000Y-91440000D03*
X166370000Y-90170000D03*
%TO.N,VCC*%
X152019000Y-77978000D03*
X152019000Y-79756000D03*
%TO.N,/SDA*%
X123317000Y-94869000D03*
X130175000Y-95758000D03*
X125984000Y-94869000D03*
X133985000Y-96647000D03*
%TO.N,/SCL*%
X133985000Y-95250000D03*
X126492000Y-93472000D03*
X123571000Y-93472000D03*
X131318000Y-94869000D03*
%TO.N,/MISO*%
X124180600Y-97536000D03*
X124180600Y-96012000D03*
X129603500Y-88836500D03*
X130683000Y-87757000D03*
%TO.N,/SCK*%
X132461000Y-89535000D03*
X125120400Y-96012000D03*
X131318000Y-90678000D03*
X124191500Y-98552000D03*
%TO.N,/MOSI*%
X133350000Y-92075000D03*
X131318000Y-92075000D03*
%TO.N,/CS_SD*%
X122174000Y-95885000D03*
X124396500Y-100520500D03*
%TO.N,/SW4*%
X149793190Y-106867190D03*
X151257000Y-108331000D03*
X136017000Y-93472000D03*
X131318000Y-93472000D03*
X133350000Y-93472000D03*
X127558800Y-92354400D03*
X136017000Y-94996000D03*
%TO.N,/SW5*%
X139890500Y-94805500D03*
X152908000Y-107823000D03*
X150904617Y-105819617D03*
%TD*%
D30*
%TO.N,+3V3*%
X132594000Y-112528000D02*
X133096000Y-112026000D01*
D31*
X115951000Y-98286000D02*
X117602000Y-98286000D01*
D30*
X130556000Y-114566000D02*
X131855000Y-115865000D01*
X117856000Y-105295000D02*
X119748000Y-105295000D01*
X173685000Y-87545000D02*
X173685000Y-92795000D01*
D31*
X119610736Y-87130000D02*
X118491000Y-88249736D01*
D30*
X130556000Y-114566000D02*
X132594000Y-112528000D01*
D31*
X119748000Y-105295000D02*
X119748000Y-105274000D01*
D30*
X119692000Y-96781000D02*
X118937000Y-97536000D01*
D31*
X126238000Y-96781000D02*
X129540000Y-96781000D01*
D30*
X118937000Y-97536000D02*
X118352000Y-97536000D01*
X159016700Y-88531700D02*
X159004000Y-88544400D01*
D31*
X129540000Y-96781000D02*
X131191000Y-96781000D01*
D30*
X130993000Y-117165000D02*
X132325000Y-117165000D01*
D31*
X115951000Y-103251000D02*
X115951000Y-103301800D01*
D30*
X151271000Y-85485000D02*
X150486000Y-84700000D01*
X132969000Y-116814600D02*
X132618600Y-117165000D01*
D31*
X152400000Y-85485000D02*
X152411400Y-85485000D01*
D30*
X152400000Y-85485000D02*
X151271000Y-85485000D01*
X115951000Y-103301800D02*
X115951000Y-103403400D01*
X164465000Y-93980000D02*
X173685000Y-93980000D01*
X154979400Y-88544400D02*
X154940000Y-88505000D01*
X173685000Y-100415000D02*
X173685000Y-102785000D01*
X173685000Y-95165000D02*
X173685000Y-100415000D01*
X173685000Y-79925000D02*
X173685000Y-85175000D01*
X159004000Y-88544400D02*
X154979400Y-88544400D01*
X115951000Y-98286000D02*
X115951000Y-103251000D01*
X137910000Y-118364000D02*
X137910000Y-117602000D01*
X132618600Y-117165000D02*
X132325000Y-117165000D01*
D31*
X119692000Y-96781000D02*
X126238000Y-96781000D01*
X157099000Y-84709000D02*
X159016700Y-86626700D01*
D30*
X131855000Y-115865000D02*
X132325000Y-115865000D01*
X133096000Y-112026000D02*
X133096000Y-110744000D01*
X117856000Y-105308400D02*
X117856000Y-110337600D01*
X132325000Y-115865000D02*
X132629000Y-115865000D01*
D31*
X118491000Y-88249736D02*
X118491000Y-95580000D01*
D30*
X134366000Y-112522000D02*
X135126000Y-112522000D01*
X173685000Y-85175000D02*
X173685000Y-87545000D01*
X132969000Y-116205000D02*
X132969000Y-116814600D01*
X118352000Y-97536000D02*
X117602000Y-98286000D01*
D31*
X137910000Y-115326000D02*
X137920000Y-115316000D01*
D30*
X133096000Y-95123000D02*
X134047000Y-94172000D01*
X134047000Y-94172000D02*
X139508000Y-94172000D01*
X141850000Y-84700000D02*
X138430000Y-81280000D01*
X137910000Y-117602000D02*
X137910000Y-115326000D01*
D31*
X118491000Y-95580000D02*
X119692000Y-96781000D01*
D30*
X132629000Y-115865000D02*
X132969000Y-116205000D01*
X115951000Y-103403400D02*
X117856000Y-105308400D01*
X118262400Y-110744000D02*
X133096000Y-110744000D01*
X135126000Y-112522000D02*
X137920000Y-115316000D01*
X150486000Y-84700000D02*
X141850000Y-84700000D01*
D31*
X120110000Y-87130000D02*
X119610736Y-87130000D01*
X152411400Y-85485000D02*
X153187400Y-84709000D01*
D30*
X133096000Y-110744000D02*
X133096000Y-95123000D01*
D31*
X153187400Y-84709000D02*
X157099000Y-84709000D01*
D30*
X173685000Y-93980000D02*
X173685000Y-95165000D01*
X173685000Y-92795000D02*
X173685000Y-93980000D01*
X141850000Y-91830000D02*
X141850000Y-84700000D01*
X159016700Y-88531700D02*
X164465000Y-93980000D01*
X139508000Y-94172000D02*
X141850000Y-91830000D01*
D31*
X159016700Y-86626700D02*
X159016700Y-88531700D01*
D30*
X130556000Y-117602000D02*
X130993000Y-117165000D01*
D31*
X119748000Y-105274000D02*
X119679000Y-105205000D01*
D30*
X117856000Y-110337600D02*
X118262400Y-110744000D01*
X173685000Y-102785000D02*
X173685000Y-108035000D01*
D31*
X120110000Y-87130000D02*
X120620000Y-87130000D01*
%TO.N,GND*%
X131005000Y-116515000D02*
X132325000Y-116515000D01*
X134400000Y-115840000D02*
X134375000Y-115865000D01*
X116279000Y-114628000D02*
X116332000Y-114681000D01*
X115951000Y-96786000D02*
X115951000Y-95504000D01*
X132334000Y-118999000D02*
X132231000Y-119102000D01*
X154979400Y-85485000D02*
X154940000Y-85485000D01*
X132325000Y-118990000D02*
X132325000Y-117815000D01*
X130556000Y-116078000D02*
X130556000Y-116066000D01*
X152400000Y-88505000D02*
X152400000Y-89662000D01*
X120110000Y-86130000D02*
X118009800Y-86130000D01*
X132231000Y-119102000D02*
X130556000Y-119102000D01*
D30*
X134620000Y-114681000D02*
X134620000Y-115620000D01*
D31*
X118009800Y-86130000D02*
X118008400Y-86131400D01*
X130556000Y-116066000D02*
X131005000Y-116515000D01*
X132334000Y-118999000D02*
X132325000Y-118990000D01*
X117602000Y-96786000D02*
X117602000Y-95504000D01*
X117279000Y-101415000D02*
X117221000Y-101473000D01*
X117943000Y-103005000D02*
X117914000Y-103034000D01*
D30*
X134620000Y-115620000D02*
X134375000Y-115865000D01*
D32*
%TO.N,VCC*%
X152019000Y-79756000D02*
X152593000Y-80330000D01*
X152593000Y-80330000D02*
X153205000Y-80330000D01*
X152019000Y-76835000D02*
X152019000Y-77978000D01*
X140208000Y-77978000D02*
X138430000Y-76200000D01*
X153205000Y-76520000D02*
X152334000Y-76520000D01*
X152334000Y-76520000D02*
X152019000Y-76835000D01*
X152019000Y-77978000D02*
X140208000Y-77978000D01*
D31*
%TO.N,/OLED1*%
X151450000Y-86995000D02*
X152400000Y-86995000D01*
X151130000Y-92710000D02*
X151130000Y-87315000D01*
X151130000Y-87315000D02*
X151450000Y-86995000D01*
%TO.N,/OLED2*%
X154051000Y-86995000D02*
X154940000Y-86995000D01*
X153670000Y-92710000D02*
X153670000Y-87376000D01*
X153670000Y-87376000D02*
X154051000Y-86995000D01*
%TO.N,/BME_CS*%
X134375000Y-116515000D02*
X135345000Y-116515000D01*
X135345000Y-116515000D02*
X136410000Y-115450000D01*
X136410000Y-115450000D02*
X136410000Y-115316000D01*
%TO.N,/DAT2*%
X126238000Y-99314000D02*
X128517000Y-99314000D01*
X125476000Y-105029000D02*
X125476000Y-100076000D01*
X125476000Y-100076000D02*
X126238000Y-99314000D01*
X119969000Y-108595000D02*
X121910000Y-108595000D01*
X121910000Y-108595000D02*
X125476000Y-105029000D01*
X128517000Y-99314000D02*
X129540000Y-98291000D01*
%TO.N,/DAT1*%
X119692000Y-100639000D02*
X119948000Y-100895000D01*
X119692000Y-98328000D02*
X119692000Y-100639000D01*
%TO.N,/SDA*%
X135740000Y-120500000D02*
X137968633Y-120500000D01*
X133600000Y-118360000D02*
X135740000Y-120500000D01*
X158750000Y-99718633D02*
X158750000Y-92710000D01*
X133985000Y-96647000D02*
X133600000Y-97032000D01*
X133600000Y-97032000D02*
X133600000Y-118360000D01*
X136410000Y-116840000D02*
X135636000Y-116840000D01*
X120110000Y-88130000D02*
X119515000Y-88130000D01*
X137968633Y-120500000D02*
X158750000Y-99718633D01*
X135636000Y-116840000D02*
X135311000Y-117165000D01*
X120110000Y-88130000D02*
X121420000Y-88130000D01*
X130175000Y-95758000D02*
X126873000Y-95758000D01*
X119515000Y-88130000D02*
X118999000Y-88646000D01*
X135311000Y-117165000D02*
X134375000Y-117165000D01*
X118999000Y-90551000D02*
X123317000Y-94869000D01*
X121420000Y-88130000D02*
X123190000Y-86360000D01*
X134375000Y-117165000D02*
X133604000Y-117165000D01*
X118999000Y-88646000D02*
X118999000Y-90551000D01*
X126873000Y-95758000D02*
X125984000Y-94869000D01*
%TO.N,/SCL*%
X156210000Y-101490000D02*
X156210000Y-92710000D01*
X148725500Y-108974500D02*
X147074500Y-110625500D01*
X134375000Y-117815000D02*
X134924000Y-118364000D01*
X136400000Y-118364000D02*
X137200000Y-119164000D01*
X127899503Y-94879503D02*
X126492000Y-93472000D01*
X121793000Y-90297000D02*
X123190000Y-88900000D01*
X121500000Y-89130000D02*
X122960000Y-89130000D01*
X137200000Y-119164000D02*
X137750000Y-119164000D01*
X138536000Y-119164000D02*
X141994500Y-115705500D01*
X120110000Y-89130000D02*
X121500000Y-89130000D01*
X135001000Y-95250000D02*
X148725500Y-108974500D01*
X131303103Y-94879503D02*
X127899503Y-94879503D01*
X137750000Y-119164000D02*
X138536000Y-119164000D01*
X122960000Y-89130000D02*
X123190000Y-88900000D01*
X137750000Y-119164000D02*
X137236500Y-119164000D01*
X141994500Y-115705500D02*
X156210000Y-101490000D01*
X123063000Y-93472000D02*
X121793000Y-92202000D01*
X121793000Y-92202000D02*
X121793000Y-90297000D01*
X133985000Y-95250000D02*
X135001000Y-95250000D01*
X123571000Y-93472000D02*
X123063000Y-93472000D01*
X134924000Y-118364000D02*
X136400000Y-118364000D01*
X131318000Y-94894400D02*
X131303103Y-94879503D01*
D33*
%TO.N,Net-(SW1-A)*%
X158912600Y-78420000D02*
X158115000Y-77622400D01*
X158115000Y-76885800D02*
X157749200Y-76520000D01*
X157749200Y-76520000D02*
X155405000Y-76520000D01*
D32*
X165351800Y-82727800D02*
X162128200Y-82727800D01*
D33*
X158115000Y-77622400D02*
X158115000Y-76885800D01*
D32*
X165354000Y-82730000D02*
X165351800Y-82727800D01*
X155608000Y-82230000D02*
X155405000Y-82230000D01*
X162102800Y-79679800D02*
X162102800Y-82753200D01*
D33*
X159000000Y-78420000D02*
X158912600Y-78420000D01*
D32*
X155405000Y-82230000D02*
X156360000Y-83185000D01*
X161671000Y-83185000D02*
X162102800Y-82753200D01*
X160843000Y-78420000D02*
X162102800Y-79679800D01*
X159000000Y-78420000D02*
X160843000Y-78420000D01*
X156360000Y-83185000D02*
X161671000Y-83185000D01*
X162128200Y-82727800D02*
X162102800Y-82753200D01*
D31*
%TO.N,/CD*%
X123190000Y-81407000D02*
X132588000Y-90805000D01*
X131191000Y-98291000D02*
X131960000Y-98291000D01*
X130315000Y-107733000D02*
X130311000Y-107737000D01*
X130498000Y-101705000D02*
X130498000Y-98984000D01*
X130498000Y-107405000D02*
X130498000Y-101684000D01*
X131960000Y-98291000D02*
X132588000Y-97663000D01*
X130498000Y-98984000D02*
X131191000Y-98291000D01*
X132588000Y-90805000D02*
X132588000Y-97663000D01*
X123190000Y-81280000D02*
X123190000Y-81407000D01*
%TO.N,/MISO*%
X130683000Y-87757000D02*
X132080000Y-86360000D01*
X121343000Y-98291000D02*
X122098000Y-97536000D01*
X122098000Y-97536000D02*
X124180600Y-97536000D01*
X124714000Y-93472000D02*
X129349500Y-88836500D01*
X121105000Y-101995000D02*
X119948000Y-101995000D01*
X132080000Y-86360000D02*
X138430000Y-86360000D01*
X124180600Y-96012000D02*
X124180600Y-95910400D01*
X124714000Y-95377000D02*
X124714000Y-93472000D01*
X129349500Y-88836500D02*
X129603500Y-88836500D01*
X121343000Y-101757000D02*
X121105000Y-101995000D01*
X124180600Y-95910400D02*
X124714000Y-95377000D01*
X121343000Y-98328000D02*
X121343000Y-101757000D01*
%TO.N,/SCK*%
X123063000Y-98291000D02*
X123063000Y-102362000D01*
X123324000Y-98552000D02*
X123063000Y-98291000D01*
X123063000Y-102362000D02*
X121230000Y-104195000D01*
X124191500Y-98552000D02*
X123324000Y-98552000D01*
X130683000Y-91313000D02*
X127635000Y-91313000D01*
X125120400Y-93827600D02*
X125120400Y-96012000D01*
X133096000Y-88900000D02*
X138430000Y-88900000D01*
X132461000Y-89535000D02*
X133096000Y-88900000D01*
X121230000Y-104195000D02*
X119948000Y-104195000D01*
X131318000Y-90678000D02*
X130683000Y-91313000D01*
X127635000Y-91313000D02*
X125120400Y-93827600D01*
%TO.N,/MOSI*%
X123571000Y-104267000D02*
X123571000Y-100203000D01*
X123571000Y-100203000D02*
X125095000Y-98679000D01*
X119969000Y-106395000D02*
X121443000Y-106395000D01*
X128644000Y-97536000D02*
X127889000Y-98291000D01*
X139660000Y-85050000D02*
X138430000Y-83820000D01*
X132080000Y-97190764D02*
X131734764Y-97536000D01*
X131734764Y-97536000D02*
X128644000Y-97536000D01*
X131318000Y-92202000D02*
X132080000Y-92964000D01*
X138938000Y-90170000D02*
X139660000Y-89448000D01*
X121443000Y-106395000D02*
X123571000Y-104267000D01*
X125095000Y-97790000D02*
X125349000Y-97536000D01*
X133350000Y-90678000D02*
X133858000Y-90170000D01*
X139660000Y-89448000D02*
X139660000Y-85050000D01*
X125349000Y-97536000D02*
X127134000Y-97536000D01*
X127134000Y-97536000D02*
X127889000Y-98291000D01*
X133858000Y-90170000D02*
X138938000Y-90170000D01*
X125095000Y-98679000D02*
X125095000Y-97790000D01*
X133350000Y-92075000D02*
X133350000Y-90678000D01*
X132080000Y-92964000D02*
X132080000Y-97190764D01*
%TO.N,/CS_SD*%
X124396500Y-100132500D02*
X126238000Y-98291000D01*
X123317000Y-95885000D02*
X124314000Y-94888000D01*
X124396500Y-100520500D02*
X124396500Y-104838500D01*
X124587000Y-85217000D02*
X123190000Y-83820000D01*
X124314000Y-94888000D02*
X124314000Y-93251405D01*
X124396500Y-100520500D02*
X124396500Y-100132500D01*
X124314000Y-93251405D02*
X124587000Y-92978405D01*
X124587000Y-92978405D02*
X124587000Y-85217000D01*
X122174000Y-95885000D02*
X123317000Y-95885000D01*
X121740000Y-107495000D02*
X120348000Y-107495000D01*
X124396500Y-104838500D02*
X121740000Y-107495000D01*
%TO.N,/SW2*%
X170485000Y-79925000D02*
X170485000Y-77622600D01*
X170485000Y-79925000D02*
X170485000Y-85175000D01*
X125755400Y-72263000D02*
X123190000Y-74828400D01*
X165125400Y-72263000D02*
X125755400Y-72263000D01*
X170485000Y-77622600D02*
X165125400Y-72263000D01*
X123190000Y-74828400D02*
X123190000Y-76200000D01*
%TO.N,/SW3*%
X125095000Y-71755000D02*
X165836600Y-71755000D01*
X123190000Y-78740000D02*
X121767600Y-77317600D01*
X171281000Y-87545000D02*
X170485000Y-87545000D01*
X172085000Y-78003400D02*
X172085000Y-86741000D01*
X172085000Y-86741000D02*
X171281000Y-87545000D01*
X121767600Y-77317600D02*
X121767600Y-75082400D01*
X121767600Y-75082400D02*
X125095000Y-71755000D01*
X170485000Y-87545000D02*
X170485000Y-92795000D01*
X165836600Y-71755000D02*
X172085000Y-78003400D01*
%TO.N,/SW4*%
X136017000Y-94996000D02*
X137922000Y-94996000D01*
X128676400Y-93472000D02*
X127558800Y-92354400D01*
X131318000Y-93472000D02*
X128676400Y-93472000D01*
X151257000Y-108331000D02*
X164423000Y-95165000D01*
X164423000Y-95165000D02*
X170485000Y-95165000D01*
X170485000Y-95165000D02*
X170485000Y-100415000D01*
X136017000Y-93472000D02*
X133350000Y-93472000D01*
X137922000Y-94996000D02*
X149793190Y-106867190D01*
%TO.N,/SW5*%
X139890500Y-94805500D02*
X150904617Y-105819617D01*
X152908000Y-107823000D02*
X153120000Y-108035000D01*
X153120000Y-108035000D02*
X170485000Y-108035000D01*
X170485000Y-102785000D02*
X170485000Y-108035000D01*
D33*
%TO.N,Net-(J1-Pin_2)*%
X158115000Y-80670400D02*
X157774600Y-80330000D01*
X158912600Y-82230000D02*
X158115000Y-81432400D01*
D32*
X146320000Y-80019400D02*
X147472400Y-78867000D01*
D33*
X157774600Y-80330000D02*
X155405000Y-80330000D01*
D32*
X146320000Y-81270000D02*
X146320000Y-80019400D01*
X147472400Y-78867000D02*
X152758000Y-78867000D01*
D33*
X159000000Y-82230000D02*
X158912600Y-82230000D01*
X158115000Y-81432400D02*
X158115000Y-80670400D01*
D32*
X152758000Y-78867000D02*
X153205000Y-78420000D01*
%TO.N,Net-(J1-Pin_1)*%
X162450000Y-88900000D02*
X166750000Y-88900000D01*
X148320000Y-81336000D02*
X148320000Y-82534000D01*
X148320000Y-82534000D02*
X149737000Y-83951000D01*
X167800000Y-83218000D02*
X165354000Y-80772000D01*
X149737000Y-83951000D02*
X157501000Y-83951000D01*
X166750000Y-88900000D02*
X167800000Y-87850000D01*
X167800000Y-87850000D02*
X167800000Y-83218000D01*
X157501000Y-83951000D02*
X162450000Y-88900000D01*
%TD*%
%TA.AperFunction,Conductor*%
%TO.N,/SDA*%
G36*
X133672344Y-96517460D02*
G01*
X133980494Y-96644147D01*
X133986843Y-96650462D01*
X133986859Y-96650502D01*
X134113871Y-96958085D01*
X134113861Y-96967040D01*
X134107523Y-96973365D01*
X134106127Y-96973841D01*
X133992529Y-97004728D01*
X133990770Y-97005064D01*
X133877328Y-97017852D01*
X133877293Y-97017857D01*
X133784689Y-97035160D01*
X133784686Y-97035161D01*
X133722643Y-97083007D01*
X133701998Y-97178305D01*
X133696897Y-97185665D01*
X133690563Y-97187528D01*
X133511979Y-97187528D01*
X133503706Y-97184101D01*
X133500279Y-97175828D01*
X133500282Y-97175552D01*
X133502465Y-97083007D01*
X133504057Y-97015516D01*
X133504133Y-97014441D01*
X133518573Y-96893453D01*
X133518917Y-96891714D01*
X133547244Y-96789615D01*
X133547648Y-96788419D01*
X133593848Y-96672997D01*
X133593897Y-96672878D01*
X133657125Y-96523715D01*
X133663509Y-96517436D01*
X133672344Y-96517460D01*
G37*
%TD.AperFunction*%
%TD*%
%TA.AperFunction,Conductor*%
%TO.N,/SW5*%
G36*
X150488573Y-105260919D02*
G01*
X150594037Y-105350572D01*
X150688826Y-105398640D01*
X150755535Y-105415701D01*
X150782584Y-105422619D01*
X150782592Y-105422620D01*
X150782593Y-105422621D01*
X150892584Y-105446860D01*
X150893820Y-105447205D01*
X151026751Y-105492258D01*
X151033486Y-105498159D01*
X151034076Y-105507095D01*
X151033816Y-105507788D01*
X150907180Y-105815808D01*
X150900865Y-105822157D01*
X150900808Y-105822180D01*
X150592788Y-105948816D01*
X150583833Y-105948793D01*
X150577518Y-105942444D01*
X150577258Y-105941751D01*
X150532205Y-105808820D01*
X150531860Y-105807582D01*
X150507619Y-105697584D01*
X150500701Y-105670535D01*
X150483640Y-105603826D01*
X150435572Y-105509037D01*
X150345919Y-105403573D01*
X150343172Y-105395052D01*
X150346560Y-105387725D01*
X150472725Y-105261560D01*
X150480997Y-105258134D01*
X150488573Y-105260919D01*
G37*
%TD.AperFunction*%
%TD*%
%TA.AperFunction,Conductor*%
%TO.N,Net-(J1-Pin_2)*%
G36*
X157686132Y-77073318D02*
G01*
X157689500Y-77081450D01*
X157689500Y-77678417D01*
X157714558Y-77771936D01*
X157714950Y-77774912D01*
X157714950Y-77865790D01*
X157712176Y-77873281D01*
X156862575Y-78862991D01*
X156854722Y-78866967D01*
X156853849Y-78867000D01*
X156845000Y-78867000D01*
X156845000Y-78867001D01*
X156845000Y-78879205D01*
X156842226Y-78886696D01*
X155905200Y-79978250D01*
X155905200Y-80663750D01*
X155901832Y-80671882D01*
X155893700Y-80675250D01*
X154897178Y-80675250D01*
X154889630Y-80672426D01*
X152708752Y-78775188D01*
X152704828Y-78767310D01*
X152704800Y-78766512D01*
X152704800Y-77132250D01*
X152708168Y-77124118D01*
X152716300Y-77120750D01*
X155905193Y-77120750D01*
X155905200Y-77120750D01*
X155908311Y-77120561D01*
X155908980Y-77120521D01*
X155909674Y-77120500D01*
X155929672Y-77120500D01*
X155929674Y-77120500D01*
X155937841Y-77118875D01*
X155939354Y-77118680D01*
X156743053Y-77069970D01*
X156743749Y-77069950D01*
X157678000Y-77069950D01*
X157686132Y-77073318D01*
G37*
%TD.AperFunction*%
%TD*%
%TA.AperFunction,Conductor*%
%TO.N,/SW5*%
G36*
X153162691Y-107584851D02*
G01*
X153163614Y-107585895D01*
X153239217Y-107682476D01*
X153240351Y-107684227D01*
X153291555Y-107781240D01*
X153338445Y-107861260D01*
X153338445Y-107861261D01*
X153395367Y-107905179D01*
X153408371Y-107915213D01*
X153519391Y-107933393D01*
X153527000Y-107938112D01*
X153529199Y-107944939D01*
X153529199Y-108123596D01*
X153525772Y-108131869D01*
X153517799Y-108135292D01*
X153374986Y-108138951D01*
X153374974Y-108138951D01*
X153374974Y-108138952D01*
X153265727Y-108148376D01*
X153249326Y-108150333D01*
X153171659Y-108159601D01*
X153171279Y-108159640D01*
X153062568Y-108169018D01*
X153061862Y-108169057D01*
X152919965Y-108172693D01*
X152911606Y-108169479D01*
X152907969Y-108161297D01*
X152907965Y-108161095D01*
X152907013Y-107827875D01*
X152910414Y-107819598D01*
X153146145Y-107584816D01*
X153154425Y-107581407D01*
X153162691Y-107584851D01*
G37*
%TD.AperFunction*%
%TD*%
%TA.AperFunction,Conductor*%
%TO.N,/MOSI*%
G36*
X133447483Y-91378427D02*
G01*
X133450871Y-91385753D01*
X133457749Y-91470640D01*
X133462051Y-91523726D01*
X133495086Y-91624735D01*
X133495088Y-91624742D01*
X133544426Y-91707985D01*
X133605070Y-91802913D01*
X133605701Y-91804032D01*
X133667839Y-91929883D01*
X133668429Y-91938819D01*
X133662528Y-91945554D01*
X133661854Y-91945861D01*
X133354506Y-92074119D01*
X133345551Y-92074142D01*
X133345494Y-92074119D01*
X133038145Y-91945861D01*
X133031830Y-91939512D01*
X133031853Y-91930557D01*
X133032148Y-91929908D01*
X133094305Y-91804016D01*
X133094918Y-91802929D01*
X133155564Y-91707998D01*
X133204911Y-91624738D01*
X133237948Y-91523722D01*
X133249128Y-91385753D01*
X133253212Y-91377786D01*
X133260790Y-91375000D01*
X133439210Y-91375000D01*
X133447483Y-91378427D01*
G37*
%TD.AperFunction*%
%TD*%
%TA.AperFunction,Conductor*%
%TO.N,Net-(SW1-A)*%
G36*
X162122432Y-81683864D02*
G01*
X162123017Y-81684495D01*
X163026250Y-82734199D01*
X163029001Y-82742560D01*
X163025034Y-82750417D01*
X163017533Y-82753200D01*
X162114300Y-82753200D01*
X162106168Y-82749832D01*
X162102800Y-82741700D01*
X162102800Y-81691996D01*
X162106168Y-81683864D01*
X162114300Y-81680496D01*
X162122432Y-81683864D01*
G37*
%TD.AperFunction*%
%TD*%
%TA.AperFunction,Conductor*%
%TO.N,+3V3*%
G36*
X132281963Y-112398715D02*
G01*
X132590191Y-112525436D01*
X132596540Y-112531751D01*
X132596563Y-112531808D01*
X132723274Y-112840011D01*
X132723251Y-112848966D01*
X132716902Y-112855281D01*
X132716384Y-112855480D01*
X132586098Y-112901962D01*
X132585264Y-112902225D01*
X132479057Y-112931382D01*
X132389493Y-112961280D01*
X132298459Y-113013906D01*
X132195652Y-113104131D01*
X132187174Y-113107012D01*
X132179662Y-113103610D01*
X132018389Y-112942337D01*
X132014962Y-112934064D01*
X132017868Y-112926347D01*
X132080060Y-112855480D01*
X132108092Y-112823537D01*
X132160717Y-112732506D01*
X132190614Y-112642947D01*
X132219775Y-112536722D01*
X132220029Y-112535917D01*
X132266520Y-112405612D01*
X132272527Y-112398974D01*
X132281471Y-112398526D01*
X132281963Y-112398715D01*
G37*
%TD.AperFunction*%
%TD*%
%TA.AperFunction,Conductor*%
%TO.N,+3V3*%
G36*
X134510518Y-112203671D02*
G01*
X134511024Y-112203897D01*
X134636018Y-112263154D01*
X134636794Y-112263558D01*
X134732516Y-112318043D01*
X134816985Y-112360231D01*
X134918565Y-112387388D01*
X135055062Y-112396286D01*
X135063094Y-112400244D01*
X135066000Y-112407961D01*
X135066000Y-112636038D01*
X135062573Y-112644311D01*
X135055061Y-112647713D01*
X134918570Y-112656610D01*
X134918566Y-112656610D01*
X134918565Y-112656611D01*
X134867775Y-112670189D01*
X134816984Y-112683768D01*
X134732515Y-112725955D01*
X134732502Y-112725962D01*
X134636794Y-112780440D01*
X134636018Y-112780844D01*
X134511024Y-112840102D01*
X134502080Y-112840550D01*
X134495440Y-112834542D01*
X134495214Y-112834036D01*
X134450111Y-112725955D01*
X134366879Y-112526505D01*
X134366857Y-112517551D01*
X134366880Y-112517494D01*
X134421174Y-112387388D01*
X134495215Y-112209961D01*
X134501563Y-112203648D01*
X134510518Y-112203671D01*
G37*
%TD.AperFunction*%
%TD*%
%TA.AperFunction,Conductor*%
%TO.N,/SW5*%
G36*
X140211284Y-94676323D02*
G01*
X140217599Y-94682672D01*
X140217859Y-94683366D01*
X140262910Y-94816293D01*
X140263255Y-94817530D01*
X140287495Y-94927530D01*
X140311475Y-95021289D01*
X140359543Y-95116078D01*
X140412281Y-95178117D01*
X140449196Y-95221541D01*
X140451944Y-95230064D01*
X140448555Y-95237392D01*
X140322392Y-95363555D01*
X140314119Y-95366982D01*
X140306541Y-95364196D01*
X140201080Y-95274545D01*
X140201078Y-95274543D01*
X140106289Y-95226475D01*
X140012530Y-95202495D01*
X139902530Y-95178255D01*
X139901293Y-95177910D01*
X139768366Y-95132859D01*
X139761630Y-95126958D01*
X139761040Y-95118023D01*
X139761290Y-95117353D01*
X139887937Y-94809306D01*
X139894248Y-94802961D01*
X140202331Y-94676300D01*
X140211284Y-94676323D01*
G37*
%TD.AperFunction*%
%TD*%
%TA.AperFunction,Conductor*%
%TO.N,/SW4*%
G36*
X149377146Y-106308492D02*
G01*
X149482610Y-106398145D01*
X149577399Y-106446213D01*
X149644108Y-106463274D01*
X149671157Y-106470192D01*
X149671165Y-106470193D01*
X149671166Y-106470194D01*
X149781157Y-106494433D01*
X149782393Y-106494778D01*
X149915324Y-106539831D01*
X149922059Y-106545732D01*
X149922649Y-106554668D01*
X149922389Y-106555361D01*
X149795753Y-106863381D01*
X149789438Y-106869730D01*
X149789381Y-106869753D01*
X149481361Y-106996389D01*
X149472406Y-106996366D01*
X149466091Y-106990017D01*
X149465831Y-106989324D01*
X149420778Y-106856393D01*
X149420433Y-106855155D01*
X149396192Y-106745157D01*
X149389274Y-106718108D01*
X149372213Y-106651399D01*
X149324145Y-106556610D01*
X149234492Y-106451146D01*
X149231745Y-106442625D01*
X149235133Y-106435298D01*
X149361298Y-106309133D01*
X149369570Y-106305707D01*
X149377146Y-106308492D01*
G37*
%TD.AperFunction*%
%TD*%
%TA.AperFunction,Conductor*%
%TO.N,/MISO*%
G36*
X124551930Y-95413592D02*
G01*
X124678099Y-95539761D01*
X124681526Y-95548034D01*
X124679084Y-95555188D01*
X124593051Y-95666529D01*
X124593048Y-95666534D01*
X124560426Y-95770177D01*
X124555830Y-95873856D01*
X124555813Y-95874142D01*
X124553910Y-95901763D01*
X124553539Y-95903987D01*
X124544900Y-95936231D01*
X124544900Y-96001536D01*
X124544447Y-96004761D01*
X124507562Y-96133371D01*
X124501987Y-96140379D01*
X124493090Y-96141393D01*
X124491866Y-96140967D01*
X124184408Y-96014563D01*
X124178060Y-96008249D01*
X124051195Y-95699670D01*
X124051218Y-95690716D01*
X124057567Y-95684401D01*
X124057751Y-95684326D01*
X124180457Y-95636586D01*
X124277632Y-95599983D01*
X124357639Y-95561105D01*
X124357640Y-95561104D01*
X124357644Y-95561102D01*
X124387767Y-95539548D01*
X124439930Y-95502226D01*
X124535697Y-95413291D01*
X124544089Y-95410173D01*
X124551930Y-95413592D01*
G37*
%TD.AperFunction*%
%TD*%
%TA.AperFunction,Conductor*%
%TO.N,+3V3*%
G36*
X159113752Y-88285127D02*
G01*
X159117169Y-88292911D01*
X159119299Y-88343876D01*
X159125500Y-88387791D01*
X159125504Y-88387816D01*
X159132839Y-88425303D01*
X159132942Y-88425913D01*
X159139018Y-88468946D01*
X159139123Y-88470093D01*
X159141194Y-88519607D01*
X159138116Y-88528016D01*
X159129993Y-88531786D01*
X159129598Y-88531796D01*
X159016794Y-88532699D01*
X159016606Y-88532699D01*
X159004000Y-88532598D01*
X158891700Y-88531700D01*
X158894300Y-88469520D01*
X158900500Y-88425610D01*
X158907900Y-88387789D01*
X158914100Y-88343879D01*
X158916700Y-88281700D01*
X159004000Y-88281700D01*
X159105479Y-88281700D01*
X159113752Y-88285127D01*
G37*
%TD.AperFunction*%
%TD*%
%TA.AperFunction,Conductor*%
%TO.N,+3V3*%
G36*
X159000471Y-87904262D02*
G01*
X159003998Y-87912327D01*
X159004000Y-87912552D01*
X159004000Y-88532900D01*
X159000632Y-88541032D01*
X158992500Y-88544400D01*
X158396012Y-88544400D01*
X158387880Y-88541032D01*
X158384512Y-88532900D01*
X158387722Y-88524929D01*
X158976762Y-87912327D01*
X158984210Y-87904580D01*
X158992275Y-87901054D01*
X159000471Y-87904262D01*
G37*
%TD.AperFunction*%
%TD*%
%TA.AperFunction,Conductor*%
%TO.N,/SW4*%
G36*
X136161442Y-94677853D02*
G01*
X136162102Y-94678153D01*
X136287974Y-94740301D01*
X136289076Y-94740923D01*
X136384001Y-94801564D01*
X136384013Y-94801571D01*
X136467256Y-94850909D01*
X136467259Y-94850909D01*
X136467261Y-94850911D01*
X136535922Y-94873366D01*
X136568273Y-94883947D01*
X136568274Y-94883947D01*
X136568277Y-94883948D01*
X136706246Y-94895128D01*
X136714214Y-94899212D01*
X136717000Y-94906790D01*
X136717000Y-95085209D01*
X136713573Y-95093482D01*
X136706245Y-95096871D01*
X136568272Y-95108051D01*
X136467263Y-95141086D01*
X136467256Y-95141088D01*
X136384013Y-95190426D01*
X136289085Y-95251070D01*
X136287966Y-95251701D01*
X136162116Y-95313839D01*
X136153181Y-95314429D01*
X136146445Y-95308528D01*
X136146138Y-95307854D01*
X136076546Y-95141088D01*
X136017879Y-95000505D01*
X136017857Y-94991551D01*
X136017880Y-94991494D01*
X136146139Y-94684143D01*
X136152487Y-94677830D01*
X136161442Y-94677853D01*
G37*
%TD.AperFunction*%
%TD*%
%TA.AperFunction,Conductor*%
%TO.N,GND*%
G36*
X124327966Y-71539454D02*
G01*
X124408748Y-71593430D01*
X124462724Y-71674212D01*
X124481678Y-71769500D01*
X124462724Y-71864788D01*
X124408748Y-71945570D01*
X121487127Y-74867191D01*
X121450869Y-74929994D01*
X121450867Y-74929999D01*
X121440986Y-74947111D01*
X121440984Y-74947116D01*
X121417100Y-75036253D01*
X121417100Y-75036256D01*
X121417100Y-77363744D01*
X121432844Y-77422500D01*
X121440986Y-77452888D01*
X121487130Y-77532812D01*
X121487131Y-77532813D01*
X122067343Y-78113026D01*
X122121319Y-78193807D01*
X122140273Y-78289095D01*
X122128087Y-78366038D01*
X122092214Y-78476445D01*
X122092211Y-78476456D01*
X122064500Y-78651411D01*
X122064500Y-78828588D01*
X122092211Y-79003543D01*
X122092213Y-79003549D01*
X122092214Y-79003555D01*
X122146958Y-79172042D01*
X122146959Y-79172043D01*
X122146963Y-79172052D01*
X122227385Y-79329889D01*
X122322393Y-79460656D01*
X122331517Y-79473214D01*
X122456786Y-79598483D01*
X122542500Y-79660758D01*
X122600110Y-79702614D01*
X122766675Y-79787484D01*
X122765431Y-79789923D01*
X122831312Y-79833959D01*
X122885275Y-79914749D01*
X122904214Y-80010040D01*
X122885245Y-80105325D01*
X122831255Y-80186098D01*
X122765433Y-80230078D01*
X122766675Y-80232516D01*
X122600110Y-80317385D01*
X122456789Y-80421514D01*
X122331514Y-80546789D01*
X122227385Y-80690110D01*
X122146963Y-80847947D01*
X122146958Y-80847956D01*
X122146958Y-80847958D01*
X122092214Y-81016445D01*
X122092213Y-81016448D01*
X122092213Y-81016450D01*
X122092211Y-81016456D01*
X122064500Y-81191411D01*
X122064500Y-81368588D01*
X122092211Y-81543543D01*
X122092213Y-81543548D01*
X122092214Y-81543555D01*
X122146958Y-81712042D01*
X122146959Y-81712043D01*
X122146963Y-81712052D01*
X122223162Y-81861601D01*
X122227386Y-81869890D01*
X122331517Y-82013214D01*
X122456786Y-82138483D01*
X122478653Y-82154370D01*
X122600110Y-82242614D01*
X122766675Y-82327484D01*
X122765431Y-82329923D01*
X122831312Y-82373959D01*
X122885275Y-82454749D01*
X122904214Y-82550040D01*
X122885245Y-82645325D01*
X122831255Y-82726098D01*
X122765433Y-82770078D01*
X122766675Y-82772516D01*
X122600110Y-82857385D01*
X122456789Y-82961514D01*
X122331514Y-83086789D01*
X122227385Y-83230110D01*
X122146963Y-83387947D01*
X122146958Y-83387956D01*
X122146958Y-83387958D01*
X122092214Y-83556445D01*
X122092213Y-83556448D01*
X122092213Y-83556450D01*
X122092211Y-83556456D01*
X122064500Y-83731411D01*
X122064500Y-83908588D01*
X122092211Y-84083543D01*
X122092213Y-84083549D01*
X122092214Y-84083555D01*
X122146958Y-84252042D01*
X122146959Y-84252043D01*
X122146963Y-84252052D01*
X122209774Y-84375326D01*
X122227386Y-84409890D01*
X122331517Y-84553214D01*
X122456786Y-84678483D01*
X122456789Y-84678485D01*
X122600110Y-84782614D01*
X122766675Y-84867484D01*
X122765431Y-84869923D01*
X122831312Y-84913959D01*
X122885275Y-84994749D01*
X122904214Y-85090040D01*
X122885245Y-85185325D01*
X122831255Y-85266098D01*
X122765433Y-85310078D01*
X122766675Y-85312516D01*
X122600110Y-85397385D01*
X122456789Y-85501514D01*
X122331514Y-85626789D01*
X122227385Y-85770110D01*
X122146963Y-85927947D01*
X122146958Y-85927956D01*
X122146958Y-85927958D01*
X122092214Y-86096445D01*
X122092213Y-86096448D01*
X122092213Y-86096450D01*
X122092211Y-86096456D01*
X122064500Y-86271411D01*
X122064500Y-86448588D01*
X122092211Y-86623543D01*
X122092213Y-86623549D01*
X122092214Y-86623555D01*
X122128087Y-86733963D01*
X122139505Y-86830442D01*
X122113133Y-86923949D01*
X122067343Y-86986973D01*
X121560572Y-87493744D01*
X121560570Y-87493748D01*
X121479788Y-87547724D01*
X121384500Y-87566678D01*
X121289212Y-87547724D01*
X121208430Y-87493748D01*
X121154454Y-87412966D01*
X121135500Y-87317678D01*
X121135500Y-86991695D01*
X121154454Y-86896407D01*
X121208430Y-86815625D01*
X121235284Y-86792357D01*
X121242192Y-86787185D01*
X121328352Y-86672090D01*
X121378596Y-86537378D01*
X121378598Y-86537371D01*
X121384999Y-86477832D01*
X121385000Y-86477825D01*
X121385000Y-86380001D01*
X121384999Y-86380000D01*
X118835001Y-86380000D01*
X118835000Y-86380001D01*
X118835000Y-86477832D01*
X118841401Y-86537371D01*
X118841403Y-86537378D01*
X118891647Y-86672090D01*
X118977807Y-86787185D01*
X118984716Y-86792357D01*
X118996680Y-86805676D01*
X119011570Y-86815625D01*
X119028853Y-86841491D01*
X119049641Y-86864633D01*
X119055598Y-86881519D01*
X119065546Y-86896407D01*
X119071614Y-86926916D01*
X119081965Y-86956254D01*
X119084500Y-86991695D01*
X119084500Y-87057414D01*
X119065546Y-87152702D01*
X119011570Y-87233484D01*
X119011566Y-87233486D01*
X118210531Y-88034522D01*
X118210527Y-88034527D01*
X118176397Y-88093642D01*
X118176398Y-88093643D01*
X118164385Y-88114449D01*
X118140500Y-88203591D01*
X118140500Y-95601500D01*
X118121546Y-95696788D01*
X118067570Y-95777570D01*
X117986788Y-95831546D01*
X117891500Y-95850500D01*
X117852001Y-95850500D01*
X117852000Y-95850501D01*
X117852000Y-96537000D01*
X117833046Y-96632288D01*
X117779070Y-96713070D01*
X117698288Y-96767046D01*
X117603000Y-96786000D01*
X117602000Y-96786000D01*
X117602000Y-96787000D01*
X117583046Y-96882288D01*
X117529070Y-96963070D01*
X117448288Y-97017046D01*
X117353000Y-97036000D01*
X114966001Y-97036000D01*
X114966000Y-97036001D01*
X114966000Y-97269332D01*
X114972401Y-97328871D01*
X114972403Y-97328878D01*
X115022646Y-97463587D01*
X115108810Y-97578687D01*
X115108815Y-97578692D01*
X115118855Y-97586208D01*
X115183778Y-97658486D01*
X115216100Y-97750107D01*
X115214408Y-97813425D01*
X115216699Y-97813651D01*
X115215500Y-97825825D01*
X115215500Y-98746176D01*
X115230033Y-98819239D01*
X115285397Y-98902099D01*
X115285399Y-98902101D01*
X115368260Y-98957466D01*
X115375073Y-98958821D01*
X115464833Y-98995998D01*
X115533533Y-99064696D01*
X115570715Y-99154455D01*
X115575500Y-99203037D01*
X115575500Y-103252365D01*
X115575500Y-103452835D01*
X115601090Y-103548338D01*
X115621637Y-103583926D01*
X115646214Y-103626496D01*
X115650523Y-103633959D01*
X115650524Y-103633960D01*
X115650526Y-103633963D01*
X117407572Y-105391009D01*
X117461546Y-105471788D01*
X117480500Y-105567076D01*
X117480500Y-110387035D01*
X117493294Y-110434783D01*
X117493294Y-110434786D01*
X117493295Y-110434786D01*
X117506089Y-110482537D01*
X117506090Y-110482538D01*
X117555525Y-110568162D01*
X117555526Y-110568163D01*
X117961925Y-110974562D01*
X118031838Y-111044475D01*
X118117462Y-111093910D01*
X118165213Y-111106705D01*
X118212964Y-111119500D01*
X118212965Y-111119500D01*
X132471500Y-111119500D01*
X132566788Y-111138454D01*
X132647570Y-111192430D01*
X132701546Y-111273212D01*
X132720500Y-111368500D01*
X132720500Y-111666633D01*
X132701546Y-111761921D01*
X132647570Y-111842703D01*
X132566788Y-111896679D01*
X132537430Y-111906745D01*
X132536213Y-111907079D01*
X132535065Y-111907395D01*
X132525870Y-111910107D01*
X132525046Y-111910366D01*
X132516015Y-111913400D01*
X132385777Y-111959867D01*
X132379204Y-111962313D01*
X132378654Y-111962527D01*
X132378472Y-111962586D01*
X132377702Y-111962873D01*
X132377690Y-111962841D01*
X132368239Y-111965928D01*
X132362213Y-111968424D01*
X132225286Y-112047478D01*
X132113478Y-112159286D01*
X132034424Y-112296212D01*
X132033542Y-112298342D01*
X132033205Y-112299483D01*
X132027535Y-112316982D01*
X132025878Y-112319754D01*
X131979387Y-112450059D01*
X131976370Y-112459036D01*
X131976116Y-112459841D01*
X131973390Y-112469084D01*
X131946356Y-112567556D01*
X131944613Y-112572937D01*
X131944497Y-112573143D01*
X131943922Y-112575038D01*
X131934550Y-112603113D01*
X131913931Y-112648893D01*
X131911733Y-112652695D01*
X131883318Y-112692310D01*
X131825832Y-112757816D01*
X131819221Y-112766879D01*
X131818004Y-112765991D01*
X131793182Y-112797778D01*
X130783893Y-113807069D01*
X130703111Y-113861046D01*
X130607823Y-113880000D01*
X130046323Y-113880000D01*
X129973260Y-113894533D01*
X129890400Y-113949897D01*
X129890397Y-113949900D01*
X129835033Y-114032760D01*
X129820500Y-114105823D01*
X129820500Y-115026175D01*
X129821699Y-115038349D01*
X129818852Y-115038629D01*
X129818845Y-115115058D01*
X129781657Y-115204814D01*
X129723861Y-115265787D01*
X129713815Y-115273307D01*
X129713810Y-115273312D01*
X129627646Y-115388412D01*
X129577403Y-115523121D01*
X129577401Y-115523128D01*
X129571000Y-115582667D01*
X129571000Y-115815999D01*
X129571001Y-115816000D01*
X130307000Y-115816000D01*
X130402288Y-115834954D01*
X130483070Y-115888930D01*
X130537046Y-115969712D01*
X130556000Y-116065000D01*
X130556000Y-116067000D01*
X130537046Y-116162288D01*
X130483070Y-116243070D01*
X130402288Y-116297046D01*
X130307000Y-116316000D01*
X129571001Y-116316000D01*
X129571000Y-116316001D01*
X129571000Y-116549332D01*
X129577401Y-116608871D01*
X129577403Y-116608878D01*
X129627646Y-116743587D01*
X129713810Y-116858687D01*
X129713815Y-116858692D01*
X129730088Y-116870874D01*
X129795011Y-116943152D01*
X129827333Y-117034773D01*
X129825083Y-117118784D01*
X129820500Y-117141825D01*
X129820500Y-118062175D01*
X129821699Y-118074349D01*
X129818852Y-118074629D01*
X129818845Y-118151058D01*
X129781657Y-118240814D01*
X129723861Y-118301787D01*
X129713815Y-118309307D01*
X129713810Y-118309312D01*
X129627646Y-118424412D01*
X129577403Y-118559121D01*
X129577401Y-118559128D01*
X129571000Y-118618667D01*
X129571000Y-118851999D01*
X129571001Y-118852000D01*
X131540999Y-118852000D01*
X131541000Y-118851999D01*
X131541000Y-118683104D01*
X131559954Y-118587816D01*
X131613930Y-118507034D01*
X131694712Y-118453058D01*
X131790000Y-118434104D01*
X131877016Y-118449803D01*
X131967621Y-118483596D01*
X131967628Y-118483598D01*
X132027167Y-118489999D01*
X132027175Y-118490000D01*
X132622825Y-118490000D01*
X132622832Y-118489999D01*
X132682371Y-118483598D01*
X132682378Y-118483596D01*
X132817088Y-118433353D01*
X132889199Y-118379370D01*
X132976839Y-118337439D01*
X133073855Y-118332237D01*
X133165476Y-118364558D01*
X133237755Y-118429480D01*
X133268469Y-118483418D01*
X133273386Y-118495289D01*
X133319527Y-118575208D01*
X133319528Y-118575209D01*
X133319530Y-118575212D01*
X135524788Y-120780470D01*
X135524790Y-120780471D01*
X135524791Y-120780472D01*
X135604709Y-120826613D01*
X135604711Y-120826613D01*
X135604712Y-120826614D01*
X135693856Y-120850500D01*
X138014777Y-120850500D01*
X138103921Y-120826614D01*
X138183845Y-120780470D01*
X140963806Y-118000509D01*
X171049500Y-118000509D01*
X171049500Y-118219490D01*
X171077754Y-118434104D01*
X171078083Y-118436598D01*
X171083359Y-118456287D01*
X171134757Y-118648113D01*
X171192297Y-118787024D01*
X171218560Y-118850428D01*
X171310168Y-119009099D01*
X171328051Y-119040072D01*
X171328055Y-119040079D01*
X171461352Y-119213795D01*
X171616204Y-119368647D01*
X171789920Y-119501944D01*
X171789924Y-119501946D01*
X171789929Y-119501950D01*
X171979572Y-119611440D01*
X172181883Y-119695241D01*
X172181884Y-119695241D01*
X172181886Y-119695242D01*
X172214609Y-119704009D01*
X172393402Y-119751917D01*
X172556233Y-119773354D01*
X172610509Y-119780500D01*
X172610510Y-119780500D01*
X172829491Y-119780500D01*
X172865674Y-119775736D01*
X173046598Y-119751917D01*
X173258117Y-119695241D01*
X173460428Y-119611440D01*
X173650071Y-119501950D01*
X173650079Y-119501944D01*
X173823795Y-119368647D01*
X173823795Y-119368646D01*
X173823800Y-119368643D01*
X173978643Y-119213800D01*
X174082080Y-119078999D01*
X174111944Y-119040079D01*
X174111944Y-119040078D01*
X174111950Y-119040071D01*
X174221440Y-118850428D01*
X174305241Y-118648117D01*
X174361917Y-118436598D01*
X174390500Y-118219490D01*
X174390500Y-118000510D01*
X174361917Y-117783402D01*
X174305241Y-117571883D01*
X174221440Y-117369572D01*
X174111950Y-117179929D01*
X174111946Y-117179924D01*
X174111944Y-117179920D01*
X173978647Y-117006204D01*
X173823795Y-116851352D01*
X173650079Y-116718055D01*
X173650072Y-116718051D01*
X173650073Y-116718051D01*
X173650071Y-116718050D01*
X173460428Y-116608560D01*
X173317441Y-116549332D01*
X173258113Y-116524757D01*
X173103268Y-116483267D01*
X173046598Y-116468083D01*
X173046595Y-116468082D01*
X173046594Y-116468082D01*
X172829491Y-116439500D01*
X172829490Y-116439500D01*
X172610510Y-116439500D01*
X172610509Y-116439500D01*
X172393406Y-116468082D01*
X172181886Y-116524757D01*
X171979571Y-116608560D01*
X171789927Y-116718051D01*
X171789920Y-116718055D01*
X171616204Y-116851352D01*
X171461352Y-117006204D01*
X171328055Y-117179920D01*
X171328051Y-117179927D01*
X171218560Y-117369571D01*
X171134757Y-117571886D01*
X171078082Y-117783406D01*
X171049500Y-118000509D01*
X140963806Y-118000509D01*
X150359663Y-108604651D01*
X150440442Y-108550678D01*
X150535730Y-108531724D01*
X150631018Y-108550678D01*
X150711800Y-108604654D01*
X150751369Y-108656222D01*
X150776480Y-108699716D01*
X150888284Y-108811520D01*
X151025216Y-108890577D01*
X151177943Y-108931500D01*
X151336057Y-108931500D01*
X151488784Y-108890577D01*
X151625716Y-108811520D01*
X151737520Y-108699716D01*
X151816577Y-108562784D01*
X151816578Y-108562779D01*
X151816746Y-108562374D01*
X151822960Y-108541000D01*
X151826340Y-108535142D01*
X151871390Y-108402214D01*
X151875516Y-108388845D01*
X151875861Y-108387608D01*
X151879267Y-108373953D01*
X151902586Y-108268132D01*
X151910614Y-108236744D01*
X151952590Y-108149125D01*
X151962111Y-108137200D01*
X151991758Y-108102326D01*
X152067913Y-108042007D01*
X152161360Y-108015421D01*
X152257868Y-108026619D01*
X152342744Y-108073896D01*
X152397106Y-108139108D01*
X152427476Y-108191711D01*
X152427478Y-108191713D01*
X152427480Y-108191716D01*
X152539284Y-108303520D01*
X152676216Y-108382577D01*
X152828943Y-108423500D01*
X152899777Y-108423500D01*
X152926510Y-108428109D01*
X153068407Y-108424473D01*
X153075955Y-108424168D01*
X153076661Y-108424129D01*
X153084527Y-108423573D01*
X153193238Y-108414195D01*
X153197364Y-108413805D01*
X153197744Y-108413766D01*
X153201933Y-108413301D01*
X153291835Y-108402573D01*
X153381809Y-108394811D01*
X153396773Y-108393975D01*
X153524342Y-108390708D01*
X153524349Y-108390706D01*
X153536089Y-108389284D01*
X153536140Y-108389711D01*
X153575067Y-108385500D01*
X169485500Y-108385500D01*
X169580788Y-108404454D01*
X169661570Y-108458430D01*
X169715546Y-108539212D01*
X169734500Y-108634500D01*
X169734500Y-108834676D01*
X169749033Y-108907739D01*
X169804397Y-108990599D01*
X169804399Y-108990601D01*
X169887260Y-109045966D01*
X169960324Y-109060499D01*
X169960325Y-109060500D01*
X169960326Y-109060500D01*
X171009675Y-109060500D01*
X171009675Y-109060499D01*
X171082740Y-109045966D01*
X171165601Y-108990601D01*
X171220966Y-108907740D01*
X171235500Y-108834674D01*
X171235500Y-107235326D01*
X171220966Y-107162260D01*
X171178681Y-107098975D01*
X171165602Y-107079400D01*
X171165599Y-107079397D01*
X171107051Y-107040278D01*
X171082740Y-107024034D01*
X171082739Y-107024033D01*
X171035920Y-107014720D01*
X170946161Y-106977539D01*
X170877462Y-106908840D01*
X170840284Y-106819080D01*
X170835500Y-106770505D01*
X170835500Y-104049494D01*
X170854454Y-103954206D01*
X170908430Y-103873424D01*
X170989212Y-103819448D01*
X171035916Y-103805279D01*
X171082740Y-103795966D01*
X171165601Y-103740601D01*
X171220966Y-103657740D01*
X171235500Y-103584674D01*
X171235500Y-101985326D01*
X171220966Y-101912260D01*
X171165601Y-101829399D01*
X171165599Y-101829397D01*
X171132135Y-101807038D01*
X171063435Y-101738340D01*
X171026254Y-101648581D01*
X171026253Y-101551426D01*
X171063431Y-101461666D01*
X171132129Y-101392966D01*
X171132135Y-101392962D01*
X171154632Y-101377930D01*
X171165601Y-101370601D01*
X171220966Y-101287740D01*
X171235500Y-101214674D01*
X171235500Y-99615326D01*
X171220966Y-99542260D01*
X171165601Y-99459399D01*
X171165599Y-99459397D01*
X171110607Y-99422653D01*
X171082740Y-99404034D01*
X171082739Y-99404033D01*
X171035920Y-99394720D01*
X170946161Y-99357539D01*
X170877462Y-99288840D01*
X170840284Y-99199080D01*
X170835500Y-99150505D01*
X170835500Y-96429494D01*
X170854454Y-96334206D01*
X170908430Y-96253424D01*
X170989212Y-96199448D01*
X171035916Y-96185279D01*
X171082740Y-96175966D01*
X171165601Y-96120601D01*
X171220966Y-96037740D01*
X171235500Y-95964674D01*
X171235500Y-94604500D01*
X171254454Y-94509212D01*
X171308430Y-94428430D01*
X171389212Y-94374454D01*
X171484500Y-94355500D01*
X172685500Y-94355500D01*
X172780788Y-94374454D01*
X172861570Y-94428430D01*
X172915546Y-94509212D01*
X172934500Y-94604500D01*
X172934500Y-95964676D01*
X172949033Y-96037739D01*
X173004397Y-96120599D01*
X173004400Y-96120602D01*
X173019145Y-96130454D01*
X173087260Y-96175966D01*
X173109078Y-96180306D01*
X173198836Y-96217484D01*
X173267535Y-96286183D01*
X173304715Y-96375942D01*
X173309500Y-96424521D01*
X173309500Y-99155478D01*
X173290546Y-99250766D01*
X173236570Y-99331548D01*
X173155788Y-99385524D01*
X173109081Y-99399693D01*
X173087260Y-99404033D01*
X173004400Y-99459397D01*
X173004397Y-99459400D01*
X172949033Y-99542260D01*
X172934500Y-99615323D01*
X172934500Y-101214676D01*
X172949033Y-101287739D01*
X173004397Y-101370599D01*
X173004400Y-101370602D01*
X173037866Y-101392963D01*
X173106565Y-101461662D01*
X173143745Y-101551421D01*
X173143746Y-101648576D01*
X173106567Y-101738336D01*
X173037866Y-101807037D01*
X173004400Y-101829397D01*
X173004397Y-101829400D01*
X172949033Y-101912260D01*
X172934500Y-101985323D01*
X172934500Y-103584676D01*
X172949033Y-103657739D01*
X173004397Y-103740599D01*
X173004399Y-103740601D01*
X173087260Y-103795966D01*
X173109078Y-103800306D01*
X173198836Y-103837484D01*
X173267535Y-103906183D01*
X173304715Y-103995942D01*
X173309500Y-104044521D01*
X173309500Y-106775478D01*
X173290546Y-106870766D01*
X173236570Y-106951548D01*
X173155788Y-107005524D01*
X173109081Y-107019693D01*
X173087260Y-107024033D01*
X173004400Y-107079397D01*
X173004397Y-107079400D01*
X172949033Y-107162260D01*
X172934500Y-107235323D01*
X172934500Y-108834676D01*
X172949033Y-108907739D01*
X173004397Y-108990599D01*
X173004399Y-108990601D01*
X173087260Y-109045966D01*
X173160324Y-109060499D01*
X173160325Y-109060500D01*
X173160326Y-109060500D01*
X174209675Y-109060500D01*
X174209675Y-109060499D01*
X174282740Y-109045966D01*
X174365601Y-108990601D01*
X174420966Y-108907740D01*
X174435500Y-108834674D01*
X174435500Y-107235326D01*
X174420966Y-107162260D01*
X174378681Y-107098975D01*
X174365602Y-107079400D01*
X174365599Y-107079397D01*
X174307051Y-107040278D01*
X174282740Y-107024034D01*
X174282739Y-107024033D01*
X174260919Y-107019693D01*
X174171160Y-106982512D01*
X174102462Y-106913812D01*
X174065284Y-106824052D01*
X174060500Y-106775478D01*
X174060500Y-104044521D01*
X174079454Y-103949233D01*
X174133430Y-103868451D01*
X174214212Y-103814475D01*
X174260918Y-103800306D01*
X174282740Y-103795966D01*
X174365601Y-103740601D01*
X174420966Y-103657740D01*
X174435500Y-103584674D01*
X174435500Y-101985326D01*
X174420966Y-101912260D01*
X174365601Y-101829399D01*
X174365599Y-101829397D01*
X174332135Y-101807038D01*
X174263435Y-101738340D01*
X174226254Y-101648581D01*
X174226253Y-101551426D01*
X174263431Y-101461666D01*
X174332129Y-101392966D01*
X174332135Y-101392962D01*
X174354632Y-101377930D01*
X174365601Y-101370601D01*
X174420966Y-101287740D01*
X174435500Y-101214674D01*
X174435500Y-99615326D01*
X174420966Y-99542260D01*
X174365601Y-99459399D01*
X174365599Y-99459397D01*
X174310607Y-99422653D01*
X174282740Y-99404034D01*
X174282739Y-99404033D01*
X174260919Y-99399693D01*
X174171160Y-99362512D01*
X174102462Y-99293812D01*
X174065284Y-99204052D01*
X174060500Y-99155478D01*
X174060500Y-96424521D01*
X174079454Y-96329233D01*
X174133430Y-96248451D01*
X174214212Y-96194475D01*
X174260918Y-96180306D01*
X174282740Y-96175966D01*
X174365601Y-96120601D01*
X174420966Y-96037740D01*
X174435500Y-95964674D01*
X174435500Y-94365326D01*
X174420966Y-94292260D01*
X174393060Y-94250495D01*
X174365602Y-94209400D01*
X174365599Y-94209397D01*
X174332135Y-94187038D01*
X174263435Y-94118340D01*
X174226254Y-94028581D01*
X174226253Y-93931426D01*
X174263431Y-93841666D01*
X174332129Y-93772966D01*
X174332135Y-93772962D01*
X174349135Y-93761603D01*
X174365601Y-93750601D01*
X174420966Y-93667740D01*
X174435500Y-93594674D01*
X174435500Y-91995326D01*
X174420966Y-91922260D01*
X174396863Y-91886186D01*
X174365602Y-91839400D01*
X174365599Y-91839397D01*
X174298887Y-91794823D01*
X174282740Y-91784034D01*
X174282739Y-91784033D01*
X174260919Y-91779693D01*
X174171160Y-91742512D01*
X174102462Y-91673812D01*
X174065284Y-91584052D01*
X174060500Y-91535478D01*
X174060500Y-88804521D01*
X174079454Y-88709233D01*
X174133430Y-88628451D01*
X174214212Y-88574475D01*
X174260918Y-88560306D01*
X174282740Y-88555966D01*
X174365601Y-88500601D01*
X174420966Y-88417740D01*
X174435500Y-88344674D01*
X174435500Y-86745326D01*
X174420966Y-86672260D01*
X174365601Y-86589399D01*
X174365599Y-86589397D01*
X174332135Y-86567038D01*
X174263435Y-86498340D01*
X174226254Y-86408581D01*
X174226253Y-86311426D01*
X174263431Y-86221666D01*
X174332129Y-86152966D01*
X174332135Y-86152962D01*
X174355894Y-86137087D01*
X174365601Y-86130601D01*
X174420966Y-86047740D01*
X174435500Y-85974674D01*
X174435500Y-84375326D01*
X174420966Y-84302260D01*
X174365601Y-84219399D01*
X174365599Y-84219397D01*
X174292848Y-84170788D01*
X174282740Y-84164034D01*
X174282739Y-84164033D01*
X174260919Y-84159693D01*
X174171160Y-84122512D01*
X174102462Y-84053812D01*
X174065284Y-83964052D01*
X174060500Y-83915478D01*
X174060500Y-81184521D01*
X174079454Y-81089233D01*
X174133430Y-81008451D01*
X174214212Y-80954475D01*
X174260918Y-80940306D01*
X174282740Y-80935966D01*
X174365601Y-80880601D01*
X174420966Y-80797740D01*
X174435500Y-80724674D01*
X174435500Y-79125326D01*
X174420966Y-79052260D01*
X174388415Y-79003543D01*
X174365602Y-78969400D01*
X174365599Y-78969397D01*
X174292417Y-78920500D01*
X174282740Y-78914034D01*
X174282739Y-78914033D01*
X174209676Y-78899500D01*
X174209674Y-78899500D01*
X173160326Y-78899500D01*
X173160323Y-78899500D01*
X173087260Y-78914033D01*
X173004400Y-78969397D01*
X173004397Y-78969400D01*
X172949033Y-79052260D01*
X172934500Y-79125323D01*
X172934500Y-80724676D01*
X172949033Y-80797739D01*
X173004397Y-80880599D01*
X173004399Y-80880601D01*
X173087260Y-80935966D01*
X173109078Y-80940306D01*
X173198836Y-80977484D01*
X173267535Y-81046183D01*
X173304715Y-81135942D01*
X173309500Y-81184521D01*
X173309500Y-83915478D01*
X173290546Y-84010766D01*
X173236570Y-84091548D01*
X173155788Y-84145524D01*
X173109081Y-84159693D01*
X173087260Y-84164033D01*
X173004400Y-84219397D01*
X173004397Y-84219400D01*
X172949033Y-84302260D01*
X172934500Y-84375323D01*
X172934500Y-85974676D01*
X172949033Y-86047739D01*
X173004397Y-86130599D01*
X173004400Y-86130602D01*
X173037866Y-86152963D01*
X173106565Y-86221662D01*
X173143745Y-86311421D01*
X173143746Y-86408576D01*
X173106567Y-86498336D01*
X173037866Y-86567037D01*
X173004400Y-86589397D01*
X173004397Y-86589400D01*
X172949033Y-86672260D01*
X172934500Y-86745323D01*
X172934500Y-88344676D01*
X172949033Y-88417739D01*
X173004397Y-88500599D01*
X173004400Y-88500602D01*
X173039350Y-88523954D01*
X173087260Y-88555966D01*
X173109078Y-88560306D01*
X173198836Y-88597484D01*
X173267535Y-88666183D01*
X173304715Y-88755942D01*
X173309500Y-88804521D01*
X173309500Y-91535478D01*
X173290546Y-91630766D01*
X173236570Y-91711548D01*
X173155788Y-91765524D01*
X173109081Y-91779693D01*
X173087260Y-91784033D01*
X173004400Y-91839397D01*
X173004397Y-91839400D01*
X172949034Y-91922260D01*
X172949033Y-91922260D01*
X172934500Y-91995323D01*
X172934500Y-93355500D01*
X172915546Y-93450788D01*
X172861570Y-93531570D01*
X172780788Y-93585546D01*
X172685500Y-93604500D01*
X171484500Y-93604500D01*
X171389212Y-93585546D01*
X171308430Y-93531570D01*
X171254454Y-93450788D01*
X171235500Y-93355500D01*
X171235500Y-91995325D01*
X171235499Y-91995323D01*
X171235030Y-91992966D01*
X171220966Y-91922260D01*
X171196863Y-91886186D01*
X171165602Y-91839400D01*
X171165599Y-91839397D01*
X171098887Y-91794823D01*
X171082740Y-91784034D01*
X171082739Y-91784033D01*
X171035920Y-91774720D01*
X170946161Y-91737539D01*
X170877462Y-91668840D01*
X170840284Y-91579080D01*
X170835500Y-91530505D01*
X170835500Y-88809494D01*
X170854454Y-88714206D01*
X170908430Y-88633424D01*
X170989212Y-88579448D01*
X171035916Y-88565279D01*
X171082740Y-88555966D01*
X171165601Y-88500601D01*
X171220966Y-88417740D01*
X171235500Y-88344674D01*
X171235500Y-88111119D01*
X171254454Y-88015831D01*
X171308430Y-87935049D01*
X171379178Y-87885491D01*
X171398958Y-87876257D01*
X171416288Y-87871614D01*
X171438077Y-87859034D01*
X171496212Y-87825470D01*
X172365470Y-86956212D01*
X172411614Y-86876288D01*
X172435500Y-86787144D01*
X172435500Y-77957256D01*
X172432744Y-77946972D01*
X172411614Y-77868113D01*
X172411614Y-77868112D01*
X172391939Y-77834034D01*
X172365470Y-77788188D01*
X169397791Y-74820509D01*
X171049500Y-74820509D01*
X171049500Y-75039490D01*
X171078082Y-75256593D01*
X171134757Y-75468113D01*
X171197258Y-75619001D01*
X171218560Y-75670428D01*
X171326146Y-75856774D01*
X171328051Y-75860072D01*
X171328055Y-75860079D01*
X171461352Y-76033795D01*
X171616204Y-76188647D01*
X171789920Y-76321944D01*
X171789924Y-76321946D01*
X171789929Y-76321950D01*
X171979572Y-76431440D01*
X172181883Y-76515241D01*
X172181884Y-76515241D01*
X172181886Y-76515242D01*
X172199644Y-76520000D01*
X172393402Y-76571917D01*
X172556233Y-76593354D01*
X172610509Y-76600500D01*
X172610510Y-76600500D01*
X172829491Y-76600500D01*
X172865674Y-76595736D01*
X173046598Y-76571917D01*
X173258117Y-76515241D01*
X173460428Y-76431440D01*
X173650071Y-76321950D01*
X173693565Y-76288576D01*
X173823795Y-76188647D01*
X173823795Y-76188646D01*
X173823800Y-76188643D01*
X173978643Y-76033800D01*
X173988028Y-76021570D01*
X174111944Y-75860079D01*
X174111944Y-75860078D01*
X174111950Y-75860071D01*
X174221440Y-75670428D01*
X174305241Y-75468117D01*
X174361917Y-75256598D01*
X174390500Y-75039490D01*
X174390500Y-74820510D01*
X174387818Y-74800142D01*
X174379287Y-74735337D01*
X174361917Y-74603402D01*
X174305241Y-74391883D01*
X174221440Y-74189572D01*
X174111950Y-73999929D01*
X174111946Y-73999924D01*
X174111944Y-73999920D01*
X173978647Y-73826204D01*
X173823795Y-73671352D01*
X173650079Y-73538055D01*
X173650072Y-73538051D01*
X173650073Y-73538051D01*
X173650071Y-73538050D01*
X173460428Y-73428560D01*
X173258113Y-73344757D01*
X173103268Y-73303267D01*
X173046598Y-73288083D01*
X173046595Y-73288082D01*
X173046594Y-73288082D01*
X172829491Y-73259500D01*
X172829490Y-73259500D01*
X172610510Y-73259500D01*
X172610509Y-73259500D01*
X172393406Y-73288082D01*
X172181886Y-73344757D01*
X171979571Y-73428560D01*
X171789927Y-73538051D01*
X171789920Y-73538055D01*
X171616204Y-73671352D01*
X171461352Y-73826204D01*
X171328055Y-73999920D01*
X171328051Y-73999927D01*
X171218560Y-74189571D01*
X171134757Y-74391886D01*
X171078082Y-74603406D01*
X171049500Y-74820509D01*
X169397791Y-74820509D01*
X166522852Y-71945570D01*
X166468876Y-71864788D01*
X166449922Y-71769500D01*
X166468876Y-71674212D01*
X166522852Y-71593430D01*
X166603634Y-71539454D01*
X166698922Y-71520500D01*
X172662417Y-71520500D01*
X172713889Y-71520500D01*
X172726106Y-71520799D01*
X173041982Y-71536318D01*
X173066275Y-71538710D01*
X173373074Y-71584220D01*
X173397009Y-71588981D01*
X173697878Y-71664344D01*
X173721236Y-71671430D01*
X174013238Y-71775911D01*
X174035808Y-71785259D01*
X174175993Y-71851561D01*
X174316181Y-71917865D01*
X174337703Y-71929368D01*
X174603749Y-72088829D01*
X174624022Y-72102376D01*
X174873140Y-72287135D01*
X174892021Y-72302630D01*
X175121826Y-72510912D01*
X175139087Y-72528173D01*
X175282522Y-72686430D01*
X175347369Y-72757978D01*
X175362865Y-72776861D01*
X175547620Y-73025972D01*
X175561172Y-73046255D01*
X175720627Y-73312289D01*
X175732136Y-73333821D01*
X175864740Y-73614191D01*
X175874090Y-73636765D01*
X175978565Y-73928751D01*
X175985659Y-73952135D01*
X176061015Y-74252975D01*
X176065782Y-74276941D01*
X176111287Y-74583712D01*
X176113682Y-74608030D01*
X176129200Y-74923893D01*
X176129500Y-74936111D01*
X176129500Y-118103888D01*
X176129200Y-118116106D01*
X176113682Y-118431969D01*
X176111287Y-118456287D01*
X176065782Y-118763058D01*
X176061015Y-118787024D01*
X175985659Y-119087864D01*
X175978565Y-119111248D01*
X175874090Y-119403234D01*
X175864740Y-119425808D01*
X175732136Y-119706178D01*
X175720622Y-119727718D01*
X175561178Y-119993734D01*
X175547613Y-120014036D01*
X175530212Y-120037500D01*
X175362869Y-120263134D01*
X175347369Y-120282021D01*
X175139097Y-120511816D01*
X175121816Y-120529097D01*
X174892021Y-120737369D01*
X174873134Y-120752869D01*
X174835916Y-120780472D01*
X174624036Y-120937613D01*
X174603734Y-120951178D01*
X174337718Y-121110622D01*
X174316178Y-121122136D01*
X174035808Y-121254740D01*
X174013234Y-121264090D01*
X173721248Y-121368565D01*
X173697864Y-121375659D01*
X173397024Y-121451015D01*
X173373058Y-121455782D01*
X173066287Y-121501287D01*
X173041969Y-121503682D01*
X172726107Y-121519200D01*
X172713889Y-121519500D01*
X116846111Y-121519500D01*
X116833893Y-121519200D01*
X116518030Y-121503682D01*
X116493712Y-121501287D01*
X116186941Y-121455782D01*
X116162975Y-121451015D01*
X115862135Y-121375659D01*
X115838751Y-121368565D01*
X115546765Y-121264090D01*
X115524191Y-121254740D01*
X115243821Y-121122136D01*
X115222289Y-121110627D01*
X114956255Y-120951172D01*
X114935972Y-120937620D01*
X114686861Y-120752865D01*
X114667978Y-120737369D01*
X114605137Y-120680414D01*
X114438173Y-120529087D01*
X114420912Y-120511826D01*
X114212630Y-120282021D01*
X114197135Y-120263140D01*
X114012376Y-120014022D01*
X113998829Y-119993749D01*
X113839368Y-119727703D01*
X113827863Y-119706178D01*
X113695259Y-119425808D01*
X113685909Y-119403234D01*
X113581430Y-119111236D01*
X113574344Y-119087878D01*
X113498981Y-118787009D01*
X113494220Y-118763074D01*
X113448710Y-118456275D01*
X113446318Y-118431982D01*
X113430800Y-118116106D01*
X113430500Y-118103888D01*
X113430500Y-118000509D01*
X115169500Y-118000509D01*
X115169500Y-118219490D01*
X115197754Y-118434104D01*
X115198083Y-118436598D01*
X115203359Y-118456287D01*
X115254757Y-118648113D01*
X115312297Y-118787024D01*
X115338560Y-118850428D01*
X115430168Y-119009099D01*
X115448051Y-119040072D01*
X115448055Y-119040079D01*
X115581352Y-119213795D01*
X115736204Y-119368647D01*
X115909920Y-119501944D01*
X115909924Y-119501946D01*
X115909929Y-119501950D01*
X116099572Y-119611440D01*
X116301883Y-119695241D01*
X116301884Y-119695241D01*
X116301886Y-119695242D01*
X116334609Y-119704009D01*
X116513402Y-119751917D01*
X116676233Y-119773354D01*
X116730509Y-119780500D01*
X116730510Y-119780500D01*
X116949491Y-119780500D01*
X116985674Y-119775736D01*
X117166598Y-119751917D01*
X117378117Y-119695241D01*
X117580428Y-119611440D01*
X117770071Y-119501950D01*
X117770079Y-119501944D01*
X117943795Y-119368647D01*
X117943795Y-119368646D01*
X117943800Y-119368643D01*
X117960442Y-119352001D01*
X129571000Y-119352001D01*
X129571000Y-119585332D01*
X129577401Y-119644871D01*
X129577403Y-119644878D01*
X129627646Y-119779587D01*
X129713810Y-119894687D01*
X129713812Y-119894689D01*
X129828912Y-119980853D01*
X129963621Y-120031096D01*
X129963628Y-120031098D01*
X130023167Y-120037499D01*
X130023175Y-120037500D01*
X130305999Y-120037500D01*
X130306000Y-120037499D01*
X130306000Y-119352001D01*
X130806000Y-119352001D01*
X130806000Y-120037499D01*
X130806001Y-120037500D01*
X131088825Y-120037500D01*
X131088832Y-120037499D01*
X131148371Y-120031098D01*
X131148378Y-120031096D01*
X131283087Y-119980853D01*
X131398187Y-119894689D01*
X131398189Y-119894687D01*
X131484353Y-119779587D01*
X131534596Y-119644878D01*
X131534598Y-119644871D01*
X131540999Y-119585332D01*
X131541000Y-119585325D01*
X131541000Y-119352001D01*
X131540999Y-119352000D01*
X130806001Y-119352000D01*
X130806000Y-119352001D01*
X130306000Y-119352001D01*
X130305999Y-119352000D01*
X129571001Y-119352000D01*
X129571000Y-119352001D01*
X117960442Y-119352001D01*
X118098643Y-119213800D01*
X118231950Y-119040071D01*
X118341440Y-118850428D01*
X118425241Y-118648117D01*
X118481917Y-118436598D01*
X118510500Y-118219490D01*
X118510500Y-118000510D01*
X118481917Y-117783402D01*
X118425241Y-117571883D01*
X118341440Y-117369572D01*
X118231950Y-117179929D01*
X118231946Y-117179924D01*
X118231944Y-117179920D01*
X118098647Y-117006204D01*
X117943795Y-116851352D01*
X117770079Y-116718055D01*
X117770072Y-116718051D01*
X117770073Y-116718051D01*
X117770071Y-116718050D01*
X117580428Y-116608560D01*
X117437441Y-116549332D01*
X117378113Y-116524757D01*
X117223268Y-116483267D01*
X117166598Y-116468083D01*
X117166595Y-116468082D01*
X117166594Y-116468082D01*
X116949491Y-116439500D01*
X116949490Y-116439500D01*
X116730510Y-116439500D01*
X116730509Y-116439500D01*
X116513406Y-116468082D01*
X116301886Y-116524757D01*
X116099571Y-116608560D01*
X115909927Y-116718051D01*
X115909920Y-116718055D01*
X115736204Y-116851352D01*
X115581352Y-117006204D01*
X115448055Y-117179920D01*
X115448051Y-117179927D01*
X115338560Y-117369571D01*
X115254757Y-117571886D01*
X115198082Y-117783406D01*
X115169500Y-118000509D01*
X113430500Y-118000509D01*
X113430500Y-113505001D01*
X114898000Y-113505001D01*
X114898000Y-114002832D01*
X114904401Y-114062371D01*
X114904403Y-114062378D01*
X114954646Y-114197087D01*
X115040810Y-114312187D01*
X115040812Y-114312189D01*
X115155912Y-114398353D01*
X115290621Y-114448596D01*
X115290628Y-114448598D01*
X115350167Y-114454999D01*
X115350175Y-114455000D01*
X116097999Y-114455000D01*
X116098000Y-114454999D01*
X116098000Y-113505001D01*
X116598000Y-113505001D01*
X116598000Y-114454999D01*
X116598001Y-114455000D01*
X117345825Y-114455000D01*
X117345832Y-114454999D01*
X117405371Y-114448598D01*
X117405378Y-114448596D01*
X117540087Y-114398353D01*
X117655187Y-114312189D01*
X117655189Y-114312187D01*
X117741353Y-114197087D01*
X117791596Y-114062378D01*
X117791598Y-114062371D01*
X117797999Y-114002832D01*
X117798000Y-114002825D01*
X117798000Y-113505001D01*
X117797999Y-113505000D01*
X116598001Y-113505000D01*
X116598000Y-113505001D01*
X116098000Y-113505001D01*
X116097999Y-113505000D01*
X114898001Y-113505000D01*
X114898000Y-113505001D01*
X113430500Y-113505001D01*
X113430500Y-112507167D01*
X114898000Y-112507167D01*
X114898000Y-113004999D01*
X114898001Y-113005000D01*
X116097999Y-113005000D01*
X116098000Y-113004999D01*
X116098000Y-112055001D01*
X116598000Y-112055001D01*
X116598000Y-113004999D01*
X116598001Y-113005000D01*
X117797999Y-113005000D01*
X117798000Y-113004999D01*
X117798000Y-112507175D01*
X117797999Y-112507167D01*
X117791598Y-112447628D01*
X117791596Y-112447621D01*
X117741353Y-112312912D01*
X117655189Y-112197812D01*
X117655187Y-112197810D01*
X117540087Y-112111646D01*
X117405378Y-112061403D01*
X117405371Y-112061401D01*
X117345832Y-112055000D01*
X116598001Y-112055000D01*
X116598000Y-112055001D01*
X116098000Y-112055001D01*
X116097999Y-112055000D01*
X115350167Y-112055000D01*
X115290628Y-112061401D01*
X115290621Y-112061403D01*
X115155912Y-112111646D01*
X115040812Y-112197810D01*
X115040810Y-112197812D01*
X114954646Y-112312912D01*
X114904403Y-112447621D01*
X114904401Y-112447628D01*
X114898000Y-112507167D01*
X113430500Y-112507167D01*
X113430500Y-96302667D01*
X114966000Y-96302667D01*
X114966000Y-96535999D01*
X114966001Y-96536000D01*
X115700999Y-96536000D01*
X115701000Y-96535999D01*
X115701000Y-95850501D01*
X116201000Y-95850501D01*
X116201000Y-96535999D01*
X116201001Y-96536000D01*
X117352000Y-96536000D01*
X117352000Y-95850501D01*
X117351999Y-95850500D01*
X117069167Y-95850500D01*
X117009628Y-95856901D01*
X117009621Y-95856903D01*
X116863516Y-95911397D01*
X116767612Y-95926937D01*
X116689484Y-95911397D01*
X116543378Y-95856903D01*
X116543371Y-95856901D01*
X116483832Y-95850500D01*
X116201001Y-95850500D01*
X116201000Y-95850501D01*
X115701000Y-95850501D01*
X115700999Y-95850500D01*
X115418167Y-95850500D01*
X115358628Y-95856901D01*
X115358621Y-95856903D01*
X115223912Y-95907146D01*
X115108812Y-95993310D01*
X115108810Y-95993312D01*
X115022646Y-96108412D01*
X114972403Y-96243121D01*
X114972401Y-96243128D01*
X114966000Y-96302667D01*
X113430500Y-96302667D01*
X113430500Y-89805323D01*
X115084500Y-89805323D01*
X115084500Y-91054676D01*
X115099033Y-91127739D01*
X115154397Y-91210599D01*
X115154399Y-91210601D01*
X115237260Y-91265966D01*
X115310324Y-91280499D01*
X115310325Y-91280500D01*
X115310326Y-91280500D01*
X117159675Y-91280500D01*
X117159675Y-91280499D01*
X117232740Y-91265966D01*
X117315601Y-91210601D01*
X117370966Y-91127740D01*
X117385500Y-91054674D01*
X117385500Y-89805326D01*
X117370966Y-89732260D01*
X117324831Y-89663213D01*
X117315602Y-89649400D01*
X117315599Y-89649397D01*
X117250969Y-89606214D01*
X117232740Y-89594034D01*
X117232739Y-89594033D01*
X117159676Y-89579500D01*
X117159674Y-89579500D01*
X115310326Y-89579500D01*
X115310323Y-89579500D01*
X115237260Y-89594033D01*
X115154400Y-89649397D01*
X115154397Y-89649400D01*
X115099033Y-89732260D01*
X115084500Y-89805323D01*
X113430500Y-89805323D01*
X113430500Y-85782167D01*
X118835000Y-85782167D01*
X118835000Y-85879999D01*
X118835001Y-85880000D01*
X119859999Y-85880000D01*
X119860000Y-85879999D01*
X119860000Y-85330001D01*
X120360000Y-85330001D01*
X120360000Y-85879999D01*
X120360001Y-85880000D01*
X121384999Y-85880000D01*
X121385000Y-85879999D01*
X121385000Y-85782175D01*
X121384999Y-85782167D01*
X121378598Y-85722628D01*
X121378596Y-85722621D01*
X121328353Y-85587912D01*
X121242189Y-85472812D01*
X121242187Y-85472810D01*
X121127087Y-85386646D01*
X120992378Y-85336403D01*
X120992371Y-85336401D01*
X120932832Y-85330000D01*
X120360001Y-85330000D01*
X120360000Y-85330001D01*
X119860000Y-85330001D01*
X119859999Y-85330000D01*
X119287167Y-85330000D01*
X119227628Y-85336401D01*
X119227621Y-85336403D01*
X119092912Y-85386646D01*
X118977812Y-85472810D01*
X118977810Y-85472812D01*
X118891646Y-85587912D01*
X118841403Y-85722621D01*
X118841401Y-85722628D01*
X118835000Y-85782167D01*
X113430500Y-85782167D01*
X113430500Y-84205323D01*
X115084500Y-84205323D01*
X115084500Y-85454676D01*
X115099033Y-85527739D01*
X115154397Y-85610599D01*
X115154399Y-85610601D01*
X115237260Y-85665966D01*
X115310324Y-85680499D01*
X115310325Y-85680500D01*
X115310326Y-85680500D01*
X117159675Y-85680500D01*
X117159675Y-85680499D01*
X117232740Y-85665966D01*
X117315601Y-85610601D01*
X117370966Y-85527740D01*
X117385500Y-85454674D01*
X117385500Y-84205326D01*
X117370966Y-84132260D01*
X117361130Y-84117539D01*
X117315602Y-84049400D01*
X117315599Y-84049397D01*
X117246370Y-84003141D01*
X117232740Y-83994034D01*
X117232739Y-83994033D01*
X117159676Y-83979500D01*
X117159674Y-83979500D01*
X115310326Y-83979500D01*
X115310323Y-83979500D01*
X115237260Y-83994033D01*
X115154400Y-84049397D01*
X115154397Y-84049400D01*
X115099033Y-84132260D01*
X115084500Y-84205323D01*
X113430500Y-84205323D01*
X113430500Y-74936111D01*
X113430800Y-74923894D01*
X113433090Y-74877273D01*
X113435879Y-74820509D01*
X115169500Y-74820509D01*
X115169500Y-75039490D01*
X115198082Y-75256593D01*
X115254757Y-75468113D01*
X115317258Y-75619001D01*
X115338560Y-75670428D01*
X115446146Y-75856774D01*
X115448051Y-75860072D01*
X115448055Y-75860079D01*
X115581352Y-76033795D01*
X115736204Y-76188647D01*
X115909920Y-76321944D01*
X115909924Y-76321946D01*
X115909929Y-76321950D01*
X116099572Y-76431440D01*
X116301883Y-76515241D01*
X116301884Y-76515241D01*
X116301886Y-76515242D01*
X116319644Y-76520000D01*
X116513402Y-76571917D01*
X116676233Y-76593354D01*
X116730509Y-76600500D01*
X116730510Y-76600500D01*
X116949491Y-76600500D01*
X116985674Y-76595736D01*
X117166598Y-76571917D01*
X117378117Y-76515241D01*
X117580428Y-76431440D01*
X117770071Y-76321950D01*
X117813565Y-76288576D01*
X117943795Y-76188647D01*
X117943795Y-76188646D01*
X117943800Y-76188643D01*
X118098643Y-76033800D01*
X118108028Y-76021570D01*
X118231944Y-75860079D01*
X118231944Y-75860078D01*
X118231950Y-75860071D01*
X118341440Y-75670428D01*
X118425241Y-75468117D01*
X118481917Y-75256598D01*
X118510500Y-75039490D01*
X118510500Y-74820510D01*
X118507818Y-74800142D01*
X118499287Y-74735337D01*
X118481917Y-74603402D01*
X118425241Y-74391883D01*
X118341440Y-74189572D01*
X118231950Y-73999929D01*
X118231946Y-73999924D01*
X118231944Y-73999920D01*
X118098647Y-73826204D01*
X117943795Y-73671352D01*
X117770079Y-73538055D01*
X117770072Y-73538051D01*
X117770073Y-73538051D01*
X117770071Y-73538050D01*
X117580428Y-73428560D01*
X117378113Y-73344757D01*
X117223268Y-73303267D01*
X117166598Y-73288083D01*
X117166595Y-73288082D01*
X117166594Y-73288082D01*
X116949491Y-73259500D01*
X116949490Y-73259500D01*
X116730510Y-73259500D01*
X116730509Y-73259500D01*
X116513406Y-73288082D01*
X116301886Y-73344757D01*
X116099571Y-73428560D01*
X115909927Y-73538051D01*
X115909920Y-73538055D01*
X115736204Y-73671352D01*
X115581352Y-73826204D01*
X115448055Y-73999920D01*
X115448051Y-73999927D01*
X115338560Y-74189571D01*
X115254757Y-74391886D01*
X115198082Y-74603406D01*
X115169500Y-74820509D01*
X113435879Y-74820509D01*
X113446318Y-74608015D01*
X113448710Y-74583726D01*
X113494220Y-74276921D01*
X113498980Y-74252994D01*
X113574345Y-73952116D01*
X113581428Y-73928769D01*
X113685913Y-73636753D01*
X113695259Y-73614191D01*
X113716396Y-73569500D01*
X113827869Y-73333809D01*
X113839363Y-73312304D01*
X113998835Y-73046240D01*
X114012369Y-73025986D01*
X114197143Y-72776848D01*
X114212623Y-72757985D01*
X114420922Y-72528162D01*
X114438162Y-72510922D01*
X114667985Y-72302623D01*
X114686848Y-72287143D01*
X114935986Y-72102369D01*
X114956240Y-72088835D01*
X115222304Y-71929363D01*
X115243809Y-71917869D01*
X115524194Y-71785257D01*
X115546753Y-71775913D01*
X115838769Y-71671428D01*
X115862116Y-71664345D01*
X116162994Y-71588980D01*
X116186921Y-71584220D01*
X116493726Y-71538710D01*
X116518015Y-71536318D01*
X116833893Y-71520799D01*
X116846111Y-71520500D01*
X116897583Y-71520500D01*
X124232678Y-71520500D01*
X124327966Y-71539454D01*
G37*
%TD.AperFunction*%
%TA.AperFunction,Conductor*%
G36*
X134847966Y-95619454D02*
G01*
X134928748Y-95673430D01*
X148053748Y-108798430D01*
X148107724Y-108879212D01*
X148126678Y-108974500D01*
X148107724Y-109069788D01*
X148053748Y-109150570D01*
X138995570Y-118208748D01*
X138914788Y-118262724D01*
X138819500Y-118281678D01*
X138724212Y-118262724D01*
X138643430Y-118208748D01*
X138589454Y-118127966D01*
X138576248Y-118085869D01*
X138570500Y-118059582D01*
X138570500Y-117874826D01*
X138555966Y-117801760D01*
X138500601Y-117718899D01*
X138495216Y-117715301D01*
X138483709Y-117662674D01*
X138483663Y-117660275D01*
X138482745Y-117658058D01*
X138482745Y-117611780D01*
X138481870Y-117565537D01*
X138482745Y-117563303D01*
X138482746Y-117560903D01*
X138500465Y-117518125D01*
X138517344Y-117475090D01*
X138519006Y-117473363D01*
X138519924Y-117471148D01*
X138537081Y-117445470D01*
X138565966Y-117402240D01*
X138580500Y-117329174D01*
X138580500Y-116350826D01*
X138565966Y-116277760D01*
X138524924Y-116216335D01*
X138487745Y-116126575D01*
X138487746Y-116029420D01*
X138524924Y-115939665D01*
X138558823Y-115888930D01*
X138565966Y-115878240D01*
X138580500Y-115805174D01*
X138580500Y-114826826D01*
X138565966Y-114753760D01*
X138510601Y-114670899D01*
X138510599Y-114670897D01*
X138455607Y-114634153D01*
X138427740Y-114615534D01*
X138427739Y-114615533D01*
X138354676Y-114601000D01*
X138354674Y-114601000D01*
X137839178Y-114601000D01*
X137743890Y-114582046D01*
X137663108Y-114528070D01*
X135356563Y-112221526D01*
X135356561Y-112221524D01*
X135315486Y-112197810D01*
X135270938Y-112172090D01*
X135267615Y-112171199D01*
X135234460Y-112162315D01*
X135234454Y-112162314D01*
X135217902Y-112157879D01*
X135175436Y-112146500D01*
X135175435Y-112146500D01*
X135107951Y-112146500D01*
X135092568Y-112144577D01*
X135090153Y-112143774D01*
X135082981Y-112143188D01*
X135071689Y-112141327D01*
X134984708Y-112135657D01*
X134936610Y-112127739D01*
X134932368Y-112126605D01*
X134885407Y-112108810D01*
X134858932Y-112095586D01*
X134847024Y-112089229D01*
X134763176Y-112041503D01*
X134754792Y-112036938D01*
X134753998Y-112036524D01*
X134745506Y-112032302D01*
X134742420Y-112030839D01*
X134620474Y-111973027D01*
X134615220Y-111970609D01*
X134614714Y-111970383D01*
X134614662Y-111970360D01*
X134613315Y-111969759D01*
X134613365Y-111969646D01*
X134604646Y-111965266D01*
X134597779Y-111962421D01*
X134445060Y-111921500D01*
X134445057Y-111921500D01*
X134286943Y-111921500D01*
X134286939Y-111921500D01*
X134263940Y-111927662D01*
X134166993Y-111934014D01*
X134074995Y-111902782D01*
X134001951Y-111838722D01*
X133958983Y-111751585D01*
X133950500Y-111687145D01*
X133950500Y-97471268D01*
X133953064Y-97458376D01*
X133951859Y-97445289D01*
X133962469Y-97411093D01*
X133969454Y-97375980D01*
X133976755Y-97365052D01*
X133980651Y-97352498D01*
X134003538Y-97324968D01*
X134023430Y-97295198D01*
X134034360Y-97287894D01*
X134042762Y-97277789D01*
X134071519Y-97263065D01*
X134104212Y-97241222D01*
X134128734Y-97232536D01*
X134131419Y-97231739D01*
X134173163Y-97220390D01*
X134188584Y-97215670D01*
X134189980Y-97215194D01*
X134200111Y-97211377D01*
X134208707Y-97208830D01*
X134209794Y-97208729D01*
X134215027Y-97207047D01*
X134216784Y-97206577D01*
X134353716Y-97127520D01*
X134465520Y-97015716D01*
X134544577Y-96878784D01*
X134585500Y-96726057D01*
X134585500Y-96567943D01*
X134583822Y-96561682D01*
X134544577Y-96415216D01*
X134465521Y-96278286D01*
X134465520Y-96278284D01*
X134353716Y-96166480D01*
X134353713Y-96166478D01*
X134353711Y-96166476D01*
X134343425Y-96158583D01*
X134339572Y-96156820D01*
X134314986Y-96130370D01*
X134287829Y-96106554D01*
X134282156Y-96095051D01*
X134273426Y-96085659D01*
X134260830Y-96051806D01*
X134244859Y-96019418D01*
X134244020Y-96006623D01*
X134239548Y-95994603D01*
X134240866Y-95958508D01*
X134238504Y-95922471D01*
X134242625Y-95910328D01*
X134243094Y-95897512D01*
X134258123Y-95864674D01*
X134269733Y-95830472D01*
X134278190Y-95820828D01*
X134283526Y-95809170D01*
X134304099Y-95791285D01*
X134333792Y-95757427D01*
X134354687Y-95743024D01*
X134363799Y-95737405D01*
X134369082Y-95734797D01*
X134381464Y-95728256D01*
X134382583Y-95727625D01*
X134394636Y-95720383D01*
X134484153Y-95663194D01*
X134485791Y-95662185D01*
X134485957Y-95662123D01*
X134489481Y-95659953D01*
X134513816Y-95645530D01*
X134605449Y-95613254D01*
X134620635Y-95611551D01*
X134694881Y-95605536D01*
X134694889Y-95605534D01*
X134703637Y-95604043D01*
X134745492Y-95600500D01*
X134752678Y-95600500D01*
X134847966Y-95619454D01*
G37*
%TD.AperFunction*%
%TA.AperFunction,Conductor*%
G36*
X134944721Y-112956438D02*
G01*
X134986271Y-112959417D01*
X134992670Y-112962621D01*
X134999769Y-112963537D01*
X135035893Y-112984266D01*
X135073143Y-113002919D01*
X135081962Y-113010701D01*
X135084036Y-113011891D01*
X135085582Y-113013895D01*
X135096428Y-113023465D01*
X136248892Y-114175930D01*
X136302868Y-114256712D01*
X136321822Y-114352000D01*
X136302868Y-114447288D01*
X136248892Y-114528070D01*
X136168110Y-114582046D01*
X136072822Y-114601000D01*
X135975323Y-114601000D01*
X135902260Y-114615533D01*
X135819400Y-114670897D01*
X135819397Y-114670900D01*
X135764033Y-114753760D01*
X135749500Y-114826823D01*
X135749500Y-115511678D01*
X135730546Y-115606966D01*
X135676570Y-115687748D01*
X135550070Y-115814248D01*
X135469288Y-115868224D01*
X135374000Y-115887178D01*
X135278712Y-115868224D01*
X135197930Y-115814248D01*
X135143954Y-115733466D01*
X135127101Y-115648740D01*
X135125357Y-115648834D01*
X135124999Y-115642167D01*
X135118598Y-115582628D01*
X135118596Y-115582621D01*
X135068353Y-115447912D01*
X134982189Y-115332812D01*
X134982187Y-115332810D01*
X134867087Y-115246646D01*
X134732378Y-115196403D01*
X134732371Y-115196401D01*
X134672832Y-115190000D01*
X134199500Y-115190000D01*
X134104212Y-115171046D01*
X134023430Y-115117070D01*
X133969454Y-115036288D01*
X133950500Y-114941000D01*
X133950500Y-113356854D01*
X133969454Y-113261566D01*
X134023430Y-113180784D01*
X134104212Y-113126808D01*
X134199500Y-113107854D01*
X134263946Y-113116339D01*
X134286939Y-113122500D01*
X134286943Y-113122500D01*
X134445060Y-113122500D01*
X134521420Y-113102038D01*
X134597784Y-113081577D01*
X134597791Y-113081572D01*
X134600508Y-113080448D01*
X134603474Y-113078858D01*
X134618216Y-113071539D01*
X134620476Y-113070971D01*
X134745470Y-113011713D01*
X134754004Y-113007470D01*
X134754780Y-113007066D01*
X134763186Y-113002488D01*
X134803326Y-112979639D01*
X134809634Y-112976508D01*
X134849839Y-112965619D01*
X134889365Y-112952471D01*
X134896503Y-112952982D01*
X134903411Y-112951112D01*
X134944721Y-112956438D01*
G37*
%TD.AperFunction*%
%TA.AperFunction,Conductor*%
G36*
X132566788Y-98397275D02*
G01*
X132647570Y-98451251D01*
X132701546Y-98532033D01*
X132720500Y-98627321D01*
X132720500Y-110119500D01*
X132701546Y-110214788D01*
X132647570Y-110295570D01*
X132566788Y-110349546D01*
X132471500Y-110368500D01*
X118521077Y-110368500D01*
X118425789Y-110349546D01*
X118345007Y-110295570D01*
X118304430Y-110254993D01*
X118250454Y-110174211D01*
X118231500Y-110078923D01*
X118231500Y-109184435D01*
X118250454Y-109089147D01*
X118304430Y-109008365D01*
X118385212Y-108954389D01*
X118480500Y-108935435D01*
X118575788Y-108954389D01*
X118656570Y-109008365D01*
X118710546Y-109089147D01*
X118710546Y-109089148D01*
X118712033Y-109092738D01*
X118767397Y-109175599D01*
X118767399Y-109175601D01*
X118850260Y-109230966D01*
X118923324Y-109245499D01*
X118923325Y-109245500D01*
X118923326Y-109245500D01*
X120972675Y-109245500D01*
X120972675Y-109245499D01*
X121045740Y-109230966D01*
X121128601Y-109175601D01*
X121183966Y-109092740D01*
X121183966Y-109092739D01*
X121197589Y-109072351D01*
X121198725Y-109073110D01*
X121235261Y-109018431D01*
X121316042Y-108964454D01*
X121411330Y-108945500D01*
X121956144Y-108945500D01*
X122045288Y-108921614D01*
X122125212Y-108875470D01*
X125756470Y-105244212D01*
X125802614Y-105164288D01*
X125826500Y-105075143D01*
X125826500Y-104982856D01*
X125826500Y-100324322D01*
X125845454Y-100229034D01*
X125899430Y-100148252D01*
X126310252Y-99737430D01*
X126391034Y-99683454D01*
X126486322Y-99664500D01*
X128563144Y-99664500D01*
X128652288Y-99640614D01*
X128732212Y-99594470D01*
X129302252Y-99024430D01*
X129383034Y-98970454D01*
X129478322Y-98951500D01*
X129898500Y-98951500D01*
X129993788Y-98970454D01*
X130074570Y-99024430D01*
X130128546Y-99105212D01*
X130147500Y-99200500D01*
X130147500Y-100305500D01*
X130128546Y-100400788D01*
X130074570Y-100481570D01*
X129993788Y-100535546D01*
X129898500Y-100554500D01*
X129773323Y-100554500D01*
X129700260Y-100569033D01*
X129617400Y-100624397D01*
X129617397Y-100624400D01*
X129562033Y-100707260D01*
X129547500Y-100780323D01*
X129547500Y-102629676D01*
X129562033Y-102702739D01*
X129617397Y-102785599D01*
X129617399Y-102785601D01*
X129700260Y-102840966D01*
X129773324Y-102855499D01*
X129773325Y-102855500D01*
X129773326Y-102855500D01*
X129898500Y-102855500D01*
X129993788Y-102874454D01*
X130074570Y-102928430D01*
X130128546Y-103009212D01*
X130147500Y-103104500D01*
X130147500Y-106005500D01*
X130128546Y-106100788D01*
X130074570Y-106181570D01*
X129993788Y-106235546D01*
X129898500Y-106254500D01*
X129773323Y-106254500D01*
X129700260Y-106269033D01*
X129617400Y-106324397D01*
X129617397Y-106324400D01*
X129562033Y-106407260D01*
X129547500Y-106480323D01*
X129547500Y-108329676D01*
X129562033Y-108402739D01*
X129617397Y-108485599D01*
X129617399Y-108485601D01*
X129700260Y-108540966D01*
X129773324Y-108555499D01*
X129773325Y-108555500D01*
X129773326Y-108555500D01*
X131222675Y-108555500D01*
X131222675Y-108555499D01*
X131295740Y-108540966D01*
X131378601Y-108485601D01*
X131433966Y-108402740D01*
X131448500Y-108329674D01*
X131448500Y-106480326D01*
X131433966Y-106407260D01*
X131378602Y-106324400D01*
X131378599Y-106324397D01*
X131323607Y-106287653D01*
X131295740Y-106269034D01*
X131295739Y-106269033D01*
X131222676Y-106254500D01*
X131222674Y-106254500D01*
X131097500Y-106254500D01*
X131002212Y-106235546D01*
X130921430Y-106181570D01*
X130867454Y-106100788D01*
X130848500Y-106005500D01*
X130848500Y-103104500D01*
X130867454Y-103009212D01*
X130921430Y-102928430D01*
X131002212Y-102874454D01*
X131097500Y-102855500D01*
X131222675Y-102855500D01*
X131222675Y-102855499D01*
X131295740Y-102840966D01*
X131378601Y-102785601D01*
X131433966Y-102702740D01*
X131448500Y-102629674D01*
X131448500Y-100780326D01*
X131433966Y-100707260D01*
X131378601Y-100624399D01*
X131378599Y-100624397D01*
X131323607Y-100587653D01*
X131295740Y-100569034D01*
X131295739Y-100569033D01*
X131222676Y-100554500D01*
X131222674Y-100554500D01*
X131097500Y-100554500D01*
X131002212Y-100535546D01*
X130921430Y-100481570D01*
X130867454Y-100400788D01*
X130848500Y-100305500D01*
X130848500Y-99232322D01*
X130867454Y-99137034D01*
X130921430Y-99056252D01*
X130953252Y-99024430D01*
X131034034Y-98970454D01*
X131129322Y-98951500D01*
X131680175Y-98951500D01*
X131680175Y-98951499D01*
X131753240Y-98936966D01*
X131836101Y-98881601D01*
X131891466Y-98798740D01*
X131891466Y-98798736D01*
X131900852Y-98776081D01*
X131901728Y-98776444D01*
X131904317Y-98764865D01*
X131916736Y-98747193D01*
X131924999Y-98727238D01*
X131944400Y-98707830D01*
X131960181Y-98685377D01*
X131975387Y-98676834D01*
X131993688Y-98658529D01*
X132042212Y-98633318D01*
X132054675Y-98628496D01*
X132095288Y-98617614D01*
X132103948Y-98612614D01*
X132175212Y-98571470D01*
X132295433Y-98451248D01*
X132376212Y-98397275D01*
X132471500Y-98378321D01*
X132566788Y-98397275D01*
G37*
%TD.AperFunction*%
%TA.AperFunction,Conductor*%
G36*
X137768966Y-95365454D02*
G01*
X137849748Y-95419430D01*
X149007903Y-106577585D01*
X149024261Y-106595628D01*
X149036274Y-106610256D01*
X149039824Y-106616629D01*
X149089421Y-106674973D01*
X149090765Y-106676609D01*
X149112700Y-106717615D01*
X149135327Y-106758239D01*
X149136378Y-106761879D01*
X149136591Y-106762277D01*
X149136641Y-106762792D01*
X149139573Y-106772942D01*
X149146568Y-106800294D01*
X149148497Y-106808397D01*
X149167084Y-106892738D01*
X149170928Y-106910177D01*
X149174306Y-106923728D01*
X149174650Y-106924961D01*
X149178802Y-106938419D01*
X149223842Y-107071314D01*
X149226612Y-107079073D01*
X149227537Y-107081537D01*
X149227449Y-107081569D01*
X149231500Y-107093874D01*
X149233613Y-107098975D01*
X149312666Y-107235901D01*
X149312668Y-107235903D01*
X149312670Y-107235906D01*
X149424474Y-107347710D01*
X149424476Y-107347711D01*
X149424478Y-107347713D01*
X149437424Y-107357647D01*
X149435800Y-107359762D01*
X149490443Y-107407677D01*
X149533419Y-107494810D01*
X149539779Y-107591756D01*
X149508555Y-107683757D01*
X149468977Y-107735339D01*
X148901570Y-108302747D01*
X148820788Y-108356724D01*
X148725500Y-108375678D01*
X148630212Y-108356724D01*
X148549431Y-108302748D01*
X148549430Y-108302748D01*
X136195482Y-95948800D01*
X136141506Y-95868018D01*
X136122552Y-95772730D01*
X136141506Y-95677442D01*
X136195482Y-95596660D01*
X136251380Y-95554648D01*
X136270172Y-95544292D01*
X136275232Y-95542935D01*
X136401082Y-95480797D01*
X136413464Y-95474256D01*
X136414583Y-95473625D01*
X136426636Y-95466383D01*
X136517950Y-95408047D01*
X136545816Y-95391530D01*
X136637449Y-95359254D01*
X136652635Y-95357551D01*
X136726881Y-95351536D01*
X136726889Y-95351534D01*
X136735637Y-95350043D01*
X136777492Y-95346500D01*
X137673678Y-95346500D01*
X137768966Y-95365454D01*
G37*
%TD.AperFunction*%
%TA.AperFunction,Conductor*%
G36*
X169580788Y-95534454D02*
G01*
X169661570Y-95588430D01*
X169715546Y-95669212D01*
X169734500Y-95764500D01*
X169734500Y-95964676D01*
X169749033Y-96037739D01*
X169804397Y-96120599D01*
X169804400Y-96120602D01*
X169819145Y-96130454D01*
X169887260Y-96175966D01*
X169934080Y-96185279D01*
X170023837Y-96222458D01*
X170092536Y-96291157D01*
X170129715Y-96380916D01*
X170134500Y-96429494D01*
X170134500Y-99150505D01*
X170115546Y-99245793D01*
X170061570Y-99326575D01*
X169980788Y-99380551D01*
X169934080Y-99394720D01*
X169887260Y-99404033D01*
X169804400Y-99459397D01*
X169804397Y-99459400D01*
X169749033Y-99542260D01*
X169734500Y-99615323D01*
X169734500Y-101214676D01*
X169749033Y-101287739D01*
X169804397Y-101370599D01*
X169804400Y-101370602D01*
X169837866Y-101392963D01*
X169906565Y-101461662D01*
X169943745Y-101551421D01*
X169943746Y-101648576D01*
X169906567Y-101738336D01*
X169837866Y-101807037D01*
X169804400Y-101829397D01*
X169804397Y-101829400D01*
X169749033Y-101912260D01*
X169734500Y-101985323D01*
X169734500Y-103584676D01*
X169749033Y-103657739D01*
X169804397Y-103740599D01*
X169804399Y-103740601D01*
X169887260Y-103795966D01*
X169934080Y-103805279D01*
X170023837Y-103842458D01*
X170092536Y-103911157D01*
X170129715Y-104000916D01*
X170134500Y-104049494D01*
X170134500Y-106770505D01*
X170115546Y-106865793D01*
X170061570Y-106946575D01*
X169980788Y-107000551D01*
X169934080Y-107014720D01*
X169887260Y-107024033D01*
X169804400Y-107079397D01*
X169804397Y-107079400D01*
X169749033Y-107162260D01*
X169734500Y-107235323D01*
X169734500Y-107435500D01*
X169715546Y-107530788D01*
X169661570Y-107611570D01*
X169580788Y-107665546D01*
X169485500Y-107684500D01*
X153679045Y-107684500D01*
X153658461Y-107680405D01*
X153637485Y-107681007D01*
X153611270Y-107671018D01*
X153583757Y-107665546D01*
X153566308Y-107653887D01*
X153546697Y-107646415D01*
X153531161Y-107630403D01*
X153502975Y-107611570D01*
X153476058Y-107579713D01*
X153468414Y-107568954D01*
X153466309Y-107564965D01*
X153454805Y-107545340D01*
X153453671Y-107543589D01*
X153440406Y-107524986D01*
X153405466Y-107480351D01*
X153402129Y-107475654D01*
X153400831Y-107472758D01*
X153389478Y-107455943D01*
X153388520Y-107454284D01*
X153388518Y-107454282D01*
X153388517Y-107454280D01*
X153383272Y-107449035D01*
X153367384Y-107431095D01*
X153367182Y-107431264D01*
X153355035Y-107416666D01*
X153354108Y-107415618D01*
X153343726Y-107404555D01*
X153332994Y-107395439D01*
X153333237Y-107395152D01*
X153311568Y-107377331D01*
X153276717Y-107342480D01*
X153276714Y-107342479D01*
X153218241Y-107308719D01*
X153145197Y-107244660D01*
X153102226Y-107157524D01*
X153095872Y-107060577D01*
X153127102Y-106968578D01*
X153166668Y-106917013D01*
X164495252Y-95588430D01*
X164576034Y-95534454D01*
X164671322Y-95515500D01*
X169485500Y-95515500D01*
X169580788Y-95534454D01*
G37*
%TD.AperFunction*%
%TA.AperFunction,Conductor*%
G36*
X150322612Y-85094454D02*
G01*
X150403390Y-85148427D01*
X151040437Y-85785475D01*
X151040438Y-85785476D01*
X151040440Y-85785477D01*
X151126060Y-85834910D01*
X151126062Y-85834910D01*
X151126063Y-85834911D01*
X151221564Y-85860500D01*
X151221565Y-85860500D01*
X151478382Y-85860500D01*
X151573670Y-85879454D01*
X151654452Y-85933430D01*
X151684260Y-85969446D01*
X151699297Y-85991550D01*
X151699534Y-85992740D01*
X151754899Y-86075601D01*
X151757787Y-86077531D01*
X151773036Y-86099946D01*
X151783008Y-86123467D01*
X151797204Y-86144712D01*
X151801788Y-86167759D01*
X151810961Y-86189393D01*
X151811173Y-86214941D01*
X151816158Y-86240000D01*
X151811573Y-86263047D01*
X151811769Y-86286545D01*
X151802188Y-86310229D01*
X151797204Y-86335288D01*
X151784147Y-86354827D01*
X151775337Y-86376610D01*
X151768246Y-86383819D01*
X151768525Y-86384005D01*
X151699536Y-86487256D01*
X151698074Y-86490787D01*
X151644098Y-86571569D01*
X151563317Y-86625545D01*
X151468028Y-86644500D01*
X151403853Y-86644500D01*
X151314712Y-86668385D01*
X151234786Y-86714532D01*
X150849526Y-87099792D01*
X150815914Y-87158010D01*
X150815915Y-87158011D01*
X150803386Y-87179711D01*
X150779500Y-87268855D01*
X150779500Y-91472822D01*
X150760546Y-91568110D01*
X150706570Y-91648892D01*
X150643546Y-91694682D01*
X150540106Y-91747388D01*
X150396789Y-91851514D01*
X150271514Y-91976789D01*
X150167385Y-92120110D01*
X150086963Y-92277947D01*
X150086958Y-92277956D01*
X150086958Y-92277958D01*
X150032214Y-92446445D01*
X150032213Y-92446448D01*
X150032213Y-92446450D01*
X150032211Y-92446456D01*
X150004500Y-92621411D01*
X150004500Y-92798588D01*
X150032211Y-92973543D01*
X150032213Y-92973549D01*
X150032214Y-92973555D01*
X150086958Y-93142042D01*
X150086959Y-93142043D01*
X150086963Y-93142052D01*
X150151063Y-93267856D01*
X150167386Y-93299890D01*
X150271517Y-93443214D01*
X150396786Y-93568483D01*
X150540110Y-93672614D01*
X150697958Y-93753042D01*
X150866445Y-93807786D01*
X150866454Y-93807787D01*
X150866456Y-93807788D01*
X151041411Y-93835499D01*
X151041418Y-93835499D01*
X151041421Y-93835500D01*
X151041424Y-93835500D01*
X151218576Y-93835500D01*
X151218579Y-93835500D01*
X151218582Y-93835499D01*
X151218588Y-93835499D01*
X151393543Y-93807788D01*
X151393543Y-93807787D01*
X151393555Y-93807786D01*
X151562042Y-93753042D01*
X151719890Y-93672614D01*
X151863214Y-93568483D01*
X151988483Y-93443214D01*
X152092614Y-93299890D01*
X152173037Y-93142052D01*
X152177484Y-93133325D01*
X152179929Y-93134570D01*
X152223920Y-93068726D01*
X152304698Y-93014745D01*
X152399985Y-92995785D01*
X152495274Y-93014733D01*
X152576059Y-93068705D01*
X152620073Y-93134569D01*
X152622516Y-93133325D01*
X152691063Y-93267856D01*
X152707386Y-93299890D01*
X152811517Y-93443214D01*
X152936786Y-93568483D01*
X153080110Y-93672614D01*
X153237958Y-93753042D01*
X153406445Y-93807786D01*
X153406454Y-93807787D01*
X153406456Y-93807788D01*
X153581411Y-93835499D01*
X153581418Y-93835499D01*
X153581421Y-93835500D01*
X153581424Y-93835500D01*
X153758576Y-93835500D01*
X153758579Y-93835500D01*
X153758582Y-93835499D01*
X153758588Y-93835499D01*
X153933543Y-93807788D01*
X153933543Y-93807787D01*
X153933555Y-93807786D01*
X154102042Y-93753042D01*
X154259890Y-93672614D01*
X154403214Y-93568483D01*
X154528483Y-93443214D01*
X154632614Y-93299890D01*
X154713037Y-93142052D01*
X154717484Y-93133325D01*
X154719929Y-93134570D01*
X154763920Y-93068726D01*
X154844698Y-93014745D01*
X154939985Y-92995785D01*
X155035274Y-93014733D01*
X155116059Y-93068705D01*
X155160073Y-93134569D01*
X155162516Y-93133325D01*
X155231063Y-93267856D01*
X155247386Y-93299890D01*
X155351517Y-93443214D01*
X155476786Y-93568483D01*
X155488930Y-93577306D01*
X155620110Y-93672614D01*
X155723544Y-93725317D01*
X155799841Y-93785465D01*
X155847313Y-93870232D01*
X155859500Y-93947177D01*
X155859500Y-101241677D01*
X155840546Y-101336965D01*
X155786570Y-101417747D01*
X151745346Y-105458971D01*
X151664564Y-105512947D01*
X151569276Y-105531901D01*
X151473988Y-105512947D01*
X151423684Y-105484901D01*
X151391284Y-105461548D01*
X151385137Y-105450901D01*
X151273333Y-105339097D01*
X151136401Y-105260040D01*
X151116394Y-105254679D01*
X151108763Y-105250278D01*
X151088747Y-105243494D01*
X150975821Y-105205221D01*
X150962507Y-105201110D01*
X150961264Y-105200763D01*
X150947564Y-105197345D01*
X150845832Y-105174926D01*
X150837751Y-105173003D01*
X150810364Y-105165999D01*
X150722748Y-105124028D01*
X150710789Y-105114479D01*
X150654051Y-105066247D01*
X150646812Y-105061117D01*
X150614706Y-105034024D01*
X140675785Y-95095103D01*
X140659428Y-95077061D01*
X140647413Y-95062431D01*
X140643863Y-95056057D01*
X140594248Y-94997693D01*
X140592920Y-94996076D01*
X140570987Y-94955076D01*
X140548357Y-94914448D01*
X140547305Y-94910806D01*
X140547093Y-94910409D01*
X140547042Y-94909893D01*
X140544112Y-94899745D01*
X140544049Y-94899500D01*
X140537123Y-94872418D01*
X140535205Y-94864362D01*
X140512769Y-94762546D01*
X140509362Y-94748890D01*
X140509017Y-94747653D01*
X140504890Y-94734282D01*
X140459839Y-94601355D01*
X140457119Y-94593730D01*
X140456859Y-94593036D01*
X140456176Y-94591212D01*
X140456256Y-94591181D01*
X140452184Y-94578803D01*
X140450076Y-94573714D01*
X140407338Y-94499690D01*
X140371020Y-94436784D01*
X140259216Y-94324980D01*
X140259213Y-94324978D01*
X140248705Y-94314470D01*
X140194729Y-94233688D01*
X140175775Y-94138400D01*
X140194729Y-94043112D01*
X140248702Y-93962333D01*
X142150474Y-92060563D01*
X142150475Y-92060562D01*
X142199910Y-91974938D01*
X142214025Y-91922260D01*
X142225500Y-91879436D01*
X142225500Y-91780564D01*
X142225500Y-85324500D01*
X142244454Y-85229212D01*
X142298430Y-85148430D01*
X142379212Y-85094454D01*
X142474500Y-85075500D01*
X150227324Y-85075500D01*
X150322612Y-85094454D01*
G37*
%TD.AperFunction*%
%TA.AperFunction,Conductor*%
G36*
X122203303Y-98763953D02*
G01*
X122251572Y-98763953D01*
X122251947Y-98764108D01*
X122252354Y-98764110D01*
X122296786Y-98782680D01*
X122341333Y-98801131D01*
X122341620Y-98801418D01*
X122341995Y-98801575D01*
X122382748Y-98828993D01*
X122417899Y-98881601D01*
X122500760Y-98936966D01*
X122561061Y-98948960D01*
X122602495Y-98976837D01*
X122670975Y-99045754D01*
X122707869Y-99135632D01*
X122712500Y-99183432D01*
X122712500Y-102113677D01*
X122693546Y-102208965D01*
X122639570Y-102289747D01*
X121592228Y-103337089D01*
X121511446Y-103391065D01*
X121416158Y-103410019D01*
X121320870Y-103391065D01*
X121251928Y-103345000D01*
X118248001Y-103345000D01*
X118248000Y-103345001D01*
X118248000Y-103542832D01*
X118254401Y-103602371D01*
X118254403Y-103602378D01*
X118304646Y-103737087D01*
X118390810Y-103852187D01*
X118390812Y-103852189D01*
X118505912Y-103938353D01*
X118535512Y-103949393D01*
X118539356Y-103951767D01*
X118543788Y-103952649D01*
X118580555Y-103977216D01*
X118618170Y-104000450D01*
X118620812Y-104004114D01*
X118624570Y-104006625D01*
X118649137Y-104043393D01*
X118674996Y-104079252D01*
X118676035Y-104083649D01*
X118678546Y-104087407D01*
X118687173Y-104130778D01*
X118697341Y-104173803D01*
X118697500Y-104182695D01*
X118697500Y-104494374D01*
X118678546Y-104589662D01*
X118624570Y-104670444D01*
X118586837Y-104701410D01*
X118567401Y-104714396D01*
X118567397Y-104714400D01*
X118504301Y-104808834D01*
X118486959Y-104826175D01*
X118473333Y-104846570D01*
X118452941Y-104860194D01*
X118435603Y-104877534D01*
X118412943Y-104886920D01*
X118392551Y-104900546D01*
X118368500Y-104905329D01*
X118345844Y-104914715D01*
X118297263Y-104919500D01*
X118101278Y-104919500D01*
X118005990Y-104900546D01*
X117925208Y-104846570D01*
X116399430Y-103320792D01*
X116345454Y-103240010D01*
X116326500Y-103144722D01*
X116326500Y-101554000D01*
X116345454Y-101458712D01*
X116399430Y-101377930D01*
X116480212Y-101323954D01*
X116575500Y-101305000D01*
X117097999Y-101305000D01*
X117098000Y-101304999D01*
X117098000Y-100354000D01*
X117116954Y-100258712D01*
X117170930Y-100177930D01*
X117251712Y-100123954D01*
X117347000Y-100105000D01*
X117348000Y-100105000D01*
X117348000Y-100104000D01*
X117366954Y-100008712D01*
X117420930Y-99927930D01*
X117501712Y-99873954D01*
X117597000Y-99855000D01*
X118229000Y-99855000D01*
X118229000Y-100355000D01*
X117598000Y-100355000D01*
X117598000Y-101304999D01*
X117598001Y-101305000D01*
X118345825Y-101305000D01*
X118345832Y-101304999D01*
X118420863Y-101296933D01*
X118421256Y-101300590D01*
X118421873Y-101300568D01*
X118450643Y-101294936D01*
X118469969Y-101298840D01*
X118489670Y-101298133D01*
X118517137Y-101308370D01*
X118545874Y-101314177D01*
X118562233Y-101325179D01*
X118580707Y-101332065D01*
X118602168Y-101352037D01*
X118626492Y-101368396D01*
X118637394Y-101384818D01*
X118651829Y-101398252D01*
X118664013Y-101424917D01*
X118680226Y-101449339D01*
X118682618Y-101465631D01*
X118692208Y-101486619D01*
X118698893Y-101544684D01*
X118698836Y-101563609D01*
X118697500Y-101570326D01*
X118697500Y-102007720D01*
X118697499Y-102008053D01*
X118687954Y-102055290D01*
X118678546Y-102102592D01*
X118678333Y-102102909D01*
X118678258Y-102103284D01*
X118651443Y-102143154D01*
X118624570Y-102183374D01*
X118624250Y-102183587D01*
X118624039Y-102183902D01*
X118583934Y-102210525D01*
X118543788Y-102237350D01*
X118543146Y-102237602D01*
X118543096Y-102237636D01*
X118543026Y-102237649D01*
X118535516Y-102240605D01*
X118505912Y-102251646D01*
X118390812Y-102337810D01*
X118390810Y-102337812D01*
X118304646Y-102452912D01*
X118254403Y-102587621D01*
X118254401Y-102587628D01*
X118248000Y-102647167D01*
X118248000Y-102844999D01*
X118248001Y-102845000D01*
X121247999Y-102845000D01*
X121248000Y-102844999D01*
X121248000Y-102647175D01*
X121247999Y-102647167D01*
X121241598Y-102587628D01*
X121241595Y-102587617D01*
X121232906Y-102564319D01*
X121217365Y-102468415D01*
X121239708Y-102373864D01*
X121296533Y-102295060D01*
X121314627Y-102279755D01*
X121320205Y-102275473D01*
X121320212Y-102275470D01*
X121623470Y-101972212D01*
X121669614Y-101892288D01*
X121693500Y-101803144D01*
X121693500Y-101710856D01*
X121693500Y-99183432D01*
X121712454Y-99088144D01*
X121766430Y-99007362D01*
X121847212Y-98953386D01*
X121893923Y-98939216D01*
X121905240Y-98936966D01*
X121988101Y-98881601D01*
X121995961Y-98869836D01*
X121996248Y-98869549D01*
X121996405Y-98869175D01*
X122030625Y-98835171D01*
X122064659Y-98801137D01*
X122065033Y-98800982D01*
X122065322Y-98800695D01*
X122109861Y-98782411D01*
X122154417Y-98763955D01*
X122154824Y-98763954D01*
X122155200Y-98763801D01*
X122203303Y-98763953D01*
G37*
%TD.AperFunction*%
%TA.AperFunction,Conductor*%
G36*
X118810166Y-100280070D02*
G01*
X118772413Y-100311048D01*
X118769412Y-100313053D01*
X118679650Y-100350221D01*
X118631102Y-100355000D01*
X118591812Y-100355000D01*
X118745000Y-100203000D01*
X118861662Y-100203000D01*
X118810166Y-100280070D01*
G37*
%TD.AperFunction*%
%TA.AperFunction,Conductor*%
G36*
X119187788Y-100225546D02*
G01*
X119092500Y-100244500D01*
X119009639Y-100244500D01*
X118914351Y-100225546D01*
X118880608Y-100203000D01*
X119221531Y-100203000D01*
X119187788Y-100225546D01*
G37*
%TD.AperFunction*%
%TA.AperFunction,Conductor*%
G36*
X158866011Y-88938854D02*
G01*
X158946792Y-88992829D01*
X164234437Y-94280475D01*
X164234439Y-94280476D01*
X164234440Y-94280477D01*
X164320060Y-94329910D01*
X164320062Y-94329910D01*
X164320063Y-94329911D01*
X164355097Y-94339298D01*
X164384310Y-94353703D01*
X164415152Y-94364173D01*
X164427499Y-94375001D01*
X164442233Y-94382267D01*
X164463709Y-94406756D01*
X164488197Y-94428231D01*
X164495461Y-94442962D01*
X164506292Y-94455312D01*
X164516761Y-94486154D01*
X164531168Y-94515367D01*
X164532242Y-94531757D01*
X164537522Y-94547310D01*
X164535392Y-94579809D01*
X164537523Y-94612314D01*
X164532242Y-94627868D01*
X164531169Y-94644258D01*
X164516763Y-94673471D01*
X164506294Y-94704313D01*
X164495465Y-94716660D01*
X164488200Y-94731394D01*
X164463710Y-94752870D01*
X164442236Y-94777358D01*
X164427504Y-94784622D01*
X164415155Y-94795453D01*
X164355100Y-94820329D01*
X164333768Y-94826045D01*
X164333766Y-94826046D01*
X164287710Y-94838386D01*
X164207791Y-94884527D01*
X159525570Y-99566748D01*
X159444788Y-99620724D01*
X159349500Y-99639678D01*
X159254212Y-99620724D01*
X159173430Y-99566748D01*
X159119454Y-99485966D01*
X159100500Y-99390678D01*
X159100500Y-93947177D01*
X159119454Y-93851889D01*
X159173430Y-93771107D01*
X159236456Y-93725317D01*
X159285806Y-93700170D01*
X159339890Y-93672614D01*
X159483214Y-93568483D01*
X159608483Y-93443214D01*
X159712614Y-93299890D01*
X159793042Y-93142042D01*
X159847786Y-92973555D01*
X159847832Y-92973266D01*
X159875499Y-92798588D01*
X159875500Y-92798576D01*
X159875500Y-92621423D01*
X159875499Y-92621411D01*
X159847788Y-92446456D01*
X159847787Y-92446454D01*
X159847786Y-92446445D01*
X159793042Y-92277958D01*
X159712614Y-92120110D01*
X159608483Y-91976786D01*
X159483214Y-91851517D01*
X159471219Y-91842802D01*
X159339889Y-91747385D01*
X159182052Y-91666963D01*
X159182050Y-91666962D01*
X159182042Y-91666958D01*
X159013555Y-91612214D01*
X159013549Y-91612213D01*
X159013543Y-91612211D01*
X158838588Y-91584500D01*
X158838579Y-91584500D01*
X158661421Y-91584500D01*
X158661411Y-91584500D01*
X158486456Y-91612211D01*
X158486450Y-91612213D01*
X158486448Y-91612213D01*
X158486445Y-91612214D01*
X158317958Y-91666958D01*
X158317956Y-91666958D01*
X158317956Y-91666959D01*
X158317947Y-91666963D01*
X158160110Y-91747385D01*
X158016789Y-91851514D01*
X157891514Y-91976789D01*
X157787385Y-92120110D01*
X157702516Y-92286675D01*
X157700076Y-92285431D01*
X157656041Y-92351312D01*
X157575251Y-92405275D01*
X157479960Y-92424214D01*
X157384675Y-92405245D01*
X157303902Y-92351255D01*
X157259921Y-92285433D01*
X157257484Y-92286675D01*
X157172614Y-92120110D01*
X157129353Y-92060567D01*
X157068483Y-91976786D01*
X156943214Y-91851517D01*
X156931219Y-91842802D01*
X156799889Y-91747385D01*
X156642052Y-91666963D01*
X156642050Y-91666962D01*
X156642042Y-91666958D01*
X156473555Y-91612214D01*
X156473549Y-91612213D01*
X156473543Y-91612211D01*
X156298588Y-91584500D01*
X156298579Y-91584500D01*
X156121421Y-91584500D01*
X156121411Y-91584500D01*
X155946456Y-91612211D01*
X155946450Y-91612213D01*
X155946448Y-91612213D01*
X155946445Y-91612214D01*
X155777958Y-91666958D01*
X155777956Y-91666958D01*
X155777956Y-91666959D01*
X155777947Y-91666963D01*
X155620110Y-91747385D01*
X155476789Y-91851514D01*
X155351514Y-91976789D01*
X155247385Y-92120110D01*
X155162516Y-92286675D01*
X155160076Y-92285431D01*
X155116041Y-92351312D01*
X155035251Y-92405275D01*
X154939960Y-92424214D01*
X154844675Y-92405245D01*
X154763902Y-92351255D01*
X154719921Y-92285433D01*
X154717484Y-92286675D01*
X154632614Y-92120110D01*
X154589353Y-92060567D01*
X154528483Y-91976786D01*
X154403214Y-91851517D01*
X154391219Y-91842802D01*
X154259893Y-91747388D01*
X154259892Y-91747387D01*
X154259890Y-91747386D01*
X154206734Y-91720301D01*
X154156454Y-91694682D01*
X154080158Y-91634533D01*
X154032686Y-91549765D01*
X154020500Y-91472822D01*
X154020500Y-89376052D01*
X154039454Y-89280764D01*
X154093430Y-89199982D01*
X154174212Y-89146006D01*
X154269500Y-89127052D01*
X154364788Y-89146006D01*
X154364795Y-89146009D01*
X154376757Y-89150964D01*
X154376760Y-89150966D01*
X154376763Y-89150966D01*
X154376764Y-89150967D01*
X154388805Y-89153362D01*
X154449824Y-89165499D01*
X154449825Y-89165500D01*
X154449826Y-89165500D01*
X155428175Y-89165500D01*
X155428175Y-89165499D01*
X155501240Y-89150966D01*
X155584101Y-89095601D01*
X155627555Y-89030565D01*
X155696253Y-88961866D01*
X155786012Y-88924685D01*
X155834593Y-88919900D01*
X158770723Y-88919900D01*
X158866011Y-88938854D01*
G37*
%TD.AperFunction*%
%TA.AperFunction,Conductor*%
G36*
X119185788Y-91260276D02*
G01*
X119266570Y-91314252D01*
X122531713Y-94579395D01*
X122560250Y-94613560D01*
X122563633Y-94618438D01*
X122611862Y-94675172D01*
X122615636Y-94681949D01*
X122621411Y-94687131D01*
X122639155Y-94724173D01*
X122659137Y-94760049D01*
X122663383Y-94774752D01*
X122670378Y-94802104D01*
X122672307Y-94810207D01*
X122675798Y-94826046D01*
X122694477Y-94910806D01*
X122694738Y-94911987D01*
X122698116Y-94925538D01*
X122698460Y-94926771D01*
X122702612Y-94940228D01*
X122726672Y-95011218D01*
X122739307Y-95107548D01*
X122714116Y-95201380D01*
X122654934Y-95278430D01*
X122570772Y-95326966D01*
X122474442Y-95339601D01*
X122422149Y-95327397D01*
X122421547Y-95329647D01*
X122405784Y-95325423D01*
X122373064Y-95316655D01*
X122253060Y-95284500D01*
X122253057Y-95284500D01*
X122094943Y-95284500D01*
X121942216Y-95325422D01*
X121805286Y-95404478D01*
X121693478Y-95516286D01*
X121614422Y-95653216D01*
X121573500Y-95805942D01*
X121573500Y-95871500D01*
X121554546Y-95966788D01*
X121500570Y-96047570D01*
X121419788Y-96101546D01*
X121324500Y-96120500D01*
X120853823Y-96120500D01*
X120780760Y-96135033D01*
X120697900Y-96190397D01*
X120693570Y-96194728D01*
X120612788Y-96248704D01*
X120517500Y-96267658D01*
X120422212Y-96248704D01*
X120341430Y-96194728D01*
X120337099Y-96190397D01*
X120282107Y-96153653D01*
X120254240Y-96135034D01*
X120254239Y-96135033D01*
X120181176Y-96120500D01*
X120181174Y-96120500D01*
X119630322Y-96120500D01*
X119535034Y-96101546D01*
X119454252Y-96047570D01*
X118914430Y-95507748D01*
X118860454Y-95426966D01*
X118841500Y-95331678D01*
X118841500Y-91490322D01*
X118860454Y-91395034D01*
X118914430Y-91314252D01*
X118995212Y-91260276D01*
X119090500Y-91241322D01*
X119185788Y-91260276D01*
G37*
%TD.AperFunction*%
%TA.AperFunction,Conductor*%
G36*
X139901472Y-83292255D02*
G01*
X139947481Y-83328518D01*
X141401570Y-84782607D01*
X141455546Y-84863389D01*
X141474500Y-84958677D01*
X141474500Y-91571323D01*
X141455546Y-91666611D01*
X141401570Y-91747393D01*
X139425393Y-93723570D01*
X139344611Y-93777546D01*
X139249323Y-93796500D01*
X136866500Y-93796500D01*
X136771212Y-93777546D01*
X136690430Y-93723570D01*
X136636454Y-93642788D01*
X136617500Y-93547500D01*
X136617500Y-93392942D01*
X136576577Y-93240216D01*
X136570022Y-93228862D01*
X136497520Y-93103284D01*
X136385716Y-92991480D01*
X136378246Y-92987167D01*
X136248783Y-92912422D01*
X136096057Y-92871500D01*
X135937943Y-92871500D01*
X135937940Y-92871500D01*
X135785216Y-92912422D01*
X135784800Y-92912595D01*
X135765299Y-92923309D01*
X135758772Y-92925062D01*
X135632903Y-92987208D01*
X135620511Y-92993754D01*
X135619424Y-92994367D01*
X135607378Y-93001605D01*
X135516063Y-93059940D01*
X135509019Y-93064114D01*
X135508986Y-93064133D01*
X135488182Y-93076464D01*
X135396546Y-93108744D01*
X135381335Y-93110448D01*
X135307119Y-93116462D01*
X135298368Y-93117955D01*
X135256501Y-93121500D01*
X134110065Y-93121500D01*
X134085738Y-93120309D01*
X134066899Y-93118459D01*
X134059882Y-93116463D01*
X133983532Y-93110275D01*
X133981446Y-93110071D01*
X133936919Y-93096579D01*
X133892214Y-93083859D01*
X133888897Y-93082028D01*
X133888466Y-93081898D01*
X133888065Y-93081569D01*
X133878814Y-93076464D01*
X133863388Y-93067321D01*
X133854534Y-93062073D01*
X133847447Y-93057710D01*
X133759629Y-93001611D01*
X133747681Y-92994428D01*
X133746551Y-92993790D01*
X133734019Y-92987167D01*
X133658632Y-92925882D01*
X133612436Y-92840412D01*
X133602464Y-92743770D01*
X133630235Y-92650669D01*
X133691520Y-92575282D01*
X133706919Y-92564571D01*
X133718711Y-92555523D01*
X133718711Y-92555522D01*
X133718716Y-92555520D01*
X133830520Y-92443716D01*
X133909577Y-92306784D01*
X133950500Y-92154057D01*
X133950500Y-91995943D01*
X133950500Y-91995940D01*
X133909577Y-91843217D01*
X133909405Y-91842802D01*
X133898688Y-91823297D01*
X133896936Y-91816768D01*
X133834798Y-91690917D01*
X133828256Y-91678534D01*
X133827625Y-91677415D01*
X133820383Y-91665362D01*
X133762047Y-91574047D01*
X133745534Y-91546186D01*
X133713255Y-91454552D01*
X133711551Y-91439361D01*
X133705536Y-91365117D01*
X133705532Y-91365102D01*
X133704043Y-91356365D01*
X133700500Y-91314508D01*
X133700500Y-90926322D01*
X133719454Y-90831034D01*
X133773430Y-90750252D01*
X133930252Y-90593430D01*
X134011034Y-90539454D01*
X134106322Y-90520500D01*
X137228999Y-90520500D01*
X137324287Y-90539454D01*
X137405069Y-90593430D01*
X137459045Y-90674212D01*
X137477999Y-90769500D01*
X137459045Y-90864788D01*
X137450860Y-90882543D01*
X137386961Y-91007951D01*
X137386958Y-91007956D01*
X137386958Y-91007958D01*
X137332214Y-91176445D01*
X137332213Y-91176448D01*
X137332213Y-91176450D01*
X137332211Y-91176456D01*
X137304500Y-91351411D01*
X137304500Y-91528588D01*
X137332211Y-91703543D01*
X137332213Y-91703549D01*
X137332214Y-91703555D01*
X137386958Y-91872042D01*
X137386959Y-91872043D01*
X137386963Y-91872052D01*
X137467385Y-92029889D01*
X137543339Y-92134430D01*
X137571517Y-92173214D01*
X137696786Y-92298483D01*
X137840110Y-92402614D01*
X137997958Y-92483042D01*
X138166445Y-92537786D01*
X138166454Y-92537787D01*
X138166456Y-92537788D01*
X138341411Y-92565499D01*
X138341418Y-92565499D01*
X138341421Y-92565500D01*
X138341424Y-92565500D01*
X138518576Y-92565500D01*
X138518579Y-92565500D01*
X138518582Y-92565499D01*
X138518588Y-92565499D01*
X138693543Y-92537788D01*
X138693543Y-92537787D01*
X138693555Y-92537786D01*
X138862042Y-92483042D01*
X139019890Y-92402614D01*
X139163214Y-92298483D01*
X139288483Y-92173214D01*
X139392614Y-92029890D01*
X139473042Y-91872042D01*
X139527786Y-91703555D01*
X139532497Y-91673812D01*
X139555499Y-91528588D01*
X139555500Y-91528576D01*
X139555500Y-91351423D01*
X139555499Y-91351411D01*
X139527788Y-91176456D01*
X139527787Y-91176454D01*
X139527786Y-91176445D01*
X139473042Y-91007958D01*
X139392614Y-90850110D01*
X139288483Y-90706786D01*
X139268755Y-90687058D01*
X139214782Y-90606280D01*
X139195828Y-90510992D01*
X139214782Y-90415704D01*
X139268753Y-90334928D01*
X139940470Y-89663212D01*
X139986614Y-89583288D01*
X139987629Y-89579500D01*
X140010500Y-89494144D01*
X140010500Y-85003856D01*
X139986614Y-84914712D01*
X139963412Y-84874525D01*
X139940470Y-84834788D01*
X139784165Y-84678483D01*
X139552656Y-84446973D01*
X139498680Y-84366192D01*
X139479726Y-84270904D01*
X139491911Y-84193966D01*
X139527786Y-84083555D01*
X139529301Y-84073988D01*
X139555499Y-83908588D01*
X139555500Y-83908576D01*
X139555500Y-83731423D01*
X139555499Y-83731411D01*
X139526256Y-83546783D01*
X139528656Y-83546402D01*
X139525469Y-83465683D01*
X139559078Y-83374527D01*
X139625013Y-83303171D01*
X139713236Y-83262479D01*
X139810316Y-83258646D01*
X139901472Y-83292255D01*
G37*
%TD.AperFunction*%
%TA.AperFunction,Conductor*%
G36*
X164972366Y-72632454D02*
G01*
X165053148Y-72686430D01*
X170061570Y-77694852D01*
X170115546Y-77775634D01*
X170134500Y-77870922D01*
X170134500Y-78660505D01*
X170115546Y-78755793D01*
X170061570Y-78836575D01*
X169980788Y-78890551D01*
X169934080Y-78904720D01*
X169887260Y-78914033D01*
X169804400Y-78969397D01*
X169804397Y-78969400D01*
X169749033Y-79052260D01*
X169734500Y-79125323D01*
X169734500Y-80724676D01*
X169749033Y-80797739D01*
X169804397Y-80880599D01*
X169804399Y-80880601D01*
X169887260Y-80935966D01*
X169934080Y-80945279D01*
X170023837Y-80982458D01*
X170092536Y-81051157D01*
X170129715Y-81140916D01*
X170134500Y-81189494D01*
X170134500Y-83910505D01*
X170115546Y-84005793D01*
X170061570Y-84086575D01*
X169980788Y-84140551D01*
X169934080Y-84154720D01*
X169887260Y-84164033D01*
X169804400Y-84219397D01*
X169804397Y-84219400D01*
X169749033Y-84302260D01*
X169734500Y-84375323D01*
X169734500Y-85974676D01*
X169749033Y-86047739D01*
X169804397Y-86130599D01*
X169804400Y-86130602D01*
X169837866Y-86152963D01*
X169906565Y-86221662D01*
X169943745Y-86311421D01*
X169943746Y-86408576D01*
X169906567Y-86498336D01*
X169837866Y-86567037D01*
X169804400Y-86589397D01*
X169804397Y-86589400D01*
X169749033Y-86672260D01*
X169734500Y-86745323D01*
X169734500Y-88344676D01*
X169749033Y-88417739D01*
X169804397Y-88500599D01*
X169804400Y-88500602D01*
X169839350Y-88523954D01*
X169887260Y-88555966D01*
X169934080Y-88565279D01*
X170023837Y-88602458D01*
X170092536Y-88671157D01*
X170129715Y-88760916D01*
X170134500Y-88809494D01*
X170134500Y-91530505D01*
X170115546Y-91625793D01*
X170061570Y-91706575D01*
X169980788Y-91760551D01*
X169934080Y-91774720D01*
X169887260Y-91784033D01*
X169804400Y-91839397D01*
X169804397Y-91839400D01*
X169749034Y-91922260D01*
X169749033Y-91922260D01*
X169734500Y-91995323D01*
X169734500Y-93355500D01*
X169715546Y-93450788D01*
X169661570Y-93531570D01*
X169580788Y-93585546D01*
X169485500Y-93604500D01*
X164723678Y-93604500D01*
X164628390Y-93585546D01*
X164547608Y-93531570D01*
X159443467Y-88427430D01*
X159427590Y-88403669D01*
X159408065Y-88382815D01*
X159401538Y-88364678D01*
X159389491Y-88346648D01*
X159373856Y-88291882D01*
X159372507Y-88283703D01*
X159372446Y-88282242D01*
X159371821Y-88279547D01*
X159370519Y-88271650D01*
X159370812Y-88262725D01*
X159367200Y-88231128D01*
X159367200Y-87126153D01*
X159386154Y-87030865D01*
X159440130Y-86950083D01*
X159520912Y-86896107D01*
X159616200Y-86877153D01*
X159711488Y-86896107D01*
X159792266Y-86950080D01*
X162142686Y-89300500D01*
X162256814Y-89366392D01*
X162384108Y-89400500D01*
X166815892Y-89400500D01*
X166943186Y-89366392D01*
X167057314Y-89300500D01*
X168107311Y-88250501D01*
X168107314Y-88250500D01*
X168200500Y-88157314D01*
X168266392Y-88043186D01*
X168279070Y-87995871D01*
X168300500Y-87915893D01*
X168300500Y-87784108D01*
X168300500Y-83152108D01*
X168300500Y-83152106D01*
X168293929Y-83127585D01*
X168293928Y-83127582D01*
X168292040Y-83120536D01*
X168266392Y-83024814D01*
X168263660Y-83020082D01*
X168200500Y-82910686D01*
X168160355Y-82870541D01*
X168107314Y-82817499D01*
X168107314Y-82817500D01*
X166416400Y-81126586D01*
X166362424Y-81045804D01*
X166343470Y-80950516D01*
X166348255Y-80901935D01*
X166354500Y-80870541D01*
X166354500Y-80673459D01*
X166354499Y-80673454D01*
X166316052Y-80480169D01*
X166316051Y-80480167D01*
X166316051Y-80480165D01*
X166240632Y-80298086D01*
X166131139Y-80134218D01*
X165991782Y-79994861D01*
X165991778Y-79994858D01*
X165991776Y-79994856D01*
X165968099Y-79979036D01*
X165899400Y-79910338D01*
X165862220Y-79820578D01*
X165862219Y-79723423D01*
X165899399Y-79633664D01*
X165968097Y-79564965D01*
X165968099Y-79564964D01*
X165991776Y-79549143D01*
X165991775Y-79549143D01*
X165991782Y-79549139D01*
X166131139Y-79409782D01*
X166240632Y-79245914D01*
X166316051Y-79063835D01*
X166354500Y-78870541D01*
X166354500Y-78673459D01*
X166346208Y-78631774D01*
X166316052Y-78480169D01*
X166316051Y-78480167D01*
X166316051Y-78480165D01*
X166240632Y-78298086D01*
X166131139Y-78134218D01*
X165991782Y-77994861D01*
X165966458Y-77977940D01*
X165897759Y-77909241D01*
X165860579Y-77819481D01*
X165860579Y-77722327D01*
X165897759Y-77632567D01*
X165966458Y-77563868D01*
X166009509Y-77540857D01*
X166016659Y-77537895D01*
X166016666Y-77537894D01*
X166180547Y-77470013D01*
X166328035Y-77371464D01*
X166453464Y-77246035D01*
X166552013Y-77098547D01*
X166619894Y-76934666D01*
X166654500Y-76760691D01*
X166654500Y-76583309D01*
X166619894Y-76409334D01*
X166552013Y-76245453D01*
X166453464Y-76097965D01*
X166328035Y-75972536D01*
X166328031Y-75972533D01*
X166180549Y-75873988D01*
X166180547Y-75873987D01*
X166016666Y-75806106D01*
X166016661Y-75806105D01*
X166016659Y-75806104D01*
X165842695Y-75771500D01*
X165842691Y-75771500D01*
X164865309Y-75771500D01*
X164865304Y-75771500D01*
X164691340Y-75806104D01*
X164691336Y-75806105D01*
X164691334Y-75806106D01*
X164582080Y-75851360D01*
X164527450Y-75873988D01*
X164379968Y-75972533D01*
X164254533Y-76097968D01*
X164155988Y-76245450D01*
X164088104Y-76409340D01*
X164053500Y-76583304D01*
X164053500Y-76760695D01*
X164088104Y-76934659D01*
X164088105Y-76934661D01*
X164088106Y-76934666D01*
X164139392Y-77058483D01*
X164155988Y-77098549D01*
X164254533Y-77246031D01*
X164254536Y-77246035D01*
X164379965Y-77371464D01*
X164527453Y-77470013D01*
X164691334Y-77537894D01*
X164691338Y-77537894D01*
X164698490Y-77540857D01*
X164779272Y-77594833D01*
X164833249Y-77675614D01*
X164852204Y-77770902D01*
X164833251Y-77866190D01*
X164779275Y-77946972D01*
X164741544Y-77977938D01*
X164716221Y-77994858D01*
X164576858Y-78134221D01*
X164467369Y-78298084D01*
X164467365Y-78298091D01*
X164391949Y-78480164D01*
X164391947Y-78480169D01*
X164353500Y-78673454D01*
X164353500Y-78870545D01*
X164391947Y-79063830D01*
X164391949Y-79063835D01*
X164467365Y-79245908D01*
X164467366Y-79245911D01*
X164467368Y-79245914D01*
X164489676Y-79279300D01*
X164551940Y-79372486D01*
X164576861Y-79409782D01*
X164716218Y-79549139D01*
X164716224Y-79549143D01*
X164739903Y-79564965D01*
X164808601Y-79633665D01*
X164845780Y-79723425D01*
X164845779Y-79820580D01*
X164808599Y-79910339D01*
X164739903Y-79979035D01*
X164716220Y-79994859D01*
X164576858Y-80134221D01*
X164467369Y-80298084D01*
X164467365Y-80298091D01*
X164391949Y-80480164D01*
X164391947Y-80480169D01*
X164353500Y-80673454D01*
X164353500Y-80870545D01*
X164391947Y-81063830D01*
X164391949Y-81063835D01*
X164467365Y-81245908D01*
X164467369Y-81245915D01*
X164552677Y-81373589D01*
X164576861Y-81409782D01*
X164716218Y-81549139D01*
X164730989Y-81559009D01*
X164739903Y-81564965D01*
X164808601Y-81633665D01*
X164845780Y-81723425D01*
X164845779Y-81820580D01*
X164808599Y-81910339D01*
X164772357Y-81953193D01*
X164757208Y-81967472D01*
X164716218Y-81994861D01*
X164576861Y-82134218D01*
X164570994Y-82142997D01*
X164553495Y-82159493D01*
X164525552Y-82176992D01*
X164500073Y-82197902D01*
X164484738Y-82202553D01*
X164471155Y-82211060D01*
X164438648Y-82216533D01*
X164407101Y-82226102D01*
X164382702Y-82227300D01*
X163041384Y-82227300D01*
X162946096Y-82208346D01*
X162865314Y-82154370D01*
X162852639Y-82140708D01*
X162663555Y-81920961D01*
X162615772Y-81836369D01*
X162603300Y-81758553D01*
X162603300Y-79613907D01*
X162571526Y-79495326D01*
X162569192Y-79486614D01*
X162503300Y-79372486D01*
X162410114Y-79279300D01*
X162410111Y-79279298D01*
X161150314Y-78019500D01*
X161036186Y-77953608D01*
X161036183Y-77953607D01*
X161036181Y-77953606D01*
X160908892Y-77919500D01*
X159850842Y-77919500D01*
X159817823Y-77912932D01*
X159784254Y-77910431D01*
X159773389Y-77904093D01*
X159755554Y-77900546D01*
X159697505Y-77866686D01*
X159672380Y-77847049D01*
X159666601Y-77838399D01*
X159630163Y-77814052D01*
X159622866Y-77808349D01*
X159597090Y-77778423D01*
X159569169Y-77750503D01*
X159565581Y-77741841D01*
X159559461Y-77734736D01*
X159547099Y-77697225D01*
X159531988Y-77660744D01*
X159531987Y-77651368D01*
X159529053Y-77642462D01*
X159531987Y-77603079D01*
X159531987Y-77563589D01*
X159535575Y-77554925D01*
X159536272Y-77545575D01*
X159554053Y-77510313D01*
X159569165Y-77473829D01*
X159575794Y-77467199D01*
X159580017Y-77458826D01*
X159609942Y-77433050D01*
X159637863Y-77405129D01*
X159648941Y-77399459D01*
X159653630Y-77395421D01*
X159662623Y-77392457D01*
X159689189Y-77378862D01*
X159728086Y-77364354D01*
X159843187Y-77278189D01*
X159843189Y-77278187D01*
X159929353Y-77163087D01*
X159979596Y-77028378D01*
X159979598Y-77028371D01*
X159985999Y-76968832D01*
X159986000Y-76968825D01*
X159986000Y-76770001D01*
X159985999Y-76770000D01*
X159249000Y-76770000D01*
X159153712Y-76751046D01*
X159072930Y-76697070D01*
X159018954Y-76616288D01*
X159000000Y-76521000D01*
X159000000Y-76520000D01*
X158999000Y-76520000D01*
X158903712Y-76501046D01*
X158822930Y-76447070D01*
X158768954Y-76366288D01*
X158750000Y-76271000D01*
X158750000Y-75619001D01*
X159250000Y-75619001D01*
X159250000Y-76270000D01*
X159985999Y-76270000D01*
X159986000Y-76269999D01*
X159986000Y-76071175D01*
X159985999Y-76071167D01*
X159979598Y-76011628D01*
X159979596Y-76011621D01*
X159929353Y-75876912D01*
X159843189Y-75761812D01*
X159843187Y-75761810D01*
X159728087Y-75675646D01*
X159593378Y-75625403D01*
X159593371Y-75625401D01*
X159533832Y-75619000D01*
X159250001Y-75619000D01*
X159250000Y-75619001D01*
X158750000Y-75619001D01*
X158749999Y-75619000D01*
X158466167Y-75619000D01*
X158406628Y-75625401D01*
X158406621Y-75625403D01*
X158271912Y-75675646D01*
X158156812Y-75761810D01*
X158156810Y-75761812D01*
X158070646Y-75876912D01*
X158049908Y-75932515D01*
X157998850Y-76015172D01*
X157920047Y-76071998D01*
X157825496Y-76094341D01*
X157816607Y-76094500D01*
X156288921Y-76094500D01*
X156193633Y-76075546D01*
X156112851Y-76021570D01*
X156090333Y-75994131D01*
X156085599Y-75989397D01*
X156012357Y-75940460D01*
X156002740Y-75934034D01*
X156002739Y-75934033D01*
X155929676Y-75919500D01*
X155929674Y-75919500D01*
X154880326Y-75919500D01*
X154880323Y-75919500D01*
X154807260Y-75934033D01*
X154724400Y-75989397D01*
X154713728Y-76000070D01*
X154632946Y-76054046D01*
X154537658Y-76073000D01*
X154072342Y-76073000D01*
X153977054Y-76054046D01*
X153896272Y-76000070D01*
X153885599Y-75989397D01*
X153812357Y-75940460D01*
X153802740Y-75934034D01*
X153802739Y-75934033D01*
X153729676Y-75919500D01*
X153729674Y-75919500D01*
X152680326Y-75919500D01*
X152680323Y-75919500D01*
X152607260Y-75934033D01*
X152542152Y-75977537D01*
X152465279Y-76011795D01*
X152435030Y-76019500D01*
X152399892Y-76019500D01*
X152268107Y-76019500D01*
X152214739Y-76033800D01*
X152140814Y-76053608D01*
X152026686Y-76119500D01*
X152021303Y-76124882D01*
X151980962Y-76135158D01*
X151966097Y-76135947D01*
X151952000Y-76140733D01*
X151917981Y-76138503D01*
X151883943Y-76140311D01*
X151869906Y-76135351D01*
X151855053Y-76134378D01*
X151824483Y-76119302D01*
X151792338Y-76107945D01*
X151781266Y-76097990D01*
X151767917Y-76091407D01*
X151745442Y-76065779D01*
X151720092Y-76042986D01*
X151713673Y-76029553D01*
X151703859Y-76018362D01*
X151692901Y-75986081D01*
X151678205Y-75955325D01*
X151677415Y-75940460D01*
X151672630Y-75926363D01*
X151670500Y-75893863D01*
X151670500Y-73795325D01*
X151670499Y-73795323D01*
X151655966Y-73722260D01*
X151600602Y-73639400D01*
X151600599Y-73639397D01*
X151527432Y-73590510D01*
X151517740Y-73584034D01*
X151517739Y-73584033D01*
X151444676Y-73569500D01*
X151444674Y-73569500D01*
X149895326Y-73569500D01*
X149895323Y-73569500D01*
X149822260Y-73584033D01*
X149739400Y-73639397D01*
X149739397Y-73639400D01*
X149684033Y-73722260D01*
X149669500Y-73795323D01*
X149669500Y-77228500D01*
X149650546Y-77323788D01*
X149596570Y-77404570D01*
X149515788Y-77458546D01*
X149420500Y-77477500D01*
X145219500Y-77477500D01*
X145124212Y-77458546D01*
X145043430Y-77404570D01*
X144989454Y-77323788D01*
X144970500Y-77228500D01*
X144970500Y-73795325D01*
X144970499Y-73795323D01*
X144955966Y-73722260D01*
X144900602Y-73639400D01*
X144900599Y-73639397D01*
X144827432Y-73590510D01*
X144817740Y-73584034D01*
X144817739Y-73584033D01*
X144744676Y-73569500D01*
X144744674Y-73569500D01*
X143195326Y-73569500D01*
X143195323Y-73569500D01*
X143122260Y-73584033D01*
X143039400Y-73639397D01*
X143039397Y-73639400D01*
X142984033Y-73722260D01*
X142969500Y-73795323D01*
X142969500Y-77228500D01*
X142950546Y-77323788D01*
X142896570Y-77404570D01*
X142815788Y-77458546D01*
X142720500Y-77477500D01*
X140518454Y-77477500D01*
X140423166Y-77458546D01*
X140342384Y-77404570D01*
X139600212Y-76662398D01*
X139546236Y-76581616D01*
X139527282Y-76486328D01*
X139530346Y-76447385D01*
X139555500Y-76288579D01*
X139555500Y-76111421D01*
X139555499Y-76111418D01*
X139555499Y-76111411D01*
X139527788Y-75936456D01*
X139527787Y-75936454D01*
X139527786Y-75936445D01*
X139473042Y-75767958D01*
X139392614Y-75610110D01*
X139288483Y-75466786D01*
X139163214Y-75341517D01*
X139019890Y-75237386D01*
X139019891Y-75237386D01*
X139019889Y-75237385D01*
X138862052Y-75156963D01*
X138862050Y-75156962D01*
X138862042Y-75156958D01*
X138693555Y-75102214D01*
X138693549Y-75102213D01*
X138693543Y-75102211D01*
X138518588Y-75074500D01*
X138518579Y-75074500D01*
X138341421Y-75074500D01*
X138341411Y-75074500D01*
X138166456Y-75102211D01*
X138166450Y-75102213D01*
X138166448Y-75102213D01*
X138166445Y-75102214D01*
X137997958Y-75156958D01*
X137997956Y-75156958D01*
X137997956Y-75156959D01*
X137997947Y-75156963D01*
X137840110Y-75237385D01*
X137696789Y-75341514D01*
X137571514Y-75466789D01*
X137467385Y-75610110D01*
X137386963Y-75767947D01*
X137386958Y-75767956D01*
X137386958Y-75767958D01*
X137332214Y-75936445D01*
X137332213Y-75936448D01*
X137332213Y-75936450D01*
X137332211Y-75936456D01*
X137304500Y-76111411D01*
X137304500Y-76288588D01*
X137332211Y-76463543D01*
X137332213Y-76463549D01*
X137332214Y-76463555D01*
X137386958Y-76632042D01*
X137386959Y-76632043D01*
X137386963Y-76632052D01*
X137467385Y-76789889D01*
X137496369Y-76829782D01*
X137571517Y-76933214D01*
X137696786Y-77058483D01*
X137696789Y-77058485D01*
X137782200Y-77120540D01*
X137848149Y-77191883D01*
X137881775Y-77283033D01*
X137877961Y-77380113D01*
X137837286Y-77468344D01*
X137765943Y-77534293D01*
X137748888Y-77543844D01*
X137709347Y-77563991D01*
X137709338Y-77563997D01*
X137650384Y-77606829D01*
X138300591Y-78257037D01*
X138237007Y-78274075D01*
X138122993Y-78339901D01*
X138029901Y-78432993D01*
X137964075Y-78547007D01*
X137947037Y-78610592D01*
X137296829Y-77960384D01*
X137253997Y-78019338D01*
X137253995Y-78019341D01*
X137155737Y-78212182D01*
X137155733Y-78212193D01*
X137088859Y-78418013D01*
X137088854Y-78418032D01*
X137055001Y-78631774D01*
X137055000Y-78631789D01*
X137055000Y-78848210D01*
X137055001Y-78848225D01*
X137088854Y-79061967D01*
X137088859Y-79061986D01*
X137155733Y-79267806D01*
X137155737Y-79267817D01*
X137253996Y-79460660D01*
X137296829Y-79519614D01*
X137947037Y-78869407D01*
X137964075Y-78932993D01*
X138029901Y-79047007D01*
X138122993Y-79140099D01*
X138237007Y-79205925D01*
X138300590Y-79222962D01*
X137650384Y-79873168D01*
X137650384Y-79873169D01*
X137709341Y-79916005D01*
X137748884Y-79936153D01*
X137825182Y-79996301D01*
X137872654Y-80081068D01*
X137884073Y-80177550D01*
X137857702Y-80271057D01*
X137797554Y-80347355D01*
X137782201Y-80359458D01*
X137696790Y-80421513D01*
X137571514Y-80546789D01*
X137467385Y-80690110D01*
X137386963Y-80847947D01*
X137386958Y-80847956D01*
X137386958Y-80847958D01*
X137332214Y-81016445D01*
X137332213Y-81016448D01*
X137332213Y-81016450D01*
X137332211Y-81016456D01*
X137304500Y-81191411D01*
X137304500Y-81368588D01*
X137332211Y-81543543D01*
X137332213Y-81543548D01*
X137332214Y-81543555D01*
X137386958Y-81712042D01*
X137386959Y-81712043D01*
X137386963Y-81712052D01*
X137463162Y-81861601D01*
X137467386Y-81869890D01*
X137571517Y-82013214D01*
X137696786Y-82138483D01*
X137718653Y-82154370D01*
X137840110Y-82242614D01*
X138006675Y-82327484D01*
X138005431Y-82329923D01*
X138071312Y-82373959D01*
X138125275Y-82454749D01*
X138144214Y-82550040D01*
X138125245Y-82645325D01*
X138071255Y-82726098D01*
X138005433Y-82770078D01*
X138006675Y-82772516D01*
X137840110Y-82857385D01*
X137696789Y-82961514D01*
X137571514Y-83086789D01*
X137467385Y-83230110D01*
X137386963Y-83387947D01*
X137386958Y-83387956D01*
X137386958Y-83387958D01*
X137332214Y-83556445D01*
X137332213Y-83556448D01*
X137332213Y-83556450D01*
X137332211Y-83556456D01*
X137304500Y-83731411D01*
X137304500Y-83908588D01*
X137332211Y-84083543D01*
X137332213Y-84083549D01*
X137332214Y-84083555D01*
X137386958Y-84252042D01*
X137386959Y-84252043D01*
X137386963Y-84252052D01*
X137449774Y-84375326D01*
X137467386Y-84409890D01*
X137571517Y-84553214D01*
X137696786Y-84678483D01*
X137696789Y-84678485D01*
X137840110Y-84782614D01*
X138006675Y-84867484D01*
X138005431Y-84869923D01*
X138071312Y-84913959D01*
X138125275Y-84994749D01*
X138144214Y-85090040D01*
X138125245Y-85185325D01*
X138071255Y-85266098D01*
X138005433Y-85310078D01*
X138006675Y-85312516D01*
X137840110Y-85397385D01*
X137696789Y-85501514D01*
X137571514Y-85626789D01*
X137467385Y-85770110D01*
X137414683Y-85873544D01*
X137354535Y-85949841D01*
X137269768Y-85997313D01*
X137192823Y-86009500D01*
X132033853Y-86009500D01*
X131944712Y-86033385D01*
X131864784Y-86079533D01*
X130972606Y-86971711D01*
X130954562Y-86988070D01*
X130939928Y-87000086D01*
X130933561Y-87003634D01*
X130875245Y-87053205D01*
X130873577Y-87054576D01*
X130832573Y-87076509D01*
X130791944Y-87099139D01*
X130788306Y-87100189D01*
X130787909Y-87100402D01*
X130787393Y-87100452D01*
X130777245Y-87103383D01*
X130749885Y-87110380D01*
X130741782Y-87112309D01*
X130695905Y-87122419D01*
X130640040Y-87134731D01*
X130635422Y-87135883D01*
X130626312Y-87138157D01*
X130625098Y-87138496D01*
X130611820Y-87142595D01*
X130478802Y-87187678D01*
X130470866Y-87190515D01*
X130468461Y-87191421D01*
X130468421Y-87191315D01*
X130456398Y-87195277D01*
X130451210Y-87197425D01*
X130314286Y-87276478D01*
X130202476Y-87388288D01*
X130168718Y-87446759D01*
X130104659Y-87519803D01*
X130017523Y-87562773D01*
X129920576Y-87569126D01*
X129828577Y-87537896D01*
X129777009Y-87498327D01*
X124279171Y-82000489D01*
X124225195Y-81919707D01*
X124206241Y-81824419D01*
X124225195Y-81729131D01*
X124232752Y-81712739D01*
X124233033Y-81712058D01*
X124233042Y-81712042D01*
X124287786Y-81543555D01*
X124287788Y-81543543D01*
X124315499Y-81368588D01*
X124315500Y-81368576D01*
X124315500Y-81191423D01*
X124315499Y-81191411D01*
X124287788Y-81016456D01*
X124287787Y-81016454D01*
X124287786Y-81016445D01*
X124233042Y-80847958D01*
X124152614Y-80690110D01*
X124048483Y-80546786D01*
X123923214Y-80421517D01*
X123923210Y-80421514D01*
X123779889Y-80317385D01*
X123613325Y-80232516D01*
X123614570Y-80230070D01*
X123548726Y-80186080D01*
X123494745Y-80105302D01*
X123475785Y-80010015D01*
X123494733Y-79914726D01*
X123548705Y-79833941D01*
X123614569Y-79789926D01*
X123613325Y-79787484D01*
X123690798Y-79748008D01*
X123779890Y-79702614D01*
X123923214Y-79598483D01*
X124048483Y-79473214D01*
X124152614Y-79329890D01*
X124233042Y-79172042D01*
X124287786Y-79003555D01*
X124287788Y-79003543D01*
X124315499Y-78828588D01*
X124315500Y-78828576D01*
X124315500Y-78651423D01*
X124315498Y-78651408D01*
X124310109Y-78617387D01*
X124287786Y-78476445D01*
X124233042Y-78307958D01*
X124152614Y-78150110D01*
X124048483Y-78006786D01*
X123923214Y-77881517D01*
X123902118Y-77866190D01*
X123779889Y-77777385D01*
X123613325Y-77692516D01*
X123614570Y-77690070D01*
X123548726Y-77646080D01*
X123494745Y-77565302D01*
X123475785Y-77470015D01*
X123494733Y-77374726D01*
X123548705Y-77293941D01*
X123614569Y-77249926D01*
X123613325Y-77247484D01*
X123690798Y-77208008D01*
X123779890Y-77162614D01*
X123923214Y-77058483D01*
X124048483Y-76933214D01*
X124152614Y-76789890D01*
X124233042Y-76632042D01*
X124287786Y-76463555D01*
X124303192Y-76366288D01*
X124315499Y-76288588D01*
X124315500Y-76288576D01*
X124315500Y-76111423D01*
X124315499Y-76111411D01*
X124287788Y-75936456D01*
X124287787Y-75936454D01*
X124287786Y-75936445D01*
X124233042Y-75767958D01*
X124152614Y-75610110D01*
X124048483Y-75466786D01*
X123923214Y-75341517D01*
X123779890Y-75237386D01*
X123751906Y-75223127D01*
X123675610Y-75162979D01*
X123628139Y-75078211D01*
X123616721Y-74981729D01*
X123643093Y-74888222D01*
X123688880Y-74825201D01*
X125827652Y-72686430D01*
X125908434Y-72632454D01*
X126003722Y-72613500D01*
X164877078Y-72613500D01*
X164972366Y-72632454D01*
G37*
%TD.AperFunction*%
%TA.AperFunction,Conductor*%
G36*
X152496288Y-88523954D02*
G01*
X152577070Y-88577930D01*
X152631046Y-88658712D01*
X152650000Y-88754000D01*
X152650000Y-89414999D01*
X152650001Y-89415000D01*
X152912325Y-89415000D01*
X152912332Y-89414999D01*
X152971871Y-89408598D01*
X152971879Y-89408596D01*
X152983482Y-89404269D01*
X153079386Y-89388728D01*
X153173937Y-89411070D01*
X153252741Y-89467895D01*
X153303800Y-89550551D01*
X153319500Y-89637569D01*
X153319500Y-91472822D01*
X153300546Y-91568110D01*
X153246570Y-91648892D01*
X153183546Y-91694682D01*
X153080106Y-91747388D01*
X152936789Y-91851514D01*
X152811514Y-91976789D01*
X152707385Y-92120110D01*
X152622516Y-92286675D01*
X152620076Y-92285431D01*
X152576041Y-92351312D01*
X152495251Y-92405275D01*
X152399960Y-92424214D01*
X152304675Y-92405245D01*
X152223902Y-92351255D01*
X152179921Y-92285433D01*
X152177484Y-92286675D01*
X152092614Y-92120110D01*
X152049353Y-92060567D01*
X151988483Y-91976786D01*
X151863214Y-91851517D01*
X151851219Y-91842802D01*
X151719893Y-91747388D01*
X151719892Y-91747387D01*
X151719890Y-91747386D01*
X151666734Y-91720301D01*
X151616454Y-91694682D01*
X151540158Y-91634533D01*
X151492686Y-91549765D01*
X151480500Y-91472822D01*
X151480500Y-89637569D01*
X151499454Y-89542281D01*
X151553430Y-89461499D01*
X151634212Y-89407523D01*
X151729500Y-89388569D01*
X151816518Y-89404269D01*
X151828120Y-89408596D01*
X151828128Y-89408598D01*
X151887667Y-89414999D01*
X151887675Y-89415000D01*
X152149999Y-89415000D01*
X152150000Y-89414999D01*
X152150000Y-88754000D01*
X152168954Y-88658712D01*
X152222930Y-88577930D01*
X152303712Y-88523954D01*
X152399000Y-88505000D01*
X152401000Y-88505000D01*
X152496288Y-88523954D01*
G37*
%TD.AperFunction*%
%TA.AperFunction,Conductor*%
G36*
X124607098Y-83371674D02*
G01*
X124695329Y-83412348D01*
X124725043Y-83437725D01*
X129265162Y-87977844D01*
X129319138Y-88058626D01*
X129338092Y-88153914D01*
X129319138Y-88249202D01*
X129265162Y-88329984D01*
X129240684Y-88351451D01*
X129234787Y-88355976D01*
X129194729Y-88396033D01*
X129166332Y-88420446D01*
X129159051Y-88425808D01*
X129159047Y-88425811D01*
X129059749Y-88534635D01*
X129050796Y-88544989D01*
X129050043Y-88545908D01*
X129041539Y-88556887D01*
X128974664Y-88648234D01*
X128970352Y-88654306D01*
X128970013Y-88654799D01*
X128965862Y-88661017D01*
X128920029Y-88731877D01*
X128911869Y-88743728D01*
X128869081Y-88802175D01*
X128852102Y-88822924D01*
X128770025Y-88912874D01*
X128763081Y-88922063D01*
X128762330Y-88921495D01*
X128737547Y-88952769D01*
X125362570Y-92327747D01*
X125281788Y-92381723D01*
X125186500Y-92400677D01*
X125091212Y-92381723D01*
X125010430Y-92327747D01*
X124956454Y-92246965D01*
X124937500Y-92151677D01*
X124937500Y-85170853D01*
X124913614Y-85081712D01*
X124867468Y-85001787D01*
X124867465Y-85001784D01*
X124802217Y-84936535D01*
X124802214Y-84936533D01*
X124802212Y-84936531D01*
X124648288Y-84782607D01*
X124312656Y-84446974D01*
X124258680Y-84366193D01*
X124239726Y-84270905D01*
X124251912Y-84193964D01*
X124287786Y-84083555D01*
X124289301Y-84073988D01*
X124315499Y-83908588D01*
X124315500Y-83908576D01*
X124315500Y-83731423D01*
X124315499Y-83731416D01*
X124311291Y-83704848D01*
X124303039Y-83652747D01*
X124306852Y-83555670D01*
X124347526Y-83467439D01*
X124418869Y-83401489D01*
X124510018Y-83367861D01*
X124607098Y-83371674D01*
G37*
%TD.AperFunction*%
%TA.AperFunction,Conductor*%
G36*
X121607967Y-89499454D02*
G01*
X121688749Y-89553430D01*
X121742725Y-89634212D01*
X121761679Y-89729500D01*
X121742725Y-89824788D01*
X121688751Y-89905566D01*
X121596532Y-89997786D01*
X121512529Y-90081789D01*
X121512528Y-90081790D01*
X121477931Y-90141712D01*
X121477932Y-90141713D01*
X121466385Y-90161712D01*
X121442500Y-90250855D01*
X121442500Y-91897678D01*
X121423546Y-91992966D01*
X121369570Y-92073748D01*
X121288788Y-92127724D01*
X121193500Y-92146678D01*
X121098212Y-92127724D01*
X121017430Y-92073748D01*
X119422430Y-90478748D01*
X119368454Y-90397966D01*
X119349500Y-90302678D01*
X119349500Y-89929500D01*
X119368454Y-89834212D01*
X119422430Y-89753430D01*
X119503212Y-89699454D01*
X119598500Y-89680500D01*
X120909675Y-89680500D01*
X120909675Y-89680499D01*
X120982740Y-89665966D01*
X121065601Y-89610601D01*
X121077476Y-89592828D01*
X121078587Y-89591166D01*
X121112071Y-89557680D01*
X121145233Y-89523852D01*
X121146393Y-89523357D01*
X121147285Y-89522466D01*
X121191039Y-89504341D01*
X121234618Y-89485780D01*
X121235879Y-89485767D01*
X121237044Y-89485285D01*
X121285625Y-89480500D01*
X121453856Y-89480500D01*
X121512679Y-89480500D01*
X121607967Y-89499454D01*
G37*
%TD.AperFunction*%
%TA.AperFunction,Conductor*%
G36*
X137288111Y-86729454D02*
G01*
X137368893Y-86783430D01*
X137414683Y-86846456D01*
X137467385Y-86949889D01*
X137557362Y-87073731D01*
X137571517Y-87093214D01*
X137696786Y-87218483D01*
X137776609Y-87276478D01*
X137840110Y-87322614D01*
X138006675Y-87407484D01*
X138005431Y-87409923D01*
X138071312Y-87453959D01*
X138125275Y-87534749D01*
X138144214Y-87630040D01*
X138125245Y-87725325D01*
X138071255Y-87806098D01*
X138005433Y-87850078D01*
X138006675Y-87852516D01*
X137840110Y-87937385D01*
X137696789Y-88041514D01*
X137571514Y-88166789D01*
X137467385Y-88310110D01*
X137414683Y-88413544D01*
X137354535Y-88489841D01*
X137269768Y-88537313D01*
X137192823Y-88549500D01*
X133049852Y-88549500D01*
X132971484Y-88570498D01*
X132971485Y-88570499D01*
X132960712Y-88573385D01*
X132880787Y-88619530D01*
X132880784Y-88619533D01*
X132750602Y-88749714D01*
X132732560Y-88766072D01*
X132717931Y-88778085D01*
X132711561Y-88781634D01*
X132653217Y-88831229D01*
X132651578Y-88832576D01*
X132610549Y-88854523D01*
X132569944Y-88877139D01*
X132566309Y-88878188D01*
X132565910Y-88878402D01*
X132565392Y-88878453D01*
X132555245Y-88881383D01*
X132527885Y-88888380D01*
X132519782Y-88890309D01*
X132473905Y-88900419D01*
X132418040Y-88912731D01*
X132413422Y-88913883D01*
X132404312Y-88916157D01*
X132403098Y-88916496D01*
X132389820Y-88920595D01*
X132256802Y-88965678D01*
X132248866Y-88968515D01*
X132246461Y-88969421D01*
X132246421Y-88969315D01*
X132234398Y-88973277D01*
X132229210Y-88975425D01*
X132092286Y-89054478D01*
X131980476Y-89166288D01*
X131946718Y-89224759D01*
X131882659Y-89297803D01*
X131795523Y-89340773D01*
X131698576Y-89347126D01*
X131606577Y-89315896D01*
X131555009Y-89276327D01*
X130941672Y-88662990D01*
X130887696Y-88582208D01*
X130868742Y-88486920D01*
X130887696Y-88391632D01*
X130941672Y-88310850D01*
X130993243Y-88271279D01*
X131008059Y-88262725D01*
X131051716Y-88237520D01*
X131163520Y-88125716D01*
X131242577Y-87988784D01*
X131242578Y-87988779D01*
X131242746Y-87988374D01*
X131248960Y-87967000D01*
X131252340Y-87961142D01*
X131297390Y-87828214D01*
X131301516Y-87814845D01*
X131301861Y-87813608D01*
X131305267Y-87799953D01*
X131328586Y-87694132D01*
X131336614Y-87662744D01*
X131378590Y-87575125D01*
X131388114Y-87563196D01*
X131436362Y-87506443D01*
X131436365Y-87506436D01*
X131441494Y-87499200D01*
X131468591Y-87467090D01*
X132152252Y-86783430D01*
X132233033Y-86729454D01*
X132328321Y-86710500D01*
X137192823Y-86710500D01*
X137288111Y-86729454D01*
G37*
%TD.AperFunction*%
%TA.AperFunction,Conductor*%
G36*
X166710910Y-82843492D02*
G01*
X166748645Y-82874459D01*
X167226570Y-83352384D01*
X167280546Y-83433166D01*
X167299500Y-83528454D01*
X167299500Y-87539546D01*
X167280546Y-87634834D01*
X167226570Y-87715616D01*
X166615616Y-88326570D01*
X166534834Y-88380546D01*
X166439546Y-88399500D01*
X162760454Y-88399500D01*
X162665166Y-88380546D01*
X162584384Y-88326570D01*
X158368384Y-84110570D01*
X158314408Y-84029788D01*
X158295454Y-83934500D01*
X158314408Y-83839212D01*
X158368384Y-83758430D01*
X158449166Y-83704454D01*
X158544454Y-83685500D01*
X161736892Y-83685500D01*
X161864186Y-83651392D01*
X161978314Y-83585500D01*
X162189287Y-83374527D01*
X162262585Y-83301230D01*
X162343366Y-83247254D01*
X162438654Y-83228300D01*
X164322505Y-83228300D01*
X164417793Y-83247254D01*
X164498575Y-83301230D01*
X164503123Y-83305900D01*
X164517744Y-83321307D01*
X164576861Y-83409782D01*
X164716218Y-83549139D01*
X164764671Y-83581514D01*
X164783822Y-83601695D01*
X164795183Y-83619701D01*
X164810239Y-83634757D01*
X164820856Y-83660390D01*
X164835666Y-83683861D01*
X164839272Y-83704848D01*
X164847419Y-83724516D01*
X164847419Y-83752261D01*
X164852119Y-83779613D01*
X164847419Y-83800380D01*
X164847420Y-83821671D01*
X164836801Y-83847308D01*
X164830677Y-83874372D01*
X164818389Y-83891758D01*
X164810241Y-83911431D01*
X164790617Y-83931054D01*
X164774604Y-83953713D01*
X164756597Y-83965074D01*
X164741542Y-83980130D01*
X164698491Y-84003141D01*
X164527458Y-84073984D01*
X164527451Y-84073987D01*
X164379968Y-84172533D01*
X164254533Y-84297968D01*
X164155988Y-84445450D01*
X164155987Y-84445453D01*
X164111352Y-84553214D01*
X164088104Y-84609340D01*
X164053500Y-84783304D01*
X164053500Y-84960695D01*
X164088104Y-85134659D01*
X164088105Y-85134661D01*
X164088106Y-85134666D01*
X164147096Y-85277082D01*
X164155988Y-85298549D01*
X164254533Y-85446031D01*
X164254536Y-85446035D01*
X164379965Y-85571464D01*
X164527453Y-85670013D01*
X164691334Y-85737894D01*
X164865309Y-85772500D01*
X165842691Y-85772500D01*
X166016666Y-85737894D01*
X166180547Y-85670013D01*
X166328035Y-85571464D01*
X166453464Y-85446035D01*
X166552013Y-85298547D01*
X166619894Y-85134666D01*
X166654500Y-84960691D01*
X166654500Y-84783309D01*
X166619894Y-84609334D01*
X166552013Y-84445453D01*
X166453464Y-84297965D01*
X166328035Y-84172536D01*
X166315311Y-84164034D01*
X166180549Y-84073988D01*
X166180547Y-84073987D01*
X166016666Y-84006106D01*
X166016661Y-84006105D01*
X166009508Y-84003142D01*
X165928726Y-83949166D01*
X165874749Y-83868384D01*
X165855795Y-83773096D01*
X165874748Y-83677808D01*
X165928724Y-83597026D01*
X165966453Y-83566062D01*
X165991782Y-83549139D01*
X166131139Y-83409782D01*
X166240632Y-83245914D01*
X166316051Y-83063835D01*
X166328360Y-83001949D01*
X166365538Y-82912194D01*
X166434236Y-82843495D01*
X166523995Y-82806314D01*
X166621150Y-82806313D01*
X166710910Y-82843492D01*
G37*
%TD.AperFunction*%
%TA.AperFunction,Conductor*%
G36*
X156945966Y-85078454D02*
G01*
X157026748Y-85132430D01*
X158593270Y-86698951D01*
X158647246Y-86779733D01*
X158666200Y-86875021D01*
X158666200Y-87766390D01*
X158657188Y-87811695D01*
X158649070Y-87857149D01*
X158647730Y-87859240D01*
X158647246Y-87861678D01*
X158596688Y-87938973D01*
X158449084Y-88092483D01*
X158369377Y-88148033D01*
X158274479Y-88168852D01*
X158269596Y-88168900D01*
X155876938Y-88168900D01*
X155781650Y-88149946D01*
X155700868Y-88095970D01*
X155646892Y-88015189D01*
X155639467Y-87997265D01*
X155639466Y-87997260D01*
X155599460Y-87937386D01*
X155570475Y-87894005D01*
X155573152Y-87892216D01*
X155541796Y-87845288D01*
X155522842Y-87750000D01*
X155541796Y-87654712D01*
X155573152Y-87607783D01*
X155570475Y-87605995D01*
X155615976Y-87537896D01*
X155639466Y-87502740D01*
X155654000Y-87429674D01*
X155654000Y-86560326D01*
X155645089Y-86515527D01*
X155645088Y-86418372D01*
X155682267Y-86328612D01*
X155740085Y-86267612D01*
X155760687Y-86252189D01*
X155760689Y-86252187D01*
X155846853Y-86137087D01*
X155897096Y-86002378D01*
X155897098Y-86002371D01*
X155903499Y-85942832D01*
X155903500Y-85942825D01*
X155903500Y-85735001D01*
X155903499Y-85735000D01*
X155188000Y-85735000D01*
X155092712Y-85716046D01*
X155011930Y-85662070D01*
X154957954Y-85581288D01*
X154939000Y-85486000D01*
X154939000Y-85484000D01*
X154957954Y-85388712D01*
X155011930Y-85307930D01*
X155092712Y-85253954D01*
X155188000Y-85235000D01*
X155903499Y-85235000D01*
X155921750Y-85216748D01*
X155922454Y-85213212D01*
X155976430Y-85132430D01*
X156057212Y-85078454D01*
X156152500Y-85059500D01*
X156850678Y-85059500D01*
X156945966Y-85078454D01*
G37*
%TD.AperFunction*%
%TA.AperFunction,Conductor*%
G36*
X140118444Y-78472159D02*
G01*
X140142108Y-78478500D01*
X146551946Y-78478500D01*
X146647234Y-78497454D01*
X146728016Y-78551430D01*
X146781992Y-78632212D01*
X146800946Y-78727500D01*
X146781992Y-78822788D01*
X146728016Y-78903570D01*
X146435016Y-79196570D01*
X146354234Y-79250546D01*
X146258946Y-79269500D01*
X145795323Y-79269500D01*
X145722260Y-79284033D01*
X145639400Y-79339397D01*
X145639397Y-79339400D01*
X145584033Y-79422260D01*
X145569500Y-79495323D01*
X145569500Y-83044676D01*
X145584033Y-83117739D01*
X145639397Y-83200599D01*
X145639399Y-83200601D01*
X145722260Y-83255966D01*
X145795324Y-83270499D01*
X145795325Y-83270500D01*
X145795326Y-83270500D01*
X146844675Y-83270500D01*
X146844675Y-83270499D01*
X146917740Y-83255966D01*
X147000601Y-83200601D01*
X147055966Y-83117740D01*
X147070500Y-83044674D01*
X147070500Y-80079852D01*
X147089454Y-79984564D01*
X147143426Y-79903787D01*
X147144435Y-79902778D01*
X147225212Y-79848806D01*
X147320500Y-79829852D01*
X147415788Y-79848806D01*
X147496570Y-79902782D01*
X147550546Y-79983564D01*
X147569500Y-80078852D01*
X147569500Y-83044676D01*
X147584033Y-83117739D01*
X147639397Y-83200599D01*
X147639399Y-83200601D01*
X147722260Y-83255966D01*
X147795324Y-83270499D01*
X147795325Y-83270500D01*
X147795326Y-83270500D01*
X148245546Y-83270500D01*
X148340834Y-83289454D01*
X148421616Y-83343430D01*
X148977616Y-83899430D01*
X149031592Y-83980212D01*
X149050546Y-84075500D01*
X149031592Y-84170788D01*
X148977616Y-84251570D01*
X148896834Y-84305546D01*
X148801546Y-84324500D01*
X142108677Y-84324500D01*
X142013389Y-84305546D01*
X141932607Y-84251570D01*
X139561326Y-81880289D01*
X139507350Y-81799507D01*
X139488396Y-81704219D01*
X139500581Y-81627284D01*
X139527786Y-81543555D01*
X139527788Y-81543543D01*
X139555499Y-81368588D01*
X139555500Y-81368576D01*
X139555500Y-81191423D01*
X139555499Y-81191411D01*
X139527788Y-81016456D01*
X139527787Y-81016454D01*
X139527786Y-81016445D01*
X139473042Y-80847958D01*
X139392614Y-80690110D01*
X139288483Y-80546786D01*
X139163214Y-80421517D01*
X139163210Y-80421514D01*
X139077799Y-80359459D01*
X139011850Y-80288115D01*
X138978223Y-80196965D01*
X138982038Y-80099885D01*
X139022713Y-80011655D01*
X139094057Y-79945706D01*
X139111119Y-79936151D01*
X139150649Y-79916010D01*
X139150656Y-79916006D01*
X139209614Y-79873169D01*
X138559407Y-79222962D01*
X138622993Y-79205925D01*
X138737007Y-79140099D01*
X138830099Y-79047007D01*
X138895925Y-78932993D01*
X138912962Y-78869408D01*
X139563169Y-79519614D01*
X139606006Y-79460656D01*
X139606011Y-79460647D01*
X139704259Y-79267823D01*
X139704266Y-79267806D01*
X139771140Y-79061986D01*
X139771145Y-79061967D01*
X139804998Y-78848225D01*
X139805000Y-78848210D01*
X139805000Y-78712675D01*
X139823954Y-78617387D01*
X139877930Y-78536605D01*
X139958712Y-78482629D01*
X140054000Y-78463675D01*
X140118444Y-78472159D01*
G37*
%TD.AperFunction*%
%TA.AperFunction,Conductor*%
G36*
X151272199Y-79386454D02*
G01*
X151352981Y-79440430D01*
X151406957Y-79521212D01*
X151425911Y-79616500D01*
X151420093Y-79660687D01*
X151420630Y-79660758D01*
X151418500Y-79676939D01*
X151418500Y-79835057D01*
X151459422Y-79987783D01*
X151538478Y-80124713D01*
X151538480Y-80124716D01*
X151650284Y-80236520D01*
X151787216Y-80315577D01*
X151836894Y-80328888D01*
X151924030Y-80371858D01*
X151948520Y-80393334D01*
X152192500Y-80637314D01*
X152192499Y-80637314D01*
X152285683Y-80730497D01*
X152285683Y-80730498D01*
X152285685Y-80730499D01*
X152285686Y-80730500D01*
X152324802Y-80753084D01*
X152397843Y-80817138D01*
X152440815Y-80904274D01*
X152449300Y-80968722D01*
X152449300Y-82570252D01*
X152450500Y-82576284D01*
X152454081Y-82600427D01*
X152454499Y-82604673D01*
X152469033Y-82677739D01*
X152524397Y-82760599D01*
X152524400Y-82760602D01*
X152542231Y-82772516D01*
X152607260Y-82815966D01*
X152680326Y-82830500D01*
X152680328Y-82830500D01*
X152688321Y-82832090D01*
X152696338Y-82833279D01*
X152716300Y-82837250D01*
X155201296Y-82837250D01*
X155296584Y-82856204D01*
X155377366Y-82910180D01*
X155492616Y-83025430D01*
X155546592Y-83106212D01*
X155565546Y-83201500D01*
X155546592Y-83296788D01*
X155492616Y-83377570D01*
X155411834Y-83431546D01*
X155316546Y-83450500D01*
X150047454Y-83450500D01*
X149952166Y-83431546D01*
X149871384Y-83377570D01*
X149143430Y-82649616D01*
X149089454Y-82568834D01*
X149070500Y-82473546D01*
X149070500Y-79616500D01*
X149089454Y-79521212D01*
X149143430Y-79440430D01*
X149224212Y-79386454D01*
X149319500Y-79367500D01*
X151176911Y-79367500D01*
X151272199Y-79386454D01*
G37*
%TD.AperFunction*%
%TA.AperFunction,Conductor*%
G36*
X160627835Y-78939454D02*
G01*
X160708616Y-78993430D01*
X161529369Y-79814182D01*
X161583346Y-79894964D01*
X161602300Y-79990252D01*
X161602300Y-82435500D01*
X161583346Y-82530788D01*
X161529370Y-82611570D01*
X161448588Y-82665546D01*
X161353300Y-82684500D01*
X159985500Y-82684500D01*
X159890212Y-82665546D01*
X159809430Y-82611570D01*
X159755454Y-82530788D01*
X159736500Y-82435500D01*
X159736500Y-81804325D01*
X159736499Y-81804323D01*
X159721966Y-81731260D01*
X159666602Y-81648400D01*
X159666599Y-81648397D01*
X159637869Y-81629201D01*
X159569169Y-81560503D01*
X159531988Y-81470744D01*
X159531987Y-81373589D01*
X159569165Y-81283829D01*
X159637863Y-81215129D01*
X159689189Y-81188862D01*
X159728086Y-81174354D01*
X159843187Y-81088189D01*
X159843189Y-81088187D01*
X159929353Y-80973087D01*
X159979596Y-80838378D01*
X159979598Y-80838371D01*
X159985999Y-80778832D01*
X159986000Y-80778825D01*
X159986000Y-80580001D01*
X159985999Y-80580000D01*
X159249000Y-80580000D01*
X159153712Y-80561046D01*
X159072930Y-80507070D01*
X159018954Y-80426288D01*
X159000000Y-80331000D01*
X159000000Y-80329000D01*
X159018954Y-80233712D01*
X159072930Y-80152930D01*
X159153712Y-80098954D01*
X159249000Y-80080000D01*
X159985999Y-80080000D01*
X159986000Y-80079999D01*
X159986000Y-79881175D01*
X159985999Y-79881167D01*
X159979598Y-79821628D01*
X159979596Y-79821621D01*
X159929353Y-79686912D01*
X159843189Y-79571812D01*
X159843187Y-79571810D01*
X159728087Y-79485646D01*
X159679582Y-79467555D01*
X159661930Y-79456651D01*
X159642277Y-79449998D01*
X159620991Y-79431362D01*
X159596925Y-79416496D01*
X159584789Y-79399667D01*
X159569179Y-79386000D01*
X159556645Y-79360637D01*
X159540100Y-79337693D01*
X159535328Y-79317502D01*
X159526136Y-79298900D01*
X159524262Y-79270670D01*
X159517757Y-79243142D01*
X159521075Y-79222662D01*
X159519701Y-79201958D01*
X159528772Y-79175161D01*
X159533297Y-79147238D01*
X159544200Y-79129586D01*
X159550854Y-79109933D01*
X159566995Y-79092684D01*
X159584356Y-79064581D01*
X159614852Y-79036835D01*
X159621390Y-79031809D01*
X159666601Y-79001601D01*
X159672841Y-78992261D01*
X159699096Y-78972081D01*
X159728387Y-78957605D01*
X159755554Y-78939454D01*
X159771562Y-78936269D01*
X159786196Y-78929038D01*
X159818798Y-78926873D01*
X159850842Y-78920500D01*
X160532547Y-78920500D01*
X160627835Y-78939454D01*
G37*
%TD.AperFunction*%
%TD*%
%TA.AperFunction,Conductor*%
%TO.N,/MISO*%
G36*
X124051154Y-97223471D02*
G01*
X124051461Y-97224145D01*
X124179719Y-97531494D01*
X124179742Y-97540449D01*
X124179719Y-97540506D01*
X124051461Y-97847854D01*
X124045112Y-97854169D01*
X124036157Y-97854146D01*
X124035483Y-97853839D01*
X123909632Y-97791701D01*
X123908513Y-97791070D01*
X123813585Y-97730426D01*
X123730342Y-97681088D01*
X123730335Y-97681086D01*
X123629325Y-97648051D01*
X123629327Y-97648051D01*
X123491355Y-97636871D01*
X123483386Y-97632787D01*
X123480600Y-97625209D01*
X123480600Y-97446790D01*
X123484027Y-97438517D01*
X123491353Y-97435128D01*
X123629322Y-97423948D01*
X123629324Y-97423947D01*
X123629326Y-97423947D01*
X123653470Y-97416050D01*
X123730338Y-97390911D01*
X123730340Y-97390909D01*
X123730342Y-97390909D01*
X123759033Y-97373903D01*
X123813598Y-97341564D01*
X123908529Y-97280918D01*
X123909616Y-97280305D01*
X124035485Y-97218159D01*
X124044419Y-97217570D01*
X124051154Y-97223471D01*
G37*
%TD.AperFunction*%
%TD*%
%TA.AperFunction,Conductor*%
%TO.N,/SW4*%
G36*
X133494442Y-93153853D02*
G01*
X133495102Y-93154153D01*
X133620974Y-93216301D01*
X133622076Y-93216923D01*
X133717001Y-93277564D01*
X133717013Y-93277571D01*
X133800256Y-93326909D01*
X133800259Y-93326909D01*
X133800261Y-93326911D01*
X133868922Y-93349366D01*
X133901273Y-93359947D01*
X133901274Y-93359947D01*
X133901277Y-93359948D01*
X134039246Y-93371128D01*
X134047214Y-93375212D01*
X134050000Y-93382790D01*
X134050000Y-93561209D01*
X134046573Y-93569482D01*
X134039245Y-93572871D01*
X133901272Y-93584051D01*
X133800263Y-93617086D01*
X133800256Y-93617088D01*
X133717013Y-93666426D01*
X133622085Y-93727070D01*
X133620966Y-93727701D01*
X133495116Y-93789839D01*
X133486181Y-93790429D01*
X133479445Y-93784528D01*
X133479138Y-93783854D01*
X133409546Y-93617088D01*
X133350879Y-93476505D01*
X133350857Y-93467551D01*
X133350880Y-93467494D01*
X133479139Y-93160143D01*
X133485487Y-93153830D01*
X133494442Y-93153853D01*
G37*
%TD.AperFunction*%
%TD*%
%TA.AperFunction,Conductor*%
%TO.N,+3V3*%
G36*
X133008337Y-111952389D02*
G01*
X133169610Y-112113662D01*
X133173037Y-112121935D01*
X133170131Y-112129652D01*
X133079906Y-112232459D01*
X133027280Y-112323493D01*
X132997382Y-112413057D01*
X132968225Y-112519264D01*
X132967962Y-112520098D01*
X132921480Y-112650384D01*
X132915472Y-112657025D01*
X132906529Y-112657473D01*
X132906011Y-112657274D01*
X132905405Y-112657025D01*
X132842312Y-112631085D01*
X132597808Y-112530563D01*
X132591460Y-112524249D01*
X132464725Y-112215986D01*
X132464748Y-112207033D01*
X132471097Y-112200718D01*
X132471577Y-112200532D01*
X132601917Y-112154029D01*
X132602722Y-112153775D01*
X132708947Y-112124614D01*
X132798506Y-112094717D01*
X132889537Y-112042092D01*
X132992347Y-111951867D01*
X133000825Y-111948987D01*
X133008337Y-111952389D01*
G37*
%TD.AperFunction*%
%TD*%
%TA.AperFunction,Conductor*%
%TO.N,/SW4*%
G36*
X127879584Y-92225223D02*
G01*
X127885899Y-92231572D01*
X127886159Y-92232266D01*
X127931210Y-92365193D01*
X127931555Y-92366430D01*
X127955795Y-92476430D01*
X127979775Y-92570189D01*
X128027843Y-92664978D01*
X128080581Y-92727017D01*
X128117496Y-92770441D01*
X128120244Y-92778964D01*
X128116855Y-92786292D01*
X127990692Y-92912455D01*
X127982419Y-92915882D01*
X127974841Y-92913096D01*
X127869380Y-92823445D01*
X127869378Y-92823443D01*
X127774589Y-92775375D01*
X127680830Y-92751395D01*
X127570830Y-92727155D01*
X127569593Y-92726810D01*
X127436666Y-92681759D01*
X127429930Y-92675858D01*
X127429340Y-92666923D01*
X127429590Y-92666253D01*
X127556237Y-92358206D01*
X127562548Y-92351861D01*
X127870631Y-92225200D01*
X127879584Y-92225223D01*
G37*
%TD.AperFunction*%
%TD*%
%TA.AperFunction,Conductor*%
%TO.N,/SW4*%
G36*
X135887554Y-93159471D02*
G01*
X135887861Y-93160145D01*
X136016119Y-93467494D01*
X136016142Y-93476449D01*
X136016119Y-93476506D01*
X135887861Y-93783854D01*
X135881512Y-93790169D01*
X135872557Y-93790146D01*
X135871883Y-93789839D01*
X135746032Y-93727701D01*
X135744913Y-93727070D01*
X135649985Y-93666426D01*
X135566742Y-93617088D01*
X135566735Y-93617086D01*
X135465725Y-93584051D01*
X135465727Y-93584051D01*
X135327755Y-93572871D01*
X135319786Y-93568787D01*
X135317000Y-93561209D01*
X135317000Y-93382790D01*
X135320427Y-93374517D01*
X135327753Y-93371128D01*
X135465722Y-93359948D01*
X135465724Y-93359947D01*
X135465726Y-93359947D01*
X135489870Y-93352050D01*
X135566738Y-93326911D01*
X135566740Y-93326909D01*
X135566742Y-93326909D01*
X135595433Y-93309903D01*
X135649998Y-93277564D01*
X135744929Y-93216918D01*
X135746016Y-93216305D01*
X135871885Y-93154159D01*
X135880819Y-93153570D01*
X135887554Y-93159471D01*
G37*
%TD.AperFunction*%
%TD*%
%TA.AperFunction,Conductor*%
%TO.N,/SCL*%
G36*
X131188551Y-94556479D02*
G01*
X131188895Y-94557227D01*
X131317119Y-94864494D01*
X131317142Y-94873449D01*
X131317119Y-94873506D01*
X131188832Y-95180924D01*
X131182483Y-95187239D01*
X131173528Y-95187216D01*
X131172919Y-95186941D01*
X131047920Y-95126175D01*
X131046930Y-95125633D01*
X130952043Y-95067599D01*
X130868618Y-95021210D01*
X130868617Y-95021209D01*
X130868616Y-95021209D01*
X130811761Y-95003937D01*
X130767749Y-94990567D01*
X130767741Y-94990566D01*
X130630915Y-94980314D01*
X130622921Y-94976279D01*
X130620089Y-94968647D01*
X130620089Y-94790217D01*
X130623516Y-94781944D01*
X130630759Y-94778563D01*
X130768890Y-94766396D01*
X130869257Y-94730828D01*
X130951622Y-94678427D01*
X131045805Y-94615230D01*
X131047060Y-94614496D01*
X131172845Y-94551278D01*
X131181774Y-94550626D01*
X131188551Y-94556479D01*
G37*
%TD.AperFunction*%
%TD*%
%TA.AperFunction,Conductor*%
%TO.N,/SCL*%
G36*
X126812784Y-93342823D02*
G01*
X126819099Y-93349172D01*
X126819359Y-93349866D01*
X126864410Y-93482793D01*
X126864755Y-93484030D01*
X126888995Y-93594030D01*
X126912975Y-93687789D01*
X126961043Y-93782578D01*
X127013781Y-93844617D01*
X127050696Y-93888041D01*
X127053444Y-93896564D01*
X127050055Y-93903892D01*
X126923892Y-94030055D01*
X126915619Y-94033482D01*
X126908041Y-94030696D01*
X126802580Y-93941045D01*
X126802578Y-93941043D01*
X126707789Y-93892975D01*
X126614030Y-93868995D01*
X126504030Y-93844755D01*
X126502793Y-93844410D01*
X126369866Y-93799359D01*
X126363130Y-93793458D01*
X126362540Y-93784523D01*
X126362790Y-93783853D01*
X126489437Y-93475806D01*
X126495748Y-93469461D01*
X126803831Y-93342800D01*
X126812784Y-93342823D01*
G37*
%TD.AperFunction*%
%TD*%
%TA.AperFunction,Conductor*%
%TO.N,/MISO*%
G36*
X131114892Y-87198944D02*
G01*
X131241055Y-87325107D01*
X131244482Y-87333380D01*
X131241696Y-87340958D01*
X131152045Y-87446417D01*
X131152042Y-87446421D01*
X131103975Y-87541208D01*
X131079995Y-87634967D01*
X131055754Y-87744968D01*
X131055409Y-87746205D01*
X131010359Y-87879133D01*
X131004458Y-87885869D01*
X130995523Y-87886459D01*
X130994829Y-87886199D01*
X130686808Y-87759563D01*
X130680460Y-87753249D01*
X130553800Y-87445168D01*
X130553823Y-87436216D01*
X130560172Y-87429901D01*
X130560855Y-87429644D01*
X130693801Y-87384586D01*
X130695026Y-87384244D01*
X130805022Y-87360004D01*
X130898789Y-87336023D01*
X130993578Y-87287955D01*
X131099043Y-87198302D01*
X131107564Y-87195555D01*
X131114892Y-87198944D01*
G37*
%TD.AperFunction*%
%TD*%
%TA.AperFunction,Conductor*%
%TO.N,+3V3*%
G36*
X159113752Y-88285127D02*
G01*
X159117169Y-88292911D01*
X159119299Y-88343876D01*
X159125500Y-88387791D01*
X159125504Y-88387816D01*
X159132839Y-88425303D01*
X159132942Y-88425913D01*
X159139018Y-88468946D01*
X159139123Y-88470093D01*
X159141194Y-88519607D01*
X159138116Y-88528016D01*
X159129993Y-88531786D01*
X159129598Y-88531796D01*
X159016794Y-88532699D01*
X159016606Y-88532699D01*
X159004000Y-88532598D01*
X158891700Y-88531700D01*
X158894300Y-88469520D01*
X158900500Y-88425610D01*
X158907900Y-88387789D01*
X158914100Y-88343879D01*
X158916700Y-88281700D01*
X159004000Y-88281700D01*
X159105479Y-88281700D01*
X159113752Y-88285127D01*
G37*
%TD.AperFunction*%
%TD*%
%TA.AperFunction,Conductor*%
%TO.N,/SW4*%
G36*
X151688892Y-107772944D02*
G01*
X151815055Y-107899107D01*
X151818482Y-107907380D01*
X151815696Y-107914958D01*
X151726045Y-108020417D01*
X151726042Y-108020421D01*
X151677975Y-108115208D01*
X151653995Y-108208967D01*
X151629754Y-108318968D01*
X151629409Y-108320205D01*
X151584359Y-108453133D01*
X151578458Y-108459869D01*
X151569523Y-108460459D01*
X151568829Y-108460199D01*
X151260808Y-108333563D01*
X151254460Y-108327249D01*
X151127800Y-108019168D01*
X151127823Y-108010216D01*
X151134172Y-108003901D01*
X151134855Y-108003644D01*
X151267801Y-107958586D01*
X151269026Y-107958244D01*
X151379022Y-107934004D01*
X151472789Y-107910023D01*
X151567578Y-107861955D01*
X151673043Y-107772302D01*
X151681564Y-107769555D01*
X151688892Y-107772944D01*
G37*
%TD.AperFunction*%
%TD*%
%TA.AperFunction,Conductor*%
%TO.N,/SCK*%
G36*
X131006146Y-90548790D02*
G01*
X131314191Y-90675436D01*
X131320540Y-90681751D01*
X131320563Y-90681808D01*
X131447199Y-90989829D01*
X131447176Y-90998784D01*
X131440827Y-91005099D01*
X131440133Y-91005359D01*
X131307205Y-91050409D01*
X131305968Y-91050754D01*
X131195967Y-91074995D01*
X131102208Y-91098975D01*
X131007421Y-91147042D01*
X131007417Y-91147045D01*
X130901958Y-91236696D01*
X130893435Y-91239444D01*
X130886107Y-91236055D01*
X130759944Y-91109892D01*
X130756517Y-91101619D01*
X130759302Y-91094043D01*
X130848955Y-90988578D01*
X130897023Y-90893789D01*
X130921004Y-90800022D01*
X130945244Y-90690026D01*
X130945588Y-90688795D01*
X130947976Y-90681751D01*
X130990641Y-90555864D01*
X130996542Y-90549130D01*
X131005478Y-90548540D01*
X131006146Y-90548790D01*
G37*
%TD.AperFunction*%
%TD*%
%TA.AperFunction,Conductor*%
%TO.N,/MOSI*%
G36*
X131638081Y-91946112D02*
G01*
X131644396Y-91952461D01*
X131644858Y-91953813D01*
X131683237Y-92093641D01*
X131683647Y-92096340D01*
X131687751Y-92216931D01*
X131687758Y-92217367D01*
X131687416Y-92323303D01*
X131716153Y-92429072D01*
X131762719Y-92490749D01*
X131801420Y-92542007D01*
X131803670Y-92550675D01*
X131800355Y-92557330D01*
X131674199Y-92683486D01*
X131665926Y-92686913D01*
X131657864Y-92683691D01*
X131604896Y-92633319D01*
X131564425Y-92594832D01*
X131564420Y-92594828D01*
X131564415Y-92594823D01*
X131485329Y-92533263D01*
X131485325Y-92533261D01*
X131485323Y-92533259D01*
X131452771Y-92515154D01*
X131408894Y-92490749D01*
X131408887Y-92490746D01*
X131315190Y-92451180D01*
X131315142Y-92451161D01*
X131315131Y-92451156D01*
X131274233Y-92434681D01*
X131194990Y-92402760D01*
X131188597Y-92396490D01*
X131188509Y-92387538D01*
X131315437Y-92078806D01*
X131321748Y-92072461D01*
X131629128Y-91946089D01*
X131638081Y-91946112D01*
G37*
%TD.AperFunction*%
%TD*%
%TA.AperFunction,Conductor*%
%TO.N,/SCL*%
G36*
X134129442Y-94931853D02*
G01*
X134130102Y-94932153D01*
X134255974Y-94994301D01*
X134257076Y-94994923D01*
X134352001Y-95055564D01*
X134352013Y-95055571D01*
X134435256Y-95104909D01*
X134435259Y-95104909D01*
X134435261Y-95104911D01*
X134503922Y-95127366D01*
X134536273Y-95137947D01*
X134536274Y-95137947D01*
X134536277Y-95137948D01*
X134674246Y-95149128D01*
X134682214Y-95153212D01*
X134685000Y-95160790D01*
X134685000Y-95339209D01*
X134681573Y-95347482D01*
X134674245Y-95350871D01*
X134536272Y-95362051D01*
X134435263Y-95395086D01*
X134435256Y-95395088D01*
X134352013Y-95444426D01*
X134257085Y-95505070D01*
X134255966Y-95505701D01*
X134130116Y-95567839D01*
X134121181Y-95568429D01*
X134114445Y-95562528D01*
X134114138Y-95561854D01*
X134044546Y-95395088D01*
X133985879Y-95254505D01*
X133985857Y-95245551D01*
X133985880Y-95245494D01*
X134114139Y-94938143D01*
X134120487Y-94931830D01*
X134129442Y-94931853D01*
G37*
%TD.AperFunction*%
%TD*%
%TA.AperFunction,Conductor*%
%TO.N,GND*%
G36*
X119380000Y-100203000D02*
G01*
X118745000Y-100203000D01*
X118229000Y-100715000D01*
X118229000Y-99315000D01*
X118364000Y-99060000D01*
X119380000Y-99060000D01*
X119380000Y-100203000D01*
G37*
%TD.AperFunction*%
%TD*%
%TA.AperFunction,Conductor*%
%TO.N,/SDA*%
G36*
X130045554Y-95445471D02*
G01*
X130045861Y-95446145D01*
X130174119Y-95753494D01*
X130174142Y-95762449D01*
X130174119Y-95762506D01*
X130045861Y-96069854D01*
X130039512Y-96076169D01*
X130030557Y-96076146D01*
X130029883Y-96075839D01*
X129904032Y-96013701D01*
X129902913Y-96013070D01*
X129807985Y-95952426D01*
X129724742Y-95903088D01*
X129724735Y-95903086D01*
X129623725Y-95870051D01*
X129623727Y-95870051D01*
X129485755Y-95858871D01*
X129477786Y-95854787D01*
X129475000Y-95847209D01*
X129475000Y-95668790D01*
X129478427Y-95660517D01*
X129485753Y-95657128D01*
X129623722Y-95645948D01*
X129724737Y-95612911D01*
X129807998Y-95563564D01*
X129902929Y-95502918D01*
X129904016Y-95502305D01*
X130029885Y-95440159D01*
X130038819Y-95439570D01*
X130045554Y-95445471D01*
G37*
%TD.AperFunction*%
%TD*%
%TA.AperFunction,Conductor*%
%TO.N,/SDA*%
G36*
X122900956Y-94310302D02*
G01*
X123006420Y-94399955D01*
X123101209Y-94448023D01*
X123167918Y-94465084D01*
X123194967Y-94472002D01*
X123194975Y-94472003D01*
X123194976Y-94472004D01*
X123304967Y-94496243D01*
X123306203Y-94496588D01*
X123439134Y-94541641D01*
X123445869Y-94547542D01*
X123446459Y-94556478D01*
X123446199Y-94557171D01*
X123319563Y-94865191D01*
X123313248Y-94871540D01*
X123313191Y-94871563D01*
X123005171Y-94998199D01*
X122996216Y-94998176D01*
X122989901Y-94991827D01*
X122989641Y-94991134D01*
X122944588Y-94858203D01*
X122944243Y-94856965D01*
X122920002Y-94746967D01*
X122913084Y-94719918D01*
X122896023Y-94653209D01*
X122847955Y-94558420D01*
X122758302Y-94452956D01*
X122755555Y-94444435D01*
X122758943Y-94437108D01*
X122885108Y-94310943D01*
X122893380Y-94307517D01*
X122900956Y-94310302D01*
G37*
%TD.AperFunction*%
%TD*%
%TA.AperFunction,Conductor*%
%TO.N,/CS_SD*%
G36*
X122318442Y-95566853D02*
G01*
X122319102Y-95567153D01*
X122444974Y-95629301D01*
X122446076Y-95629923D01*
X122541001Y-95690564D01*
X122541013Y-95690571D01*
X122624256Y-95739909D01*
X122624259Y-95739909D01*
X122624261Y-95739911D01*
X122692922Y-95762366D01*
X122725273Y-95772947D01*
X122725274Y-95772947D01*
X122725277Y-95772948D01*
X122863246Y-95784128D01*
X122871214Y-95788212D01*
X122874000Y-95795790D01*
X122874000Y-95974209D01*
X122870573Y-95982482D01*
X122863245Y-95985871D01*
X122725272Y-95997051D01*
X122624263Y-96030086D01*
X122624256Y-96030088D01*
X122541013Y-96079426D01*
X122446085Y-96140070D01*
X122444966Y-96140701D01*
X122319116Y-96202839D01*
X122310181Y-96203429D01*
X122303445Y-96197528D01*
X122303138Y-96196854D01*
X122233546Y-96030088D01*
X122174879Y-95889505D01*
X122174857Y-95880551D01*
X122174880Y-95880494D01*
X122303139Y-95573143D01*
X122309487Y-95566830D01*
X122318442Y-95566853D01*
G37*
%TD.AperFunction*%
%TD*%
%TA.AperFunction,Conductor*%
%TO.N,/SCL*%
G36*
X123441515Y-93159545D02*
G01*
X123442068Y-93160694D01*
X123568694Y-93465457D01*
X123568703Y-93474412D01*
X123566138Y-93478243D01*
X123331133Y-93711909D01*
X123322851Y-93715312D01*
X123315316Y-93712535D01*
X123314578Y-93711909D01*
X123217729Y-93629765D01*
X123217727Y-93629763D01*
X123217726Y-93629763D01*
X123217725Y-93629762D01*
X123156306Y-93595321D01*
X123130524Y-93580864D01*
X123130520Y-93580862D01*
X123130516Y-93580860D01*
X123050055Y-93545805D01*
X123049005Y-93545284D01*
X122963292Y-93497219D01*
X122961447Y-93495937D01*
X122907528Y-93450206D01*
X122866209Y-93415161D01*
X122862117Y-93407197D01*
X122864855Y-93398671D01*
X122865493Y-93397978D01*
X122991179Y-93272292D01*
X122999451Y-93268866D01*
X123005921Y-93270818D01*
X123038461Y-93292415D01*
X123085155Y-93323407D01*
X123161464Y-93318825D01*
X123238081Y-93273614D01*
X123325621Y-93210035D01*
X123326849Y-93209255D01*
X123425626Y-93154930D01*
X123434525Y-93153947D01*
X123441515Y-93159545D01*
G37*
%TD.AperFunction*%
%TD*%
%TA.AperFunction,Conductor*%
%TO.N,Net-(SW1-A)*%
G36*
X157686132Y-80883318D02*
G01*
X157689500Y-80891450D01*
X157689500Y-81488417D01*
X157714558Y-81581936D01*
X157714950Y-81584912D01*
X157714950Y-81672931D01*
X157711582Y-81681063D01*
X157708579Y-81683224D01*
X155907623Y-82580543D01*
X155902494Y-82581750D01*
X152716300Y-82581750D01*
X152708168Y-82578382D01*
X152704800Y-82570250D01*
X152704800Y-80942250D01*
X152708168Y-80934118D01*
X152716300Y-80930750D01*
X155905193Y-80930750D01*
X155905200Y-80930750D01*
X155908311Y-80930561D01*
X155908980Y-80930521D01*
X155909674Y-80930500D01*
X155929672Y-80930500D01*
X155929674Y-80930500D01*
X155937841Y-80928875D01*
X155939354Y-80928680D01*
X156743053Y-80879970D01*
X156743749Y-80879950D01*
X157678000Y-80879950D01*
X157686132Y-80883318D01*
G37*
%TD.AperFunction*%
%TD*%
%TA.AperFunction,Conductor*%
%TO.N,/MISO*%
G36*
X129364309Y-88597277D02*
G01*
X129364672Y-88597623D01*
X129439276Y-88671802D01*
X129600746Y-88832352D01*
X129604197Y-88840615D01*
X129604197Y-88840672D01*
X129603525Y-89173696D01*
X129600081Y-89181962D01*
X129591801Y-89185372D01*
X129590749Y-89185322D01*
X129480974Y-89175185D01*
X129469991Y-89174170D01*
X129468562Y-89173949D01*
X129405390Y-89160086D01*
X129365095Y-89151243D01*
X129276954Y-89139407D01*
X129276951Y-89139407D01*
X129190811Y-89160086D01*
X129100782Y-89228583D01*
X129092123Y-89230866D01*
X129085425Y-89227545D01*
X128959132Y-89101252D01*
X128955705Y-89092979D01*
X128958762Y-89085093D01*
X129059174Y-88975049D01*
X129126636Y-88882898D01*
X129180423Y-88799741D01*
X129180799Y-88799195D01*
X129247704Y-88707806D01*
X129248482Y-88706856D01*
X129347782Y-88598032D01*
X129355888Y-88594232D01*
X129364309Y-88597277D01*
G37*
%TD.AperFunction*%
%TD*%
%TA.AperFunction,Conductor*%
%TO.N,/SDA*%
G36*
X126304784Y-94739823D02*
G01*
X126311099Y-94746172D01*
X126311359Y-94746866D01*
X126356410Y-94879793D01*
X126356755Y-94881030D01*
X126380995Y-94991030D01*
X126404975Y-95084789D01*
X126453043Y-95179578D01*
X126505781Y-95241617D01*
X126542696Y-95285041D01*
X126545444Y-95293564D01*
X126542055Y-95300892D01*
X126415892Y-95427055D01*
X126407619Y-95430482D01*
X126400041Y-95427696D01*
X126294580Y-95338045D01*
X126294578Y-95338043D01*
X126199789Y-95289975D01*
X126106030Y-95265995D01*
X125996030Y-95241755D01*
X125994793Y-95241410D01*
X125861866Y-95196359D01*
X125855130Y-95190458D01*
X125854540Y-95181523D01*
X125854790Y-95180853D01*
X125981437Y-94872806D01*
X125987748Y-94866461D01*
X126295831Y-94739800D01*
X126304784Y-94739823D01*
G37*
%TD.AperFunction*%
%TD*%
%TA.AperFunction,Conductor*%
%TO.N,+3V3*%
G36*
X133092632Y-110255632D02*
G01*
X133096000Y-110263764D01*
X133096000Y-111224236D01*
X133092632Y-111232368D01*
X133084500Y-111235736D01*
X133076368Y-111232368D01*
X132596132Y-110752132D01*
X132592764Y-110744000D01*
X132596132Y-110735868D01*
X133076368Y-110255632D01*
X133084500Y-110252264D01*
X133092632Y-110255632D01*
G37*
%TD.AperFunction*%
%TD*%
%TA.AperFunction,Conductor*%
%TO.N,/SW4*%
G36*
X131188554Y-93159471D02*
G01*
X131188861Y-93160145D01*
X131317119Y-93467494D01*
X131317142Y-93476449D01*
X131317119Y-93476506D01*
X131188861Y-93783854D01*
X131182512Y-93790169D01*
X131173557Y-93790146D01*
X131172883Y-93789839D01*
X131047032Y-93727701D01*
X131045913Y-93727070D01*
X130950985Y-93666426D01*
X130867742Y-93617088D01*
X130867735Y-93617086D01*
X130766725Y-93584051D01*
X130766727Y-93584051D01*
X130628755Y-93572871D01*
X130620786Y-93568787D01*
X130618000Y-93561209D01*
X130618000Y-93382790D01*
X130621427Y-93374517D01*
X130628753Y-93371128D01*
X130766722Y-93359948D01*
X130766724Y-93359947D01*
X130766726Y-93359947D01*
X130790870Y-93352050D01*
X130867738Y-93326911D01*
X130867740Y-93326909D01*
X130867742Y-93326909D01*
X130896433Y-93309903D01*
X130950998Y-93277564D01*
X131045929Y-93216918D01*
X131047016Y-93216305D01*
X131172885Y-93154159D01*
X131181819Y-93153570D01*
X131188554Y-93159471D01*
G37*
%TD.AperFunction*%
%TD*%
%TA.AperFunction,Conductor*%
%TO.N,/SCK*%
G36*
X125217883Y-95315427D02*
G01*
X125221271Y-95322753D01*
X125226338Y-95385282D01*
X125232451Y-95460726D01*
X125265486Y-95561735D01*
X125265488Y-95561742D01*
X125314826Y-95644985D01*
X125375470Y-95739913D01*
X125376101Y-95741032D01*
X125438239Y-95866883D01*
X125438829Y-95875819D01*
X125432928Y-95882554D01*
X125432254Y-95882861D01*
X125124906Y-96011119D01*
X125115951Y-96011142D01*
X125115894Y-96011119D01*
X124808545Y-95882861D01*
X124802230Y-95876512D01*
X124802253Y-95867557D01*
X124802548Y-95866908D01*
X124864705Y-95741016D01*
X124865318Y-95739929D01*
X124925964Y-95644998D01*
X124975311Y-95561738D01*
X125008348Y-95460722D01*
X125010726Y-95431371D01*
X125011081Y-95429318D01*
X125014500Y-95416562D01*
X125014500Y-95385282D01*
X125014538Y-95384337D01*
X125019528Y-95322755D01*
X125023612Y-95314786D01*
X125031190Y-95312000D01*
X125209610Y-95312000D01*
X125217883Y-95315427D01*
G37*
%TD.AperFunction*%
%TD*%
%TA.AperFunction,Conductor*%
%TO.N,/SCK*%
G36*
X132892892Y-88976944D02*
G01*
X133019055Y-89103107D01*
X133022482Y-89111380D01*
X133019696Y-89118958D01*
X132930045Y-89224417D01*
X132930042Y-89224421D01*
X132881975Y-89319208D01*
X132857995Y-89412967D01*
X132833754Y-89522968D01*
X132833409Y-89524205D01*
X132788359Y-89657133D01*
X132782458Y-89663869D01*
X132773523Y-89664459D01*
X132772829Y-89664199D01*
X132464808Y-89537563D01*
X132458460Y-89531249D01*
X132331800Y-89223168D01*
X132331823Y-89214216D01*
X132338172Y-89207901D01*
X132338855Y-89207644D01*
X132471801Y-89162586D01*
X132473026Y-89162244D01*
X132583022Y-89138004D01*
X132676789Y-89114023D01*
X132771578Y-89065955D01*
X132877043Y-88976302D01*
X132885564Y-88973555D01*
X132892892Y-88976944D01*
G37*
%TD.AperFunction*%
%TD*%
M02*
