%TF.GenerationSoftware,KiCad,Pcbnew,9.0.6*%
%TF.CreationDate,2026-01-30T18:10:03-05:00*%
%TF.ProjectId,destinationWeatherStation_v4-5,64657374-696e-4617-9469-6f6e57656174,03*%
%TF.SameCoordinates,Original*%
%TF.FileFunction,Legend,Top*%
%TF.FilePolarity,Positive*%
%FSLAX46Y46*%
G04 Gerber Fmt 4.6, Leading zero omitted, Abs format (unit mm)*
G04 Created by KiCad (PCBNEW 9.0.6) date 2026-01-30 18:10:03*
%MOMM*%
%LPD*%
G01*
G04 APERTURE LIST*
%ADD10C,0.150000*%
%ADD11C,0.120000*%
%ADD12C,0.300000*%
%ADD13C,0.250000*%
%ADD14C,0.100000*%
%ADD15C,0.000000*%
%ADD16C,0.200000*%
G04 APERTURE END LIST*
D10*
X156210000Y-86106000D02*
X156083000Y-86360000D01*
D11*
X163200000Y-87503000D02*
X163200000Y-85030000D01*
D10*
X156718000Y-86106000D02*
X155956000Y-86106000D01*
G36*
X143236950Y-72955150D02*
G01*
X151384000Y-72955150D01*
X151384000Y-73533000D01*
X143236950Y-73533000D01*
X143236950Y-72955150D01*
G37*
D12*
X175260000Y-83375500D02*
X175260000Y-81724500D01*
D11*
X150367000Y-89095000D02*
X151755000Y-89095000D01*
D12*
X175260000Y-89344500D02*
X175260000Y-90995500D01*
D11*
X155585000Y-86995000D02*
X156972000Y-86995000D01*
G36*
X144900650Y-73518800D02*
G01*
X149733000Y-73518800D01*
X149733000Y-73976000D01*
X144900650Y-73976000D01*
X144900650Y-73518800D01*
G37*
G36*
X114401600Y-84537550D02*
G01*
X115062000Y-84537550D01*
X115062000Y-90817700D01*
X114401600Y-90817700D01*
X114401600Y-84537550D01*
G37*
D12*
X174382500Y-105410000D02*
X176033500Y-105410000D01*
D11*
X167500000Y-73960000D02*
X167500000Y-76450000D01*
X150367000Y-86995000D02*
X151754000Y-86995000D01*
X163200000Y-73957000D02*
X167500000Y-73957000D01*
X155584000Y-87585000D02*
X155584000Y-88198000D01*
X151755000Y-84895000D02*
X150367000Y-84895000D01*
D10*
X176160500Y-105410000D02*
X175652500Y-105791000D01*
X175652500Y-105029000D01*
X176160500Y-105410000D01*
G36*
X176160500Y-105410000D02*
G01*
X175652500Y-105791000D01*
X175652500Y-105029000D01*
X176160500Y-105410000D01*
G37*
X151066500Y-87630000D02*
X151066500Y-88265000D01*
D11*
X151755000Y-85792000D02*
X151755000Y-86405000D01*
D10*
X156337000Y-85471000D02*
X156337000Y-86106000D01*
X156718000Y-86106000D02*
X156591000Y-86360000D01*
X150685500Y-88265000D02*
X150558500Y-88519000D01*
X151447500Y-88265000D02*
X151320500Y-88519000D01*
D11*
X155584000Y-84895000D02*
X156972000Y-84895000D01*
X150367000Y-84895000D02*
X150367000Y-86995000D01*
D10*
X174867500Y-98171000D02*
X174359500Y-97790000D01*
X174867500Y-97409000D01*
X174867500Y-98171000D01*
G36*
X174867500Y-98171000D02*
G01*
X174359500Y-97790000D01*
X174867500Y-97409000D01*
X174867500Y-98171000D01*
G37*
X175641000Y-82105500D02*
X174879000Y-82105500D01*
X175260000Y-81597500D01*
X175641000Y-82105500D01*
G36*
X175641000Y-82105500D02*
G01*
X174879000Y-82105500D01*
X175260000Y-81597500D01*
X175641000Y-82105500D01*
G37*
G36*
X114947700Y-99688650D02*
G01*
X116109750Y-99688650D01*
X116109750Y-112191800D01*
X114947700Y-112191800D01*
X114947700Y-99688650D01*
G37*
D11*
X156972000Y-84895000D02*
X156972000Y-86995000D01*
D10*
X150939500Y-88265000D02*
X150812500Y-88519000D01*
G36*
X114808000Y-85629750D02*
G01*
X115487450Y-85629750D01*
X115487450Y-89630250D01*
X114808000Y-89630250D01*
X114808000Y-85629750D01*
G37*
D11*
X163200000Y-76450000D02*
X163200000Y-73957000D01*
D10*
X156464000Y-86106000D02*
X156337000Y-86360000D01*
D11*
X156972000Y-86995000D02*
X156972000Y-89095000D01*
D12*
X176137500Y-97790000D02*
X174486500Y-97790000D01*
D11*
X150367000Y-86995000D02*
X150367000Y-89095000D01*
X163270000Y-87500000D02*
X163270000Y-85870000D01*
D10*
X155956000Y-86106000D02*
X155829000Y-86360000D01*
D11*
X167500000Y-87503000D02*
X163204000Y-87503000D01*
X156972000Y-89095000D02*
X155584000Y-89095000D01*
D10*
X151447500Y-88265000D02*
X150685500Y-88265000D01*
X175260000Y-91122500D02*
X174879000Y-90614500D01*
X175641000Y-90614500D01*
X175260000Y-91122500D01*
G36*
X175260000Y-91122500D02*
G01*
X174879000Y-90614500D01*
X175641000Y-90614500D01*
X175260000Y-91122500D01*
G37*
X151193500Y-88265000D02*
X151066500Y-88519000D01*
D11*
X167500000Y-85050000D02*
X167500000Y-87503000D01*
D10*
G36*
X114515363Y-113142931D02*
G01*
X114507962Y-113229863D01*
X114488244Y-113293697D01*
X114458521Y-113339978D01*
X114416398Y-113374338D01*
X114360178Y-113396228D01*
X114285359Y-113404265D01*
X114218735Y-113398610D01*
X114166771Y-113383146D01*
X114126358Y-113359234D01*
X114095291Y-113326950D01*
X114067124Y-113271781D01*
X114046912Y-113185430D01*
X114038914Y-113056078D01*
X114038914Y-112819947D01*
X114515363Y-112819947D01*
X114515363Y-113142931D01*
G37*
G36*
X114520326Y-112078907D02*
G01*
X114516119Y-112122408D01*
X114506445Y-112144434D01*
X114488970Y-112157341D01*
X114459529Y-112162270D01*
X114372677Y-112162270D01*
X114343236Y-112157341D01*
X114325761Y-112144434D01*
X114316087Y-112122408D01*
X114311880Y-112078907D01*
X114311880Y-111660463D01*
X114520326Y-111660463D01*
X114520326Y-112078907D01*
G37*
G36*
X114513967Y-110742848D02*
G01*
X114202693Y-110918260D01*
X114202693Y-110573563D01*
X114513967Y-110742848D01*
G37*
G36*
X114654328Y-107374357D02*
G01*
X114649060Y-107449570D01*
X114634490Y-107510637D01*
X114611915Y-107560132D01*
X114581821Y-107600096D01*
X114543405Y-107632180D01*
X114496399Y-107655896D01*
X114438993Y-107671039D01*
X114368799Y-107676480D01*
X114290080Y-107669788D01*
X114228265Y-107651431D01*
X114179811Y-107622959D01*
X114142207Y-107584432D01*
X114115471Y-107537988D01*
X114093935Y-107473791D01*
X114079203Y-107386990D01*
X114073655Y-107271917D01*
X114073655Y-106995849D01*
X114654328Y-106995849D01*
X114654328Y-107374357D01*
G37*
G36*
X114510400Y-104777770D02*
G01*
X114043877Y-104777770D01*
X114043877Y-104171817D01*
X114510400Y-104171817D01*
X114510400Y-104777770D01*
G37*
G36*
X114520326Y-103450706D02*
G01*
X114516119Y-103494207D01*
X114506445Y-103516233D01*
X114488970Y-103529140D01*
X114459529Y-103534069D01*
X114372677Y-103534069D01*
X114343236Y-103529140D01*
X114325761Y-103516233D01*
X114316087Y-103494207D01*
X114311880Y-103450706D01*
X114311880Y-103032262D01*
X114520326Y-103032262D01*
X114520326Y-103450706D01*
G37*
G36*
X114959218Y-113733738D02*
G01*
X113758839Y-113733738D01*
X113758839Y-113056078D01*
X113899950Y-113056078D01*
X113899950Y-113095162D01*
X113907097Y-113223248D01*
X113926591Y-113325251D01*
X113956111Y-113405813D01*
X113994247Y-113468861D01*
X114045880Y-113521866D01*
X114108555Y-113560074D01*
X114184545Y-113584068D01*
X114277216Y-113592627D01*
X114365209Y-113584648D01*
X114438735Y-113562118D01*
X114500622Y-113526029D01*
X114552819Y-113475841D01*
X114592739Y-113415636D01*
X114622867Y-113341768D01*
X114642338Y-113251433D01*
X114649365Y-113141225D01*
X114649365Y-112635075D01*
X113899950Y-112635075D01*
X113899950Y-113056078D01*
X113758839Y-113056078D01*
X113758839Y-111660463D01*
X113899950Y-111660463D01*
X114182841Y-111660463D01*
X114182841Y-111833238D01*
X113899950Y-112148389D01*
X113899950Y-112411429D01*
X114182841Y-112053782D01*
X114182841Y-112078907D01*
X114182841Y-112157075D01*
X114187398Y-112218441D01*
X114199267Y-112261768D01*
X114216574Y-112291619D01*
X114242086Y-112313764D01*
X114277619Y-112328028D01*
X114326614Y-112333339D01*
X114503809Y-112333339D01*
X114553397Y-112328018D01*
X114589326Y-112313740D01*
X114615089Y-112291619D01*
X114632695Y-112261721D01*
X114644743Y-112218389D01*
X114649365Y-112157075D01*
X114649365Y-111479933D01*
X113899950Y-111479933D01*
X113899950Y-111660463D01*
X113758839Y-111660463D01*
X113758839Y-110400788D01*
X113899950Y-110400788D01*
X114063729Y-110495395D01*
X114063729Y-110918260D01*
X114063729Y-110992860D01*
X113899950Y-111087545D01*
X113899950Y-111293277D01*
X114649365Y-110840092D01*
X114649365Y-110663827D01*
X113899950Y-110217621D01*
X113899950Y-110400788D01*
X113758839Y-110400788D01*
X113758839Y-109184306D01*
X113899950Y-109184306D01*
X113899950Y-109732099D01*
X113906479Y-109820195D01*
X113922852Y-109877166D01*
X113945780Y-109912241D01*
X113980001Y-109936105D01*
X114034667Y-109952899D01*
X114118245Y-109959545D01*
X114227586Y-109959545D01*
X114272176Y-109745980D01*
X114073655Y-109745980D01*
X114073655Y-109170348D01*
X114654328Y-109170348D01*
X114654328Y-109745980D01*
X114480622Y-109745980D01*
X114514510Y-109959545D01*
X114601363Y-109959545D01*
X114683688Y-109952932D01*
X114737889Y-109936167D01*
X114772122Y-109912241D01*
X114795134Y-109877151D01*
X114811558Y-109820178D01*
X114818107Y-109732099D01*
X114818107Y-109184306D01*
X114811534Y-109095569D01*
X114795089Y-109038499D01*
X114772122Y-109003622D01*
X114737934Y-108979952D01*
X114683739Y-108963340D01*
X114601363Y-108956783D01*
X114118245Y-108956783D01*
X114034616Y-108963373D01*
X113979956Y-108980013D01*
X113945780Y-109003622D01*
X113922896Y-109038485D01*
X113906504Y-109095552D01*
X113899950Y-109184306D01*
X113758839Y-109184306D01*
X113758839Y-107271917D01*
X113899950Y-107271917D01*
X113899950Y-107317903D01*
X113904657Y-107450602D01*
X113916855Y-107545814D01*
X113939815Y-107629934D01*
X113971215Y-107694704D01*
X114015375Y-107754074D01*
X114069019Y-107803628D01*
X114133134Y-107844060D01*
X114203507Y-107873127D01*
X114280277Y-107890911D01*
X114364689Y-107897024D01*
X114451838Y-107890986D01*
X114527277Y-107873810D01*
X114592852Y-107846412D01*
X114650051Y-107809020D01*
X114699925Y-107761162D01*
X114749041Y-107690682D01*
X114785878Y-107604677D01*
X114809577Y-107499974D01*
X114818107Y-107372651D01*
X114818107Y-106782285D01*
X113899950Y-106782285D01*
X113899950Y-107271917D01*
X113758839Y-107271917D01*
X113758839Y-105543935D01*
X113899950Y-105543935D01*
X113899950Y-106110804D01*
X113906555Y-106200113D01*
X113923083Y-106257583D01*
X113946168Y-106292730D01*
X113980647Y-106316644D01*
X114035245Y-106333416D01*
X114118167Y-106340034D01*
X114243561Y-106340034D01*
X114326048Y-106333421D01*
X114380378Y-106316654D01*
X114414707Y-106292730D01*
X114437708Y-106257598D01*
X114454184Y-106200131D01*
X114460770Y-106110804D01*
X114460770Y-105538662D01*
X114659291Y-105538662D01*
X114659291Y-106139497D01*
X114555067Y-106139497D01*
X114599347Y-106327859D01*
X114618501Y-106327859D01*
X114691513Y-106321230D01*
X114741271Y-106304070D01*
X114774216Y-106278771D01*
X114796266Y-106242925D01*
X114811915Y-106186245D01*
X114818107Y-106100413D01*
X114818107Y-105579529D01*
X114811572Y-105490758D01*
X114795231Y-105433693D01*
X114772432Y-105398844D01*
X114738445Y-105375160D01*
X114684614Y-105358556D01*
X114602836Y-105352006D01*
X114500397Y-105352006D01*
X114417423Y-105358567D01*
X114362832Y-105375187D01*
X114328397Y-105398844D01*
X114305261Y-105433752D01*
X114288714Y-105490826D01*
X114282102Y-105579529D01*
X114282102Y-106151594D01*
X114073655Y-106151594D01*
X114073655Y-105503068D01*
X114182841Y-105503068D01*
X114143525Y-105314706D01*
X114118167Y-105314706D01*
X114035245Y-105321323D01*
X113980647Y-105338096D01*
X113946168Y-105362010D01*
X113923083Y-105397157D01*
X113906555Y-105454626D01*
X113899950Y-105543935D01*
X113758839Y-105543935D01*
X113758839Y-104183991D01*
X113899950Y-104183991D01*
X113899950Y-104765595D01*
X113900805Y-104777770D01*
X113905306Y-104841863D01*
X113918664Y-104890783D01*
X113937172Y-104920534D01*
X113965207Y-104941008D01*
X114009726Y-104955301D01*
X114077532Y-104960936D01*
X114471627Y-104960936D01*
X114539365Y-104955410D01*
X114583869Y-104941403D01*
X114611909Y-104921387D01*
X114630459Y-104892088D01*
X114643931Y-104843053D01*
X114649365Y-104765595D01*
X114649365Y-104183991D01*
X114643956Y-104107142D01*
X114630502Y-104058146D01*
X114611909Y-104028587D01*
X114583832Y-104008357D01*
X114539322Y-103994222D01*
X114471627Y-103988650D01*
X114077532Y-103988650D01*
X114009674Y-103994230D01*
X113965162Y-104008371D01*
X113937172Y-104028587D01*
X113918704Y-104058124D01*
X113905329Y-104107116D01*
X113899950Y-104183991D01*
X113758839Y-104183991D01*
X113758839Y-103032262D01*
X113899950Y-103032262D01*
X114182841Y-103032262D01*
X114182841Y-103205037D01*
X113899950Y-103520188D01*
X113899950Y-103783228D01*
X114182841Y-103425581D01*
X114182841Y-103450706D01*
X114182841Y-103528874D01*
X114187398Y-103590240D01*
X114199267Y-103633567D01*
X114216574Y-103663418D01*
X114242086Y-103685563D01*
X114277619Y-103699827D01*
X114326614Y-103705138D01*
X114503809Y-103705138D01*
X114553397Y-103699817D01*
X114589326Y-103685539D01*
X114615089Y-103663418D01*
X114632695Y-103633520D01*
X114644743Y-103590188D01*
X114649365Y-103528874D01*
X114649365Y-102851732D01*
X113899950Y-102851732D01*
X113899950Y-103032262D01*
X113758839Y-103032262D01*
X113758839Y-101884875D01*
X113899950Y-101884875D01*
X113899950Y-102354500D01*
X113905366Y-102431314D01*
X113918884Y-102480669D01*
X113937637Y-102510758D01*
X113965929Y-102531536D01*
X114010376Y-102545961D01*
X114077532Y-102551625D01*
X114165548Y-102551625D01*
X114202693Y-102366675D01*
X114043877Y-102366675D01*
X114043877Y-101872700D01*
X114510400Y-101872700D01*
X114510400Y-102366675D01*
X114371436Y-102366675D01*
X114398345Y-102551625D01*
X114471317Y-102551625D01*
X114539069Y-102545998D01*
X114583661Y-102531709D01*
X114611832Y-102511223D01*
X114630457Y-102481408D01*
X114643942Y-102431993D01*
X114649365Y-102354500D01*
X114649365Y-101884875D01*
X114643971Y-101808641D01*
X114630510Y-101759685D01*
X114611832Y-101729858D01*
X114583668Y-101709415D01*
X114539077Y-101695152D01*
X114471317Y-101689534D01*
X114077532Y-101689534D01*
X114009769Y-101695214D01*
X113965244Y-101709634D01*
X113937172Y-101730324D01*
X113918621Y-101760336D01*
X113905282Y-101809213D01*
X113899950Y-101884875D01*
X113758839Y-101884875D01*
X113758839Y-101372676D01*
X113899950Y-101372676D01*
X114649365Y-101372676D01*
X114649365Y-101190363D01*
X113899950Y-101190363D01*
X113899950Y-101372676D01*
X113758839Y-101372676D01*
X113758839Y-99973494D01*
X113899950Y-99973494D01*
X114403618Y-99973494D01*
X113989982Y-100313771D01*
X113989982Y-100349365D01*
X114415715Y-100685376D01*
X113899950Y-100685376D01*
X113899950Y-100855515D01*
X114649365Y-100855515D01*
X114649365Y-100707943D01*
X114204555Y-100341610D01*
X114649365Y-99973494D01*
X114649365Y-99826775D01*
X113899950Y-99826775D01*
X113899950Y-99973494D01*
X113758839Y-99973494D01*
X113758839Y-99685664D01*
X114959218Y-99685664D01*
X114959218Y-113733738D01*
G37*
G36*
X141251053Y-118339256D02*
G01*
X141261943Y-118343818D01*
X141294855Y-118367631D01*
X141315444Y-118386457D01*
X141329232Y-118406100D01*
X141528046Y-118802139D01*
X141551606Y-118860934D01*
X141558821Y-118912720D01*
X141553203Y-118955402D01*
X141535007Y-118999488D01*
X141333445Y-119366157D01*
X141315262Y-119396101D01*
X141296992Y-119417937D01*
X141276230Y-119435107D01*
X141254311Y-119446635D01*
X141207416Y-119457809D01*
X141164002Y-119462023D01*
X141106605Y-119465503D01*
X141032416Y-119466907D01*
X140934414Y-119466907D01*
X140861629Y-119466907D01*
X140843217Y-119461856D01*
X140828718Y-119445903D01*
X140819898Y-119423546D01*
X140816811Y-119396810D01*
X140819251Y-119372951D01*
X140825909Y-119354800D01*
X140837378Y-119342101D01*
X140853203Y-119337947D01*
X140959571Y-119337947D01*
X140959571Y-119336543D01*
X141103796Y-119336543D01*
X141133166Y-119337947D01*
X141175863Y-119332842D01*
X141211568Y-119318225D01*
X141308899Y-119146583D01*
X141354645Y-119051247D01*
X141387973Y-118957966D01*
X141407573Y-118886220D01*
X141383759Y-118810199D01*
X141348191Y-118723944D01*
X141301144Y-118635688D01*
X141200394Y-118476625D01*
X141159447Y-118465762D01*
X141127610Y-118462581D01*
X141103796Y-118462581D01*
X141103796Y-119336543D01*
X140959571Y-119336543D01*
X140959571Y-118462581D01*
X140841968Y-118462581D01*
X140825707Y-118459116D01*
X140813941Y-118449025D01*
X140806737Y-118434138D01*
X140804171Y-118415015D01*
X140808008Y-118387509D01*
X140819558Y-118362014D01*
X140837154Y-118343122D01*
X140855951Y-118337528D01*
X141235382Y-118337528D01*
X141251053Y-118339256D01*
G37*
G36*
X142116061Y-118682338D02*
G01*
X142158803Y-118699252D01*
X142213337Y-118745242D01*
X142266575Y-118797621D01*
X142283367Y-118846164D01*
X142296006Y-118897455D01*
X142296006Y-119122403D01*
X142261019Y-119154765D01*
X142244450Y-119163122D01*
X142224627Y-119166000D01*
X141733210Y-119166000D01*
X141733210Y-119250203D01*
X141751761Y-119277855D01*
X141777296Y-119301616D01*
X141807381Y-119319499D01*
X141839639Y-119330131D01*
X142252592Y-119330131D01*
X142279002Y-119346617D01*
X142293765Y-119367541D01*
X142298815Y-119394306D01*
X142294147Y-119421813D01*
X142280202Y-119445640D01*
X142255401Y-119466907D01*
X141779372Y-119466907D01*
X141729748Y-119447393D01*
X141684930Y-119418772D01*
X141644244Y-119380323D01*
X141612220Y-119335101D01*
X141593726Y-119288311D01*
X141587580Y-119238724D01*
X141587580Y-118882312D01*
X141733210Y-118882312D01*
X141733210Y-119033132D01*
X142146225Y-119033132D01*
X142146225Y-118873825D01*
X142108103Y-118838243D01*
X142064866Y-118817473D01*
X142014639Y-118810383D01*
X141828404Y-118810383D01*
X141799033Y-118820946D01*
X141771006Y-118832914D01*
X141747926Y-118859048D01*
X141733210Y-118882312D01*
X141587580Y-118882312D01*
X141587580Y-118872542D01*
X141602277Y-118828886D01*
X141626229Y-118788727D01*
X141660364Y-118751398D01*
X141721953Y-118705130D01*
X141793416Y-118669699D01*
X142074784Y-118669699D01*
X142116061Y-118682338D01*
G37*
G36*
X143110373Y-119169542D02*
G01*
X143117395Y-119239273D01*
X143110856Y-119300580D01*
X143092177Y-119352357D01*
X143061592Y-119395927D01*
X143020797Y-119427767D01*
X142974895Y-119451366D01*
X142935373Y-119466907D01*
X142554599Y-119466907D01*
X142511798Y-119452535D01*
X142478334Y-119437415D01*
X142448242Y-119417816D01*
X142418800Y-119390520D01*
X142408374Y-119364827D01*
X142404817Y-119335749D01*
X142409737Y-119305103D01*
X142423684Y-119281771D01*
X142446024Y-119267132D01*
X142479005Y-119263697D01*
X142501952Y-119269903D01*
X142537807Y-119294472D01*
X142585434Y-119330131D01*
X142927008Y-119330131D01*
X142950322Y-119313047D01*
X142970422Y-119290564D01*
X142980192Y-119262049D01*
X142984405Y-119242265D01*
X142972579Y-119213400D01*
X142953750Y-119188709D01*
X142927008Y-119167588D01*
X142484623Y-118970178D01*
X142457792Y-118943925D01*
X142439804Y-118913758D01*
X142429395Y-118879809D01*
X142425822Y-118841951D01*
X142430497Y-118797841D01*
X142444350Y-118757038D01*
X142467770Y-118718608D01*
X142498954Y-118687106D01*
X142534914Y-118667211D01*
X142577008Y-118657975D01*
X142976040Y-118657975D01*
X143020960Y-118674826D01*
X143059265Y-118699680D01*
X143078959Y-118721148D01*
X143089185Y-118744814D01*
X143090834Y-118771914D01*
X143078707Y-118801802D01*
X143059826Y-118825240D01*
X143033437Y-118843233D01*
X142998388Y-118843233D01*
X142913025Y-118783027D01*
X142609187Y-118783027D01*
X142579817Y-118795423D01*
X142569253Y-118821496D01*
X142568581Y-118849034D01*
X142584702Y-118875107D01*
X142599417Y-118884755D01*
X143016584Y-119050046D01*
X143054783Y-119086527D01*
X143085875Y-119126259D01*
X143110373Y-119169542D01*
G37*
G36*
X143888287Y-119227549D02*
G01*
X143886150Y-119283847D01*
X143882669Y-119330131D01*
X143865342Y-119357990D01*
X143842796Y-119386429D01*
X143790284Y-119438392D01*
X143710478Y-119466907D01*
X143497681Y-119466907D01*
X143459285Y-119456520D01*
X143424268Y-119438675D01*
X143391985Y-119412869D01*
X143350913Y-119364670D01*
X143317064Y-119306073D01*
X143317064Y-118775212D01*
X143191095Y-118775212D01*
X143173373Y-118745158D01*
X143167282Y-118708167D01*
X143170648Y-118681194D01*
X143180375Y-118658275D01*
X143196652Y-118638436D01*
X143319872Y-118638436D01*
X143319872Y-118436080D01*
X143329814Y-118422083D01*
X143342953Y-118410435D01*
X143358326Y-118402604D01*
X143374461Y-118400055D01*
X143415066Y-118402802D01*
X143437547Y-118419469D01*
X143451458Y-118436080D01*
X143451458Y-118638436D01*
X143760914Y-118638436D01*
X143786071Y-118648022D01*
X143809885Y-118671286D01*
X143814098Y-118705480D01*
X143811464Y-118729973D01*
X143804267Y-118748528D01*
X143791558Y-118763288D01*
X143770684Y-118775212D01*
X143451458Y-118775212D01*
X143451458Y-119255149D01*
X143463574Y-119281718D01*
X143483637Y-119305158D01*
X143501162Y-119314500D01*
X143527051Y-119322316D01*
X143707669Y-119322316D01*
X143731386Y-119301706D01*
X143761586Y-119258568D01*
X143801458Y-119197813D01*
X143826676Y-119193355D01*
X143849279Y-119197011D01*
X143869538Y-119208011D01*
X143888287Y-119227549D01*
G37*
G36*
X144346608Y-118485845D02*
G01*
X144330488Y-118499095D01*
X144314429Y-118509475D01*
X144185652Y-118509475D01*
X144166724Y-118499095D01*
X144147856Y-118483097D01*
X144147856Y-118327576D01*
X144168567Y-118308672D01*
X144188461Y-118298450D01*
X144311621Y-118298450D01*
X144330488Y-118314448D01*
X144346608Y-118330384D01*
X144346608Y-118485845D01*
G37*
G36*
X144601415Y-119374767D02*
G01*
X144602819Y-119391558D01*
X144597377Y-119423888D01*
X144581891Y-119448356D01*
X144555192Y-119466907D01*
X144062432Y-119466907D01*
X144039374Y-119450097D01*
X144026300Y-119429575D01*
X144021826Y-119404076D01*
X144026231Y-119376336D01*
X144039353Y-119352042D01*
X144062432Y-119330131D01*
X144224853Y-119330131D01*
X144224853Y-118810383D01*
X144049853Y-118810383D01*
X144028787Y-118796949D01*
X144005035Y-118775028D01*
X144002226Y-118745353D01*
X144008515Y-118707190D01*
X144016553Y-118690330D01*
X144027444Y-118677515D01*
X144339586Y-118677515D01*
X144364804Y-118692352D01*
X144383001Y-118708533D01*
X144383001Y-119330131D01*
X144552444Y-119330131D01*
X144579754Y-119347289D01*
X144601415Y-119374767D01*
G37*
G36*
X145456326Y-119419158D02*
G01*
X145442807Y-119447995D01*
X145418529Y-119470937D01*
X145389098Y-119473746D01*
X145358323Y-119470937D01*
X145326083Y-119442239D01*
X145314109Y-119426117D01*
X145309292Y-119407862D01*
X145309292Y-118851599D01*
X145260321Y-118816550D01*
X145214770Y-118806780D01*
X145169279Y-118802567D01*
X145133559Y-118815267D01*
X145100708Y-118830716D01*
X144896338Y-118962973D01*
X144896338Y-119421661D01*
X144883698Y-119440712D01*
X144861350Y-119462511D01*
X144838985Y-119471111D01*
X144819340Y-119473746D01*
X144800933Y-119471166D01*
X144778735Y-119462511D01*
X144761943Y-119433751D01*
X144756326Y-119416166D01*
X144756326Y-118738026D01*
X144758648Y-118721315D01*
X144767500Y-118694489D01*
X144793164Y-118673377D01*
X144824958Y-118666401D01*
X144847716Y-118670322D01*
X144869715Y-118682521D01*
X144886825Y-118701144D01*
X144896338Y-118725203D01*
X144896338Y-118795178D01*
X144991532Y-118741872D01*
X145090938Y-118680140D01*
X145130811Y-118668905D01*
X145174958Y-118661883D01*
X145239949Y-118667185D01*
X145300516Y-118682808D01*
X145357591Y-118708778D01*
X145395764Y-118735543D01*
X145424279Y-118766802D01*
X145444343Y-118803026D01*
X145456326Y-118845248D01*
X145456326Y-119419158D01*
G37*
G36*
X146114088Y-118678429D02*
G01*
X146148389Y-118701094D01*
X146177819Y-118730149D01*
X146212065Y-118782962D01*
X146235216Y-118847630D01*
X146235216Y-119409205D01*
X146235114Y-119429448D01*
X146225385Y-119455672D01*
X146208594Y-119462694D01*
X146191802Y-119466907D01*
X146177819Y-119465930D01*
X146163935Y-119463724D01*
X146140023Y-119455001D01*
X146099417Y-119404381D01*
X146068768Y-119436078D01*
X146036803Y-119456364D01*
X146002819Y-119466907D01*
X145697638Y-119466907D01*
X145656760Y-119455200D01*
X145620622Y-119435515D01*
X145588400Y-119407373D01*
X145562594Y-119373206D01*
X145544965Y-119335245D01*
X145535216Y-119292640D01*
X145535216Y-119163252D01*
X145669611Y-119163252D01*
X145669611Y-119256431D01*
X145673616Y-119280117D01*
X145684998Y-119297952D01*
X145702557Y-119311547D01*
X145727008Y-119322316D01*
X146050446Y-119322316D01*
X146074010Y-119311482D01*
X146092950Y-119294190D01*
X146107844Y-119269315D01*
X146107844Y-119171862D01*
X146100497Y-119147751D01*
X146091052Y-119130280D01*
X146076479Y-119118651D01*
X146054660Y-119107382D01*
X145735434Y-119107382D01*
X145704713Y-119120574D01*
X145683374Y-119139061D01*
X145669611Y-119163252D01*
X145535216Y-119163252D01*
X145535216Y-119148109D01*
X145541505Y-119100665D01*
X145560434Y-119048947D01*
X145602444Y-119007853D01*
X145622265Y-118993924D01*
X145647202Y-118982330D01*
X146091052Y-118982330D01*
X146091052Y-118861368D01*
X146077664Y-118839417D01*
X146060277Y-118821984D01*
X146039491Y-118810305D01*
X146016863Y-118806475D01*
X145727008Y-118806475D01*
X145704774Y-118794506D01*
X145688540Y-118775578D01*
X145678572Y-118752128D01*
X145675228Y-118726485D01*
X145680846Y-118691375D01*
X145703646Y-118673436D01*
X145729817Y-118661883D01*
X146074199Y-118661883D01*
X146114088Y-118678429D01*
G37*
G36*
X147052697Y-119227549D02*
G01*
X147050560Y-119283847D01*
X147047079Y-119330131D01*
X147029753Y-119357990D01*
X147007207Y-119386429D01*
X146954695Y-119438392D01*
X146874888Y-119466907D01*
X146662092Y-119466907D01*
X146623695Y-119456520D01*
X146588678Y-119438675D01*
X146556396Y-119412869D01*
X146515323Y-119364670D01*
X146481474Y-119306073D01*
X146481474Y-118775212D01*
X146355506Y-118775212D01*
X146337783Y-118745158D01*
X146331692Y-118708167D01*
X146335059Y-118681194D01*
X146344786Y-118658275D01*
X146361062Y-118638436D01*
X146484283Y-118638436D01*
X146484283Y-118436080D01*
X146494225Y-118422083D01*
X146507364Y-118410435D01*
X146522736Y-118402604D01*
X146538871Y-118400055D01*
X146579476Y-118402802D01*
X146601957Y-118419469D01*
X146615869Y-118436080D01*
X146615869Y-118638436D01*
X146925324Y-118638436D01*
X146950481Y-118648022D01*
X146974295Y-118671286D01*
X146978508Y-118705480D01*
X146975874Y-118729973D01*
X146968677Y-118748528D01*
X146955968Y-118763288D01*
X146935094Y-118775212D01*
X146615869Y-118775212D01*
X146615869Y-119255149D01*
X146627985Y-119281718D01*
X146648048Y-119305158D01*
X146665572Y-119314500D01*
X146691462Y-119322316D01*
X146872079Y-119322316D01*
X146895796Y-119301706D01*
X146925996Y-119258568D01*
X146965869Y-119197813D01*
X146991087Y-119193355D01*
X147013689Y-119197011D01*
X147033948Y-119208011D01*
X147052697Y-119227549D01*
G37*
G36*
X147511019Y-118485845D02*
G01*
X147494899Y-118499095D01*
X147478840Y-118509475D01*
X147350063Y-118509475D01*
X147331134Y-118499095D01*
X147312266Y-118483097D01*
X147312266Y-118327576D01*
X147332978Y-118308672D01*
X147352871Y-118298450D01*
X147476031Y-118298450D01*
X147494899Y-118314448D01*
X147511019Y-118330384D01*
X147511019Y-118485845D01*
G37*
G36*
X147765825Y-119374767D02*
G01*
X147767229Y-119391558D01*
X147761787Y-119423888D01*
X147746301Y-119448356D01*
X147719602Y-119466907D01*
X147226842Y-119466907D01*
X147203784Y-119450097D01*
X147190710Y-119429575D01*
X147186237Y-119404076D01*
X147190642Y-119376336D01*
X147203763Y-119352042D01*
X147226842Y-119330131D01*
X147389264Y-119330131D01*
X147389264Y-118810383D01*
X147214264Y-118810383D01*
X147193198Y-118796949D01*
X147169445Y-118775028D01*
X147166636Y-118745353D01*
X147172926Y-118707190D01*
X147180963Y-118690330D01*
X147191854Y-118677515D01*
X147503997Y-118677515D01*
X147529215Y-118692352D01*
X147547411Y-118708533D01*
X147547411Y-119330131D01*
X147716854Y-119330131D01*
X147744164Y-119347289D01*
X147765825Y-119374767D01*
G37*
G36*
X148423998Y-118660418D02*
G01*
X148490494Y-118678003D01*
X148574513Y-118738453D01*
X148626293Y-118810138D01*
X148654319Y-118933908D01*
X148654319Y-119222237D01*
X148637204Y-119275980D01*
X148609735Y-119326118D01*
X148571033Y-119373362D01*
X148524908Y-119413678D01*
X148474475Y-119444682D01*
X148419114Y-119466907D01*
X148167116Y-119466907D01*
X148095736Y-119447124D01*
X148041125Y-119407495D01*
X147995596Y-119359685D01*
X147960535Y-119304098D01*
X147937528Y-119241105D01*
X147937528Y-118903989D01*
X148074731Y-118903989D01*
X148077540Y-119074714D01*
X148083158Y-119227122D01*
X148123763Y-119290320D01*
X148197952Y-119318408D01*
X148419175Y-119318408D01*
X148450180Y-119300910D01*
X148475839Y-119276764D01*
X148496021Y-119246815D01*
X148511560Y-119209659D01*
X148505942Y-118893303D01*
X148451354Y-118838226D01*
X148401650Y-118814901D01*
X148333751Y-118798659D01*
X148161560Y-118812703D01*
X148134055Y-118825933D01*
X148109719Y-118846408D01*
X148089969Y-118872409D01*
X148074731Y-118903989D01*
X147937528Y-118903989D01*
X147937528Y-118854468D01*
X147963410Y-118804828D01*
X147995596Y-118761351D01*
X148034305Y-118721692D01*
X148083096Y-118680873D01*
X148144707Y-118654067D01*
X148255288Y-118654067D01*
X148367334Y-118654067D01*
X148423998Y-118660418D01*
G37*
G36*
X149429668Y-119419158D02*
G01*
X149416150Y-119447995D01*
X149391872Y-119470937D01*
X149362441Y-119473746D01*
X149331666Y-119470937D01*
X149299426Y-119442239D01*
X149287452Y-119426117D01*
X149282634Y-119407862D01*
X149282634Y-118851599D01*
X149233663Y-118816550D01*
X149188112Y-118806780D01*
X149142622Y-118802567D01*
X149106901Y-118815267D01*
X149074051Y-118830716D01*
X148869681Y-118962973D01*
X148869681Y-119421661D01*
X148857041Y-119440712D01*
X148834693Y-119462511D01*
X148812327Y-119471111D01*
X148792683Y-119473746D01*
X148774276Y-119471166D01*
X148752078Y-119462511D01*
X148735286Y-119433751D01*
X148729668Y-119416166D01*
X148729668Y-118738026D01*
X148731990Y-118721315D01*
X148740842Y-118694489D01*
X148766506Y-118673377D01*
X148798301Y-118666401D01*
X148821059Y-118670322D01*
X148843058Y-118682521D01*
X148860168Y-118701144D01*
X148869681Y-118725203D01*
X148869681Y-118795178D01*
X148964874Y-118741872D01*
X149064281Y-118680140D01*
X149104154Y-118668905D01*
X149148301Y-118661883D01*
X149213292Y-118667185D01*
X149273858Y-118682808D01*
X149330933Y-118708778D01*
X149369106Y-118735543D01*
X149397622Y-118766802D01*
X149417685Y-118803026D01*
X149429668Y-118845248D01*
X149429668Y-119419158D01*
G37*
G36*
X150457198Y-119466907D02*
G01*
X150416999Y-119435322D01*
X150385146Y-119393146D01*
X150362951Y-119344235D01*
X150350830Y-119291297D01*
X150350830Y-118402009D01*
X150356555Y-118387387D01*
X150369698Y-118371845D01*
X150388608Y-118361150D01*
X150417997Y-118357068D01*
X150446895Y-118361127D01*
X150468187Y-118372332D01*
X150483821Y-118390712D01*
X150483821Y-119224130D01*
X150489969Y-119258814D01*
X150508978Y-119291480D01*
X150527452Y-119309018D01*
X150547290Y-119318992D01*
X150569244Y-119322316D01*
X150607713Y-119311813D01*
X150622941Y-119301135D01*
X150633474Y-119279518D01*
X150637816Y-119240800D01*
X150637816Y-118763122D01*
X150642316Y-118747139D01*
X150656683Y-118734362D01*
X150677118Y-118726616D01*
X150703639Y-118723799D01*
X150729188Y-118726842D01*
X150751877Y-118735766D01*
X150768634Y-118749908D01*
X150773615Y-118765930D01*
X150773615Y-119232373D01*
X150778727Y-119251566D01*
X150797367Y-119275971D01*
X150847803Y-119322316D01*
X150877772Y-119319264D01*
X150902392Y-119304791D01*
X150919383Y-119282433D01*
X150924801Y-119257713D01*
X150924801Y-118392178D01*
X150943686Y-118372269D01*
X150964842Y-118360901D01*
X150989220Y-118357068D01*
X151019857Y-118362477D01*
X151044551Y-118378309D01*
X151064813Y-118406283D01*
X151064813Y-119310775D01*
X151045779Y-119363176D01*
X151018281Y-119405766D01*
X150982096Y-119440102D01*
X150936036Y-119466907D01*
X150801580Y-119466907D01*
X150779289Y-119458243D01*
X150752610Y-119441811D01*
X150712004Y-119412197D01*
X150671399Y-119444010D01*
X150637816Y-119466907D01*
X150457198Y-119466907D01*
G37*
G36*
X151673772Y-118682338D02*
G01*
X151716514Y-118699252D01*
X151771048Y-118745242D01*
X151824286Y-118797621D01*
X151841078Y-118846164D01*
X151853718Y-118897455D01*
X151853718Y-119122403D01*
X151818730Y-119154765D01*
X151802161Y-119163122D01*
X151782338Y-119166000D01*
X151290921Y-119166000D01*
X151290921Y-119250203D01*
X151309472Y-119277855D01*
X151335007Y-119301616D01*
X151365092Y-119319499D01*
X151397350Y-119330131D01*
X151810303Y-119330131D01*
X151836713Y-119346617D01*
X151851476Y-119367541D01*
X151856526Y-119394306D01*
X151851858Y-119421813D01*
X151837913Y-119445640D01*
X151813112Y-119466907D01*
X151337083Y-119466907D01*
X151287459Y-119447393D01*
X151242641Y-119418772D01*
X151201956Y-119380323D01*
X151169931Y-119335101D01*
X151151437Y-119288311D01*
X151145291Y-119238724D01*
X151145291Y-118882312D01*
X151290921Y-118882312D01*
X151290921Y-119033132D01*
X151703936Y-119033132D01*
X151703936Y-118873825D01*
X151665815Y-118838243D01*
X151622577Y-118817473D01*
X151572350Y-118810383D01*
X151386115Y-118810383D01*
X151356744Y-118820946D01*
X151328718Y-118832914D01*
X151305637Y-118859048D01*
X151290921Y-118882312D01*
X151145291Y-118882312D01*
X151145291Y-118872542D01*
X151159988Y-118828886D01*
X151183940Y-118788727D01*
X151218076Y-118751398D01*
X151279664Y-118705130D01*
X151351127Y-118669699D01*
X151632495Y-118669699D01*
X151673772Y-118682338D01*
G37*
G36*
X152516181Y-118678429D02*
G01*
X152550482Y-118701094D01*
X152579913Y-118730149D01*
X152614158Y-118782962D01*
X152637310Y-118847630D01*
X152637310Y-119409205D01*
X152637208Y-119429448D01*
X152627479Y-119455672D01*
X152610687Y-119462694D01*
X152593896Y-119466907D01*
X152579913Y-119465930D01*
X152566028Y-119463724D01*
X152542116Y-119455001D01*
X152501511Y-119404381D01*
X152470862Y-119436078D01*
X152438896Y-119456364D01*
X152404913Y-119466907D01*
X152099731Y-119466907D01*
X152058854Y-119455200D01*
X152022715Y-119435515D01*
X151990494Y-119407373D01*
X151964688Y-119373206D01*
X151947058Y-119335245D01*
X151937310Y-119292640D01*
X151937310Y-119163252D01*
X152071704Y-119163252D01*
X152071704Y-119256431D01*
X152075709Y-119280117D01*
X152087092Y-119297952D01*
X152104650Y-119311547D01*
X152129101Y-119322316D01*
X152452540Y-119322316D01*
X152476103Y-119311482D01*
X152495043Y-119294190D01*
X152509937Y-119269315D01*
X152509937Y-119171862D01*
X152502591Y-119147751D01*
X152493145Y-119130280D01*
X152478573Y-119118651D01*
X152456753Y-119107382D01*
X152137528Y-119107382D01*
X152106806Y-119120574D01*
X152085468Y-119139061D01*
X152071704Y-119163252D01*
X151937310Y-119163252D01*
X151937310Y-119148109D01*
X151943599Y-119100665D01*
X151962528Y-119048947D01*
X152004538Y-119007853D01*
X152024358Y-118993924D01*
X152049295Y-118982330D01*
X152493145Y-118982330D01*
X152493145Y-118861368D01*
X152479757Y-118839417D01*
X152462371Y-118821984D01*
X152441584Y-118810305D01*
X152418957Y-118806475D01*
X152129101Y-118806475D01*
X152106867Y-118794506D01*
X152090633Y-118775578D01*
X152080665Y-118752128D01*
X152077322Y-118726485D01*
X152082939Y-118691375D01*
X152105740Y-118673436D01*
X152131910Y-118661883D01*
X152476293Y-118661883D01*
X152516181Y-118678429D01*
G37*
G36*
X153454790Y-119227549D02*
G01*
X153452653Y-119283847D01*
X153449173Y-119330131D01*
X153431846Y-119357990D01*
X153409300Y-119386429D01*
X153356788Y-119438392D01*
X153276982Y-119466907D01*
X153064185Y-119466907D01*
X153025789Y-119456520D01*
X152990772Y-119438675D01*
X152958489Y-119412869D01*
X152917416Y-119364670D01*
X152883568Y-119306073D01*
X152883568Y-118775212D01*
X152757599Y-118775212D01*
X152739877Y-118745158D01*
X152733786Y-118708167D01*
X152737152Y-118681194D01*
X152746879Y-118658275D01*
X152763156Y-118638436D01*
X152886376Y-118638436D01*
X152886376Y-118436080D01*
X152896318Y-118422083D01*
X152909457Y-118410435D01*
X152924830Y-118402604D01*
X152940965Y-118400055D01*
X152981570Y-118402802D01*
X153004051Y-118419469D01*
X153017962Y-118436080D01*
X153017962Y-118638436D01*
X153327418Y-118638436D01*
X153352575Y-118648022D01*
X153376389Y-118671286D01*
X153380602Y-118705480D01*
X153377968Y-118729973D01*
X153370771Y-118748528D01*
X153358061Y-118763288D01*
X153337188Y-118775212D01*
X153017962Y-118775212D01*
X153017962Y-119255149D01*
X153030078Y-119281718D01*
X153050141Y-119305158D01*
X153067666Y-119314500D01*
X153093555Y-119322316D01*
X153274173Y-119322316D01*
X153297889Y-119301706D01*
X153328090Y-119258568D01*
X153367962Y-119197813D01*
X153393180Y-119193355D01*
X153415782Y-119197011D01*
X153436041Y-119208011D01*
X153454790Y-119227549D01*
G37*
G36*
X154279904Y-119435034D02*
G01*
X154250465Y-119454220D01*
X154221102Y-119460191D01*
X154193334Y-119455203D01*
X154167919Y-119439919D01*
X154148858Y-119416623D01*
X154138548Y-119386124D01*
X154138548Y-118856239D01*
X154113576Y-118828088D01*
X154085303Y-118809467D01*
X154053206Y-118798523D01*
X154016732Y-118794751D01*
X153970570Y-118798964D01*
X153714360Y-118938366D01*
X153714360Y-119398580D01*
X153704729Y-119426595D01*
X153687737Y-119448101D01*
X153664772Y-119462157D01*
X153637362Y-119466907D01*
X153619573Y-119464833D01*
X153602313Y-119458542D01*
X153583364Y-119432248D01*
X153568730Y-119404015D01*
X153568730Y-118445362D01*
X153567868Y-118426180D01*
X153574347Y-118399261D01*
X153584646Y-118389292D01*
X153601580Y-118379721D01*
X153620114Y-118373582D01*
X153634553Y-118372699D01*
X153666160Y-118382659D01*
X153690430Y-118400565D01*
X153708742Y-118427288D01*
X153708742Y-118795178D01*
X153852235Y-118721722D01*
X154006901Y-118657975D01*
X154061490Y-118657975D01*
X154087203Y-118666379D01*
X154113330Y-118666340D01*
X154179093Y-118695711D01*
X154211012Y-118723244D01*
X154235757Y-118754451D01*
X154256736Y-118790418D01*
X154279904Y-118838287D01*
X154279904Y-119435034D01*
G37*
G36*
X154933925Y-118682338D02*
G01*
X154976668Y-118699252D01*
X155031201Y-118745242D01*
X155084440Y-118797621D01*
X155101232Y-118846164D01*
X155113871Y-118897455D01*
X155113871Y-119122403D01*
X155078883Y-119154765D01*
X155062315Y-119163122D01*
X155042491Y-119166000D01*
X154551075Y-119166000D01*
X154551075Y-119250203D01*
X154569625Y-119277855D01*
X154595160Y-119301616D01*
X154625246Y-119319499D01*
X154657503Y-119330131D01*
X155070457Y-119330131D01*
X155096867Y-119346617D01*
X155111630Y-119367541D01*
X155116680Y-119394306D01*
X155112012Y-119421813D01*
X155098067Y-119445640D01*
X155073266Y-119466907D01*
X154597236Y-119466907D01*
X154547613Y-119447393D01*
X154502795Y-119418772D01*
X154462109Y-119380323D01*
X154430085Y-119335101D01*
X154411591Y-119288311D01*
X154405445Y-119238724D01*
X154405445Y-118882312D01*
X154551075Y-118882312D01*
X154551075Y-119033132D01*
X154964089Y-119033132D01*
X154964089Y-118873825D01*
X154925968Y-118838243D01*
X154882730Y-118817473D01*
X154832503Y-118810383D01*
X154646268Y-118810383D01*
X154616898Y-118820946D01*
X154588871Y-118832914D01*
X154565790Y-118859048D01*
X154551075Y-118882312D01*
X154405445Y-118882312D01*
X154405445Y-118872542D01*
X154420141Y-118828886D01*
X154444093Y-118788727D01*
X154478229Y-118751398D01*
X154539817Y-118705130D01*
X154611280Y-118669699D01*
X154892648Y-118669699D01*
X154933925Y-118682338D01*
G37*
G36*
X155942282Y-118915529D02*
G01*
X155923129Y-118938578D01*
X155900514Y-118954216D01*
X155873711Y-118963218D01*
X155837113Y-118948485D01*
X155802270Y-118918765D01*
X155782669Y-118813252D01*
X155759588Y-118796583D01*
X155728081Y-118781257D01*
X155670684Y-118767396D01*
X155586664Y-118800796D01*
X155362693Y-118978605D01*
X155362693Y-119422394D01*
X155352863Y-119443277D01*
X155340284Y-119457199D01*
X155318470Y-119464429D01*
X155294061Y-119466907D01*
X155263134Y-119461841D01*
X155238967Y-119447312D01*
X155219872Y-119422272D01*
X155219872Y-118733263D01*
X155233272Y-118694343D01*
X155252051Y-118664936D01*
X155269576Y-118660112D01*
X155284292Y-118657975D01*
X155320684Y-118662188D01*
X155345716Y-118684693D01*
X155362693Y-118708167D01*
X155362693Y-118800185D01*
X155583855Y-118644175D01*
X155634963Y-118634711D01*
X155687475Y-118630620D01*
X155742489Y-118634930D01*
X155791868Y-118647419D01*
X155836586Y-118667806D01*
X155875367Y-118696715D01*
X155905768Y-118734344D01*
X155928299Y-118782173D01*
X155942282Y-118915529D01*
G37*
G36*
X157526380Y-118628605D02*
G01*
X157500490Y-118622804D01*
X157477409Y-118609737D01*
X157414394Y-118493844D01*
X157037772Y-118493844D01*
X157020980Y-118504835D01*
X157020197Y-118518854D01*
X157023789Y-118542570D01*
X157551598Y-119199034D01*
X157570885Y-119230502D01*
X157582559Y-119265702D01*
X157586586Y-119305646D01*
X157584449Y-119331597D01*
X157580968Y-119354739D01*
X157553685Y-119398502D01*
X157516549Y-119434667D01*
X157487303Y-119452817D01*
X157457195Y-119463388D01*
X157425569Y-119466907D01*
X157400412Y-119466907D01*
X157020980Y-119466907D01*
X156978623Y-119453055D01*
X156942309Y-119431107D01*
X156911071Y-119400595D01*
X156887332Y-119363992D01*
X156873201Y-119324153D01*
X156868390Y-119280001D01*
X156869794Y-119255759D01*
X156883897Y-119229879D01*
X156902833Y-119210687D01*
X156927191Y-119197263D01*
X156949729Y-119199647D01*
X156974818Y-119207277D01*
X157009806Y-119282260D01*
X157027418Y-119310175D01*
X157047603Y-119330131D01*
X157422821Y-119330131D01*
X157439613Y-119324209D01*
X157439613Y-119299174D01*
X156897821Y-118604791D01*
X156881944Y-118558700D01*
X156876816Y-118513689D01*
X156883792Y-118462264D01*
X156904110Y-118418312D01*
X156924836Y-118393750D01*
X156952186Y-118373349D01*
X156987397Y-118357068D01*
X157406029Y-118357068D01*
X157447978Y-118363479D01*
X157485774Y-118371295D01*
X157527594Y-118402888D01*
X157560696Y-118443774D01*
X157582308Y-118490983D01*
X157589394Y-118540433D01*
X157585934Y-118574045D01*
X157575412Y-118607295D01*
X157549522Y-118624331D01*
X157526380Y-118628605D01*
G37*
G36*
X158360164Y-119227549D02*
G01*
X158358027Y-119283847D01*
X158354546Y-119330131D01*
X158337219Y-119357990D01*
X158314674Y-119386429D01*
X158262161Y-119438392D01*
X158182355Y-119466907D01*
X157969558Y-119466907D01*
X157931162Y-119456520D01*
X157896145Y-119438675D01*
X157863862Y-119412869D01*
X157822790Y-119364670D01*
X157788941Y-119306073D01*
X157788941Y-118775212D01*
X157662973Y-118775212D01*
X157645250Y-118745158D01*
X157639159Y-118708167D01*
X157642526Y-118681194D01*
X157652252Y-118658275D01*
X157668529Y-118638436D01*
X157791750Y-118638436D01*
X157791750Y-118436080D01*
X157801692Y-118422083D01*
X157814831Y-118410435D01*
X157830203Y-118402604D01*
X157846338Y-118400055D01*
X157886943Y-118402802D01*
X157909424Y-118419469D01*
X157923336Y-118436080D01*
X157923336Y-118638436D01*
X158232791Y-118638436D01*
X158257948Y-118648022D01*
X158281762Y-118671286D01*
X158285975Y-118705480D01*
X158283341Y-118729973D01*
X158276144Y-118748528D01*
X158263435Y-118763288D01*
X158242561Y-118775212D01*
X157923336Y-118775212D01*
X157923336Y-119255149D01*
X157935452Y-119281718D01*
X157955515Y-119305158D01*
X157973039Y-119314500D01*
X157998929Y-119322316D01*
X158179546Y-119322316D01*
X158203263Y-119301706D01*
X158233463Y-119258568D01*
X158273336Y-119197813D01*
X158298554Y-119193355D01*
X158321156Y-119197011D01*
X158341415Y-119208011D01*
X158360164Y-119227549D01*
G37*
G36*
X159050166Y-118678429D02*
G01*
X159084467Y-118701094D01*
X159113897Y-118730149D01*
X159148143Y-118782962D01*
X159171294Y-118847630D01*
X159171294Y-119409205D01*
X159171193Y-119429448D01*
X159161464Y-119455672D01*
X159144672Y-119462694D01*
X159127880Y-119466907D01*
X159113897Y-119465930D01*
X159100013Y-119463724D01*
X159076101Y-119455001D01*
X159035495Y-119404381D01*
X159004847Y-119436078D01*
X158972881Y-119456364D01*
X158938897Y-119466907D01*
X158633716Y-119466907D01*
X158592838Y-119455200D01*
X158556700Y-119435515D01*
X158524478Y-119407373D01*
X158498672Y-119373206D01*
X158481043Y-119335245D01*
X158471294Y-119292640D01*
X158471294Y-119163252D01*
X158605689Y-119163252D01*
X158605689Y-119256431D01*
X158609694Y-119280117D01*
X158621076Y-119297952D01*
X158638635Y-119311547D01*
X158663086Y-119322316D01*
X158986525Y-119322316D01*
X159010088Y-119311482D01*
X159029028Y-119294190D01*
X159043922Y-119269315D01*
X159043922Y-119171862D01*
X159036575Y-119147751D01*
X159027130Y-119130280D01*
X159012558Y-119118651D01*
X158990738Y-119107382D01*
X158671512Y-119107382D01*
X158640791Y-119120574D01*
X158619452Y-119139061D01*
X158605689Y-119163252D01*
X158471294Y-119163252D01*
X158471294Y-119148109D01*
X158477584Y-119100665D01*
X158496512Y-119048947D01*
X158538522Y-119007853D01*
X158558343Y-118993924D01*
X158583280Y-118982330D01*
X159027130Y-118982330D01*
X159027130Y-118861368D01*
X159013742Y-118839417D01*
X158996355Y-118821984D01*
X158975569Y-118810305D01*
X158952941Y-118806475D01*
X158663086Y-118806475D01*
X158640852Y-118794506D01*
X158624618Y-118775578D01*
X158614650Y-118752128D01*
X158611307Y-118726485D01*
X158616924Y-118691375D01*
X158639724Y-118673436D01*
X158665895Y-118661883D01*
X159010277Y-118661883D01*
X159050166Y-118678429D01*
G37*
G36*
X159988775Y-119227549D02*
G01*
X159986638Y-119283847D01*
X159983158Y-119330131D01*
X159965831Y-119357990D01*
X159943285Y-119386429D01*
X159890773Y-119438392D01*
X159810966Y-119466907D01*
X159598170Y-119466907D01*
X159559773Y-119456520D01*
X159524757Y-119438675D01*
X159492474Y-119412869D01*
X159451401Y-119364670D01*
X159417552Y-119306073D01*
X159417552Y-118775212D01*
X159291584Y-118775212D01*
X159273861Y-118745158D01*
X159267770Y-118708167D01*
X159271137Y-118681194D01*
X159280864Y-118658275D01*
X159297140Y-118638436D01*
X159420361Y-118638436D01*
X159420361Y-118436080D01*
X159430303Y-118422083D01*
X159443442Y-118410435D01*
X159458815Y-118402604D01*
X159474949Y-118400055D01*
X159515555Y-118402802D01*
X159538035Y-118419469D01*
X159551947Y-118436080D01*
X159551947Y-118638436D01*
X159861403Y-118638436D01*
X159886560Y-118648022D01*
X159910373Y-118671286D01*
X159914586Y-118705480D01*
X159911953Y-118729973D01*
X159904756Y-118748528D01*
X159892046Y-118763288D01*
X159871172Y-118775212D01*
X159551947Y-118775212D01*
X159551947Y-119255149D01*
X159564063Y-119281718D01*
X159584126Y-119305158D01*
X159601650Y-119314500D01*
X159627540Y-119322316D01*
X159808158Y-119322316D01*
X159831874Y-119301706D01*
X159862074Y-119258568D01*
X159901947Y-119197813D01*
X159927165Y-119193355D01*
X159949767Y-119197011D01*
X159970026Y-119208011D01*
X159988775Y-119227549D01*
G37*
G36*
X160447097Y-118485845D02*
G01*
X160430977Y-118499095D01*
X160414918Y-118509475D01*
X160286141Y-118509475D01*
X160267212Y-118499095D01*
X160248344Y-118483097D01*
X160248344Y-118327576D01*
X160269056Y-118308672D01*
X160288950Y-118298450D01*
X160412109Y-118298450D01*
X160430977Y-118314448D01*
X160447097Y-118330384D01*
X160447097Y-118485845D01*
G37*
G36*
X160701903Y-119374767D02*
G01*
X160703308Y-119391558D01*
X160697865Y-119423888D01*
X160682379Y-119448356D01*
X160655680Y-119466907D01*
X160162920Y-119466907D01*
X160139862Y-119450097D01*
X160126788Y-119429575D01*
X160122315Y-119404076D01*
X160126720Y-119376336D01*
X160139841Y-119352042D01*
X160162920Y-119330131D01*
X160325342Y-119330131D01*
X160325342Y-118810383D01*
X160150342Y-118810383D01*
X160129276Y-118796949D01*
X160105523Y-118775028D01*
X160102714Y-118745353D01*
X160109004Y-118707190D01*
X160117042Y-118690330D01*
X160127933Y-118677515D01*
X160440075Y-118677515D01*
X160465293Y-118692352D01*
X160483489Y-118708533D01*
X160483489Y-119330131D01*
X160652933Y-119330131D01*
X160680242Y-119347289D01*
X160701903Y-119374767D01*
G37*
G36*
X161360077Y-118660418D02*
G01*
X161426572Y-118678003D01*
X161510591Y-118738453D01*
X161562371Y-118810138D01*
X161590398Y-118933908D01*
X161590398Y-119222237D01*
X161573283Y-119275980D01*
X161545813Y-119326118D01*
X161507111Y-119373362D01*
X161460986Y-119413678D01*
X161410554Y-119444682D01*
X161355192Y-119466907D01*
X161103194Y-119466907D01*
X161031814Y-119447124D01*
X160977203Y-119407495D01*
X160931675Y-119359685D01*
X160896613Y-119304098D01*
X160873606Y-119241105D01*
X160873606Y-118903989D01*
X161010809Y-118903989D01*
X161013618Y-119074714D01*
X161019236Y-119227122D01*
X161059841Y-119290320D01*
X161134030Y-119318408D01*
X161355253Y-119318408D01*
X161386258Y-119300910D01*
X161411917Y-119276764D01*
X161432099Y-119246815D01*
X161447638Y-119209659D01*
X161442020Y-118893303D01*
X161387432Y-118838226D01*
X161337728Y-118814901D01*
X161269829Y-118798659D01*
X161097638Y-118812703D01*
X161070133Y-118825933D01*
X161045797Y-118846408D01*
X161026048Y-118872409D01*
X161010809Y-118903989D01*
X160873606Y-118903989D01*
X160873606Y-118854468D01*
X160899488Y-118804828D01*
X160931675Y-118761351D01*
X160970384Y-118721692D01*
X161019175Y-118680873D01*
X161080785Y-118654067D01*
X161191366Y-118654067D01*
X161303412Y-118654067D01*
X161360077Y-118660418D01*
G37*
G36*
X162365747Y-119419158D02*
G01*
X162352228Y-119447995D01*
X162327950Y-119470937D01*
X162298519Y-119473746D01*
X162267744Y-119470937D01*
X162235504Y-119442239D01*
X162223530Y-119426117D01*
X162218712Y-119407862D01*
X162218712Y-118851599D01*
X162169742Y-118816550D01*
X162124190Y-118806780D01*
X162078700Y-118802567D01*
X162042980Y-118815267D01*
X162010129Y-118830716D01*
X161805759Y-118962973D01*
X161805759Y-119421661D01*
X161793119Y-119440712D01*
X161770771Y-119462511D01*
X161748406Y-119471111D01*
X161728761Y-119473746D01*
X161710354Y-119471166D01*
X161688156Y-119462511D01*
X161671364Y-119433751D01*
X161665747Y-119416166D01*
X161665747Y-118738026D01*
X161668068Y-118721315D01*
X161676921Y-118694489D01*
X161702584Y-118673377D01*
X161734379Y-118666401D01*
X161757137Y-118670322D01*
X161779136Y-118682521D01*
X161796246Y-118701144D01*
X161805759Y-118725203D01*
X161805759Y-118795178D01*
X161900952Y-118741872D01*
X162000359Y-118680140D01*
X162040232Y-118668905D01*
X162084379Y-118661883D01*
X162149370Y-118667185D01*
X162209936Y-118682808D01*
X162267011Y-118708778D01*
X162305184Y-118735543D01*
X162333700Y-118766802D01*
X162353764Y-118803026D01*
X162365747Y-118845248D01*
X162365747Y-119419158D01*
G37*
G36*
X141479014Y-120543811D02*
G01*
X141212973Y-121102394D01*
X141193981Y-121122390D01*
X141170963Y-121136161D01*
X141145167Y-121144205D01*
X141117779Y-121146907D01*
X141079642Y-121142437D01*
X141043590Y-121129017D01*
X140770588Y-120536056D01*
X140770588Y-120354278D01*
X140804171Y-120315810D01*
X140821746Y-120306080D01*
X140839220Y-120306712D01*
X140866372Y-120313800D01*
X140887907Y-120329168D01*
X140904982Y-120354095D01*
X140904982Y-120519814D01*
X141134571Y-120971358D01*
X141344620Y-120514868D01*
X141344620Y-120353484D01*
X141365482Y-120331969D01*
X141388481Y-120319731D01*
X141414595Y-120315627D01*
X141441123Y-120320142D01*
X141465031Y-120333823D01*
X141479014Y-120354828D01*
X141479014Y-120543811D01*
G37*
G36*
X142175412Y-120679610D02*
G01*
X142178220Y-120711728D01*
X142175783Y-120740656D01*
X142168451Y-120768942D01*
X142132058Y-120791290D01*
X142105436Y-120791290D01*
X142105436Y-121114423D01*
X142092796Y-121129994D01*
X142080218Y-121141290D01*
X142062022Y-121145503D01*
X142043826Y-121146907D01*
X142018132Y-121143211D01*
X141993189Y-121131857D01*
X141968233Y-121111614D01*
X141968233Y-120791290D01*
X141541235Y-120791290D01*
X141541235Y-120108387D01*
X141539831Y-120084573D01*
X141541235Y-120069186D01*
X141562018Y-120059815D01*
X141586054Y-120056607D01*
X141632277Y-120062225D01*
X141651262Y-120075629D01*
X141661647Y-120091595D01*
X141661647Y-120654514D01*
X141968233Y-120654514D01*
X141968233Y-120216098D01*
X141979220Y-120196506D01*
X141996259Y-120178362D01*
X142028438Y-120172806D01*
X142063426Y-120172806D01*
X142087179Y-120190269D01*
X142099818Y-120216098D01*
X142099818Y-120654514D01*
X142146041Y-120654514D01*
X142175412Y-120679610D01*
G37*
G36*
X142678552Y-121097509D02*
G01*
X142663103Y-121122911D01*
X142632329Y-121146907D01*
X142509169Y-121146907D01*
X142492876Y-121144196D01*
X142476258Y-121135611D01*
X142462147Y-121122608D01*
X142451772Y-121105997D01*
X142451772Y-120923853D01*
X142462186Y-120906253D01*
X142475586Y-120894238D01*
X142514787Y-120877263D01*
X142618346Y-120877263D01*
X142642197Y-120889471D01*
X142662123Y-120907535D01*
X142678552Y-120932340D01*
X142678552Y-121097509D01*
G37*
G36*
X143620474Y-121036937D02*
G01*
X143601730Y-121084620D01*
X143570099Y-121127185D01*
X143551729Y-121134114D01*
X143535050Y-121146907D01*
X142987641Y-121146907D01*
X142953997Y-121133718D01*
X142923222Y-121114851D01*
X142908652Y-121080852D01*
X142903622Y-121041028D01*
X142906430Y-121015932D01*
X142921450Y-121000816D01*
X142944227Y-120986684D01*
X143486080Y-120986684D01*
X143486080Y-120666237D01*
X143039421Y-120666237D01*
X143039421Y-120093244D01*
X143066932Y-120067816D01*
X143102435Y-120052699D01*
X143575656Y-120052699D01*
X143592032Y-120070706D01*
X143601697Y-120091498D01*
X143605026Y-120116019D01*
X143598914Y-120149637D01*
X143581748Y-120173325D01*
X143551842Y-120189475D01*
X143179433Y-120189475D01*
X143179433Y-120529461D01*
X143532242Y-120529461D01*
X143560271Y-120537757D01*
X143586891Y-120554863D01*
X143607978Y-120594243D01*
X143620474Y-120635219D01*
X143620474Y-121036937D01*
G37*
G36*
X144051197Y-121097509D02*
G01*
X144035748Y-121122911D01*
X144004974Y-121146907D01*
X143881814Y-121146907D01*
X143865521Y-121144196D01*
X143848903Y-121135611D01*
X143834792Y-121122608D01*
X143824417Y-121105997D01*
X143824417Y-120923853D01*
X143834830Y-120906253D01*
X143848231Y-120894238D01*
X143887432Y-120877263D01*
X143990991Y-120877263D01*
X144014842Y-120889471D01*
X144034767Y-120907535D01*
X144051197Y-120932340D01*
X144051197Y-121097509D01*
G37*
G36*
X144995867Y-121073512D02*
G01*
X144995134Y-121092624D01*
X144990249Y-121117293D01*
X144964360Y-121134207D01*
X144945431Y-121144099D01*
X144883149Y-121145503D01*
X144783070Y-121146907D01*
X144503779Y-121146175D01*
X144284693Y-121142694D01*
X144284693Y-120619831D01*
X144302114Y-120574118D01*
X144328107Y-120537155D01*
X144379566Y-120516105D01*
X144440092Y-120502106D01*
X144844681Y-120502106D01*
X144844681Y-120169936D01*
X144305698Y-120169936D01*
X144276327Y-120138734D01*
X144270710Y-120116080D01*
X144269306Y-120101914D01*
X144275651Y-120070924D01*
X144294463Y-120046593D01*
X144322649Y-120030945D01*
X144360286Y-120025344D01*
X144882538Y-120025344D01*
X144923818Y-120049880D01*
X144952514Y-120074559D01*
X144974143Y-120104329D01*
X144990310Y-120143375D01*
X144990310Y-120535384D01*
X144974754Y-120569464D01*
X144952976Y-120597550D01*
X144924487Y-120620442D01*
X144891672Y-120637143D01*
X144856439Y-120647187D01*
X144818119Y-120650606D01*
X144434475Y-120650606D01*
X144434475Y-120994500D01*
X144962284Y-120994500D01*
X144983343Y-121014358D01*
X144994916Y-121034789D01*
X144998676Y-121056599D01*
X144995867Y-121073512D01*
G37*
G36*
X146615685Y-121073512D02*
G01*
X146614953Y-121092624D01*
X146610068Y-121117293D01*
X146584178Y-121134207D01*
X146565249Y-121144099D01*
X146502967Y-121145503D01*
X146402889Y-121146907D01*
X146123597Y-121146175D01*
X145904511Y-121142694D01*
X145904511Y-120619831D01*
X145921933Y-120574118D01*
X145947926Y-120537155D01*
X145999385Y-120516105D01*
X146059911Y-120502106D01*
X146464499Y-120502106D01*
X146464499Y-120169936D01*
X145925516Y-120169936D01*
X145896146Y-120138734D01*
X145890528Y-120116080D01*
X145889124Y-120101914D01*
X145895470Y-120070924D01*
X145914281Y-120046593D01*
X145942467Y-120030945D01*
X145980105Y-120025344D01*
X146502357Y-120025344D01*
X146543637Y-120049880D01*
X146572332Y-120074559D01*
X146593961Y-120104329D01*
X146610129Y-120143375D01*
X146610129Y-120535384D01*
X146594572Y-120569464D01*
X146572794Y-120597550D01*
X146544306Y-120620442D01*
X146511490Y-120637143D01*
X146476257Y-120647187D01*
X146437938Y-120650606D01*
X146054293Y-120650606D01*
X146054293Y-120994500D01*
X146582102Y-120994500D01*
X146603162Y-121014358D01*
X146614735Y-121034789D01*
X146618494Y-121056599D01*
X146615685Y-121073512D01*
G37*
G36*
X147346802Y-120079195D02*
G01*
X147393233Y-120121515D01*
X147393233Y-121066857D01*
X147319044Y-121146907D01*
X146794044Y-121146907D01*
X146757645Y-121124171D01*
X146734510Y-121106180D01*
X146715726Y-121086153D01*
X146698850Y-121061239D01*
X146698850Y-121010131D01*
X146833245Y-121010131D01*
X147257434Y-121010131D01*
X147257434Y-120197291D01*
X146833245Y-120197291D01*
X146833245Y-121010131D01*
X146698850Y-121010131D01*
X146698850Y-120153816D01*
X146703073Y-120124986D01*
X146716314Y-120095564D01*
X146736178Y-120070021D01*
X146759056Y-120052699D01*
X147303657Y-120052699D01*
X147346802Y-120079195D01*
G37*
G36*
X148367395Y-121073512D02*
G01*
X148366662Y-121092624D01*
X148361778Y-121117293D01*
X148335888Y-121134207D01*
X148316959Y-121144099D01*
X148254677Y-121145503D01*
X148154599Y-121146907D01*
X147875307Y-121146175D01*
X147656221Y-121142694D01*
X147656221Y-120619831D01*
X147673643Y-120574118D01*
X147699635Y-120537155D01*
X147751095Y-120516105D01*
X147811621Y-120502106D01*
X148216209Y-120502106D01*
X148216209Y-120169936D01*
X147677226Y-120169936D01*
X147647856Y-120138734D01*
X147642238Y-120116080D01*
X147640834Y-120101914D01*
X147647179Y-120070924D01*
X147665991Y-120046593D01*
X147694177Y-120030945D01*
X147731814Y-120025344D01*
X148254066Y-120025344D01*
X148295346Y-120049880D01*
X148324042Y-120074559D01*
X148345671Y-120104329D01*
X148361839Y-120143375D01*
X148361839Y-120535384D01*
X148346282Y-120569464D01*
X148324504Y-120597550D01*
X148296015Y-120620442D01*
X148263200Y-120637143D01*
X148227967Y-120647187D01*
X148189647Y-120650606D01*
X147806003Y-120650606D01*
X147806003Y-120994500D01*
X148333812Y-120994500D01*
X148354872Y-121014358D01*
X148366445Y-121034789D01*
X148370204Y-121056599D01*
X148367395Y-121073512D01*
G37*
G36*
X148582878Y-120046471D02*
G01*
X148622812Y-120051539D01*
X148640275Y-120064545D01*
X148656396Y-120093427D01*
X148652169Y-120131467D01*
X148639543Y-120167188D01*
X148627314Y-120169432D01*
X148605959Y-120178423D01*
X148596063Y-120193785D01*
X148593381Y-120205046D01*
X148593381Y-120646698D01*
X149095972Y-120646698D01*
X149116244Y-120650911D01*
X149142195Y-120659215D01*
X149172969Y-120692677D01*
X149170160Y-121118697D01*
X149139386Y-121146907D01*
X148493974Y-121146907D01*
X148453369Y-121108989D01*
X148453369Y-120813088D01*
X148605959Y-120813088D01*
X148605959Y-121000056D01*
X148620701Y-121019631D01*
X148640947Y-121025763D01*
X148653587Y-121025763D01*
X149010548Y-121025763D01*
X149023123Y-121015737D01*
X149032957Y-121002804D01*
X149032957Y-120807471D01*
X149013356Y-120793122D01*
X148986734Y-120787382D01*
X148659143Y-120787382D01*
X148628369Y-120793122D01*
X148605959Y-120813088D01*
X148453369Y-120813088D01*
X148453369Y-120101548D01*
X148468244Y-120071178D01*
X148489990Y-120054154D01*
X148520596Y-120048181D01*
X148533175Y-120049585D01*
X148533175Y-120037068D01*
X148582878Y-120046471D01*
G37*
G36*
X149864115Y-120679366D02*
G01*
X149883604Y-120685581D01*
X149897699Y-120701592D01*
X149906026Y-120723536D01*
X149908934Y-120749524D01*
X149905523Y-120776875D01*
X149895623Y-120800388D01*
X149879485Y-120817140D01*
X149858559Y-120822553D01*
X149344672Y-120822553D01*
X149320941Y-120815412D01*
X149304066Y-120800388D01*
X149293646Y-120779644D01*
X149290084Y-120755264D01*
X149297777Y-120715941D01*
X149313836Y-120687975D01*
X149330881Y-120682656D01*
X149403473Y-120679366D01*
X149546294Y-120677961D01*
X149726912Y-120677961D01*
X149864115Y-120679366D01*
G37*
G36*
X150749594Y-120079195D02*
G01*
X150796024Y-120121515D01*
X150796024Y-121066857D01*
X150721835Y-121146907D01*
X150196835Y-121146907D01*
X150160436Y-121124171D01*
X150137301Y-121106180D01*
X150118518Y-121086153D01*
X150101642Y-121061239D01*
X150101642Y-121010131D01*
X150236036Y-121010131D01*
X150660225Y-121010131D01*
X150660225Y-120197291D01*
X150236036Y-120197291D01*
X150236036Y-121010131D01*
X150101642Y-121010131D01*
X150101642Y-120153816D01*
X150105865Y-120124986D01*
X150119105Y-120095564D01*
X150138970Y-120070021D01*
X150161847Y-120052699D01*
X150706448Y-120052699D01*
X150749594Y-120079195D01*
G37*
G36*
X151761821Y-121146907D02*
G01*
X151085635Y-121146907D01*
X151058131Y-121128792D01*
X151043045Y-121107404D01*
X151038008Y-121081572D01*
X151039977Y-121061350D01*
X151045701Y-121043348D01*
X151071591Y-121002316D01*
X151312414Y-121002316D01*
X151312414Y-120169936D01*
X151042221Y-120169936D01*
X151024285Y-120144837D01*
X151018407Y-120115775D01*
X151023115Y-120087483D01*
X151037275Y-120062347D01*
X151059258Y-120043444D01*
X151088383Y-120033160D01*
X151427209Y-120033160D01*
X151449618Y-120039510D01*
X151469218Y-120055691D01*
X151469218Y-120998408D01*
X151621809Y-120998408D01*
X151621809Y-120670329D01*
X151634625Y-120655151D01*
X151650508Y-120644011D01*
X151670920Y-120637534D01*
X151707233Y-120634791D01*
X151722620Y-120634791D01*
X151761821Y-120678511D01*
X151761821Y-121146907D01*
G37*
G36*
X152433550Y-120679366D02*
G01*
X152453039Y-120685581D01*
X152467133Y-120701592D01*
X152475461Y-120723536D01*
X152478369Y-120749524D01*
X152474957Y-120776875D01*
X152465057Y-120800388D01*
X152448920Y-120817140D01*
X152427994Y-120822553D01*
X151914107Y-120822553D01*
X151890376Y-120815412D01*
X151873501Y-120800388D01*
X151863081Y-120779644D01*
X151859518Y-120755264D01*
X151867212Y-120715941D01*
X151883271Y-120687975D01*
X151900316Y-120682656D01*
X151972908Y-120679366D01*
X152115729Y-120677961D01*
X152296347Y-120677961D01*
X152433550Y-120679366D01*
G37*
G36*
X153371076Y-121039624D02*
G01*
X153345369Y-121079016D01*
X153313679Y-121111675D01*
X153276161Y-121135323D01*
X153233873Y-121146907D01*
X152696294Y-121146907D01*
X152665520Y-121127734D01*
X152659116Y-121108586D01*
X152657093Y-121090854D01*
X152660205Y-121069744D01*
X152669672Y-121049821D01*
X152684403Y-121032030D01*
X152704721Y-121015627D01*
X152748074Y-121010131D01*
X153224103Y-121010131D01*
X153224103Y-120714170D01*
X153169515Y-120658422D01*
X152816706Y-120658422D01*
X152801990Y-120621053D01*
X152794297Y-120576661D01*
X152807350Y-120549221D01*
X152826149Y-120531451D01*
X152851694Y-120521646D01*
X153163897Y-120521646D01*
X153207311Y-120471881D01*
X153207311Y-120181660D01*
X152682250Y-120181660D01*
X152664608Y-120178331D01*
X152645858Y-120167494D01*
X152635554Y-120147183D01*
X152631875Y-120120721D01*
X152636624Y-120089787D01*
X152650743Y-120062591D01*
X152672941Y-120043470D01*
X152701851Y-120037068D01*
X153236682Y-120037068D01*
X153272795Y-120056287D01*
X153305253Y-120080299D01*
X153334122Y-120108984D01*
X153359902Y-120143008D01*
X153359902Y-120417659D01*
X153299696Y-120570983D01*
X153338897Y-120635219D01*
X153371076Y-120692371D01*
X153371076Y-121039624D01*
G37*
G36*
X154122099Y-120079195D02*
G01*
X154168529Y-120121515D01*
X154168529Y-121066857D01*
X154094340Y-121146907D01*
X153569340Y-121146907D01*
X153532942Y-121124171D01*
X153509806Y-121106180D01*
X153491023Y-121086153D01*
X153474147Y-121061239D01*
X153474147Y-121010131D01*
X153608541Y-121010131D01*
X154032730Y-121010131D01*
X154032730Y-120197291D01*
X153608541Y-120197291D01*
X153608541Y-121010131D01*
X153474147Y-121010131D01*
X153474147Y-120153816D01*
X153478370Y-120124986D01*
X153491610Y-120095564D01*
X153511475Y-120070021D01*
X153534353Y-120052699D01*
X154078953Y-120052699D01*
X154122099Y-120079195D01*
G37*
D13*
G36*
X141666324Y-89232217D02*
G01*
X141711219Y-89245166D01*
X141738644Y-89263250D01*
X141757315Y-89290175D01*
X141770416Y-89332849D01*
X141775586Y-89397705D01*
X141775586Y-89778358D01*
X141770393Y-89844072D01*
X141757273Y-89887061D01*
X141738644Y-89913974D01*
X141711236Y-89931958D01*
X141666345Y-89944845D01*
X141596495Y-89950000D01*
X141064656Y-89950000D01*
X140994764Y-89944846D01*
X140949830Y-89931959D01*
X140922385Y-89913974D01*
X140903790Y-89887067D01*
X140890690Y-89844079D01*
X140888255Y-89813224D01*
X141053665Y-89813224D01*
X141608096Y-89813224D01*
X141608096Y-89356001D01*
X141053665Y-89356001D01*
X141053665Y-89813224D01*
X140888255Y-89813224D01*
X140885504Y-89778358D01*
X140885504Y-89397705D01*
X140890667Y-89332843D01*
X140903748Y-89290169D01*
X140922385Y-89263250D01*
X140949848Y-89245165D01*
X140994784Y-89232217D01*
X141064656Y-89227041D01*
X141596495Y-89227041D01*
X141666324Y-89232217D01*
G37*
G36*
X142129616Y-89950000D02*
G01*
X142129616Y-89227041D01*
X142297777Y-89227041D01*
X142297777Y-89813224D01*
X142839874Y-89813224D01*
X142839874Y-89950000D01*
X142129616Y-89950000D01*
G37*
G36*
X143085094Y-89950000D02*
G01*
X143085094Y-89227041D01*
X143824722Y-89227041D01*
X143824722Y-89348185D01*
X143253255Y-89348185D01*
X143253255Y-89512316D01*
X143586830Y-89512316D01*
X143586830Y-89633461D01*
X143253255Y-89633461D01*
X143253255Y-89813224D01*
X143831561Y-89813224D01*
X143831561Y-89950000D01*
X143085094Y-89950000D01*
G37*
G36*
X144706310Y-89233757D02*
G01*
X144788753Y-89252418D01*
X144856474Y-89281423D01*
X144911969Y-89320097D01*
X144949653Y-89359368D01*
X144979095Y-89404407D01*
X145000669Y-89456041D01*
X145014193Y-89515441D01*
X145018948Y-89584063D01*
X145014134Y-89650529D01*
X145000131Y-89710978D01*
X144977243Y-89766390D01*
X144945407Y-89816874D01*
X144906388Y-89859113D01*
X144859640Y-89893885D01*
X144808640Y-89918609D01*
X144742404Y-89936688D01*
X144667434Y-89946293D01*
X144562946Y-89950000D01*
X144141200Y-89950000D01*
X144141200Y-89813224D01*
X144309361Y-89813224D01*
X144526737Y-89813224D01*
X144617346Y-89808855D01*
X144685693Y-89797255D01*
X144736242Y-89780297D01*
X144772812Y-89759246D01*
X144803148Y-89729636D01*
X144825567Y-89691484D01*
X144840022Y-89642810D01*
X144845291Y-89580826D01*
X144841007Y-89525556D01*
X144829083Y-89480354D01*
X144810409Y-89443341D01*
X144785146Y-89413093D01*
X144753679Y-89389397D01*
X144714706Y-89371621D01*
X144666622Y-89360149D01*
X144607399Y-89356001D01*
X144309361Y-89356001D01*
X144309361Y-89813224D01*
X144141200Y-89813224D01*
X144141200Y-89227041D01*
X144606055Y-89227041D01*
X144706310Y-89233757D01*
G37*
G36*
X146433595Y-89233757D02*
G01*
X146516039Y-89252418D01*
X146583759Y-89281423D01*
X146639255Y-89320097D01*
X146676939Y-89359368D01*
X146706381Y-89404407D01*
X146727954Y-89456041D01*
X146741479Y-89515441D01*
X146746233Y-89584063D01*
X146741419Y-89650529D01*
X146727416Y-89710978D01*
X146704529Y-89766390D01*
X146672693Y-89816874D01*
X146633674Y-89859113D01*
X146586926Y-89893885D01*
X146535926Y-89918609D01*
X146469689Y-89936688D01*
X146394719Y-89946293D01*
X146290232Y-89950000D01*
X145868486Y-89950000D01*
X145868486Y-89813224D01*
X146036647Y-89813224D01*
X146254023Y-89813224D01*
X146344631Y-89808855D01*
X146412978Y-89797255D01*
X146463528Y-89780297D01*
X146500098Y-89759246D01*
X146530434Y-89729636D01*
X146552853Y-89691484D01*
X146567307Y-89642810D01*
X146572577Y-89580826D01*
X146568292Y-89525556D01*
X146556368Y-89480354D01*
X146537694Y-89443341D01*
X146512432Y-89413093D01*
X146480964Y-89389397D01*
X146441992Y-89371621D01*
X146393907Y-89360149D01*
X146334684Y-89356001D01*
X146036647Y-89356001D01*
X146036647Y-89813224D01*
X145868486Y-89813224D01*
X145868486Y-89227041D01*
X146333341Y-89227041D01*
X146433595Y-89233757D01*
G37*
G36*
X147001894Y-89950000D02*
G01*
X147001894Y-89359909D01*
X147145448Y-89359909D01*
X147145448Y-89950000D01*
X147001894Y-89950000D01*
G37*
G36*
X147956151Y-89465422D02*
G01*
X147548754Y-89465422D01*
X147548754Y-89590474D01*
X147934292Y-89590474D01*
X147994876Y-89594648D01*
X148033446Y-89605015D01*
X148056657Y-89619295D01*
X148072566Y-89640963D01*
X148083702Y-89675627D01*
X148088103Y-89728715D01*
X148088103Y-89810903D01*
X148083633Y-89863960D01*
X148072283Y-89898825D01*
X148055986Y-89920812D01*
X148032365Y-89935354D01*
X147993881Y-89945816D01*
X147934292Y-89950000D01*
X147550098Y-89950000D01*
X147489093Y-89945796D01*
X147449899Y-89935314D01*
X147426022Y-89920812D01*
X147409520Y-89898790D01*
X147398051Y-89863919D01*
X147393538Y-89810903D01*
X147393538Y-89794356D01*
X147522071Y-89770237D01*
X147522071Y-89840579D01*
X147957495Y-89840579D01*
X147957495Y-89703803D01*
X147574033Y-89703803D01*
X147513531Y-89699563D01*
X147474646Y-89688981D01*
X147450935Y-89674310D01*
X147434601Y-89652156D01*
X147423267Y-89617354D01*
X147418817Y-89564767D01*
X147418817Y-89498394D01*
X147423255Y-89446236D01*
X147434579Y-89411604D01*
X147450935Y-89389462D01*
X147474652Y-89374759D01*
X147513538Y-89364157D01*
X147574033Y-89359909D01*
X147925377Y-89359909D01*
X147985054Y-89363943D01*
X148023957Y-89374058D01*
X148048109Y-89388119D01*
X148065299Y-89409394D01*
X148076835Y-89441216D01*
X148081265Y-89487587D01*
X148081265Y-89501753D01*
X147956151Y-89527948D01*
X147956151Y-89465422D01*
G37*
G36*
X148919353Y-89363559D02*
G01*
X148953543Y-89373041D01*
X148976903Y-89386837D01*
X148994111Y-89407089D01*
X149005237Y-89435359D01*
X149009387Y-89474398D01*
X149009387Y-89604945D01*
X149005199Y-89643949D01*
X148993958Y-89672223D01*
X148976537Y-89692506D01*
X148953000Y-89706336D01*
X148918882Y-89715802D01*
X148870596Y-89719434D01*
X148479564Y-89719434D01*
X148479564Y-89950000D01*
X148337414Y-89950000D01*
X148337414Y-89617829D01*
X148479564Y-89617829D01*
X148809047Y-89617829D01*
X148843307Y-89614533D01*
X148860644Y-89606960D01*
X148870811Y-89593274D01*
X148874688Y-89570263D01*
X148874688Y-89509080D01*
X148870811Y-89486070D01*
X148860644Y-89472383D01*
X148843307Y-89464810D01*
X148809047Y-89461514D01*
X148479564Y-89461514D01*
X148479564Y-89617829D01*
X148337414Y-89617829D01*
X148337414Y-89359909D01*
X148870596Y-89359909D01*
X148919353Y-89363559D01*
G37*
G36*
X149215712Y-89950000D02*
G01*
X149215712Y-89359909D01*
X149361280Y-89359909D01*
X149361280Y-89840579D01*
X149825464Y-89840579D01*
X149825464Y-89950000D01*
X149215712Y-89950000D01*
G37*
G36*
X150744244Y-89950000D02*
G01*
X150582250Y-89950000D01*
X150507695Y-89821039D01*
X150115991Y-89821039D01*
X150041497Y-89950000D01*
X149897271Y-89950000D01*
X150039205Y-89711618D01*
X150177540Y-89711618D01*
X150448955Y-89711618D01*
X150310836Y-89466521D01*
X150177540Y-89711618D01*
X150039205Y-89711618D01*
X150248615Y-89359909D01*
X150387406Y-89359909D01*
X150744244Y-89950000D01*
G37*
G36*
X151076659Y-89950000D02*
G01*
X151076659Y-89684935D01*
X150753281Y-89359909D01*
X150948126Y-89359909D01*
X151159335Y-89579972D01*
X151373292Y-89359909D01*
X151542857Y-89359909D01*
X151220884Y-89682187D01*
X151220884Y-89950000D01*
X151076659Y-89950000D01*
G37*
D10*
G36*
X166943024Y-87075197D02*
G01*
X165945048Y-87075197D01*
X165945048Y-86252196D01*
X166943024Y-86252196D01*
X166943024Y-87075197D01*
G37*
G36*
X167445714Y-87507325D02*
G01*
X163279343Y-87507325D01*
X163279343Y-87307325D01*
X163479343Y-87307325D01*
X163751259Y-87307325D01*
X163751259Y-86624019D01*
X163748841Y-86553787D01*
X163738949Y-86398705D01*
X163804235Y-86468278D01*
X163886667Y-86540269D01*
X164802101Y-87307325D01*
X165008841Y-87307325D01*
X165008841Y-86314954D01*
X165643567Y-86314954D01*
X165643567Y-87000129D01*
X165649551Y-87075197D01*
X165652873Y-87116870D01*
X165676455Y-87193684D01*
X165710062Y-87242149D01*
X165759428Y-87274700D01*
X165840238Y-87298007D01*
X165965931Y-87307325D01*
X166923241Y-87307325D01*
X167049010Y-87298008D01*
X167129896Y-87274702D01*
X167179329Y-87242149D01*
X167212876Y-87193694D01*
X167236421Y-87116882D01*
X167245714Y-87000129D01*
X167245714Y-86314954D01*
X167236380Y-86196657D01*
X167212800Y-86119279D01*
X167179329Y-86070846D01*
X167129928Y-86038472D01*
X167049046Y-86015276D01*
X166923241Y-86006000D01*
X165965931Y-86006000D01*
X165840201Y-86015277D01*
X165759396Y-86038474D01*
X165710062Y-86070846D01*
X165676531Y-86119289D01*
X165652914Y-86196669D01*
X165643567Y-86314954D01*
X165008841Y-86314954D01*
X165008841Y-86006000D01*
X164736815Y-86006000D01*
X164736815Y-86708979D01*
X164739893Y-86801853D01*
X164749125Y-86915829D01*
X164701205Y-86865380D01*
X164640864Y-86809986D01*
X163686082Y-86006000D01*
X163479343Y-86006000D01*
X163479343Y-87307325D01*
X163279343Y-87307325D01*
X163279343Y-85806000D01*
X167445714Y-85806000D01*
X167445714Y-87507325D01*
G37*
G36*
X130856659Y-120346526D02*
G01*
X130896515Y-120358266D01*
X130924180Y-120375563D01*
X130944454Y-120400538D01*
X130957578Y-120435051D01*
X130962465Y-120482297D01*
X130962465Y-120572301D01*
X130958655Y-120605705D01*
X130947874Y-120633032D01*
X130930286Y-120655648D01*
X130907086Y-120673068D01*
X130876902Y-120686161D01*
X130838023Y-120694422D01*
X130877941Y-120703471D01*
X130909414Y-120718306D01*
X130934072Y-120738569D01*
X130952577Y-120764350D01*
X130963950Y-120795110D01*
X130967960Y-120832236D01*
X130967960Y-120924438D01*
X130961734Y-120969154D01*
X130944265Y-121003621D01*
X130915326Y-121030378D01*
X130878412Y-121048178D01*
X130826590Y-121060362D01*
X130755347Y-121065000D01*
X130181132Y-121065000D01*
X130181132Y-120936039D01*
X130346546Y-120936039D01*
X130730068Y-120936039D01*
X130773452Y-120931661D01*
X130794670Y-120921690D01*
X130806637Y-120903562D01*
X130811401Y-120871193D01*
X130811401Y-120816543D01*
X130806621Y-120784185D01*
X130794670Y-120766352D01*
X130773493Y-120756645D01*
X130730068Y-120752369D01*
X130346546Y-120752369D01*
X130346546Y-120936039D01*
X130181132Y-120936039D01*
X130181132Y-120635132D01*
X130346546Y-120635132D01*
X130730068Y-120635132D01*
X130770039Y-120631539D01*
X130790518Y-120623286D01*
X130802697Y-120608012D01*
X130807310Y-120582070D01*
X130807310Y-120512339D01*
X130802737Y-120486924D01*
X130790518Y-120471489D01*
X130770003Y-120462973D01*
X130730068Y-120459277D01*
X130346546Y-120459277D01*
X130346546Y-120635132D01*
X130181132Y-120635132D01*
X130181132Y-120342041D01*
X130800471Y-120342041D01*
X130856659Y-120346526D01*
G37*
G36*
X131290544Y-121065000D02*
G01*
X131290544Y-120342041D01*
X131426587Y-120342041D01*
X131767001Y-120779724D01*
X132099904Y-120342041D01*
X132234604Y-120342041D01*
X132234604Y-121065000D01*
X132078777Y-121065000D01*
X132078777Y-120618768D01*
X132080487Y-120585917D01*
X132084883Y-120541343D01*
X132060947Y-120587566D01*
X132042507Y-120617363D01*
X131771092Y-120979026D01*
X131737631Y-120979026D01*
X131465544Y-120616020D01*
X131439899Y-120577308D01*
X131422496Y-120542015D01*
X131425549Y-120583108D01*
X131426587Y-120618768D01*
X131426587Y-121065000D01*
X131290544Y-121065000D01*
G37*
G36*
X132587413Y-121065000D02*
G01*
X132587413Y-120342041D01*
X133327041Y-120342041D01*
X133327041Y-120463185D01*
X132755574Y-120463185D01*
X132755574Y-120627316D01*
X133089148Y-120627316D01*
X133089148Y-120748461D01*
X132755574Y-120748461D01*
X132755574Y-120928224D01*
X133333880Y-120928224D01*
X133333880Y-121065000D01*
X132587413Y-121065000D01*
G37*
G36*
X133655120Y-120481564D02*
G01*
X133659726Y-120428998D01*
X133671498Y-120394075D01*
X133688581Y-120371716D01*
X133713243Y-120357075D01*
X133754574Y-120346367D01*
X133819862Y-120342041D01*
X134191050Y-120342041D01*
X134256332Y-120346359D01*
X134297793Y-120357062D01*
X134322636Y-120371716D01*
X134339925Y-120394110D01*
X134351816Y-120429039D01*
X134356464Y-120481564D01*
X134356464Y-120527909D01*
X134351911Y-120577338D01*
X134340405Y-120609181D01*
X134316983Y-120636464D01*
X134262857Y-120675982D01*
X133838302Y-120936039D01*
X134258034Y-120936039D01*
X134258034Y-120830526D01*
X134391329Y-120867712D01*
X134391329Y-120924560D01*
X134386678Y-120977428D01*
X134374783Y-121012593D01*
X134357502Y-121035141D01*
X134332641Y-121049893D01*
X134291179Y-121060657D01*
X134225916Y-121065000D01*
X133618239Y-121065000D01*
X133618239Y-120999848D01*
X133623783Y-120956059D01*
X133638390Y-120926697D01*
X133663491Y-120901720D01*
X133709831Y-120869056D01*
X134209490Y-120558440D01*
X134209490Y-120463185D01*
X133798002Y-120463185D01*
X133798002Y-120611685D01*
X133655120Y-120574926D01*
X133655120Y-120481564D01*
G37*
G36*
X135371349Y-120346375D02*
G01*
X135412811Y-120357119D01*
X135437666Y-120371838D01*
X135454950Y-120394309D01*
X135466844Y-120429356D01*
X135471493Y-120482053D01*
X135471493Y-120549159D01*
X135467580Y-120590526D01*
X135457007Y-120621545D01*
X135440719Y-120644658D01*
X135418024Y-120662219D01*
X135383339Y-120677939D01*
X135332702Y-120691003D01*
X135384956Y-120700784D01*
X135423098Y-120715674D01*
X135450305Y-120734661D01*
X135470585Y-120760184D01*
X135483315Y-120792900D01*
X135487918Y-120834984D01*
X135487918Y-120910760D01*
X135482675Y-120967942D01*
X135469152Y-121006514D01*
X135449267Y-121031721D01*
X135421208Y-121048468D01*
X135377342Y-121060324D01*
X135311514Y-121065000D01*
X134850078Y-121065000D01*
X134784724Y-121060373D01*
X134741192Y-121048644D01*
X134713363Y-121032088D01*
X134693728Y-121007116D01*
X134680305Y-120968490D01*
X134675078Y-120910760D01*
X134675078Y-120834984D01*
X134676878Y-120818620D01*
X134827547Y-120818620D01*
X134827547Y-120871193D01*
X134831526Y-120906727D01*
X134840553Y-120923400D01*
X134857810Y-120932110D01*
X134895935Y-120936039D01*
X135265719Y-120936039D01*
X135303298Y-120932137D01*
X135320734Y-120923400D01*
X135330028Y-120906682D01*
X135334107Y-120871193D01*
X135334107Y-120818620D01*
X135329940Y-120782468D01*
X135320429Y-120765375D01*
X135302719Y-120756342D01*
X135265719Y-120752369D01*
X134895935Y-120752369D01*
X134858934Y-120756342D01*
X134841224Y-120765375D01*
X134831713Y-120782468D01*
X134827547Y-120818620D01*
X134676878Y-120818620D01*
X134679658Y-120793348D01*
X134692369Y-120760721D01*
X134712692Y-120735027D01*
X134739905Y-120715774D01*
X134777642Y-120700781D01*
X134828890Y-120691003D01*
X134778709Y-120677568D01*
X134744090Y-120661643D01*
X134721240Y-120643986D01*
X134704745Y-120620824D01*
X134694090Y-120589997D01*
X134690160Y-120549159D01*
X134690160Y-120530963D01*
X134842568Y-120530963D01*
X134842568Y-120568026D01*
X134846874Y-120603831D01*
X134856917Y-120621516D01*
X134875339Y-120631004D01*
X134912971Y-120635132D01*
X135250026Y-120635132D01*
X135286993Y-120631106D01*
X135304981Y-120621882D01*
X135314769Y-120604410D01*
X135319025Y-120568026D01*
X135319025Y-120530963D01*
X135314749Y-120493995D01*
X135304981Y-120476496D01*
X135286986Y-120467227D01*
X135250026Y-120463185D01*
X134912971Y-120463185D01*
X134875339Y-120467313D01*
X134856917Y-120476802D01*
X134846892Y-120494564D01*
X134842568Y-120530963D01*
X134690160Y-120530963D01*
X134690160Y-120482053D01*
X134694810Y-120429356D01*
X134706703Y-120394309D01*
X134723988Y-120371838D01*
X134748843Y-120357119D01*
X134790304Y-120346375D01*
X134855574Y-120342041D01*
X135306080Y-120342041D01*
X135371349Y-120346375D01*
G37*
G36*
X136471051Y-120347061D02*
G01*
X136512504Y-120359716D01*
X136538285Y-120377639D01*
X136555629Y-120403971D01*
X136567949Y-120446327D01*
X136572845Y-120511362D01*
X136572845Y-120894762D01*
X136567947Y-120960182D01*
X136555622Y-121002791D01*
X136538285Y-121029279D01*
X136512492Y-121047269D01*
X136471038Y-121059965D01*
X136407371Y-121065000D01*
X135918641Y-121065000D01*
X135855489Y-121059979D01*
X135814213Y-121047296D01*
X135788398Y-121029279D01*
X135771094Y-121002797D01*
X135758790Y-120960189D01*
X135756985Y-120936039D01*
X135904963Y-120936039D01*
X136421048Y-120936039D01*
X136421048Y-120463185D01*
X135904963Y-120463185D01*
X135904963Y-120936039D01*
X135756985Y-120936039D01*
X135753899Y-120894762D01*
X135753899Y-120511362D01*
X135758787Y-120446320D01*
X135771088Y-120403965D01*
X135788398Y-120377639D01*
X135814201Y-120359690D01*
X135855475Y-120347047D01*
X135918641Y-120342041D01*
X136407371Y-120342041D01*
X136471051Y-120347061D01*
G37*
G36*
X151385987Y-72990037D02*
G01*
X143234010Y-72990037D01*
X143234010Y-72851148D01*
X143372899Y-72851148D01*
X143530006Y-72851148D01*
X143530006Y-72376630D01*
X143528609Y-72327858D01*
X143522894Y-72220162D01*
X143560614Y-72268476D01*
X143608242Y-72318470D01*
X144137159Y-72851148D01*
X144256609Y-72851148D01*
X144639088Y-72851148D01*
X144813976Y-72851148D01*
X145580840Y-72851148D01*
X145755029Y-72851148D01*
X146045048Y-72197951D01*
X146349355Y-72851148D01*
X146549136Y-72851148D01*
X146254798Y-72238862D01*
X146682111Y-72238862D01*
X146688396Y-72312823D01*
X146706147Y-72373898D01*
X146734800Y-72424809D01*
X146775270Y-72467229D01*
X146822231Y-72497832D01*
X146882414Y-72521725D01*
X146958746Y-72537579D01*
X147054621Y-72543402D01*
X147188676Y-72538288D01*
X147358928Y-72521344D01*
X147341909Y-72699717D01*
X146817246Y-72699717D01*
X146804418Y-72851148D01*
X147453484Y-72851148D01*
X147465873Y-72705900D01*
X148301695Y-72705900D01*
X148301695Y-72851148D01*
X149136381Y-72851148D01*
X149302632Y-72851148D01*
X149476821Y-72851148D01*
X149766840Y-72197951D01*
X150071147Y-72851148D01*
X150270928Y-72851148D01*
X149929258Y-72140401D01*
X150456547Y-72140401D01*
X150456547Y-72235656D01*
X150461659Y-72289488D01*
X150475824Y-72331287D01*
X150498523Y-72363884D01*
X150528700Y-72387747D01*
X150571507Y-72406389D01*
X150630737Y-72418304D01*
X150577495Y-72432876D01*
X150541259Y-72451260D01*
X150517701Y-72472266D01*
X150500805Y-72500417D01*
X150489792Y-72538746D01*
X150485695Y-72590495D01*
X150485695Y-72675751D01*
X150490496Y-72741825D01*
X150502765Y-72785722D01*
X150520559Y-72813825D01*
X150546186Y-72832245D01*
X150589147Y-72845709D01*
X150657027Y-72851148D01*
X151063701Y-72851148D01*
X151131580Y-72845711D01*
X151174567Y-72832248D01*
X151200233Y-72813825D01*
X151217991Y-72785730D01*
X151230239Y-72741834D01*
X151235032Y-72675751D01*
X151235032Y-72617133D01*
X151086435Y-72582481D01*
X151086435Y-72699717D01*
X150715323Y-72699717D01*
X150676902Y-72694586D01*
X150658424Y-72682849D01*
X150648552Y-72660672D01*
X150644199Y-72613546D01*
X150644199Y-72567063D01*
X150648512Y-72522456D01*
X150658424Y-72501041D01*
X150676842Y-72489750D01*
X150715323Y-72484784D01*
X150941394Y-72484784D01*
X150941394Y-72338238D01*
X150687572Y-72338238D01*
X150649008Y-72333222D01*
X150629975Y-72321675D01*
X150619532Y-72300093D01*
X150615051Y-72256035D01*
X150615051Y-72190166D01*
X150619448Y-72146289D01*
X150629657Y-72124907D01*
X150648422Y-72113620D01*
X150687572Y-72108650D01*
X151092849Y-72108650D01*
X151092849Y-72235656D01*
X151247098Y-72197035D01*
X151247098Y-72123228D01*
X151242261Y-72057035D01*
X151229888Y-72013006D01*
X151211917Y-71984773D01*
X151186063Y-71966333D01*
X151142942Y-71952877D01*
X151075068Y-71947450D01*
X150638547Y-71947450D01*
X150570586Y-71953242D01*
X150525312Y-71967929D01*
X150496364Y-71988665D01*
X150475946Y-72019882D01*
X150461984Y-72068185D01*
X150456547Y-72140401D01*
X149929258Y-72140401D01*
X149836503Y-71947450D01*
X149715656Y-71947450D01*
X149302632Y-72851148D01*
X149136381Y-72851148D01*
X149136381Y-72537754D01*
X148977813Y-72504323D01*
X148977813Y-72699717D01*
X148480901Y-72699717D01*
X148886115Y-71932795D01*
X148694843Y-71932795D01*
X148301695Y-72705900D01*
X147465873Y-72705900D01*
X147483066Y-72504323D01*
X147757093Y-72504323D01*
X148096199Y-72504323D01*
X148096199Y-72323583D01*
X147757093Y-72323583D01*
X147757093Y-72504323D01*
X147483066Y-72504323D01*
X147496158Y-72350832D01*
X147277199Y-72377775D01*
X147089484Y-72387087D01*
X146999401Y-72382490D01*
X146938685Y-72370890D01*
X146899737Y-72355030D01*
X146868164Y-72328544D01*
X146849921Y-72294009D01*
X146843536Y-72248784D01*
X146850145Y-72200848D01*
X146868911Y-72164566D01*
X146901134Y-72137043D01*
X146941197Y-72120654D01*
X147004712Y-72108578D01*
X147100153Y-72103765D01*
X147191300Y-72106546D01*
X147288249Y-72115137D01*
X147387294Y-72129280D01*
X147496158Y-72150171D01*
X147458501Y-71974850D01*
X147390910Y-71959473D01*
X147302474Y-71947221D01*
X147207643Y-71940199D01*
X147095898Y-71937680D01*
X146981830Y-71943422D01*
X146894352Y-71958758D01*
X146828495Y-71981255D01*
X146779906Y-72009121D01*
X146737533Y-72049777D01*
X146707505Y-72100123D01*
X146688793Y-72162072D01*
X146682111Y-72238862D01*
X146254798Y-72238862D01*
X146114711Y-71947450D01*
X145993864Y-71947450D01*
X145580840Y-72851148D01*
X144813976Y-72851148D01*
X144813976Y-71947450D01*
X144639088Y-71947450D01*
X144639088Y-72851148D01*
X144256609Y-72851148D01*
X144256609Y-71947450D01*
X144099439Y-71947450D01*
X144099439Y-72435630D01*
X144101217Y-72500125D01*
X144106551Y-72579275D01*
X144078864Y-72544242D01*
X144044000Y-72505773D01*
X143492349Y-71947450D01*
X143372899Y-71947450D01*
X143372899Y-72851148D01*
X143234010Y-72851148D01*
X143234010Y-71793906D01*
X151385987Y-71793906D01*
X151385987Y-72990037D01*
G37*
G36*
X167030433Y-75265197D02*
G01*
X166309672Y-75265197D01*
X166309672Y-74442196D01*
X167030433Y-74442196D01*
X167030433Y-75265197D01*
G37*
G36*
X167449043Y-75697325D02*
G01*
X163261160Y-75697325D01*
X163261160Y-75272231D01*
X163461160Y-75272231D01*
X163461160Y-75497325D01*
X164411167Y-75497325D01*
X164411167Y-75272231D01*
X164681690Y-75272231D01*
X164681690Y-75497325D01*
X165631697Y-75497325D01*
X165631697Y-74504954D01*
X166091936Y-74504954D01*
X166091936Y-75190129D01*
X166096258Y-75265197D01*
X166098657Y-75306870D01*
X166115688Y-75383684D01*
X166139960Y-75432149D01*
X166175613Y-75464700D01*
X166233976Y-75488007D01*
X166324754Y-75497325D01*
X167016145Y-75497325D01*
X167106978Y-75488008D01*
X167165396Y-75464702D01*
X167201098Y-75432149D01*
X167225326Y-75383694D01*
X167242331Y-75306882D01*
X167249043Y-75190129D01*
X167249043Y-74504954D01*
X167242301Y-74386657D01*
X167225271Y-74309279D01*
X167201098Y-74260846D01*
X167165419Y-74228472D01*
X167107005Y-74205276D01*
X167016145Y-74196000D01*
X166324754Y-74196000D01*
X166233950Y-74205277D01*
X166175591Y-74228474D01*
X166139960Y-74260846D01*
X166115743Y-74309289D01*
X166098687Y-74386669D01*
X166091936Y-74504954D01*
X165631697Y-74504954D01*
X165631697Y-74196000D01*
X165413087Y-74196000D01*
X165413087Y-74688393D01*
X165017622Y-74688393D01*
X165017622Y-74927556D01*
X165413087Y-74927556D01*
X165413087Y-75272231D01*
X164681690Y-75272231D01*
X164411167Y-75272231D01*
X164411167Y-74196000D01*
X164192557Y-74196000D01*
X164192557Y-74688393D01*
X163797091Y-74688393D01*
X163797091Y-74927556D01*
X164192557Y-74927556D01*
X164192557Y-75272231D01*
X163461160Y-75272231D01*
X163261160Y-75272231D01*
X163261160Y-73996000D01*
X167449043Y-73996000D01*
X167449043Y-75697325D01*
G37*
G36*
X114241546Y-89948399D02*
G01*
X113936693Y-89948399D01*
X113936693Y-89845397D01*
X114074789Y-89780217D01*
X114041771Y-89699077D01*
X113936693Y-89743739D01*
X113936693Y-89578732D01*
X114241546Y-89578732D01*
X114241546Y-89948399D01*
G37*
G36*
X114234177Y-88627287D02*
G01*
X114038311Y-88731185D01*
X114038311Y-88520173D01*
X114234177Y-88627287D01*
G37*
G36*
X114402530Y-90817328D02*
G01*
X113645430Y-90817328D01*
X113645430Y-90408244D01*
X113845498Y-90408244D01*
X113845498Y-90520365D01*
X114241546Y-90520365D01*
X114241546Y-90742328D01*
X114327530Y-90742328D01*
X114327530Y-90187176D01*
X114241546Y-90187176D01*
X114241546Y-90408244D01*
X113845498Y-90408244D01*
X113645430Y-90408244D01*
X113645430Y-89838110D01*
X113720430Y-89838110D01*
X113720430Y-89949295D01*
X113845498Y-89888674D01*
X113845498Y-89940664D01*
X113848939Y-89987231D01*
X113857545Y-90017164D01*
X113869558Y-90035442D01*
X113887505Y-90047858D01*
X113916202Y-90056608D01*
X113960102Y-90060073D01*
X114213902Y-90060073D01*
X114257088Y-90056626D01*
X114285502Y-90047891D01*
X114303429Y-90035442D01*
X114315464Y-90017160D01*
X114324084Y-89987227D01*
X114327530Y-89940664D01*
X114327530Y-89586060D01*
X114324084Y-89539469D01*
X114315465Y-89509508D01*
X114303429Y-89491201D01*
X114285506Y-89478773D01*
X114257093Y-89470053D01*
X114213902Y-89466610D01*
X113960102Y-89466610D01*
X113916197Y-89470070D01*
X113887501Y-89478806D01*
X113869558Y-89491201D01*
X113857545Y-89509504D01*
X113848939Y-89539464D01*
X113845498Y-89586060D01*
X113845498Y-89743739D01*
X113845498Y-89783840D01*
X113720430Y-89838110D01*
X113645430Y-89838110D01*
X113645430Y-88416235D01*
X113845498Y-88416235D01*
X113952326Y-88472296D01*
X113952326Y-88731185D01*
X113952326Y-88777678D01*
X113845498Y-88835571D01*
X113845498Y-88961372D01*
X114327530Y-88685139D01*
X114327530Y-88577130D01*
X113845498Y-88304561D01*
X113845498Y-88416235D01*
X113645430Y-88416235D01*
X113645430Y-87622672D01*
X113845498Y-87622672D01*
X114143022Y-87622672D01*
X114166798Y-87621980D01*
X114194198Y-87619944D01*
X114170666Y-87631547D01*
X114144855Y-87648647D01*
X113902820Y-87830060D01*
X113902820Y-87852371D01*
X114143959Y-88033336D01*
X114163826Y-88045631D01*
X114194646Y-88061591D01*
X114164926Y-88058659D01*
X114143022Y-88057519D01*
X113845498Y-88057519D01*
X113845498Y-88161417D01*
X114327530Y-88161417D01*
X114327530Y-88071606D01*
X114035705Y-87849643D01*
X114327530Y-87622672D01*
X114327530Y-87531965D01*
X113845498Y-87531965D01*
X113845498Y-87622672D01*
X113645430Y-87622672D01*
X113645430Y-86758921D01*
X113845498Y-86758921D01*
X114143022Y-86758921D01*
X114166798Y-86758229D01*
X114194198Y-86756194D01*
X114170666Y-86767797D01*
X114144855Y-86784896D01*
X113902820Y-86966310D01*
X113902820Y-86988620D01*
X114143959Y-87169586D01*
X114163826Y-87181881D01*
X114194646Y-87197840D01*
X114164926Y-87194909D01*
X114143022Y-87193769D01*
X113845498Y-87193769D01*
X113845498Y-87297666D01*
X114327530Y-87297666D01*
X114327530Y-87207855D01*
X114035705Y-86985892D01*
X114327530Y-86758921D01*
X114327530Y-86668215D01*
X113845498Y-86668215D01*
X113845498Y-86758921D01*
X113645430Y-86758921D01*
X113645430Y-86462699D01*
X113845498Y-86462699D01*
X113936693Y-86462699D01*
X113936693Y-86077114D01*
X114056550Y-86077114D01*
X114056550Y-86299525D01*
X114137323Y-86299525D01*
X114137323Y-86077114D01*
X114246757Y-86077114D01*
X114246757Y-86458140D01*
X114327530Y-86458140D01*
X114327530Y-85964992D01*
X113845498Y-85964992D01*
X113845498Y-86462699D01*
X113645430Y-86462699D01*
X113645430Y-85494115D01*
X113845498Y-85494115D01*
X113845498Y-85606236D01*
X114241546Y-85606236D01*
X114241546Y-85828199D01*
X114327530Y-85828199D01*
X114327530Y-85273047D01*
X114241546Y-85273047D01*
X114241546Y-85494115D01*
X113845498Y-85494115D01*
X113645430Y-85494115D01*
X113645430Y-84731860D01*
X113845498Y-84731860D01*
X113845498Y-85029466D01*
X113848966Y-85076353D01*
X113857642Y-85106525D01*
X113869762Y-85124977D01*
X113887864Y-85137532D01*
X113916527Y-85146337D01*
X113960062Y-85149811D01*
X114025893Y-85149811D01*
X114069199Y-85146340D01*
X114097723Y-85137537D01*
X114115745Y-85124977D01*
X114127821Y-85106532D01*
X114136470Y-85076362D01*
X114139928Y-85029466D01*
X114139928Y-84729091D01*
X114244152Y-84729091D01*
X114244152Y-85044529D01*
X114189434Y-85044529D01*
X114212681Y-85143419D01*
X114222737Y-85143419D01*
X114261068Y-85139939D01*
X114287191Y-85130930D01*
X114304487Y-85117649D01*
X114316064Y-85098829D01*
X114324280Y-85069072D01*
X114327530Y-85024011D01*
X114327530Y-84750546D01*
X114324099Y-84703941D01*
X114315521Y-84673982D01*
X114303551Y-84655687D01*
X114285708Y-84643253D01*
X114257446Y-84634536D01*
X114214513Y-84631097D01*
X114160732Y-84631097D01*
X114117171Y-84634542D01*
X114088511Y-84643267D01*
X114070433Y-84655687D01*
X114058286Y-84674014D01*
X114049599Y-84703977D01*
X114046127Y-84750546D01*
X114046127Y-85050881D01*
X113936693Y-85050881D01*
X113936693Y-84710404D01*
X113994016Y-84710404D01*
X113973375Y-84611514D01*
X113960062Y-84611514D01*
X113916527Y-84614988D01*
X113887864Y-84623794D01*
X113869762Y-84636349D01*
X113857642Y-84654801D01*
X113848966Y-84684972D01*
X113845498Y-84731860D01*
X113645430Y-84731860D01*
X113645430Y-84536514D01*
X114402530Y-84536514D01*
X114402530Y-90817328D01*
G37*
D11*
%TO.C,Q2*%
X157355000Y-75890000D02*
X158875000Y-75890000D01*
X157355000Y-76985000D02*
X157355000Y-75890000D01*
X157355000Y-79050000D02*
X157355000Y-77955000D01*
X158875000Y-77004000D02*
X158875000Y-77936000D01*
X158875000Y-79050000D02*
X157355000Y-79050000D01*
D14*
X159415000Y-79270000D02*
X158915000Y-79270000D01*
X159165000Y-79020000D01*
X159415000Y-79270000D01*
G36*
X159415000Y-79270000D02*
G01*
X158915000Y-79270000D01*
X159165000Y-79020000D01*
X159415000Y-79270000D01*
G37*
D11*
%TO.C,R12*%
X154294000Y-84895000D02*
X155584000Y-84895000D01*
X154294000Y-85792000D02*
X154294000Y-84895000D01*
X154294000Y-86405000D02*
X154294000Y-87585000D01*
X154294000Y-89095000D02*
X154294000Y-88198000D01*
X155584000Y-84895000D02*
X155584000Y-85792000D01*
X155584000Y-87585000D02*
X155584000Y-86405000D01*
X155584000Y-88198000D02*
X155584000Y-89095000D01*
X155584000Y-89095000D02*
X154294000Y-89095000D01*
%TO.C,C2*%
X129891000Y-116987000D02*
X131221000Y-116987000D01*
X129891000Y-117897000D02*
X129891000Y-116987000D01*
X129891000Y-118807000D02*
X129891000Y-119717000D01*
X129891000Y-119717000D02*
X131221000Y-119717000D01*
X131221000Y-116987000D02*
X131221000Y-117897000D01*
X131221000Y-119717000D02*
X131221000Y-118807000D01*
%TO.C,J1*%
X143260000Y-77480000D02*
X143260000Y-81730000D01*
X143260000Y-81730000D02*
X144280000Y-81730000D01*
X144280000Y-80130000D02*
X145560000Y-80130000D01*
X144280000Y-81730000D02*
X144280000Y-80130000D01*
X149080000Y-80130000D02*
X149080000Y-83020000D01*
X149660000Y-73910000D02*
X144980000Y-73910000D01*
X150360000Y-80130000D02*
X149080000Y-80130000D01*
X150360000Y-81730000D02*
X150360000Y-80130000D01*
X151380000Y-77480000D02*
X151380000Y-81730000D01*
X151380000Y-81730000D02*
X150360000Y-81730000D01*
%TO.C,Q4*%
X153505000Y-75920000D02*
X155105000Y-75920000D01*
X155105000Y-79020000D02*
X153505000Y-79020000D01*
D14*
X155605000Y-79370000D02*
X155105000Y-79370000D01*
X155355000Y-79120000D01*
X155605000Y-79370000D01*
G36*
X155605000Y-79370000D02*
G01*
X155105000Y-79370000D01*
X155355000Y-79120000D01*
X155605000Y-79370000D01*
G37*
D10*
%TO.C,J2*%
X117623000Y-113680000D02*
X130898000Y-113680000D01*
X130898000Y-99680000D02*
X118623000Y-99680000D01*
X130898000Y-99680000D02*
X130898000Y-100480000D01*
X130898000Y-106180000D02*
X130898000Y-102930000D01*
X130898000Y-113680000D02*
X130898000Y-108630000D01*
D11*
%TO.C,R10*%
X135810000Y-117719000D02*
X135810000Y-119009000D01*
X135810000Y-119009000D02*
X136707000Y-119009000D01*
X136707000Y-117719000D02*
X135810000Y-117719000D01*
X137603000Y-117719000D02*
X138500000Y-117719000D01*
X138500000Y-117719000D02*
X138500000Y-119009000D01*
X138500000Y-119009000D02*
X137603000Y-119009000D01*
%TO.C,R5*%
X127244000Y-96191000D02*
X128534000Y-96191000D01*
X127244000Y-97088000D02*
X127244000Y-96191000D01*
X127244000Y-97984000D02*
X127244000Y-98881000D01*
X127244000Y-98881000D02*
X128534000Y-98881000D01*
X128534000Y-96191000D02*
X128534000Y-97088000D01*
X128534000Y-98881000D02*
X128534000Y-97984000D01*
D15*
%TO.C,G\u002A\u002A\u002A*%
G36*
X156955440Y-86962676D02*
G01*
X156959678Y-86964023D01*
X156964255Y-86965835D01*
X156968718Y-86967911D01*
X156972614Y-86970049D01*
X156974144Y-86971034D01*
X156980308Y-86976017D01*
X156985761Y-86981934D01*
X156990388Y-86988608D01*
X156994074Y-86995863D01*
X156996702Y-87003524D01*
X156997379Y-87006405D01*
X156997422Y-87006685D01*
X156997464Y-87007112D01*
X156997505Y-87007706D01*
X156997544Y-87008484D01*
X156997582Y-87009464D01*
X156997619Y-87010664D01*
X156997655Y-87012102D01*
X156997690Y-87013796D01*
X156997723Y-87015765D01*
X156997756Y-87018026D01*
X156997787Y-87020596D01*
X156997817Y-87023496D01*
X156997847Y-87026741D01*
X156997875Y-87030351D01*
X156997902Y-87034343D01*
X156997929Y-87038736D01*
X156997954Y-87043547D01*
X156997978Y-87048794D01*
X156998002Y-87054496D01*
X156998024Y-87060670D01*
X156998046Y-87067335D01*
X156998067Y-87074508D01*
X156998086Y-87082208D01*
X156998105Y-87090452D01*
X156998124Y-87099260D01*
X156998141Y-87108647D01*
X156998158Y-87118634D01*
X156998173Y-87129237D01*
X156998188Y-87140474D01*
X156998203Y-87152365D01*
X156998216Y-87164926D01*
X156998229Y-87178176D01*
X156998242Y-87192133D01*
X156998253Y-87206815D01*
X156998264Y-87222240D01*
X156998274Y-87238425D01*
X156998284Y-87255390D01*
X156998293Y-87273151D01*
X156998301Y-87291728D01*
X156998309Y-87311137D01*
X156998317Y-87331398D01*
X156998324Y-87352527D01*
X156998330Y-87374544D01*
X156998336Y-87397466D01*
X156998341Y-87421311D01*
X156998346Y-87446097D01*
X156998351Y-87471842D01*
X156998355Y-87498564D01*
X156998358Y-87526282D01*
X156998362Y-87555013D01*
X156998365Y-87584776D01*
X156998367Y-87615587D01*
X156998370Y-87647466D01*
X156998372Y-87680431D01*
X156998373Y-87714499D01*
X156998375Y-87749688D01*
X156998376Y-87786017D01*
X156998377Y-87823503D01*
X156998377Y-87862165D01*
X156998378Y-87902020D01*
X156998378Y-87943087D01*
X156998378Y-87985383D01*
X156998378Y-88010932D01*
X156998378Y-88054242D01*
X156998378Y-88096311D01*
X156998378Y-88137157D01*
X156998377Y-88176798D01*
X156998376Y-88215250D01*
X156998374Y-88252532D01*
X156998373Y-88288662D01*
X156998371Y-88323656D01*
X156998368Y-88357532D01*
X156998366Y-88390308D01*
X156998363Y-88422002D01*
X156998360Y-88452631D01*
X156998356Y-88482213D01*
X156998352Y-88510764D01*
X156998347Y-88538304D01*
X156998342Y-88564849D01*
X156998337Y-88590417D01*
X156998331Y-88615025D01*
X156998324Y-88638692D01*
X156998317Y-88661434D01*
X156998310Y-88683270D01*
X156998302Y-88704216D01*
X156998293Y-88724291D01*
X156998284Y-88743512D01*
X156998275Y-88761896D01*
X156998264Y-88779462D01*
X156998253Y-88796226D01*
X156998242Y-88812206D01*
X156998230Y-88827421D01*
X156998217Y-88841887D01*
X156998203Y-88855622D01*
X156998189Y-88868643D01*
X156998174Y-88880969D01*
X156998159Y-88892616D01*
X156998142Y-88903603D01*
X156998125Y-88913947D01*
X156998107Y-88923665D01*
X156998089Y-88932775D01*
X156998069Y-88941295D01*
X156998049Y-88949242D01*
X156998027Y-88956634D01*
X156998005Y-88963488D01*
X156997983Y-88969823D01*
X156997959Y-88975654D01*
X156997934Y-88981001D01*
X156997908Y-88985881D01*
X156997882Y-88990311D01*
X156997854Y-88994308D01*
X156997826Y-88997891D01*
X156997797Y-89001077D01*
X156997766Y-89003884D01*
X156997735Y-89006329D01*
X156997702Y-89008429D01*
X156997669Y-89010203D01*
X156997634Y-89011668D01*
X156997598Y-89012841D01*
X156997562Y-89013740D01*
X156997524Y-89014382D01*
X156997485Y-89014786D01*
X156997466Y-89014898D01*
X156995079Y-89023272D01*
X156991657Y-89030966D01*
X156987259Y-89037920D01*
X156981944Y-89044075D01*
X156975773Y-89049371D01*
X156968804Y-89053750D01*
X156961096Y-89057153D01*
X156952882Y-89059482D01*
X156952541Y-89059530D01*
X156951965Y-89059577D01*
X156951134Y-89059622D01*
X156950025Y-89059665D01*
X156948616Y-89059707D01*
X156946887Y-89059747D01*
X156944816Y-89059786D01*
X156942380Y-89059823D01*
X156939559Y-89059858D01*
X156936330Y-89059892D01*
X156932673Y-89059924D01*
X156928565Y-89059955D01*
X156923985Y-89059985D01*
X156918911Y-89060013D01*
X156913322Y-89060040D01*
X156907195Y-89060065D01*
X156900510Y-89060089D01*
X156893245Y-89060112D01*
X156885378Y-89060134D01*
X156876887Y-89060154D01*
X156867751Y-89060174D01*
X156857949Y-89060192D01*
X156847458Y-89060209D01*
X156836257Y-89060224D01*
X156824324Y-89060239D01*
X156811638Y-89060253D01*
X156798177Y-89060266D01*
X156783919Y-89060277D01*
X156768844Y-89060288D01*
X156752928Y-89060298D01*
X156736152Y-89060306D01*
X156718492Y-89060314D01*
X156699927Y-89060322D01*
X156680436Y-89060328D01*
X156659998Y-89060333D01*
X156638589Y-89060338D01*
X156616190Y-89060342D01*
X156592778Y-89060345D01*
X156568331Y-89060348D01*
X156542828Y-89060350D01*
X156516248Y-89060351D01*
X156488568Y-89060351D01*
X156459768Y-89060351D01*
X156429825Y-89060351D01*
X156398718Y-89060350D01*
X156366425Y-89060348D01*
X156332924Y-89060347D01*
X156298195Y-89060344D01*
X156285687Y-89060343D01*
X156250614Y-89060340D01*
X156216778Y-89060337D01*
X156184156Y-89060334D01*
X156152728Y-89060330D01*
X156122469Y-89060326D01*
X156093360Y-89060322D01*
X156065378Y-89060318D01*
X156038502Y-89060313D01*
X156012709Y-89060307D01*
X155987977Y-89060301D01*
X155964285Y-89060295D01*
X155941611Y-89060288D01*
X155919932Y-89060281D01*
X155899228Y-89060273D01*
X155879477Y-89060264D01*
X155860655Y-89060255D01*
X155842742Y-89060245D01*
X155825716Y-89060234D01*
X155809555Y-89060222D01*
X155794236Y-89060210D01*
X155779739Y-89060197D01*
X155766041Y-89060183D01*
X155753121Y-89060168D01*
X155740956Y-89060152D01*
X155729524Y-89060135D01*
X155718805Y-89060118D01*
X155708775Y-89060099D01*
X155699414Y-89060079D01*
X155690699Y-89060058D01*
X155682608Y-89060036D01*
X155675120Y-89060013D01*
X155668212Y-89059989D01*
X155661863Y-89059963D01*
X155656052Y-89059936D01*
X155650755Y-89059908D01*
X155645952Y-89059879D01*
X155641620Y-89059848D01*
X155637737Y-89059816D01*
X155634283Y-89059783D01*
X155631234Y-89059748D01*
X155628569Y-89059711D01*
X155626266Y-89059673D01*
X155624303Y-89059634D01*
X155622659Y-89059593D01*
X155621311Y-89059550D01*
X155620239Y-89059506D01*
X155619418Y-89059460D01*
X155618829Y-89059412D01*
X155618449Y-89059363D01*
X155618384Y-89059350D01*
X155610751Y-89057105D01*
X155603413Y-89053762D01*
X155596565Y-89049450D01*
X155590398Y-89044295D01*
X155585105Y-89038426D01*
X155583449Y-89036160D01*
X155581181Y-89032391D01*
X155578949Y-89027840D01*
X155576955Y-89022971D01*
X155575404Y-89018247D01*
X155575129Y-89017221D01*
X155573706Y-89011637D01*
X155573706Y-88010685D01*
X155573706Y-87967772D01*
X155573706Y-87926098D01*
X155573707Y-87885646D01*
X155573707Y-87846398D01*
X155573708Y-87808335D01*
X155573708Y-87771439D01*
X155573708Y-87768137D01*
X155952149Y-87768137D01*
X155952242Y-87775856D01*
X155953370Y-87783504D01*
X155955528Y-87790954D01*
X155958712Y-87798082D01*
X155962919Y-87804762D01*
X155968143Y-87810871D01*
X155970092Y-87812742D01*
X155976702Y-87817945D01*
X155984027Y-87822166D01*
X155991877Y-87825304D01*
X155994596Y-87826097D01*
X155998592Y-87826873D01*
X156003329Y-87827353D01*
X156008386Y-87827529D01*
X156013345Y-87827395D01*
X156017785Y-87826946D01*
X156020225Y-87826474D01*
X156027044Y-87824392D01*
X156033446Y-87821664D01*
X156038966Y-87818504D01*
X156039913Y-87817776D01*
X156041761Y-87816266D01*
X156044462Y-87814013D01*
X156047967Y-87811059D01*
X156052227Y-87807447D01*
X156057193Y-87803218D01*
X156062818Y-87798414D01*
X156069053Y-87793075D01*
X156075848Y-87787245D01*
X156083155Y-87780964D01*
X156090927Y-87774274D01*
X156099113Y-87767218D01*
X156107666Y-87759836D01*
X156116537Y-87752170D01*
X156125677Y-87744262D01*
X156135037Y-87736153D01*
X156136466Y-87734915D01*
X156229263Y-87654472D01*
X156229586Y-88076997D01*
X156229608Y-88104665D01*
X156229628Y-88131102D01*
X156229648Y-88156337D01*
X156229668Y-88180399D01*
X156229687Y-88203315D01*
X156229706Y-88225114D01*
X156229724Y-88245823D01*
X156229743Y-88265472D01*
X156229761Y-88284087D01*
X156229780Y-88301698D01*
X156229799Y-88318333D01*
X156229818Y-88334019D01*
X156229837Y-88348785D01*
X156229857Y-88362659D01*
X156229877Y-88375670D01*
X156229899Y-88387845D01*
X156229920Y-88399212D01*
X156229943Y-88409800D01*
X156229967Y-88419637D01*
X156229991Y-88428751D01*
X156230017Y-88437171D01*
X156230044Y-88444924D01*
X156230072Y-88452039D01*
X156230101Y-88458543D01*
X156230133Y-88464465D01*
X156230165Y-88469834D01*
X156230200Y-88474677D01*
X156230236Y-88479023D01*
X156230274Y-88482899D01*
X156230314Y-88486334D01*
X156230356Y-88489357D01*
X156230400Y-88491994D01*
X156230446Y-88494275D01*
X156230495Y-88496228D01*
X156230546Y-88497880D01*
X156230600Y-88499261D01*
X156230656Y-88500397D01*
X156230715Y-88501318D01*
X156230777Y-88502052D01*
X156230842Y-88502626D01*
X156230910Y-88503069D01*
X156230981Y-88503409D01*
X156231012Y-88503530D01*
X156233944Y-88512034D01*
X156237822Y-88519736D01*
X156242605Y-88526599D01*
X156248255Y-88532582D01*
X156254731Y-88537649D01*
X156261993Y-88541758D01*
X156270003Y-88544873D01*
X156274561Y-88546112D01*
X156277711Y-88546595D01*
X156281730Y-88546837D01*
X156286256Y-88546850D01*
X156290924Y-88546648D01*
X156295371Y-88546243D01*
X156299235Y-88545649D01*
X156301294Y-88545158D01*
X156309125Y-88542241D01*
X156316362Y-88538258D01*
X156322919Y-88533293D01*
X156328712Y-88527431D01*
X156333657Y-88520755D01*
X156337670Y-88513351D01*
X156340419Y-88506120D01*
X156341878Y-88501409D01*
X156342192Y-88077791D01*
X156342507Y-87654173D01*
X156435009Y-87734285D01*
X156444355Y-87742378D01*
X156453467Y-87750266D01*
X156462298Y-87757910D01*
X156470801Y-87765268D01*
X156478929Y-87772298D01*
X156486633Y-87778961D01*
X156493868Y-87785216D01*
X156500584Y-87791020D01*
X156506736Y-87796335D01*
X156512276Y-87801118D01*
X156517156Y-87805328D01*
X156521329Y-87808926D01*
X156524748Y-87811869D01*
X156527366Y-87814118D01*
X156529134Y-87815631D01*
X156530007Y-87816367D01*
X156530059Y-87816409D01*
X156533262Y-87818619D01*
X156537248Y-87820886D01*
X156541571Y-87822982D01*
X156545789Y-87824678D01*
X156546770Y-87825011D01*
X156554674Y-87826944D01*
X156562631Y-87827680D01*
X156570524Y-87827268D01*
X156578236Y-87825760D01*
X156585650Y-87823204D01*
X156592649Y-87819652D01*
X156599118Y-87815151D01*
X156604938Y-87809753D01*
X156609993Y-87803508D01*
X156614167Y-87796465D01*
X156614322Y-87796151D01*
X156617376Y-87788569D01*
X156619288Y-87780740D01*
X156620076Y-87772801D01*
X156619758Y-87764888D01*
X156618352Y-87757138D01*
X156615877Y-87749686D01*
X156612349Y-87742670D01*
X156607788Y-87736224D01*
X156606139Y-87734332D01*
X156605412Y-87733645D01*
X156603779Y-87732174D01*
X156601286Y-87729958D01*
X156597978Y-87727039D01*
X156593900Y-87723454D01*
X156589099Y-87719243D01*
X156583620Y-87714447D01*
X156577508Y-87709104D01*
X156570809Y-87703254D01*
X156563569Y-87696937D01*
X156555832Y-87690192D01*
X156547646Y-87683059D01*
X156539054Y-87675578D01*
X156530103Y-87667787D01*
X156520839Y-87659726D01*
X156511306Y-87651436D01*
X156501550Y-87642955D01*
X156491618Y-87634323D01*
X156481554Y-87625580D01*
X156471404Y-87616765D01*
X156461214Y-87607918D01*
X156451029Y-87599078D01*
X156440895Y-87590285D01*
X156430857Y-87581579D01*
X156420961Y-87572998D01*
X156411253Y-87564583D01*
X156401777Y-87556373D01*
X156392580Y-87548407D01*
X156383708Y-87540726D01*
X156375204Y-87533368D01*
X156367116Y-87526374D01*
X156359489Y-87519782D01*
X156352369Y-87513633D01*
X156345800Y-87507966D01*
X156339828Y-87502820D01*
X156334500Y-87498235D01*
X156329860Y-87494251D01*
X156325955Y-87490907D01*
X156322829Y-87488243D01*
X156320528Y-87486298D01*
X156319099Y-87485111D01*
X156318710Y-87484804D01*
X156315182Y-87482505D01*
X156310850Y-87480216D01*
X156306155Y-87478144D01*
X156301535Y-87476495D01*
X156300219Y-87476111D01*
X156297899Y-87475543D01*
X156295594Y-87475156D01*
X156292980Y-87474920D01*
X156289734Y-87474804D01*
X156285885Y-87474777D01*
X156282023Y-87474804D01*
X156279087Y-87474901D01*
X156276745Y-87475105D01*
X156274664Y-87475455D01*
X156272512Y-87475987D01*
X156270786Y-87476489D01*
X156263150Y-87479276D01*
X156256463Y-87482779D01*
X156252098Y-87485831D01*
X156251045Y-87486697D01*
X156249101Y-87488338D01*
X156246312Y-87490715D01*
X156242724Y-87493787D01*
X156238383Y-87497515D01*
X156233334Y-87501859D01*
X156227624Y-87506779D01*
X156221298Y-87512235D01*
X156214402Y-87518188D01*
X156206983Y-87524598D01*
X156199085Y-87531425D01*
X156190755Y-87538629D01*
X156182039Y-87546170D01*
X156172983Y-87554009D01*
X156163632Y-87562106D01*
X156154033Y-87570421D01*
X156144230Y-87578914D01*
X156134271Y-87587546D01*
X156124201Y-87596276D01*
X156114066Y-87605065D01*
X156103911Y-87613874D01*
X156093783Y-87622661D01*
X156083727Y-87631388D01*
X156073790Y-87640015D01*
X156064017Y-87648502D01*
X156054454Y-87656809D01*
X156045147Y-87664896D01*
X156036142Y-87672723D01*
X156027485Y-87680252D01*
X156019221Y-87687441D01*
X156011397Y-87694252D01*
X156004058Y-87700644D01*
X155997250Y-87706577D01*
X155991019Y-87712012D01*
X155985411Y-87716910D01*
X155980473Y-87721229D01*
X155976248Y-87724931D01*
X155972785Y-87727975D01*
X155970127Y-87730323D01*
X155968323Y-87731933D01*
X155967416Y-87732767D01*
X155967356Y-87732827D01*
X155962211Y-87739034D01*
X155958122Y-87745793D01*
X155955085Y-87752980D01*
X155953095Y-87760470D01*
X155952149Y-87768137D01*
X155573708Y-87768137D01*
X155573709Y-87735693D01*
X155573710Y-87701077D01*
X155573712Y-87667574D01*
X155573713Y-87635166D01*
X155573715Y-87603833D01*
X155573718Y-87573559D01*
X155573720Y-87544325D01*
X155573723Y-87516112D01*
X155573726Y-87488903D01*
X155573730Y-87462679D01*
X155573734Y-87437422D01*
X155573739Y-87413113D01*
X155573743Y-87389736D01*
X155573749Y-87367271D01*
X155573755Y-87345700D01*
X155573761Y-87325005D01*
X155573768Y-87305168D01*
X155573775Y-87286170D01*
X155573783Y-87267994D01*
X155573792Y-87250621D01*
X155573801Y-87234033D01*
X155573810Y-87218212D01*
X155573821Y-87203140D01*
X155573832Y-87188798D01*
X155573844Y-87175168D01*
X155573856Y-87162232D01*
X155573869Y-87149972D01*
X155573883Y-87138370D01*
X155573897Y-87127406D01*
X155573913Y-87117065D01*
X155573929Y-87107326D01*
X155573946Y-87098172D01*
X155573964Y-87089584D01*
X155573982Y-87081545D01*
X155574002Y-87074036D01*
X155574022Y-87067039D01*
X155574044Y-87060536D01*
X155574066Y-87054508D01*
X155574089Y-87048938D01*
X155574113Y-87043807D01*
X155574138Y-87039097D01*
X155574164Y-87034790D01*
X155574192Y-87030867D01*
X155574220Y-87027310D01*
X155574249Y-87024102D01*
X155574280Y-87021224D01*
X155574311Y-87018657D01*
X155574344Y-87016384D01*
X155574378Y-87014387D01*
X155574413Y-87012646D01*
X155574449Y-87011145D01*
X155574486Y-87009864D01*
X155574525Y-87008786D01*
X155574564Y-87007892D01*
X155574606Y-87007164D01*
X155574648Y-87006584D01*
X155574692Y-87006134D01*
X155574737Y-87005795D01*
X155574783Y-87005550D01*
X155574796Y-87005496D01*
X155577479Y-86997155D01*
X155581035Y-86989674D01*
X155585516Y-86982959D01*
X155590145Y-86977730D01*
X155596276Y-86972413D01*
X155603092Y-86968066D01*
X155610689Y-86964635D01*
X155617911Y-86962381D01*
X155618175Y-86962324D01*
X155618531Y-86962269D01*
X155619001Y-86962216D01*
X155619607Y-86962164D01*
X155620372Y-86962115D01*
X155621317Y-86962068D01*
X155622466Y-86962022D01*
X155623840Y-86961978D01*
X155625463Y-86961936D01*
X155627357Y-86961896D01*
X155629543Y-86961858D01*
X155632044Y-86961821D01*
X155634884Y-86961785D01*
X155638083Y-86961752D01*
X155641665Y-86961720D01*
X155645652Y-86961689D01*
X155650066Y-86961660D01*
X155654930Y-86961632D01*
X155660266Y-86961606D01*
X155666096Y-86961581D01*
X155672443Y-86961558D01*
X155679330Y-86961535D01*
X155686778Y-86961514D01*
X155694810Y-86961495D01*
X155703449Y-86961476D01*
X155712717Y-86961459D01*
X155722636Y-86961442D01*
X155733228Y-86961427D01*
X155744517Y-86961413D01*
X155756524Y-86961400D01*
X155769272Y-86961388D01*
X155782783Y-86961376D01*
X155797080Y-86961366D01*
X155812185Y-86961357D01*
X155828120Y-86961348D01*
X155844908Y-86961340D01*
X155862571Y-86961333D01*
X155881132Y-86961326D01*
X155900612Y-86961321D01*
X155921035Y-86961316D01*
X155942423Y-86961311D01*
X155964799Y-86961307D01*
X155988183Y-86961304D01*
X156012600Y-86961301D01*
X156038071Y-86961298D01*
X156064619Y-86961296D01*
X156092266Y-86961295D01*
X156121034Y-86961294D01*
X156150946Y-86961293D01*
X156182025Y-86961292D01*
X156214293Y-86961291D01*
X156247771Y-86961291D01*
X156282483Y-86961291D01*
X156286200Y-86961291D01*
X156950250Y-86961291D01*
X156955440Y-86962676D01*
G37*
D11*
%TO.C,C4*%
X116937000Y-96171000D02*
X116937000Y-97081000D01*
X116937000Y-98901000D02*
X116937000Y-97991000D01*
X118267000Y-96171000D02*
X116937000Y-96171000D01*
X118267000Y-97081000D02*
X118267000Y-96171000D01*
X118267000Y-97991000D02*
X118267000Y-98901000D01*
X118267000Y-98901000D02*
X116937000Y-98901000D01*
%TO.C,R3*%
X120698000Y-96191000D02*
X121988000Y-96191000D01*
X120698000Y-97088000D02*
X120698000Y-96191000D01*
X120698000Y-97984000D02*
X120698000Y-98881000D01*
X120698000Y-98881000D02*
X121988000Y-98881000D01*
X121988000Y-96191000D02*
X121988000Y-97088000D01*
X121988000Y-98881000D02*
X121988000Y-97984000D01*
%TO.C,U1*%
X121920000Y-91630500D02*
X121920000Y-76009500D01*
X124460000Y-73469500D02*
X137160000Y-73469500D01*
X126365000Y-73469500D02*
X126365000Y-72390000D01*
X135255000Y-72390000D02*
X126365000Y-72390000D01*
X135255000Y-73469500D02*
X135255000Y-72390000D01*
X137160000Y-94170500D02*
X124460000Y-94170500D01*
X139700000Y-76009500D02*
X139700000Y-91630500D01*
X121920000Y-76009500D02*
G75*
G02*
X124460000Y-73469500I2540001J-1D01*
G01*
X124460000Y-94170500D02*
G75*
G02*
X121920000Y-91630500I1J2540001D01*
G01*
X137160000Y-73469500D02*
G75*
G02*
X139700000Y-76009500I0J-2540000D01*
G01*
X139700000Y-91630500D02*
G75*
G02*
X137160000Y-94170500I-2540000J0D01*
G01*
%TO.C,J3*%
X115425000Y-85690000D02*
X115425000Y-89570000D01*
X117395000Y-84520000D02*
X119895000Y-84520000D01*
X117395000Y-90740000D02*
X119895000Y-90740000D01*
X119895000Y-84520000D02*
X119895000Y-85570000D01*
X119895000Y-85570000D02*
X120885000Y-85570000D01*
X119895000Y-90740000D02*
X119895000Y-89690000D01*
%TO.C,R1*%
X130546000Y-96191000D02*
X131836000Y-96191000D01*
X130546000Y-97088000D02*
X130546000Y-96191000D01*
X130546000Y-97984000D02*
X130546000Y-98881000D01*
X130546000Y-98881000D02*
X131836000Y-98881000D01*
X131836000Y-96191000D02*
X131836000Y-97088000D01*
X131836000Y-98881000D02*
X131836000Y-97984000D01*
%TO.C,U2*%
D16*
X131950000Y-115440000D02*
X134750000Y-115440000D01*
X134750000Y-118240000D01*
X131950000Y-118240000D01*
X131950000Y-115440000D01*
D14*
X135200000Y-116115000D02*
X134950000Y-115865000D01*
X135200000Y-115615000D01*
X135200000Y-116115000D01*
G36*
X135200000Y-116115000D02*
G01*
X134950000Y-115865000D01*
X135200000Y-115615000D01*
X135200000Y-116115000D01*
G37*
D11*
%TO.C,Q1*%
X157355000Y-79700000D02*
X158875000Y-79700000D01*
X157355000Y-80795000D02*
X157355000Y-79700000D01*
X157355000Y-82860000D02*
X157355000Y-81765000D01*
X158875000Y-80814000D02*
X158875000Y-81746000D01*
X158875000Y-82860000D02*
X157355000Y-82860000D01*
D14*
X159415000Y-83080000D02*
X158915000Y-83080000D01*
X159165000Y-82830000D01*
X159415000Y-83080000D01*
G36*
X159415000Y-83080000D02*
G01*
X158915000Y-83080000D01*
X159165000Y-82830000D01*
X159415000Y-83080000D01*
G37*
D11*
%TO.C,R2*%
X119047000Y-96191000D02*
X120337000Y-96191000D01*
X119047000Y-97088000D02*
X119047000Y-96191000D01*
X119047000Y-97984000D02*
X119047000Y-98881000D01*
X119047000Y-98881000D02*
X120337000Y-98881000D01*
X120337000Y-96191000D02*
X120337000Y-97088000D01*
X120337000Y-98881000D02*
X120337000Y-97984000D01*
%TO.C,U3*%
D16*
X140970000Y-90170000D02*
X168910000Y-90170000D01*
X168910000Y-118110000D01*
X140970000Y-118110000D01*
X140970000Y-90170000D01*
X149860000Y-91440000D02*
X160020000Y-91440000D01*
X160020000Y-93980000D01*
X149860000Y-93980000D01*
X149860000Y-91440000D01*
D11*
%TO.C,R9*%
X135820000Y-116195000D02*
X135820000Y-117485000D01*
X135820000Y-117485000D02*
X136717000Y-117485000D01*
X136717000Y-116195000D02*
X135820000Y-116195000D01*
X137613000Y-116195000D02*
X138510000Y-116195000D01*
X138510000Y-116195000D02*
X138510000Y-117485000D01*
X138510000Y-117485000D02*
X137613000Y-117485000D01*
D15*
%TO.C,G\u002A\u002A\u002A*%
G36*
X151723040Y-84905276D02*
G01*
X151727278Y-84906623D01*
X151731855Y-84908435D01*
X151736318Y-84910511D01*
X151740214Y-84912649D01*
X151741744Y-84913634D01*
X151747908Y-84918617D01*
X151753361Y-84924534D01*
X151757988Y-84931208D01*
X151761674Y-84938463D01*
X151764302Y-84946124D01*
X151764979Y-84949005D01*
X151765022Y-84949285D01*
X151765064Y-84949712D01*
X151765105Y-84950306D01*
X151765144Y-84951084D01*
X151765182Y-84952064D01*
X151765219Y-84953264D01*
X151765255Y-84954702D01*
X151765290Y-84956396D01*
X151765323Y-84958365D01*
X151765356Y-84960626D01*
X151765387Y-84963196D01*
X151765417Y-84966096D01*
X151765447Y-84969341D01*
X151765475Y-84972951D01*
X151765502Y-84976943D01*
X151765529Y-84981336D01*
X151765554Y-84986147D01*
X151765578Y-84991394D01*
X151765602Y-84997096D01*
X151765624Y-85003270D01*
X151765646Y-85009935D01*
X151765667Y-85017108D01*
X151765686Y-85024808D01*
X151765705Y-85033052D01*
X151765724Y-85041860D01*
X151765741Y-85051247D01*
X151765758Y-85061234D01*
X151765773Y-85071837D01*
X151765788Y-85083074D01*
X151765803Y-85094965D01*
X151765816Y-85107526D01*
X151765829Y-85120776D01*
X151765842Y-85134733D01*
X151765853Y-85149415D01*
X151765864Y-85164840D01*
X151765874Y-85181025D01*
X151765884Y-85197990D01*
X151765893Y-85215751D01*
X151765901Y-85234328D01*
X151765909Y-85253737D01*
X151765917Y-85273998D01*
X151765924Y-85295127D01*
X151765930Y-85317144D01*
X151765936Y-85340066D01*
X151765941Y-85363911D01*
X151765946Y-85388697D01*
X151765951Y-85414442D01*
X151765955Y-85441164D01*
X151765958Y-85468882D01*
X151765962Y-85497613D01*
X151765965Y-85527376D01*
X151765967Y-85558187D01*
X151765970Y-85590066D01*
X151765972Y-85623031D01*
X151765973Y-85657099D01*
X151765975Y-85692288D01*
X151765976Y-85728617D01*
X151765977Y-85766103D01*
X151765977Y-85804765D01*
X151765978Y-85844620D01*
X151765978Y-85885687D01*
X151765978Y-85927983D01*
X151765978Y-85953532D01*
X151765978Y-85996842D01*
X151765978Y-86038911D01*
X151765978Y-86079757D01*
X151765977Y-86119398D01*
X151765976Y-86157850D01*
X151765974Y-86195132D01*
X151765973Y-86231262D01*
X151765971Y-86266256D01*
X151765968Y-86300132D01*
X151765966Y-86332908D01*
X151765963Y-86364602D01*
X151765960Y-86395231D01*
X151765956Y-86424813D01*
X151765952Y-86453364D01*
X151765947Y-86480904D01*
X151765942Y-86507449D01*
X151765937Y-86533017D01*
X151765931Y-86557625D01*
X151765924Y-86581292D01*
X151765917Y-86604034D01*
X151765910Y-86625870D01*
X151765902Y-86646816D01*
X151765893Y-86666891D01*
X151765884Y-86686112D01*
X151765875Y-86704496D01*
X151765864Y-86722062D01*
X151765853Y-86738826D01*
X151765842Y-86754806D01*
X151765830Y-86770021D01*
X151765817Y-86784487D01*
X151765803Y-86798222D01*
X151765789Y-86811243D01*
X151765774Y-86823569D01*
X151765759Y-86835216D01*
X151765742Y-86846203D01*
X151765725Y-86856547D01*
X151765707Y-86866265D01*
X151765689Y-86875375D01*
X151765669Y-86883895D01*
X151765649Y-86891842D01*
X151765627Y-86899234D01*
X151765605Y-86906088D01*
X151765583Y-86912423D01*
X151765559Y-86918254D01*
X151765534Y-86923601D01*
X151765508Y-86928481D01*
X151765482Y-86932911D01*
X151765454Y-86936908D01*
X151765426Y-86940491D01*
X151765397Y-86943677D01*
X151765366Y-86946484D01*
X151765335Y-86948929D01*
X151765302Y-86951029D01*
X151765269Y-86952803D01*
X151765234Y-86954268D01*
X151765198Y-86955441D01*
X151765162Y-86956340D01*
X151765124Y-86956982D01*
X151765085Y-86957386D01*
X151765066Y-86957498D01*
X151762679Y-86965872D01*
X151759257Y-86973566D01*
X151754859Y-86980520D01*
X151749544Y-86986675D01*
X151743373Y-86991971D01*
X151736404Y-86996350D01*
X151728696Y-86999753D01*
X151720482Y-87002082D01*
X151720141Y-87002130D01*
X151719565Y-87002177D01*
X151718734Y-87002222D01*
X151717625Y-87002265D01*
X151716216Y-87002307D01*
X151714487Y-87002347D01*
X151712416Y-87002386D01*
X151709980Y-87002423D01*
X151707159Y-87002458D01*
X151703930Y-87002492D01*
X151700273Y-87002524D01*
X151696165Y-87002555D01*
X151691585Y-87002585D01*
X151686511Y-87002613D01*
X151680922Y-87002640D01*
X151674795Y-87002665D01*
X151668110Y-87002689D01*
X151660845Y-87002712D01*
X151652978Y-87002734D01*
X151644487Y-87002754D01*
X151635351Y-87002774D01*
X151625549Y-87002792D01*
X151615058Y-87002809D01*
X151603857Y-87002824D01*
X151591924Y-87002839D01*
X151579238Y-87002853D01*
X151565777Y-87002866D01*
X151551519Y-87002877D01*
X151536444Y-87002888D01*
X151520528Y-87002898D01*
X151503752Y-87002906D01*
X151486092Y-87002914D01*
X151467527Y-87002922D01*
X151448036Y-87002928D01*
X151427598Y-87002933D01*
X151406189Y-87002938D01*
X151383790Y-87002942D01*
X151360378Y-87002945D01*
X151335931Y-87002948D01*
X151310428Y-87002950D01*
X151283848Y-87002951D01*
X151256168Y-87002951D01*
X151227368Y-87002951D01*
X151197425Y-87002951D01*
X151166318Y-87002950D01*
X151134025Y-87002948D01*
X151100524Y-87002947D01*
X151065795Y-87002944D01*
X151053287Y-87002943D01*
X151018214Y-87002940D01*
X150984378Y-87002937D01*
X150951756Y-87002934D01*
X150920328Y-87002930D01*
X150890069Y-87002926D01*
X150860960Y-87002922D01*
X150832978Y-87002918D01*
X150806102Y-87002913D01*
X150780309Y-87002907D01*
X150755577Y-87002901D01*
X150731885Y-87002895D01*
X150709211Y-87002888D01*
X150687532Y-87002881D01*
X150666828Y-87002873D01*
X150647077Y-87002864D01*
X150628255Y-87002855D01*
X150610342Y-87002845D01*
X150593316Y-87002834D01*
X150577155Y-87002822D01*
X150561836Y-87002810D01*
X150547339Y-87002797D01*
X150533641Y-87002783D01*
X150520721Y-87002768D01*
X150508556Y-87002752D01*
X150497124Y-87002735D01*
X150486405Y-87002718D01*
X150476375Y-87002699D01*
X150467014Y-87002679D01*
X150458299Y-87002658D01*
X150450208Y-87002636D01*
X150442720Y-87002613D01*
X150435812Y-87002589D01*
X150429463Y-87002563D01*
X150423652Y-87002536D01*
X150418355Y-87002508D01*
X150413552Y-87002479D01*
X150409220Y-87002448D01*
X150405337Y-87002416D01*
X150401883Y-87002383D01*
X150398834Y-87002348D01*
X150396169Y-87002311D01*
X150393866Y-87002273D01*
X150391903Y-87002234D01*
X150390259Y-87002193D01*
X150388911Y-87002150D01*
X150387839Y-87002106D01*
X150387018Y-87002060D01*
X150386429Y-87002012D01*
X150386049Y-87001963D01*
X150385984Y-87001950D01*
X150378351Y-86999705D01*
X150371013Y-86996362D01*
X150364165Y-86992050D01*
X150357998Y-86986895D01*
X150352705Y-86981026D01*
X150351049Y-86978760D01*
X150348781Y-86974991D01*
X150346549Y-86970440D01*
X150344555Y-86965571D01*
X150343004Y-86960847D01*
X150342729Y-86959821D01*
X150341306Y-86954237D01*
X150341306Y-85953285D01*
X150341306Y-85910372D01*
X150341306Y-85868698D01*
X150341307Y-85828246D01*
X150341307Y-85788998D01*
X150341308Y-85750935D01*
X150341308Y-85714039D01*
X150341308Y-85710737D01*
X150719749Y-85710737D01*
X150719842Y-85718456D01*
X150720970Y-85726104D01*
X150723128Y-85733554D01*
X150726312Y-85740682D01*
X150730519Y-85747362D01*
X150735743Y-85753471D01*
X150737692Y-85755342D01*
X150744302Y-85760545D01*
X150751627Y-85764766D01*
X150759477Y-85767904D01*
X150762196Y-85768697D01*
X150766192Y-85769473D01*
X150770929Y-85769953D01*
X150775986Y-85770129D01*
X150780945Y-85769995D01*
X150785385Y-85769546D01*
X150787825Y-85769074D01*
X150794644Y-85766992D01*
X150801046Y-85764264D01*
X150806566Y-85761104D01*
X150807513Y-85760376D01*
X150809361Y-85758866D01*
X150812062Y-85756613D01*
X150815567Y-85753659D01*
X150819827Y-85750047D01*
X150824793Y-85745818D01*
X150830418Y-85741014D01*
X150836653Y-85735675D01*
X150843448Y-85729845D01*
X150850755Y-85723564D01*
X150858527Y-85716874D01*
X150866713Y-85709818D01*
X150875266Y-85702436D01*
X150884137Y-85694770D01*
X150893277Y-85686862D01*
X150902637Y-85678753D01*
X150904066Y-85677515D01*
X150996863Y-85597072D01*
X150997186Y-86019597D01*
X150997208Y-86047265D01*
X150997228Y-86073702D01*
X150997248Y-86098937D01*
X150997268Y-86122999D01*
X150997287Y-86145915D01*
X150997306Y-86167714D01*
X150997324Y-86188423D01*
X150997343Y-86208072D01*
X150997361Y-86226687D01*
X150997380Y-86244298D01*
X150997399Y-86260933D01*
X150997418Y-86276619D01*
X150997437Y-86291385D01*
X150997457Y-86305259D01*
X150997477Y-86318270D01*
X150997499Y-86330445D01*
X150997520Y-86341812D01*
X150997543Y-86352400D01*
X150997567Y-86362237D01*
X150997591Y-86371351D01*
X150997617Y-86379771D01*
X150997644Y-86387524D01*
X150997672Y-86394639D01*
X150997701Y-86401143D01*
X150997733Y-86407065D01*
X150997765Y-86412434D01*
X150997800Y-86417277D01*
X150997836Y-86421623D01*
X150997874Y-86425499D01*
X150997914Y-86428934D01*
X150997956Y-86431957D01*
X150998000Y-86434594D01*
X150998046Y-86436875D01*
X150998095Y-86438828D01*
X150998146Y-86440480D01*
X150998200Y-86441861D01*
X150998256Y-86442997D01*
X150998315Y-86443918D01*
X150998377Y-86444652D01*
X150998442Y-86445226D01*
X150998510Y-86445669D01*
X150998581Y-86446009D01*
X150998612Y-86446130D01*
X151001544Y-86454634D01*
X151005422Y-86462336D01*
X151010205Y-86469199D01*
X151015855Y-86475182D01*
X151022331Y-86480249D01*
X151029593Y-86484358D01*
X151037603Y-86487473D01*
X151042161Y-86488712D01*
X151045311Y-86489195D01*
X151049330Y-86489437D01*
X151053856Y-86489450D01*
X151058524Y-86489248D01*
X151062971Y-86488843D01*
X151066835Y-86488249D01*
X151068894Y-86487758D01*
X151076725Y-86484841D01*
X151083962Y-86480858D01*
X151090519Y-86475893D01*
X151096312Y-86470031D01*
X151101257Y-86463355D01*
X151105270Y-86455951D01*
X151108019Y-86448720D01*
X151109478Y-86444009D01*
X151109792Y-86020391D01*
X151110107Y-85596773D01*
X151202609Y-85676885D01*
X151211955Y-85684978D01*
X151221067Y-85692866D01*
X151229898Y-85700510D01*
X151238401Y-85707868D01*
X151246529Y-85714898D01*
X151254233Y-85721561D01*
X151261468Y-85727816D01*
X151268184Y-85733620D01*
X151274336Y-85738935D01*
X151279876Y-85743718D01*
X151284756Y-85747928D01*
X151288929Y-85751526D01*
X151292348Y-85754469D01*
X151294966Y-85756718D01*
X151296734Y-85758231D01*
X151297607Y-85758967D01*
X151297659Y-85759009D01*
X151300862Y-85761219D01*
X151304848Y-85763486D01*
X151309171Y-85765582D01*
X151313389Y-85767278D01*
X151314370Y-85767611D01*
X151322274Y-85769544D01*
X151330231Y-85770280D01*
X151338124Y-85769868D01*
X151345836Y-85768360D01*
X151353250Y-85765804D01*
X151360249Y-85762252D01*
X151366718Y-85757751D01*
X151372538Y-85752353D01*
X151377593Y-85746108D01*
X151381767Y-85739065D01*
X151381922Y-85738751D01*
X151384976Y-85731169D01*
X151386888Y-85723340D01*
X151387676Y-85715401D01*
X151387358Y-85707488D01*
X151385952Y-85699738D01*
X151383477Y-85692286D01*
X151379949Y-85685270D01*
X151375388Y-85678824D01*
X151373739Y-85676932D01*
X151373012Y-85676245D01*
X151371379Y-85674774D01*
X151368886Y-85672558D01*
X151365578Y-85669639D01*
X151361500Y-85666054D01*
X151356699Y-85661843D01*
X151351220Y-85657047D01*
X151345108Y-85651704D01*
X151338409Y-85645854D01*
X151331169Y-85639537D01*
X151323432Y-85632792D01*
X151315246Y-85625659D01*
X151306654Y-85618178D01*
X151297703Y-85610387D01*
X151288439Y-85602326D01*
X151278906Y-85594036D01*
X151269150Y-85585555D01*
X151259218Y-85576923D01*
X151249154Y-85568180D01*
X151239004Y-85559365D01*
X151228814Y-85550518D01*
X151218629Y-85541678D01*
X151208495Y-85532885D01*
X151198457Y-85524179D01*
X151188561Y-85515598D01*
X151178853Y-85507183D01*
X151169377Y-85498973D01*
X151160180Y-85491007D01*
X151151308Y-85483326D01*
X151142804Y-85475968D01*
X151134716Y-85468974D01*
X151127089Y-85462382D01*
X151119969Y-85456233D01*
X151113400Y-85450566D01*
X151107428Y-85445420D01*
X151102100Y-85440835D01*
X151097460Y-85436851D01*
X151093555Y-85433507D01*
X151090429Y-85430843D01*
X151088128Y-85428898D01*
X151086699Y-85427711D01*
X151086310Y-85427404D01*
X151082782Y-85425105D01*
X151078450Y-85422816D01*
X151073755Y-85420744D01*
X151069135Y-85419095D01*
X151067819Y-85418711D01*
X151065499Y-85418143D01*
X151063194Y-85417756D01*
X151060580Y-85417520D01*
X151057334Y-85417404D01*
X151053485Y-85417377D01*
X151049623Y-85417404D01*
X151046687Y-85417501D01*
X151044345Y-85417705D01*
X151042264Y-85418055D01*
X151040112Y-85418587D01*
X151038386Y-85419089D01*
X151030750Y-85421876D01*
X151024063Y-85425379D01*
X151019698Y-85428431D01*
X151018645Y-85429297D01*
X151016701Y-85430938D01*
X151013912Y-85433315D01*
X151010324Y-85436387D01*
X151005983Y-85440115D01*
X151000934Y-85444459D01*
X150995224Y-85449379D01*
X150988898Y-85454835D01*
X150982002Y-85460788D01*
X150974583Y-85467198D01*
X150966685Y-85474025D01*
X150958355Y-85481229D01*
X150949639Y-85488770D01*
X150940583Y-85496609D01*
X150931232Y-85504706D01*
X150921633Y-85513021D01*
X150911830Y-85521514D01*
X150901871Y-85530146D01*
X150891801Y-85538876D01*
X150881666Y-85547665D01*
X150871511Y-85556474D01*
X150861383Y-85565261D01*
X150851327Y-85573988D01*
X150841390Y-85582615D01*
X150831617Y-85591102D01*
X150822054Y-85599409D01*
X150812747Y-85607496D01*
X150803742Y-85615323D01*
X150795085Y-85622852D01*
X150786821Y-85630041D01*
X150778997Y-85636852D01*
X150771658Y-85643244D01*
X150764850Y-85649177D01*
X150758619Y-85654612D01*
X150753011Y-85659510D01*
X150748073Y-85663829D01*
X150743848Y-85667531D01*
X150740385Y-85670575D01*
X150737727Y-85672923D01*
X150735923Y-85674533D01*
X150735016Y-85675367D01*
X150734956Y-85675427D01*
X150729811Y-85681634D01*
X150725722Y-85688393D01*
X150722685Y-85695580D01*
X150720695Y-85703070D01*
X150719749Y-85710737D01*
X150341308Y-85710737D01*
X150341309Y-85678293D01*
X150341310Y-85643677D01*
X150341312Y-85610174D01*
X150341313Y-85577766D01*
X150341315Y-85546433D01*
X150341318Y-85516159D01*
X150341320Y-85486925D01*
X150341323Y-85458712D01*
X150341326Y-85431503D01*
X150341330Y-85405279D01*
X150341334Y-85380022D01*
X150341339Y-85355713D01*
X150341343Y-85332336D01*
X150341349Y-85309871D01*
X150341355Y-85288300D01*
X150341361Y-85267605D01*
X150341368Y-85247768D01*
X150341375Y-85228770D01*
X150341383Y-85210594D01*
X150341392Y-85193221D01*
X150341401Y-85176633D01*
X150341410Y-85160812D01*
X150341421Y-85145740D01*
X150341432Y-85131398D01*
X150341444Y-85117768D01*
X150341456Y-85104832D01*
X150341469Y-85092572D01*
X150341483Y-85080970D01*
X150341497Y-85070006D01*
X150341513Y-85059665D01*
X150341529Y-85049926D01*
X150341546Y-85040772D01*
X150341564Y-85032184D01*
X150341582Y-85024145D01*
X150341602Y-85016636D01*
X150341622Y-85009639D01*
X150341644Y-85003136D01*
X150341666Y-84997108D01*
X150341689Y-84991538D01*
X150341713Y-84986407D01*
X150341738Y-84981697D01*
X150341764Y-84977390D01*
X150341792Y-84973467D01*
X150341820Y-84969910D01*
X150341849Y-84966702D01*
X150341880Y-84963824D01*
X150341911Y-84961257D01*
X150341944Y-84958984D01*
X150341978Y-84956987D01*
X150342013Y-84955246D01*
X150342049Y-84953745D01*
X150342086Y-84952464D01*
X150342125Y-84951386D01*
X150342164Y-84950492D01*
X150342206Y-84949764D01*
X150342248Y-84949184D01*
X150342292Y-84948734D01*
X150342337Y-84948395D01*
X150342383Y-84948150D01*
X150342396Y-84948096D01*
X150345079Y-84939755D01*
X150348635Y-84932274D01*
X150353116Y-84925559D01*
X150357745Y-84920330D01*
X150363876Y-84915013D01*
X150370692Y-84910666D01*
X150378289Y-84907235D01*
X150385511Y-84904981D01*
X150385775Y-84904924D01*
X150386131Y-84904869D01*
X150386601Y-84904816D01*
X150387207Y-84904764D01*
X150387972Y-84904715D01*
X150388917Y-84904668D01*
X150390066Y-84904622D01*
X150391440Y-84904578D01*
X150393063Y-84904536D01*
X150394957Y-84904496D01*
X150397143Y-84904458D01*
X150399644Y-84904421D01*
X150402484Y-84904385D01*
X150405683Y-84904352D01*
X150409265Y-84904320D01*
X150413252Y-84904289D01*
X150417666Y-84904260D01*
X150422530Y-84904232D01*
X150427866Y-84904206D01*
X150433696Y-84904181D01*
X150440043Y-84904158D01*
X150446930Y-84904135D01*
X150454378Y-84904114D01*
X150462410Y-84904095D01*
X150471049Y-84904076D01*
X150480317Y-84904059D01*
X150490236Y-84904042D01*
X150500828Y-84904027D01*
X150512117Y-84904013D01*
X150524124Y-84904000D01*
X150536872Y-84903988D01*
X150550383Y-84903976D01*
X150564680Y-84903966D01*
X150579785Y-84903957D01*
X150595720Y-84903948D01*
X150612508Y-84903940D01*
X150630171Y-84903933D01*
X150648732Y-84903926D01*
X150668212Y-84903921D01*
X150688635Y-84903916D01*
X150710023Y-84903911D01*
X150732399Y-84903907D01*
X150755783Y-84903904D01*
X150780200Y-84903901D01*
X150805671Y-84903898D01*
X150832219Y-84903896D01*
X150859866Y-84903895D01*
X150888634Y-84903894D01*
X150918546Y-84903893D01*
X150949625Y-84903892D01*
X150981893Y-84903891D01*
X151015371Y-84903891D01*
X151050083Y-84903891D01*
X151053800Y-84903891D01*
X151717850Y-84903891D01*
X151723040Y-84905276D01*
G37*
D11*
%TO.C,R6*%
X125593000Y-96191000D02*
X126883000Y-96191000D01*
X125593000Y-97088000D02*
X125593000Y-96191000D01*
X125593000Y-97984000D02*
X125593000Y-98881000D01*
X125593000Y-98881000D02*
X126883000Y-98881000D01*
X126883000Y-96191000D02*
X126883000Y-97088000D01*
X126883000Y-98881000D02*
X126883000Y-97984000D01*
%TO.C,SW1*%
X163204000Y-76472000D02*
X163204000Y-85072000D01*
X167504000Y-76472000D02*
X167504000Y-85072000D01*
%TO.C,R7*%
X128895000Y-96191000D02*
X130185000Y-96191000D01*
X128895000Y-97088000D02*
X128895000Y-96191000D01*
X128895000Y-97984000D02*
X128895000Y-98881000D01*
X128895000Y-98881000D02*
X130185000Y-98881000D01*
X130185000Y-96191000D02*
X130185000Y-97088000D01*
X130185000Y-98881000D02*
X130185000Y-97984000D01*
%TO.C,R11*%
X151755000Y-84895000D02*
X153045000Y-84895000D01*
X151755000Y-85792000D02*
X151755000Y-84895000D01*
X151755000Y-86405000D02*
X151755000Y-87585000D01*
X151755000Y-89095000D02*
X151755000Y-88198000D01*
X153045000Y-84895000D02*
X153045000Y-85792000D01*
X153045000Y-87585000D02*
X153045000Y-86405000D01*
X153045000Y-88198000D02*
X153045000Y-89095000D01*
X153045000Y-89095000D02*
X151755000Y-89095000D01*
%TO.C,R8*%
X135820000Y-114671000D02*
X135820000Y-115961000D01*
X135820000Y-115961000D02*
X136717000Y-115961000D01*
X136717000Y-114671000D02*
X135820000Y-114671000D01*
X137613000Y-114671000D02*
X138510000Y-114671000D01*
X138510000Y-114671000D02*
X138510000Y-115961000D01*
X138510000Y-115961000D02*
X137613000Y-115961000D01*
%TO.C,C1*%
X129891000Y-113951000D02*
X131221000Y-113951000D01*
X129891000Y-114861000D02*
X129891000Y-113951000D01*
X129891000Y-115771000D02*
X129891000Y-116681000D01*
X129891000Y-116681000D02*
X131221000Y-116681000D01*
X131221000Y-113951000D02*
X131221000Y-114861000D01*
X131221000Y-116681000D02*
X131221000Y-115771000D01*
%TO.C,R4*%
X122418000Y-96191000D02*
X123708000Y-96191000D01*
X122418000Y-97088000D02*
X122418000Y-96191000D01*
X122418000Y-97984000D02*
X122418000Y-98881000D01*
X122418000Y-98881000D02*
X123708000Y-98881000D01*
X123708000Y-96191000D02*
X123708000Y-97088000D01*
X123708000Y-98881000D02*
X123708000Y-97984000D01*
%TO.C,C3*%
X115286000Y-96171000D02*
X115286000Y-97081000D01*
X115286000Y-98901000D02*
X115286000Y-97991000D01*
X116616000Y-96171000D02*
X115286000Y-96171000D01*
X116616000Y-97081000D02*
X116616000Y-96171000D01*
X116616000Y-97991000D02*
X116616000Y-98901000D01*
X116616000Y-98901000D02*
X115286000Y-98901000D01*
%TO.C,Q3*%
X153505000Y-79730000D02*
X155105000Y-79730000D01*
X155105000Y-82830000D02*
X153505000Y-82830000D01*
D14*
X155605000Y-83180000D02*
X155105000Y-83180000D01*
X155355000Y-82930000D01*
X155605000Y-83180000D01*
G36*
X155605000Y-83180000D02*
G01*
X155105000Y-83180000D01*
X155355000Y-82930000D01*
X155605000Y-83180000D01*
G37*
%TD*%
M02*
