%TF.GenerationSoftware,KiCad,Pcbnew,9.0.6*%
%TF.CreationDate,2026-01-30T18:10:03-05:00*%
%TF.ProjectId,destinationWeatherStation_v4-5,64657374-696e-4617-9469-6f6e57656174,03*%
%TF.SameCoordinates,Original*%
%TF.FileFunction,OtherDrawing,Comment*%
%FSLAX46Y46*%
G04 Gerber Fmt 4.6, Leading zero omitted, Abs format (unit mm)*
G04 Created by KiCad (PCBNEW 9.0.6) date 2026-01-30 18:10:03*
%MOMM*%
%LPD*%
G01*
G04 APERTURE LIST*
%ADD10C,0.300000*%
%ADD11C,0.150000*%
%ADD12C,0.200000*%
%ADD13C,0.025000*%
G04 APERTURE END LIST*
D10*
X183028328Y-104377140D02*
X183028328Y-105234283D01*
X183028328Y-104805712D02*
X181528328Y-104805712D01*
X181528328Y-104805712D02*
X181742614Y-104948569D01*
X181742614Y-104948569D02*
X181885471Y-105091426D01*
X181885471Y-105091426D02*
X181956900Y-105234283D01*
X181528328Y-103877141D02*
X181528328Y-102877141D01*
X181528328Y-102877141D02*
X183028328Y-103519998D01*
X181528328Y-102019998D02*
X181528328Y-101877141D01*
X181528328Y-101877141D02*
X181599757Y-101734284D01*
X181599757Y-101734284D02*
X181671185Y-101662856D01*
X181671185Y-101662856D02*
X181814042Y-101591427D01*
X181814042Y-101591427D02*
X182099757Y-101519998D01*
X182099757Y-101519998D02*
X182456900Y-101519998D01*
X182456900Y-101519998D02*
X182742614Y-101591427D01*
X182742614Y-101591427D02*
X182885471Y-101662856D01*
X182885471Y-101662856D02*
X182956900Y-101734284D01*
X182956900Y-101734284D02*
X183028328Y-101877141D01*
X183028328Y-101877141D02*
X183028328Y-102019998D01*
X183028328Y-102019998D02*
X182956900Y-102162856D01*
X182956900Y-102162856D02*
X182885471Y-102234284D01*
X182885471Y-102234284D02*
X182742614Y-102305713D01*
X182742614Y-102305713D02*
X182456900Y-102377141D01*
X182456900Y-102377141D02*
X182099757Y-102377141D01*
X182099757Y-102377141D02*
X181814042Y-102305713D01*
X181814042Y-102305713D02*
X181671185Y-102234284D01*
X181671185Y-102234284D02*
X181599757Y-102162856D01*
X181599757Y-102162856D02*
X181528328Y-102019998D01*
X181528328Y-100591427D02*
X181528328Y-100448570D01*
X181528328Y-100448570D02*
X181599757Y-100305713D01*
X181599757Y-100305713D02*
X181671185Y-100234285D01*
X181671185Y-100234285D02*
X181814042Y-100162856D01*
X181814042Y-100162856D02*
X182099757Y-100091427D01*
X182099757Y-100091427D02*
X182456900Y-100091427D01*
X182456900Y-100091427D02*
X182742614Y-100162856D01*
X182742614Y-100162856D02*
X182885471Y-100234285D01*
X182885471Y-100234285D02*
X182956900Y-100305713D01*
X182956900Y-100305713D02*
X183028328Y-100448570D01*
X183028328Y-100448570D02*
X183028328Y-100591427D01*
X183028328Y-100591427D02*
X182956900Y-100734285D01*
X182956900Y-100734285D02*
X182885471Y-100805713D01*
X182885471Y-100805713D02*
X182742614Y-100877142D01*
X182742614Y-100877142D02*
X182456900Y-100948570D01*
X182456900Y-100948570D02*
X182099757Y-100948570D01*
X182099757Y-100948570D02*
X181814042Y-100877142D01*
X181814042Y-100877142D02*
X181671185Y-100805713D01*
X181671185Y-100805713D02*
X181599757Y-100734285D01*
X181599757Y-100734285D02*
X181528328Y-100591427D01*
X182885471Y-99448571D02*
X182956900Y-99377142D01*
X182956900Y-99377142D02*
X183028328Y-99448571D01*
X183028328Y-99448571D02*
X182956900Y-99519999D01*
X182956900Y-99519999D02*
X182885471Y-99448571D01*
X182885471Y-99448571D02*
X183028328Y-99448571D01*
X181528328Y-98448570D02*
X181528328Y-98305713D01*
X181528328Y-98305713D02*
X181599757Y-98162856D01*
X181599757Y-98162856D02*
X181671185Y-98091428D01*
X181671185Y-98091428D02*
X181814042Y-98019999D01*
X181814042Y-98019999D02*
X182099757Y-97948570D01*
X182099757Y-97948570D02*
X182456900Y-97948570D01*
X182456900Y-97948570D02*
X182742614Y-98019999D01*
X182742614Y-98019999D02*
X182885471Y-98091428D01*
X182885471Y-98091428D02*
X182956900Y-98162856D01*
X182956900Y-98162856D02*
X183028328Y-98305713D01*
X183028328Y-98305713D02*
X183028328Y-98448570D01*
X183028328Y-98448570D02*
X182956900Y-98591428D01*
X182956900Y-98591428D02*
X182885471Y-98662856D01*
X182885471Y-98662856D02*
X182742614Y-98734285D01*
X182742614Y-98734285D02*
X182456900Y-98805713D01*
X182456900Y-98805713D02*
X182099757Y-98805713D01*
X182099757Y-98805713D02*
X181814042Y-98734285D01*
X181814042Y-98734285D02*
X181671185Y-98662856D01*
X181671185Y-98662856D02*
X181599757Y-98591428D01*
X181599757Y-98591428D02*
X181528328Y-98448570D01*
X181528328Y-97019999D02*
X181528328Y-96877142D01*
X181528328Y-96877142D02*
X181599757Y-96734285D01*
X181599757Y-96734285D02*
X181671185Y-96662857D01*
X181671185Y-96662857D02*
X181814042Y-96591428D01*
X181814042Y-96591428D02*
X182099757Y-96519999D01*
X182099757Y-96519999D02*
X182456900Y-96519999D01*
X182456900Y-96519999D02*
X182742614Y-96591428D01*
X182742614Y-96591428D02*
X182885471Y-96662857D01*
X182885471Y-96662857D02*
X182956900Y-96734285D01*
X182956900Y-96734285D02*
X183028328Y-96877142D01*
X183028328Y-96877142D02*
X183028328Y-97019999D01*
X183028328Y-97019999D02*
X182956900Y-97162857D01*
X182956900Y-97162857D02*
X182885471Y-97234285D01*
X182885471Y-97234285D02*
X182742614Y-97305714D01*
X182742614Y-97305714D02*
X182456900Y-97377142D01*
X182456900Y-97377142D02*
X182099757Y-97377142D01*
X182099757Y-97377142D02*
X181814042Y-97305714D01*
X181814042Y-97305714D02*
X181671185Y-97234285D01*
X181671185Y-97234285D02*
X181599757Y-97162857D01*
X181599757Y-97162857D02*
X181528328Y-97019999D01*
X181528328Y-95591428D02*
X181528328Y-95448571D01*
X181528328Y-95448571D02*
X181599757Y-95305714D01*
X181599757Y-95305714D02*
X181671185Y-95234286D01*
X181671185Y-95234286D02*
X181814042Y-95162857D01*
X181814042Y-95162857D02*
X182099757Y-95091428D01*
X182099757Y-95091428D02*
X182456900Y-95091428D01*
X182456900Y-95091428D02*
X182742614Y-95162857D01*
X182742614Y-95162857D02*
X182885471Y-95234286D01*
X182885471Y-95234286D02*
X182956900Y-95305714D01*
X182956900Y-95305714D02*
X183028328Y-95448571D01*
X183028328Y-95448571D02*
X183028328Y-95591428D01*
X183028328Y-95591428D02*
X182956900Y-95734286D01*
X182956900Y-95734286D02*
X182885471Y-95805714D01*
X182885471Y-95805714D02*
X182742614Y-95877143D01*
X182742614Y-95877143D02*
X182456900Y-95948571D01*
X182456900Y-95948571D02*
X182099757Y-95948571D01*
X182099757Y-95948571D02*
X181814042Y-95877143D01*
X181814042Y-95877143D02*
X181671185Y-95805714D01*
X181671185Y-95805714D02*
X181599757Y-95734286D01*
X181599757Y-95734286D02*
X181528328Y-95591428D01*
X181528328Y-94162857D02*
X181528328Y-94020000D01*
X181528328Y-94020000D02*
X181599757Y-93877143D01*
X181599757Y-93877143D02*
X181671185Y-93805715D01*
X181671185Y-93805715D02*
X181814042Y-93734286D01*
X181814042Y-93734286D02*
X182099757Y-93662857D01*
X182099757Y-93662857D02*
X182456900Y-93662857D01*
X182456900Y-93662857D02*
X182742614Y-93734286D01*
X182742614Y-93734286D02*
X182885471Y-93805715D01*
X182885471Y-93805715D02*
X182956900Y-93877143D01*
X182956900Y-93877143D02*
X183028328Y-94020000D01*
X183028328Y-94020000D02*
X183028328Y-94162857D01*
X183028328Y-94162857D02*
X182956900Y-94305715D01*
X182956900Y-94305715D02*
X182885471Y-94377143D01*
X182885471Y-94377143D02*
X182742614Y-94448572D01*
X182742614Y-94448572D02*
X182456900Y-94520000D01*
X182456900Y-94520000D02*
X182099757Y-94520000D01*
X182099757Y-94520000D02*
X181814042Y-94448572D01*
X181814042Y-94448572D02*
X181671185Y-94377143D01*
X181671185Y-94377143D02*
X181599757Y-94305715D01*
X181599757Y-94305715D02*
X181528328Y-94162857D01*
X183028328Y-91877144D02*
X182028328Y-91877144D01*
X182171185Y-91877144D02*
X182099757Y-91805715D01*
X182099757Y-91805715D02*
X182028328Y-91662858D01*
X182028328Y-91662858D02*
X182028328Y-91448572D01*
X182028328Y-91448572D02*
X182099757Y-91305715D01*
X182099757Y-91305715D02*
X182242614Y-91234287D01*
X182242614Y-91234287D02*
X183028328Y-91234287D01*
X182242614Y-91234287D02*
X182099757Y-91162858D01*
X182099757Y-91162858D02*
X182028328Y-91020001D01*
X182028328Y-91020001D02*
X182028328Y-90805715D01*
X182028328Y-90805715D02*
X182099757Y-90662858D01*
X182099757Y-90662858D02*
X182242614Y-90591429D01*
X182242614Y-90591429D02*
X183028328Y-90591429D01*
X183028328Y-89877144D02*
X182028328Y-89877144D01*
X181528328Y-89877144D02*
X181599757Y-89948572D01*
X181599757Y-89948572D02*
X181671185Y-89877144D01*
X181671185Y-89877144D02*
X181599757Y-89805715D01*
X181599757Y-89805715D02*
X181528328Y-89877144D01*
X181528328Y-89877144D02*
X181671185Y-89877144D01*
X183028328Y-88948572D02*
X182956900Y-89091429D01*
X182956900Y-89091429D02*
X182814042Y-89162858D01*
X182814042Y-89162858D02*
X181528328Y-89162858D01*
X182956900Y-88448572D02*
X183028328Y-88305715D01*
X183028328Y-88305715D02*
X183028328Y-88020001D01*
X183028328Y-88020001D02*
X182956900Y-87877144D01*
X182956900Y-87877144D02*
X182814042Y-87805715D01*
X182814042Y-87805715D02*
X182742614Y-87805715D01*
X182742614Y-87805715D02*
X182599757Y-87877144D01*
X182599757Y-87877144D02*
X182528328Y-88020001D01*
X182528328Y-88020001D02*
X182528328Y-88234287D01*
X182528328Y-88234287D02*
X182456900Y-88377144D01*
X182456900Y-88377144D02*
X182314042Y-88448572D01*
X182314042Y-88448572D02*
X182242614Y-88448572D01*
X182242614Y-88448572D02*
X182099757Y-88377144D01*
X182099757Y-88377144D02*
X182028328Y-88234287D01*
X182028328Y-88234287D02*
X182028328Y-88020001D01*
X182028328Y-88020001D02*
X182099757Y-87877144D01*
D11*
X173220000Y-74930000D02*
X184736420Y-74930000D01*
X173220000Y-118110000D02*
X184736420Y-118110000D01*
X184150000Y-74930000D02*
X184150000Y-118110000D01*
X184150000Y-74930000D02*
X184736421Y-76056504D01*
X184150000Y-74930000D02*
X183563579Y-76056504D01*
X184150000Y-118110000D02*
X183563579Y-116983496D01*
X184150000Y-118110000D02*
X184736421Y-116983496D01*
D10*
X106828328Y-102948569D02*
X106828328Y-103805712D01*
X106828328Y-103377141D02*
X105328328Y-103377141D01*
X105328328Y-103377141D02*
X105542614Y-103519998D01*
X105542614Y-103519998D02*
X105685471Y-103662855D01*
X105685471Y-103662855D02*
X105756900Y-103805712D01*
X105328328Y-102448570D02*
X105328328Y-101448570D01*
X105328328Y-101448570D02*
X106828328Y-102091427D01*
X105328328Y-100591427D02*
X105328328Y-100448570D01*
X105328328Y-100448570D02*
X105399757Y-100305713D01*
X105399757Y-100305713D02*
X105471185Y-100234285D01*
X105471185Y-100234285D02*
X105614042Y-100162856D01*
X105614042Y-100162856D02*
X105899757Y-100091427D01*
X105899757Y-100091427D02*
X106256900Y-100091427D01*
X106256900Y-100091427D02*
X106542614Y-100162856D01*
X106542614Y-100162856D02*
X106685471Y-100234285D01*
X106685471Y-100234285D02*
X106756900Y-100305713D01*
X106756900Y-100305713D02*
X106828328Y-100448570D01*
X106828328Y-100448570D02*
X106828328Y-100591427D01*
X106828328Y-100591427D02*
X106756900Y-100734285D01*
X106756900Y-100734285D02*
X106685471Y-100805713D01*
X106685471Y-100805713D02*
X106542614Y-100877142D01*
X106542614Y-100877142D02*
X106256900Y-100948570D01*
X106256900Y-100948570D02*
X105899757Y-100948570D01*
X105899757Y-100948570D02*
X105614042Y-100877142D01*
X105614042Y-100877142D02*
X105471185Y-100805713D01*
X105471185Y-100805713D02*
X105399757Y-100734285D01*
X105399757Y-100734285D02*
X105328328Y-100591427D01*
X105328328Y-99162856D02*
X105328328Y-99019999D01*
X105328328Y-99019999D02*
X105399757Y-98877142D01*
X105399757Y-98877142D02*
X105471185Y-98805714D01*
X105471185Y-98805714D02*
X105614042Y-98734285D01*
X105614042Y-98734285D02*
X105899757Y-98662856D01*
X105899757Y-98662856D02*
X106256900Y-98662856D01*
X106256900Y-98662856D02*
X106542614Y-98734285D01*
X106542614Y-98734285D02*
X106685471Y-98805714D01*
X106685471Y-98805714D02*
X106756900Y-98877142D01*
X106756900Y-98877142D02*
X106828328Y-99019999D01*
X106828328Y-99019999D02*
X106828328Y-99162856D01*
X106828328Y-99162856D02*
X106756900Y-99305714D01*
X106756900Y-99305714D02*
X106685471Y-99377142D01*
X106685471Y-99377142D02*
X106542614Y-99448571D01*
X106542614Y-99448571D02*
X106256900Y-99519999D01*
X106256900Y-99519999D02*
X105899757Y-99519999D01*
X105899757Y-99519999D02*
X105614042Y-99448571D01*
X105614042Y-99448571D02*
X105471185Y-99377142D01*
X105471185Y-99377142D02*
X105399757Y-99305714D01*
X105399757Y-99305714D02*
X105328328Y-99162856D01*
X106685471Y-98020000D02*
X106756900Y-97948571D01*
X106756900Y-97948571D02*
X106828328Y-98020000D01*
X106828328Y-98020000D02*
X106756900Y-98091428D01*
X106756900Y-98091428D02*
X106685471Y-98020000D01*
X106685471Y-98020000D02*
X106828328Y-98020000D01*
X105328328Y-97019999D02*
X105328328Y-96877142D01*
X105328328Y-96877142D02*
X105399757Y-96734285D01*
X105399757Y-96734285D02*
X105471185Y-96662857D01*
X105471185Y-96662857D02*
X105614042Y-96591428D01*
X105614042Y-96591428D02*
X105899757Y-96519999D01*
X105899757Y-96519999D02*
X106256900Y-96519999D01*
X106256900Y-96519999D02*
X106542614Y-96591428D01*
X106542614Y-96591428D02*
X106685471Y-96662857D01*
X106685471Y-96662857D02*
X106756900Y-96734285D01*
X106756900Y-96734285D02*
X106828328Y-96877142D01*
X106828328Y-96877142D02*
X106828328Y-97019999D01*
X106828328Y-97019999D02*
X106756900Y-97162857D01*
X106756900Y-97162857D02*
X106685471Y-97234285D01*
X106685471Y-97234285D02*
X106542614Y-97305714D01*
X106542614Y-97305714D02*
X106256900Y-97377142D01*
X106256900Y-97377142D02*
X105899757Y-97377142D01*
X105899757Y-97377142D02*
X105614042Y-97305714D01*
X105614042Y-97305714D02*
X105471185Y-97234285D01*
X105471185Y-97234285D02*
X105399757Y-97162857D01*
X105399757Y-97162857D02*
X105328328Y-97019999D01*
X105328328Y-95591428D02*
X105328328Y-95448571D01*
X105328328Y-95448571D02*
X105399757Y-95305714D01*
X105399757Y-95305714D02*
X105471185Y-95234286D01*
X105471185Y-95234286D02*
X105614042Y-95162857D01*
X105614042Y-95162857D02*
X105899757Y-95091428D01*
X105899757Y-95091428D02*
X106256900Y-95091428D01*
X106256900Y-95091428D02*
X106542614Y-95162857D01*
X106542614Y-95162857D02*
X106685471Y-95234286D01*
X106685471Y-95234286D02*
X106756900Y-95305714D01*
X106756900Y-95305714D02*
X106828328Y-95448571D01*
X106828328Y-95448571D02*
X106828328Y-95591428D01*
X106828328Y-95591428D02*
X106756900Y-95734286D01*
X106756900Y-95734286D02*
X106685471Y-95805714D01*
X106685471Y-95805714D02*
X106542614Y-95877143D01*
X106542614Y-95877143D02*
X106256900Y-95948571D01*
X106256900Y-95948571D02*
X105899757Y-95948571D01*
X105899757Y-95948571D02*
X105614042Y-95877143D01*
X105614042Y-95877143D02*
X105471185Y-95805714D01*
X105471185Y-95805714D02*
X105399757Y-95734286D01*
X105399757Y-95734286D02*
X105328328Y-95591428D01*
X106828328Y-93305715D02*
X105828328Y-93305715D01*
X105971185Y-93305715D02*
X105899757Y-93234286D01*
X105899757Y-93234286D02*
X105828328Y-93091429D01*
X105828328Y-93091429D02*
X105828328Y-92877143D01*
X105828328Y-92877143D02*
X105899757Y-92734286D01*
X105899757Y-92734286D02*
X106042614Y-92662858D01*
X106042614Y-92662858D02*
X106828328Y-92662858D01*
X106042614Y-92662858D02*
X105899757Y-92591429D01*
X105899757Y-92591429D02*
X105828328Y-92448572D01*
X105828328Y-92448572D02*
X105828328Y-92234286D01*
X105828328Y-92234286D02*
X105899757Y-92091429D01*
X105899757Y-92091429D02*
X106042614Y-92020000D01*
X106042614Y-92020000D02*
X106828328Y-92020000D01*
X106828328Y-91305715D02*
X105828328Y-91305715D01*
X105328328Y-91305715D02*
X105399757Y-91377143D01*
X105399757Y-91377143D02*
X105471185Y-91305715D01*
X105471185Y-91305715D02*
X105399757Y-91234286D01*
X105399757Y-91234286D02*
X105328328Y-91305715D01*
X105328328Y-91305715D02*
X105471185Y-91305715D01*
X106828328Y-90377143D02*
X106756900Y-90520000D01*
X106756900Y-90520000D02*
X106614042Y-90591429D01*
X106614042Y-90591429D02*
X105328328Y-90591429D01*
X106756900Y-89877143D02*
X106828328Y-89734286D01*
X106828328Y-89734286D02*
X106828328Y-89448572D01*
X106828328Y-89448572D02*
X106756900Y-89305715D01*
X106756900Y-89305715D02*
X106614042Y-89234286D01*
X106614042Y-89234286D02*
X106542614Y-89234286D01*
X106542614Y-89234286D02*
X106399757Y-89305715D01*
X106399757Y-89305715D02*
X106328328Y-89448572D01*
X106328328Y-89448572D02*
X106328328Y-89662858D01*
X106328328Y-89662858D02*
X106256900Y-89805715D01*
X106256900Y-89805715D02*
X106114042Y-89877143D01*
X106114042Y-89877143D02*
X106042614Y-89877143D01*
X106042614Y-89877143D02*
X105899757Y-89805715D01*
X105899757Y-89805715D02*
X105828328Y-89662858D01*
X105828328Y-89662858D02*
X105828328Y-89448572D01*
X105828328Y-89448572D02*
X105899757Y-89305715D01*
D12*
X116340000Y-74930000D02*
X107363580Y-74930000D01*
X116340000Y-118110000D02*
X107363580Y-118110000D01*
X107950000Y-74930000D02*
X107950000Y-118110000D01*
X107950000Y-74930000D02*
X108536421Y-76056504D01*
X107950000Y-74930000D02*
X107363579Y-76056504D01*
X107950000Y-118110000D02*
X107363579Y-116983496D01*
X107950000Y-118110000D02*
X108536421Y-116983496D01*
D11*
X110944819Y-84679636D02*
X110944819Y-85251064D01*
X110944819Y-84965350D02*
X109944819Y-84965350D01*
X109944819Y-84965350D02*
X110087676Y-85060588D01*
X110087676Y-85060588D02*
X110182914Y-85155826D01*
X110182914Y-85155826D02*
X110230533Y-85251064D01*
X109944819Y-83774874D02*
X109944819Y-84251064D01*
X109944819Y-84251064D02*
X110421009Y-84298683D01*
X110421009Y-84298683D02*
X110373390Y-84251064D01*
X110373390Y-84251064D02*
X110325771Y-84155826D01*
X110325771Y-84155826D02*
X110325771Y-83917731D01*
X110325771Y-83917731D02*
X110373390Y-83822493D01*
X110373390Y-83822493D02*
X110421009Y-83774874D01*
X110421009Y-83774874D02*
X110516247Y-83727255D01*
X110516247Y-83727255D02*
X110754342Y-83727255D01*
X110754342Y-83727255D02*
X110849580Y-83774874D01*
X110849580Y-83774874D02*
X110897200Y-83822493D01*
X110897200Y-83822493D02*
X110944819Y-83917731D01*
X110944819Y-83917731D02*
X110944819Y-84155826D01*
X110944819Y-84155826D02*
X110897200Y-84251064D01*
X110897200Y-84251064D02*
X110849580Y-84298683D01*
X109944819Y-83108207D02*
X109944819Y-83012969D01*
X109944819Y-83012969D02*
X109992438Y-82917731D01*
X109992438Y-82917731D02*
X110040057Y-82870112D01*
X110040057Y-82870112D02*
X110135295Y-82822493D01*
X110135295Y-82822493D02*
X110325771Y-82774874D01*
X110325771Y-82774874D02*
X110563866Y-82774874D01*
X110563866Y-82774874D02*
X110754342Y-82822493D01*
X110754342Y-82822493D02*
X110849580Y-82870112D01*
X110849580Y-82870112D02*
X110897200Y-82917731D01*
X110897200Y-82917731D02*
X110944819Y-83012969D01*
X110944819Y-83012969D02*
X110944819Y-83108207D01*
X110944819Y-83108207D02*
X110897200Y-83203445D01*
X110897200Y-83203445D02*
X110849580Y-83251064D01*
X110849580Y-83251064D02*
X110754342Y-83298683D01*
X110754342Y-83298683D02*
X110563866Y-83346302D01*
X110563866Y-83346302D02*
X110325771Y-83346302D01*
X110325771Y-83346302D02*
X110135295Y-83298683D01*
X110135295Y-83298683D02*
X110040057Y-83251064D01*
X110040057Y-83251064D02*
X109992438Y-83203445D01*
X109992438Y-83203445D02*
X109944819Y-83108207D01*
X110849580Y-82346302D02*
X110897200Y-82298683D01*
X110897200Y-82298683D02*
X110944819Y-82346302D01*
X110944819Y-82346302D02*
X110897200Y-82393921D01*
X110897200Y-82393921D02*
X110849580Y-82346302D01*
X110849580Y-82346302D02*
X110944819Y-82346302D01*
X109944819Y-81679636D02*
X109944819Y-81584398D01*
X109944819Y-81584398D02*
X109992438Y-81489160D01*
X109992438Y-81489160D02*
X110040057Y-81441541D01*
X110040057Y-81441541D02*
X110135295Y-81393922D01*
X110135295Y-81393922D02*
X110325771Y-81346303D01*
X110325771Y-81346303D02*
X110563866Y-81346303D01*
X110563866Y-81346303D02*
X110754342Y-81393922D01*
X110754342Y-81393922D02*
X110849580Y-81441541D01*
X110849580Y-81441541D02*
X110897200Y-81489160D01*
X110897200Y-81489160D02*
X110944819Y-81584398D01*
X110944819Y-81584398D02*
X110944819Y-81679636D01*
X110944819Y-81679636D02*
X110897200Y-81774874D01*
X110897200Y-81774874D02*
X110849580Y-81822493D01*
X110849580Y-81822493D02*
X110754342Y-81870112D01*
X110754342Y-81870112D02*
X110563866Y-81917731D01*
X110563866Y-81917731D02*
X110325771Y-81917731D01*
X110325771Y-81917731D02*
X110135295Y-81870112D01*
X110135295Y-81870112D02*
X110040057Y-81822493D01*
X110040057Y-81822493D02*
X109992438Y-81774874D01*
X109992438Y-81774874D02*
X109944819Y-81679636D01*
X109944819Y-80727255D02*
X109944819Y-80632017D01*
X109944819Y-80632017D02*
X109992438Y-80536779D01*
X109992438Y-80536779D02*
X110040057Y-80489160D01*
X110040057Y-80489160D02*
X110135295Y-80441541D01*
X110135295Y-80441541D02*
X110325771Y-80393922D01*
X110325771Y-80393922D02*
X110563866Y-80393922D01*
X110563866Y-80393922D02*
X110754342Y-80441541D01*
X110754342Y-80441541D02*
X110849580Y-80489160D01*
X110849580Y-80489160D02*
X110897200Y-80536779D01*
X110897200Y-80536779D02*
X110944819Y-80632017D01*
X110944819Y-80632017D02*
X110944819Y-80727255D01*
X110944819Y-80727255D02*
X110897200Y-80822493D01*
X110897200Y-80822493D02*
X110849580Y-80870112D01*
X110849580Y-80870112D02*
X110754342Y-80917731D01*
X110754342Y-80917731D02*
X110563866Y-80965350D01*
X110563866Y-80965350D02*
X110325771Y-80965350D01*
X110325771Y-80965350D02*
X110135295Y-80917731D01*
X110135295Y-80917731D02*
X110040057Y-80870112D01*
X110040057Y-80870112D02*
X109992438Y-80822493D01*
X109992438Y-80822493D02*
X109944819Y-80727255D01*
X110944819Y-79203445D02*
X110278152Y-79203445D01*
X110373390Y-79203445D02*
X110325771Y-79155826D01*
X110325771Y-79155826D02*
X110278152Y-79060588D01*
X110278152Y-79060588D02*
X110278152Y-78917731D01*
X110278152Y-78917731D02*
X110325771Y-78822493D01*
X110325771Y-78822493D02*
X110421009Y-78774874D01*
X110421009Y-78774874D02*
X110944819Y-78774874D01*
X110421009Y-78774874D02*
X110325771Y-78727255D01*
X110325771Y-78727255D02*
X110278152Y-78632017D01*
X110278152Y-78632017D02*
X110278152Y-78489160D01*
X110278152Y-78489160D02*
X110325771Y-78393921D01*
X110325771Y-78393921D02*
X110421009Y-78346302D01*
X110421009Y-78346302D02*
X110944819Y-78346302D01*
X110944819Y-77870112D02*
X110278152Y-77870112D01*
X109944819Y-77870112D02*
X109992438Y-77917731D01*
X109992438Y-77917731D02*
X110040057Y-77870112D01*
X110040057Y-77870112D02*
X109992438Y-77822493D01*
X109992438Y-77822493D02*
X109944819Y-77870112D01*
X109944819Y-77870112D02*
X110040057Y-77870112D01*
X110944819Y-77251065D02*
X110897200Y-77346303D01*
X110897200Y-77346303D02*
X110801961Y-77393922D01*
X110801961Y-77393922D02*
X109944819Y-77393922D01*
X110897200Y-76917731D02*
X110944819Y-76822493D01*
X110944819Y-76822493D02*
X110944819Y-76632017D01*
X110944819Y-76632017D02*
X110897200Y-76536779D01*
X110897200Y-76536779D02*
X110801961Y-76489160D01*
X110801961Y-76489160D02*
X110754342Y-76489160D01*
X110754342Y-76489160D02*
X110659104Y-76536779D01*
X110659104Y-76536779D02*
X110611485Y-76632017D01*
X110611485Y-76632017D02*
X110611485Y-76774874D01*
X110611485Y-76774874D02*
X110563866Y-76870112D01*
X110563866Y-76870112D02*
X110468628Y-76917731D01*
X110468628Y-76917731D02*
X110421009Y-76917731D01*
X110421009Y-76917731D02*
X110325771Y-76870112D01*
X110325771Y-76870112D02*
X110278152Y-76774874D01*
X110278152Y-76774874D02*
X110278152Y-76632017D01*
X110278152Y-76632017D02*
X110325771Y-76536779D01*
X116340000Y-74930000D02*
X109903580Y-74930000D01*
X116340000Y-71120000D02*
X109903580Y-71120000D01*
X110490000Y-74930000D02*
X110490000Y-71120000D01*
X110490000Y-74930000D02*
X109903579Y-73803496D01*
X110490000Y-74930000D02*
X111076421Y-73803496D01*
X110490000Y-71120000D02*
X111076421Y-72246504D01*
X110490000Y-71120000D02*
X109903579Y-72246504D01*
D10*
X137494287Y-64831185D02*
X137565715Y-64759757D01*
X137565715Y-64759757D02*
X137708573Y-64688328D01*
X137708573Y-64688328D02*
X138065715Y-64688328D01*
X138065715Y-64688328D02*
X138208573Y-64759757D01*
X138208573Y-64759757D02*
X138280001Y-64831185D01*
X138280001Y-64831185D02*
X138351430Y-64974042D01*
X138351430Y-64974042D02*
X138351430Y-65116900D01*
X138351430Y-65116900D02*
X138280001Y-65331185D01*
X138280001Y-65331185D02*
X137422858Y-66188328D01*
X137422858Y-66188328D02*
X138351430Y-66188328D01*
X139708572Y-64688328D02*
X138994286Y-64688328D01*
X138994286Y-64688328D02*
X138922858Y-65402614D01*
X138922858Y-65402614D02*
X138994286Y-65331185D01*
X138994286Y-65331185D02*
X139137144Y-65259757D01*
X139137144Y-65259757D02*
X139494286Y-65259757D01*
X139494286Y-65259757D02*
X139637144Y-65331185D01*
X139637144Y-65331185D02*
X139708572Y-65402614D01*
X139708572Y-65402614D02*
X139780001Y-65545471D01*
X139780001Y-65545471D02*
X139780001Y-65902614D01*
X139780001Y-65902614D02*
X139708572Y-66045471D01*
X139708572Y-66045471D02*
X139637144Y-66116900D01*
X139637144Y-66116900D02*
X139494286Y-66188328D01*
X139494286Y-66188328D02*
X139137144Y-66188328D01*
X139137144Y-66188328D02*
X138994286Y-66116900D01*
X138994286Y-66116900D02*
X138922858Y-66045471D01*
X140708572Y-64688328D02*
X140851429Y-64688328D01*
X140851429Y-64688328D02*
X140994286Y-64759757D01*
X140994286Y-64759757D02*
X141065715Y-64831185D01*
X141065715Y-64831185D02*
X141137143Y-64974042D01*
X141137143Y-64974042D02*
X141208572Y-65259757D01*
X141208572Y-65259757D02*
X141208572Y-65616900D01*
X141208572Y-65616900D02*
X141137143Y-65902614D01*
X141137143Y-65902614D02*
X141065715Y-66045471D01*
X141065715Y-66045471D02*
X140994286Y-66116900D01*
X140994286Y-66116900D02*
X140851429Y-66188328D01*
X140851429Y-66188328D02*
X140708572Y-66188328D01*
X140708572Y-66188328D02*
X140565715Y-66116900D01*
X140565715Y-66116900D02*
X140494286Y-66045471D01*
X140494286Y-66045471D02*
X140422857Y-65902614D01*
X140422857Y-65902614D02*
X140351429Y-65616900D01*
X140351429Y-65616900D02*
X140351429Y-65259757D01*
X140351429Y-65259757D02*
X140422857Y-64974042D01*
X140422857Y-64974042D02*
X140494286Y-64831185D01*
X140494286Y-64831185D02*
X140565715Y-64759757D01*
X140565715Y-64759757D02*
X140708572Y-64688328D01*
X142137143Y-64688328D02*
X142280000Y-64688328D01*
X142280000Y-64688328D02*
X142422857Y-64759757D01*
X142422857Y-64759757D02*
X142494286Y-64831185D01*
X142494286Y-64831185D02*
X142565714Y-64974042D01*
X142565714Y-64974042D02*
X142637143Y-65259757D01*
X142637143Y-65259757D02*
X142637143Y-65616900D01*
X142637143Y-65616900D02*
X142565714Y-65902614D01*
X142565714Y-65902614D02*
X142494286Y-66045471D01*
X142494286Y-66045471D02*
X142422857Y-66116900D01*
X142422857Y-66116900D02*
X142280000Y-66188328D01*
X142280000Y-66188328D02*
X142137143Y-66188328D01*
X142137143Y-66188328D02*
X141994286Y-66116900D01*
X141994286Y-66116900D02*
X141922857Y-66045471D01*
X141922857Y-66045471D02*
X141851428Y-65902614D01*
X141851428Y-65902614D02*
X141780000Y-65616900D01*
X141780000Y-65616900D02*
X141780000Y-65259757D01*
X141780000Y-65259757D02*
X141851428Y-64974042D01*
X141851428Y-64974042D02*
X141922857Y-64831185D01*
X141922857Y-64831185D02*
X141994286Y-64759757D01*
X141994286Y-64759757D02*
X142137143Y-64688328D01*
X143279999Y-66045471D02*
X143351428Y-66116900D01*
X143351428Y-66116900D02*
X143279999Y-66188328D01*
X143279999Y-66188328D02*
X143208571Y-66116900D01*
X143208571Y-66116900D02*
X143279999Y-66045471D01*
X143279999Y-66045471D02*
X143279999Y-66188328D01*
X144280000Y-64688328D02*
X144422857Y-64688328D01*
X144422857Y-64688328D02*
X144565714Y-64759757D01*
X144565714Y-64759757D02*
X144637143Y-64831185D01*
X144637143Y-64831185D02*
X144708571Y-64974042D01*
X144708571Y-64974042D02*
X144780000Y-65259757D01*
X144780000Y-65259757D02*
X144780000Y-65616900D01*
X144780000Y-65616900D02*
X144708571Y-65902614D01*
X144708571Y-65902614D02*
X144637143Y-66045471D01*
X144637143Y-66045471D02*
X144565714Y-66116900D01*
X144565714Y-66116900D02*
X144422857Y-66188328D01*
X144422857Y-66188328D02*
X144280000Y-66188328D01*
X144280000Y-66188328D02*
X144137143Y-66116900D01*
X144137143Y-66116900D02*
X144065714Y-66045471D01*
X144065714Y-66045471D02*
X143994285Y-65902614D01*
X143994285Y-65902614D02*
X143922857Y-65616900D01*
X143922857Y-65616900D02*
X143922857Y-65259757D01*
X143922857Y-65259757D02*
X143994285Y-64974042D01*
X143994285Y-64974042D02*
X144065714Y-64831185D01*
X144065714Y-64831185D02*
X144137143Y-64759757D01*
X144137143Y-64759757D02*
X144280000Y-64688328D01*
X145708571Y-64688328D02*
X145851428Y-64688328D01*
X145851428Y-64688328D02*
X145994285Y-64759757D01*
X145994285Y-64759757D02*
X146065714Y-64831185D01*
X146065714Y-64831185D02*
X146137142Y-64974042D01*
X146137142Y-64974042D02*
X146208571Y-65259757D01*
X146208571Y-65259757D02*
X146208571Y-65616900D01*
X146208571Y-65616900D02*
X146137142Y-65902614D01*
X146137142Y-65902614D02*
X146065714Y-66045471D01*
X146065714Y-66045471D02*
X145994285Y-66116900D01*
X145994285Y-66116900D02*
X145851428Y-66188328D01*
X145851428Y-66188328D02*
X145708571Y-66188328D01*
X145708571Y-66188328D02*
X145565714Y-66116900D01*
X145565714Y-66116900D02*
X145494285Y-66045471D01*
X145494285Y-66045471D02*
X145422856Y-65902614D01*
X145422856Y-65902614D02*
X145351428Y-65616900D01*
X145351428Y-65616900D02*
X145351428Y-65259757D01*
X145351428Y-65259757D02*
X145422856Y-64974042D01*
X145422856Y-64974042D02*
X145494285Y-64831185D01*
X145494285Y-64831185D02*
X145565714Y-64759757D01*
X145565714Y-64759757D02*
X145708571Y-64688328D01*
X147994284Y-66188328D02*
X147994284Y-65188328D01*
X147994284Y-65331185D02*
X148065713Y-65259757D01*
X148065713Y-65259757D02*
X148208570Y-65188328D01*
X148208570Y-65188328D02*
X148422856Y-65188328D01*
X148422856Y-65188328D02*
X148565713Y-65259757D01*
X148565713Y-65259757D02*
X148637142Y-65402614D01*
X148637142Y-65402614D02*
X148637142Y-66188328D01*
X148637142Y-65402614D02*
X148708570Y-65259757D01*
X148708570Y-65259757D02*
X148851427Y-65188328D01*
X148851427Y-65188328D02*
X149065713Y-65188328D01*
X149065713Y-65188328D02*
X149208570Y-65259757D01*
X149208570Y-65259757D02*
X149279999Y-65402614D01*
X149279999Y-65402614D02*
X149279999Y-66188328D01*
X149994284Y-66188328D02*
X149994284Y-65188328D01*
X149994284Y-64688328D02*
X149922856Y-64759757D01*
X149922856Y-64759757D02*
X149994284Y-64831185D01*
X149994284Y-64831185D02*
X150065713Y-64759757D01*
X150065713Y-64759757D02*
X149994284Y-64688328D01*
X149994284Y-64688328D02*
X149994284Y-64831185D01*
X150922856Y-66188328D02*
X150779999Y-66116900D01*
X150779999Y-66116900D02*
X150708570Y-65974042D01*
X150708570Y-65974042D02*
X150708570Y-64688328D01*
X151422856Y-66116900D02*
X151565713Y-66188328D01*
X151565713Y-66188328D02*
X151851427Y-66188328D01*
X151851427Y-66188328D02*
X151994284Y-66116900D01*
X151994284Y-66116900D02*
X152065713Y-65974042D01*
X152065713Y-65974042D02*
X152065713Y-65902614D01*
X152065713Y-65902614D02*
X151994284Y-65759757D01*
X151994284Y-65759757D02*
X151851427Y-65688328D01*
X151851427Y-65688328D02*
X151637142Y-65688328D01*
X151637142Y-65688328D02*
X151494284Y-65616900D01*
X151494284Y-65616900D02*
X151422856Y-65474042D01*
X151422856Y-65474042D02*
X151422856Y-65402614D01*
X151422856Y-65402614D02*
X151494284Y-65259757D01*
X151494284Y-65259757D02*
X151637142Y-65188328D01*
X151637142Y-65188328D02*
X151851427Y-65188328D01*
X151851427Y-65188328D02*
X151994284Y-65259757D01*
D12*
X113030000Y-74430000D02*
X113030000Y-66723580D01*
X176530000Y-74430000D02*
X176530000Y-66723580D01*
X113030000Y-67310000D02*
X176530000Y-67310000D01*
X113030000Y-67310000D02*
X114156504Y-66723579D01*
X113030000Y-67310000D02*
X114156504Y-67896421D01*
X176530000Y-67310000D02*
X175403496Y-67896421D01*
X176530000Y-67310000D02*
X175403496Y-66723579D01*
D10*
X136065716Y-123781185D02*
X136137144Y-123709757D01*
X136137144Y-123709757D02*
X136280002Y-123638328D01*
X136280002Y-123638328D02*
X136637144Y-123638328D01*
X136637144Y-123638328D02*
X136780002Y-123709757D01*
X136780002Y-123709757D02*
X136851430Y-123781185D01*
X136851430Y-123781185D02*
X136922859Y-123924042D01*
X136922859Y-123924042D02*
X136922859Y-124066900D01*
X136922859Y-124066900D02*
X136851430Y-124281185D01*
X136851430Y-124281185D02*
X135994287Y-125138328D01*
X135994287Y-125138328D02*
X136922859Y-125138328D01*
X137494287Y-123781185D02*
X137565715Y-123709757D01*
X137565715Y-123709757D02*
X137708573Y-123638328D01*
X137708573Y-123638328D02*
X138065715Y-123638328D01*
X138065715Y-123638328D02*
X138208573Y-123709757D01*
X138208573Y-123709757D02*
X138280001Y-123781185D01*
X138280001Y-123781185D02*
X138351430Y-123924042D01*
X138351430Y-123924042D02*
X138351430Y-124066900D01*
X138351430Y-124066900D02*
X138280001Y-124281185D01*
X138280001Y-124281185D02*
X137422858Y-125138328D01*
X137422858Y-125138328D02*
X138351430Y-125138328D01*
X139280001Y-123638328D02*
X139422858Y-123638328D01*
X139422858Y-123638328D02*
X139565715Y-123709757D01*
X139565715Y-123709757D02*
X139637144Y-123781185D01*
X139637144Y-123781185D02*
X139708572Y-123924042D01*
X139708572Y-123924042D02*
X139780001Y-124209757D01*
X139780001Y-124209757D02*
X139780001Y-124566900D01*
X139780001Y-124566900D02*
X139708572Y-124852614D01*
X139708572Y-124852614D02*
X139637144Y-124995471D01*
X139637144Y-124995471D02*
X139565715Y-125066900D01*
X139565715Y-125066900D02*
X139422858Y-125138328D01*
X139422858Y-125138328D02*
X139280001Y-125138328D01*
X139280001Y-125138328D02*
X139137144Y-125066900D01*
X139137144Y-125066900D02*
X139065715Y-124995471D01*
X139065715Y-124995471D02*
X138994286Y-124852614D01*
X138994286Y-124852614D02*
X138922858Y-124566900D01*
X138922858Y-124566900D02*
X138922858Y-124209757D01*
X138922858Y-124209757D02*
X138994286Y-123924042D01*
X138994286Y-123924042D02*
X139065715Y-123781185D01*
X139065715Y-123781185D02*
X139137144Y-123709757D01*
X139137144Y-123709757D02*
X139280001Y-123638328D01*
X140708572Y-123638328D02*
X140851429Y-123638328D01*
X140851429Y-123638328D02*
X140994286Y-123709757D01*
X140994286Y-123709757D02*
X141065715Y-123781185D01*
X141065715Y-123781185D02*
X141137143Y-123924042D01*
X141137143Y-123924042D02*
X141208572Y-124209757D01*
X141208572Y-124209757D02*
X141208572Y-124566900D01*
X141208572Y-124566900D02*
X141137143Y-124852614D01*
X141137143Y-124852614D02*
X141065715Y-124995471D01*
X141065715Y-124995471D02*
X140994286Y-125066900D01*
X140994286Y-125066900D02*
X140851429Y-125138328D01*
X140851429Y-125138328D02*
X140708572Y-125138328D01*
X140708572Y-125138328D02*
X140565715Y-125066900D01*
X140565715Y-125066900D02*
X140494286Y-124995471D01*
X140494286Y-124995471D02*
X140422857Y-124852614D01*
X140422857Y-124852614D02*
X140351429Y-124566900D01*
X140351429Y-124566900D02*
X140351429Y-124209757D01*
X140351429Y-124209757D02*
X140422857Y-123924042D01*
X140422857Y-123924042D02*
X140494286Y-123781185D01*
X140494286Y-123781185D02*
X140565715Y-123709757D01*
X140565715Y-123709757D02*
X140708572Y-123638328D01*
X141851428Y-124995471D02*
X141922857Y-125066900D01*
X141922857Y-125066900D02*
X141851428Y-125138328D01*
X141851428Y-125138328D02*
X141780000Y-125066900D01*
X141780000Y-125066900D02*
X141851428Y-124995471D01*
X141851428Y-124995471D02*
X141851428Y-125138328D01*
X142851429Y-123638328D02*
X142994286Y-123638328D01*
X142994286Y-123638328D02*
X143137143Y-123709757D01*
X143137143Y-123709757D02*
X143208572Y-123781185D01*
X143208572Y-123781185D02*
X143280000Y-123924042D01*
X143280000Y-123924042D02*
X143351429Y-124209757D01*
X143351429Y-124209757D02*
X143351429Y-124566900D01*
X143351429Y-124566900D02*
X143280000Y-124852614D01*
X143280000Y-124852614D02*
X143208572Y-124995471D01*
X143208572Y-124995471D02*
X143137143Y-125066900D01*
X143137143Y-125066900D02*
X142994286Y-125138328D01*
X142994286Y-125138328D02*
X142851429Y-125138328D01*
X142851429Y-125138328D02*
X142708572Y-125066900D01*
X142708572Y-125066900D02*
X142637143Y-124995471D01*
X142637143Y-124995471D02*
X142565714Y-124852614D01*
X142565714Y-124852614D02*
X142494286Y-124566900D01*
X142494286Y-124566900D02*
X142494286Y-124209757D01*
X142494286Y-124209757D02*
X142565714Y-123924042D01*
X142565714Y-123924042D02*
X142637143Y-123781185D01*
X142637143Y-123781185D02*
X142708572Y-123709757D01*
X142708572Y-123709757D02*
X142851429Y-123638328D01*
X144280000Y-123638328D02*
X144422857Y-123638328D01*
X144422857Y-123638328D02*
X144565714Y-123709757D01*
X144565714Y-123709757D02*
X144637143Y-123781185D01*
X144637143Y-123781185D02*
X144708571Y-123924042D01*
X144708571Y-123924042D02*
X144780000Y-124209757D01*
X144780000Y-124209757D02*
X144780000Y-124566900D01*
X144780000Y-124566900D02*
X144708571Y-124852614D01*
X144708571Y-124852614D02*
X144637143Y-124995471D01*
X144637143Y-124995471D02*
X144565714Y-125066900D01*
X144565714Y-125066900D02*
X144422857Y-125138328D01*
X144422857Y-125138328D02*
X144280000Y-125138328D01*
X144280000Y-125138328D02*
X144137143Y-125066900D01*
X144137143Y-125066900D02*
X144065714Y-124995471D01*
X144065714Y-124995471D02*
X143994285Y-124852614D01*
X143994285Y-124852614D02*
X143922857Y-124566900D01*
X143922857Y-124566900D02*
X143922857Y-124209757D01*
X143922857Y-124209757D02*
X143994285Y-123924042D01*
X143994285Y-123924042D02*
X144065714Y-123781185D01*
X144065714Y-123781185D02*
X144137143Y-123709757D01*
X144137143Y-123709757D02*
X144280000Y-123638328D01*
X145708571Y-123638328D02*
X145851428Y-123638328D01*
X145851428Y-123638328D02*
X145994285Y-123709757D01*
X145994285Y-123709757D02*
X146065714Y-123781185D01*
X146065714Y-123781185D02*
X146137142Y-123924042D01*
X146137142Y-123924042D02*
X146208571Y-124209757D01*
X146208571Y-124209757D02*
X146208571Y-124566900D01*
X146208571Y-124566900D02*
X146137142Y-124852614D01*
X146137142Y-124852614D02*
X146065714Y-124995471D01*
X146065714Y-124995471D02*
X145994285Y-125066900D01*
X145994285Y-125066900D02*
X145851428Y-125138328D01*
X145851428Y-125138328D02*
X145708571Y-125138328D01*
X145708571Y-125138328D02*
X145565714Y-125066900D01*
X145565714Y-125066900D02*
X145494285Y-124995471D01*
X145494285Y-124995471D02*
X145422856Y-124852614D01*
X145422856Y-124852614D02*
X145351428Y-124566900D01*
X145351428Y-124566900D02*
X145351428Y-124209757D01*
X145351428Y-124209757D02*
X145422856Y-123924042D01*
X145422856Y-123924042D02*
X145494285Y-123781185D01*
X145494285Y-123781185D02*
X145565714Y-123709757D01*
X145565714Y-123709757D02*
X145708571Y-123638328D01*
X147137142Y-123638328D02*
X147279999Y-123638328D01*
X147279999Y-123638328D02*
X147422856Y-123709757D01*
X147422856Y-123709757D02*
X147494285Y-123781185D01*
X147494285Y-123781185D02*
X147565713Y-123924042D01*
X147565713Y-123924042D02*
X147637142Y-124209757D01*
X147637142Y-124209757D02*
X147637142Y-124566900D01*
X147637142Y-124566900D02*
X147565713Y-124852614D01*
X147565713Y-124852614D02*
X147494285Y-124995471D01*
X147494285Y-124995471D02*
X147422856Y-125066900D01*
X147422856Y-125066900D02*
X147279999Y-125138328D01*
X147279999Y-125138328D02*
X147137142Y-125138328D01*
X147137142Y-125138328D02*
X146994285Y-125066900D01*
X146994285Y-125066900D02*
X146922856Y-124995471D01*
X146922856Y-124995471D02*
X146851427Y-124852614D01*
X146851427Y-124852614D02*
X146779999Y-124566900D01*
X146779999Y-124566900D02*
X146779999Y-124209757D01*
X146779999Y-124209757D02*
X146851427Y-123924042D01*
X146851427Y-123924042D02*
X146922856Y-123781185D01*
X146922856Y-123781185D02*
X146994285Y-123709757D01*
X146994285Y-123709757D02*
X147137142Y-123638328D01*
X149422855Y-125138328D02*
X149422855Y-124138328D01*
X149422855Y-124281185D02*
X149494284Y-124209757D01*
X149494284Y-124209757D02*
X149637141Y-124138328D01*
X149637141Y-124138328D02*
X149851427Y-124138328D01*
X149851427Y-124138328D02*
X149994284Y-124209757D01*
X149994284Y-124209757D02*
X150065713Y-124352614D01*
X150065713Y-124352614D02*
X150065713Y-125138328D01*
X150065713Y-124352614D02*
X150137141Y-124209757D01*
X150137141Y-124209757D02*
X150279998Y-124138328D01*
X150279998Y-124138328D02*
X150494284Y-124138328D01*
X150494284Y-124138328D02*
X150637141Y-124209757D01*
X150637141Y-124209757D02*
X150708570Y-124352614D01*
X150708570Y-124352614D02*
X150708570Y-125138328D01*
X151422855Y-125138328D02*
X151422855Y-124138328D01*
X151422855Y-123638328D02*
X151351427Y-123709757D01*
X151351427Y-123709757D02*
X151422855Y-123781185D01*
X151422855Y-123781185D02*
X151494284Y-123709757D01*
X151494284Y-123709757D02*
X151422855Y-123638328D01*
X151422855Y-123638328D02*
X151422855Y-123781185D01*
X152351427Y-125138328D02*
X152208570Y-125066900D01*
X152208570Y-125066900D02*
X152137141Y-124924042D01*
X152137141Y-124924042D02*
X152137141Y-123638328D01*
X152851427Y-125066900D02*
X152994284Y-125138328D01*
X152994284Y-125138328D02*
X153279998Y-125138328D01*
X153279998Y-125138328D02*
X153422855Y-125066900D01*
X153422855Y-125066900D02*
X153494284Y-124924042D01*
X153494284Y-124924042D02*
X153494284Y-124852614D01*
X153494284Y-124852614D02*
X153422855Y-124709757D01*
X153422855Y-124709757D02*
X153279998Y-124638328D01*
X153279998Y-124638328D02*
X153065713Y-124638328D01*
X153065713Y-124638328D02*
X152922855Y-124566900D01*
X152922855Y-124566900D02*
X152851427Y-124424042D01*
X152851427Y-124424042D02*
X152851427Y-124352614D01*
X152851427Y-124352614D02*
X152922855Y-124209757D01*
X152922855Y-124209757D02*
X153065713Y-124138328D01*
X153065713Y-124138328D02*
X153279998Y-124138328D01*
X153279998Y-124138328D02*
X153422855Y-124209757D01*
D11*
X116840000Y-118610000D02*
X116840000Y-127586420D01*
X172720000Y-118610000D02*
X172720000Y-127586420D01*
X116840000Y-127000000D02*
X172720000Y-127000000D01*
X116840000Y-127000000D02*
X117966504Y-126413579D01*
X116840000Y-127000000D02*
X117966504Y-127586421D01*
X172720000Y-127000000D02*
X171593496Y-127586421D01*
X172720000Y-127000000D02*
X171593496Y-126413579D01*
X118970588Y-69669819D02*
X118399160Y-69669819D01*
X118684874Y-69669819D02*
X118684874Y-68669819D01*
X118684874Y-68669819D02*
X118589636Y-68812676D01*
X118589636Y-68812676D02*
X118494398Y-68907914D01*
X118494398Y-68907914D02*
X118399160Y-68955533D01*
X119875350Y-68669819D02*
X119399160Y-68669819D01*
X119399160Y-68669819D02*
X119351541Y-69146009D01*
X119351541Y-69146009D02*
X119399160Y-69098390D01*
X119399160Y-69098390D02*
X119494398Y-69050771D01*
X119494398Y-69050771D02*
X119732493Y-69050771D01*
X119732493Y-69050771D02*
X119827731Y-69098390D01*
X119827731Y-69098390D02*
X119875350Y-69146009D01*
X119875350Y-69146009D02*
X119922969Y-69241247D01*
X119922969Y-69241247D02*
X119922969Y-69479342D01*
X119922969Y-69479342D02*
X119875350Y-69574580D01*
X119875350Y-69574580D02*
X119827731Y-69622200D01*
X119827731Y-69622200D02*
X119732493Y-69669819D01*
X119732493Y-69669819D02*
X119494398Y-69669819D01*
X119494398Y-69669819D02*
X119399160Y-69622200D01*
X119399160Y-69622200D02*
X119351541Y-69574580D01*
X120542017Y-68669819D02*
X120637255Y-68669819D01*
X120637255Y-68669819D02*
X120732493Y-68717438D01*
X120732493Y-68717438D02*
X120780112Y-68765057D01*
X120780112Y-68765057D02*
X120827731Y-68860295D01*
X120827731Y-68860295D02*
X120875350Y-69050771D01*
X120875350Y-69050771D02*
X120875350Y-69288866D01*
X120875350Y-69288866D02*
X120827731Y-69479342D01*
X120827731Y-69479342D02*
X120780112Y-69574580D01*
X120780112Y-69574580D02*
X120732493Y-69622200D01*
X120732493Y-69622200D02*
X120637255Y-69669819D01*
X120637255Y-69669819D02*
X120542017Y-69669819D01*
X120542017Y-69669819D02*
X120446779Y-69622200D01*
X120446779Y-69622200D02*
X120399160Y-69574580D01*
X120399160Y-69574580D02*
X120351541Y-69479342D01*
X120351541Y-69479342D02*
X120303922Y-69288866D01*
X120303922Y-69288866D02*
X120303922Y-69050771D01*
X120303922Y-69050771D02*
X120351541Y-68860295D01*
X120351541Y-68860295D02*
X120399160Y-68765057D01*
X120399160Y-68765057D02*
X120446779Y-68717438D01*
X120446779Y-68717438D02*
X120542017Y-68669819D01*
X121303922Y-69574580D02*
X121351541Y-69622200D01*
X121351541Y-69622200D02*
X121303922Y-69669819D01*
X121303922Y-69669819D02*
X121256303Y-69622200D01*
X121256303Y-69622200D02*
X121303922Y-69574580D01*
X121303922Y-69574580D02*
X121303922Y-69669819D01*
X121970588Y-68669819D02*
X122065826Y-68669819D01*
X122065826Y-68669819D02*
X122161064Y-68717438D01*
X122161064Y-68717438D02*
X122208683Y-68765057D01*
X122208683Y-68765057D02*
X122256302Y-68860295D01*
X122256302Y-68860295D02*
X122303921Y-69050771D01*
X122303921Y-69050771D02*
X122303921Y-69288866D01*
X122303921Y-69288866D02*
X122256302Y-69479342D01*
X122256302Y-69479342D02*
X122208683Y-69574580D01*
X122208683Y-69574580D02*
X122161064Y-69622200D01*
X122161064Y-69622200D02*
X122065826Y-69669819D01*
X122065826Y-69669819D02*
X121970588Y-69669819D01*
X121970588Y-69669819D02*
X121875350Y-69622200D01*
X121875350Y-69622200D02*
X121827731Y-69574580D01*
X121827731Y-69574580D02*
X121780112Y-69479342D01*
X121780112Y-69479342D02*
X121732493Y-69288866D01*
X121732493Y-69288866D02*
X121732493Y-69050771D01*
X121732493Y-69050771D02*
X121780112Y-68860295D01*
X121780112Y-68860295D02*
X121827731Y-68765057D01*
X121827731Y-68765057D02*
X121875350Y-68717438D01*
X121875350Y-68717438D02*
X121970588Y-68669819D01*
X122922969Y-68669819D02*
X123018207Y-68669819D01*
X123018207Y-68669819D02*
X123113445Y-68717438D01*
X123113445Y-68717438D02*
X123161064Y-68765057D01*
X123161064Y-68765057D02*
X123208683Y-68860295D01*
X123208683Y-68860295D02*
X123256302Y-69050771D01*
X123256302Y-69050771D02*
X123256302Y-69288866D01*
X123256302Y-69288866D02*
X123208683Y-69479342D01*
X123208683Y-69479342D02*
X123161064Y-69574580D01*
X123161064Y-69574580D02*
X123113445Y-69622200D01*
X123113445Y-69622200D02*
X123018207Y-69669819D01*
X123018207Y-69669819D02*
X122922969Y-69669819D01*
X122922969Y-69669819D02*
X122827731Y-69622200D01*
X122827731Y-69622200D02*
X122780112Y-69574580D01*
X122780112Y-69574580D02*
X122732493Y-69479342D01*
X122732493Y-69479342D02*
X122684874Y-69288866D01*
X122684874Y-69288866D02*
X122684874Y-69050771D01*
X122684874Y-69050771D02*
X122732493Y-68860295D01*
X122732493Y-68860295D02*
X122780112Y-68765057D01*
X122780112Y-68765057D02*
X122827731Y-68717438D01*
X122827731Y-68717438D02*
X122922969Y-68669819D01*
X124446779Y-69669819D02*
X124446779Y-69003152D01*
X124446779Y-69098390D02*
X124494398Y-69050771D01*
X124494398Y-69050771D02*
X124589636Y-69003152D01*
X124589636Y-69003152D02*
X124732493Y-69003152D01*
X124732493Y-69003152D02*
X124827731Y-69050771D01*
X124827731Y-69050771D02*
X124875350Y-69146009D01*
X124875350Y-69146009D02*
X124875350Y-69669819D01*
X124875350Y-69146009D02*
X124922969Y-69050771D01*
X124922969Y-69050771D02*
X125018207Y-69003152D01*
X125018207Y-69003152D02*
X125161064Y-69003152D01*
X125161064Y-69003152D02*
X125256303Y-69050771D01*
X125256303Y-69050771D02*
X125303922Y-69146009D01*
X125303922Y-69146009D02*
X125303922Y-69669819D01*
X125780112Y-69669819D02*
X125780112Y-69003152D01*
X125780112Y-68669819D02*
X125732493Y-68717438D01*
X125732493Y-68717438D02*
X125780112Y-68765057D01*
X125780112Y-68765057D02*
X125827731Y-68717438D01*
X125827731Y-68717438D02*
X125780112Y-68669819D01*
X125780112Y-68669819D02*
X125780112Y-68765057D01*
X126399159Y-69669819D02*
X126303921Y-69622200D01*
X126303921Y-69622200D02*
X126256302Y-69526961D01*
X126256302Y-69526961D02*
X126256302Y-68669819D01*
X126732493Y-69622200D02*
X126827731Y-69669819D01*
X126827731Y-69669819D02*
X127018207Y-69669819D01*
X127018207Y-69669819D02*
X127113445Y-69622200D01*
X127113445Y-69622200D02*
X127161064Y-69526961D01*
X127161064Y-69526961D02*
X127161064Y-69479342D01*
X127161064Y-69479342D02*
X127113445Y-69384104D01*
X127113445Y-69384104D02*
X127018207Y-69336485D01*
X127018207Y-69336485D02*
X126875350Y-69336485D01*
X126875350Y-69336485D02*
X126780112Y-69288866D01*
X126780112Y-69288866D02*
X126732493Y-69193628D01*
X126732493Y-69193628D02*
X126732493Y-69146009D01*
X126732493Y-69146009D02*
X126780112Y-69050771D01*
X126780112Y-69050771D02*
X126875350Y-69003152D01*
X126875350Y-69003152D02*
X127018207Y-69003152D01*
X127018207Y-69003152D02*
X127113445Y-69050771D01*
X113030000Y-74430000D02*
X113030000Y-68628580D01*
X116840000Y-74430000D02*
X116840000Y-68628580D01*
X113030000Y-69215000D02*
X116840000Y-69215000D01*
X113030000Y-69215000D02*
X114156504Y-68628579D01*
X113030000Y-69215000D02*
X114156504Y-69801421D01*
X116840000Y-69215000D02*
X115713496Y-69801421D01*
X116840000Y-69215000D02*
X115713496Y-68628579D01*
X156191554Y-69003152D02*
X156191554Y-69669819D01*
X155953459Y-68622200D02*
X155715364Y-69336485D01*
X155715364Y-69336485D02*
X156334411Y-69336485D01*
X156620126Y-69669819D02*
X157143935Y-69003152D01*
X156620126Y-69003152D02*
X157143935Y-69669819D01*
X158239174Y-68765057D02*
X158286793Y-68717438D01*
X158286793Y-68717438D02*
X158382031Y-68669819D01*
X158382031Y-68669819D02*
X158620126Y-68669819D01*
X158620126Y-68669819D02*
X158715364Y-68717438D01*
X158715364Y-68717438D02*
X158762983Y-68765057D01*
X158762983Y-68765057D02*
X158810602Y-68860295D01*
X158810602Y-68860295D02*
X158810602Y-68955533D01*
X158810602Y-68955533D02*
X158762983Y-69098390D01*
X158762983Y-69098390D02*
X158191555Y-69669819D01*
X158191555Y-69669819D02*
X158810602Y-69669819D01*
X159239174Y-69574580D02*
X159286793Y-69622200D01*
X159286793Y-69622200D02*
X159239174Y-69669819D01*
X159239174Y-69669819D02*
X159191555Y-69622200D01*
X159191555Y-69622200D02*
X159239174Y-69574580D01*
X159239174Y-69574580D02*
X159239174Y-69669819D01*
X160191554Y-68669819D02*
X159715364Y-68669819D01*
X159715364Y-68669819D02*
X159667745Y-69146009D01*
X159667745Y-69146009D02*
X159715364Y-69098390D01*
X159715364Y-69098390D02*
X159810602Y-69050771D01*
X159810602Y-69050771D02*
X160048697Y-69050771D01*
X160048697Y-69050771D02*
X160143935Y-69098390D01*
X160143935Y-69098390D02*
X160191554Y-69146009D01*
X160191554Y-69146009D02*
X160239173Y-69241247D01*
X160239173Y-69241247D02*
X160239173Y-69479342D01*
X160239173Y-69479342D02*
X160191554Y-69574580D01*
X160191554Y-69574580D02*
X160143935Y-69622200D01*
X160143935Y-69622200D02*
X160048697Y-69669819D01*
X160048697Y-69669819D02*
X159810602Y-69669819D01*
X159810602Y-69669819D02*
X159715364Y-69622200D01*
X159715364Y-69622200D02*
X159667745Y-69574580D01*
X160667745Y-69669819D02*
X160667745Y-69003152D01*
X160667745Y-69098390D02*
X160715364Y-69050771D01*
X160715364Y-69050771D02*
X160810602Y-69003152D01*
X160810602Y-69003152D02*
X160953459Y-69003152D01*
X160953459Y-69003152D02*
X161048697Y-69050771D01*
X161048697Y-69050771D02*
X161096316Y-69146009D01*
X161096316Y-69146009D02*
X161096316Y-69669819D01*
X161096316Y-69146009D02*
X161143935Y-69050771D01*
X161143935Y-69050771D02*
X161239173Y-69003152D01*
X161239173Y-69003152D02*
X161382030Y-69003152D01*
X161382030Y-69003152D02*
X161477269Y-69050771D01*
X161477269Y-69050771D02*
X161524888Y-69146009D01*
X161524888Y-69146009D02*
X161524888Y-69669819D01*
X162001078Y-69669819D02*
X162001078Y-69003152D01*
X162001078Y-69098390D02*
X162048697Y-69050771D01*
X162048697Y-69050771D02*
X162143935Y-69003152D01*
X162143935Y-69003152D02*
X162286792Y-69003152D01*
X162286792Y-69003152D02*
X162382030Y-69050771D01*
X162382030Y-69050771D02*
X162429649Y-69146009D01*
X162429649Y-69146009D02*
X162429649Y-69669819D01*
X162429649Y-69146009D02*
X162477268Y-69050771D01*
X162477268Y-69050771D02*
X162572506Y-69003152D01*
X162572506Y-69003152D02*
X162715363Y-69003152D01*
X162715363Y-69003152D02*
X162810602Y-69050771D01*
X162810602Y-69050771D02*
X162858221Y-69146009D01*
X162858221Y-69146009D02*
X162858221Y-69669819D01*
X172366447Y-74576447D02*
X167005000Y-69215000D01*
X172366447Y-74576447D02*
X171155226Y-74194551D01*
X172366447Y-74576447D02*
X171984551Y-73365226D01*
X167005000Y-69215000D02*
X163695000Y-69215000D01*
X103100476Y-66764819D02*
X103195714Y-66764819D01*
X103195714Y-66764819D02*
X103290952Y-66812438D01*
X103290952Y-66812438D02*
X103338571Y-66860057D01*
X103338571Y-66860057D02*
X103386190Y-66955295D01*
X103386190Y-66955295D02*
X103433809Y-67145771D01*
X103433809Y-67145771D02*
X103433809Y-67383866D01*
X103433809Y-67383866D02*
X103386190Y-67574342D01*
X103386190Y-67574342D02*
X103338571Y-67669580D01*
X103338571Y-67669580D02*
X103290952Y-67717200D01*
X103290952Y-67717200D02*
X103195714Y-67764819D01*
X103195714Y-67764819D02*
X103100476Y-67764819D01*
X103100476Y-67764819D02*
X103005238Y-67717200D01*
X103005238Y-67717200D02*
X102957619Y-67669580D01*
X102957619Y-67669580D02*
X102910000Y-67574342D01*
X102910000Y-67574342D02*
X102862381Y-67383866D01*
X102862381Y-67383866D02*
X102862381Y-67145771D01*
X102862381Y-67145771D02*
X102910000Y-66955295D01*
X102910000Y-66955295D02*
X102957619Y-66860057D01*
X102957619Y-66860057D02*
X103005238Y-66812438D01*
X103005238Y-66812438D02*
X103100476Y-66764819D01*
X103862381Y-67669580D02*
X103910000Y-67717200D01*
X103910000Y-67717200D02*
X103862381Y-67764819D01*
X103862381Y-67764819D02*
X103814762Y-67717200D01*
X103814762Y-67717200D02*
X103862381Y-67669580D01*
X103862381Y-67669580D02*
X103862381Y-67764819D01*
X104862380Y-67764819D02*
X104290952Y-67764819D01*
X104576666Y-67764819D02*
X104576666Y-66764819D01*
X104576666Y-66764819D02*
X104481428Y-66907676D01*
X104481428Y-66907676D02*
X104386190Y-67002914D01*
X104386190Y-67002914D02*
X104290952Y-67050533D01*
X105767142Y-66764819D02*
X105290952Y-66764819D01*
X105290952Y-66764819D02*
X105243333Y-67241009D01*
X105243333Y-67241009D02*
X105290952Y-67193390D01*
X105290952Y-67193390D02*
X105386190Y-67145771D01*
X105386190Y-67145771D02*
X105624285Y-67145771D01*
X105624285Y-67145771D02*
X105719523Y-67193390D01*
X105719523Y-67193390D02*
X105767142Y-67241009D01*
X105767142Y-67241009D02*
X105814761Y-67336247D01*
X105814761Y-67336247D02*
X105814761Y-67574342D01*
X105814761Y-67574342D02*
X105767142Y-67669580D01*
X105767142Y-67669580D02*
X105719523Y-67717200D01*
X105719523Y-67717200D02*
X105624285Y-67764819D01*
X105624285Y-67764819D02*
X105386190Y-67764819D01*
X105386190Y-67764819D02*
X105290952Y-67717200D01*
X105290952Y-67717200D02*
X105243333Y-67669580D01*
X107005238Y-67764819D02*
X107005238Y-67098152D01*
X107005238Y-66764819D02*
X106957619Y-66812438D01*
X106957619Y-66812438D02*
X107005238Y-66860057D01*
X107005238Y-66860057D02*
X107052857Y-66812438D01*
X107052857Y-66812438D02*
X107005238Y-66764819D01*
X107005238Y-66764819D02*
X107005238Y-66860057D01*
X107481428Y-67098152D02*
X107481428Y-67764819D01*
X107481428Y-67193390D02*
X107529047Y-67145771D01*
X107529047Y-67145771D02*
X107624285Y-67098152D01*
X107624285Y-67098152D02*
X107767142Y-67098152D01*
X107767142Y-67098152D02*
X107862380Y-67145771D01*
X107862380Y-67145771D02*
X107909999Y-67241009D01*
X107909999Y-67241009D02*
X107909999Y-67764819D01*
X113771647Y-71904385D02*
X108773095Y-67476616D01*
X113771647Y-71904385D02*
X112539559Y-71596395D01*
X113771647Y-71904385D02*
X113317241Y-70718461D01*
D13*
%TO.C,Q2*%
X156930000Y-77270000D02*
X157430000Y-77270000D01*
X156930000Y-77670000D02*
X156930000Y-77270000D01*
X157430000Y-77270000D02*
X157430000Y-77670000D01*
X157430000Y-77670000D02*
X156930000Y-77670000D01*
X157465000Y-76010000D02*
X158765000Y-76010000D01*
X157465000Y-78930000D02*
X157465000Y-76010000D01*
X158765000Y-76010000D02*
X158765000Y-78930000D01*
X158765000Y-78930000D02*
X157465000Y-78930000D01*
X158800000Y-76320000D02*
X159300000Y-76320000D01*
X158800000Y-76720000D02*
X158800000Y-76320000D01*
X158800000Y-78220000D02*
X159300000Y-78220000D01*
X158800000Y-78620000D02*
X158800000Y-78220000D01*
X159300000Y-76320000D02*
X159300000Y-76720000D01*
X159300000Y-76720000D02*
X158800000Y-76720000D01*
X159300000Y-78220000D02*
X159300000Y-78620000D01*
X159300000Y-78620000D02*
X158800000Y-78620000D01*
%TO.C,R12*%
X154539000Y-85440000D02*
X155339000Y-85440000D01*
X154539000Y-85440000D02*
X155339000Y-85440000D01*
X154539000Y-85740000D02*
X154539000Y-85440000D01*
X154539000Y-86740000D02*
X155339000Y-86740000D01*
X154539000Y-86950000D02*
X155339000Y-86950000D01*
X154539000Y-87040000D02*
X154539000Y-85440000D01*
X154539000Y-87040000D02*
X154539000Y-86740000D01*
X154539000Y-88250000D02*
X155339000Y-88250000D01*
X154539000Y-88550000D02*
X154539000Y-86950000D01*
X155339000Y-85440000D02*
X155339000Y-85740000D01*
X155339000Y-85440000D02*
X155339000Y-87040000D01*
X155339000Y-85740000D02*
X154539000Y-85740000D01*
X155339000Y-86740000D02*
X155339000Y-87040000D01*
X155339000Y-86950000D02*
X155339000Y-88550000D01*
X155339000Y-87040000D02*
X154539000Y-87040000D01*
X155339000Y-87040000D02*
X154539000Y-87040000D01*
X155339000Y-87250000D02*
X154539000Y-87250000D01*
X155339000Y-88250000D02*
X155339000Y-88550000D01*
X155339000Y-88550000D02*
X154539000Y-88550000D01*
%TO.C,C2*%
X130156000Y-117552000D02*
X130956000Y-117552000D01*
X130156000Y-117552000D02*
X130956000Y-117552000D01*
X130156000Y-117902000D02*
X130156000Y-117552000D01*
X130156000Y-118802000D02*
X130956000Y-118802000D01*
X130156000Y-119152000D02*
X130156000Y-117552000D01*
X130156000Y-119152000D02*
X130156000Y-118802000D01*
X130956000Y-117552000D02*
X130956000Y-117902000D01*
X130956000Y-117552000D02*
X130956000Y-119152000D01*
X130956000Y-117902000D02*
X130156000Y-117902000D01*
X130956000Y-118802000D02*
X130956000Y-119152000D01*
X130956000Y-119152000D02*
X130156000Y-119152000D01*
X130956000Y-119152000D02*
X130156000Y-119152000D01*
%TO.C,Q4*%
X152905000Y-76332000D02*
X153305000Y-76332000D01*
X152905000Y-76708000D02*
X152905000Y-76332000D01*
X152905000Y-77282000D02*
X153305000Y-77282000D01*
X152905000Y-77658000D02*
X152905000Y-77282000D01*
X152905000Y-78232000D02*
X153305000Y-78232000D01*
X152905000Y-78608000D02*
X152905000Y-78232000D01*
X153305000Y-76332000D02*
X153305000Y-76708000D01*
X153305000Y-76708000D02*
X152905000Y-76708000D01*
X153305000Y-77282000D02*
X153305000Y-77658000D01*
X153305000Y-77658000D02*
X152905000Y-77658000D01*
X153305000Y-78232000D02*
X153305000Y-78608000D01*
X153305000Y-78608000D02*
X152905000Y-78608000D01*
X153505000Y-76020000D02*
X155105000Y-76020000D01*
X153505000Y-78920000D02*
X153505000Y-76020000D01*
X155105000Y-76020000D02*
X155105000Y-78920000D01*
X155105000Y-78920000D02*
X153505000Y-78920000D01*
X155305000Y-76332000D02*
X155705000Y-76332000D01*
X155305000Y-76708000D02*
X155305000Y-76332000D01*
X155305000Y-77282000D02*
X155705000Y-77282000D01*
X155305000Y-77658000D02*
X155305000Y-77282000D01*
X155305000Y-78232000D02*
X155705000Y-78232000D01*
X155305000Y-78608000D02*
X155305000Y-78232000D01*
X155705000Y-76332000D02*
X155705000Y-76708000D01*
X155705000Y-76708000D02*
X155305000Y-76708000D01*
X155705000Y-77282000D02*
X155705000Y-77658000D01*
X155705000Y-77658000D02*
X155305000Y-77658000D01*
X155705000Y-78232000D02*
X155705000Y-78608000D01*
X155705000Y-78608000D02*
X155305000Y-78608000D01*
%TO.C,R10*%
X136355000Y-117964000D02*
X136655000Y-117964000D01*
X136355000Y-117964000D02*
X137955000Y-117964000D01*
X136355000Y-118764000D02*
X136355000Y-117964000D01*
X136355000Y-118764000D02*
X136355000Y-117964000D01*
X136655000Y-117964000D02*
X136655000Y-118764000D01*
X136655000Y-118764000D02*
X136355000Y-118764000D01*
X137655000Y-117964000D02*
X137955000Y-117964000D01*
X137655000Y-118764000D02*
X137655000Y-117964000D01*
X137955000Y-117964000D02*
X137955000Y-118764000D01*
X137955000Y-117964000D02*
X137955000Y-118764000D01*
X137955000Y-118764000D02*
X136355000Y-118764000D01*
X137955000Y-118764000D02*
X137655000Y-118764000D01*
%TO.C,R5*%
X127489000Y-96736000D02*
X128289000Y-96736000D01*
X127489000Y-96736000D02*
X128289000Y-96736000D01*
X127489000Y-97036000D02*
X127489000Y-96736000D01*
X127489000Y-98036000D02*
X128289000Y-98036000D01*
X127489000Y-98336000D02*
X127489000Y-96736000D01*
X127489000Y-98336000D02*
X127489000Y-98036000D01*
X128289000Y-96736000D02*
X128289000Y-97036000D01*
X128289000Y-96736000D02*
X128289000Y-98336000D01*
X128289000Y-97036000D02*
X127489000Y-97036000D01*
X128289000Y-98036000D02*
X128289000Y-98336000D01*
X128289000Y-98336000D02*
X127489000Y-98336000D01*
X128289000Y-98336000D02*
X127489000Y-98336000D01*
%TO.C,C4*%
X117202000Y-96736000D02*
X118002000Y-96736000D01*
X117202000Y-96736000D02*
X118002000Y-96736000D01*
X117202000Y-97086000D02*
X117202000Y-96736000D01*
X117202000Y-97986000D02*
X118002000Y-97986000D01*
X117202000Y-98336000D02*
X117202000Y-96736000D01*
X117202000Y-98336000D02*
X117202000Y-97986000D01*
X118002000Y-96736000D02*
X118002000Y-97086000D01*
X118002000Y-96736000D02*
X118002000Y-98336000D01*
X118002000Y-97086000D02*
X117202000Y-97086000D01*
X118002000Y-97986000D02*
X118002000Y-98336000D01*
X118002000Y-98336000D02*
X117202000Y-98336000D01*
X118002000Y-98336000D02*
X117202000Y-98336000D01*
%TO.C,R3*%
X120943000Y-96736000D02*
X121743000Y-96736000D01*
X120943000Y-96736000D02*
X121743000Y-96736000D01*
X120943000Y-97036000D02*
X120943000Y-96736000D01*
X120943000Y-98036000D02*
X121743000Y-98036000D01*
X120943000Y-98336000D02*
X120943000Y-96736000D01*
X120943000Y-98336000D02*
X120943000Y-98036000D01*
X121743000Y-96736000D02*
X121743000Y-97036000D01*
X121743000Y-96736000D02*
X121743000Y-98336000D01*
X121743000Y-97036000D02*
X120943000Y-97036000D01*
X121743000Y-98036000D02*
X121743000Y-98336000D01*
X121743000Y-98336000D02*
X120943000Y-98336000D01*
X121743000Y-98336000D02*
X120943000Y-98336000D01*
%TO.C,R1*%
X130791000Y-96736000D02*
X131591000Y-96736000D01*
X130791000Y-96736000D02*
X131591000Y-96736000D01*
X130791000Y-97036000D02*
X130791000Y-96736000D01*
X130791000Y-98036000D02*
X131591000Y-98036000D01*
X130791000Y-98336000D02*
X130791000Y-96736000D01*
X130791000Y-98336000D02*
X130791000Y-98036000D01*
X131591000Y-96736000D02*
X131591000Y-97036000D01*
X131591000Y-96736000D02*
X131591000Y-98336000D01*
X131591000Y-97036000D02*
X130791000Y-97036000D01*
X131591000Y-98036000D02*
X131591000Y-98336000D01*
X131591000Y-98336000D02*
X130791000Y-98336000D01*
X131591000Y-98336000D02*
X130791000Y-98336000D01*
%TO.C,Q1*%
X156930000Y-81080000D02*
X157430000Y-81080000D01*
X156930000Y-81480000D02*
X156930000Y-81080000D01*
X157430000Y-81080000D02*
X157430000Y-81480000D01*
X157430000Y-81480000D02*
X156930000Y-81480000D01*
X157465000Y-79820000D02*
X158765000Y-79820000D01*
X157465000Y-82740000D02*
X157465000Y-79820000D01*
X158765000Y-79820000D02*
X158765000Y-82740000D01*
X158765000Y-82740000D02*
X157465000Y-82740000D01*
X158800000Y-80130000D02*
X159300000Y-80130000D01*
X158800000Y-80530000D02*
X158800000Y-80130000D01*
X158800000Y-82030000D02*
X159300000Y-82030000D01*
X158800000Y-82430000D02*
X158800000Y-82030000D01*
X159300000Y-80130000D02*
X159300000Y-80530000D01*
X159300000Y-80530000D02*
X158800000Y-80530000D01*
X159300000Y-82030000D02*
X159300000Y-82430000D01*
X159300000Y-82430000D02*
X158800000Y-82430000D01*
%TO.C,R2*%
X119292000Y-96736000D02*
X120092000Y-96736000D01*
X119292000Y-96736000D02*
X120092000Y-96736000D01*
X119292000Y-97036000D02*
X119292000Y-96736000D01*
X119292000Y-98036000D02*
X120092000Y-98036000D01*
X119292000Y-98336000D02*
X119292000Y-96736000D01*
X119292000Y-98336000D02*
X119292000Y-98036000D01*
X120092000Y-96736000D02*
X120092000Y-97036000D01*
X120092000Y-96736000D02*
X120092000Y-98336000D01*
X120092000Y-97036000D02*
X119292000Y-97036000D01*
X120092000Y-98036000D02*
X120092000Y-98336000D01*
X120092000Y-98336000D02*
X119292000Y-98336000D01*
X120092000Y-98336000D02*
X119292000Y-98336000D01*
%TO.C,R9*%
X136365000Y-116440000D02*
X136665000Y-116440000D01*
X136365000Y-116440000D02*
X137965000Y-116440000D01*
X136365000Y-117240000D02*
X136365000Y-116440000D01*
X136365000Y-117240000D02*
X136365000Y-116440000D01*
X136665000Y-116440000D02*
X136665000Y-117240000D01*
X136665000Y-117240000D02*
X136365000Y-117240000D01*
X137665000Y-116440000D02*
X137965000Y-116440000D01*
X137665000Y-117240000D02*
X137665000Y-116440000D01*
X137965000Y-116440000D02*
X137965000Y-117240000D01*
X137965000Y-116440000D02*
X137965000Y-117240000D01*
X137965000Y-117240000D02*
X136365000Y-117240000D01*
X137965000Y-117240000D02*
X137665000Y-117240000D01*
%TO.C,R6*%
X125838000Y-96736000D02*
X126638000Y-96736000D01*
X125838000Y-96736000D02*
X126638000Y-96736000D01*
X125838000Y-97036000D02*
X125838000Y-96736000D01*
X125838000Y-98036000D02*
X126638000Y-98036000D01*
X125838000Y-98336000D02*
X125838000Y-96736000D01*
X125838000Y-98336000D02*
X125838000Y-98036000D01*
X126638000Y-96736000D02*
X126638000Y-97036000D01*
X126638000Y-96736000D02*
X126638000Y-98336000D01*
X126638000Y-97036000D02*
X125838000Y-97036000D01*
X126638000Y-98036000D02*
X126638000Y-98336000D01*
X126638000Y-98336000D02*
X125838000Y-98336000D01*
X126638000Y-98336000D02*
X125838000Y-98336000D01*
%TO.C,R7*%
X129140000Y-96736000D02*
X129940000Y-96736000D01*
X129140000Y-96736000D02*
X129940000Y-96736000D01*
X129140000Y-97036000D02*
X129140000Y-96736000D01*
X129140000Y-98036000D02*
X129940000Y-98036000D01*
X129140000Y-98336000D02*
X129140000Y-96736000D01*
X129140000Y-98336000D02*
X129140000Y-98036000D01*
X129940000Y-96736000D02*
X129940000Y-97036000D01*
X129940000Y-96736000D02*
X129940000Y-98336000D01*
X129940000Y-97036000D02*
X129140000Y-97036000D01*
X129940000Y-98036000D02*
X129940000Y-98336000D01*
X129940000Y-98336000D02*
X129140000Y-98336000D01*
X129940000Y-98336000D02*
X129140000Y-98336000D01*
%TO.C,R11*%
X152000000Y-85440000D02*
X152800000Y-85440000D01*
X152000000Y-85440000D02*
X152800000Y-85440000D01*
X152000000Y-85740000D02*
X152000000Y-85440000D01*
X152000000Y-86740000D02*
X152800000Y-86740000D01*
X152000000Y-86950000D02*
X152800000Y-86950000D01*
X152000000Y-87040000D02*
X152000000Y-85440000D01*
X152000000Y-87040000D02*
X152000000Y-86740000D01*
X152000000Y-88250000D02*
X152800000Y-88250000D01*
X152000000Y-88550000D02*
X152000000Y-86950000D01*
X152800000Y-85440000D02*
X152800000Y-85740000D01*
X152800000Y-85440000D02*
X152800000Y-87040000D01*
X152800000Y-85740000D02*
X152000000Y-85740000D01*
X152800000Y-86740000D02*
X152800000Y-87040000D01*
X152800000Y-86950000D02*
X152800000Y-88550000D01*
X152800000Y-87040000D02*
X152000000Y-87040000D01*
X152800000Y-87040000D02*
X152000000Y-87040000D01*
X152800000Y-87250000D02*
X152000000Y-87250000D01*
X152800000Y-88250000D02*
X152800000Y-88550000D01*
X152800000Y-88550000D02*
X152000000Y-88550000D01*
%TO.C,R8*%
X136365000Y-114916000D02*
X136665000Y-114916000D01*
X136365000Y-114916000D02*
X137965000Y-114916000D01*
X136365000Y-115716000D02*
X136365000Y-114916000D01*
X136365000Y-115716000D02*
X136365000Y-114916000D01*
X136665000Y-114916000D02*
X136665000Y-115716000D01*
X136665000Y-115716000D02*
X136365000Y-115716000D01*
X137665000Y-114916000D02*
X137965000Y-114916000D01*
X137665000Y-115716000D02*
X137665000Y-114916000D01*
X137965000Y-114916000D02*
X137965000Y-115716000D01*
X137965000Y-114916000D02*
X137965000Y-115716000D01*
X137965000Y-115716000D02*
X136365000Y-115716000D01*
X137965000Y-115716000D02*
X137665000Y-115716000D01*
%TO.C,C1*%
X130156000Y-114516000D02*
X130956000Y-114516000D01*
X130156000Y-114516000D02*
X130956000Y-114516000D01*
X130156000Y-114866000D02*
X130156000Y-114516000D01*
X130156000Y-115766000D02*
X130956000Y-115766000D01*
X130156000Y-116116000D02*
X130156000Y-114516000D01*
X130156000Y-116116000D02*
X130156000Y-115766000D01*
X130956000Y-114516000D02*
X130956000Y-114866000D01*
X130956000Y-114516000D02*
X130956000Y-116116000D01*
X130956000Y-114866000D02*
X130156000Y-114866000D01*
X130956000Y-115766000D02*
X130956000Y-116116000D01*
X130956000Y-116116000D02*
X130156000Y-116116000D01*
X130956000Y-116116000D02*
X130156000Y-116116000D01*
%TO.C,R4*%
X122663000Y-96736000D02*
X123463000Y-96736000D01*
X122663000Y-96736000D02*
X123463000Y-96736000D01*
X122663000Y-97036000D02*
X122663000Y-96736000D01*
X122663000Y-98036000D02*
X123463000Y-98036000D01*
X122663000Y-98336000D02*
X122663000Y-96736000D01*
X122663000Y-98336000D02*
X122663000Y-98036000D01*
X123463000Y-96736000D02*
X123463000Y-97036000D01*
X123463000Y-96736000D02*
X123463000Y-98336000D01*
X123463000Y-97036000D02*
X122663000Y-97036000D01*
X123463000Y-98036000D02*
X123463000Y-98336000D01*
X123463000Y-98336000D02*
X122663000Y-98336000D01*
X123463000Y-98336000D02*
X122663000Y-98336000D01*
%TO.C,C3*%
X115551000Y-96736000D02*
X116351000Y-96736000D01*
X115551000Y-96736000D02*
X116351000Y-96736000D01*
X115551000Y-97086000D02*
X115551000Y-96736000D01*
X115551000Y-97986000D02*
X116351000Y-97986000D01*
X115551000Y-98336000D02*
X115551000Y-96736000D01*
X115551000Y-98336000D02*
X115551000Y-97986000D01*
X116351000Y-96736000D02*
X116351000Y-97086000D01*
X116351000Y-96736000D02*
X116351000Y-98336000D01*
X116351000Y-97086000D02*
X115551000Y-97086000D01*
X116351000Y-97986000D02*
X116351000Y-98336000D01*
X116351000Y-98336000D02*
X115551000Y-98336000D01*
X116351000Y-98336000D02*
X115551000Y-98336000D01*
%TO.C,Q3*%
X152905000Y-80142000D02*
X153305000Y-80142000D01*
X152905000Y-80518000D02*
X152905000Y-80142000D01*
X152905000Y-81092000D02*
X153305000Y-81092000D01*
X152905000Y-81468000D02*
X152905000Y-81092000D01*
X152905000Y-82042000D02*
X153305000Y-82042000D01*
X152905000Y-82418000D02*
X152905000Y-82042000D01*
X153305000Y-80142000D02*
X153305000Y-80518000D01*
X153305000Y-80518000D02*
X152905000Y-80518000D01*
X153305000Y-81092000D02*
X153305000Y-81468000D01*
X153305000Y-81468000D02*
X152905000Y-81468000D01*
X153305000Y-82042000D02*
X153305000Y-82418000D01*
X153305000Y-82418000D02*
X152905000Y-82418000D01*
X153505000Y-79830000D02*
X155105000Y-79830000D01*
X153505000Y-82730000D02*
X153505000Y-79830000D01*
X155105000Y-79830000D02*
X155105000Y-82730000D01*
X155105000Y-82730000D02*
X153505000Y-82730000D01*
X155305000Y-80142000D02*
X155705000Y-80142000D01*
X155305000Y-80518000D02*
X155305000Y-80142000D01*
X155305000Y-81092000D02*
X155705000Y-81092000D01*
X155305000Y-81468000D02*
X155305000Y-81092000D01*
X155305000Y-82042000D02*
X155705000Y-82042000D01*
X155305000Y-82418000D02*
X155305000Y-82042000D01*
X155705000Y-80142000D02*
X155705000Y-80518000D01*
X155705000Y-80518000D02*
X155305000Y-80518000D01*
X155705000Y-81092000D02*
X155705000Y-81468000D01*
X155705000Y-81468000D02*
X155305000Y-81468000D01*
X155705000Y-82042000D02*
X155705000Y-82418000D01*
X155705000Y-82418000D02*
X155305000Y-82418000D01*
%TD*%
M02*
