M48
; DRILL file {KiCad 9.0.6} date 2026-01-30T18:10:11-0500
; FORMAT={-:-/ absolute / metric / decimal}
; #@! TF.CreationDate,2026-01-30T18:10:11-05:00
; #@! TF.GenerationSoftware,Kicad,Pcbnew,9.0.6
; #@! TF.FileFunction,Plated,1,2,PTH
FMAT,2
METRIC
; #@! TA.AperFunction,Plated,PTH,ViaDrill
T1C0.350
; #@! TA.AperFunction,Plated,PTH,ViaDrill
T2C0.400
; #@! TA.AperFunction,Plated,PTH,ComponentDrill
T3C0.700
; #@! TA.AperFunction,Plated,PTH,ComponentDrill
T4C0.900
; #@! TA.AperFunction,Plated,PTH,ComponentDrill
T5C1.000
%
G90
G05
T1
X114.3Y-113.03
X115.57Y-78.74
X115.57Y-83.185
X115.57Y-87.63
X115.951Y-95.504
X116.205Y-107.315
X116.205Y-111.125
X116.332Y-114.681
X117.221Y-101.473
X117.475Y-92.71
X117.602Y-95.504
X117.914Y-103.034
X118.11Y-80.645
X118.11Y-113.03
X118.745Y-109.855
X118.745Y-114.935
X118.745Y-120.015
X119.38Y-72.39
X119.38Y-76.2
X120.015Y-90.17
X120.015Y-92.71
X120.015Y-95.25
X120.65Y-83.185
X121.285Y-112.395
X121.285Y-117.475
X121.412Y-102.87
X122.174Y-95.885
X122.174Y-99.568
X123.317Y-94.869
X123.571Y-93.472
X123.825Y-109.855
X123.825Y-114.935
X123.825Y-120.015
X124.181Y-96.012
X124.181Y-97.536
X124.191Y-98.552
X124.396Y-100.52
X125.095Y-75.565
X125.095Y-80.645
X125.12Y-96.012
X125.73Y-85.725
X125.73Y-88.265
X125.73Y-90.805
X125.984Y-94.869
X126.365Y-112.395
X126.365Y-117.475
X126.492Y-93.472
X127.559Y-92.354
X127.635Y-78.105
X127.635Y-83.185
X128.27Y-88.265
X128.905Y-73.025
X128.905Y-100.33
X128.905Y-104.775
X128.905Y-109.855
X128.905Y-114.935
X128.905Y-117.475
X128.905Y-120.015
X129.603Y-88.837
X130.175Y-75.565
X130.175Y-80.645
X130.175Y-85.725
X130.175Y-95.758
X130.683Y-87.757
X131.318Y-90.678
X131.318Y-92.075
X131.318Y-93.472
X131.318Y-94.869
X132.461Y-88.011
X132.461Y-89.535
X132.594Y-112.528
X132.715Y-73.025
X132.715Y-78.105
X132.715Y-83.185
X133.35Y-92.075
X133.35Y-93.472
X133.985Y-95.25
X133.985Y-96.647
X134.366Y-112.522
X134.62Y-74.93
X134.62Y-100.33
X134.62Y-105.41
X134.62Y-110.49
X135.255Y-80.645
X135.255Y-85.598
X135.255Y-87.63
X135.255Y-91.694
X136.017Y-93.472
X136.017Y-94.996
X136.525Y-73.025
X136.525Y-76.835
X136.525Y-98.425
X137.16Y-92.837
X137.16Y-102.87
X137.16Y-107.95
X137.16Y-113.03
X138.43Y-96.52
X139.065Y-100.965
X139.7Y-105.41
X139.7Y-110.49
X139.7Y-115.57
X139.891Y-94.805
X140.335Y-73.025
X140.335Y-76.835
X140.335Y-80.01
X140.335Y-85.09
X140.335Y-87.63
X140.335Y-90.17
X140.97Y-93.98
X140.97Y-99.06
X140.97Y-120.015
X141.605Y-103.505
X142.24Y-74.93
X142.24Y-81.915
X142.24Y-107.95
X142.24Y-113.03
X143.51Y-86.36
X143.51Y-91.44
X143.51Y-96.52
X143.51Y-101.6
X143.51Y-117.475
X144.145Y-73.025
X144.145Y-80.01
X144.145Y-83.82
X144.145Y-106.045
X144.78Y-110.49
X146.05Y-74.93
X146.05Y-88.9
X146.05Y-93.98
X146.05Y-99.06
X146.05Y-104.14
X146.05Y-114.935
X146.05Y-120.015
X146.685Y-108.585
X147.955Y-73.025
X147.955Y-76.835
X147.955Y-83.82
X148.59Y-86.36
X148.59Y-91.44
X148.59Y-96.52
X148.59Y-101.6
X148.59Y-106.68
X148.59Y-112.395
X148.59Y-117.475
X149.793Y-106.867
X149.86Y-81.915
X150.905Y-105.82
X151.13Y-99.06
X151.13Y-104.14
X151.13Y-109.855
X151.13Y-114.935
X151.13Y-120.015
X151.257Y-108.331
X151.638Y-81.153
X151.765Y-73.025
X152.019Y-77.978
X152.019Y-79.756
X152.019Y-83.058
X152.4Y-89.662
X152.4Y-91.44
X152.4Y-93.98
X152.908Y-107.823
X153.67Y-74.93
X153.67Y-96.52
X153.67Y-101.6
X153.67Y-112.395
X153.67Y-117.475
X154.94Y-91.44
X154.94Y-93.98
X155.575Y-73.025
X156.21Y-106.68
X156.21Y-109.855
X156.21Y-114.935
X156.21Y-120.015
X157.48Y-74.93
X157.48Y-91.44
X158.115Y-86.995
X158.75Y-104.14
X158.75Y-112.395
X158.75Y-117.475
X159.258Y-75.438
X159.385Y-73.025
X160.02Y-91.44
X160.02Y-93.98
X160.02Y-96.52
X160.147Y-75.438
X160.147Y-76.581
X160.147Y-77.47
X160.147Y-79.248
X160.147Y-80.391
X160.147Y-81.413
X160.655Y-88.9
X161.29Y-74.93
X161.29Y-85.09
X161.29Y-101.6
X161.29Y-106.68
X161.29Y-109.855
X161.29Y-114.935
X161.29Y-120.015
X162.56Y-93.98
X163.195Y-73.025
X163.195Y-76.835
X163.195Y-80.645
X163.83Y-87.63
X163.83Y-90.17
X163.83Y-99.06
X163.83Y-104.14
X163.83Y-112.395
X163.83Y-117.475
X165.1Y-74.93
X166.37Y-87.63
X166.37Y-90.17
X166.37Y-92.71
X166.37Y-96.52
X166.37Y-101.6
X166.37Y-106.68
X166.37Y-109.855
X166.37Y-114.935
X166.37Y-120.015
X168.91Y-77.47
X168.91Y-80.01
X168.91Y-82.55
X168.91Y-85.09
X168.91Y-87.63
X168.91Y-90.17
X168.91Y-92.71
X168.91Y-99.06
X168.91Y-104.14
X168.91Y-112.395
X168.91Y-117.475
X171.45Y-109.855
X171.45Y-114.935
X171.45Y-120.015
X172.085Y-88.011
X172.085Y-92.71
X172.085Y-95.25
X172.085Y-97.79
X172.085Y-100.33
X172.085Y-102.87
X172.085Y-105.41
X172.085Y-107.95
X173.99Y-112.395
X175.26Y-77.47
X175.26Y-82.55
X175.26Y-87.63
X175.26Y-92.71
X175.26Y-96.52
X175.26Y-101.6
X175.26Y-106.68
T2
X118.008Y-86.131
X118.872Y-99.695
X132.334Y-118.999
X134.62Y-114.681
X168.91Y-73.025
T4
X165.354Y-78.772
X165.354Y-80.772
X165.354Y-82.772
T5
X123.19Y-76.2
X123.19Y-78.74
X123.19Y-81.28
X123.19Y-83.82
X123.19Y-86.36
X123.19Y-88.9
X123.19Y-91.44
X138.43Y-76.2
X138.43Y-78.74
X138.43Y-81.28
X138.43Y-83.82
X138.43Y-86.36
X138.43Y-88.9
X138.43Y-91.44
X151.13Y-92.71
X153.67Y-92.71
X156.21Y-92.71
X158.75Y-92.71
T3
G00X164.954Y-76.672
M15
G01X165.754Y-76.672
M16
G05
G00X164.954Y-84.872
M15
G01X165.754Y-84.872
M16
G05
M30
