%TF.GenerationSoftware,KiCad,Pcbnew,9.0.6*%
%TF.CreationDate,2026-01-30T18:10:03-05:00*%
%TF.ProjectId,destinationWeatherStation_v4-5,64657374-696e-4617-9469-6f6e57656174,03*%
%TF.SameCoordinates,Original*%
%TF.FileFunction,Soldermask,Top*%
%TF.FilePolarity,Negative*%
%FSLAX46Y46*%
G04 Gerber Fmt 4.6, Leading zero omitted, Abs format (unit mm)*
G04 Created by KiCad (PCBNEW 9.0.6) date 2026-01-30 18:10:03*
%MOMM*%
%LPD*%
G01*
G04 APERTURE LIST*
%ADD10R,1.000000X1.550000*%
%ADD11R,0.972000X0.802000*%
%ADD12C,2.540000*%
%ADD13R,0.929000X0.820000*%
%ADD14R,0.970000X0.871000*%
%ADD15R,1.500000X3.400000*%
%ADD16R,1.000000X3.500000*%
%ADD17R,1.000000X0.700000*%
%ADD18R,2.000000X0.800000*%
%ADD19R,1.400000X1.800000*%
%ADD20R,1.900000X1.400000*%
%ADD21R,0.820000X0.929000*%
%ADD22C,1.750000*%
%ADD23R,1.800000X1.200000*%
%ADD24R,1.550000X0.600000*%
%ADD25R,0.500000X0.350000*%
%ADD26O,2.100000X1.300000*%
%ADD27C,1.500000*%
G04 APERTURE END LIST*
D10*
%TO.C,SW5*%
X173685000Y-102785000D03*
X173685000Y-108035000D03*
X170485000Y-102785000D03*
X170485000Y-108035000D03*
%TD*%
%TO.C,SW3*%
X173685000Y-87545000D03*
X173685000Y-92795000D03*
X170485000Y-87545000D03*
X170485000Y-92795000D03*
%TD*%
%TO.C,SW2*%
X173685000Y-79925000D03*
X173685000Y-85175000D03*
X170485000Y-79925000D03*
X170485000Y-85175000D03*
%TD*%
D11*
%TO.C,Q2*%
X159000000Y-78420000D03*
X159000000Y-76520000D03*
X157230000Y-77470000D03*
%TD*%
D12*
%TO.C,H1*%
X116840000Y-74930000D03*
%TD*%
D13*
%TO.C,R12*%
X154939000Y-85485000D03*
X154939000Y-86995000D03*
X154939000Y-88505000D03*
%TD*%
D14*
%TO.C,C2*%
X130556000Y-117602000D03*
X130556000Y-119102000D03*
%TD*%
D15*
%TO.C,J1*%
X150670000Y-75520000D03*
X143970000Y-75520000D03*
D16*
X148320000Y-81270000D03*
X146320000Y-81270000D03*
%TD*%
D17*
%TO.C,Q4*%
X155405000Y-78420000D03*
X155405000Y-77470000D03*
X155405000Y-76520000D03*
X153205000Y-76520000D03*
X153205000Y-77470000D03*
X153205000Y-78420000D03*
%TD*%
D18*
%TO.C,J2*%
X119948000Y-108595000D03*
X120348000Y-107495000D03*
X119948000Y-106395000D03*
X119748000Y-105295000D03*
X119948000Y-104195000D03*
X119748000Y-103095000D03*
X119948000Y-101995000D03*
X119948000Y-100895000D03*
D19*
X130498000Y-101705000D03*
X130498000Y-107405000D03*
D20*
X117348000Y-100105000D03*
X116348000Y-113255000D03*
%TD*%
D10*
%TO.C,SW4*%
X173685000Y-95165000D03*
X173685000Y-100415000D03*
X170485000Y-95165000D03*
X170485000Y-100415000D03*
%TD*%
D21*
%TO.C,R10*%
X137910000Y-118364000D03*
X136400000Y-118364000D03*
%TD*%
D13*
%TO.C,R5*%
X127889000Y-96781000D03*
X127889000Y-98291000D03*
%TD*%
D14*
%TO.C,C4*%
X117602000Y-98286000D03*
X117602000Y-96786000D03*
%TD*%
D12*
%TO.C,H4*%
X172720000Y-118110000D03*
%TD*%
D13*
%TO.C,R3*%
X121343000Y-96781000D03*
X121343000Y-98291000D03*
%TD*%
D22*
%TO.C,U1*%
X123190000Y-76200000D03*
X123190000Y-78740000D03*
X123190000Y-81280000D03*
X123190000Y-83820000D03*
X123190000Y-86360000D03*
X123190000Y-88900000D03*
X123190000Y-91440000D03*
X138430000Y-91440000D03*
X138430000Y-88900000D03*
X138430000Y-86360000D03*
X138430000Y-83820000D03*
X138430000Y-81280000D03*
X138430000Y-78740000D03*
X138430000Y-76200000D03*
%TD*%
D23*
%TO.C,J3*%
X116235000Y-84830000D03*
X116235000Y-90430000D03*
D24*
X120110000Y-86130000D03*
X120110000Y-87130000D03*
X120110000Y-88130000D03*
X120110000Y-89130000D03*
%TD*%
D13*
%TO.C,R1*%
X131191000Y-96781000D03*
X131191000Y-98291000D03*
%TD*%
D25*
%TO.C,U2*%
X134375000Y-115865000D03*
X134375000Y-116515000D03*
X134375000Y-117165000D03*
X134375000Y-117815000D03*
X132325000Y-117815000D03*
X132325000Y-117165000D03*
X132325000Y-116515000D03*
X132325000Y-115865000D03*
%TD*%
D11*
%TO.C,Q1*%
X159000000Y-82230000D03*
X159000000Y-80330000D03*
X157230000Y-81280000D03*
%TD*%
D13*
%TO.C,R2*%
X119692000Y-96781000D03*
X119692000Y-98291000D03*
%TD*%
D22*
%TO.C,U3*%
X151130000Y-92710000D03*
X153670000Y-92710000D03*
X156210000Y-92710000D03*
X158750000Y-92710000D03*
%TD*%
D21*
%TO.C,R9*%
X137920000Y-116840000D03*
X136410000Y-116840000D03*
%TD*%
D13*
%TO.C,R6*%
X126238000Y-96781000D03*
X126238000Y-98291000D03*
%TD*%
D26*
%TO.C,SW1*%
X165354000Y-84872000D03*
X165354000Y-76672000D03*
D27*
X165354000Y-82772000D03*
X165354000Y-80772000D03*
X165354000Y-78772000D03*
%TD*%
D12*
%TO.C,H3*%
X116840000Y-118110000D03*
%TD*%
D13*
%TO.C,R7*%
X129540000Y-96781000D03*
X129540000Y-98291000D03*
%TD*%
%TO.C,R11*%
X152400000Y-85485000D03*
X152400000Y-86995000D03*
X152400000Y-88505000D03*
%TD*%
D21*
%TO.C,R8*%
X137920000Y-115316000D03*
X136410000Y-115316000D03*
%TD*%
D14*
%TO.C,C1*%
X130556000Y-114566000D03*
X130556000Y-116066000D03*
%TD*%
D13*
%TO.C,R4*%
X123063000Y-96781000D03*
X123063000Y-98291000D03*
%TD*%
D14*
%TO.C,C3*%
X115951000Y-98286000D03*
X115951000Y-96786000D03*
%TD*%
D17*
%TO.C,Q3*%
X155405000Y-82230000D03*
X155405000Y-81280000D03*
X155405000Y-80330000D03*
X153205000Y-80330000D03*
X153205000Y-81280000D03*
X153205000Y-82230000D03*
%TD*%
D12*
%TO.C,H2*%
X172720000Y-74930000D03*
%TD*%
M02*
