%TF.GenerationSoftware,KiCad,Pcbnew,9.0.6*%
%TF.CreationDate,2026-01-30T18:10:03-05:00*%
%TF.ProjectId,destinationWeatherStation_v4-5,64657374-696e-4617-9469-6f6e57656174,03*%
%TF.SameCoordinates,Original*%
%TF.FileFunction,Copper,L2,Bot*%
%TF.FilePolarity,Positive*%
%FSLAX46Y46*%
G04 Gerber Fmt 4.6, Leading zero omitted, Abs format (unit mm)*
G04 Created by KiCad (PCBNEW 9.0.6) date 2026-01-30 18:10:03*
%MOMM*%
%LPD*%
G01*
G04 APERTURE LIST*
%TA.AperFunction,ComponentPad*%
%ADD10C,1.750000*%
%TD*%
%TA.AperFunction,ComponentPad*%
%ADD11O,2.100000X1.300000*%
%TD*%
%TA.AperFunction,ComponentPad*%
%ADD12C,1.500000*%
%TD*%
%TA.AperFunction,ViaPad*%
%ADD13C,0.700000*%
%TD*%
%TA.AperFunction,ViaPad*%
%ADD14C,1.000000*%
%TD*%
%TA.AperFunction,ViaPad*%
%ADD15C,0.800000*%
%TD*%
%TA.AperFunction,Conductor*%
%ADD16C,0.250000*%
%TD*%
%TA.AperFunction,Conductor*%
%ADD17C,0.500000*%
%TD*%
%TA.AperFunction,Conductor*%
%ADD18C,0.200000*%
%TD*%
G04 APERTURE END LIST*
D10*
%TO.P,U1,1,D0*%
%TO.N,/SW2*%
X123190000Y-76200000D03*
%TO.P,U1,2,D1*%
%TO.N,/SW3*%
X123190000Y-78740000D03*
%TO.P,U1,3,D2*%
%TO.N,/CD*%
X123190000Y-81280000D03*
%TO.P,U1,4,D3*%
%TO.N,/CS_SD*%
X123190000Y-83820000D03*
%TO.P,U1,5,D4*%
%TO.N,/SDA*%
X123190000Y-86360000D03*
%TO.P,U1,6,D5*%
%TO.N,/SCL*%
X123190000Y-88900000D03*
%TO.P,U1,7,D6*%
%TO.N,/SW4*%
X123190000Y-91440000D03*
%TO.P,U1,8,D7*%
%TO.N,/SW5*%
X138430000Y-91440000D03*
%TO.P,U1,9,D8*%
%TO.N,/SCK*%
X138430000Y-88900000D03*
%TO.P,U1,10,D9*%
%TO.N,/MISO*%
X138430000Y-86360000D03*
%TO.P,U1,11,D10*%
%TO.N,/MOSI*%
X138430000Y-83820000D03*
%TO.P,U1,12,3V3*%
%TO.N,+3V3*%
X138430000Y-81280000D03*
%TO.P,U1,13,GND*%
%TO.N,GND*%
X138430000Y-78740000D03*
%TO.P,U1,14,VIN*%
%TO.N,VCC*%
X138430000Y-76200000D03*
%TD*%
%TO.P,U3,1,GND*%
%TO.N,/OLED1*%
X151130000Y-92710000D03*
%TO.P,U3,2,VCC*%
%TO.N,/OLED2*%
X153670000Y-92710000D03*
%TO.P,U3,3,SCL*%
%TO.N,/SCL*%
X156210000Y-92710000D03*
%TO.P,U3,4,SDA*%
%TO.N,/SDA*%
X158750000Y-92710000D03*
%TD*%
D11*
%TO.P,SW1,*%
%TO.N,*%
X165354000Y-84872000D03*
X165354000Y-76672000D03*
D12*
%TO.P,SW1,1,A*%
%TO.N,Net-(SW1-A)*%
X165354000Y-82772000D03*
%TO.P,SW1,2,B*%
%TO.N,Net-(J1-Pin_1)*%
X165354000Y-80772000D03*
%TO.P,SW1,3,C*%
%TO.N,unconnected-(SW1-C-Pad3)*%
X165354000Y-78772000D03*
%TD*%
D13*
%TO.N,+3V3*%
X132594000Y-112528000D03*
X134366000Y-112522000D03*
%TO.N,GND*%
X140335000Y-90170000D03*
X117475000Y-92710000D03*
X165100000Y-74930000D03*
X132715000Y-78105000D03*
X168910000Y-92710000D03*
X172085000Y-92710000D03*
X166370000Y-101600000D03*
X146050000Y-99060000D03*
X152400000Y-91440000D03*
X117602000Y-95504000D03*
X172085000Y-102870000D03*
X140970000Y-93980000D03*
X137160000Y-107950000D03*
X125730000Y-88265000D03*
X147955000Y-76835000D03*
X160655000Y-88900000D03*
X127635000Y-78105000D03*
X130175000Y-80645000D03*
X158750000Y-104140000D03*
X128905000Y-100330000D03*
X146050000Y-104140000D03*
X160147000Y-76581000D03*
X168910000Y-77470000D03*
X134620000Y-105410000D03*
X166370000Y-96520000D03*
X140335000Y-73025000D03*
X128905000Y-109855000D03*
X168910000Y-112395000D03*
X135255000Y-80645000D03*
X157480000Y-74930000D03*
X168910000Y-82550000D03*
X137160000Y-92837000D03*
X139065000Y-100965000D03*
X151130000Y-109855000D03*
X117914000Y-103034000D03*
X116332000Y-114681000D03*
X134620000Y-100330000D03*
X153670000Y-101600000D03*
X166370000Y-120015000D03*
X115951000Y-95504000D03*
X172085000Y-100330000D03*
X148590000Y-112395000D03*
X172085000Y-107950000D03*
X166370000Y-92710000D03*
X161290000Y-120015000D03*
X123825000Y-109855000D03*
X136525000Y-76835000D03*
X140335000Y-80010000D03*
X168910000Y-104140000D03*
X115570000Y-83185000D03*
X148590000Y-117475000D03*
X175260000Y-96520000D03*
X153670000Y-96520000D03*
X171450000Y-109855000D03*
X168910000Y-80010000D03*
X172085000Y-88011000D03*
X114300000Y-113030000D03*
X119380000Y-76200000D03*
X134620000Y-74930000D03*
X161290000Y-109855000D03*
X173990000Y-112395000D03*
D14*
X132334000Y-118999000D03*
D13*
X118110000Y-80645000D03*
X168910000Y-85090000D03*
X146050000Y-93980000D03*
X142240000Y-81915000D03*
X118110000Y-113030000D03*
X160147000Y-81413350D03*
X135255000Y-85598000D03*
X142240000Y-107950000D03*
X160147000Y-79248000D03*
X137160000Y-102870000D03*
X168910000Y-87630000D03*
X118745000Y-109855000D03*
X115570000Y-87630000D03*
X158115000Y-86995000D03*
X147955000Y-73025000D03*
X161290000Y-74930000D03*
X160020000Y-91440000D03*
X172085000Y-97790000D03*
X126365000Y-117475000D03*
X118745000Y-114935000D03*
X152019000Y-83058000D03*
X127635000Y-83185000D03*
X162560000Y-93980000D03*
X142240000Y-113030000D03*
X166370000Y-87630000D03*
X128905000Y-104775000D03*
X175260000Y-82550000D03*
X160147000Y-75438000D03*
X151130000Y-120015000D03*
X172085000Y-105410000D03*
X146050000Y-74930000D03*
D15*
X168910000Y-73025000D03*
D13*
X175260000Y-92710000D03*
X153670000Y-112395000D03*
X163830000Y-112395000D03*
X175260000Y-77470000D03*
X130175000Y-85725000D03*
X160147000Y-77470000D03*
X143510000Y-101600000D03*
X172085000Y-95250000D03*
X159385000Y-73025000D03*
X120015000Y-95250000D03*
X152400000Y-93980000D03*
X163195000Y-76835000D03*
X163195000Y-80645000D03*
X125095000Y-80645000D03*
X148590000Y-96520000D03*
X168910000Y-99060000D03*
X151765000Y-73025000D03*
X171450000Y-120015000D03*
X142240000Y-74930000D03*
X175260000Y-87630000D03*
X135255000Y-87630000D03*
X144145000Y-80010000D03*
X151638000Y-81153000D03*
X144145000Y-83820000D03*
X148590000Y-91440000D03*
X151130000Y-99060000D03*
X163830000Y-104140000D03*
X138430000Y-96520000D03*
X132715000Y-83185000D03*
X135255000Y-91694000D03*
X168910000Y-117475000D03*
X134620000Y-110490000D03*
X146685000Y-108585000D03*
X144145000Y-73025000D03*
X121285000Y-112395000D03*
X132715000Y-73025000D03*
X146050000Y-114935000D03*
X146050000Y-120015000D03*
X123825000Y-114935000D03*
X168910000Y-90170000D03*
X166370000Y-109855000D03*
X156210000Y-114935000D03*
X160147000Y-80391000D03*
X136525000Y-98425000D03*
X146050000Y-88900000D03*
X140335000Y-76835000D03*
X152400000Y-89662000D03*
X122174000Y-99568000D03*
X118745000Y-120015000D03*
X156210000Y-109855000D03*
X143510000Y-86360000D03*
X120015000Y-92710000D03*
X157480000Y-91440000D03*
X128905000Y-114935000D03*
X136525000Y-73025000D03*
X115570000Y-78740000D03*
X143510000Y-117475000D03*
X159258000Y-75438000D03*
X130175000Y-75565000D03*
X132461000Y-88011000D03*
X137160000Y-113030000D03*
X119380000Y-72390000D03*
X128905000Y-117475000D03*
X154940000Y-93980000D03*
X161290000Y-85090000D03*
X148590000Y-86360000D03*
X163830000Y-90170000D03*
X156210000Y-106680000D03*
X144780000Y-110490000D03*
X160020000Y-96520000D03*
X158750000Y-117475000D03*
X160020000Y-93980000D03*
X139700000Y-115570000D03*
X156210000Y-120015000D03*
X143510000Y-96520000D03*
X175260000Y-101600000D03*
X116205000Y-111125000D03*
X141605000Y-103505000D03*
X161290000Y-101600000D03*
X140970000Y-99060000D03*
X117221000Y-101473000D03*
X161290000Y-114935000D03*
X163830000Y-117475000D03*
D14*
X134620000Y-114681000D03*
D13*
X153670000Y-117475000D03*
X171450000Y-114935000D03*
X161290000Y-106680000D03*
X123825000Y-120015000D03*
X125730000Y-85725000D03*
X128905000Y-73025000D03*
X143510000Y-91440000D03*
X147955000Y-83820000D03*
D15*
X118872000Y-99695000D03*
D13*
X120650000Y-83185000D03*
X166370000Y-106680000D03*
X155575000Y-73025000D03*
X163830000Y-87630000D03*
D14*
X118008400Y-86131400D03*
D13*
X128905000Y-120015000D03*
X125730000Y-90805000D03*
X148590000Y-106680000D03*
X139700000Y-105410000D03*
X158750000Y-112395000D03*
X163830000Y-99060000D03*
X175260000Y-106680000D03*
X140335000Y-87630000D03*
X121285000Y-117475000D03*
X116205000Y-107315000D03*
X151130000Y-114935000D03*
X128270000Y-88265000D03*
X149860000Y-81915000D03*
X125095000Y-75565000D03*
X163195000Y-73025000D03*
X121412000Y-102870000D03*
X126365000Y-112395000D03*
X140970000Y-120015000D03*
X144145000Y-106045000D03*
X151130000Y-104140000D03*
X140335000Y-85090000D03*
X120015000Y-90170000D03*
X139700000Y-110490000D03*
X148590000Y-101600000D03*
X166370000Y-114935000D03*
X153670000Y-74930000D03*
X154940000Y-91440000D03*
X166370000Y-90170000D03*
%TO.N,VCC*%
X152019000Y-77978000D03*
X152019000Y-79756000D03*
%TO.N,/SDA*%
X123317000Y-94869000D03*
X130175000Y-95758000D03*
X125984000Y-94869000D03*
X133985000Y-96647000D03*
%TO.N,/SCL*%
X133985000Y-95250000D03*
X126492000Y-93472000D03*
X123571000Y-93472000D03*
X131318000Y-94869000D03*
%TO.N,/MISO*%
X124180600Y-97536000D03*
X124180600Y-96012000D03*
X129603500Y-88836500D03*
X130683000Y-87757000D03*
%TO.N,/SCK*%
X132461000Y-89535000D03*
X125120400Y-96012000D03*
X131318000Y-90678000D03*
X124191500Y-98552000D03*
%TO.N,/MOSI*%
X133350000Y-92075000D03*
X131318000Y-92075000D03*
%TO.N,/CS_SD*%
X122174000Y-95885000D03*
X124396500Y-100520500D03*
%TO.N,/SW4*%
X149793190Y-106867190D03*
X151257000Y-108331000D03*
X136017000Y-93472000D03*
X131318000Y-93472000D03*
X133350000Y-93472000D03*
X127558800Y-92354400D03*
X136017000Y-94996000D03*
%TO.N,/SW5*%
X139890500Y-94805500D03*
X152908000Y-107823000D03*
X150904617Y-105819617D03*
%TD*%
D16*
%TO.N,+3V3*%
X134360000Y-112528000D02*
X134366000Y-112522000D01*
X132594000Y-112528000D02*
X134360000Y-112528000D01*
D17*
%TO.N,VCC*%
X152019000Y-79756000D02*
X152019000Y-77978000D01*
D18*
%TO.N,/SDA*%
X123317000Y-94869000D02*
X125984000Y-94869000D01*
X131064000Y-96647000D02*
X133985000Y-96647000D01*
X130175000Y-95758000D02*
X131064000Y-96647000D01*
%TO.N,/SCL*%
X133985000Y-95250000D02*
X133629400Y-94894400D01*
X133629400Y-94894400D02*
X131318000Y-94894400D01*
X123571000Y-93472000D02*
X126492000Y-93472000D01*
%TO.N,/MISO*%
X124180600Y-96012000D02*
X124180600Y-97536000D01*
X129603500Y-88836500D02*
X130683000Y-87757000D01*
X124186000Y-96012000D02*
X124206000Y-96032000D01*
%TO.N,/SCK*%
X132461000Y-89535000D02*
X131318000Y-90678000D01*
X125120400Y-96012000D02*
X125120400Y-97623100D01*
X125120400Y-97623100D02*
X124191500Y-98552000D01*
%TO.N,/MOSI*%
X131318000Y-92075000D02*
X133350000Y-92075000D01*
%TO.N,/CS_SD*%
X122174000Y-98298000D02*
X122174000Y-95885000D01*
X124396500Y-100520500D02*
X122174000Y-98298000D01*
%TO.N,/SW4*%
X151257000Y-108331000D02*
X149793190Y-106867190D01*
X123317000Y-91567000D02*
X123190000Y-91440000D01*
X127558800Y-92354400D02*
X126771400Y-91567000D01*
X133350000Y-93472000D02*
X131318000Y-93472000D01*
X136017000Y-93472000D02*
X136017000Y-94996000D01*
X126771400Y-91567000D02*
X123317000Y-91567000D01*
%TO.N,/SW5*%
X138430000Y-93345000D02*
X138430000Y-91440000D01*
X152908000Y-107823000D02*
X150904617Y-105819617D01*
X139890500Y-94805500D02*
X138430000Y-93345000D01*
%TD*%
%TA.AperFunction,Conductor*%
%TO.N,/SCK*%
G36*
X131749892Y-90119944D02*
G01*
X131876055Y-90246107D01*
X131879482Y-90254380D01*
X131876696Y-90261958D01*
X131787045Y-90367417D01*
X131787042Y-90367421D01*
X131738975Y-90462208D01*
X131714995Y-90555967D01*
X131690754Y-90665968D01*
X131690409Y-90667205D01*
X131645359Y-90800133D01*
X131639458Y-90806869D01*
X131630523Y-90807459D01*
X131629829Y-90807199D01*
X131321808Y-90680563D01*
X131315460Y-90674249D01*
X131188800Y-90366168D01*
X131188823Y-90357216D01*
X131195172Y-90350901D01*
X131195855Y-90350644D01*
X131328801Y-90305586D01*
X131330026Y-90305244D01*
X131440022Y-90281004D01*
X131533789Y-90257023D01*
X131628578Y-90208955D01*
X131734043Y-90119302D01*
X131742564Y-90116555D01*
X131749892Y-90119944D01*
G37*
%TD.AperFunction*%
%TD*%
%TA.AperFunction,Conductor*%
%TO.N,/SW5*%
G36*
X139474456Y-94246802D02*
G01*
X139579920Y-94336455D01*
X139674709Y-94384523D01*
X139741418Y-94401584D01*
X139768467Y-94408502D01*
X139768475Y-94408503D01*
X139768476Y-94408504D01*
X139878467Y-94432743D01*
X139879703Y-94433088D01*
X140012634Y-94478141D01*
X140019369Y-94484042D01*
X140019959Y-94492978D01*
X140019699Y-94493671D01*
X139893063Y-94801691D01*
X139886748Y-94808040D01*
X139886691Y-94808063D01*
X139578671Y-94934699D01*
X139569716Y-94934676D01*
X139563401Y-94928327D01*
X139563141Y-94927634D01*
X139518088Y-94794703D01*
X139517743Y-94793465D01*
X139493502Y-94683467D01*
X139486584Y-94656418D01*
X139469523Y-94589709D01*
X139421455Y-94494920D01*
X139331802Y-94389456D01*
X139329055Y-94380935D01*
X139332443Y-94373608D01*
X139458608Y-94247443D01*
X139466880Y-94244017D01*
X139474456Y-94246802D01*
G37*
%TD.AperFunction*%
%TD*%
%TA.AperFunction,Conductor*%
%TO.N,/SDA*%
G36*
X130495784Y-95628823D02*
G01*
X130502099Y-95635172D01*
X130502359Y-95635866D01*
X130547410Y-95768793D01*
X130547755Y-95770030D01*
X130571995Y-95880030D01*
X130595975Y-95973789D01*
X130644043Y-96068578D01*
X130696781Y-96130617D01*
X130733696Y-96174041D01*
X130736444Y-96182564D01*
X130733055Y-96189892D01*
X130606892Y-96316055D01*
X130598619Y-96319482D01*
X130591041Y-96316696D01*
X130485580Y-96227045D01*
X130485578Y-96227043D01*
X130390789Y-96178975D01*
X130297030Y-96154995D01*
X130187030Y-96130755D01*
X130185793Y-96130410D01*
X130052866Y-96085359D01*
X130046130Y-96079458D01*
X130045540Y-96070523D01*
X130045790Y-96069853D01*
X130172437Y-95761806D01*
X130178748Y-95755461D01*
X130486831Y-95628800D01*
X130495784Y-95628823D01*
G37*
%TD.AperFunction*%
%TD*%
%TA.AperFunction,Conductor*%
%TO.N,/SCL*%
G36*
X133444893Y-94795398D02*
G01*
X133569721Y-94805296D01*
X133571847Y-94805665D01*
X133666818Y-94831424D01*
X133667894Y-94831773D01*
X133749928Y-94862827D01*
X133749932Y-94862828D01*
X133846489Y-94889017D01*
X133963955Y-94898331D01*
X133974255Y-94899148D01*
X133982231Y-94903218D01*
X133985030Y-94910778D01*
X133985977Y-95242149D01*
X133982574Y-95250431D01*
X133978743Y-95252996D01*
X133673675Y-95378970D01*
X133664720Y-95378961D01*
X133658395Y-95372622D01*
X133657981Y-95371446D01*
X133626468Y-95263908D01*
X133626158Y-95262549D01*
X133608639Y-95156612D01*
X133585754Y-95071378D01*
X133534634Y-95014865D01*
X133534633Y-95014864D01*
X133441700Y-94996280D01*
X133434259Y-94991297D01*
X133432294Y-94984807D01*
X133432294Y-94807063D01*
X133435721Y-94798790D01*
X133443994Y-94795363D01*
X133444893Y-94795398D01*
G37*
%TD.AperFunction*%
%TD*%
%TA.AperFunction,Conductor*%
%TO.N,/SCK*%
G36*
X125124878Y-96012868D02*
G01*
X125432254Y-96141138D01*
X125438569Y-96147487D01*
X125438546Y-96156442D01*
X125438239Y-96157116D01*
X125376101Y-96282966D01*
X125375470Y-96284085D01*
X125314826Y-96379013D01*
X125265488Y-96462256D01*
X125265486Y-96462263D01*
X125232451Y-96563272D01*
X125221271Y-96701245D01*
X125217187Y-96709214D01*
X125209609Y-96712000D01*
X125031190Y-96712000D01*
X125022917Y-96708573D01*
X125019528Y-96701245D01*
X125008348Y-96563277D01*
X125008347Y-96563274D01*
X125008347Y-96563272D01*
X124992070Y-96513506D01*
X124975311Y-96462261D01*
X124975309Y-96462259D01*
X124975309Y-96462256D01*
X124925971Y-96379013D01*
X124925964Y-96379001D01*
X124865323Y-96284076D01*
X124864701Y-96282974D01*
X124802559Y-96157114D01*
X124801970Y-96148180D01*
X124807871Y-96141445D01*
X124808525Y-96141146D01*
X125115894Y-96012879D01*
X125124849Y-96012857D01*
X125124878Y-96012868D01*
G37*
%TD.AperFunction*%
%TD*%
%TA.AperFunction,Conductor*%
%TO.N,/MOSI*%
G36*
X133220554Y-91762471D02*
G01*
X133220861Y-91763145D01*
X133349119Y-92070494D01*
X133349142Y-92079449D01*
X133349119Y-92079506D01*
X133220861Y-92386854D01*
X133214512Y-92393169D01*
X133205557Y-92393146D01*
X133204883Y-92392839D01*
X133079032Y-92330701D01*
X133077913Y-92330070D01*
X132982985Y-92269426D01*
X132899742Y-92220088D01*
X132899735Y-92220086D01*
X132798725Y-92187051D01*
X132798727Y-92187051D01*
X132660755Y-92175871D01*
X132652786Y-92171787D01*
X132650000Y-92164209D01*
X132650000Y-91985790D01*
X132653427Y-91977517D01*
X132660753Y-91974128D01*
X132798722Y-91962948D01*
X132798724Y-91962947D01*
X132798726Y-91962947D01*
X132822870Y-91955050D01*
X132899738Y-91929911D01*
X132899740Y-91929909D01*
X132899742Y-91929909D01*
X132928433Y-91912903D01*
X132982998Y-91880564D01*
X133077929Y-91819918D01*
X133079016Y-91819305D01*
X133204885Y-91757159D01*
X133213819Y-91756570D01*
X133220554Y-91762471D01*
G37*
%TD.AperFunction*%
%TD*%
%TA.AperFunction,Conductor*%
%TO.N,/SCK*%
G36*
X132149146Y-89405790D02*
G01*
X132457191Y-89532436D01*
X132463540Y-89538751D01*
X132463563Y-89538808D01*
X132590199Y-89846829D01*
X132590176Y-89855784D01*
X132583827Y-89862099D01*
X132583133Y-89862359D01*
X132450205Y-89907409D01*
X132448968Y-89907754D01*
X132338967Y-89931995D01*
X132245208Y-89955975D01*
X132150421Y-90004042D01*
X132150417Y-90004045D01*
X132044958Y-90093696D01*
X132036435Y-90096444D01*
X132029107Y-90093055D01*
X131902944Y-89966892D01*
X131899517Y-89958619D01*
X131902302Y-89951043D01*
X131991955Y-89845578D01*
X132040023Y-89750789D01*
X132064004Y-89657022D01*
X132088244Y-89547026D01*
X132088588Y-89545795D01*
X132090976Y-89538751D01*
X132133641Y-89412864D01*
X132139542Y-89406130D01*
X132148478Y-89405540D01*
X132149146Y-89405790D01*
G37*
%TD.AperFunction*%
%TD*%
%TA.AperFunction,Conductor*%
%TO.N,/MISO*%
G36*
X130371146Y-87627790D02*
G01*
X130679191Y-87754436D01*
X130685540Y-87760751D01*
X130685563Y-87760808D01*
X130812199Y-88068829D01*
X130812176Y-88077784D01*
X130805827Y-88084099D01*
X130805133Y-88084359D01*
X130672205Y-88129409D01*
X130670968Y-88129754D01*
X130560967Y-88153995D01*
X130467208Y-88177975D01*
X130372421Y-88226042D01*
X130372417Y-88226045D01*
X130266958Y-88315696D01*
X130258435Y-88318444D01*
X130251107Y-88315055D01*
X130124944Y-88188892D01*
X130121517Y-88180619D01*
X130124302Y-88173043D01*
X130213955Y-88067578D01*
X130262023Y-87972789D01*
X130286004Y-87879022D01*
X130310244Y-87769026D01*
X130310588Y-87767795D01*
X130312976Y-87760751D01*
X130355641Y-87634864D01*
X130361542Y-87628130D01*
X130370478Y-87627540D01*
X130371146Y-87627790D01*
G37*
%TD.AperFunction*%
%TD*%
%TA.AperFunction,Conductor*%
%TO.N,/SDA*%
G36*
X123461442Y-94550853D02*
G01*
X123462102Y-94551153D01*
X123587974Y-94613301D01*
X123589076Y-94613923D01*
X123684001Y-94674564D01*
X123684013Y-94674571D01*
X123767256Y-94723909D01*
X123767259Y-94723909D01*
X123767261Y-94723911D01*
X123835922Y-94746366D01*
X123868273Y-94756947D01*
X123868274Y-94756947D01*
X123868277Y-94756948D01*
X124006246Y-94768128D01*
X124014214Y-94772212D01*
X124017000Y-94779790D01*
X124017000Y-94958209D01*
X124013573Y-94966482D01*
X124006245Y-94969871D01*
X123868272Y-94981051D01*
X123767263Y-95014086D01*
X123767256Y-95014088D01*
X123684013Y-95063426D01*
X123589085Y-95124070D01*
X123587966Y-95124701D01*
X123462116Y-95186839D01*
X123453181Y-95187429D01*
X123446445Y-95181528D01*
X123446138Y-95180854D01*
X123376546Y-95014088D01*
X123317879Y-94873505D01*
X123317857Y-94864551D01*
X123317880Y-94864494D01*
X123446139Y-94557143D01*
X123452487Y-94550830D01*
X123461442Y-94550853D01*
G37*
%TD.AperFunction*%
%TD*%
%TA.AperFunction,Conductor*%
%TO.N,/SW4*%
G36*
X136114483Y-94299427D02*
G01*
X136117871Y-94306753D01*
X136124749Y-94391640D01*
X136129051Y-94444726D01*
X136162086Y-94545735D01*
X136162088Y-94545742D01*
X136211426Y-94628985D01*
X136272070Y-94723913D01*
X136272701Y-94725032D01*
X136334839Y-94850883D01*
X136335429Y-94859819D01*
X136329528Y-94866554D01*
X136328854Y-94866861D01*
X136021506Y-94995119D01*
X136012551Y-94995142D01*
X136012494Y-94995119D01*
X135705145Y-94866861D01*
X135698830Y-94860512D01*
X135698853Y-94851557D01*
X135699148Y-94850908D01*
X135761305Y-94725016D01*
X135761918Y-94723929D01*
X135822564Y-94628998D01*
X135871911Y-94545738D01*
X135904948Y-94444722D01*
X135916128Y-94306753D01*
X135920212Y-94298786D01*
X135927790Y-94296000D01*
X136106210Y-94296000D01*
X136114483Y-94299427D01*
G37*
%TD.AperFunction*%
%TD*%
%TA.AperFunction,Conductor*%
%TO.N,/SDA*%
G36*
X133855554Y-96334471D02*
G01*
X133855861Y-96335145D01*
X133984119Y-96642494D01*
X133984142Y-96651449D01*
X133984119Y-96651506D01*
X133855861Y-96958854D01*
X133849512Y-96965169D01*
X133840557Y-96965146D01*
X133839883Y-96964839D01*
X133714032Y-96902701D01*
X133712913Y-96902070D01*
X133617985Y-96841426D01*
X133534742Y-96792088D01*
X133534735Y-96792086D01*
X133433725Y-96759051D01*
X133433727Y-96759051D01*
X133295755Y-96747871D01*
X133287786Y-96743787D01*
X133285000Y-96736209D01*
X133285000Y-96557790D01*
X133288427Y-96549517D01*
X133295753Y-96546128D01*
X133433722Y-96534948D01*
X133433724Y-96534947D01*
X133433726Y-96534947D01*
X133457870Y-96527050D01*
X133534738Y-96501911D01*
X133534740Y-96501909D01*
X133534742Y-96501909D01*
X133563433Y-96484903D01*
X133617998Y-96452564D01*
X133712929Y-96391918D01*
X133714016Y-96391305D01*
X133839885Y-96329159D01*
X133848819Y-96328570D01*
X133855554Y-96334471D01*
G37*
%TD.AperFunction*%
%TD*%
%TA.AperFunction,Conductor*%
%TO.N,/SCL*%
G36*
X131462359Y-94551052D02*
G01*
X131463211Y-94551449D01*
X131588929Y-94616213D01*
X131590374Y-94617097D01*
X131683509Y-94683931D01*
X131764560Y-94740655D01*
X131863990Y-94779801D01*
X132002389Y-94793365D01*
X132010289Y-94797582D01*
X132012948Y-94805009D01*
X132012948Y-94983447D01*
X132009521Y-94991720D01*
X132002019Y-94995122D01*
X131866762Y-95004059D01*
X131766118Y-95031297D01*
X131766117Y-95031297D01*
X131766115Y-95031298D01*
X131682477Y-95073494D01*
X131682437Y-95073516D01*
X131587652Y-95127832D01*
X131586856Y-95128249D01*
X131463029Y-95187088D01*
X131454086Y-95187543D01*
X131447440Y-95181541D01*
X131447210Y-95181026D01*
X131425012Y-95127832D01*
X131318879Y-94873505D01*
X131318857Y-94864551D01*
X131318880Y-94864494D01*
X131447056Y-94557342D01*
X131453404Y-94551029D01*
X131462359Y-94551052D01*
G37*
%TD.AperFunction*%
%TD*%
%TA.AperFunction,Conductor*%
%TO.N,/MISO*%
G36*
X124278083Y-96839427D02*
G01*
X124281471Y-96846753D01*
X124288349Y-96931640D01*
X124292651Y-96984726D01*
X124325686Y-97085735D01*
X124325688Y-97085742D01*
X124375026Y-97168985D01*
X124435670Y-97263913D01*
X124436301Y-97265032D01*
X124498439Y-97390883D01*
X124499029Y-97399819D01*
X124493128Y-97406554D01*
X124492454Y-97406861D01*
X124185106Y-97535119D01*
X124176151Y-97535142D01*
X124176094Y-97535119D01*
X123868745Y-97406861D01*
X123862430Y-97400512D01*
X123862453Y-97391557D01*
X123862748Y-97390908D01*
X123924905Y-97265016D01*
X123925518Y-97263929D01*
X123986164Y-97168998D01*
X124035511Y-97085738D01*
X124068548Y-96984722D01*
X124079728Y-96846753D01*
X124083812Y-96838786D01*
X124091390Y-96836000D01*
X124269810Y-96836000D01*
X124278083Y-96839427D01*
G37*
%TD.AperFunction*%
%TD*%
%TA.AperFunction,Conductor*%
%TO.N,/SCK*%
G36*
X124623392Y-97993944D02*
G01*
X124749555Y-98120107D01*
X124752982Y-98128380D01*
X124750196Y-98135958D01*
X124660545Y-98241417D01*
X124660542Y-98241421D01*
X124612475Y-98336208D01*
X124588495Y-98429967D01*
X124564254Y-98539968D01*
X124563909Y-98541205D01*
X124518859Y-98674133D01*
X124512958Y-98680869D01*
X124504023Y-98681459D01*
X124503329Y-98681199D01*
X124195308Y-98554563D01*
X124188960Y-98548249D01*
X124062300Y-98240168D01*
X124062323Y-98231216D01*
X124068672Y-98224901D01*
X124069355Y-98224644D01*
X124202301Y-98179586D01*
X124203526Y-98179244D01*
X124313522Y-98155004D01*
X124407289Y-98131023D01*
X124502078Y-98082955D01*
X124607543Y-97993302D01*
X124616064Y-97990555D01*
X124623392Y-97993944D01*
G37*
%TD.AperFunction*%
%TD*%
%TA.AperFunction,Conductor*%
%TO.N,/SW4*%
G36*
X131462442Y-93153853D02*
G01*
X131463102Y-93154153D01*
X131588974Y-93216301D01*
X131590076Y-93216923D01*
X131685001Y-93277564D01*
X131685013Y-93277571D01*
X131768256Y-93326909D01*
X131768259Y-93326909D01*
X131768261Y-93326911D01*
X131836922Y-93349366D01*
X131869273Y-93359947D01*
X131869274Y-93359947D01*
X131869277Y-93359948D01*
X132007246Y-93371128D01*
X132015214Y-93375212D01*
X132018000Y-93382790D01*
X132018000Y-93561209D01*
X132014573Y-93569482D01*
X132007245Y-93572871D01*
X131869272Y-93584051D01*
X131768263Y-93617086D01*
X131768256Y-93617088D01*
X131685013Y-93666426D01*
X131590085Y-93727070D01*
X131588966Y-93727701D01*
X131463116Y-93789839D01*
X131454181Y-93790429D01*
X131447445Y-93784528D01*
X131447138Y-93783854D01*
X131377546Y-93617088D01*
X131318879Y-93476505D01*
X131318857Y-93467551D01*
X131318880Y-93467494D01*
X131447139Y-93160143D01*
X131453487Y-93153830D01*
X131462442Y-93153853D01*
G37*
%TD.AperFunction*%
%TD*%
%TA.AperFunction,Conductor*%
%TO.N,/SW4*%
G36*
X150840956Y-107772302D02*
G01*
X150946420Y-107861955D01*
X151041209Y-107910023D01*
X151107918Y-107927084D01*
X151134967Y-107934002D01*
X151134975Y-107934003D01*
X151134976Y-107934004D01*
X151244967Y-107958243D01*
X151246203Y-107958588D01*
X151379134Y-108003641D01*
X151385869Y-108009542D01*
X151386459Y-108018478D01*
X151386199Y-108019171D01*
X151259563Y-108327191D01*
X151253248Y-108333540D01*
X151253191Y-108333563D01*
X150945171Y-108460199D01*
X150936216Y-108460176D01*
X150929901Y-108453827D01*
X150929641Y-108453134D01*
X150884588Y-108320203D01*
X150884243Y-108318965D01*
X150860002Y-108208967D01*
X150853084Y-108181918D01*
X150836023Y-108115209D01*
X150787955Y-108020420D01*
X150698302Y-107914956D01*
X150695555Y-107906435D01*
X150698943Y-107899108D01*
X150825108Y-107772943D01*
X150833380Y-107769517D01*
X150840956Y-107772302D01*
G37*
%TD.AperFunction*%
%TD*%
%TA.AperFunction,Conductor*%
%TO.N,/SW5*%
G36*
X152491956Y-107264302D02*
G01*
X152597420Y-107353955D01*
X152692209Y-107402023D01*
X152758918Y-107419084D01*
X152785967Y-107426002D01*
X152785975Y-107426003D01*
X152785976Y-107426004D01*
X152895967Y-107450243D01*
X152897203Y-107450588D01*
X153030134Y-107495641D01*
X153036869Y-107501542D01*
X153037459Y-107510478D01*
X153037199Y-107511171D01*
X152910563Y-107819191D01*
X152904248Y-107825540D01*
X152904191Y-107825563D01*
X152596171Y-107952199D01*
X152587216Y-107952176D01*
X152580901Y-107945827D01*
X152580641Y-107945134D01*
X152535588Y-107812203D01*
X152535243Y-107810965D01*
X152511002Y-107700967D01*
X152504084Y-107673918D01*
X152487023Y-107607209D01*
X152438955Y-107512420D01*
X152349302Y-107406956D01*
X152346555Y-107398435D01*
X152349943Y-107391108D01*
X152476108Y-107264943D01*
X152484380Y-107261517D01*
X152491956Y-107264302D01*
G37*
%TD.AperFunction*%
%TD*%
%TA.AperFunction,Conductor*%
%TO.N,/SCL*%
G36*
X123715442Y-93153853D02*
G01*
X123716102Y-93154153D01*
X123841974Y-93216301D01*
X123843076Y-93216923D01*
X123938001Y-93277564D01*
X123938013Y-93277571D01*
X124021256Y-93326909D01*
X124021259Y-93326909D01*
X124021261Y-93326911D01*
X124089922Y-93349366D01*
X124122273Y-93359947D01*
X124122274Y-93359947D01*
X124122277Y-93359948D01*
X124260246Y-93371128D01*
X124268214Y-93375212D01*
X124271000Y-93382790D01*
X124271000Y-93561209D01*
X124267573Y-93569482D01*
X124260245Y-93572871D01*
X124122272Y-93584051D01*
X124021263Y-93617086D01*
X124021256Y-93617088D01*
X123938013Y-93666426D01*
X123843085Y-93727070D01*
X123841966Y-93727701D01*
X123716116Y-93789839D01*
X123707181Y-93790429D01*
X123700445Y-93784528D01*
X123700138Y-93783854D01*
X123630546Y-93617088D01*
X123571879Y-93476505D01*
X123571857Y-93467551D01*
X123571880Y-93467494D01*
X123700139Y-93160143D01*
X123706487Y-93153830D01*
X123715442Y-93153853D01*
G37*
%TD.AperFunction*%
%TD*%
%TA.AperFunction,Conductor*%
%TO.N,/SW4*%
G36*
X150113974Y-106738013D02*
G01*
X150120289Y-106744362D01*
X150120549Y-106745056D01*
X150165600Y-106877983D01*
X150165945Y-106879220D01*
X150190185Y-106989220D01*
X150214165Y-107082979D01*
X150262233Y-107177768D01*
X150314971Y-107239807D01*
X150351886Y-107283231D01*
X150354634Y-107291754D01*
X150351245Y-107299082D01*
X150225082Y-107425245D01*
X150216809Y-107428672D01*
X150209231Y-107425886D01*
X150103770Y-107336235D01*
X150103768Y-107336233D01*
X150008979Y-107288165D01*
X149915220Y-107264185D01*
X149805220Y-107239945D01*
X149803983Y-107239600D01*
X149671056Y-107194549D01*
X149664320Y-107188648D01*
X149663730Y-107179713D01*
X149663980Y-107179043D01*
X149790627Y-106870996D01*
X149796938Y-106864651D01*
X150105021Y-106737990D01*
X150113974Y-106738013D01*
G37*
%TD.AperFunction*%
%TD*%
%TA.AperFunction,Conductor*%
%TO.N,/SW4*%
G36*
X127142756Y-91795702D02*
G01*
X127248220Y-91885355D01*
X127343009Y-91933423D01*
X127409718Y-91950484D01*
X127436767Y-91957402D01*
X127436775Y-91957403D01*
X127436776Y-91957404D01*
X127546767Y-91981643D01*
X127548003Y-91981988D01*
X127680934Y-92027041D01*
X127687669Y-92032942D01*
X127688259Y-92041878D01*
X127687999Y-92042571D01*
X127561363Y-92350591D01*
X127555048Y-92356940D01*
X127554991Y-92356963D01*
X127246971Y-92483599D01*
X127238016Y-92483576D01*
X127231701Y-92477227D01*
X127231441Y-92476534D01*
X127186388Y-92343603D01*
X127186043Y-92342365D01*
X127161802Y-92232367D01*
X127154884Y-92205318D01*
X127137823Y-92138609D01*
X127089755Y-92043820D01*
X127000102Y-91938356D01*
X126997355Y-91929835D01*
X127000743Y-91922508D01*
X127126908Y-91796343D01*
X127135180Y-91792917D01*
X127142756Y-91795702D01*
G37*
%TD.AperFunction*%
%TD*%
%TA.AperFunction,Conductor*%
%TO.N,/SDA*%
G36*
X125854554Y-94556471D02*
G01*
X125854861Y-94557145D01*
X125983119Y-94864494D01*
X125983142Y-94873449D01*
X125983119Y-94873506D01*
X125854861Y-95180854D01*
X125848512Y-95187169D01*
X125839557Y-95187146D01*
X125838883Y-95186839D01*
X125713032Y-95124701D01*
X125711913Y-95124070D01*
X125616985Y-95063426D01*
X125533742Y-95014088D01*
X125533735Y-95014086D01*
X125432725Y-94981051D01*
X125432727Y-94981051D01*
X125294755Y-94969871D01*
X125286786Y-94965787D01*
X125284000Y-94958209D01*
X125284000Y-94779790D01*
X125287427Y-94771517D01*
X125294753Y-94768128D01*
X125432722Y-94756948D01*
X125533737Y-94723911D01*
X125616998Y-94674564D01*
X125711929Y-94613918D01*
X125713016Y-94613305D01*
X125838885Y-94551159D01*
X125847819Y-94550570D01*
X125854554Y-94556471D01*
G37*
%TD.AperFunction*%
%TD*%
%TA.AperFunction,Conductor*%
%TO.N,/MISO*%
G36*
X124185078Y-96012868D02*
G01*
X124492454Y-96141138D01*
X124498769Y-96147487D01*
X124498746Y-96156442D01*
X124498439Y-96157116D01*
X124436301Y-96282966D01*
X124435670Y-96284085D01*
X124375026Y-96379013D01*
X124325688Y-96462256D01*
X124325686Y-96462263D01*
X124292651Y-96563272D01*
X124281471Y-96701245D01*
X124277387Y-96709214D01*
X124269809Y-96712000D01*
X124091390Y-96712000D01*
X124083117Y-96708573D01*
X124079728Y-96701245D01*
X124068548Y-96563277D01*
X124068547Y-96563274D01*
X124068547Y-96563272D01*
X124052270Y-96513506D01*
X124035511Y-96462261D01*
X124035509Y-96462259D01*
X124035509Y-96462256D01*
X123986171Y-96379013D01*
X123986164Y-96379001D01*
X123925523Y-96284076D01*
X123924901Y-96282974D01*
X123862759Y-96157114D01*
X123862170Y-96148180D01*
X123868071Y-96141445D01*
X123868725Y-96141146D01*
X124176094Y-96012879D01*
X124185049Y-96012857D01*
X124185078Y-96012868D01*
G37*
%TD.AperFunction*%
%TD*%
%TA.AperFunction,Conductor*%
%TO.N,+3V3*%
G36*
X134236558Y-112209460D02*
G01*
X134236805Y-112210010D01*
X134365119Y-112517494D01*
X134365142Y-112526449D01*
X134365119Y-112526506D01*
X134236768Y-112834077D01*
X134230419Y-112840392D01*
X134221464Y-112840369D01*
X134220996Y-112840161D01*
X134096455Y-112781671D01*
X134095761Y-112781316D01*
X134000086Y-112728329D01*
X134000078Y-112728325D01*
X133915532Y-112687826D01*
X133814049Y-112662044D01*
X133678174Y-112653676D01*
X133670127Y-112649747D01*
X133667193Y-112641998D01*
X133667193Y-112413917D01*
X133670620Y-112405644D01*
X133678083Y-112402245D01*
X133814634Y-112392780D01*
X133915860Y-112364168D01*
X133999853Y-112320229D01*
X134095175Y-112264276D01*
X134096032Y-112263820D01*
X134220951Y-112203964D01*
X134229893Y-112203480D01*
X134236558Y-112209460D01*
G37*
%TD.AperFunction*%
%TD*%
%TA.AperFunction,Conductor*%
%TO.N,GND*%
G36*
X172720284Y-71520513D02*
G01*
X173053637Y-71536890D01*
X173054723Y-71536997D01*
X173384610Y-71585931D01*
X173385714Y-71586151D01*
X173709176Y-71667174D01*
X173710248Y-71667498D01*
X174024231Y-71779844D01*
X174025269Y-71780274D01*
X174326717Y-71922848D01*
X174327712Y-71923380D01*
X174371368Y-71949546D01*
X174613736Y-72094815D01*
X174614661Y-72095433D01*
X174797142Y-72230771D01*
X174882512Y-72294086D01*
X174883384Y-72294802D01*
X175130462Y-72518739D01*
X175131260Y-72519537D01*
X175355197Y-72766615D01*
X175355913Y-72767487D01*
X175554561Y-73035331D01*
X175555188Y-73036270D01*
X175726619Y-73322287D01*
X175727151Y-73323282D01*
X175869725Y-73624730D01*
X175870157Y-73625773D01*
X175982499Y-73939747D01*
X175982826Y-73940827D01*
X176063847Y-74264284D01*
X176064068Y-74265391D01*
X176113000Y-74595258D01*
X176113110Y-74596381D01*
X176129486Y-74929715D01*
X176129500Y-74930279D01*
X176129500Y-118109720D01*
X176129486Y-118110284D01*
X176113110Y-118443618D01*
X176113000Y-118444741D01*
X176064068Y-118774608D01*
X176063847Y-118775715D01*
X175982826Y-119099172D01*
X175982499Y-119100252D01*
X175870157Y-119414226D01*
X175869725Y-119415269D01*
X175727151Y-119716717D01*
X175726619Y-119717712D01*
X175555188Y-120003729D01*
X175554561Y-120004668D01*
X175355913Y-120272512D01*
X175355197Y-120273384D01*
X175131260Y-120520462D01*
X175130462Y-120521260D01*
X174883384Y-120745197D01*
X174882512Y-120745913D01*
X174614668Y-120944561D01*
X174613729Y-120945188D01*
X174327712Y-121116619D01*
X174326717Y-121117151D01*
X174025269Y-121259725D01*
X174024226Y-121260157D01*
X173710252Y-121372499D01*
X173709172Y-121372826D01*
X173385715Y-121453847D01*
X173384608Y-121454068D01*
X173054741Y-121503000D01*
X173053618Y-121503110D01*
X172720285Y-121519486D01*
X172719721Y-121519500D01*
X116840279Y-121519500D01*
X116839715Y-121519486D01*
X116506381Y-121503110D01*
X116505258Y-121503000D01*
X116175391Y-121454068D01*
X116174284Y-121453847D01*
X115850827Y-121372826D01*
X115849747Y-121372499D01*
X115535773Y-121260157D01*
X115534730Y-121259725D01*
X115233282Y-121117151D01*
X115232287Y-121116619D01*
X114946270Y-120945188D01*
X114945331Y-120944561D01*
X114677487Y-120745913D01*
X114676615Y-120745197D01*
X114429537Y-120521260D01*
X114428739Y-120520462D01*
X114204802Y-120273384D01*
X114204086Y-120272512D01*
X114005438Y-120004668D01*
X114004815Y-120003736D01*
X113871013Y-119780499D01*
X113833380Y-119717712D01*
X113832848Y-119716717D01*
X113690274Y-119415269D01*
X113689842Y-119414226D01*
X113618130Y-119213806D01*
X113577498Y-119100248D01*
X113577173Y-119099172D01*
X113514866Y-118850428D01*
X113496151Y-118775714D01*
X113495931Y-118774608D01*
X113477167Y-118648111D01*
X113446997Y-118444723D01*
X113446890Y-118443637D01*
X113430514Y-118110284D01*
X113430500Y-118109720D01*
X113430500Y-118000510D01*
X115169500Y-118000510D01*
X115169500Y-118219490D01*
X115198083Y-118436598D01*
X115198084Y-118436602D01*
X115198085Y-118436609D01*
X115198085Y-118436610D01*
X115254757Y-118648111D01*
X115254757Y-118648112D01*
X115338561Y-118850431D01*
X115448047Y-119040067D01*
X115448049Y-119040070D01*
X115448050Y-119040071D01*
X115581357Y-119213800D01*
X115736200Y-119368643D01*
X115909929Y-119501950D01*
X115909932Y-119501952D01*
X116099568Y-119611438D01*
X116099569Y-119611438D01*
X116099572Y-119611440D01*
X116301883Y-119695241D01*
X116301887Y-119695242D01*
X116513390Y-119751914D01*
X116513391Y-119751914D01*
X116513402Y-119751917D01*
X116730510Y-119780500D01*
X116730514Y-119780500D01*
X116949486Y-119780500D01*
X116949490Y-119780500D01*
X117166598Y-119751917D01*
X117166609Y-119751914D01*
X117166610Y-119751914D01*
X117221953Y-119737084D01*
X117378117Y-119695241D01*
X117580428Y-119611440D01*
X117770071Y-119501950D01*
X117943800Y-119368643D01*
X118098643Y-119213800D01*
X118231950Y-119040071D01*
X118341440Y-118850428D01*
X118425241Y-118648117D01*
X118481917Y-118436598D01*
X118510500Y-118219490D01*
X118510500Y-118000510D01*
X171049500Y-118000510D01*
X171049500Y-118219490D01*
X171078083Y-118436598D01*
X171078084Y-118436602D01*
X171078085Y-118436609D01*
X171078085Y-118436610D01*
X171134757Y-118648111D01*
X171134757Y-118648112D01*
X171218561Y-118850431D01*
X171328047Y-119040067D01*
X171328049Y-119040070D01*
X171328050Y-119040071D01*
X171461357Y-119213800D01*
X171616200Y-119368643D01*
X171789929Y-119501950D01*
X171789932Y-119501952D01*
X171979568Y-119611438D01*
X171979569Y-119611438D01*
X171979572Y-119611440D01*
X172181883Y-119695241D01*
X172181887Y-119695242D01*
X172393390Y-119751914D01*
X172393391Y-119751914D01*
X172393402Y-119751917D01*
X172610510Y-119780500D01*
X172610514Y-119780500D01*
X172829486Y-119780500D01*
X172829490Y-119780500D01*
X173046598Y-119751917D01*
X173046609Y-119751914D01*
X173046610Y-119751914D01*
X173101953Y-119737084D01*
X173258117Y-119695241D01*
X173460428Y-119611440D01*
X173650071Y-119501950D01*
X173823800Y-119368643D01*
X173978643Y-119213800D01*
X174111950Y-119040071D01*
X174221440Y-118850428D01*
X174305241Y-118648117D01*
X174361917Y-118436598D01*
X174390500Y-118219490D01*
X174390500Y-118000510D01*
X174361917Y-117783402D01*
X174305241Y-117571883D01*
X174221440Y-117369572D01*
X174111950Y-117179929D01*
X173978643Y-117006200D01*
X173823800Y-116851357D01*
X173650071Y-116718050D01*
X173650070Y-116718049D01*
X173650067Y-116718047D01*
X173460431Y-116608561D01*
X173258112Y-116524757D01*
X173046609Y-116468085D01*
X173046602Y-116468084D01*
X173046598Y-116468083D01*
X172871313Y-116445006D01*
X172829491Y-116439500D01*
X172829490Y-116439500D01*
X172610510Y-116439500D01*
X172610508Y-116439500D01*
X172526862Y-116450512D01*
X172393402Y-116468083D01*
X172393398Y-116468083D01*
X172393390Y-116468085D01*
X172393389Y-116468085D01*
X172181888Y-116524757D01*
X172181887Y-116524757D01*
X171979568Y-116608561D01*
X171789932Y-116718047D01*
X171724780Y-116768040D01*
X171616200Y-116851357D01*
X171616195Y-116851362D01*
X171616193Y-116851363D01*
X171461363Y-117006193D01*
X171461362Y-117006195D01*
X171461357Y-117006200D01*
X171378040Y-117114780D01*
X171328047Y-117179932D01*
X171218561Y-117369568D01*
X171134757Y-117571887D01*
X171134757Y-117571888D01*
X171078085Y-117783389D01*
X171078085Y-117783390D01*
X171078083Y-117783398D01*
X171078083Y-117783402D01*
X171049500Y-118000510D01*
X118510500Y-118000510D01*
X118481917Y-117783402D01*
X118425241Y-117571883D01*
X118341440Y-117369572D01*
X118231950Y-117179929D01*
X118098643Y-117006200D01*
X117943800Y-116851357D01*
X117770071Y-116718050D01*
X117770070Y-116718049D01*
X117770067Y-116718047D01*
X117580431Y-116608561D01*
X117378112Y-116524757D01*
X117166609Y-116468085D01*
X117166602Y-116468084D01*
X117166598Y-116468083D01*
X116991313Y-116445006D01*
X116949491Y-116439500D01*
X116949490Y-116439500D01*
X116730510Y-116439500D01*
X116730508Y-116439500D01*
X116646862Y-116450512D01*
X116513402Y-116468083D01*
X116513398Y-116468083D01*
X116513390Y-116468085D01*
X116513389Y-116468085D01*
X116301888Y-116524757D01*
X116301887Y-116524757D01*
X116099568Y-116608561D01*
X115909932Y-116718047D01*
X115844780Y-116768040D01*
X115736200Y-116851357D01*
X115736195Y-116851362D01*
X115736193Y-116851363D01*
X115581363Y-117006193D01*
X115581362Y-117006195D01*
X115581357Y-117006200D01*
X115498040Y-117114780D01*
X115448047Y-117179932D01*
X115338561Y-117369568D01*
X115254757Y-117571887D01*
X115254757Y-117571888D01*
X115198085Y-117783389D01*
X115198085Y-117783390D01*
X115198083Y-117783398D01*
X115198083Y-117783402D01*
X115169500Y-118000510D01*
X113430500Y-118000510D01*
X113430500Y-112448943D01*
X131993500Y-112448943D01*
X131993500Y-112607056D01*
X132032813Y-112753778D01*
X132034423Y-112759784D01*
X132113480Y-112896716D01*
X132225284Y-113008520D01*
X132362216Y-113087577D01*
X132514943Y-113128500D01*
X132673057Y-113128500D01*
X132825780Y-113087578D01*
X132825779Y-113087578D01*
X132825784Y-113087577D01*
X132839436Y-113079693D01*
X132842369Y-113078506D01*
X132848476Y-113076971D01*
X132973470Y-113017713D01*
X132982004Y-113013470D01*
X132982363Y-113013283D01*
X132982794Y-113013059D01*
X132991175Y-113008494D01*
X132997584Y-113004846D01*
X133080618Y-112957581D01*
X133081130Y-112957308D01*
X133134946Y-112930430D01*
X133137100Y-112929613D01*
X133187181Y-112916224D01*
X133189394Y-112915859D01*
X133299680Y-112908672D01*
X133318977Y-112903843D01*
X133321767Y-112903500D01*
X133641286Y-112903500D01*
X133644218Y-112903880D01*
X133649871Y-112905370D01*
X133662469Y-112908693D01*
X133662471Y-112908693D01*
X133662473Y-112908694D01*
X133729728Y-112912835D01*
X133773321Y-112915519D01*
X133775436Y-112915850D01*
X133826931Y-112928932D01*
X133829060Y-112929704D01*
X133882572Y-112955338D01*
X133883176Y-112955649D01*
X133972008Y-113004846D01*
X133979389Y-113008776D01*
X133980082Y-113009131D01*
X133983234Y-113010676D01*
X133987843Y-113012936D01*
X134059355Y-113046521D01*
X134112379Y-113071424D01*
X134113532Y-113071951D01*
X134117228Y-113073640D01*
X134117584Y-113073798D01*
X134117673Y-113073838D01*
X134123084Y-113076169D01*
X134123944Y-113076342D01*
X134127425Y-113077656D01*
X134134216Y-113081577D01*
X134286943Y-113122500D01*
X134445057Y-113122500D01*
X134597784Y-113081577D01*
X134734716Y-113002520D01*
X134846520Y-112890716D01*
X134925577Y-112753784D01*
X134966500Y-112601057D01*
X134966500Y-112442943D01*
X134925577Y-112290216D01*
X134846520Y-112153284D01*
X134734716Y-112041480D01*
X134734715Y-112041479D01*
X134597788Y-111962425D01*
X134597786Y-111962424D01*
X134597784Y-111962423D01*
X134597780Y-111962422D01*
X134597778Y-111962421D01*
X134445057Y-111921500D01*
X134286943Y-111921500D01*
X134134221Y-111962421D01*
X134134213Y-111962424D01*
X134119811Y-111970738D01*
X134116914Y-111971919D01*
X134110545Y-111973549D01*
X133985638Y-112033399D01*
X133976010Y-112038264D01*
X133975167Y-112038713D01*
X133975158Y-112038718D01*
X133967613Y-112042938D01*
X133965821Y-112043940D01*
X133876132Y-112096584D01*
X133875642Y-112096856D01*
X133821939Y-112124950D01*
X133819736Y-112125826D01*
X133771729Y-112139396D01*
X133769396Y-112139802D01*
X133660416Y-112147356D01*
X133660415Y-112147356D01*
X133641520Y-112152147D01*
X133638694Y-112152500D01*
X133320527Y-112152500D01*
X133317555Y-112152109D01*
X133299687Y-112147328D01*
X133299684Y-112147327D01*
X133299682Y-112147327D01*
X133278000Y-112145913D01*
X133189395Y-112140137D01*
X133187173Y-112139771D01*
X133137107Y-112126386D01*
X133134941Y-112125565D01*
X133081163Y-112098705D01*
X133080618Y-112098414D01*
X132991174Y-112047502D01*
X132982794Y-112042938D01*
X132982017Y-112042534D01*
X132973438Y-112038269D01*
X132848497Y-111979038D01*
X132848474Y-111979027D01*
X132846008Y-111977892D01*
X132843284Y-111976638D01*
X132843251Y-111976623D01*
X132843220Y-111976609D01*
X132842714Y-111976383D01*
X132842654Y-111976357D01*
X132836905Y-111973873D01*
X132836897Y-111973871D01*
X132836163Y-111973723D01*
X132832690Y-111972410D01*
X132825782Y-111968422D01*
X132825783Y-111968422D01*
X132673057Y-111927500D01*
X132514943Y-111927500D01*
X132362221Y-111968421D01*
X132362211Y-111968425D01*
X132225284Y-112047479D01*
X132113479Y-112159284D01*
X132034425Y-112296211D01*
X132034421Y-112296221D01*
X131993500Y-112448943D01*
X113430500Y-112448943D01*
X113430500Y-106788133D01*
X149192690Y-106788133D01*
X149192690Y-106946246D01*
X149233611Y-107098968D01*
X149233615Y-107098978D01*
X149296909Y-107208608D01*
X149312670Y-107235906D01*
X149424474Y-107347710D01*
X149561406Y-107426767D01*
X149579950Y-107431735D01*
X149582719Y-107432881D01*
X149589043Y-107436528D01*
X149589051Y-107436532D01*
X149721965Y-107481578D01*
X149729207Y-107483813D01*
X149735343Y-107485707D01*
X149736580Y-107486052D01*
X149750236Y-107489459D01*
X149855920Y-107512747D01*
X149856272Y-107512831D01*
X149917237Y-107528424D01*
X149919587Y-107529308D01*
X149960076Y-107549840D01*
X149962323Y-107551335D01*
X150043747Y-107620553D01*
X150043748Y-107620554D01*
X150043750Y-107620555D01*
X150059579Y-107629796D01*
X150061913Y-107631595D01*
X150493542Y-108063224D01*
X150495456Y-108065760D01*
X150503630Y-108080434D01*
X150503632Y-108080438D01*
X150572851Y-108161863D01*
X150574346Y-108164110D01*
X150594877Y-108204596D01*
X150595761Y-108206948D01*
X150611356Y-108267926D01*
X150611446Y-108268300D01*
X150634735Y-108373974D01*
X150638122Y-108387558D01*
X150638462Y-108388777D01*
X150642614Y-108402234D01*
X150687643Y-108535097D01*
X150690433Y-108542912D01*
X150690673Y-108543552D01*
X150693587Y-108550967D01*
X150693589Y-108550971D01*
X150693670Y-108551092D01*
X150693781Y-108551339D01*
X150693871Y-108551511D01*
X150693861Y-108551516D01*
X150695195Y-108554472D01*
X150697423Y-108562784D01*
X150776480Y-108699716D01*
X150888284Y-108811520D01*
X151025216Y-108890577D01*
X151177943Y-108931500D01*
X151336057Y-108931500D01*
X151488784Y-108890577D01*
X151625716Y-108811520D01*
X151737520Y-108699716D01*
X151816577Y-108562784D01*
X151857500Y-108410057D01*
X151857500Y-108251943D01*
X151816577Y-108099216D01*
X151737520Y-107962284D01*
X151625716Y-107850480D01*
X151625715Y-107850479D01*
X151488782Y-107771422D01*
X151488783Y-107771422D01*
X151470237Y-107766453D01*
X151467468Y-107765307D01*
X151461150Y-107761663D01*
X151461148Y-107761662D01*
X151461146Y-107761661D01*
X151461141Y-107761659D01*
X151461138Y-107761658D01*
X151328222Y-107716609D01*
X151314898Y-107712496D01*
X151314457Y-107712373D01*
X151313658Y-107712150D01*
X151306742Y-107710424D01*
X151299967Y-107708733D01*
X151194306Y-107685448D01*
X151193932Y-107685358D01*
X151132948Y-107669761D01*
X151130596Y-107668877D01*
X151090110Y-107648346D01*
X151087863Y-107646851D01*
X151006440Y-107577635D01*
X151006435Y-107577631D01*
X150990610Y-107568393D01*
X150988276Y-107566594D01*
X150556645Y-107134963D01*
X150554730Y-107132427D01*
X150546552Y-107117745D01*
X150477335Y-107036323D01*
X150475840Y-107034076D01*
X150455308Y-106993587D01*
X150454424Y-106991236D01*
X150438831Y-106930272D01*
X150438745Y-106929910D01*
X150415459Y-106824236D01*
X150412052Y-106810580D01*
X150411707Y-106809343D01*
X150407580Y-106795972D01*
X150404923Y-106788133D01*
X150362532Y-106663054D01*
X150362529Y-106663045D01*
X150359809Y-106655420D01*
X150359549Y-106654726D01*
X150356602Y-106647220D01*
X150356524Y-106647103D01*
X150356414Y-106646860D01*
X150356319Y-106646677D01*
X150356329Y-106646671D01*
X150354992Y-106643714D01*
X150352767Y-106635406D01*
X150273710Y-106498474D01*
X150161906Y-106386670D01*
X150161905Y-106386669D01*
X150024978Y-106307615D01*
X150024976Y-106307614D01*
X150024974Y-106307613D01*
X150024970Y-106307612D01*
X150024968Y-106307611D01*
X149872247Y-106266690D01*
X149714133Y-106266690D01*
X149561411Y-106307611D01*
X149561401Y-106307615D01*
X149424474Y-106386669D01*
X149312669Y-106498474D01*
X149233615Y-106635401D01*
X149233611Y-106635411D01*
X149192690Y-106788133D01*
X113430500Y-106788133D01*
X113430500Y-105740560D01*
X150304117Y-105740560D01*
X150304117Y-105898674D01*
X150345040Y-106051401D01*
X150424097Y-106188333D01*
X150535901Y-106300137D01*
X150672833Y-106379194D01*
X150691377Y-106384162D01*
X150694146Y-106385308D01*
X150700470Y-106388955D01*
X150700478Y-106388959D01*
X150833392Y-106434005D01*
X150840634Y-106436240D01*
X150846770Y-106438134D01*
X150848007Y-106438479D01*
X150861663Y-106441886D01*
X150967347Y-106465174D01*
X150967699Y-106465258D01*
X151028664Y-106480851D01*
X151031014Y-106481735D01*
X151071503Y-106502267D01*
X151073750Y-106503762D01*
X151155174Y-106572980D01*
X151171011Y-106582226D01*
X151173339Y-106584021D01*
X151658953Y-107069635D01*
X152144542Y-107555223D01*
X152146456Y-107557759D01*
X152154630Y-107572434D01*
X152154635Y-107572441D01*
X152223851Y-107653863D01*
X152225346Y-107656110D01*
X152245877Y-107696596D01*
X152246761Y-107698948D01*
X152262356Y-107759926D01*
X152262446Y-107760300D01*
X152285735Y-107865974D01*
X152289122Y-107879558D01*
X152289462Y-107880777D01*
X152293614Y-107894234D01*
X152338643Y-108027097D01*
X152341433Y-108034912D01*
X152341673Y-108035552D01*
X152344587Y-108042967D01*
X152344589Y-108042971D01*
X152344670Y-108043092D01*
X152344781Y-108043339D01*
X152344871Y-108043511D01*
X152344861Y-108043516D01*
X152346195Y-108046472D01*
X152348423Y-108054784D01*
X152411541Y-108164110D01*
X152427480Y-108191716D01*
X152539284Y-108303520D01*
X152676216Y-108382577D01*
X152828943Y-108423500D01*
X152987057Y-108423500D01*
X153139784Y-108382577D01*
X153276716Y-108303520D01*
X153388520Y-108191716D01*
X153467577Y-108054784D01*
X153508500Y-107902057D01*
X153508500Y-107743943D01*
X153467577Y-107591216D01*
X153388520Y-107454284D01*
X153276716Y-107342480D01*
X153276715Y-107342479D01*
X153139782Y-107263422D01*
X153139783Y-107263422D01*
X153121237Y-107258453D01*
X153118468Y-107257307D01*
X153112150Y-107253663D01*
X153112148Y-107253662D01*
X153112146Y-107253661D01*
X153112141Y-107253659D01*
X153112138Y-107253658D01*
X152979222Y-107208609D01*
X152965898Y-107204496D01*
X152965457Y-107204373D01*
X152964658Y-107204150D01*
X152957742Y-107202424D01*
X152950967Y-107200733D01*
X152845306Y-107177448D01*
X152844932Y-107177358D01*
X152783948Y-107161761D01*
X152781596Y-107160877D01*
X152741110Y-107140346D01*
X152738863Y-107138851D01*
X152657440Y-107069635D01*
X152657435Y-107069631D01*
X152641606Y-107060390D01*
X152639272Y-107058591D01*
X151668072Y-106087390D01*
X151666157Y-106084854D01*
X151657979Y-106070172D01*
X151588762Y-105988750D01*
X151587267Y-105986503D01*
X151566735Y-105946014D01*
X151565851Y-105943663D01*
X151550258Y-105882699D01*
X151550172Y-105882337D01*
X151526886Y-105776663D01*
X151523479Y-105763007D01*
X151523134Y-105761770D01*
X151519007Y-105748399D01*
X151516350Y-105740560D01*
X151473959Y-105615481D01*
X151473956Y-105615472D01*
X151471236Y-105607847D01*
X151470976Y-105607153D01*
X151468029Y-105599647D01*
X151467951Y-105599530D01*
X151467841Y-105599287D01*
X151467746Y-105599104D01*
X151467756Y-105599098D01*
X151466419Y-105596141D01*
X151464194Y-105587833D01*
X151385137Y-105450901D01*
X151273333Y-105339097D01*
X151273332Y-105339096D01*
X151136405Y-105260042D01*
X151136403Y-105260041D01*
X151136401Y-105260040D01*
X151136397Y-105260039D01*
X151136395Y-105260038D01*
X150983674Y-105219117D01*
X150825560Y-105219117D01*
X150672838Y-105260038D01*
X150672828Y-105260042D01*
X150535901Y-105339096D01*
X150424096Y-105450901D01*
X150345042Y-105587828D01*
X150345038Y-105587838D01*
X150304117Y-105740560D01*
X113430500Y-105740560D01*
X113430500Y-95805943D01*
X121573500Y-95805943D01*
X121573500Y-95964056D01*
X121614421Y-96116778D01*
X121614425Y-96116788D01*
X121624020Y-96133407D01*
X121625167Y-96136174D01*
X121627061Y-96143227D01*
X121656325Y-96202497D01*
X121689204Y-96269088D01*
X121689210Y-96269099D01*
X121695792Y-96281553D01*
X121696419Y-96282664D01*
X121703616Y-96294640D01*
X121761853Y-96385801D01*
X121762055Y-96386129D01*
X121794150Y-96440281D01*
X121795187Y-96442569D01*
X121809298Y-96485715D01*
X121809830Y-96488361D01*
X121818462Y-96594879D01*
X121818463Y-96594881D01*
X121822709Y-96611036D01*
X121823122Y-96612605D01*
X121823500Y-96615529D01*
X121823500Y-98344143D01*
X121845627Y-98426723D01*
X121847384Y-98433282D01*
X121847388Y-98433292D01*
X121893529Y-98513211D01*
X123796748Y-100416430D01*
X123800116Y-100424562D01*
X123799725Y-100427537D01*
X123796000Y-100441443D01*
X123796000Y-100599557D01*
X123836923Y-100752284D01*
X123915980Y-100889216D01*
X124027784Y-101001020D01*
X124164716Y-101080077D01*
X124317443Y-101121000D01*
X124475557Y-101121000D01*
X124628284Y-101080077D01*
X124765216Y-101001020D01*
X124877020Y-100889216D01*
X124956077Y-100752284D01*
X124997000Y-100599557D01*
X124997000Y-100441443D01*
X124956077Y-100288716D01*
X124877020Y-100151784D01*
X124765216Y-100039980D01*
X124765215Y-100039979D01*
X124628288Y-99960925D01*
X124628286Y-99960924D01*
X124628284Y-99960923D01*
X124628280Y-99960922D01*
X124628278Y-99960921D01*
X124475557Y-99920000D01*
X124317443Y-99920000D01*
X124307831Y-99922575D01*
X124303537Y-99923725D01*
X124294811Y-99922575D01*
X124292430Y-99920748D01*
X122527868Y-98156186D01*
X122524500Y-98148054D01*
X122524500Y-96614184D01*
X122524939Y-96611036D01*
X122529535Y-96594884D01*
X122529536Y-96594881D01*
X122531685Y-96568367D01*
X122536174Y-96512950D01*
X122538167Y-96488354D01*
X122538699Y-96485710D01*
X122552809Y-96442568D01*
X122553846Y-96440280D01*
X122585960Y-96386096D01*
X122586152Y-96385785D01*
X122589680Y-96380263D01*
X122644383Y-96294636D01*
X122651625Y-96282583D01*
X122652256Y-96281464D01*
X122652256Y-96281463D01*
X122652278Y-96281425D01*
X122658189Y-96270232D01*
X122658797Y-96269082D01*
X122720935Y-96143232D01*
X122724355Y-96136025D01*
X122724662Y-96135351D01*
X122727945Y-96127824D01*
X122727968Y-96127706D01*
X122728052Y-96127484D01*
X122728130Y-96127238D01*
X122728143Y-96127242D01*
X122729286Y-96124214D01*
X122733577Y-96116784D01*
X122774500Y-95964057D01*
X122774500Y-95932943D01*
X123580100Y-95932943D01*
X123580100Y-96091057D01*
X123591448Y-96133407D01*
X123621021Y-96243778D01*
X123621025Y-96243788D01*
X123630620Y-96260407D01*
X123631767Y-96263174D01*
X123633661Y-96270227D01*
X123659493Y-96322545D01*
X123695804Y-96396088D01*
X123695810Y-96396099D01*
X123702392Y-96408553D01*
X123703019Y-96409664D01*
X123710216Y-96421640D01*
X123768453Y-96512801D01*
X123768655Y-96513129D01*
X123800750Y-96567281D01*
X123801787Y-96569569D01*
X123815898Y-96612715D01*
X123816430Y-96615361D01*
X123825062Y-96721879D01*
X123825063Y-96721881D01*
X123829309Y-96738036D01*
X123829722Y-96739605D01*
X123830100Y-96742529D01*
X123830100Y-96806808D01*
X123829661Y-96809955D01*
X123825064Y-96826110D01*
X123825061Y-96826124D01*
X123816430Y-96932636D01*
X123815898Y-96935282D01*
X123801789Y-96978422D01*
X123800752Y-96980710D01*
X123768626Y-97034915D01*
X123768424Y-97035243D01*
X123710203Y-97126380D01*
X123702965Y-97138426D01*
X123702359Y-97139501D01*
X123695813Y-97151890D01*
X123633654Y-97277786D01*
X123630147Y-97285185D01*
X123629835Y-97285870D01*
X123626656Y-97293168D01*
X123626653Y-97293179D01*
X123626627Y-97293310D01*
X123626539Y-97293540D01*
X123626472Y-97293756D01*
X123626459Y-97293752D01*
X123625315Y-97296780D01*
X123621024Y-97304213D01*
X123621021Y-97304221D01*
X123580100Y-97456943D01*
X123580100Y-97615056D01*
X123621021Y-97767778D01*
X123621025Y-97767788D01*
X123700079Y-97904715D01*
X123811884Y-98016520D01*
X123847681Y-98037187D01*
X123853039Y-98044169D01*
X123851890Y-98052896D01*
X123847681Y-98057105D01*
X123822784Y-98071479D01*
X123710979Y-98183284D01*
X123631925Y-98320211D01*
X123631921Y-98320221D01*
X123601624Y-98433292D01*
X123591000Y-98472943D01*
X123591000Y-98631057D01*
X123631923Y-98783784D01*
X123710980Y-98920716D01*
X123822784Y-99032520D01*
X123959716Y-99111577D01*
X124112443Y-99152500D01*
X124270557Y-99152500D01*
X124423284Y-99111577D01*
X124560216Y-99032520D01*
X124672020Y-98920716D01*
X124751077Y-98783784D01*
X124756046Y-98765233D01*
X124757192Y-98762466D01*
X124760840Y-98756142D01*
X124805890Y-98623214D01*
X124810016Y-98609845D01*
X124810361Y-98608608D01*
X124813767Y-98594953D01*
X124837051Y-98489288D01*
X124837139Y-98488924D01*
X124852735Y-98427945D01*
X124853618Y-98425598D01*
X124874152Y-98385104D01*
X124875635Y-98382874D01*
X124944862Y-98301443D01*
X124954107Y-98285605D01*
X124955899Y-98283281D01*
X125400870Y-97838312D01*
X125447014Y-97758388D01*
X125449964Y-97747379D01*
X125470900Y-97669244D01*
X125470900Y-96741184D01*
X125471339Y-96738036D01*
X125475935Y-96721884D01*
X125475936Y-96721881D01*
X125484567Y-96615354D01*
X125485099Y-96612710D01*
X125485134Y-96612605D01*
X125499209Y-96569566D01*
X125500246Y-96567280D01*
X125532350Y-96513113D01*
X125532552Y-96512785D01*
X125590783Y-96421636D01*
X125598025Y-96409583D01*
X125598656Y-96408464D01*
X125598656Y-96408463D01*
X125598678Y-96408425D01*
X125602936Y-96400360D01*
X125605197Y-96396082D01*
X125667335Y-96270232D01*
X125669765Y-96265112D01*
X125670730Y-96263078D01*
X125670733Y-96263069D01*
X125670755Y-96263025D01*
X125671062Y-96262351D01*
X125674345Y-96254824D01*
X125674368Y-96254706D01*
X125674452Y-96254484D01*
X125674530Y-96254238D01*
X125674543Y-96254242D01*
X125675686Y-96251214D01*
X125679977Y-96243784D01*
X125720900Y-96091057D01*
X125720900Y-95932943D01*
X125679977Y-95780216D01*
X125621508Y-95678943D01*
X129574500Y-95678943D01*
X129574500Y-95837056D01*
X129615421Y-95989778D01*
X129615425Y-95989788D01*
X129688747Y-96116787D01*
X129694480Y-96126716D01*
X129806284Y-96238520D01*
X129943216Y-96317577D01*
X129961760Y-96322545D01*
X129964529Y-96323691D01*
X129970853Y-96327338D01*
X129970861Y-96327342D01*
X130103775Y-96372388D01*
X130111017Y-96374623D01*
X130117153Y-96376517D01*
X130118390Y-96376862D01*
X130132046Y-96380269D01*
X130237730Y-96403557D01*
X130238082Y-96403641D01*
X130299047Y-96419234D01*
X130301397Y-96420118D01*
X130341886Y-96440650D01*
X130344133Y-96442145D01*
X130425557Y-96511363D01*
X130425558Y-96511364D01*
X130425560Y-96511365D01*
X130441389Y-96520606D01*
X130443723Y-96522405D01*
X130848788Y-96927470D01*
X130905998Y-96960500D01*
X130928712Y-96973614D01*
X131017856Y-96997500D01*
X133255816Y-96997500D01*
X133258961Y-96997938D01*
X133275119Y-97002536D01*
X133275121Y-97002536D01*
X133275126Y-97002537D01*
X133347091Y-97008367D01*
X133381642Y-97011167D01*
X133384285Y-97011698D01*
X133396566Y-97015715D01*
X133427427Y-97025808D01*
X133429715Y-97026845D01*
X133483883Y-97058950D01*
X133484211Y-97059152D01*
X133575364Y-97117384D01*
X133587399Y-97124616D01*
X133588545Y-97125262D01*
X133600903Y-97131791D01*
X133600914Y-97131796D01*
X133600917Y-97131798D01*
X133726768Y-97193936D01*
X133733974Y-97197355D01*
X133734648Y-97197662D01*
X133734679Y-97197676D01*
X133738121Y-97199176D01*
X133742175Y-97200945D01*
X133742178Y-97200945D01*
X133742179Y-97200946D01*
X133742293Y-97200969D01*
X133742504Y-97201048D01*
X133742765Y-97201131D01*
X133742760Y-97201145D01*
X133745781Y-97202284D01*
X133753216Y-97206577D01*
X133905943Y-97247500D01*
X134064057Y-97247500D01*
X134216784Y-97206577D01*
X134353716Y-97127520D01*
X134465520Y-97015716D01*
X134544577Y-96878784D01*
X134585500Y-96726057D01*
X134585500Y-96567943D01*
X134544577Y-96415216D01*
X134465520Y-96278284D01*
X134353716Y-96166480D01*
X134353715Y-96166479D01*
X134216788Y-96087425D01*
X134216786Y-96087424D01*
X134216784Y-96087423D01*
X134216780Y-96087422D01*
X134216778Y-96087421D01*
X134064057Y-96046500D01*
X133905943Y-96046500D01*
X133753221Y-96087421D01*
X133753218Y-96087422D01*
X133753216Y-96087423D01*
X133736586Y-96097023D01*
X133733825Y-96098167D01*
X133726773Y-96100061D01*
X133600904Y-96162207D01*
X133588509Y-96168754D01*
X133587409Y-96169375D01*
X133575380Y-96176603D01*
X133484227Y-96234834D01*
X133483900Y-96235036D01*
X133469141Y-96243784D01*
X133433166Y-96265106D01*
X133433156Y-96265112D01*
X133433154Y-96265112D01*
X133433154Y-96265113D01*
X133429710Y-96267153D01*
X133427424Y-96268189D01*
X133384282Y-96282298D01*
X133381636Y-96282830D01*
X133275115Y-96291463D01*
X133257394Y-96296122D01*
X133254470Y-96296500D01*
X131213946Y-96296500D01*
X131205814Y-96293132D01*
X130938455Y-96025773D01*
X130936540Y-96023237D01*
X130928362Y-96008555D01*
X130859145Y-95927133D01*
X130857650Y-95924886D01*
X130837118Y-95884397D01*
X130836234Y-95882046D01*
X130828166Y-95850500D01*
X130820641Y-95821082D01*
X130820555Y-95820720D01*
X130818100Y-95809578D01*
X130797269Y-95715046D01*
X130793862Y-95701390D01*
X130793517Y-95700153D01*
X130789390Y-95686782D01*
X130788426Y-95683939D01*
X130744342Y-95553864D01*
X130744339Y-95553855D01*
X130741619Y-95546230D01*
X130741359Y-95545536D01*
X130738412Y-95538030D01*
X130738334Y-95537913D01*
X130738224Y-95537670D01*
X130738129Y-95537487D01*
X130738139Y-95537481D01*
X130736802Y-95534524D01*
X130734577Y-95526216D01*
X130655520Y-95389284D01*
X130543716Y-95277480D01*
X130543715Y-95277479D01*
X130406788Y-95198425D01*
X130406786Y-95198424D01*
X130406784Y-95198423D01*
X130406780Y-95198422D01*
X130406778Y-95198421D01*
X130254057Y-95157500D01*
X130095943Y-95157500D01*
X129943221Y-95198421D01*
X129943211Y-95198425D01*
X129806284Y-95277479D01*
X129694479Y-95389284D01*
X129615425Y-95526211D01*
X129615421Y-95526221D01*
X129574500Y-95678943D01*
X125621508Y-95678943D01*
X125600920Y-95643284D01*
X125489116Y-95531480D01*
X125489115Y-95531479D01*
X125352188Y-95452425D01*
X125352186Y-95452424D01*
X125352184Y-95452423D01*
X125352180Y-95452422D01*
X125352178Y-95452421D01*
X125199457Y-95411500D01*
X125041343Y-95411500D01*
X124888621Y-95452421D01*
X124888611Y-95452425D01*
X124751684Y-95531479D01*
X124658632Y-95624532D01*
X124650500Y-95627900D01*
X124642368Y-95624532D01*
X124549315Y-95531479D01*
X124412388Y-95452425D01*
X124412386Y-95452424D01*
X124412384Y-95452423D01*
X124412380Y-95452422D01*
X124412378Y-95452421D01*
X124259657Y-95411500D01*
X124101543Y-95411500D01*
X123948821Y-95452421D01*
X123948811Y-95452425D01*
X123811884Y-95531479D01*
X123700079Y-95643284D01*
X123621025Y-95780211D01*
X123621021Y-95780221D01*
X123602190Y-95850500D01*
X123580100Y-95932943D01*
X122774500Y-95932943D01*
X122774500Y-95805943D01*
X122733577Y-95653216D01*
X122654520Y-95516284D01*
X122542716Y-95404480D01*
X122542715Y-95404479D01*
X122405788Y-95325425D01*
X122405786Y-95325424D01*
X122405784Y-95325423D01*
X122405780Y-95325422D01*
X122405778Y-95325421D01*
X122253057Y-95284500D01*
X122094943Y-95284500D01*
X121942221Y-95325421D01*
X121942211Y-95325425D01*
X121805284Y-95404479D01*
X121693479Y-95516284D01*
X121614425Y-95653211D01*
X121614421Y-95653221D01*
X121573500Y-95805943D01*
X113430500Y-95805943D01*
X113430500Y-94789943D01*
X122716500Y-94789943D01*
X122716500Y-94948056D01*
X122757421Y-95100778D01*
X122757425Y-95100788D01*
X122834160Y-95233699D01*
X122836480Y-95237716D01*
X122948284Y-95349520D01*
X123085216Y-95428577D01*
X123237943Y-95469500D01*
X123396057Y-95469500D01*
X123548784Y-95428577D01*
X123565420Y-95418970D01*
X123568177Y-95417828D01*
X123575232Y-95415935D01*
X123701082Y-95353797D01*
X123713464Y-95347256D01*
X123714583Y-95346625D01*
X123726636Y-95339383D01*
X123817802Y-95281141D01*
X123818096Y-95280960D01*
X123872281Y-95248845D01*
X123874566Y-95247809D01*
X123917711Y-95233698D01*
X123920354Y-95233167D01*
X123951346Y-95230656D01*
X124026875Y-95224537D01*
X124026878Y-95224536D01*
X124026881Y-95224536D01*
X124044604Y-95219878D01*
X124047527Y-95219500D01*
X125254816Y-95219500D01*
X125257961Y-95219938D01*
X125274119Y-95224536D01*
X125274121Y-95224536D01*
X125274126Y-95224537D01*
X125346091Y-95230367D01*
X125380642Y-95233167D01*
X125383285Y-95233698D01*
X125395566Y-95237715D01*
X125426427Y-95247808D01*
X125428715Y-95248845D01*
X125482883Y-95280950D01*
X125483211Y-95281152D01*
X125558198Y-95329057D01*
X125574364Y-95339384D01*
X125586399Y-95346616D01*
X125587545Y-95347262D01*
X125599903Y-95353791D01*
X125599914Y-95353796D01*
X125599917Y-95353798D01*
X125725768Y-95415936D01*
X125732974Y-95419355D01*
X125733648Y-95419662D01*
X125733679Y-95419676D01*
X125735810Y-95420605D01*
X125741175Y-95422945D01*
X125741178Y-95422945D01*
X125741179Y-95422946D01*
X125741293Y-95422969D01*
X125741504Y-95423048D01*
X125741765Y-95423131D01*
X125741760Y-95423145D01*
X125744781Y-95424284D01*
X125752216Y-95428577D01*
X125904943Y-95469500D01*
X126063057Y-95469500D01*
X126215784Y-95428577D01*
X126352716Y-95349520D01*
X126464520Y-95237716D01*
X126543577Y-95100784D01*
X126584500Y-94948057D01*
X126584500Y-94789943D01*
X130717500Y-94789943D01*
X130717500Y-94948056D01*
X130758421Y-95100778D01*
X130758425Y-95100788D01*
X130835160Y-95233699D01*
X130837480Y-95237716D01*
X130949284Y-95349520D01*
X131086216Y-95428577D01*
X131238943Y-95469500D01*
X131397057Y-95469500D01*
X131549784Y-95428577D01*
X131563596Y-95420601D01*
X131566519Y-95419415D01*
X131572685Y-95417860D01*
X131696512Y-95359021D01*
X131705420Y-95354573D01*
X131706216Y-95354156D01*
X131714685Y-95349514D01*
X131803392Y-95298679D01*
X131803857Y-95298430D01*
X131856934Y-95271652D01*
X131859091Y-95270825D01*
X131907871Y-95257624D01*
X131910108Y-95257251D01*
X132018864Y-95250066D01*
X132038072Y-95245245D01*
X132040871Y-95244900D01*
X133354515Y-95244900D01*
X133362647Y-95248268D01*
X133365860Y-95254522D01*
X133368556Y-95270822D01*
X133374082Y-95304239D01*
X133377058Y-95319380D01*
X133377364Y-95320718D01*
X133381277Y-95335751D01*
X133412790Y-95443291D01*
X133416980Y-95456295D01*
X133417396Y-95457477D01*
X133422242Y-95470155D01*
X133422608Y-95471282D01*
X133425423Y-95481784D01*
X133491653Y-95596500D01*
X133504480Y-95618716D01*
X133616284Y-95730520D01*
X133753216Y-95809577D01*
X133905943Y-95850500D01*
X134064057Y-95850500D01*
X134216784Y-95809577D01*
X134353716Y-95730520D01*
X134465520Y-95618716D01*
X134544577Y-95481784D01*
X134585500Y-95329057D01*
X134585500Y-95170943D01*
X134544577Y-95018216D01*
X134465520Y-94881284D01*
X134353716Y-94769480D01*
X134353715Y-94769479D01*
X134216788Y-94690425D01*
X134216786Y-94690424D01*
X134216784Y-94690423D01*
X134216780Y-94690422D01*
X134216778Y-94690421D01*
X134064057Y-94649500D01*
X134013920Y-94649500D01*
X134010792Y-94649066D01*
X133994453Y-94644447D01*
X133891471Y-94636280D01*
X133889370Y-94635915D01*
X133861079Y-94628242D01*
X133855957Y-94625275D01*
X133844611Y-94613929D01*
X133764692Y-94567788D01*
X133764690Y-94567787D01*
X133764688Y-94567786D01*
X133764684Y-94567785D01*
X133764682Y-94567784D01*
X133675544Y-94543900D01*
X133505938Y-94543900D01*
X133505029Y-94543864D01*
X133465093Y-94540697D01*
X133454817Y-94540089D01*
X133453953Y-94540056D01*
X133443989Y-94539863D01*
X133443987Y-94539863D01*
X133424806Y-94543679D01*
X133422562Y-94543900D01*
X132044924Y-94543900D01*
X132041592Y-94543407D01*
X132033742Y-94541030D01*
X132027310Y-94539083D01*
X132027308Y-94539082D01*
X132027305Y-94539082D01*
X131926001Y-94529153D01*
X131922910Y-94528409D01*
X131887555Y-94514490D01*
X131885174Y-94513211D01*
X131831309Y-94475513D01*
X131831198Y-94475434D01*
X131805434Y-94456946D01*
X131739336Y-94409514D01*
X131733084Y-94405367D01*
X131723714Y-94399150D01*
X131722257Y-94398259D01*
X131705940Y-94389081D01*
X131580217Y-94324314D01*
X131571109Y-94319849D01*
X131570264Y-94319456D01*
X131560744Y-94315253D01*
X131560153Y-94315066D01*
X131560173Y-94315001D01*
X131560172Y-94315001D01*
X131560177Y-94314987D01*
X131560188Y-94314955D01*
X131557794Y-94314047D01*
X131557215Y-94313713D01*
X131553348Y-94311480D01*
X131549786Y-94309424D01*
X131549785Y-94309423D01*
X131549784Y-94309423D01*
X131549781Y-94309422D01*
X131549778Y-94309421D01*
X131397057Y-94268500D01*
X131238943Y-94268500D01*
X131086221Y-94309421D01*
X131086211Y-94309425D01*
X130949284Y-94388479D01*
X130837479Y-94500284D01*
X130758425Y-94637211D01*
X130758421Y-94637221D01*
X130717500Y-94789943D01*
X126584500Y-94789943D01*
X126543577Y-94637216D01*
X126464520Y-94500284D01*
X126352716Y-94388480D01*
X126352715Y-94388479D01*
X126215788Y-94309425D01*
X126215786Y-94309424D01*
X126215784Y-94309423D01*
X126215780Y-94309422D01*
X126215778Y-94309421D01*
X126063057Y-94268500D01*
X125904943Y-94268500D01*
X125752221Y-94309421D01*
X125752218Y-94309422D01*
X125752216Y-94309423D01*
X125735586Y-94319023D01*
X125732825Y-94320167D01*
X125725773Y-94322061D01*
X125599904Y-94384207D01*
X125587509Y-94390754D01*
X125586409Y-94391375D01*
X125574380Y-94398603D01*
X125483218Y-94456840D01*
X125482890Y-94457042D01*
X125428712Y-94489152D01*
X125426424Y-94490189D01*
X125383284Y-94504298D01*
X125380638Y-94504830D01*
X125274115Y-94513463D01*
X125256394Y-94518122D01*
X125253470Y-94518500D01*
X124046189Y-94518500D01*
X124043042Y-94518061D01*
X124026887Y-94513464D01*
X124026874Y-94513461D01*
X123920361Y-94504830D01*
X123917715Y-94504298D01*
X123874569Y-94490187D01*
X123872281Y-94489150D01*
X123818113Y-94457045D01*
X123817785Y-94456843D01*
X123726627Y-94398609D01*
X123714658Y-94391414D01*
X123713574Y-94390803D01*
X123701099Y-94384210D01*
X123701088Y-94384204D01*
X123575216Y-94322056D01*
X123575071Y-94321987D01*
X123567851Y-94318564D01*
X123567128Y-94318235D01*
X123559830Y-94315056D01*
X123559826Y-94315055D01*
X123559824Y-94315054D01*
X123559679Y-94315024D01*
X123559437Y-94314933D01*
X123559243Y-94314872D01*
X123559246Y-94314860D01*
X123556215Y-94313713D01*
X123548788Y-94309425D01*
X123548786Y-94309424D01*
X123548784Y-94309423D01*
X123548780Y-94309422D01*
X123548778Y-94309421D01*
X123396057Y-94268500D01*
X123237943Y-94268500D01*
X123085221Y-94309421D01*
X123085211Y-94309425D01*
X122948284Y-94388479D01*
X122836479Y-94500284D01*
X122757425Y-94637211D01*
X122757421Y-94637221D01*
X122716500Y-94789943D01*
X113430500Y-94789943D01*
X113430500Y-93392943D01*
X122970500Y-93392943D01*
X122970500Y-93551056D01*
X123011421Y-93703778D01*
X123011425Y-93703788D01*
X123088160Y-93836699D01*
X123090480Y-93840716D01*
X123202284Y-93952520D01*
X123339216Y-94031577D01*
X123491943Y-94072500D01*
X123650057Y-94072500D01*
X123802784Y-94031577D01*
X123819420Y-94021970D01*
X123822177Y-94020828D01*
X123829232Y-94018935D01*
X123955082Y-93956797D01*
X123967464Y-93950256D01*
X123968583Y-93949625D01*
X123980636Y-93942383D01*
X124071802Y-93884141D01*
X124072096Y-93883960D01*
X124126281Y-93851845D01*
X124128566Y-93850809D01*
X124171711Y-93836698D01*
X124174354Y-93836167D01*
X124205346Y-93833656D01*
X124280875Y-93827537D01*
X124280878Y-93827536D01*
X124280881Y-93827536D01*
X124298604Y-93822878D01*
X124301527Y-93822500D01*
X125762816Y-93822500D01*
X125765961Y-93822938D01*
X125782119Y-93827536D01*
X125782121Y-93827536D01*
X125782126Y-93827537D01*
X125854091Y-93833367D01*
X125888642Y-93836167D01*
X125891285Y-93836698D01*
X125903566Y-93840715D01*
X125934427Y-93850808D01*
X125936715Y-93851845D01*
X125990883Y-93883950D01*
X125991211Y-93884152D01*
X126082364Y-93942384D01*
X126094399Y-93949616D01*
X126095545Y-93950262D01*
X126107903Y-93956791D01*
X126107914Y-93956796D01*
X126107917Y-93956798D01*
X126233768Y-94018936D01*
X126240974Y-94022355D01*
X126241648Y-94022662D01*
X126241679Y-94022676D01*
X126245121Y-94024176D01*
X126249175Y-94025945D01*
X126249178Y-94025945D01*
X126249179Y-94025946D01*
X126249293Y-94025969D01*
X126249504Y-94026048D01*
X126249765Y-94026131D01*
X126249760Y-94026145D01*
X126252781Y-94027284D01*
X126260216Y-94031577D01*
X126412943Y-94072500D01*
X126571057Y-94072500D01*
X126723784Y-94031577D01*
X126860716Y-93952520D01*
X126972520Y-93840716D01*
X127051577Y-93703784D01*
X127092500Y-93551057D01*
X127092500Y-93392943D01*
X130717500Y-93392943D01*
X130717500Y-93551056D01*
X130758421Y-93703778D01*
X130758425Y-93703788D01*
X130835160Y-93836699D01*
X130837480Y-93840716D01*
X130949284Y-93952520D01*
X131086216Y-94031577D01*
X131238943Y-94072500D01*
X131397057Y-94072500D01*
X131549784Y-94031577D01*
X131566420Y-94021970D01*
X131569177Y-94020828D01*
X131576232Y-94018935D01*
X131702082Y-93956797D01*
X131714464Y-93950256D01*
X131715583Y-93949625D01*
X131727636Y-93942383D01*
X131818802Y-93884141D01*
X131819096Y-93883960D01*
X131873281Y-93851845D01*
X131875566Y-93850809D01*
X131918711Y-93836698D01*
X131921354Y-93836167D01*
X131952346Y-93833656D01*
X132027875Y-93827537D01*
X132027878Y-93827536D01*
X132027881Y-93827536D01*
X132045604Y-93822878D01*
X132048527Y-93822500D01*
X132620816Y-93822500D01*
X132623961Y-93822938D01*
X132640119Y-93827536D01*
X132640121Y-93827536D01*
X132640126Y-93827537D01*
X132712091Y-93833367D01*
X132746642Y-93836167D01*
X132749285Y-93836698D01*
X132761566Y-93840715D01*
X132792427Y-93850808D01*
X132794715Y-93851845D01*
X132848883Y-93883950D01*
X132849211Y-93884152D01*
X132940364Y-93942384D01*
X132952399Y-93949616D01*
X132953545Y-93950262D01*
X132965903Y-93956791D01*
X132965914Y-93956796D01*
X132965917Y-93956798D01*
X133091768Y-94018936D01*
X133098974Y-94022355D01*
X133099648Y-94022662D01*
X133099679Y-94022676D01*
X133103121Y-94024176D01*
X133107175Y-94025945D01*
X133107178Y-94025945D01*
X133107179Y-94025946D01*
X133107293Y-94025969D01*
X133107504Y-94026048D01*
X133107765Y-94026131D01*
X133107760Y-94026145D01*
X133110781Y-94027284D01*
X133118216Y-94031577D01*
X133270943Y-94072500D01*
X133429057Y-94072500D01*
X133581784Y-94031577D01*
X133718716Y-93952520D01*
X133830520Y-93840716D01*
X133909577Y-93703784D01*
X133950500Y-93551057D01*
X133950500Y-93392943D01*
X135416500Y-93392943D01*
X135416500Y-93551056D01*
X135457421Y-93703778D01*
X135457425Y-93703788D01*
X135467020Y-93720407D01*
X135468167Y-93723174D01*
X135470061Y-93730227D01*
X135499325Y-93789497D01*
X135532204Y-93856088D01*
X135532210Y-93856099D01*
X135538792Y-93868553D01*
X135539419Y-93869664D01*
X135546616Y-93881640D01*
X135604853Y-93972801D01*
X135605055Y-93973129D01*
X135637150Y-94027281D01*
X135638187Y-94029569D01*
X135652298Y-94072715D01*
X135652830Y-94075361D01*
X135661462Y-94181879D01*
X135661463Y-94181882D01*
X135661818Y-94183233D01*
X135665709Y-94198036D01*
X135666122Y-94199605D01*
X135666500Y-94202529D01*
X135666500Y-94266808D01*
X135666061Y-94269955D01*
X135661464Y-94286110D01*
X135661461Y-94286124D01*
X135652830Y-94392636D01*
X135652298Y-94395282D01*
X135638189Y-94438422D01*
X135637152Y-94440710D01*
X135605026Y-94494915D01*
X135604824Y-94495243D01*
X135546603Y-94586380D01*
X135539365Y-94598426D01*
X135538759Y-94599501D01*
X135532213Y-94611890D01*
X135470054Y-94737786D01*
X135466547Y-94745185D01*
X135466235Y-94745870D01*
X135463056Y-94753168D01*
X135463053Y-94753179D01*
X135463027Y-94753310D01*
X135462939Y-94753540D01*
X135462872Y-94753756D01*
X135462859Y-94753752D01*
X135461715Y-94756780D01*
X135457424Y-94764213D01*
X135457421Y-94764221D01*
X135416500Y-94916943D01*
X135416500Y-95075056D01*
X135457421Y-95227778D01*
X135457425Y-95227788D01*
X135533196Y-95359029D01*
X135536480Y-95364716D01*
X135648284Y-95476520D01*
X135785216Y-95555577D01*
X135937943Y-95596500D01*
X136096057Y-95596500D01*
X136248784Y-95555577D01*
X136385716Y-95476520D01*
X136497520Y-95364716D01*
X136576577Y-95227784D01*
X136617500Y-95075057D01*
X136617500Y-94916943D01*
X136576577Y-94764216D01*
X136566976Y-94747587D01*
X136565828Y-94744818D01*
X136563936Y-94737768D01*
X136501798Y-94611917D01*
X136495256Y-94599534D01*
X136494625Y-94598415D01*
X136494616Y-94598399D01*
X136487394Y-94586380D01*
X136487383Y-94586362D01*
X136429152Y-94495211D01*
X136428950Y-94494883D01*
X136396846Y-94440716D01*
X136395809Y-94438428D01*
X136381699Y-94395286D01*
X136381167Y-94392640D01*
X136372537Y-94286122D01*
X136372536Y-94286118D01*
X136367878Y-94268393D01*
X136367500Y-94265470D01*
X136367500Y-94201184D01*
X136367939Y-94198036D01*
X136369911Y-94191108D01*
X136372536Y-94181881D01*
X136374321Y-94159858D01*
X136381167Y-94075356D01*
X136381699Y-94072710D01*
X136392040Y-94041094D01*
X136395809Y-94029566D01*
X136396846Y-94027280D01*
X136428960Y-93973096D01*
X136429152Y-93972785D01*
X136487383Y-93881636D01*
X136494625Y-93869583D01*
X136495256Y-93868464D01*
X136495256Y-93868463D01*
X136495278Y-93868425D01*
X136499536Y-93860360D01*
X136501797Y-93856082D01*
X136563935Y-93730232D01*
X136567355Y-93723025D01*
X136567662Y-93722351D01*
X136570945Y-93714824D01*
X136570968Y-93714706D01*
X136571052Y-93714484D01*
X136571130Y-93714238D01*
X136571143Y-93714242D01*
X136572286Y-93711214D01*
X136576577Y-93703784D01*
X136617500Y-93551057D01*
X136617500Y-93392943D01*
X136576577Y-93240216D01*
X136497520Y-93103284D01*
X136385716Y-92991480D01*
X136385715Y-92991479D01*
X136248788Y-92912425D01*
X136248786Y-92912424D01*
X136248784Y-92912423D01*
X136248780Y-92912422D01*
X136248778Y-92912421D01*
X136096057Y-92871500D01*
X135937943Y-92871500D01*
X135785221Y-92912421D01*
X135785211Y-92912425D01*
X135648284Y-92991479D01*
X135536479Y-93103284D01*
X135457425Y-93240211D01*
X135457421Y-93240221D01*
X135416500Y-93392943D01*
X133950500Y-93392943D01*
X133909577Y-93240216D01*
X133830520Y-93103284D01*
X133718716Y-92991480D01*
X133718715Y-92991479D01*
X133581788Y-92912425D01*
X133581786Y-92912424D01*
X133581784Y-92912423D01*
X133581780Y-92912422D01*
X133581778Y-92912421D01*
X133429057Y-92871500D01*
X133270943Y-92871500D01*
X133118221Y-92912421D01*
X133118218Y-92912422D01*
X133118216Y-92912423D01*
X133101586Y-92922023D01*
X133098825Y-92923167D01*
X133091773Y-92925061D01*
X132965904Y-92987207D01*
X132953509Y-92993754D01*
X132952409Y-92994375D01*
X132940380Y-93001603D01*
X132849227Y-93059834D01*
X132848900Y-93060036D01*
X132824679Y-93074391D01*
X132798166Y-93090106D01*
X132798156Y-93090112D01*
X132798154Y-93090112D01*
X132798154Y-93090113D01*
X132794710Y-93092153D01*
X132792424Y-93093189D01*
X132749282Y-93107298D01*
X132746636Y-93107830D01*
X132640115Y-93116463D01*
X132622394Y-93121122D01*
X132619470Y-93121500D01*
X132047189Y-93121500D01*
X132044042Y-93121061D01*
X132027887Y-93116464D01*
X132027874Y-93116461D01*
X131921361Y-93107830D01*
X131918715Y-93107298D01*
X131875569Y-93093187D01*
X131873281Y-93092150D01*
X131819113Y-93060045D01*
X131818785Y-93059843D01*
X131727627Y-93001609D01*
X131715658Y-92994414D01*
X131714574Y-92993803D01*
X131702099Y-92987210D01*
X131702088Y-92987204D01*
X131576216Y-92925056D01*
X131576071Y-92924987D01*
X131568851Y-92921564D01*
X131568128Y-92921235D01*
X131560830Y-92918056D01*
X131560826Y-92918055D01*
X131560824Y-92918054D01*
X131560679Y-92918024D01*
X131560437Y-92917933D01*
X131560243Y-92917872D01*
X131560246Y-92917860D01*
X131557215Y-92916713D01*
X131549788Y-92912425D01*
X131549786Y-92912424D01*
X131549784Y-92912423D01*
X131549780Y-92912422D01*
X131549778Y-92912421D01*
X131397057Y-92871500D01*
X131238943Y-92871500D01*
X131086221Y-92912421D01*
X131086211Y-92912425D01*
X130949284Y-92991479D01*
X130837479Y-93103284D01*
X130758425Y-93240211D01*
X130758421Y-93240221D01*
X130717500Y-93392943D01*
X127092500Y-93392943D01*
X127051577Y-93240216D01*
X126972520Y-93103284D01*
X126860716Y-92991480D01*
X126860715Y-92991479D01*
X126723788Y-92912425D01*
X126723786Y-92912424D01*
X126723784Y-92912423D01*
X126723780Y-92912422D01*
X126723778Y-92912421D01*
X126571057Y-92871500D01*
X126412943Y-92871500D01*
X126260221Y-92912421D01*
X126260218Y-92912422D01*
X126260216Y-92912423D01*
X126243586Y-92922023D01*
X126240825Y-92923167D01*
X126233773Y-92925061D01*
X126107904Y-92987207D01*
X126095509Y-92993754D01*
X126094409Y-92994375D01*
X126082380Y-93001603D01*
X125991218Y-93059840D01*
X125990890Y-93060042D01*
X125936712Y-93092152D01*
X125934424Y-93093189D01*
X125891284Y-93107298D01*
X125888638Y-93107830D01*
X125782115Y-93116463D01*
X125764394Y-93121122D01*
X125761470Y-93121500D01*
X124300189Y-93121500D01*
X124297042Y-93121061D01*
X124280887Y-93116464D01*
X124280874Y-93116461D01*
X124174361Y-93107830D01*
X124171715Y-93107298D01*
X124128569Y-93093187D01*
X124126281Y-93092150D01*
X124072113Y-93060045D01*
X124071785Y-93059843D01*
X123980627Y-93001609D01*
X123968658Y-92994414D01*
X123967574Y-92993803D01*
X123955099Y-92987210D01*
X123955088Y-92987204D01*
X123829216Y-92925056D01*
X123829071Y-92924987D01*
X123821851Y-92921564D01*
X123821128Y-92921235D01*
X123813830Y-92918056D01*
X123813826Y-92918055D01*
X123813824Y-92918054D01*
X123813679Y-92918024D01*
X123813437Y-92917933D01*
X123813243Y-92917872D01*
X123813246Y-92917860D01*
X123810215Y-92916713D01*
X123802788Y-92912425D01*
X123802786Y-92912424D01*
X123802784Y-92912423D01*
X123802780Y-92912422D01*
X123802778Y-92912421D01*
X123650057Y-92871500D01*
X123491943Y-92871500D01*
X123339221Y-92912421D01*
X123339211Y-92912425D01*
X123202284Y-92991479D01*
X123090479Y-93103284D01*
X123011425Y-93240211D01*
X123011421Y-93240221D01*
X122970500Y-93392943D01*
X113430500Y-93392943D01*
X113430500Y-91351418D01*
X122064500Y-91351418D01*
X122064500Y-91528581D01*
X122092213Y-91703552D01*
X122146956Y-91872038D01*
X122146957Y-91872041D01*
X122146958Y-91872042D01*
X122227386Y-92029890D01*
X122331517Y-92173214D01*
X122456786Y-92298483D01*
X122600110Y-92402614D01*
X122757958Y-92483042D01*
X122926445Y-92537786D01*
X123013933Y-92551643D01*
X123101419Y-92565500D01*
X123101421Y-92565500D01*
X123278581Y-92565500D01*
X123359924Y-92552616D01*
X123453555Y-92537786D01*
X123622042Y-92483042D01*
X123779890Y-92402614D01*
X123923214Y-92298483D01*
X124048483Y-92173214D01*
X124152614Y-92029890D01*
X124206681Y-91923779D01*
X124213374Y-91918063D01*
X124216928Y-91917500D01*
X126621454Y-91917500D01*
X126629586Y-91920868D01*
X126795342Y-92086624D01*
X126797256Y-92089160D01*
X126805430Y-92103834D01*
X126805432Y-92103838D01*
X126874651Y-92185263D01*
X126876146Y-92187510D01*
X126896677Y-92227996D01*
X126897561Y-92230348D01*
X126913156Y-92291326D01*
X126913246Y-92291700D01*
X126936535Y-92397374D01*
X126939922Y-92410958D01*
X126940262Y-92412177D01*
X126944414Y-92425634D01*
X126989443Y-92558497D01*
X126992233Y-92566312D01*
X126992473Y-92566952D01*
X126995387Y-92574367D01*
X126995389Y-92574371D01*
X126995470Y-92574492D01*
X126995581Y-92574739D01*
X126995671Y-92574911D01*
X126995661Y-92574916D01*
X126996995Y-92577872D01*
X126999223Y-92586184D01*
X127024140Y-92629343D01*
X127078280Y-92723116D01*
X127190084Y-92834920D01*
X127327016Y-92913977D01*
X127479743Y-92954900D01*
X127637857Y-92954900D01*
X127790584Y-92913977D01*
X127927516Y-92834920D01*
X128039320Y-92723116D01*
X128118377Y-92586184D01*
X128159300Y-92433457D01*
X128159300Y-92275343D01*
X128118377Y-92122616D01*
X128045243Y-91995943D01*
X130717500Y-91995943D01*
X130717500Y-92154057D01*
X130726464Y-92187510D01*
X130758421Y-92306778D01*
X130758425Y-92306788D01*
X130835160Y-92439699D01*
X130837480Y-92443716D01*
X130949284Y-92555520D01*
X131086216Y-92634577D01*
X131238943Y-92675500D01*
X131397057Y-92675500D01*
X131549784Y-92634577D01*
X131566420Y-92624970D01*
X131569177Y-92623828D01*
X131576232Y-92621935D01*
X131702082Y-92559797D01*
X131714464Y-92553256D01*
X131715583Y-92552625D01*
X131727636Y-92545383D01*
X131818802Y-92487141D01*
X131819096Y-92486960D01*
X131873281Y-92454845D01*
X131875566Y-92453809D01*
X131918711Y-92439698D01*
X131921354Y-92439167D01*
X131952346Y-92436656D01*
X132027875Y-92430537D01*
X132027878Y-92430536D01*
X132027881Y-92430536D01*
X132045604Y-92425878D01*
X132048527Y-92425500D01*
X132620816Y-92425500D01*
X132623961Y-92425938D01*
X132640119Y-92430536D01*
X132640121Y-92430536D01*
X132640126Y-92430537D01*
X132712091Y-92436367D01*
X132746642Y-92439167D01*
X132749285Y-92439698D01*
X132761566Y-92443715D01*
X132792427Y-92453808D01*
X132794715Y-92454845D01*
X132848883Y-92486950D01*
X132849211Y-92487152D01*
X132928470Y-92537786D01*
X132940364Y-92545384D01*
X132952399Y-92552616D01*
X132953545Y-92553262D01*
X132965903Y-92559791D01*
X132965914Y-92559796D01*
X132965917Y-92559798D01*
X133091768Y-92621936D01*
X133098974Y-92625355D01*
X133099648Y-92625662D01*
X133099679Y-92625676D01*
X133103121Y-92627176D01*
X133107175Y-92628945D01*
X133107178Y-92628945D01*
X133107179Y-92628946D01*
X133107293Y-92628969D01*
X133107504Y-92629048D01*
X133107765Y-92629131D01*
X133107760Y-92629145D01*
X133110781Y-92630284D01*
X133118216Y-92634577D01*
X133270943Y-92675500D01*
X133429057Y-92675500D01*
X133581784Y-92634577D01*
X133718716Y-92555520D01*
X133830520Y-92443716D01*
X133909577Y-92306784D01*
X133950500Y-92154057D01*
X133950500Y-91995943D01*
X133909577Y-91843216D01*
X133830520Y-91706284D01*
X133718716Y-91594480D01*
X133718715Y-91594479D01*
X133581788Y-91515425D01*
X133581786Y-91515424D01*
X133581784Y-91515423D01*
X133581780Y-91515422D01*
X133581778Y-91515421D01*
X133429057Y-91474500D01*
X133270943Y-91474500D01*
X133118221Y-91515421D01*
X133118218Y-91515422D01*
X133118216Y-91515423D01*
X133101586Y-91525023D01*
X133098825Y-91526167D01*
X133091773Y-91528061D01*
X132965904Y-91590207D01*
X132953509Y-91596754D01*
X132952409Y-91597375D01*
X132940380Y-91604603D01*
X132849227Y-91662834D01*
X132848900Y-91663036D01*
X132834205Y-91671746D01*
X132798166Y-91693106D01*
X132798156Y-91693112D01*
X132798154Y-91693112D01*
X132798154Y-91693113D01*
X132794710Y-91695153D01*
X132792424Y-91696189D01*
X132749282Y-91710298D01*
X132746636Y-91710830D01*
X132640115Y-91719463D01*
X132622394Y-91724122D01*
X132619470Y-91724500D01*
X132047189Y-91724500D01*
X132044042Y-91724061D01*
X132027887Y-91719464D01*
X132027874Y-91719461D01*
X131921361Y-91710830D01*
X131918715Y-91710298D01*
X131875569Y-91696187D01*
X131873281Y-91695150D01*
X131819113Y-91663045D01*
X131818785Y-91662843D01*
X131727627Y-91604609D01*
X131715658Y-91597414D01*
X131714574Y-91596803D01*
X131702099Y-91590210D01*
X131702088Y-91590204D01*
X131576216Y-91528056D01*
X131576071Y-91527987D01*
X131568851Y-91524564D01*
X131568128Y-91524235D01*
X131560830Y-91521056D01*
X131560826Y-91521055D01*
X131560824Y-91521054D01*
X131560679Y-91521024D01*
X131560437Y-91520933D01*
X131560243Y-91520872D01*
X131560246Y-91520860D01*
X131557215Y-91519713D01*
X131549788Y-91515425D01*
X131549786Y-91515424D01*
X131549784Y-91515423D01*
X131549780Y-91515422D01*
X131549778Y-91515421D01*
X131397057Y-91474500D01*
X131238943Y-91474500D01*
X131086221Y-91515421D01*
X131086211Y-91515425D01*
X130949284Y-91594479D01*
X130837479Y-91706284D01*
X130758425Y-91843211D01*
X130758421Y-91843221D01*
X130738368Y-91918063D01*
X130717500Y-91995943D01*
X128045243Y-91995943D01*
X128039320Y-91985684D01*
X127927516Y-91873880D01*
X127927515Y-91873879D01*
X127790582Y-91794822D01*
X127790583Y-91794822D01*
X127772037Y-91789853D01*
X127769268Y-91788707D01*
X127762950Y-91785063D01*
X127762948Y-91785062D01*
X127762946Y-91785061D01*
X127762941Y-91785059D01*
X127762938Y-91785058D01*
X127630022Y-91740009D01*
X127616698Y-91735896D01*
X127616257Y-91735773D01*
X127615458Y-91735550D01*
X127608542Y-91733824D01*
X127601767Y-91732133D01*
X127496106Y-91708848D01*
X127495732Y-91708758D01*
X127434748Y-91693161D01*
X127432396Y-91692277D01*
X127391910Y-91671746D01*
X127389663Y-91670251D01*
X127308240Y-91601035D01*
X127308235Y-91601031D01*
X127292410Y-91591793D01*
X127290076Y-91589994D01*
X127051500Y-91351418D01*
X137304500Y-91351418D01*
X137304500Y-91528581D01*
X137332213Y-91703552D01*
X137386956Y-91872038D01*
X137386957Y-91872041D01*
X137386958Y-91872042D01*
X137467386Y-92029890D01*
X137571517Y-92173214D01*
X137696786Y-92298483D01*
X137840110Y-92402614D01*
X137997958Y-92483042D01*
X138071554Y-92506954D01*
X138078246Y-92512670D01*
X138079500Y-92517891D01*
X138079500Y-93391143D01*
X138102182Y-93475793D01*
X138102182Y-93475794D01*
X138103383Y-93480281D01*
X138103388Y-93480292D01*
X138149529Y-93560211D01*
X139127042Y-94537724D01*
X139128956Y-94540260D01*
X139137130Y-94554934D01*
X139137132Y-94554938D01*
X139206351Y-94636363D01*
X139207846Y-94638610D01*
X139228377Y-94679096D01*
X139229261Y-94681448D01*
X139244856Y-94742426D01*
X139244946Y-94742800D01*
X139268235Y-94848474D01*
X139271622Y-94862058D01*
X139271962Y-94863277D01*
X139276114Y-94876734D01*
X139321143Y-95009597D01*
X139323933Y-95017412D01*
X139324173Y-95018052D01*
X139327087Y-95025467D01*
X139327089Y-95025471D01*
X139327170Y-95025592D01*
X139327281Y-95025839D01*
X139327371Y-95026011D01*
X139327361Y-95026016D01*
X139328695Y-95028972D01*
X139330923Y-95037284D01*
X139409980Y-95174216D01*
X139521784Y-95286020D01*
X139658716Y-95365077D01*
X139811443Y-95406000D01*
X139969557Y-95406000D01*
X140122284Y-95365077D01*
X140259216Y-95286020D01*
X140371020Y-95174216D01*
X140450077Y-95037284D01*
X140491000Y-94884557D01*
X140491000Y-94726443D01*
X140450077Y-94573716D01*
X140371020Y-94436784D01*
X140259216Y-94324980D01*
X140259215Y-94324979D01*
X140122282Y-94245922D01*
X140122283Y-94245922D01*
X140103737Y-94240953D01*
X140100968Y-94239807D01*
X140094650Y-94236163D01*
X140094648Y-94236162D01*
X140094646Y-94236161D01*
X140094641Y-94236159D01*
X140094638Y-94236158D01*
X139961722Y-94191109D01*
X139948398Y-94186996D01*
X139947957Y-94186873D01*
X139947158Y-94186650D01*
X139940242Y-94184924D01*
X139933467Y-94183233D01*
X139827806Y-94159948D01*
X139827432Y-94159858D01*
X139766448Y-94144261D01*
X139764096Y-94143377D01*
X139723610Y-94122846D01*
X139721363Y-94121351D01*
X139639940Y-94052135D01*
X139639935Y-94052131D01*
X139624110Y-94042893D01*
X139621776Y-94041094D01*
X138783868Y-93203186D01*
X138780500Y-93195054D01*
X138780500Y-92621418D01*
X150004500Y-92621418D01*
X150004500Y-92798581D01*
X150032213Y-92973552D01*
X150086956Y-93142038D01*
X150086957Y-93142041D01*
X150086958Y-93142042D01*
X150167386Y-93299890D01*
X150271517Y-93443214D01*
X150396786Y-93568483D01*
X150540110Y-93672614D01*
X150697958Y-93753042D01*
X150866445Y-93807786D01*
X150953933Y-93821643D01*
X151041419Y-93835500D01*
X151041421Y-93835500D01*
X151218581Y-93835500D01*
X151288569Y-93824414D01*
X151393555Y-93807786D01*
X151562042Y-93753042D01*
X151719890Y-93672614D01*
X151863214Y-93568483D01*
X151988483Y-93443214D01*
X152092614Y-93299890D01*
X152173042Y-93142042D01*
X152227786Y-92973555D01*
X152255500Y-92798579D01*
X152255500Y-92621421D01*
X152255500Y-92621418D01*
X152544500Y-92621418D01*
X152544500Y-92798581D01*
X152572213Y-92973552D01*
X152626956Y-93142038D01*
X152626957Y-93142041D01*
X152626958Y-93142042D01*
X152707386Y-93299890D01*
X152811517Y-93443214D01*
X152936786Y-93568483D01*
X153080110Y-93672614D01*
X153237958Y-93753042D01*
X153406445Y-93807786D01*
X153493933Y-93821643D01*
X153581419Y-93835500D01*
X153581421Y-93835500D01*
X153758581Y-93835500D01*
X153828569Y-93824414D01*
X153933555Y-93807786D01*
X154102042Y-93753042D01*
X154259890Y-93672614D01*
X154403214Y-93568483D01*
X154528483Y-93443214D01*
X154632614Y-93299890D01*
X154713042Y-93142042D01*
X154767786Y-92973555D01*
X154795500Y-92798579D01*
X154795500Y-92621421D01*
X154795500Y-92621418D01*
X155084500Y-92621418D01*
X155084500Y-92798581D01*
X155112213Y-92973552D01*
X155166956Y-93142038D01*
X155166957Y-93142041D01*
X155166958Y-93142042D01*
X155247386Y-93299890D01*
X155351517Y-93443214D01*
X155476786Y-93568483D01*
X155620110Y-93672614D01*
X155777958Y-93753042D01*
X155946445Y-93807786D01*
X156033933Y-93821643D01*
X156121419Y-93835500D01*
X156121421Y-93835500D01*
X156298581Y-93835500D01*
X156368569Y-93824414D01*
X156473555Y-93807786D01*
X156642042Y-93753042D01*
X156799890Y-93672614D01*
X156943214Y-93568483D01*
X157068483Y-93443214D01*
X157172614Y-93299890D01*
X157253042Y-93142042D01*
X157307786Y-92973555D01*
X157335500Y-92798579D01*
X157335500Y-92621421D01*
X157335500Y-92621418D01*
X157624500Y-92621418D01*
X157624500Y-92798581D01*
X157652213Y-92973552D01*
X157706956Y-93142038D01*
X157706957Y-93142041D01*
X157706958Y-93142042D01*
X157787386Y-93299890D01*
X157891517Y-93443214D01*
X158016786Y-93568483D01*
X158160110Y-93672614D01*
X158317958Y-93753042D01*
X158486445Y-93807786D01*
X158573933Y-93821643D01*
X158661419Y-93835500D01*
X158661421Y-93835500D01*
X158838581Y-93835500D01*
X158908569Y-93824414D01*
X159013555Y-93807786D01*
X159182042Y-93753042D01*
X159339890Y-93672614D01*
X159483214Y-93568483D01*
X159608483Y-93443214D01*
X159712614Y-93299890D01*
X159793042Y-93142042D01*
X159847786Y-92973555D01*
X159875500Y-92798579D01*
X159875500Y-92621421D01*
X159868602Y-92577872D01*
X159853583Y-92483043D01*
X159847786Y-92446445D01*
X159793042Y-92277958D01*
X159712614Y-92120110D01*
X159608483Y-91976786D01*
X159483214Y-91851517D01*
X159339890Y-91747386D01*
X159182042Y-91666958D01*
X159182041Y-91666957D01*
X159182038Y-91666956D01*
X159013552Y-91612213D01*
X158838581Y-91584500D01*
X158838579Y-91584500D01*
X158661421Y-91584500D01*
X158661419Y-91584500D01*
X158486447Y-91612213D01*
X158317961Y-91666956D01*
X158160108Y-91747387D01*
X158016786Y-91851517D01*
X157891517Y-91976786D01*
X157787387Y-92120108D01*
X157706956Y-92277961D01*
X157652213Y-92446447D01*
X157624500Y-92621418D01*
X157335500Y-92621418D01*
X157328602Y-92577872D01*
X157313583Y-92483043D01*
X157307786Y-92446445D01*
X157253042Y-92277958D01*
X157172614Y-92120110D01*
X157068483Y-91976786D01*
X156943214Y-91851517D01*
X156799890Y-91747386D01*
X156642042Y-91666958D01*
X156642041Y-91666957D01*
X156642038Y-91666956D01*
X156473552Y-91612213D01*
X156298581Y-91584500D01*
X156298579Y-91584500D01*
X156121421Y-91584500D01*
X156121419Y-91584500D01*
X155946447Y-91612213D01*
X155777961Y-91666956D01*
X155620108Y-91747387D01*
X155476786Y-91851517D01*
X155351517Y-91976786D01*
X155247387Y-92120108D01*
X155166956Y-92277961D01*
X155112213Y-92446447D01*
X155084500Y-92621418D01*
X154795500Y-92621418D01*
X154788602Y-92577872D01*
X154773583Y-92483043D01*
X154767786Y-92446445D01*
X154713042Y-92277958D01*
X154632614Y-92120110D01*
X154528483Y-91976786D01*
X154403214Y-91851517D01*
X154259890Y-91747386D01*
X154102042Y-91666958D01*
X154102041Y-91666957D01*
X154102038Y-91666956D01*
X153933552Y-91612213D01*
X153758581Y-91584500D01*
X153758579Y-91584500D01*
X153581421Y-91584500D01*
X153581419Y-91584500D01*
X153406447Y-91612213D01*
X153237961Y-91666956D01*
X153080108Y-91747387D01*
X152936786Y-91851517D01*
X152811517Y-91976786D01*
X152707387Y-92120108D01*
X152626956Y-92277961D01*
X152572213Y-92446447D01*
X152544500Y-92621418D01*
X152255500Y-92621418D01*
X152248602Y-92577872D01*
X152233583Y-92483043D01*
X152227786Y-92446445D01*
X152173042Y-92277958D01*
X152092614Y-92120110D01*
X151988483Y-91976786D01*
X151863214Y-91851517D01*
X151719890Y-91747386D01*
X151562042Y-91666958D01*
X151562041Y-91666957D01*
X151562038Y-91666956D01*
X151393552Y-91612213D01*
X151218581Y-91584500D01*
X151218579Y-91584500D01*
X151041421Y-91584500D01*
X151041419Y-91584500D01*
X150866447Y-91612213D01*
X150697961Y-91666956D01*
X150540108Y-91747387D01*
X150396786Y-91851517D01*
X150271517Y-91976786D01*
X150167387Y-92120108D01*
X150086956Y-92277961D01*
X150032213Y-92446447D01*
X150004500Y-92621418D01*
X138780500Y-92621418D01*
X138780500Y-92517891D01*
X138783868Y-92509759D01*
X138788445Y-92506954D01*
X138862042Y-92483042D01*
X139019890Y-92402614D01*
X139163214Y-92298483D01*
X139288483Y-92173214D01*
X139392614Y-92029890D01*
X139473042Y-91872042D01*
X139527786Y-91703555D01*
X139545488Y-91591793D01*
X139555500Y-91528581D01*
X139555500Y-91351418D01*
X139527786Y-91176447D01*
X139527786Y-91176445D01*
X139473042Y-91007958D01*
X139392614Y-90850110D01*
X139288483Y-90706786D01*
X139163214Y-90581517D01*
X139019890Y-90477386D01*
X138862042Y-90396958D01*
X138862041Y-90396957D01*
X138862038Y-90396956D01*
X138693552Y-90342213D01*
X138518581Y-90314500D01*
X138518579Y-90314500D01*
X138341421Y-90314500D01*
X138341419Y-90314500D01*
X138166447Y-90342213D01*
X137997961Y-90396956D01*
X137840108Y-90477387D01*
X137696786Y-90581517D01*
X137571517Y-90706786D01*
X137467387Y-90850108D01*
X137386956Y-91007961D01*
X137332213Y-91176447D01*
X137304500Y-91351418D01*
X127051500Y-91351418D01*
X126986611Y-91286529D01*
X126906692Y-91240388D01*
X126906690Y-91240387D01*
X126906688Y-91240386D01*
X126906684Y-91240385D01*
X126906682Y-91240384D01*
X126817544Y-91216500D01*
X124303952Y-91216500D01*
X124295820Y-91213132D01*
X124292594Y-91206799D01*
X124287786Y-91176447D01*
X124287786Y-91176445D01*
X124233042Y-91007958D01*
X124152614Y-90850110D01*
X124048483Y-90706786D01*
X123940640Y-90598943D01*
X130717500Y-90598943D01*
X130717500Y-90757057D01*
X130758423Y-90909784D01*
X130837480Y-91046716D01*
X130949284Y-91158520D01*
X131086216Y-91237577D01*
X131238943Y-91278500D01*
X131397057Y-91278500D01*
X131549784Y-91237577D01*
X131686716Y-91158520D01*
X131798520Y-91046716D01*
X131877577Y-90909784D01*
X131882546Y-90891233D01*
X131883692Y-90888466D01*
X131887340Y-90882142D01*
X131932390Y-90749214D01*
X131936516Y-90735845D01*
X131936861Y-90734608D01*
X131940267Y-90720953D01*
X131963551Y-90615288D01*
X131963639Y-90614924D01*
X131979235Y-90553945D01*
X131980118Y-90551598D01*
X132000652Y-90511104D01*
X132002135Y-90508874D01*
X132071362Y-90427443D01*
X132080607Y-90411605D01*
X132082399Y-90409281D01*
X132193231Y-90298449D01*
X132195759Y-90296540D01*
X132210443Y-90288362D01*
X132291874Y-90219135D01*
X132294104Y-90217652D01*
X132334601Y-90197116D01*
X132336945Y-90196235D01*
X132397936Y-90180635D01*
X132398288Y-90180551D01*
X132503953Y-90157267D01*
X132517608Y-90153861D01*
X132518845Y-90153516D01*
X132532214Y-90149390D01*
X132665142Y-90104340D01*
X132672769Y-90101619D01*
X132673463Y-90101359D01*
X132680969Y-90098412D01*
X132681082Y-90098337D01*
X132681321Y-90098228D01*
X132681515Y-90098128D01*
X132681520Y-90098138D01*
X132684477Y-90096802D01*
X132692784Y-90094577D01*
X132829716Y-90015520D01*
X132941520Y-89903716D01*
X133020577Y-89766784D01*
X133061500Y-89614057D01*
X133061500Y-89455943D01*
X133020577Y-89303216D01*
X132941520Y-89166284D01*
X132829716Y-89054480D01*
X132829715Y-89054479D01*
X132692788Y-88975425D01*
X132692786Y-88975424D01*
X132692784Y-88975423D01*
X132692780Y-88975422D01*
X132692778Y-88975421D01*
X132540057Y-88934500D01*
X132381943Y-88934500D01*
X132229221Y-88975421D01*
X132229211Y-88975425D01*
X132092284Y-89054479D01*
X131980479Y-89166284D01*
X131901422Y-89303216D01*
X131896453Y-89321759D01*
X131895308Y-89324526D01*
X131891663Y-89330847D01*
X131891658Y-89330859D01*
X131846616Y-89463755D01*
X131842515Y-89477029D01*
X131842171Y-89478261D01*
X131838724Y-89492068D01*
X131815447Y-89597689D01*
X131815358Y-89598063D01*
X131799761Y-89659047D01*
X131798877Y-89661399D01*
X131778344Y-89701889D01*
X131776849Y-89704136D01*
X131707631Y-89785564D01*
X131698393Y-89801388D01*
X131696594Y-89803722D01*
X131585771Y-89914545D01*
X131583236Y-89916458D01*
X131579897Y-89918318D01*
X131568559Y-89924634D01*
X131487136Y-89993849D01*
X131484889Y-89995344D01*
X131444399Y-90015877D01*
X131442047Y-90016761D01*
X131381063Y-90032358D01*
X131380689Y-90032447D01*
X131275068Y-90055724D01*
X131275040Y-90055731D01*
X131261322Y-90059155D01*
X131261313Y-90059157D01*
X131261303Y-90059160D01*
X131260093Y-90059498D01*
X131246781Y-90063607D01*
X131113878Y-90108651D01*
X131105856Y-90111519D01*
X131105212Y-90111761D01*
X131098024Y-90114590D01*
X131097899Y-90114674D01*
X131097639Y-90114790D01*
X131097486Y-90114871D01*
X131097481Y-90114862D01*
X131094522Y-90116197D01*
X131086219Y-90118422D01*
X131086211Y-90118425D01*
X130949284Y-90197479D01*
X130837479Y-90309284D01*
X130758425Y-90446211D01*
X130758421Y-90446221D01*
X130729556Y-90553949D01*
X130717500Y-90598943D01*
X123940640Y-90598943D01*
X123923214Y-90581517D01*
X123779890Y-90477386D01*
X123622042Y-90396958D01*
X123622041Y-90396957D01*
X123622038Y-90396956D01*
X123453552Y-90342213D01*
X123278581Y-90314500D01*
X123278579Y-90314500D01*
X123101421Y-90314500D01*
X123101419Y-90314500D01*
X122926447Y-90342213D01*
X122757961Y-90396956D01*
X122600108Y-90477387D01*
X122456786Y-90581517D01*
X122331517Y-90706786D01*
X122227387Y-90850108D01*
X122146956Y-91007961D01*
X122092213Y-91176447D01*
X122064500Y-91351418D01*
X113430500Y-91351418D01*
X113430500Y-88811418D01*
X122064500Y-88811418D01*
X122064500Y-88988581D01*
X122092213Y-89163552D01*
X122146956Y-89332038D01*
X122146957Y-89332041D01*
X122146958Y-89332042D01*
X122227386Y-89489890D01*
X122331517Y-89633214D01*
X122456786Y-89758483D01*
X122600110Y-89862614D01*
X122757958Y-89943042D01*
X122926445Y-89997786D01*
X123013933Y-90011643D01*
X123101419Y-90025500D01*
X123101421Y-90025500D01*
X123278581Y-90025500D01*
X123348569Y-90014414D01*
X123453555Y-89997786D01*
X123622042Y-89943042D01*
X123779890Y-89862614D01*
X123923214Y-89758483D01*
X124048483Y-89633214D01*
X124152614Y-89489890D01*
X124233042Y-89332042D01*
X124287786Y-89163555D01*
X124305062Y-89054479D01*
X124315500Y-88988581D01*
X124315500Y-88811418D01*
X124307117Y-88758488D01*
X124306951Y-88757443D01*
X129003000Y-88757443D01*
X129003000Y-88915556D01*
X129043921Y-89068278D01*
X129043925Y-89068288D01*
X129100502Y-89166284D01*
X129122980Y-89205216D01*
X129234784Y-89317020D01*
X129371716Y-89396077D01*
X129524443Y-89437000D01*
X129682557Y-89437000D01*
X129835284Y-89396077D01*
X129972216Y-89317020D01*
X130084020Y-89205216D01*
X130163077Y-89068284D01*
X130168046Y-89049733D01*
X130169192Y-89046966D01*
X130172840Y-89040642D01*
X130217890Y-88907714D01*
X130222016Y-88894345D01*
X130222361Y-88893108D01*
X130225767Y-88879453D01*
X130240759Y-88811418D01*
X137304500Y-88811418D01*
X137304500Y-88988581D01*
X137332213Y-89163552D01*
X137386956Y-89332038D01*
X137386957Y-89332041D01*
X137386958Y-89332042D01*
X137467386Y-89489890D01*
X137571517Y-89633214D01*
X137696786Y-89758483D01*
X137840110Y-89862614D01*
X137997958Y-89943042D01*
X138166445Y-89997786D01*
X138253933Y-90011643D01*
X138341419Y-90025500D01*
X138341421Y-90025500D01*
X138518581Y-90025500D01*
X138588569Y-90014414D01*
X138693555Y-89997786D01*
X138862042Y-89943042D01*
X139019890Y-89862614D01*
X139163214Y-89758483D01*
X139288483Y-89633214D01*
X139392614Y-89489890D01*
X139473042Y-89332042D01*
X139527786Y-89163555D01*
X139545062Y-89054479D01*
X139555500Y-88988581D01*
X139555500Y-88811418D01*
X139527786Y-88636447D01*
X139527786Y-88636445D01*
X139473042Y-88467958D01*
X139392614Y-88310110D01*
X139288483Y-88166786D01*
X139163214Y-88041517D01*
X139019890Y-87937386D01*
X138862042Y-87856958D01*
X138862041Y-87856957D01*
X138862038Y-87856956D01*
X138693552Y-87802213D01*
X138518581Y-87774500D01*
X138518579Y-87774500D01*
X138341421Y-87774500D01*
X138341419Y-87774500D01*
X138166447Y-87802213D01*
X137997961Y-87856956D01*
X137840108Y-87937387D01*
X137696786Y-88041517D01*
X137571517Y-88166786D01*
X137467387Y-88310108D01*
X137386956Y-88467961D01*
X137332213Y-88636447D01*
X137304500Y-88811418D01*
X130240759Y-88811418D01*
X130249051Y-88773788D01*
X130249139Y-88773424D01*
X130252959Y-88758488D01*
X130264735Y-88712445D01*
X130265618Y-88710098D01*
X130286152Y-88669604D01*
X130287635Y-88667374D01*
X130356862Y-88585943D01*
X130366107Y-88570105D01*
X130367899Y-88567781D01*
X130415231Y-88520449D01*
X130417759Y-88518540D01*
X130432443Y-88510362D01*
X130513874Y-88441135D01*
X130516104Y-88439652D01*
X130556601Y-88419116D01*
X130558945Y-88418235D01*
X130619936Y-88402635D01*
X130620288Y-88402551D01*
X130725953Y-88379267D01*
X130739608Y-88375861D01*
X130740845Y-88375516D01*
X130754214Y-88371390D01*
X130887142Y-88326340D01*
X130894769Y-88323619D01*
X130895463Y-88323359D01*
X130902969Y-88320412D01*
X130903082Y-88320337D01*
X130903321Y-88320228D01*
X130903515Y-88320128D01*
X130903520Y-88320138D01*
X130906477Y-88318802D01*
X130914784Y-88316577D01*
X131051716Y-88237520D01*
X131163520Y-88125716D01*
X131242577Y-87988784D01*
X131283500Y-87836057D01*
X131283500Y-87677943D01*
X131242577Y-87525216D01*
X131163520Y-87388284D01*
X131051716Y-87276480D01*
X131051715Y-87276479D01*
X130914788Y-87197425D01*
X130914786Y-87197424D01*
X130914784Y-87197423D01*
X130914780Y-87197422D01*
X130914778Y-87197421D01*
X130762057Y-87156500D01*
X130603943Y-87156500D01*
X130451221Y-87197421D01*
X130451211Y-87197425D01*
X130314284Y-87276479D01*
X130202479Y-87388284D01*
X130123422Y-87525216D01*
X130118453Y-87543759D01*
X130117308Y-87546526D01*
X130113663Y-87552847D01*
X130113658Y-87552859D01*
X130068616Y-87685755D01*
X130064515Y-87699029D01*
X130064171Y-87700261D01*
X130060724Y-87714068D01*
X130037447Y-87819689D01*
X130037358Y-87820063D01*
X130021761Y-87881047D01*
X130020877Y-87883399D01*
X130000344Y-87923889D01*
X129998849Y-87926136D01*
X129929631Y-88007564D01*
X129920393Y-88023388D01*
X129918594Y-88025722D01*
X129871271Y-88073045D01*
X129868736Y-88074958D01*
X129865397Y-88076818D01*
X129854059Y-88083134D01*
X129772636Y-88152349D01*
X129770389Y-88153844D01*
X129729899Y-88174377D01*
X129727547Y-88175261D01*
X129666563Y-88190858D01*
X129666189Y-88190947D01*
X129560568Y-88214224D01*
X129560540Y-88214231D01*
X129546822Y-88217655D01*
X129546813Y-88217657D01*
X129546803Y-88217660D01*
X129545593Y-88217998D01*
X129532281Y-88222107D01*
X129399378Y-88267151D01*
X129391356Y-88270019D01*
X129390712Y-88270261D01*
X129383524Y-88273090D01*
X129383399Y-88273174D01*
X129383139Y-88273290D01*
X129382986Y-88273371D01*
X129382981Y-88273362D01*
X129380022Y-88274697D01*
X129371719Y-88276922D01*
X129371711Y-88276925D01*
X129234784Y-88355979D01*
X129122979Y-88467784D01*
X129043925Y-88604711D01*
X129043921Y-88604721D01*
X129003000Y-88757443D01*
X124306951Y-88757443D01*
X124287786Y-88636447D01*
X124287786Y-88636445D01*
X124233042Y-88467958D01*
X124152614Y-88310110D01*
X124048483Y-88166786D01*
X123923214Y-88041517D01*
X123779890Y-87937386D01*
X123622042Y-87856958D01*
X123622041Y-87856957D01*
X123622038Y-87856956D01*
X123453552Y-87802213D01*
X123278581Y-87774500D01*
X123278579Y-87774500D01*
X123101421Y-87774500D01*
X123101419Y-87774500D01*
X122926447Y-87802213D01*
X122757961Y-87856956D01*
X122600108Y-87937387D01*
X122456786Y-88041517D01*
X122331517Y-88166786D01*
X122227387Y-88310108D01*
X122146956Y-88467961D01*
X122092213Y-88636447D01*
X122064500Y-88811418D01*
X113430500Y-88811418D01*
X113430500Y-86271418D01*
X122064500Y-86271418D01*
X122064500Y-86448581D01*
X122092213Y-86623552D01*
X122146956Y-86792038D01*
X122146957Y-86792041D01*
X122146958Y-86792042D01*
X122227386Y-86949890D01*
X122331517Y-87093214D01*
X122456786Y-87218483D01*
X122600110Y-87322614D01*
X122757958Y-87403042D01*
X122926445Y-87457786D01*
X123013933Y-87471643D01*
X123101419Y-87485500D01*
X123101421Y-87485500D01*
X123278581Y-87485500D01*
X123348569Y-87474414D01*
X123453555Y-87457786D01*
X123622042Y-87403042D01*
X123779890Y-87322614D01*
X123923214Y-87218483D01*
X124048483Y-87093214D01*
X124152614Y-86949890D01*
X124233042Y-86792042D01*
X124287786Y-86623555D01*
X124315500Y-86448579D01*
X124315500Y-86271421D01*
X124315500Y-86271418D01*
X137304500Y-86271418D01*
X137304500Y-86448581D01*
X137332213Y-86623552D01*
X137386956Y-86792038D01*
X137386957Y-86792041D01*
X137386958Y-86792042D01*
X137467386Y-86949890D01*
X137571517Y-87093214D01*
X137696786Y-87218483D01*
X137840110Y-87322614D01*
X137997958Y-87403042D01*
X138166445Y-87457786D01*
X138253933Y-87471643D01*
X138341419Y-87485500D01*
X138341421Y-87485500D01*
X138518581Y-87485500D01*
X138588569Y-87474414D01*
X138693555Y-87457786D01*
X138862042Y-87403042D01*
X139019890Y-87322614D01*
X139163214Y-87218483D01*
X139288483Y-87093214D01*
X139392614Y-86949890D01*
X139473042Y-86792042D01*
X139527786Y-86623555D01*
X139555500Y-86448579D01*
X139555500Y-86271421D01*
X139527786Y-86096445D01*
X139473042Y-85927958D01*
X139392614Y-85770110D01*
X139288483Y-85626786D01*
X139163214Y-85501517D01*
X139019890Y-85397386D01*
X138862042Y-85316958D01*
X138862041Y-85316957D01*
X138862038Y-85316956D01*
X138693552Y-85262213D01*
X138518581Y-85234500D01*
X138518579Y-85234500D01*
X138341421Y-85234500D01*
X138341419Y-85234500D01*
X138166447Y-85262213D01*
X137997961Y-85316956D01*
X137840108Y-85397387D01*
X137696786Y-85501517D01*
X137571517Y-85626786D01*
X137467387Y-85770108D01*
X137386956Y-85927961D01*
X137332213Y-86096447D01*
X137304500Y-86271418D01*
X124315500Y-86271418D01*
X124287786Y-86096445D01*
X124233042Y-85927958D01*
X124152614Y-85770110D01*
X124048483Y-85626786D01*
X123923214Y-85501517D01*
X123779890Y-85397386D01*
X123622042Y-85316958D01*
X123622041Y-85316957D01*
X123622038Y-85316956D01*
X123453552Y-85262213D01*
X123278581Y-85234500D01*
X123278579Y-85234500D01*
X123101421Y-85234500D01*
X123101419Y-85234500D01*
X122926447Y-85262213D01*
X122757961Y-85316956D01*
X122600108Y-85397387D01*
X122456786Y-85501517D01*
X122331517Y-85626786D01*
X122227387Y-85770108D01*
X122146956Y-85927961D01*
X122092213Y-86096447D01*
X122064500Y-86271418D01*
X113430500Y-86271418D01*
X113430500Y-83731418D01*
X122064500Y-83731418D01*
X122064500Y-83908581D01*
X122092213Y-84083552D01*
X122146956Y-84252038D01*
X122146957Y-84252041D01*
X122146958Y-84252042D01*
X122227386Y-84409890D01*
X122331517Y-84553214D01*
X122456786Y-84678483D01*
X122600110Y-84782614D01*
X122757958Y-84863042D01*
X122926445Y-84917786D01*
X123013933Y-84931643D01*
X123101419Y-84945500D01*
X123101421Y-84945500D01*
X123278581Y-84945500D01*
X123348569Y-84934414D01*
X123453555Y-84917786D01*
X123622042Y-84863042D01*
X123779890Y-84782614D01*
X123923214Y-84678483D01*
X124048483Y-84553214D01*
X124152614Y-84409890D01*
X124233042Y-84252042D01*
X124287786Y-84083555D01*
X124315500Y-83908579D01*
X124315500Y-83731421D01*
X124315500Y-83731418D01*
X137304500Y-83731418D01*
X137304500Y-83908581D01*
X137332213Y-84083552D01*
X137386956Y-84252038D01*
X137386957Y-84252041D01*
X137386958Y-84252042D01*
X137467386Y-84409890D01*
X137571517Y-84553214D01*
X137696786Y-84678483D01*
X137840110Y-84782614D01*
X137997958Y-84863042D01*
X138166445Y-84917786D01*
X138253933Y-84931643D01*
X138341419Y-84945500D01*
X138341421Y-84945500D01*
X138518581Y-84945500D01*
X138588569Y-84934414D01*
X138693555Y-84917786D01*
X138862042Y-84863042D01*
X139018524Y-84783310D01*
X164053500Y-84783310D01*
X164053500Y-84960689D01*
X164088105Y-85134662D01*
X164088105Y-85134665D01*
X164155988Y-85298549D01*
X164222030Y-85397387D01*
X164254536Y-85446035D01*
X164379965Y-85571464D01*
X164527453Y-85670013D01*
X164691334Y-85737894D01*
X164865309Y-85772500D01*
X164865311Y-85772500D01*
X165842689Y-85772500D01*
X165842691Y-85772500D01*
X166016666Y-85737894D01*
X166180547Y-85670013D01*
X166328035Y-85571464D01*
X166453464Y-85446035D01*
X166552013Y-85298547D01*
X166619894Y-85134666D01*
X166654500Y-84960691D01*
X166654500Y-84783309D01*
X166619894Y-84609334D01*
X166552013Y-84445453D01*
X166453464Y-84297965D01*
X166328035Y-84172536D01*
X166328031Y-84172533D01*
X166180549Y-84073988D01*
X166016664Y-84006105D01*
X165911901Y-83985266D01*
X165842691Y-83971500D01*
X164865309Y-83971500D01*
X164778913Y-83988685D01*
X164691337Y-84006105D01*
X164691334Y-84006105D01*
X164527450Y-84073988D01*
X164379968Y-84172533D01*
X164254533Y-84297968D01*
X164155988Y-84445450D01*
X164088105Y-84609334D01*
X164088105Y-84609337D01*
X164053500Y-84783310D01*
X139018524Y-84783310D01*
X139019890Y-84782614D01*
X139163214Y-84678483D01*
X139288483Y-84553214D01*
X139392614Y-84409890D01*
X139473042Y-84252042D01*
X139527786Y-84083555D01*
X139555500Y-83908579D01*
X139555500Y-83731421D01*
X139527786Y-83556445D01*
X139473042Y-83387958D01*
X139392614Y-83230110D01*
X139288483Y-83086786D01*
X139163214Y-82961517D01*
X139019890Y-82857386D01*
X138862042Y-82776958D01*
X138862041Y-82776957D01*
X138862038Y-82776956D01*
X138693552Y-82722213D01*
X138518581Y-82694500D01*
X138518579Y-82694500D01*
X138341421Y-82694500D01*
X138341419Y-82694500D01*
X138166447Y-82722213D01*
X137997961Y-82776956D01*
X137840108Y-82857387D01*
X137696786Y-82961517D01*
X137571517Y-83086786D01*
X137467387Y-83230108D01*
X137386956Y-83387961D01*
X137332213Y-83556447D01*
X137304500Y-83731418D01*
X124315500Y-83731418D01*
X124287786Y-83556445D01*
X124233042Y-83387958D01*
X124152614Y-83230110D01*
X124048483Y-83086786D01*
X123923214Y-82961517D01*
X123779890Y-82857386D01*
X123622042Y-82776958D01*
X123622041Y-82776957D01*
X123622038Y-82776956D01*
X123453552Y-82722213D01*
X123278581Y-82694500D01*
X123278579Y-82694500D01*
X123101421Y-82694500D01*
X123101419Y-82694500D01*
X122926447Y-82722213D01*
X122757961Y-82776956D01*
X122600108Y-82857387D01*
X122456786Y-82961517D01*
X122331517Y-83086786D01*
X122227387Y-83230108D01*
X122146956Y-83387961D01*
X122092213Y-83556447D01*
X122064500Y-83731418D01*
X113430500Y-83731418D01*
X113430500Y-81191418D01*
X122064500Y-81191418D01*
X122064500Y-81368581D01*
X122092213Y-81543552D01*
X122146956Y-81712038D01*
X122146957Y-81712041D01*
X122146958Y-81712042D01*
X122227386Y-81869890D01*
X122331517Y-82013214D01*
X122456786Y-82138483D01*
X122600110Y-82242614D01*
X122757958Y-82323042D01*
X122926445Y-82377786D01*
X123013933Y-82391643D01*
X123101419Y-82405500D01*
X123101421Y-82405500D01*
X123278581Y-82405500D01*
X123348569Y-82394414D01*
X123453555Y-82377786D01*
X123622042Y-82323042D01*
X123779890Y-82242614D01*
X123923214Y-82138483D01*
X124048483Y-82013214D01*
X124152614Y-81869890D01*
X124233042Y-81712042D01*
X124287786Y-81543555D01*
X124315500Y-81368579D01*
X124315500Y-81191421D01*
X124315500Y-81191418D01*
X137304500Y-81191418D01*
X137304500Y-81368581D01*
X137332213Y-81543552D01*
X137386956Y-81712038D01*
X137386957Y-81712041D01*
X137386958Y-81712042D01*
X137467386Y-81869890D01*
X137571517Y-82013214D01*
X137696786Y-82138483D01*
X137840110Y-82242614D01*
X137997958Y-82323042D01*
X138166445Y-82377786D01*
X138253933Y-82391643D01*
X138341419Y-82405500D01*
X138341421Y-82405500D01*
X138518581Y-82405500D01*
X138588569Y-82394414D01*
X138693555Y-82377786D01*
X138862042Y-82323042D01*
X139019890Y-82242614D01*
X139163214Y-82138483D01*
X139288483Y-82013214D01*
X139392614Y-81869890D01*
X139473042Y-81712042D01*
X139527786Y-81543555D01*
X139555500Y-81368579D01*
X139555500Y-81191421D01*
X139527786Y-81016445D01*
X139473042Y-80847958D01*
X139392614Y-80690110D01*
X139288483Y-80546786D01*
X139163214Y-80421517D01*
X139019890Y-80317386D01*
X138862042Y-80236958D01*
X138862041Y-80236957D01*
X138862038Y-80236956D01*
X138693552Y-80182213D01*
X138518581Y-80154500D01*
X138518579Y-80154500D01*
X138341421Y-80154500D01*
X138341419Y-80154500D01*
X138166447Y-80182213D01*
X137997961Y-80236956D01*
X137840108Y-80317387D01*
X137696786Y-80421517D01*
X137571517Y-80546786D01*
X137467387Y-80690108D01*
X137386956Y-80847961D01*
X137332213Y-81016447D01*
X137304500Y-81191418D01*
X124315500Y-81191418D01*
X124287786Y-81016445D01*
X124233042Y-80847958D01*
X124152614Y-80690110D01*
X124048483Y-80546786D01*
X123923214Y-80421517D01*
X123779890Y-80317386D01*
X123622042Y-80236958D01*
X123622041Y-80236957D01*
X123622038Y-80236956D01*
X123453552Y-80182213D01*
X123278581Y-80154500D01*
X123278579Y-80154500D01*
X123101421Y-80154500D01*
X123101419Y-80154500D01*
X122926447Y-80182213D01*
X122757961Y-80236956D01*
X122600108Y-80317387D01*
X122456786Y-80421517D01*
X122331517Y-80546786D01*
X122227387Y-80690108D01*
X122146956Y-80847961D01*
X122092213Y-81016447D01*
X122064500Y-81191418D01*
X113430500Y-81191418D01*
X113430500Y-78651418D01*
X122064500Y-78651418D01*
X122064500Y-78828581D01*
X122092213Y-79003552D01*
X122146956Y-79172038D01*
X122146957Y-79172041D01*
X122146958Y-79172042D01*
X122227386Y-79329890D01*
X122331517Y-79473214D01*
X122456786Y-79598483D01*
X122600110Y-79702614D01*
X122757958Y-79783042D01*
X122926445Y-79837786D01*
X123013933Y-79851643D01*
X123101419Y-79865500D01*
X123101421Y-79865500D01*
X123278581Y-79865500D01*
X123329545Y-79857428D01*
X123384167Y-79848776D01*
X123453555Y-79837786D01*
X123622042Y-79783042D01*
X123779890Y-79702614D01*
X123923214Y-79598483D01*
X124048483Y-79473214D01*
X124152614Y-79329890D01*
X124233042Y-79172042D01*
X124287786Y-79003555D01*
X124315500Y-78828579D01*
X124315500Y-78651421D01*
X124315500Y-78651418D01*
X124312604Y-78633132D01*
X124312390Y-78631782D01*
X137055000Y-78631782D01*
X137055000Y-78848217D01*
X137088856Y-79061977D01*
X137155735Y-79267813D01*
X137253995Y-79460658D01*
X137296830Y-79519613D01*
X137947036Y-78869407D01*
X137964075Y-78932993D01*
X138029901Y-79047007D01*
X138122993Y-79140099D01*
X138237007Y-79205925D01*
X138300590Y-79222962D01*
X137650385Y-79873168D01*
X137709344Y-79916005D01*
X137902186Y-80014264D01*
X138108022Y-80081143D01*
X138321783Y-80115000D01*
X138538217Y-80115000D01*
X138751977Y-80081143D01*
X138957813Y-80014264D01*
X139150655Y-79916005D01*
X139209613Y-79873168D01*
X138559407Y-79222962D01*
X138622993Y-79205925D01*
X138737007Y-79140099D01*
X138830099Y-79047007D01*
X138895925Y-78932993D01*
X138912962Y-78869407D01*
X139563168Y-79519613D01*
X139606005Y-79460655D01*
X139704264Y-79267813D01*
X139771143Y-79061977D01*
X139805000Y-78848217D01*
X139805000Y-78631782D01*
X139771143Y-78418022D01*
X139704264Y-78212186D01*
X139606005Y-78019344D01*
X139563168Y-77960385D01*
X138912962Y-78610590D01*
X138895925Y-78547007D01*
X138830099Y-78432993D01*
X138737007Y-78339901D01*
X138622993Y-78274075D01*
X138559406Y-78257036D01*
X138917501Y-77898943D01*
X151418500Y-77898943D01*
X151418500Y-78057056D01*
X151459421Y-78209778D01*
X151459425Y-78209788D01*
X151476868Y-78240000D01*
X151516959Y-78309440D01*
X151518500Y-78315189D01*
X151518500Y-79418809D01*
X151516959Y-79424559D01*
X151459425Y-79524211D01*
X151459421Y-79524221D01*
X151418500Y-79676943D01*
X151418500Y-79835056D01*
X151459421Y-79987778D01*
X151459425Y-79987788D01*
X151532870Y-80115000D01*
X151538480Y-80124716D01*
X151650284Y-80236520D01*
X151787216Y-80315577D01*
X151939943Y-80356500D01*
X152098057Y-80356500D01*
X152250784Y-80315577D01*
X152387716Y-80236520D01*
X152499520Y-80124716D01*
X152578577Y-79987784D01*
X152619500Y-79835057D01*
X152619500Y-79676943D01*
X152578577Y-79524216D01*
X152521041Y-79424559D01*
X152519500Y-79418809D01*
X152519500Y-78673460D01*
X164353500Y-78673460D01*
X164353500Y-78870539D01*
X164391948Y-79063831D01*
X164391948Y-79063834D01*
X164423538Y-79140099D01*
X164464918Y-79240000D01*
X164467369Y-79245916D01*
X164576858Y-79409778D01*
X164576861Y-79409782D01*
X164716218Y-79549139D01*
X164880086Y-79658632D01*
X165062165Y-79734051D01*
X165159125Y-79753337D01*
X165196242Y-79760721D01*
X165203560Y-79765611D01*
X165205277Y-79774244D01*
X165200387Y-79781562D01*
X165196242Y-79783279D01*
X165062168Y-79809948D01*
X165062165Y-79809948D01*
X164880083Y-79885369D01*
X164716221Y-79994858D01*
X164576858Y-80134221D01*
X164467369Y-80298083D01*
X164391948Y-80480165D01*
X164391948Y-80480168D01*
X164353500Y-80673460D01*
X164353500Y-80870539D01*
X164391948Y-81063831D01*
X164391948Y-81063834D01*
X164444795Y-81191418D01*
X164467368Y-81245914D01*
X164576861Y-81409782D01*
X164716218Y-81549139D01*
X164880086Y-81658632D01*
X165062165Y-81734051D01*
X165159125Y-81753337D01*
X165196242Y-81760721D01*
X165203560Y-81765611D01*
X165205277Y-81774244D01*
X165200387Y-81781562D01*
X165196242Y-81783279D01*
X165062168Y-81809948D01*
X165062165Y-81809948D01*
X164880083Y-81885369D01*
X164716221Y-81994858D01*
X164576858Y-82134221D01*
X164467369Y-82298083D01*
X164391948Y-82480165D01*
X164391948Y-82480168D01*
X164353500Y-82673459D01*
X164353500Y-82870541D01*
X164378900Y-82998238D01*
X164391948Y-83063831D01*
X164391948Y-83063834D01*
X164467369Y-83245916D01*
X164576858Y-83409778D01*
X164576861Y-83409782D01*
X164716218Y-83549139D01*
X164880086Y-83658632D01*
X165062165Y-83734051D01*
X165255459Y-83772500D01*
X165255461Y-83772500D01*
X165452539Y-83772500D01*
X165452541Y-83772500D01*
X165645835Y-83734051D01*
X165827914Y-83658632D01*
X165991782Y-83549139D01*
X166131139Y-83409782D01*
X166240632Y-83245914D01*
X166316051Y-83063835D01*
X166354500Y-82870541D01*
X166354500Y-82673459D01*
X166316051Y-82480165D01*
X166240632Y-82298086D01*
X166131139Y-82134218D01*
X165991782Y-81994861D01*
X165991778Y-81994858D01*
X165827916Y-81885369D01*
X165790546Y-81869890D01*
X165645835Y-81809949D01*
X165645833Y-81809948D01*
X165511757Y-81783279D01*
X165504439Y-81778389D01*
X165502722Y-81769756D01*
X165507612Y-81762438D01*
X165511757Y-81760721D01*
X165514565Y-81760162D01*
X165645835Y-81734051D01*
X165827914Y-81658632D01*
X165991782Y-81549139D01*
X166131139Y-81409782D01*
X166240632Y-81245914D01*
X166316051Y-81063835D01*
X166354500Y-80870541D01*
X166354500Y-80673459D01*
X166316051Y-80480165D01*
X166240632Y-80298086D01*
X166131139Y-80134218D01*
X165991782Y-79994861D01*
X165991778Y-79994858D01*
X165827916Y-79885369D01*
X165645833Y-79809948D01*
X165511757Y-79783279D01*
X165504439Y-79778389D01*
X165502722Y-79769756D01*
X165507612Y-79762438D01*
X165511757Y-79760721D01*
X165514565Y-79760162D01*
X165645835Y-79734051D01*
X165827914Y-79658632D01*
X165991782Y-79549139D01*
X166131139Y-79409782D01*
X166240632Y-79245914D01*
X166316051Y-79063835D01*
X166354500Y-78870541D01*
X166354500Y-78673459D01*
X166316051Y-78480165D01*
X166240632Y-78298086D01*
X166131139Y-78134218D01*
X165991782Y-77994861D01*
X165940185Y-77960385D01*
X165827916Y-77885369D01*
X165818616Y-77881517D01*
X165645835Y-77809949D01*
X165645833Y-77809948D01*
X165529437Y-77786795D01*
X165452541Y-77771500D01*
X165255459Y-77771500D01*
X165159469Y-77790593D01*
X165062168Y-77809948D01*
X165062165Y-77809948D01*
X164880083Y-77885369D01*
X164716221Y-77994858D01*
X164576858Y-78134221D01*
X164467369Y-78298083D01*
X164391948Y-78480165D01*
X164391948Y-78480168D01*
X164353500Y-78673460D01*
X152519500Y-78673460D01*
X152519500Y-78315189D01*
X152521040Y-78309440D01*
X152578577Y-78209784D01*
X152619500Y-78057057D01*
X152619500Y-77898943D01*
X152578577Y-77746216D01*
X152499520Y-77609284D01*
X152387716Y-77497480D01*
X152387715Y-77497479D01*
X152250788Y-77418425D01*
X152250786Y-77418424D01*
X152250784Y-77418423D01*
X152250780Y-77418422D01*
X152250778Y-77418421D01*
X152098057Y-77377500D01*
X151939943Y-77377500D01*
X151787221Y-77418421D01*
X151787211Y-77418425D01*
X151650284Y-77497479D01*
X151538479Y-77609284D01*
X151459425Y-77746211D01*
X151459421Y-77746221D01*
X151418500Y-77898943D01*
X138917501Y-77898943D01*
X138926387Y-77890057D01*
X139209613Y-77606830D01*
X139150658Y-77563995D01*
X138957813Y-77465735D01*
X138751977Y-77398856D01*
X138538217Y-77365000D01*
X138321783Y-77365000D01*
X138108022Y-77398856D01*
X137902186Y-77465735D01*
X137709338Y-77563997D01*
X137650384Y-77606829D01*
X137650383Y-77606829D01*
X138300591Y-78257037D01*
X138237007Y-78274075D01*
X138122993Y-78339901D01*
X138029901Y-78432993D01*
X137964075Y-78547007D01*
X137947037Y-78610591D01*
X137296829Y-77960383D01*
X137296829Y-77960384D01*
X137253997Y-78019338D01*
X137155735Y-78212186D01*
X137088856Y-78418022D01*
X137055000Y-78631782D01*
X124312390Y-78631782D01*
X124295170Y-78523069D01*
X124287786Y-78476445D01*
X124233042Y-78307958D01*
X124152614Y-78150110D01*
X124048483Y-78006786D01*
X123923214Y-77881517D01*
X123779890Y-77777386D01*
X123622042Y-77696958D01*
X123622041Y-77696957D01*
X123622038Y-77696956D01*
X123453552Y-77642213D01*
X123329539Y-77622571D01*
X123278581Y-77614500D01*
X123278579Y-77614500D01*
X123101421Y-77614500D01*
X123101419Y-77614500D01*
X122926447Y-77642213D01*
X122757961Y-77696956D01*
X122600108Y-77777387D01*
X122456786Y-77881517D01*
X122331517Y-78006786D01*
X122227387Y-78150108D01*
X122146956Y-78307961D01*
X122092213Y-78476447D01*
X122064500Y-78651418D01*
X113430500Y-78651418D01*
X113430500Y-74930279D01*
X113430514Y-74929715D01*
X113435879Y-74820510D01*
X115169500Y-74820510D01*
X115169500Y-75039490D01*
X115198083Y-75256598D01*
X115198084Y-75256602D01*
X115198085Y-75256609D01*
X115198085Y-75256610D01*
X115254757Y-75468111D01*
X115254757Y-75468112D01*
X115338561Y-75670431D01*
X115448047Y-75860067D01*
X115448049Y-75860070D01*
X115448050Y-75860071D01*
X115581357Y-76033800D01*
X115736200Y-76188643D01*
X115909929Y-76321950D01*
X115909932Y-76321952D01*
X116099568Y-76431438D01*
X116099569Y-76431438D01*
X116099572Y-76431440D01*
X116301883Y-76515241D01*
X116301887Y-76515242D01*
X116513390Y-76571914D01*
X116513391Y-76571914D01*
X116513402Y-76571917D01*
X116730510Y-76600500D01*
X116730514Y-76600500D01*
X116949486Y-76600500D01*
X116949490Y-76600500D01*
X117166598Y-76571917D01*
X117166609Y-76571914D01*
X117166610Y-76571914D01*
X117221953Y-76557084D01*
X117378117Y-76515241D01*
X117580428Y-76431440D01*
X117770071Y-76321950D01*
X117943800Y-76188643D01*
X118021025Y-76111418D01*
X122064500Y-76111418D01*
X122064500Y-76288581D01*
X122092213Y-76463552D01*
X122146956Y-76632038D01*
X122146957Y-76632041D01*
X122146958Y-76632042D01*
X122227386Y-76789890D01*
X122331517Y-76933214D01*
X122456786Y-77058483D01*
X122600110Y-77162614D01*
X122757958Y-77243042D01*
X122926445Y-77297786D01*
X123013933Y-77311643D01*
X123101419Y-77325500D01*
X123101421Y-77325500D01*
X123278581Y-77325500D01*
X123348569Y-77314414D01*
X123453555Y-77297786D01*
X123622042Y-77243042D01*
X123779890Y-77162614D01*
X123923214Y-77058483D01*
X124048483Y-76933214D01*
X124152614Y-76789890D01*
X124233042Y-76632042D01*
X124287786Y-76463555D01*
X124310214Y-76321952D01*
X124315500Y-76288581D01*
X124315500Y-76111418D01*
X137304500Y-76111418D01*
X137304500Y-76288581D01*
X137332213Y-76463552D01*
X137386956Y-76632038D01*
X137386957Y-76632041D01*
X137386958Y-76632042D01*
X137467386Y-76789890D01*
X137571517Y-76933214D01*
X137696786Y-77058483D01*
X137840110Y-77162614D01*
X137997958Y-77243042D01*
X138166445Y-77297786D01*
X138253933Y-77311643D01*
X138341419Y-77325500D01*
X138341421Y-77325500D01*
X138518581Y-77325500D01*
X138588569Y-77314414D01*
X138693555Y-77297786D01*
X138862042Y-77243042D01*
X139019890Y-77162614D01*
X139163214Y-77058483D01*
X139288483Y-76933214D01*
X139392614Y-76789890D01*
X139473042Y-76632042D01*
X139478906Y-76613991D01*
X139488876Y-76583309D01*
X164053500Y-76583309D01*
X164053500Y-76760691D01*
X164076361Y-76875624D01*
X164088105Y-76934662D01*
X164088105Y-76934665D01*
X164155988Y-77098549D01*
X164254533Y-77246031D01*
X164254536Y-77246035D01*
X164379965Y-77371464D01*
X164527453Y-77470013D01*
X164691334Y-77537894D01*
X164865309Y-77572500D01*
X164865311Y-77572500D01*
X165842689Y-77572500D01*
X165842691Y-77572500D01*
X166016666Y-77537894D01*
X166180547Y-77470013D01*
X166328035Y-77371464D01*
X166453464Y-77246035D01*
X166552013Y-77098547D01*
X166619894Y-76934666D01*
X166654500Y-76760691D01*
X166654500Y-76583309D01*
X166619894Y-76409334D01*
X166552013Y-76245453D01*
X166453464Y-76097965D01*
X166328035Y-75972536D01*
X166328031Y-75972533D01*
X166180549Y-75873988D01*
X166016664Y-75806105D01*
X165911901Y-75785266D01*
X165842691Y-75771500D01*
X164865309Y-75771500D01*
X164778913Y-75788685D01*
X164691337Y-75806105D01*
X164691334Y-75806105D01*
X164527450Y-75873988D01*
X164379968Y-75972533D01*
X164254533Y-76097968D01*
X164155988Y-76245450D01*
X164088105Y-76409334D01*
X164088105Y-76409337D01*
X164067040Y-76515241D01*
X164053500Y-76583309D01*
X139488876Y-76583309D01*
X139490215Y-76579190D01*
X139510992Y-76515241D01*
X139527786Y-76463555D01*
X139550214Y-76321952D01*
X139555500Y-76288581D01*
X139555500Y-76111418D01*
X139527786Y-75936447D01*
X139527786Y-75936445D01*
X139473042Y-75767958D01*
X139392614Y-75610110D01*
X139288483Y-75466786D01*
X139163214Y-75341517D01*
X139019890Y-75237386D01*
X138862042Y-75156958D01*
X138862041Y-75156957D01*
X138862038Y-75156956D01*
X138693552Y-75102213D01*
X138518581Y-75074500D01*
X138518579Y-75074500D01*
X138341421Y-75074500D01*
X138341419Y-75074500D01*
X138166447Y-75102213D01*
X137997961Y-75156956D01*
X137840108Y-75237387D01*
X137696786Y-75341517D01*
X137571517Y-75466786D01*
X137467387Y-75610108D01*
X137386956Y-75767961D01*
X137332213Y-75936447D01*
X137304500Y-76111418D01*
X124315500Y-76111418D01*
X124287786Y-75936447D01*
X124287786Y-75936445D01*
X124233042Y-75767958D01*
X124152614Y-75610110D01*
X124048483Y-75466786D01*
X123923214Y-75341517D01*
X123779890Y-75237386D01*
X123622042Y-75156958D01*
X123622041Y-75156957D01*
X123622038Y-75156956D01*
X123453552Y-75102213D01*
X123278581Y-75074500D01*
X123278579Y-75074500D01*
X123101421Y-75074500D01*
X123101419Y-75074500D01*
X122926447Y-75102213D01*
X122757961Y-75156956D01*
X122600108Y-75237387D01*
X122456786Y-75341517D01*
X122331517Y-75466786D01*
X122227387Y-75610108D01*
X122146956Y-75767961D01*
X122092213Y-75936447D01*
X122064500Y-76111418D01*
X118021025Y-76111418D01*
X118098643Y-76033800D01*
X118231950Y-75860071D01*
X118341440Y-75670428D01*
X118425241Y-75468117D01*
X118481917Y-75256598D01*
X118510500Y-75039490D01*
X118510500Y-74820510D01*
X171049500Y-74820510D01*
X171049500Y-75039490D01*
X171078083Y-75256598D01*
X171078084Y-75256602D01*
X171078085Y-75256609D01*
X171078085Y-75256610D01*
X171134757Y-75468111D01*
X171134757Y-75468112D01*
X171218561Y-75670431D01*
X171328047Y-75860067D01*
X171328049Y-75860070D01*
X171328050Y-75860071D01*
X171461357Y-76033800D01*
X171616200Y-76188643D01*
X171789929Y-76321950D01*
X171789932Y-76321952D01*
X171979568Y-76431438D01*
X171979569Y-76431438D01*
X171979572Y-76431440D01*
X172181883Y-76515241D01*
X172181887Y-76515242D01*
X172393390Y-76571914D01*
X172393391Y-76571914D01*
X172393402Y-76571917D01*
X172610510Y-76600500D01*
X172610514Y-76600500D01*
X172829486Y-76600500D01*
X172829490Y-76600500D01*
X173046598Y-76571917D01*
X173046609Y-76571914D01*
X173046610Y-76571914D01*
X173101953Y-76557084D01*
X173258117Y-76515241D01*
X173460428Y-76431440D01*
X173650071Y-76321950D01*
X173823800Y-76188643D01*
X173978643Y-76033800D01*
X174111950Y-75860071D01*
X174221440Y-75670428D01*
X174305241Y-75468117D01*
X174361917Y-75256598D01*
X174390500Y-75039490D01*
X174390500Y-74820510D01*
X174361917Y-74603402D01*
X174305241Y-74391883D01*
X174221440Y-74189572D01*
X174111950Y-73999929D01*
X173978643Y-73826200D01*
X173823800Y-73671357D01*
X173650071Y-73538050D01*
X173650070Y-73538049D01*
X173650067Y-73538047D01*
X173460431Y-73428561D01*
X173258112Y-73344757D01*
X173046609Y-73288085D01*
X173046602Y-73288084D01*
X173046598Y-73288083D01*
X172871313Y-73265006D01*
X172829491Y-73259500D01*
X172829490Y-73259500D01*
X172610510Y-73259500D01*
X172610508Y-73259500D01*
X172526862Y-73270512D01*
X172393402Y-73288083D01*
X172393398Y-73288083D01*
X172393390Y-73288085D01*
X172393389Y-73288085D01*
X172181888Y-73344757D01*
X172181887Y-73344757D01*
X171979568Y-73428561D01*
X171789932Y-73538047D01*
X171724780Y-73588040D01*
X171616200Y-73671357D01*
X171616195Y-73671362D01*
X171616193Y-73671363D01*
X171461363Y-73826193D01*
X171461362Y-73826195D01*
X171461357Y-73826200D01*
X171378040Y-73934780D01*
X171328047Y-73999932D01*
X171218561Y-74189568D01*
X171134757Y-74391887D01*
X171134757Y-74391888D01*
X171078085Y-74603389D01*
X171078085Y-74603390D01*
X171049624Y-74819570D01*
X171049500Y-74820510D01*
X118510500Y-74820510D01*
X118481917Y-74603402D01*
X118425241Y-74391883D01*
X118341440Y-74189572D01*
X118231950Y-73999929D01*
X118098643Y-73826200D01*
X117943800Y-73671357D01*
X117770071Y-73538050D01*
X117770070Y-73538049D01*
X117770067Y-73538047D01*
X117580431Y-73428561D01*
X117378112Y-73344757D01*
X117166609Y-73288085D01*
X117166602Y-73288084D01*
X117166598Y-73288083D01*
X116991313Y-73265006D01*
X116949491Y-73259500D01*
X116949490Y-73259500D01*
X116730510Y-73259500D01*
X116730508Y-73259500D01*
X116646862Y-73270512D01*
X116513402Y-73288083D01*
X116513398Y-73288083D01*
X116513390Y-73288085D01*
X116513389Y-73288085D01*
X116301888Y-73344757D01*
X116301887Y-73344757D01*
X116099568Y-73428561D01*
X115909932Y-73538047D01*
X115844780Y-73588040D01*
X115736200Y-73671357D01*
X115736195Y-73671362D01*
X115736193Y-73671363D01*
X115581363Y-73826193D01*
X115581362Y-73826195D01*
X115581357Y-73826200D01*
X115498040Y-73934780D01*
X115448047Y-73999932D01*
X115338561Y-74189568D01*
X115254757Y-74391887D01*
X115254757Y-74391888D01*
X115198085Y-74603389D01*
X115198085Y-74603390D01*
X115169624Y-74819570D01*
X115169500Y-74820510D01*
X113435879Y-74820510D01*
X113435925Y-74819570D01*
X113440063Y-74735337D01*
X113446891Y-74596360D01*
X113446996Y-74595278D01*
X113495932Y-74265385D01*
X113496152Y-74264284D01*
X113577175Y-73940817D01*
X113577496Y-73939757D01*
X113689846Y-73625761D01*
X113690269Y-73624741D01*
X113832850Y-73323277D01*
X113833380Y-73322287D01*
X113871013Y-73259500D01*
X114004821Y-73036253D01*
X114005426Y-73035347D01*
X114204091Y-72767480D01*
X114204796Y-72766621D01*
X114428751Y-72519524D01*
X114429524Y-72518751D01*
X114676621Y-72294796D01*
X114677480Y-72294091D01*
X114945347Y-72095426D01*
X114946253Y-72094821D01*
X115232291Y-71923377D01*
X115233277Y-71922850D01*
X115534741Y-71780269D01*
X115535761Y-71779846D01*
X115849757Y-71667496D01*
X115850817Y-71667175D01*
X116174289Y-71586150D01*
X116175385Y-71585932D01*
X116505278Y-71536996D01*
X116506360Y-71536891D01*
X116839715Y-71520513D01*
X116840279Y-71520500D01*
X116897583Y-71520500D01*
X172662417Y-71520500D01*
X172719721Y-71520500D01*
X172720284Y-71520513D01*
G37*
%TD.AperFunction*%
%TD*%
%TA.AperFunction,Conductor*%
%TO.N,/MOSI*%
G36*
X131462442Y-91756853D02*
G01*
X131463102Y-91757153D01*
X131588974Y-91819301D01*
X131590076Y-91819923D01*
X131685001Y-91880564D01*
X131685013Y-91880571D01*
X131768256Y-91929909D01*
X131768259Y-91929909D01*
X131768261Y-91929911D01*
X131836922Y-91952366D01*
X131869273Y-91962947D01*
X131869274Y-91962947D01*
X131869277Y-91962948D01*
X132007246Y-91974128D01*
X132015214Y-91978212D01*
X132018000Y-91985790D01*
X132018000Y-92164209D01*
X132014573Y-92172482D01*
X132007245Y-92175871D01*
X131869272Y-92187051D01*
X131768263Y-92220086D01*
X131768256Y-92220088D01*
X131685013Y-92269426D01*
X131590085Y-92330070D01*
X131588966Y-92330701D01*
X131463116Y-92392839D01*
X131454181Y-92393429D01*
X131447445Y-92387528D01*
X131447138Y-92386854D01*
X131377546Y-92220088D01*
X131318879Y-92079505D01*
X131318857Y-92070551D01*
X131318880Y-92070494D01*
X131447139Y-91763143D01*
X131453487Y-91756830D01*
X131462442Y-91756853D01*
G37*
%TD.AperFunction*%
%TD*%
%TA.AperFunction,Conductor*%
%TO.N,/SCL*%
G36*
X126362554Y-93159471D02*
G01*
X126362861Y-93160145D01*
X126491119Y-93467494D01*
X126491142Y-93476449D01*
X126491119Y-93476506D01*
X126362861Y-93783854D01*
X126356512Y-93790169D01*
X126347557Y-93790146D01*
X126346883Y-93789839D01*
X126221032Y-93727701D01*
X126219913Y-93727070D01*
X126124985Y-93666426D01*
X126041742Y-93617088D01*
X126041735Y-93617086D01*
X125940725Y-93584051D01*
X125940727Y-93584051D01*
X125802755Y-93572871D01*
X125794786Y-93568787D01*
X125792000Y-93561209D01*
X125792000Y-93382790D01*
X125795427Y-93374517D01*
X125802753Y-93371128D01*
X125940722Y-93359948D01*
X126041737Y-93326911D01*
X126124998Y-93277564D01*
X126219929Y-93216918D01*
X126221016Y-93216305D01*
X126346885Y-93154159D01*
X126355819Y-93153570D01*
X126362554Y-93159471D01*
G37*
%TD.AperFunction*%
%TD*%
%TA.AperFunction,Conductor*%
%TO.N,+3V3*%
G36*
X132738518Y-112209671D02*
G01*
X132739024Y-112209897D01*
X132864018Y-112269154D01*
X132864794Y-112269558D01*
X132960516Y-112324043D01*
X133044985Y-112366231D01*
X133146565Y-112393388D01*
X133283062Y-112402286D01*
X133291094Y-112406244D01*
X133294000Y-112413961D01*
X133294000Y-112642038D01*
X133290573Y-112650311D01*
X133283061Y-112653713D01*
X133146570Y-112662610D01*
X133146566Y-112662610D01*
X133146565Y-112662611D01*
X133095775Y-112676189D01*
X133044984Y-112689768D01*
X132960515Y-112731955D01*
X132960502Y-112731962D01*
X132864794Y-112786440D01*
X132864018Y-112786844D01*
X132739024Y-112846102D01*
X132730080Y-112846550D01*
X132723440Y-112840542D01*
X132723214Y-112840036D01*
X132678111Y-112731955D01*
X132594879Y-112532505D01*
X132594857Y-112523551D01*
X132594880Y-112523494D01*
X132649174Y-112393388D01*
X132723215Y-112215961D01*
X132729563Y-112209648D01*
X132738518Y-112209671D01*
G37*
%TD.AperFunction*%
%TD*%
%TA.AperFunction,Conductor*%
%TO.N,/MISO*%
G36*
X130035392Y-88278444D02*
G01*
X130161555Y-88404607D01*
X130164982Y-88412880D01*
X130162196Y-88420458D01*
X130072545Y-88525917D01*
X130072542Y-88525921D01*
X130024475Y-88620708D01*
X130000495Y-88714467D01*
X129976254Y-88824468D01*
X129975909Y-88825705D01*
X129930859Y-88958633D01*
X129924958Y-88965369D01*
X129916023Y-88965959D01*
X129915329Y-88965699D01*
X129607308Y-88839063D01*
X129600960Y-88832749D01*
X129474300Y-88524668D01*
X129474323Y-88515716D01*
X129480672Y-88509401D01*
X129481355Y-88509144D01*
X129614301Y-88464086D01*
X129615526Y-88463744D01*
X129725522Y-88439504D01*
X129819289Y-88415523D01*
X129914078Y-88367455D01*
X130019543Y-88277802D01*
X130028064Y-88275055D01*
X130035392Y-88278444D01*
G37*
%TD.AperFunction*%
%TD*%
%TA.AperFunction,Conductor*%
%TO.N,/SW4*%
G36*
X136021478Y-93472868D02*
G01*
X136328854Y-93601138D01*
X136335169Y-93607487D01*
X136335146Y-93616442D01*
X136334839Y-93617116D01*
X136272701Y-93742966D01*
X136272070Y-93744085D01*
X136211426Y-93839013D01*
X136162088Y-93922256D01*
X136162086Y-93922263D01*
X136129051Y-94023272D01*
X136117871Y-94161245D01*
X136113787Y-94169214D01*
X136106209Y-94172000D01*
X135927790Y-94172000D01*
X135919517Y-94168573D01*
X135916128Y-94161245D01*
X135904948Y-94023277D01*
X135904947Y-94023274D01*
X135904947Y-94023272D01*
X135888670Y-93973506D01*
X135871911Y-93922261D01*
X135871909Y-93922259D01*
X135871909Y-93922256D01*
X135822571Y-93839013D01*
X135822564Y-93839001D01*
X135761923Y-93744076D01*
X135761301Y-93742974D01*
X135699159Y-93617114D01*
X135698570Y-93608180D01*
X135704471Y-93601445D01*
X135705125Y-93601146D01*
X136012494Y-93472879D01*
X136021449Y-93472857D01*
X136021478Y-93472868D01*
G37*
%TD.AperFunction*%
%TD*%
%TA.AperFunction,Conductor*%
%TO.N,/SW5*%
G36*
X151225401Y-105690440D02*
G01*
X151231716Y-105696789D01*
X151231976Y-105697483D01*
X151277027Y-105830410D01*
X151277372Y-105831647D01*
X151301612Y-105941647D01*
X151325592Y-106035406D01*
X151373660Y-106130195D01*
X151426398Y-106192234D01*
X151463313Y-106235658D01*
X151466061Y-106244181D01*
X151462672Y-106251509D01*
X151336509Y-106377672D01*
X151328236Y-106381099D01*
X151320658Y-106378313D01*
X151215197Y-106288662D01*
X151215195Y-106288660D01*
X151120406Y-106240592D01*
X151026647Y-106216612D01*
X150916647Y-106192372D01*
X150915410Y-106192027D01*
X150782483Y-106146976D01*
X150775747Y-106141075D01*
X150775157Y-106132140D01*
X150775407Y-106131470D01*
X150902054Y-105823423D01*
X150908365Y-105817078D01*
X151216448Y-105690417D01*
X151225401Y-105690440D01*
G37*
%TD.AperFunction*%
%TD*%
%TA.AperFunction,Conductor*%
%TO.N,/SW4*%
G36*
X133220554Y-93159471D02*
G01*
X133220861Y-93160145D01*
X133349119Y-93467494D01*
X133349142Y-93476449D01*
X133349119Y-93476506D01*
X133220861Y-93783854D01*
X133214512Y-93790169D01*
X133205557Y-93790146D01*
X133204883Y-93789839D01*
X133079032Y-93727701D01*
X133077913Y-93727070D01*
X132982985Y-93666426D01*
X132899742Y-93617088D01*
X132899735Y-93617086D01*
X132798725Y-93584051D01*
X132798727Y-93584051D01*
X132660755Y-93572871D01*
X132652786Y-93568787D01*
X132650000Y-93561209D01*
X132650000Y-93382790D01*
X132653427Y-93374517D01*
X132660753Y-93371128D01*
X132798722Y-93359948D01*
X132798724Y-93359947D01*
X132798726Y-93359947D01*
X132822870Y-93352050D01*
X132899738Y-93326911D01*
X132899740Y-93326909D01*
X132899742Y-93326909D01*
X132928433Y-93309903D01*
X132982998Y-93277564D01*
X133077929Y-93216918D01*
X133079016Y-93216305D01*
X133204885Y-93154159D01*
X133213819Y-93153570D01*
X133220554Y-93159471D01*
G37*
%TD.AperFunction*%
%TD*%
%TA.AperFunction,Conductor*%
%TO.N,/CS_SD*%
G36*
X122178478Y-95885868D02*
G01*
X122485854Y-96014138D01*
X122492169Y-96020487D01*
X122492146Y-96029442D01*
X122491839Y-96030116D01*
X122429701Y-96155966D01*
X122429070Y-96157085D01*
X122368426Y-96252013D01*
X122319088Y-96335256D01*
X122319086Y-96335263D01*
X122286051Y-96436272D01*
X122274871Y-96574245D01*
X122270787Y-96582214D01*
X122263209Y-96585000D01*
X122084790Y-96585000D01*
X122076517Y-96581573D01*
X122073128Y-96574245D01*
X122061948Y-96436277D01*
X122061947Y-96436274D01*
X122061947Y-96436272D01*
X122045670Y-96386506D01*
X122028911Y-96335261D01*
X122028909Y-96335259D01*
X122028909Y-96335256D01*
X121979571Y-96252013D01*
X121979564Y-96252001D01*
X121918923Y-96157076D01*
X121918301Y-96155974D01*
X121856159Y-96030114D01*
X121855570Y-96021180D01*
X121861471Y-96014445D01*
X121862125Y-96014146D01*
X122169494Y-95885879D01*
X122178449Y-95885857D01*
X122178478Y-95885868D01*
G37*
%TD.AperFunction*%
%TD*%
M02*
