%TF.GenerationSoftware,KiCad,Pcbnew,9.0.6*%
%TF.CreationDate,2026-01-30T18:10:03-05:00*%
%TF.ProjectId,destinationWeatherStation_v4-5,64657374-696e-4617-9469-6f6e57656174,03*%
%TF.SameCoordinates,Original*%
%TF.FileFunction,AssemblyDrawing,Top*%
%FSLAX46Y46*%
G04 Gerber Fmt 4.6, Leading zero omitted, Abs format (unit mm)*
G04 Created by KiCad (PCBNEW 9.0.6) date 2026-01-30 18:10:03*
%MOMM*%
%LPD*%
G01*
G04 APERTURE LIST*
%ADD10C,0.050000*%
%ADD11C,0.150000*%
%ADD12C,0.120000*%
%ADD13C,0.250000*%
%ADD14C,0.100000*%
G04 APERTURE END LIST*
D10*
X171418334Y-102947900D02*
X171489762Y-102971709D01*
X171489762Y-102971709D02*
X171608810Y-102971709D01*
X171608810Y-102971709D02*
X171656429Y-102947900D01*
X171656429Y-102947900D02*
X171680238Y-102924090D01*
X171680238Y-102924090D02*
X171704048Y-102876471D01*
X171704048Y-102876471D02*
X171704048Y-102828852D01*
X171704048Y-102828852D02*
X171680238Y-102781233D01*
X171680238Y-102781233D02*
X171656429Y-102757423D01*
X171656429Y-102757423D02*
X171608810Y-102733614D01*
X171608810Y-102733614D02*
X171513572Y-102709804D01*
X171513572Y-102709804D02*
X171465953Y-102685995D01*
X171465953Y-102685995D02*
X171442143Y-102662185D01*
X171442143Y-102662185D02*
X171418334Y-102614566D01*
X171418334Y-102614566D02*
X171418334Y-102566947D01*
X171418334Y-102566947D02*
X171442143Y-102519328D01*
X171442143Y-102519328D02*
X171465953Y-102495519D01*
X171465953Y-102495519D02*
X171513572Y-102471709D01*
X171513572Y-102471709D02*
X171632619Y-102471709D01*
X171632619Y-102471709D02*
X171704048Y-102495519D01*
X171870714Y-102471709D02*
X171989762Y-102971709D01*
X171989762Y-102971709D02*
X172085000Y-102614566D01*
X172085000Y-102614566D02*
X172180238Y-102971709D01*
X172180238Y-102971709D02*
X172299286Y-102471709D01*
X172727857Y-102471709D02*
X172489762Y-102471709D01*
X172489762Y-102471709D02*
X172465953Y-102709804D01*
X172465953Y-102709804D02*
X172489762Y-102685995D01*
X172489762Y-102685995D02*
X172537381Y-102662185D01*
X172537381Y-102662185D02*
X172656429Y-102662185D01*
X172656429Y-102662185D02*
X172704048Y-102685995D01*
X172704048Y-102685995D02*
X172727857Y-102709804D01*
X172727857Y-102709804D02*
X172751667Y-102757423D01*
X172751667Y-102757423D02*
X172751667Y-102876471D01*
X172751667Y-102876471D02*
X172727857Y-102924090D01*
X172727857Y-102924090D02*
X172704048Y-102947900D01*
X172704048Y-102947900D02*
X172656429Y-102971709D01*
X172656429Y-102971709D02*
X172537381Y-102971709D01*
X172537381Y-102971709D02*
X172489762Y-102947900D01*
X172489762Y-102947900D02*
X172465953Y-102924090D01*
X171418334Y-87707900D02*
X171489762Y-87731709D01*
X171489762Y-87731709D02*
X171608810Y-87731709D01*
X171608810Y-87731709D02*
X171656429Y-87707900D01*
X171656429Y-87707900D02*
X171680238Y-87684090D01*
X171680238Y-87684090D02*
X171704048Y-87636471D01*
X171704048Y-87636471D02*
X171704048Y-87588852D01*
X171704048Y-87588852D02*
X171680238Y-87541233D01*
X171680238Y-87541233D02*
X171656429Y-87517423D01*
X171656429Y-87517423D02*
X171608810Y-87493614D01*
X171608810Y-87493614D02*
X171513572Y-87469804D01*
X171513572Y-87469804D02*
X171465953Y-87445995D01*
X171465953Y-87445995D02*
X171442143Y-87422185D01*
X171442143Y-87422185D02*
X171418334Y-87374566D01*
X171418334Y-87374566D02*
X171418334Y-87326947D01*
X171418334Y-87326947D02*
X171442143Y-87279328D01*
X171442143Y-87279328D02*
X171465953Y-87255519D01*
X171465953Y-87255519D02*
X171513572Y-87231709D01*
X171513572Y-87231709D02*
X171632619Y-87231709D01*
X171632619Y-87231709D02*
X171704048Y-87255519D01*
X171870714Y-87231709D02*
X171989762Y-87731709D01*
X171989762Y-87731709D02*
X172085000Y-87374566D01*
X172085000Y-87374566D02*
X172180238Y-87731709D01*
X172180238Y-87731709D02*
X172299286Y-87231709D01*
X172442143Y-87231709D02*
X172751667Y-87231709D01*
X172751667Y-87231709D02*
X172585000Y-87422185D01*
X172585000Y-87422185D02*
X172656429Y-87422185D01*
X172656429Y-87422185D02*
X172704048Y-87445995D01*
X172704048Y-87445995D02*
X172727857Y-87469804D01*
X172727857Y-87469804D02*
X172751667Y-87517423D01*
X172751667Y-87517423D02*
X172751667Y-87636471D01*
X172751667Y-87636471D02*
X172727857Y-87684090D01*
X172727857Y-87684090D02*
X172704048Y-87707900D01*
X172704048Y-87707900D02*
X172656429Y-87731709D01*
X172656429Y-87731709D02*
X172513572Y-87731709D01*
X172513572Y-87731709D02*
X172465953Y-87707900D01*
X172465953Y-87707900D02*
X172442143Y-87684090D01*
X171418334Y-80087900D02*
X171489762Y-80111709D01*
X171489762Y-80111709D02*
X171608810Y-80111709D01*
X171608810Y-80111709D02*
X171656429Y-80087900D01*
X171656429Y-80087900D02*
X171680238Y-80064090D01*
X171680238Y-80064090D02*
X171704048Y-80016471D01*
X171704048Y-80016471D02*
X171704048Y-79968852D01*
X171704048Y-79968852D02*
X171680238Y-79921233D01*
X171680238Y-79921233D02*
X171656429Y-79897423D01*
X171656429Y-79897423D02*
X171608810Y-79873614D01*
X171608810Y-79873614D02*
X171513572Y-79849804D01*
X171513572Y-79849804D02*
X171465953Y-79825995D01*
X171465953Y-79825995D02*
X171442143Y-79802185D01*
X171442143Y-79802185D02*
X171418334Y-79754566D01*
X171418334Y-79754566D02*
X171418334Y-79706947D01*
X171418334Y-79706947D02*
X171442143Y-79659328D01*
X171442143Y-79659328D02*
X171465953Y-79635519D01*
X171465953Y-79635519D02*
X171513572Y-79611709D01*
X171513572Y-79611709D02*
X171632619Y-79611709D01*
X171632619Y-79611709D02*
X171704048Y-79635519D01*
X171870714Y-79611709D02*
X171989762Y-80111709D01*
X171989762Y-80111709D02*
X172085000Y-79754566D01*
X172085000Y-79754566D02*
X172180238Y-80111709D01*
X172180238Y-80111709D02*
X172299286Y-79611709D01*
X172465953Y-79659328D02*
X172489762Y-79635519D01*
X172489762Y-79635519D02*
X172537381Y-79611709D01*
X172537381Y-79611709D02*
X172656429Y-79611709D01*
X172656429Y-79611709D02*
X172704048Y-79635519D01*
X172704048Y-79635519D02*
X172727857Y-79659328D01*
X172727857Y-79659328D02*
X172751667Y-79706947D01*
X172751667Y-79706947D02*
X172751667Y-79754566D01*
X172751667Y-79754566D02*
X172727857Y-79825995D01*
X172727857Y-79825995D02*
X172442143Y-80111709D01*
X172442143Y-80111709D02*
X172751667Y-80111709D01*
X158067380Y-75714328D02*
X158019761Y-75690519D01*
X158019761Y-75690519D02*
X157972142Y-75642900D01*
X157972142Y-75642900D02*
X157900714Y-75571471D01*
X157900714Y-75571471D02*
X157853095Y-75547661D01*
X157853095Y-75547661D02*
X157805476Y-75547661D01*
X157829285Y-75666709D02*
X157781666Y-75642900D01*
X157781666Y-75642900D02*
X157734047Y-75595280D01*
X157734047Y-75595280D02*
X157710238Y-75500042D01*
X157710238Y-75500042D02*
X157710238Y-75333376D01*
X157710238Y-75333376D02*
X157734047Y-75238138D01*
X157734047Y-75238138D02*
X157781666Y-75190519D01*
X157781666Y-75190519D02*
X157829285Y-75166709D01*
X157829285Y-75166709D02*
X157924523Y-75166709D01*
X157924523Y-75166709D02*
X157972142Y-75190519D01*
X157972142Y-75190519D02*
X158019761Y-75238138D01*
X158019761Y-75238138D02*
X158043571Y-75333376D01*
X158043571Y-75333376D02*
X158043571Y-75500042D01*
X158043571Y-75500042D02*
X158019761Y-75595280D01*
X158019761Y-75595280D02*
X157972142Y-75642900D01*
X157972142Y-75642900D02*
X157924523Y-75666709D01*
X157924523Y-75666709D02*
X157829285Y-75666709D01*
X158234048Y-75214328D02*
X158257857Y-75190519D01*
X158257857Y-75190519D02*
X158305476Y-75166709D01*
X158305476Y-75166709D02*
X158424524Y-75166709D01*
X158424524Y-75166709D02*
X158472143Y-75190519D01*
X158472143Y-75190519D02*
X158495952Y-75214328D01*
X158495952Y-75214328D02*
X158519762Y-75261947D01*
X158519762Y-75261947D02*
X158519762Y-75309566D01*
X158519762Y-75309566D02*
X158495952Y-75380995D01*
X158495952Y-75380995D02*
X158210238Y-75666709D01*
X158210238Y-75666709D02*
X158519762Y-75666709D01*
X154618571Y-89636709D02*
X154451905Y-89398614D01*
X154332857Y-89636709D02*
X154332857Y-89136709D01*
X154332857Y-89136709D02*
X154523333Y-89136709D01*
X154523333Y-89136709D02*
X154570952Y-89160519D01*
X154570952Y-89160519D02*
X154594762Y-89184328D01*
X154594762Y-89184328D02*
X154618571Y-89231947D01*
X154618571Y-89231947D02*
X154618571Y-89303376D01*
X154618571Y-89303376D02*
X154594762Y-89350995D01*
X154594762Y-89350995D02*
X154570952Y-89374804D01*
X154570952Y-89374804D02*
X154523333Y-89398614D01*
X154523333Y-89398614D02*
X154332857Y-89398614D01*
X155094762Y-89636709D02*
X154809048Y-89636709D01*
X154951905Y-89636709D02*
X154951905Y-89136709D01*
X154951905Y-89136709D02*
X154904286Y-89208138D01*
X154904286Y-89208138D02*
X154856667Y-89255757D01*
X154856667Y-89255757D02*
X154809048Y-89279566D01*
X155285238Y-89184328D02*
X155309047Y-89160519D01*
X155309047Y-89160519D02*
X155356666Y-89136709D01*
X155356666Y-89136709D02*
X155475714Y-89136709D01*
X155475714Y-89136709D02*
X155523333Y-89160519D01*
X155523333Y-89160519D02*
X155547142Y-89184328D01*
X155547142Y-89184328D02*
X155570952Y-89231947D01*
X155570952Y-89231947D02*
X155570952Y-89279566D01*
X155570952Y-89279566D02*
X155547142Y-89350995D01*
X155547142Y-89350995D02*
X155261428Y-89636709D01*
X155261428Y-89636709D02*
X155570952Y-89636709D01*
X129721090Y-118435333D02*
X129744900Y-118459142D01*
X129744900Y-118459142D02*
X129768709Y-118530571D01*
X129768709Y-118530571D02*
X129768709Y-118578190D01*
X129768709Y-118578190D02*
X129744900Y-118649618D01*
X129744900Y-118649618D02*
X129697280Y-118697237D01*
X129697280Y-118697237D02*
X129649661Y-118721047D01*
X129649661Y-118721047D02*
X129554423Y-118744856D01*
X129554423Y-118744856D02*
X129482995Y-118744856D01*
X129482995Y-118744856D02*
X129387757Y-118721047D01*
X129387757Y-118721047D02*
X129340138Y-118697237D01*
X129340138Y-118697237D02*
X129292519Y-118649618D01*
X129292519Y-118649618D02*
X129268709Y-118578190D01*
X129268709Y-118578190D02*
X129268709Y-118530571D01*
X129268709Y-118530571D02*
X129292519Y-118459142D01*
X129292519Y-118459142D02*
X129316328Y-118435333D01*
X129316328Y-118244856D02*
X129292519Y-118221047D01*
X129292519Y-118221047D02*
X129268709Y-118173428D01*
X129268709Y-118173428D02*
X129268709Y-118054380D01*
X129268709Y-118054380D02*
X129292519Y-118006761D01*
X129292519Y-118006761D02*
X129316328Y-117982952D01*
X129316328Y-117982952D02*
X129363947Y-117959142D01*
X129363947Y-117959142D02*
X129411566Y-117959142D01*
X129411566Y-117959142D02*
X129482995Y-117982952D01*
X129482995Y-117982952D02*
X129768709Y-118268666D01*
X129768709Y-118268666D02*
X129768709Y-117959142D01*
X147153333Y-77198709D02*
X147153333Y-77555852D01*
X147153333Y-77555852D02*
X147129524Y-77627280D01*
X147129524Y-77627280D02*
X147081905Y-77674900D01*
X147081905Y-77674900D02*
X147010476Y-77698709D01*
X147010476Y-77698709D02*
X146962857Y-77698709D01*
X147653333Y-77698709D02*
X147367619Y-77698709D01*
X147510476Y-77698709D02*
X147510476Y-77198709D01*
X147510476Y-77198709D02*
X147462857Y-77270138D01*
X147462857Y-77270138D02*
X147415238Y-77317757D01*
X147415238Y-77317757D02*
X147367619Y-77341566D01*
X154257380Y-75714328D02*
X154209761Y-75690519D01*
X154209761Y-75690519D02*
X154162142Y-75642900D01*
X154162142Y-75642900D02*
X154090714Y-75571471D01*
X154090714Y-75571471D02*
X154043095Y-75547661D01*
X154043095Y-75547661D02*
X153995476Y-75547661D01*
X154019285Y-75666709D02*
X153971666Y-75642900D01*
X153971666Y-75642900D02*
X153924047Y-75595280D01*
X153924047Y-75595280D02*
X153900238Y-75500042D01*
X153900238Y-75500042D02*
X153900238Y-75333376D01*
X153900238Y-75333376D02*
X153924047Y-75238138D01*
X153924047Y-75238138D02*
X153971666Y-75190519D01*
X153971666Y-75190519D02*
X154019285Y-75166709D01*
X154019285Y-75166709D02*
X154114523Y-75166709D01*
X154114523Y-75166709D02*
X154162142Y-75190519D01*
X154162142Y-75190519D02*
X154209761Y-75238138D01*
X154209761Y-75238138D02*
X154233571Y-75333376D01*
X154233571Y-75333376D02*
X154233571Y-75500042D01*
X154233571Y-75500042D02*
X154209761Y-75595280D01*
X154209761Y-75595280D02*
X154162142Y-75642900D01*
X154162142Y-75642900D02*
X154114523Y-75666709D01*
X154114523Y-75666709D02*
X154019285Y-75666709D01*
X154662143Y-75333376D02*
X154662143Y-75666709D01*
X154543095Y-75142900D02*
X154424048Y-75500042D01*
X154424048Y-75500042D02*
X154733571Y-75500042D01*
D11*
X122915180Y-106346666D02*
X122200895Y-106346666D01*
X122200895Y-106346666D02*
X122058038Y-106299047D01*
X122058038Y-106299047D02*
X121962800Y-106203809D01*
X121962800Y-106203809D02*
X121915180Y-106060952D01*
X121915180Y-106060952D02*
X121915180Y-105965714D01*
X122819942Y-106775238D02*
X122867561Y-106822857D01*
X122867561Y-106822857D02*
X122915180Y-106918095D01*
X122915180Y-106918095D02*
X122915180Y-107156190D01*
X122915180Y-107156190D02*
X122867561Y-107251428D01*
X122867561Y-107251428D02*
X122819942Y-107299047D01*
X122819942Y-107299047D02*
X122724704Y-107346666D01*
X122724704Y-107346666D02*
X122629466Y-107346666D01*
X122629466Y-107346666D02*
X122486609Y-107299047D01*
X122486609Y-107299047D02*
X121915180Y-106727619D01*
X121915180Y-106727619D02*
X121915180Y-107346666D01*
D10*
X171418334Y-95327900D02*
X171489762Y-95351709D01*
X171489762Y-95351709D02*
X171608810Y-95351709D01*
X171608810Y-95351709D02*
X171656429Y-95327900D01*
X171656429Y-95327900D02*
X171680238Y-95304090D01*
X171680238Y-95304090D02*
X171704048Y-95256471D01*
X171704048Y-95256471D02*
X171704048Y-95208852D01*
X171704048Y-95208852D02*
X171680238Y-95161233D01*
X171680238Y-95161233D02*
X171656429Y-95137423D01*
X171656429Y-95137423D02*
X171608810Y-95113614D01*
X171608810Y-95113614D02*
X171513572Y-95089804D01*
X171513572Y-95089804D02*
X171465953Y-95065995D01*
X171465953Y-95065995D02*
X171442143Y-95042185D01*
X171442143Y-95042185D02*
X171418334Y-94994566D01*
X171418334Y-94994566D02*
X171418334Y-94946947D01*
X171418334Y-94946947D02*
X171442143Y-94899328D01*
X171442143Y-94899328D02*
X171465953Y-94875519D01*
X171465953Y-94875519D02*
X171513572Y-94851709D01*
X171513572Y-94851709D02*
X171632619Y-94851709D01*
X171632619Y-94851709D02*
X171704048Y-94875519D01*
X171870714Y-94851709D02*
X171989762Y-95351709D01*
X171989762Y-95351709D02*
X172085000Y-94994566D01*
X172085000Y-94994566D02*
X172180238Y-95351709D01*
X172180238Y-95351709D02*
X172299286Y-94851709D01*
X172704048Y-95018376D02*
X172704048Y-95351709D01*
X172585000Y-94827900D02*
X172465953Y-95185042D01*
X172465953Y-95185042D02*
X172775476Y-95185042D01*
X138994655Y-118592709D02*
X138827989Y-118354614D01*
X138708941Y-118592709D02*
X138708941Y-118092709D01*
X138708941Y-118092709D02*
X138899417Y-118092709D01*
X138899417Y-118092709D02*
X138947036Y-118116519D01*
X138947036Y-118116519D02*
X138970846Y-118140328D01*
X138970846Y-118140328D02*
X138994655Y-118187947D01*
X138994655Y-118187947D02*
X138994655Y-118259376D01*
X138994655Y-118259376D02*
X138970846Y-118306995D01*
X138970846Y-118306995D02*
X138947036Y-118330804D01*
X138947036Y-118330804D02*
X138899417Y-118354614D01*
X138899417Y-118354614D02*
X138708941Y-118354614D01*
X139470846Y-118592709D02*
X139185132Y-118592709D01*
X139327989Y-118592709D02*
X139327989Y-118092709D01*
X139327989Y-118092709D02*
X139280370Y-118164138D01*
X139280370Y-118164138D02*
X139232751Y-118211757D01*
X139232751Y-118211757D02*
X139185132Y-118235566D01*
X139780369Y-118092709D02*
X139827988Y-118092709D01*
X139827988Y-118092709D02*
X139875607Y-118116519D01*
X139875607Y-118116519D02*
X139899417Y-118140328D01*
X139899417Y-118140328D02*
X139923226Y-118187947D01*
X139923226Y-118187947D02*
X139947036Y-118283185D01*
X139947036Y-118283185D02*
X139947036Y-118402233D01*
X139947036Y-118402233D02*
X139923226Y-118497471D01*
X139923226Y-118497471D02*
X139899417Y-118545090D01*
X139899417Y-118545090D02*
X139875607Y-118568900D01*
X139875607Y-118568900D02*
X139827988Y-118592709D01*
X139827988Y-118592709D02*
X139780369Y-118592709D01*
X139780369Y-118592709D02*
X139732750Y-118568900D01*
X139732750Y-118568900D02*
X139708941Y-118545090D01*
X139708941Y-118545090D02*
X139685131Y-118497471D01*
X139685131Y-118497471D02*
X139661322Y-118402233D01*
X139661322Y-118402233D02*
X139661322Y-118283185D01*
X139661322Y-118283185D02*
X139685131Y-118187947D01*
X139685131Y-118187947D02*
X139708941Y-118140328D01*
X139708941Y-118140328D02*
X139732750Y-118116519D01*
X139732750Y-118116519D02*
X139780369Y-118092709D01*
X127805666Y-99415709D02*
X127639000Y-99177614D01*
X127519952Y-99415709D02*
X127519952Y-98915709D01*
X127519952Y-98915709D02*
X127710428Y-98915709D01*
X127710428Y-98915709D02*
X127758047Y-98939519D01*
X127758047Y-98939519D02*
X127781857Y-98963328D01*
X127781857Y-98963328D02*
X127805666Y-99010947D01*
X127805666Y-99010947D02*
X127805666Y-99082376D01*
X127805666Y-99082376D02*
X127781857Y-99129995D01*
X127781857Y-99129995D02*
X127758047Y-99153804D01*
X127758047Y-99153804D02*
X127710428Y-99177614D01*
X127710428Y-99177614D02*
X127519952Y-99177614D01*
X128258047Y-98915709D02*
X128019952Y-98915709D01*
X128019952Y-98915709D02*
X127996143Y-99153804D01*
X127996143Y-99153804D02*
X128019952Y-99129995D01*
X128019952Y-99129995D02*
X128067571Y-99106185D01*
X128067571Y-99106185D02*
X128186619Y-99106185D01*
X128186619Y-99106185D02*
X128234238Y-99129995D01*
X128234238Y-99129995D02*
X128258047Y-99153804D01*
X128258047Y-99153804D02*
X128281857Y-99201423D01*
X128281857Y-99201423D02*
X128281857Y-99320471D01*
X128281857Y-99320471D02*
X128258047Y-99368090D01*
X128258047Y-99368090D02*
X128234238Y-99391900D01*
X128234238Y-99391900D02*
X128186619Y-99415709D01*
X128186619Y-99415709D02*
X128067571Y-99415709D01*
X128067571Y-99415709D02*
X128019952Y-99391900D01*
X128019952Y-99391900D02*
X127996143Y-99368090D01*
X117518666Y-99368090D02*
X117494857Y-99391900D01*
X117494857Y-99391900D02*
X117423428Y-99415709D01*
X117423428Y-99415709D02*
X117375809Y-99415709D01*
X117375809Y-99415709D02*
X117304381Y-99391900D01*
X117304381Y-99391900D02*
X117256762Y-99344280D01*
X117256762Y-99344280D02*
X117232952Y-99296661D01*
X117232952Y-99296661D02*
X117209143Y-99201423D01*
X117209143Y-99201423D02*
X117209143Y-99129995D01*
X117209143Y-99129995D02*
X117232952Y-99034757D01*
X117232952Y-99034757D02*
X117256762Y-98987138D01*
X117256762Y-98987138D02*
X117304381Y-98939519D01*
X117304381Y-98939519D02*
X117375809Y-98915709D01*
X117375809Y-98915709D02*
X117423428Y-98915709D01*
X117423428Y-98915709D02*
X117494857Y-98939519D01*
X117494857Y-98939519D02*
X117518666Y-98963328D01*
X117947238Y-99082376D02*
X117947238Y-99415709D01*
X117828190Y-98891900D02*
X117709143Y-99249042D01*
X117709143Y-99249042D02*
X118018666Y-99249042D01*
X121259666Y-99415709D02*
X121093000Y-99177614D01*
X120973952Y-99415709D02*
X120973952Y-98915709D01*
X120973952Y-98915709D02*
X121164428Y-98915709D01*
X121164428Y-98915709D02*
X121212047Y-98939519D01*
X121212047Y-98939519D02*
X121235857Y-98963328D01*
X121235857Y-98963328D02*
X121259666Y-99010947D01*
X121259666Y-99010947D02*
X121259666Y-99082376D01*
X121259666Y-99082376D02*
X121235857Y-99129995D01*
X121235857Y-99129995D02*
X121212047Y-99153804D01*
X121212047Y-99153804D02*
X121164428Y-99177614D01*
X121164428Y-99177614D02*
X120973952Y-99177614D01*
X121426333Y-98915709D02*
X121735857Y-98915709D01*
X121735857Y-98915709D02*
X121569190Y-99106185D01*
X121569190Y-99106185D02*
X121640619Y-99106185D01*
X121640619Y-99106185D02*
X121688238Y-99129995D01*
X121688238Y-99129995D02*
X121712047Y-99153804D01*
X121712047Y-99153804D02*
X121735857Y-99201423D01*
X121735857Y-99201423D02*
X121735857Y-99320471D01*
X121735857Y-99320471D02*
X121712047Y-99368090D01*
X121712047Y-99368090D02*
X121688238Y-99391900D01*
X121688238Y-99391900D02*
X121640619Y-99415709D01*
X121640619Y-99415709D02*
X121497762Y-99415709D01*
X121497762Y-99415709D02*
X121450143Y-99391900D01*
X121450143Y-99391900D02*
X121426333Y-99368090D01*
D11*
X130048095Y-83274819D02*
X130048095Y-84084342D01*
X130048095Y-84084342D02*
X130095714Y-84179580D01*
X130095714Y-84179580D02*
X130143333Y-84227200D01*
X130143333Y-84227200D02*
X130238571Y-84274819D01*
X130238571Y-84274819D02*
X130429047Y-84274819D01*
X130429047Y-84274819D02*
X130524285Y-84227200D01*
X130524285Y-84227200D02*
X130571904Y-84179580D01*
X130571904Y-84179580D02*
X130619523Y-84084342D01*
X130619523Y-84084342D02*
X130619523Y-83274819D01*
X131619523Y-84274819D02*
X131048095Y-84274819D01*
X131333809Y-84274819D02*
X131333809Y-83274819D01*
X131333809Y-83274819D02*
X131238571Y-83417676D01*
X131238571Y-83417676D02*
X131143333Y-83512914D01*
X131143333Y-83512914D02*
X131048095Y-83560533D01*
D10*
X118381290Y-87463333D02*
X118024147Y-87463333D01*
X118024147Y-87463333D02*
X117952719Y-87439524D01*
X117952719Y-87439524D02*
X117905100Y-87391905D01*
X117905100Y-87391905D02*
X117881290Y-87320476D01*
X117881290Y-87320476D02*
X117881290Y-87272857D01*
X118381290Y-87653809D02*
X118381290Y-87963333D01*
X118381290Y-87963333D02*
X118190814Y-87796666D01*
X118190814Y-87796666D02*
X118190814Y-87868095D01*
X118190814Y-87868095D02*
X118167004Y-87915714D01*
X118167004Y-87915714D02*
X118143195Y-87939523D01*
X118143195Y-87939523D02*
X118095576Y-87963333D01*
X118095576Y-87963333D02*
X117976528Y-87963333D01*
X117976528Y-87963333D02*
X117928909Y-87939523D01*
X117928909Y-87939523D02*
X117905100Y-87915714D01*
X117905100Y-87915714D02*
X117881290Y-87868095D01*
X117881290Y-87868095D02*
X117881290Y-87725238D01*
X117881290Y-87725238D02*
X117905100Y-87677619D01*
X117905100Y-87677619D02*
X117928909Y-87653809D01*
X131107666Y-99415709D02*
X130941000Y-99177614D01*
X130821952Y-99415709D02*
X130821952Y-98915709D01*
X130821952Y-98915709D02*
X131012428Y-98915709D01*
X131012428Y-98915709D02*
X131060047Y-98939519D01*
X131060047Y-98939519D02*
X131083857Y-98963328D01*
X131083857Y-98963328D02*
X131107666Y-99010947D01*
X131107666Y-99010947D02*
X131107666Y-99082376D01*
X131107666Y-99082376D02*
X131083857Y-99129995D01*
X131083857Y-99129995D02*
X131060047Y-99153804D01*
X131060047Y-99153804D02*
X131012428Y-99177614D01*
X131012428Y-99177614D02*
X130821952Y-99177614D01*
X131583857Y-99415709D02*
X131298143Y-99415709D01*
X131441000Y-99415709D02*
X131441000Y-98915709D01*
X131441000Y-98915709D02*
X131393381Y-98987138D01*
X131393381Y-98987138D02*
X131345762Y-99034757D01*
X131345762Y-99034757D02*
X131298143Y-99058566D01*
X132969047Y-118346709D02*
X132969047Y-118751471D01*
X132969047Y-118751471D02*
X132992857Y-118799090D01*
X132992857Y-118799090D02*
X133016666Y-118822900D01*
X133016666Y-118822900D02*
X133064285Y-118846709D01*
X133064285Y-118846709D02*
X133159523Y-118846709D01*
X133159523Y-118846709D02*
X133207142Y-118822900D01*
X133207142Y-118822900D02*
X133230952Y-118799090D01*
X133230952Y-118799090D02*
X133254761Y-118751471D01*
X133254761Y-118751471D02*
X133254761Y-118346709D01*
X133469048Y-118394328D02*
X133492857Y-118370519D01*
X133492857Y-118370519D02*
X133540476Y-118346709D01*
X133540476Y-118346709D02*
X133659524Y-118346709D01*
X133659524Y-118346709D02*
X133707143Y-118370519D01*
X133707143Y-118370519D02*
X133730952Y-118394328D01*
X133730952Y-118394328D02*
X133754762Y-118441947D01*
X133754762Y-118441947D02*
X133754762Y-118489566D01*
X133754762Y-118489566D02*
X133730952Y-118560995D01*
X133730952Y-118560995D02*
X133445238Y-118846709D01*
X133445238Y-118846709D02*
X133754762Y-118846709D01*
X158067380Y-83461328D02*
X158019761Y-83437519D01*
X158019761Y-83437519D02*
X157972142Y-83389900D01*
X157972142Y-83389900D02*
X157900714Y-83318471D01*
X157900714Y-83318471D02*
X157853095Y-83294661D01*
X157853095Y-83294661D02*
X157805476Y-83294661D01*
X157829285Y-83413709D02*
X157781666Y-83389900D01*
X157781666Y-83389900D02*
X157734047Y-83342280D01*
X157734047Y-83342280D02*
X157710238Y-83247042D01*
X157710238Y-83247042D02*
X157710238Y-83080376D01*
X157710238Y-83080376D02*
X157734047Y-82985138D01*
X157734047Y-82985138D02*
X157781666Y-82937519D01*
X157781666Y-82937519D02*
X157829285Y-82913709D01*
X157829285Y-82913709D02*
X157924523Y-82913709D01*
X157924523Y-82913709D02*
X157972142Y-82937519D01*
X157972142Y-82937519D02*
X158019761Y-82985138D01*
X158019761Y-82985138D02*
X158043571Y-83080376D01*
X158043571Y-83080376D02*
X158043571Y-83247042D01*
X158043571Y-83247042D02*
X158019761Y-83342280D01*
X158019761Y-83342280D02*
X157972142Y-83389900D01*
X157972142Y-83389900D02*
X157924523Y-83413709D01*
X157924523Y-83413709D02*
X157829285Y-83413709D01*
X158519762Y-83413709D02*
X158234048Y-83413709D01*
X158376905Y-83413709D02*
X158376905Y-82913709D01*
X158376905Y-82913709D02*
X158329286Y-82985138D01*
X158329286Y-82985138D02*
X158281667Y-83032757D01*
X158281667Y-83032757D02*
X158234048Y-83056566D01*
X119608666Y-99415709D02*
X119442000Y-99177614D01*
X119322952Y-99415709D02*
X119322952Y-98915709D01*
X119322952Y-98915709D02*
X119513428Y-98915709D01*
X119513428Y-98915709D02*
X119561047Y-98939519D01*
X119561047Y-98939519D02*
X119584857Y-98963328D01*
X119584857Y-98963328D02*
X119608666Y-99010947D01*
X119608666Y-99010947D02*
X119608666Y-99082376D01*
X119608666Y-99082376D02*
X119584857Y-99129995D01*
X119584857Y-99129995D02*
X119561047Y-99153804D01*
X119561047Y-99153804D02*
X119513428Y-99177614D01*
X119513428Y-99177614D02*
X119322952Y-99177614D01*
X119799143Y-98963328D02*
X119822952Y-98939519D01*
X119822952Y-98939519D02*
X119870571Y-98915709D01*
X119870571Y-98915709D02*
X119989619Y-98915709D01*
X119989619Y-98915709D02*
X120037238Y-98939519D01*
X120037238Y-98939519D02*
X120061047Y-98963328D01*
X120061047Y-98963328D02*
X120084857Y-99010947D01*
X120084857Y-99010947D02*
X120084857Y-99058566D01*
X120084857Y-99058566D02*
X120061047Y-99129995D01*
X120061047Y-99129995D02*
X119775333Y-99415709D01*
X119775333Y-99415709D02*
X120084857Y-99415709D01*
D11*
X154178095Y-92164819D02*
X154178095Y-92974342D01*
X154178095Y-92974342D02*
X154225714Y-93069580D01*
X154225714Y-93069580D02*
X154273333Y-93117200D01*
X154273333Y-93117200D02*
X154368571Y-93164819D01*
X154368571Y-93164819D02*
X154559047Y-93164819D01*
X154559047Y-93164819D02*
X154654285Y-93117200D01*
X154654285Y-93117200D02*
X154701904Y-93069580D01*
X154701904Y-93069580D02*
X154749523Y-92974342D01*
X154749523Y-92974342D02*
X154749523Y-92164819D01*
X155130476Y-92164819D02*
X155749523Y-92164819D01*
X155749523Y-92164819D02*
X155416190Y-92545771D01*
X155416190Y-92545771D02*
X155559047Y-92545771D01*
X155559047Y-92545771D02*
X155654285Y-92593390D01*
X155654285Y-92593390D02*
X155701904Y-92641009D01*
X155701904Y-92641009D02*
X155749523Y-92736247D01*
X155749523Y-92736247D02*
X155749523Y-92974342D01*
X155749523Y-92974342D02*
X155701904Y-93069580D01*
X155701904Y-93069580D02*
X155654285Y-93117200D01*
X155654285Y-93117200D02*
X155559047Y-93164819D01*
X155559047Y-93164819D02*
X155273333Y-93164819D01*
X155273333Y-93164819D02*
X155178095Y-93117200D01*
X155178095Y-93117200D02*
X155130476Y-93069580D01*
D10*
X138994655Y-117068709D02*
X138827989Y-116830614D01*
X138708941Y-117068709D02*
X138708941Y-116568709D01*
X138708941Y-116568709D02*
X138899417Y-116568709D01*
X138899417Y-116568709D02*
X138947036Y-116592519D01*
X138947036Y-116592519D02*
X138970846Y-116616328D01*
X138970846Y-116616328D02*
X138994655Y-116663947D01*
X138994655Y-116663947D02*
X138994655Y-116735376D01*
X138994655Y-116735376D02*
X138970846Y-116782995D01*
X138970846Y-116782995D02*
X138947036Y-116806804D01*
X138947036Y-116806804D02*
X138899417Y-116830614D01*
X138899417Y-116830614D02*
X138708941Y-116830614D01*
X139232751Y-117068709D02*
X139327989Y-117068709D01*
X139327989Y-117068709D02*
X139375608Y-117044900D01*
X139375608Y-117044900D02*
X139399417Y-117021090D01*
X139399417Y-117021090D02*
X139447036Y-116949661D01*
X139447036Y-116949661D02*
X139470846Y-116854423D01*
X139470846Y-116854423D02*
X139470846Y-116663947D01*
X139470846Y-116663947D02*
X139447036Y-116616328D01*
X139447036Y-116616328D02*
X139423227Y-116592519D01*
X139423227Y-116592519D02*
X139375608Y-116568709D01*
X139375608Y-116568709D02*
X139280370Y-116568709D01*
X139280370Y-116568709D02*
X139232751Y-116592519D01*
X139232751Y-116592519D02*
X139208941Y-116616328D01*
X139208941Y-116616328D02*
X139185132Y-116663947D01*
X139185132Y-116663947D02*
X139185132Y-116782995D01*
X139185132Y-116782995D02*
X139208941Y-116830614D01*
X139208941Y-116830614D02*
X139232751Y-116854423D01*
X139232751Y-116854423D02*
X139280370Y-116878233D01*
X139280370Y-116878233D02*
X139375608Y-116878233D01*
X139375608Y-116878233D02*
X139423227Y-116854423D01*
X139423227Y-116854423D02*
X139447036Y-116830614D01*
X139447036Y-116830614D02*
X139470846Y-116782995D01*
X126154666Y-99415709D02*
X125988000Y-99177614D01*
X125868952Y-99415709D02*
X125868952Y-98915709D01*
X125868952Y-98915709D02*
X126059428Y-98915709D01*
X126059428Y-98915709D02*
X126107047Y-98939519D01*
X126107047Y-98939519D02*
X126130857Y-98963328D01*
X126130857Y-98963328D02*
X126154666Y-99010947D01*
X126154666Y-99010947D02*
X126154666Y-99082376D01*
X126154666Y-99082376D02*
X126130857Y-99129995D01*
X126130857Y-99129995D02*
X126107047Y-99153804D01*
X126107047Y-99153804D02*
X126059428Y-99177614D01*
X126059428Y-99177614D02*
X125868952Y-99177614D01*
X126583238Y-98915709D02*
X126488000Y-98915709D01*
X126488000Y-98915709D02*
X126440381Y-98939519D01*
X126440381Y-98939519D02*
X126416571Y-98963328D01*
X126416571Y-98963328D02*
X126368952Y-99034757D01*
X126368952Y-99034757D02*
X126345143Y-99129995D01*
X126345143Y-99129995D02*
X126345143Y-99320471D01*
X126345143Y-99320471D02*
X126368952Y-99368090D01*
X126368952Y-99368090D02*
X126392762Y-99391900D01*
X126392762Y-99391900D02*
X126440381Y-99415709D01*
X126440381Y-99415709D02*
X126535619Y-99415709D01*
X126535619Y-99415709D02*
X126583238Y-99391900D01*
X126583238Y-99391900D02*
X126607047Y-99368090D01*
X126607047Y-99368090D02*
X126630857Y-99320471D01*
X126630857Y-99320471D02*
X126630857Y-99201423D01*
X126630857Y-99201423D02*
X126607047Y-99153804D01*
X126607047Y-99153804D02*
X126583238Y-99129995D01*
X126583238Y-99129995D02*
X126535619Y-99106185D01*
X126535619Y-99106185D02*
X126440381Y-99106185D01*
X126440381Y-99106185D02*
X126392762Y-99129995D01*
X126392762Y-99129995D02*
X126368952Y-99153804D01*
X126368952Y-99153804D02*
X126345143Y-99201423D01*
X164058900Y-81438665D02*
X164082709Y-81367237D01*
X164082709Y-81367237D02*
X164082709Y-81248189D01*
X164082709Y-81248189D02*
X164058900Y-81200570D01*
X164058900Y-81200570D02*
X164035090Y-81176761D01*
X164035090Y-81176761D02*
X163987471Y-81152951D01*
X163987471Y-81152951D02*
X163939852Y-81152951D01*
X163939852Y-81152951D02*
X163892233Y-81176761D01*
X163892233Y-81176761D02*
X163868423Y-81200570D01*
X163868423Y-81200570D02*
X163844614Y-81248189D01*
X163844614Y-81248189D02*
X163820804Y-81343427D01*
X163820804Y-81343427D02*
X163796995Y-81391046D01*
X163796995Y-81391046D02*
X163773185Y-81414856D01*
X163773185Y-81414856D02*
X163725566Y-81438665D01*
X163725566Y-81438665D02*
X163677947Y-81438665D01*
X163677947Y-81438665D02*
X163630328Y-81414856D01*
X163630328Y-81414856D02*
X163606519Y-81391046D01*
X163606519Y-81391046D02*
X163582709Y-81343427D01*
X163582709Y-81343427D02*
X163582709Y-81224380D01*
X163582709Y-81224380D02*
X163606519Y-81152951D01*
X163582709Y-80986285D02*
X164082709Y-80867237D01*
X164082709Y-80867237D02*
X163725566Y-80771999D01*
X163725566Y-80771999D02*
X164082709Y-80676761D01*
X164082709Y-80676761D02*
X163582709Y-80557714D01*
X164082709Y-80105332D02*
X164082709Y-80391046D01*
X164082709Y-80248189D02*
X163582709Y-80248189D01*
X163582709Y-80248189D02*
X163654138Y-80295808D01*
X163654138Y-80295808D02*
X163701757Y-80343427D01*
X163701757Y-80343427D02*
X163725566Y-80391046D01*
X129456666Y-99415709D02*
X129290000Y-99177614D01*
X129170952Y-99415709D02*
X129170952Y-98915709D01*
X129170952Y-98915709D02*
X129361428Y-98915709D01*
X129361428Y-98915709D02*
X129409047Y-98939519D01*
X129409047Y-98939519D02*
X129432857Y-98963328D01*
X129432857Y-98963328D02*
X129456666Y-99010947D01*
X129456666Y-99010947D02*
X129456666Y-99082376D01*
X129456666Y-99082376D02*
X129432857Y-99129995D01*
X129432857Y-99129995D02*
X129409047Y-99153804D01*
X129409047Y-99153804D02*
X129361428Y-99177614D01*
X129361428Y-99177614D02*
X129170952Y-99177614D01*
X129623333Y-98915709D02*
X129956666Y-98915709D01*
X129956666Y-98915709D02*
X129742381Y-99415709D01*
X152078571Y-89636709D02*
X151911905Y-89398614D01*
X151792857Y-89636709D02*
X151792857Y-89136709D01*
X151792857Y-89136709D02*
X151983333Y-89136709D01*
X151983333Y-89136709D02*
X152030952Y-89160519D01*
X152030952Y-89160519D02*
X152054762Y-89184328D01*
X152054762Y-89184328D02*
X152078571Y-89231947D01*
X152078571Y-89231947D02*
X152078571Y-89303376D01*
X152078571Y-89303376D02*
X152054762Y-89350995D01*
X152054762Y-89350995D02*
X152030952Y-89374804D01*
X152030952Y-89374804D02*
X151983333Y-89398614D01*
X151983333Y-89398614D02*
X151792857Y-89398614D01*
X152554762Y-89636709D02*
X152269048Y-89636709D01*
X152411905Y-89636709D02*
X152411905Y-89136709D01*
X152411905Y-89136709D02*
X152364286Y-89208138D01*
X152364286Y-89208138D02*
X152316667Y-89255757D01*
X152316667Y-89255757D02*
X152269048Y-89279566D01*
X153030952Y-89636709D02*
X152745238Y-89636709D01*
X152888095Y-89636709D02*
X152888095Y-89136709D01*
X152888095Y-89136709D02*
X152840476Y-89208138D01*
X152840476Y-89208138D02*
X152792857Y-89255757D01*
X152792857Y-89255757D02*
X152745238Y-89279566D01*
X138994655Y-115544709D02*
X138827989Y-115306614D01*
X138708941Y-115544709D02*
X138708941Y-115044709D01*
X138708941Y-115044709D02*
X138899417Y-115044709D01*
X138899417Y-115044709D02*
X138947036Y-115068519D01*
X138947036Y-115068519D02*
X138970846Y-115092328D01*
X138970846Y-115092328D02*
X138994655Y-115139947D01*
X138994655Y-115139947D02*
X138994655Y-115211376D01*
X138994655Y-115211376D02*
X138970846Y-115258995D01*
X138970846Y-115258995D02*
X138947036Y-115282804D01*
X138947036Y-115282804D02*
X138899417Y-115306614D01*
X138899417Y-115306614D02*
X138708941Y-115306614D01*
X139280370Y-115258995D02*
X139232751Y-115235185D01*
X139232751Y-115235185D02*
X139208941Y-115211376D01*
X139208941Y-115211376D02*
X139185132Y-115163757D01*
X139185132Y-115163757D02*
X139185132Y-115139947D01*
X139185132Y-115139947D02*
X139208941Y-115092328D01*
X139208941Y-115092328D02*
X139232751Y-115068519D01*
X139232751Y-115068519D02*
X139280370Y-115044709D01*
X139280370Y-115044709D02*
X139375608Y-115044709D01*
X139375608Y-115044709D02*
X139423227Y-115068519D01*
X139423227Y-115068519D02*
X139447036Y-115092328D01*
X139447036Y-115092328D02*
X139470846Y-115139947D01*
X139470846Y-115139947D02*
X139470846Y-115163757D01*
X139470846Y-115163757D02*
X139447036Y-115211376D01*
X139447036Y-115211376D02*
X139423227Y-115235185D01*
X139423227Y-115235185D02*
X139375608Y-115258995D01*
X139375608Y-115258995D02*
X139280370Y-115258995D01*
X139280370Y-115258995D02*
X139232751Y-115282804D01*
X139232751Y-115282804D02*
X139208941Y-115306614D01*
X139208941Y-115306614D02*
X139185132Y-115354233D01*
X139185132Y-115354233D02*
X139185132Y-115449471D01*
X139185132Y-115449471D02*
X139208941Y-115497090D01*
X139208941Y-115497090D02*
X139232751Y-115520900D01*
X139232751Y-115520900D02*
X139280370Y-115544709D01*
X139280370Y-115544709D02*
X139375608Y-115544709D01*
X139375608Y-115544709D02*
X139423227Y-115520900D01*
X139423227Y-115520900D02*
X139447036Y-115497090D01*
X139447036Y-115497090D02*
X139470846Y-115449471D01*
X139470846Y-115449471D02*
X139470846Y-115354233D01*
X139470846Y-115354233D02*
X139447036Y-115306614D01*
X139447036Y-115306614D02*
X139423227Y-115282804D01*
X139423227Y-115282804D02*
X139375608Y-115258995D01*
X129721090Y-115399333D02*
X129744900Y-115423142D01*
X129744900Y-115423142D02*
X129768709Y-115494571D01*
X129768709Y-115494571D02*
X129768709Y-115542190D01*
X129768709Y-115542190D02*
X129744900Y-115613618D01*
X129744900Y-115613618D02*
X129697280Y-115661237D01*
X129697280Y-115661237D02*
X129649661Y-115685047D01*
X129649661Y-115685047D02*
X129554423Y-115708856D01*
X129554423Y-115708856D02*
X129482995Y-115708856D01*
X129482995Y-115708856D02*
X129387757Y-115685047D01*
X129387757Y-115685047D02*
X129340138Y-115661237D01*
X129340138Y-115661237D02*
X129292519Y-115613618D01*
X129292519Y-115613618D02*
X129268709Y-115542190D01*
X129268709Y-115542190D02*
X129268709Y-115494571D01*
X129268709Y-115494571D02*
X129292519Y-115423142D01*
X129292519Y-115423142D02*
X129316328Y-115399333D01*
X129768709Y-114923142D02*
X129768709Y-115208856D01*
X129768709Y-115065999D02*
X129268709Y-115065999D01*
X129268709Y-115065999D02*
X129340138Y-115113618D01*
X129340138Y-115113618D02*
X129387757Y-115161237D01*
X129387757Y-115161237D02*
X129411566Y-115208856D01*
X122979666Y-99415709D02*
X122813000Y-99177614D01*
X122693952Y-99415709D02*
X122693952Y-98915709D01*
X122693952Y-98915709D02*
X122884428Y-98915709D01*
X122884428Y-98915709D02*
X122932047Y-98939519D01*
X122932047Y-98939519D02*
X122955857Y-98963328D01*
X122955857Y-98963328D02*
X122979666Y-99010947D01*
X122979666Y-99010947D02*
X122979666Y-99082376D01*
X122979666Y-99082376D02*
X122955857Y-99129995D01*
X122955857Y-99129995D02*
X122932047Y-99153804D01*
X122932047Y-99153804D02*
X122884428Y-99177614D01*
X122884428Y-99177614D02*
X122693952Y-99177614D01*
X123408238Y-99082376D02*
X123408238Y-99415709D01*
X123289190Y-98891900D02*
X123170143Y-99249042D01*
X123170143Y-99249042D02*
X123479666Y-99249042D01*
X115867666Y-99368090D02*
X115843857Y-99391900D01*
X115843857Y-99391900D02*
X115772428Y-99415709D01*
X115772428Y-99415709D02*
X115724809Y-99415709D01*
X115724809Y-99415709D02*
X115653381Y-99391900D01*
X115653381Y-99391900D02*
X115605762Y-99344280D01*
X115605762Y-99344280D02*
X115581952Y-99296661D01*
X115581952Y-99296661D02*
X115558143Y-99201423D01*
X115558143Y-99201423D02*
X115558143Y-99129995D01*
X115558143Y-99129995D02*
X115581952Y-99034757D01*
X115581952Y-99034757D02*
X115605762Y-98987138D01*
X115605762Y-98987138D02*
X115653381Y-98939519D01*
X115653381Y-98939519D02*
X115724809Y-98915709D01*
X115724809Y-98915709D02*
X115772428Y-98915709D01*
X115772428Y-98915709D02*
X115843857Y-98939519D01*
X115843857Y-98939519D02*
X115867666Y-98963328D01*
X116034333Y-98915709D02*
X116343857Y-98915709D01*
X116343857Y-98915709D02*
X116177190Y-99106185D01*
X116177190Y-99106185D02*
X116248619Y-99106185D01*
X116248619Y-99106185D02*
X116296238Y-99129995D01*
X116296238Y-99129995D02*
X116320047Y-99153804D01*
X116320047Y-99153804D02*
X116343857Y-99201423D01*
X116343857Y-99201423D02*
X116343857Y-99320471D01*
X116343857Y-99320471D02*
X116320047Y-99368090D01*
X116320047Y-99368090D02*
X116296238Y-99391900D01*
X116296238Y-99391900D02*
X116248619Y-99415709D01*
X116248619Y-99415709D02*
X116105762Y-99415709D01*
X116105762Y-99415709D02*
X116058143Y-99391900D01*
X116058143Y-99391900D02*
X116034333Y-99368090D01*
X154257380Y-83461328D02*
X154209761Y-83437519D01*
X154209761Y-83437519D02*
X154162142Y-83389900D01*
X154162142Y-83389900D02*
X154090714Y-83318471D01*
X154090714Y-83318471D02*
X154043095Y-83294661D01*
X154043095Y-83294661D02*
X153995476Y-83294661D01*
X154019285Y-83413709D02*
X153971666Y-83389900D01*
X153971666Y-83389900D02*
X153924047Y-83342280D01*
X153924047Y-83342280D02*
X153900238Y-83247042D01*
X153900238Y-83247042D02*
X153900238Y-83080376D01*
X153900238Y-83080376D02*
X153924047Y-82985138D01*
X153924047Y-82985138D02*
X153971666Y-82937519D01*
X153971666Y-82937519D02*
X154019285Y-82913709D01*
X154019285Y-82913709D02*
X154114523Y-82913709D01*
X154114523Y-82913709D02*
X154162142Y-82937519D01*
X154162142Y-82937519D02*
X154209761Y-82985138D01*
X154209761Y-82985138D02*
X154233571Y-83080376D01*
X154233571Y-83080376D02*
X154233571Y-83247042D01*
X154233571Y-83247042D02*
X154209761Y-83342280D01*
X154209761Y-83342280D02*
X154162142Y-83389900D01*
X154162142Y-83389900D02*
X154114523Y-83413709D01*
X154114523Y-83413709D02*
X154019285Y-83413709D01*
X154400238Y-82913709D02*
X154709762Y-82913709D01*
X154709762Y-82913709D02*
X154543095Y-83104185D01*
X154543095Y-83104185D02*
X154614524Y-83104185D01*
X154614524Y-83104185D02*
X154662143Y-83127995D01*
X154662143Y-83127995D02*
X154685952Y-83151804D01*
X154685952Y-83151804D02*
X154709762Y-83199423D01*
X154709762Y-83199423D02*
X154709762Y-83318471D01*
X154709762Y-83318471D02*
X154685952Y-83366090D01*
X154685952Y-83366090D02*
X154662143Y-83389900D01*
X154662143Y-83389900D02*
X154614524Y-83413709D01*
X154614524Y-83413709D02*
X154471667Y-83413709D01*
X154471667Y-83413709D02*
X154424048Y-83389900D01*
X154424048Y-83389900D02*
X154400238Y-83366090D01*
%TO.C,SW5*%
X172085000Y-105060000D02*
X172085000Y-105760000D01*
X172435000Y-105410000D02*
X171735000Y-105410000D01*
D11*
X170835000Y-102160000D02*
X170135000Y-102160000D01*
X170135000Y-103160000D01*
X170835000Y-103160000D01*
X170835000Y-102160000D01*
X170835000Y-107660000D02*
X170135000Y-107660000D01*
X170135000Y-108660000D01*
X170835000Y-108660000D01*
X170835000Y-107660000D01*
X174035000Y-102160000D02*
X173335000Y-102160000D01*
X173335000Y-103160000D01*
X174035000Y-103160000D01*
X174035000Y-102160000D01*
X174035000Y-107660000D02*
X173335000Y-107660000D01*
X173335000Y-108660000D01*
X174035000Y-108660000D01*
X174035000Y-107660000D01*
X174335000Y-103160000D02*
X169835000Y-103160000D01*
X169835000Y-107660000D01*
X174335000Y-107660000D01*
X174335000Y-103160000D01*
D10*
X172335000Y-105410000D02*
G75*
G02*
X171835000Y-105410000I-250000J0D01*
G01*
X171835000Y-105410000D02*
G75*
G02*
X172335000Y-105410000I250000J0D01*
G01*
%TO.C,SW3*%
X172085000Y-89820000D02*
X172085000Y-90520000D01*
X172435000Y-90170000D02*
X171735000Y-90170000D01*
D11*
X170835000Y-86920000D02*
X170135000Y-86920000D01*
X170135000Y-87920000D01*
X170835000Y-87920000D01*
X170835000Y-86920000D01*
X170835000Y-92420000D02*
X170135000Y-92420000D01*
X170135000Y-93420000D01*
X170835000Y-93420000D01*
X170835000Y-92420000D01*
X174035000Y-86920000D02*
X173335000Y-86920000D01*
X173335000Y-87920000D01*
X174035000Y-87920000D01*
X174035000Y-86920000D01*
X174035000Y-92420000D02*
X173335000Y-92420000D01*
X173335000Y-93420000D01*
X174035000Y-93420000D01*
X174035000Y-92420000D01*
X174335000Y-87920000D02*
X169835000Y-87920000D01*
X169835000Y-92420000D01*
X174335000Y-92420000D01*
X174335000Y-87920000D01*
D10*
X172335000Y-90170000D02*
G75*
G02*
X171835000Y-90170000I-250000J0D01*
G01*
X171835000Y-90170000D02*
G75*
G02*
X172335000Y-90170000I250000J0D01*
G01*
%TO.C,SW2*%
X172085000Y-82200000D02*
X172085000Y-82900000D01*
X172435000Y-82550000D02*
X171735000Y-82550000D01*
D11*
X170835000Y-79300000D02*
X170135000Y-79300000D01*
X170135000Y-80300000D01*
X170835000Y-80300000D01*
X170835000Y-79300000D01*
X170835000Y-84800000D02*
X170135000Y-84800000D01*
X170135000Y-85800000D01*
X170835000Y-85800000D01*
X170835000Y-84800000D01*
X174035000Y-79300000D02*
X173335000Y-79300000D01*
X173335000Y-80300000D01*
X174035000Y-80300000D01*
X174035000Y-79300000D01*
X174035000Y-84800000D02*
X173335000Y-84800000D01*
X173335000Y-85800000D01*
X174035000Y-85800000D01*
X174035000Y-84800000D01*
X174335000Y-80300000D02*
X169835000Y-80300000D01*
X169835000Y-84800000D01*
X174335000Y-84800000D01*
X174335000Y-80300000D01*
D10*
X172335000Y-82550000D02*
G75*
G02*
X171835000Y-82550000I-250000J0D01*
G01*
X171835000Y-82550000D02*
G75*
G02*
X172335000Y-82550000I250000J0D01*
G01*
D12*
%TO.C,Q2*%
X157415000Y-75950000D02*
X158815000Y-75950000D01*
X157415000Y-78990000D02*
X157415000Y-75950000D01*
D10*
X157765000Y-77470000D02*
X158465000Y-77470000D01*
X158115000Y-77820000D02*
X158115000Y-77120000D01*
D12*
X158348000Y-78990000D02*
X157415000Y-78990000D01*
X158815000Y-75950000D02*
X158815000Y-78523000D01*
X158815000Y-78523000D02*
X158348000Y-78990000D01*
D10*
X158365000Y-77470000D02*
G75*
G02*
X157865000Y-77470000I-250000J0D01*
G01*
X157865000Y-77470000D02*
G75*
G02*
X158365000Y-77470000I250000J0D01*
G01*
D13*
X159516000Y-79095000D02*
G75*
G02*
X159266000Y-79095000I-125000J0D01*
G01*
X159266000Y-79095000D02*
G75*
G02*
X159516000Y-79095000I125000J0D01*
G01*
D14*
%TO.C,H1*%
X118110000Y-74930000D02*
G75*
G02*
X115570000Y-74930000I-1270000J0D01*
G01*
X115570000Y-74930000D02*
G75*
G02*
X118110000Y-74930000I1270000J0D01*
G01*
X118110000Y-74930000D02*
G75*
G02*
X115570000Y-74930000I-1270000J0D01*
G01*
X115570000Y-74930000D02*
G75*
G02*
X118110000Y-74930000I1270000J0D01*
G01*
D11*
%TO.C,R12*%
X154489000Y-85390000D02*
X155389000Y-85390000D01*
X154489000Y-86900000D02*
X155389000Y-86900000D01*
X154489000Y-87090000D02*
X154489000Y-85390000D01*
X154489000Y-88600000D02*
X154489000Y-86900000D01*
D10*
X154939000Y-86590000D02*
X154939000Y-85890000D01*
X154939000Y-88100000D02*
X154939000Y-87400000D01*
X155289000Y-86240000D02*
X154589000Y-86240000D01*
X155289000Y-87750000D02*
X154589000Y-87750000D01*
D11*
X155389000Y-85390000D02*
X155389000Y-87090000D01*
X155389000Y-86900000D02*
X155389000Y-88600000D01*
X155389000Y-87090000D02*
X154489000Y-87090000D01*
X155389000Y-88600000D02*
X154489000Y-88600000D01*
D10*
X155189000Y-86240000D02*
G75*
G02*
X154689000Y-86240000I-250000J0D01*
G01*
X154689000Y-86240000D02*
G75*
G02*
X155189000Y-86240000I250000J0D01*
G01*
X155189000Y-87750000D02*
G75*
G02*
X154689000Y-87750000I-250000J0D01*
G01*
X154689000Y-87750000D02*
G75*
G02*
X155189000Y-87750000I250000J0D01*
G01*
D11*
%TO.C,C2*%
X130081000Y-117477000D02*
X131031000Y-117477000D01*
X130081000Y-119227000D02*
X130081000Y-117477000D01*
D10*
X130556000Y-118702000D02*
X130556000Y-118002000D01*
X130906000Y-118352000D02*
X130206000Y-118352000D01*
D11*
X131031000Y-117477000D02*
X131031000Y-119227000D01*
X131031000Y-119227000D02*
X130081000Y-119227000D01*
D10*
X130806000Y-118352000D02*
G75*
G02*
X130306000Y-118352000I-250000J0D01*
G01*
X130306000Y-118352000D02*
G75*
G02*
X130806000Y-118352000I250000J0D01*
G01*
D14*
%TO.C,J1*%
X143370000Y-81620000D02*
X143370000Y-74020000D01*
X144170000Y-80020000D02*
X144170000Y-81620000D01*
X144170000Y-81620000D02*
X143370000Y-81620000D01*
X148320000Y-79312893D02*
X147820000Y-80020000D01*
X148820000Y-80020000D02*
X148320000Y-79312893D01*
X150470000Y-80020000D02*
X144170000Y-80020000D01*
X150470000Y-81620000D02*
X150470000Y-80020000D01*
X151270000Y-74020000D02*
X143370000Y-74020000D01*
X151270000Y-81620000D02*
X150470000Y-81620000D01*
X151270000Y-81620000D02*
X151270000Y-74020000D01*
D12*
%TO.C,Q4*%
X153455000Y-75970000D02*
X155155000Y-75970000D01*
X153455000Y-78970000D02*
X153455000Y-75970000D01*
D10*
X153955000Y-77470000D02*
X154655000Y-77470000D01*
X154305000Y-77820000D02*
X154305000Y-77120000D01*
D12*
X154522000Y-78970000D02*
X153455000Y-78970000D01*
X155155000Y-75970000D02*
X155155000Y-78337000D01*
X155155000Y-78337000D02*
X154522000Y-78970000D01*
D10*
X154555000Y-77470000D02*
G75*
G02*
X154055000Y-77470000I-250000J0D01*
G01*
X154055000Y-77470000D02*
G75*
G02*
X154555000Y-77470000I250000J0D01*
G01*
%TO.C,J2*%
D14*
X130898000Y-99680000D02*
X116448000Y-99680000D01*
X116448000Y-113680000D01*
X130898000Y-113680000D01*
X130898000Y-99680000D01*
D10*
%TO.C,SW4*%
X172085000Y-97440000D02*
X172085000Y-98140000D01*
X172435000Y-97790000D02*
X171735000Y-97790000D01*
D11*
X170835000Y-94540000D02*
X170135000Y-94540000D01*
X170135000Y-95540000D01*
X170835000Y-95540000D01*
X170835000Y-94540000D01*
X170835000Y-100040000D02*
X170135000Y-100040000D01*
X170135000Y-101040000D01*
X170835000Y-101040000D01*
X170835000Y-100040000D01*
X174035000Y-94540000D02*
X173335000Y-94540000D01*
X173335000Y-95540000D01*
X174035000Y-95540000D01*
X174035000Y-94540000D01*
X174035000Y-100040000D02*
X173335000Y-100040000D01*
X173335000Y-101040000D01*
X174035000Y-101040000D01*
X174035000Y-100040000D01*
X174335000Y-95540000D02*
X169835000Y-95540000D01*
X169835000Y-100040000D01*
X174335000Y-100040000D01*
X174335000Y-95540000D01*
D10*
X172335000Y-97790000D02*
G75*
G02*
X171835000Y-97790000I-250000J0D01*
G01*
X171835000Y-97790000D02*
G75*
G02*
X172335000Y-97790000I250000J0D01*
G01*
D11*
%TO.C,R10*%
X136305000Y-117914000D02*
X138005000Y-117914000D01*
X136305000Y-118814000D02*
X136305000Y-117914000D01*
D10*
X136805000Y-118364000D02*
X137505000Y-118364000D01*
X137155000Y-118714000D02*
X137155000Y-118014000D01*
D11*
X138005000Y-117914000D02*
X138005000Y-118814000D01*
X138005000Y-118814000D02*
X136305000Y-118814000D01*
D10*
X137405000Y-118364000D02*
G75*
G02*
X136905000Y-118364000I-250000J0D01*
G01*
X136905000Y-118364000D02*
G75*
G02*
X137405000Y-118364000I250000J0D01*
G01*
D11*
%TO.C,R5*%
X127439000Y-96686000D02*
X128339000Y-96686000D01*
X127439000Y-98386000D02*
X127439000Y-96686000D01*
D10*
X127889000Y-97886000D02*
X127889000Y-97186000D01*
X128239000Y-97536000D02*
X127539000Y-97536000D01*
D11*
X128339000Y-96686000D02*
X128339000Y-98386000D01*
X128339000Y-98386000D02*
X127439000Y-98386000D01*
D10*
X128139000Y-97536000D02*
G75*
G02*
X127639000Y-97536000I-250000J0D01*
G01*
X127639000Y-97536000D02*
G75*
G02*
X128139000Y-97536000I250000J0D01*
G01*
D11*
%TO.C,C4*%
X117127000Y-96661000D02*
X118077000Y-96661000D01*
X117127000Y-98411000D02*
X117127000Y-96661000D01*
D10*
X117252000Y-97536000D02*
X117952000Y-97536000D01*
X117602000Y-97186000D02*
X117602000Y-97886000D01*
D11*
X118077000Y-96661000D02*
X118077000Y-98411000D01*
X118077000Y-98411000D02*
X117127000Y-98411000D01*
D10*
X117852000Y-97536000D02*
G75*
G02*
X117352000Y-97536000I-250000J0D01*
G01*
X117352000Y-97536000D02*
G75*
G02*
X117852000Y-97536000I250000J0D01*
G01*
D14*
%TO.C,H4*%
X173990000Y-118110000D02*
G75*
G02*
X171450000Y-118110000I-1270000J0D01*
G01*
X171450000Y-118110000D02*
G75*
G02*
X173990000Y-118110000I1270000J0D01*
G01*
X173990000Y-118110000D02*
G75*
G02*
X171450000Y-118110000I-1270000J0D01*
G01*
X171450000Y-118110000D02*
G75*
G02*
X173990000Y-118110000I1270000J0D01*
G01*
D11*
%TO.C,R3*%
X120893000Y-96686000D02*
X121793000Y-96686000D01*
X120893000Y-98386000D02*
X120893000Y-96686000D01*
D10*
X121343000Y-97886000D02*
X121343000Y-97186000D01*
X121693000Y-97536000D02*
X120993000Y-97536000D01*
D11*
X121793000Y-96686000D02*
X121793000Y-98386000D01*
X121793000Y-98386000D02*
X120893000Y-98386000D01*
D10*
X121593000Y-97536000D02*
G75*
G02*
X121093000Y-97536000I-250000J0D01*
G01*
X121093000Y-97536000D02*
G75*
G02*
X121593000Y-97536000I250000J0D01*
G01*
D14*
%TO.C,J3*%
X115535000Y-84630000D02*
X115535000Y-90630000D01*
X119077893Y-86130000D02*
X119785000Y-86630000D01*
X119785000Y-84630000D02*
X115535000Y-84630000D01*
X119785000Y-84630000D02*
X119785000Y-90630000D01*
X119785000Y-85630000D02*
X119077893Y-86130000D01*
X119785000Y-90630000D02*
X115535000Y-90630000D01*
D11*
%TO.C,R1*%
X130741000Y-96686000D02*
X131641000Y-96686000D01*
X130741000Y-98386000D02*
X130741000Y-96686000D01*
D10*
X131191000Y-97886000D02*
X131191000Y-97186000D01*
X131541000Y-97536000D02*
X130841000Y-97536000D01*
D11*
X131641000Y-96686000D02*
X131641000Y-98386000D01*
X131641000Y-98386000D02*
X130741000Y-98386000D01*
D10*
X131441000Y-97536000D02*
G75*
G02*
X130941000Y-97536000I-250000J0D01*
G01*
X130941000Y-97536000D02*
G75*
G02*
X131441000Y-97536000I250000J0D01*
G01*
%TO.C,U2*%
X133350000Y-116490000D02*
X133350000Y-117190000D01*
X133700000Y-116840000D02*
X133000000Y-116840000D01*
D14*
X132100000Y-115590000D02*
X134600000Y-115590000D01*
X134600000Y-118090000D01*
X132100000Y-118090000D01*
X132100000Y-115590000D01*
D10*
X133600000Y-116840000D02*
G75*
G02*
X133100000Y-116840000I-250000J0D01*
G01*
X133100000Y-116840000D02*
G75*
G02*
X133600000Y-116840000I250000J0D01*
G01*
D11*
X135025000Y-115240000D02*
G75*
G02*
X134875000Y-115240000I-75000J0D01*
G01*
X134875000Y-115240000D02*
G75*
G02*
X135025000Y-115240000I75000J0D01*
G01*
D12*
%TO.C,Q1*%
X157415000Y-79760000D02*
X158815000Y-79760000D01*
X157415000Y-82800000D02*
X157415000Y-79760000D01*
D10*
X157765000Y-81280000D02*
X158465000Y-81280000D01*
X158115000Y-81630000D02*
X158115000Y-80930000D01*
D12*
X158348000Y-82800000D02*
X157415000Y-82800000D01*
X158815000Y-79760000D02*
X158815000Y-82333000D01*
X158815000Y-82333000D02*
X158348000Y-82800000D01*
D10*
X158365000Y-81280000D02*
G75*
G02*
X157865000Y-81280000I-250000J0D01*
G01*
X157865000Y-81280000D02*
G75*
G02*
X158365000Y-81280000I250000J0D01*
G01*
D13*
X159516000Y-82905000D02*
G75*
G02*
X159266000Y-82905000I-125000J0D01*
G01*
X159266000Y-82905000D02*
G75*
G02*
X159516000Y-82905000I125000J0D01*
G01*
D11*
%TO.C,R2*%
X119242000Y-96686000D02*
X120142000Y-96686000D01*
X119242000Y-98386000D02*
X119242000Y-96686000D01*
D10*
X119692000Y-97886000D02*
X119692000Y-97186000D01*
X120042000Y-97536000D02*
X119342000Y-97536000D01*
D11*
X120142000Y-96686000D02*
X120142000Y-98386000D01*
X120142000Y-98386000D02*
X119242000Y-98386000D01*
D10*
X119942000Y-97536000D02*
G75*
G02*
X119442000Y-97536000I-250000J0D01*
G01*
X119442000Y-97536000D02*
G75*
G02*
X119942000Y-97536000I250000J0D01*
G01*
D11*
%TO.C,R9*%
X136315000Y-116390000D02*
X138015000Y-116390000D01*
X136315000Y-117290000D02*
X136315000Y-116390000D01*
D10*
X136815000Y-116840000D02*
X137515000Y-116840000D01*
X137165000Y-117190000D02*
X137165000Y-116490000D01*
D11*
X138015000Y-116390000D02*
X138015000Y-117290000D01*
X138015000Y-117290000D02*
X136315000Y-117290000D01*
D10*
X137415000Y-116840000D02*
G75*
G02*
X136915000Y-116840000I-250000J0D01*
G01*
X136915000Y-116840000D02*
G75*
G02*
X137415000Y-116840000I250000J0D01*
G01*
D11*
%TO.C,R6*%
X125788000Y-96686000D02*
X126688000Y-96686000D01*
X125788000Y-98386000D02*
X125788000Y-96686000D01*
D10*
X126238000Y-97886000D02*
X126238000Y-97186000D01*
X126588000Y-97536000D02*
X125888000Y-97536000D01*
D11*
X126688000Y-96686000D02*
X126688000Y-98386000D01*
X126688000Y-98386000D02*
X125788000Y-98386000D01*
D10*
X126488000Y-97536000D02*
G75*
G02*
X125988000Y-97536000I-250000J0D01*
G01*
X125988000Y-97536000D02*
G75*
G02*
X126488000Y-97536000I250000J0D01*
G01*
%TO.C,SW1*%
D12*
X163204000Y-85072000D02*
X167504000Y-85072000D01*
X167504000Y-76472000D01*
X163204000Y-76472000D01*
X163204000Y-85072000D01*
D14*
%TO.C,H3*%
X118110000Y-118110000D02*
G75*
G02*
X115570000Y-118110000I-1270000J0D01*
G01*
X115570000Y-118110000D02*
G75*
G02*
X118110000Y-118110000I1270000J0D01*
G01*
X118110000Y-118110000D02*
G75*
G02*
X115570000Y-118110000I-1270000J0D01*
G01*
X115570000Y-118110000D02*
G75*
G02*
X118110000Y-118110000I1270000J0D01*
G01*
D11*
%TO.C,R7*%
X129090000Y-96686000D02*
X129990000Y-96686000D01*
X129090000Y-98386000D02*
X129090000Y-96686000D01*
D10*
X129540000Y-97886000D02*
X129540000Y-97186000D01*
X129890000Y-97536000D02*
X129190000Y-97536000D01*
D11*
X129990000Y-96686000D02*
X129990000Y-98386000D01*
X129990000Y-98386000D02*
X129090000Y-98386000D01*
D10*
X129790000Y-97536000D02*
G75*
G02*
X129290000Y-97536000I-250000J0D01*
G01*
X129290000Y-97536000D02*
G75*
G02*
X129790000Y-97536000I250000J0D01*
G01*
D11*
%TO.C,R11*%
X151950000Y-85390000D02*
X152850000Y-85390000D01*
X151950000Y-86900000D02*
X152850000Y-86900000D01*
X151950000Y-87090000D02*
X151950000Y-85390000D01*
X151950000Y-88600000D02*
X151950000Y-86900000D01*
D10*
X152400000Y-86590000D02*
X152400000Y-85890000D01*
X152400000Y-88100000D02*
X152400000Y-87400000D01*
X152750000Y-86240000D02*
X152050000Y-86240000D01*
X152750000Y-87750000D02*
X152050000Y-87750000D01*
D11*
X152850000Y-85390000D02*
X152850000Y-87090000D01*
X152850000Y-86900000D02*
X152850000Y-88600000D01*
X152850000Y-87090000D02*
X151950000Y-87090000D01*
X152850000Y-88600000D02*
X151950000Y-88600000D01*
D10*
X152650000Y-86240000D02*
G75*
G02*
X152150000Y-86240000I-250000J0D01*
G01*
X152150000Y-86240000D02*
G75*
G02*
X152650000Y-86240000I250000J0D01*
G01*
X152650000Y-87750000D02*
G75*
G02*
X152150000Y-87750000I-250000J0D01*
G01*
X152150000Y-87750000D02*
G75*
G02*
X152650000Y-87750000I250000J0D01*
G01*
D11*
%TO.C,R8*%
X136315000Y-114866000D02*
X138015000Y-114866000D01*
X136315000Y-115766000D02*
X136315000Y-114866000D01*
D10*
X136815000Y-115316000D02*
X137515000Y-115316000D01*
X137165000Y-115666000D02*
X137165000Y-114966000D01*
D11*
X138015000Y-114866000D02*
X138015000Y-115766000D01*
X138015000Y-115766000D02*
X136315000Y-115766000D01*
D10*
X137415000Y-115316000D02*
G75*
G02*
X136915000Y-115316000I-250000J0D01*
G01*
X136915000Y-115316000D02*
G75*
G02*
X137415000Y-115316000I250000J0D01*
G01*
D11*
%TO.C,C1*%
X130081000Y-114441000D02*
X131031000Y-114441000D01*
X130081000Y-116191000D02*
X130081000Y-114441000D01*
D10*
X130556000Y-115666000D02*
X130556000Y-114966000D01*
X130906000Y-115316000D02*
X130206000Y-115316000D01*
D11*
X131031000Y-114441000D02*
X131031000Y-116191000D01*
X131031000Y-116191000D02*
X130081000Y-116191000D01*
D10*
X130806000Y-115316000D02*
G75*
G02*
X130306000Y-115316000I-250000J0D01*
G01*
X130306000Y-115316000D02*
G75*
G02*
X130806000Y-115316000I250000J0D01*
G01*
D11*
%TO.C,R4*%
X122613000Y-96686000D02*
X123513000Y-96686000D01*
X122613000Y-98386000D02*
X122613000Y-96686000D01*
D10*
X123063000Y-97886000D02*
X123063000Y-97186000D01*
X123413000Y-97536000D02*
X122713000Y-97536000D01*
D11*
X123513000Y-96686000D02*
X123513000Y-98386000D01*
X123513000Y-98386000D02*
X122613000Y-98386000D01*
D10*
X123313000Y-97536000D02*
G75*
G02*
X122813000Y-97536000I-250000J0D01*
G01*
X122813000Y-97536000D02*
G75*
G02*
X123313000Y-97536000I250000J0D01*
G01*
D11*
%TO.C,C3*%
X115476000Y-96661000D02*
X116426000Y-96661000D01*
X115476000Y-98411000D02*
X115476000Y-96661000D01*
D10*
X115601000Y-97536000D02*
X116301000Y-97536000D01*
X115951000Y-97186000D02*
X115951000Y-97886000D01*
D11*
X116426000Y-96661000D02*
X116426000Y-98411000D01*
X116426000Y-98411000D02*
X115476000Y-98411000D01*
D10*
X116201000Y-97536000D02*
G75*
G02*
X115701000Y-97536000I-250000J0D01*
G01*
X115701000Y-97536000D02*
G75*
G02*
X116201000Y-97536000I250000J0D01*
G01*
D12*
%TO.C,Q3*%
X153455000Y-79780000D02*
X155155000Y-79780000D01*
X153455000Y-82780000D02*
X153455000Y-79780000D01*
D10*
X153955000Y-81280000D02*
X154655000Y-81280000D01*
X154305000Y-81630000D02*
X154305000Y-80930000D01*
D12*
X154522000Y-82780000D02*
X153455000Y-82780000D01*
X155155000Y-79780000D02*
X155155000Y-82147000D01*
X155155000Y-82147000D02*
X154522000Y-82780000D01*
D10*
X154555000Y-81280000D02*
G75*
G02*
X154055000Y-81280000I-250000J0D01*
G01*
X154055000Y-81280000D02*
G75*
G02*
X154555000Y-81280000I250000J0D01*
G01*
D14*
%TO.C,H2*%
X173990000Y-74930000D02*
G75*
G02*
X171450000Y-74930000I-1270000J0D01*
G01*
X171450000Y-74930000D02*
G75*
G02*
X173990000Y-74930000I1270000J0D01*
G01*
X173990000Y-74930000D02*
G75*
G02*
X171450000Y-74930000I-1270000J0D01*
G01*
X171450000Y-74930000D02*
G75*
G02*
X173990000Y-74930000I1270000J0D01*
G01*
%TD*%
X114442493Y-72533748D02*
X119234999Y-77326251D01*
X114442493Y-77326251D02*
X119234999Y-72533748D01*
X170322493Y-115713748D02*
X175114999Y-120506251D01*
X170322493Y-120506251D02*
X175114999Y-115713748D01*
X114442493Y-115713748D02*
X119234999Y-120506251D01*
X114442493Y-120506251D02*
X119234999Y-115713748D01*
X170322493Y-72533748D02*
X175114999Y-77326251D01*
X170322493Y-77326251D02*
X175114999Y-72533748D01*
M02*
